<?xml version="1.0" encoding="UTF-8" standalone="no"?>
<!DOCTYPE svg PUBLIC "-//W3C//DTD SVG 1.1//EN" "http://www.w3.org/Graphics/SVG/1.1/DTD/svg11.dtd">
<svg xmlns="http://www.w3.org/2000/svg" xmlns:xl="http://www.w3.org/1999/xlink" xmlns:dc="http://purl.org/dc/elements/1.1/" version="1.1" viewBox="-144 2790 1142 477" width="1142" height="477">
  <defs>
    <marker orient="auto" overflow="visible" markerUnits="strokeWidth" id="FilledArrow_Marker" stroke-linejoin="miter" stroke-miterlimit="10" viewBox="-1 -3 7 6" markerWidth="7" markerHeight="6" color="#666">
      <g>
        <path d="M 4.8 0 L 0 -1.8 L 0 1.8 Z" fill="currentColor" stroke="currentColor" stroke-width="1"/>
      </g>
    </marker>
  </defs>
  <g id="workload-onboarding-overview" fill-opacity="1" stroke="none" stroke-opacity="1" fill="none" stroke-dasharray="none">
    <title>workload-onboarding-overview</title>
    <rect fill="white" x="-144" y="2790" width="1142" height="477"/>
    <g id="workload-onboarding-overview_Layer_1">
      <title>Layer 1</title>
      <g id="Graphic_28"/>
      <g id="Graphic_5">
        <path d="M -115.30709 2820.4725 L 116.72441 2820.4725 C 121.14269 2820.4725 124.72441 2824.0542 124.72441 2828.4725 L 124.72441 3227.748 C 124.72441 3232.1663 121.14269 3235.748 116.72441 3235.748 L -115.30709 3235.748 C -119.72537 3235.748 -123.30709 3232.1663 -123.30709 3227.748 L -123.30709 2828.4725 C -123.30709 2824.0542 -119.72537 2820.4725 -115.30709 2820.4725 Z" fill="#f0f0f0"/>
        <text transform="translate(-118.30709 2828.4725)" fill="black">
          <tspan font-family="Helvetica Neue" font-weight="bold" font-size="18" fill="black" x="105.18275" y="18">VM</tspan>
        </text>
      </g>
      <g id="Graphic_2">
        <path d="M -56.48819 3019.6063 L 57.90551 3019.6063 C 62.32379 3019.6063 65.90551 3023.188 65.90551 3027.6063 L 65.90551 3076.803 C 65.90551 3081.2215 62.32379 3084.803 57.90551 3084.803 L -56.48819 3084.803 C -60.90647 3084.803 -64.48819 3081.2215 -64.48819 3076.803 L -64.48819 3027.6063 C -64.48819 3023.188 -60.90647 3019.6063 -56.48819 3019.6063 Z" fill="#0a55a8"/>
        <text transform="translate(-59.48819 3042.4727)" fill="white">
          <tspan font-family="Helvetica Neue" font-weight="bold" font-size="16" fill="white" x="12.51685" y="16">Istio Sidecar</tspan>
        </text>
      </g>
      <g id="Graphic_3">
        <path d="M -56.48819 2892.756 L 57.90551 2892.756 C 62.32379 2892.756 65.90551 2896.3377 65.90551 2900.756 L 65.90551 2949.9528 C 65.90551 2954.371 62.32379 2957.9528 57.90551 2957.9528 L -56.48819 2957.9528 C -60.90647 2957.9528 -64.48819 2954.371 -64.48819 2949.9528 L -64.48819 2900.756 C -64.48819 2896.3377 -60.90647 2892.756 -56.48819 2892.756 Z" fill="#666"/>
        <path d="M -56.48819 2892.756 L 57.90551 2892.756 C 62.32379 2892.756 65.90551 2896.3377 65.90551 2900.756 L 65.90551 2949.9528 C 65.90551 2954.371 62.32379 2957.9528 57.90551 2957.9528 L -56.48819 2957.9528 C -60.90647 2957.9528 -64.48819 2954.371 -64.48819 2949.9528 L -64.48819 2900.756 C -64.48819 2896.3377 -60.90647 2892.756 -56.48819 2892.756 Z" stroke="gray" stroke-linecap="round" stroke-linejoin="round" stroke-width="1"/>
        <text transform="translate(-59.48819 2896.1582)" fill="white">
          <tspan font-family="Helvetica Neue" font-weight="bold" font-size="16" fill="white" x="24.07685" y="16">Workload </tspan>
          <tspan font-family="Helvetica Neue" font-weight="bold" font-size="16" fill="white" x="15.30885" y="35.46411">Onboarding </tspan>
          <tspan font-family="Helvetica Neue" font-weight="bold" font-size="16" fill="white" x="37.67685" y="54.92822">Agent</tspan>
        </text>
      </g>
      <g id="Graphic_4">
        <path d="M -56.48819 3146.4567 L 57.90551 3146.4567 C 62.32379 3146.4567 65.90551 3150.0384 65.90551 3154.4567 L 65.90551 3203.6536 C 65.90551 3208.072 62.32379 3211.6536 57.90551 3211.6536 L -56.48819 3211.6536 C -60.90647 3211.6536 -64.48819 3208.072 -64.48819 3203.6536 L -64.48819 3154.4567 C -64.48819 3150.0384 -60.90647 3146.4567 -56.48819 3146.4567 Z" fill="#333"/>
        <text transform="translate(-59.48819 3159.591)" fill="white">
          <tspan font-family="Helvetica Neue" font-weight="bold" font-size="16" fill="white" x="24.07685" y="16">Workload</tspan>
          <tspan font-family="Helvetica Neue" font-weight="bold" font-size="16" fill="white" x="20.05285" y="35.46411">(User App)</tspan>
        </text>
      </g>
      <g id="Graphic_9">
        <path d="M 311.3071 2820.4725 L 543.3386 2820.4725 C 547.75687 2820.4725 551.3386 2824.0542 551.3386 2828.4725 L 551.3386 3227.748 C 551.3386 3232.1663 547.75687 3235.748 543.3386 3235.748 L 311.3071 3235.748 C 306.8888 3235.748 303.3071 3232.1663 303.3071 3227.748 L 303.3071 2828.4725 C 303.3071 2824.0542 306.8888 2820.4725 311.3071 2820.4725 Z" fill="#f0f0f0"/>
        <text transform="translate(308.3071 2828.4725)" fill="black">
          <tspan font-family="Helvetica Neue" font-weight="bold" font-size="18" fill="black" x="35.684747" y="18">Kubernetes Cluster</tspan>
        </text>
      </g>
      <g id="Graphic_8">
        <path d="M 370.126 3019.6063 L 484.5197 3019.6063 C 488.93797 3019.6063 492.5197 3023.188 492.5197 3027.6063 L 492.5197 3076.803 C 492.5197 3081.2215 488.93797 3084.803 484.5197 3084.803 L 370.126 3084.803 C 365.7077 3084.803 362.126 3081.2215 362.126 3076.803 L 362.126 3027.6063 C 362.126 3023.188 365.7077 3019.6063 370.126 3019.6063 Z" fill="#0a55a8"/>
        <text transform="translate(367.126 3032.7406)" fill="white">
          <tspan font-family="Helvetica Neue" font-weight="bold" font-size="16" fill="white" x="13.25285" y="16">Istio Control </tspan>
          <tspan font-family="Helvetica Neue" font-weight="bold" font-size="16" fill="white" x="38.86885" y="35.46411">Plane</tspan>
        </text>
      </g>
      <g id="Graphic_7">
        <path d="M 370.126 2892.756 L 484.5197 2892.756 C 488.93797 2892.756 492.5197 2896.3377 492.5197 2900.756 L 492.5197 2949.9528 C 492.5197 2954.371 488.93797 2957.9528 484.5197 2957.9528 L 370.126 2957.9528 C 365.7077 2957.9528 362.126 2954.371 362.126 2949.9528 L 362.126 2900.756 C 362.126 2896.3377 365.7077 2892.756 370.126 2892.756 Z" fill="#666"/>
        <path d="M 370.126 2892.756 L 484.5197 2892.756 C 488.93797 2892.756 492.5197 2896.3377 492.5197 2900.756 L 492.5197 2949.9528 C 492.5197 2954.371 488.93797 2957.9528 484.5197 2957.9528 L 370.126 2957.9528 C 365.7077 2957.9528 362.126 2954.371 362.126 2949.9528 L 362.126 2900.756 C 362.126 2896.3377 365.7077 2892.756 370.126 2892.756 Z" stroke="gray" stroke-linecap="round" stroke-linejoin="round" stroke-width="1"/>
        <text transform="translate(367.126 2896.1582)" fill="white">
          <tspan font-family="Helvetica Neue" font-weight="bold" font-size="16" fill="white" x="24.07685" y="16">Workload </tspan>
          <tspan font-family="Helvetica Neue" font-weight="bold" font-size="16" fill="white" x="15.30885" y="35.46411">Onboarding </tspan>
          <tspan font-family="Helvetica Neue" font-weight="bold" font-size="16" fill="white" x="25.98085" y="54.92822">Endpoint</tspan>
        </text>
      </g>
      <g id="Graphic_12">
        <path d="M 737.9213 2820.4725 L 969.9528 2820.4725 C 974.371 2820.4725 977.9528 2824.0542 977.9528 2828.4725 L 977.9528 3227.748 C 977.9528 3232.1663 974.371 3235.748 969.9528 3235.748 L 737.9213 3235.748 C 733.503 3235.748 729.9213 3232.1663 729.9213 3227.748 L 729.9213 2828.4725 C 729.9213 2824.0542 733.503 2820.4725 737.9213 2820.4725 Z" fill="#f0f0f0"/>
        <text transform="translate(734.9213 2828.4725)" fill="black">
          <tspan font-family="Helvetica Neue" font-weight="bold" font-size="18" fill="black" x="55.17875" y="18">Cloud Provider</tspan>
          <tspan font-family="Helvetica Neue" font-weight="bold" font-size="18" fill="black" x="48.833747" y="40.522125">(the VM runs on)</tspan>
        </text>
      </g>
      <g id="Graphic_10">
        <path d="M 796.7402 2892.756 L 911.1339 2892.756 C 915.5521 2892.756 919.1339 2896.3377 919.1339 2900.756 L 919.1339 2949.9528 C 919.1339 2954.371 915.5521 2957.9528 911.1339 2957.9528 L 796.7402 2957.9528 C 792.3219 2957.9528 788.7402 2954.371 788.7402 2949.9528 L 788.7402 2900.756 C 788.7402 2896.3377 792.3219 2892.756 796.7402 2892.756 Z" fill="#666"/>
        <path d="M 796.7402 2892.756 L 911.1339 2892.756 C 915.5521 2892.756 919.1339 2896.3377 919.1339 2900.756 L 919.1339 2949.9528 C 919.1339 2954.371 915.5521 2957.9528 911.1339 2957.9528 L 796.7402 2957.9528 C 792.3219 2957.9528 788.7402 2954.371 788.7402 2949.9528 L 788.7402 2900.756 C 788.7402 2896.3377 792.3219 2892.756 796.7402 2892.756 Z" stroke="gray" stroke-linecap="round" stroke-linejoin="round" stroke-width="1"/>
        <text transform="translate(793.7402 2915.6223)" fill="white">
          <tspan font-family="Helvetica Neue" font-weight="bold" font-size="16" fill="white" x="21.08485" y="16">AuthN API</tspan>
        </text>
      </g>
      <g id="Line_13">
        <line x1=".7086614" y1="2957.9528" x2=".7086614" y2="3006.7063" marker-end="url(#FilledArrow_Marker)" stroke="#666" stroke-linecap="round" stroke-linejoin="round" stroke-dasharray="8.0,8.0" stroke-width="2"/>
      </g>
      <g id="Line_14">
        <line x1="427.32284" y1="2957.9528" x2="427.32284" y2="3006.7063" marker-end="url(#FilledArrow_Marker)" stroke="#666" stroke-linecap="round" stroke-linejoin="round" stroke-dasharray="8.0,8.0" stroke-width="2"/>
      </g>
      <g id="Line_15">
        <line x1="492.5197" y1="2943.75" x2="775.8402" y2="2943.75" marker-end="url(#FilledArrow_Marker)" stroke="#666" stroke-linecap="round" stroke-linejoin="round" stroke-dasharray="8.0,8.0" stroke-width="2"/>
      </g>
      <g id="Line_16">
        <line x1="788.7402" y1="2908.505" x2="505.4197" y2="2908.505" marker-end="url(#FilledArrow_Marker)" stroke="#666" stroke-linecap="round" stroke-linejoin="round" stroke-dasharray="8.0,8.0" stroke-width="2"/>
      </g>
      <g id="Graphic_17">
        <rect x="572.75196" y="2894.281" width="105.152" height="28.447998" fill="white"/>
        <text transform="translate(577.75196 2899.281)" fill="black">
          <tspan font-family="Helvetica Neue" font-size="16" fill="black" x="0" y="15">2. AuthN  VM</tspan>
        </text>
      </g>
      <g id="Graphic_18">
        <rect x="578.8055" y="2929.526" width="98.928" height="28.447998" fill="white"/>
        <text transform="translate(583.8055 2934.526)" fill="black">
          <tspan font-family="Helvetica Neue" font-size="16" fill="black" x="0" y="15">3. AuthZ VM</tspan>
        </text>
      </g>
      <g id="Line_19">
        <line x1="65.90551" y1="2910" x2="349.226" y2="2910" marker-end="url(#FilledArrow_Marker)" stroke="#666" stroke-linecap="round" stroke-linejoin="round" stroke-dasharray="8.0,8.0" stroke-width="2"/>
      </g>
      <g id="Graphic_20">
        <rect x="331.66684" y="2969.137" width="191.312" height="28.447998" fill="#f0f0ef"/>
        <text transform="translate(336.66684 2974.137)" fill="black">
          <tspan font-family="Helvetica Neue" font-size="16" fill="black" x="8526513e-19" y="15">4. Register new workload</tspan>
        </text>
      </g>
      <g id="Line_22">
        <line x1="65.90551" y1="3052.2048" x2="349.226" y2="3052.2048" marker-end="url(#FilledArrow_Marker)" stroke="#666" stroke-linecap="round" stroke-linejoin="round" stroke-dasharray="8.0,8.0" stroke-width="2"/>
      </g>
      <g id="Graphic_23">
        <rect x="147.72575" y="3037.9808" width="115.216" height="28.447998" fill="white"/>
        <text transform="translate(152.72575 3042.9808)" fill="black">
          <tspan font-family="Helvetica Neue" font-size="16" fill="black" x="17053026e-20" y="15">7. Connects to</tspan>
        </text>
      </g>
      <g id="Graphic_24">
        <rect x="-115.86734" y="2966.3353" width="233.152" height="28.447998" fill="#f0f0ef"/>
        <text transform="translate(-110.86734 2971.3353)" fill="black">
          <tspan font-family="Helvetica Neue" font-size="16" fill="black" x="0" y="15">6. Saves boot config and starts</tspan>
        </text>
      </g>
      <g id="Graphic_25">
        <rect x="142.75089" y="2895.776" width="115.216" height="28.447998" fill="white"/>
        <text transform="translate(147.75089 2900.776)" fill="black">
          <tspan font-family="Helvetica Neue" font-size="16" fill="black" x="17053026e-20" y="15">1. Connects to</tspan>
        </text>
      </g>
      <g id="Line_26">
        <line x1="362.126" y1="2938.75" x2="78.80551" y2="2938.75" marker-end="url(#FilledArrow_Marker)" stroke="#666" stroke-linecap="round" stroke-linejoin="round" stroke-dasharray="8.0,8.0" stroke-width="2"/>
      </g>
      <g id="Graphic_27">
        <rect x="145.96276" y="2924.526" width="110.752" height="28.447998" fill="white"/>
        <text transform="translate(150.96276 2929.526)" fill="black">
          <tspan font-family="Helvetica Neue" font-size="16" fill="black" x="19184654e-20" y="15">5. Boot config</tspan>
        </text>
      </g>
    </g>
  </g>
</svg>
