<?xml version="1.0" encoding="UTF-8" standalone="no"?>
<!DOCTYPE svg PUBLIC "-//W3C//DTD SVG 1.1//EN" "http://www.w3.org/Graphics/SVG/1.1/DTD/svg11.dtd">
<svg xmlns="http://www.w3.org/2000/svg" xmlns:xl="http://www.w3.org/1999/xlink" xmlns:dc="http://purl.org/dc/elements/1.1/" version="1.1" viewBox="198 3128 1292 611" width="1292" height="611">
  <defs>
    <marker orient="auto" overflow="visible" markerUnits="strokeWidth" id="FilledArrow_Marker" stroke-linejoin="miter" stroke-miterlimit="10" viewBox="-1 -4 10 8" markerWidth="10" markerHeight="8" color="black">
      <g>
        <path d="M 8 0 L 0 -3 L 0 3 Z" fill="currentColor" stroke="currentColor" stroke-width="1"/>
      </g>
    </marker>
    <marker orient="auto" overflow="visible" markerUnits="strokeWidth" id="FilledArrow_Marker_2" stroke-linejoin="miter" stroke-miterlimit="10" viewBox="-9 -4 10 8" markerWidth="10" markerHeight="8" color="black">
      <g>
        <path d="M -8 0 L 0 3 L 0 -3 Z" fill="currentColor" stroke="currentColor" stroke-width="1"/>
      </g>
    </marker>
  </defs>
  <g id="rate-limiting-internal" fill-opacity="1" stroke="none" stroke-opacity="1" fill="none" stroke-dasharray="none">
    <title>rate-limiting-internal</title>
    <rect fill="white" x="198" y="3128" width="1292" height="611"/>
    <g id="rate-limiting-internal_Layer_1">
      <title>Layer 1</title>
      <g id="Graphic_59"/>
      <g id="Graphic_40">
        <rect x="500.31497" y="3181.8898" width="959.5276" height="531.49607" fill="white"/>
        <path d="M 500.31497 3181.8898 L 1459.8425 3181.8898 L 1459.8425 3713.386 L 500.31497 3713.386 Z" stroke="#a5a5a5" stroke-linecap="round" stroke-linejoin="round" stroke-dasharray="4.0,4.0" stroke-width="1"/>
      </g>
      <g id="Graphic_37">
        <rect x="525.8268" y="3390.2363" width="908.5039" height="297.6378" stroke="gray" stroke-linecap="round" stroke-linejoin="round" stroke-width="1"/>
      </g>
      <g id="Graphic_42">
        <rect x="226.77166" y="3181.8898" width="231.02362" height="531.49607" fill="white"/>
        <path d="M 226.77166 3181.8898 L 457.7953 3181.8898 L 457.7953 3713.386 L 226.77166 3713.386 Z" stroke="#a5a5a5" stroke-linecap="round" stroke-linejoin="round" stroke-dasharray="4.0,4.0" stroke-width="1"/>
      </g>
      <g id="Graphic_3">
        <path d="M 570.6772 3420 L 954.3622 3420 C 958.7805 3420 962.3622 3423.5818 962.3622 3428 L 962.3622 3650.1103 C 962.3622 3654.5285 958.7805 3658.1103 954.3622 3658.1103 L 570.6772 3658.1103 C 566.2589 3658.1103 562.6772 3654.5285 562.6772 3650.1103 L 562.6772 3428 C 562.6772 3423.5818 566.2589 3420 570.6772 3420 Z" fill="#f4f4f4"/>
        <text transform="translate(567.6772 3434)" fill="black">
          <tspan font-family="Helvetica Neue" font-weight="bold" font-size="16" fill="black" x="160.61851" y="16">Cluster 1</tspan>
        </text>
      </g>
      <g id="Graphic_2">
        <path d="M 533.8268 3245.6693 L 1426.3307 3245.6693 C 1430.749 3245.6693 1434.3307 3249.251 1434.3307 3253.6693 L 1434.3307 3297.197 C 1434.3307 3301.615 1430.749 3305.197 1426.3307 3305.197 L 533.8268 3305.197 C 529.4085 3305.197 525.8268 3301.615 525.8268 3297.197 L 525.8268 3253.6693 C 525.8268 3249.251 529.4085 3245.6693 533.8268 3245.6693 Z" fill="#f15623"/>
        <text transform="translate(530.8268 3266.209)" fill="white">
          <tspan font-family="Helvetica Neue" font-size="16" fill="white" x="370.444" y="15">Tetrate Service Bridge</tspan>
        </text>
      </g>
      <g id="Graphic_4">
        <path d="M 589.1024 3469.6063 L 663.811 3469.6063 C 668.2293 3469.6063 671.811 3473.188 671.811 3477.6063 L 671.811 3631.685 C 671.811 3636.1034 668.2293 3639.685 663.811 3639.685 L 589.1024 3639.685 C 584.6841 3639.685 581.1024 3636.1034 581.1024 3631.685 L 581.1024 3477.6063 C 581.1024 3473.188 584.6841 3469.6063 589.1024 3469.6063 Z" fill="white"/>
        <text transform="translate(586.1024 3536.1977)" fill="black">
          <tspan font-family="Helvetica Neue" font-size="16" fill="black" x="9.090332" y="15">Ratelimit</tspan>
          <tspan font-family="Helvetica Neue" font-size="16" fill="black" x="17.250332" y="33.448">Server</tspan>
        </text>
      </g>
      <g id="Group_9">
        <g id="Graphic_7">
          <path d="M 693.0709 3540.9764 L 693.0709 3477.6063 C 693.0709 3473.188 696.6526 3469.6063 701.0709 3469.6063 L 929.5591 3469.6063 C 933.9773 3469.6063 937.5591 3473.188 937.5591 3477.6063 C 937.5591 3477.6063 937.5591 3477.6063 937.5591 3477.6063 L 937.5591 3540.9764 C 937.5591 3545.3947 933.9773 3548.9764 929.5591 3548.9764 L 701.0709 3548.9764 C 696.6526 3548.9764 693.0709 3545.3947 693.0709 3540.9764 Z" fill="white"/>
          <text transform="translate(698.0709 3543.9764) rotate(-90)" fill="black">
            <tspan font-family="Helvetica Neue" font-size="16" fill="black" x="20.16504" y="15">Pod</tspan>
          </text>
        </g>
        <g id="Graphic_5">
          <path d="M 735.7953 3479.5276 L 810.5039 3479.5276 C 814.9222 3479.5276 818.5039 3483.1093 818.5039 3487.5276 L 818.5039 3531.055 C 818.5039 3535.4734 814.9222 3539.055 810.5039 3539.055 L 735.7953 3539.055 C 731.377 3539.055 727.7953 3535.4734 727.7953 3531.055 L 727.7953 3487.5276 C 727.7953 3483.1093 731.377 3479.5276 735.7953 3479.5276 Z" fill="#ffc0ff"/>
          <text transform="translate(732.7953 3500.0674)" fill="black">
            <tspan font-family="Helvetica Neue" font-size="16" fill="black" x="18.426332" y="15">Envoy</tspan>
          </text>
        </g>
        <g id="Graphic_6">
          <path d="M 840.6772 3479.5276 L 915.3858 3479.5276 C 919.8041 3479.5276 923.3858 3483.1093 923.3858 3487.5276 L 923.3858 3531.055 C 923.3858 3535.4734 919.8041 3539.055 915.3858 3539.055 L 840.6772 3539.055 C 836.2589 3539.055 832.6772 3535.4734 832.6772 3531.055 L 832.6772 3487.5276 C 832.6772 3483.1093 836.2589 3479.5276 840.6772 3479.5276 Z" fill="#c0ffc0"/>
          <text transform="translate(837.6772 3490.8434)" fill="black">
            <tspan font-family="Helvetica Neue" font-size="16" fill="black" x="6.586332" y="15">Workload</tspan>
            <tspan font-family="Helvetica Neue" font-size="16" fill="black" x="9.698332" y="33.448">(Service)</tspan>
          </text>
        </g>
      </g>
      <g id="Group_12">
        <g id="Graphic_15">
          <path d="M 693.0709 3631.685 L 693.0709 3568.315 C 693.0709 3563.8967 696.6526 3560.315 701.0709 3560.315 L 929.5591 3560.315 C 933.9773 3560.315 937.5591 3563.8967 937.5591 3568.315 C 937.5591 3568.315 937.5591 3568.315 937.5591 3568.315 L 937.5591 3631.685 C 937.5591 3636.1034 933.9773 3639.685 929.5591 3639.685 L 701.0709 3639.685 C 696.6526 3639.685 693.0709 3636.1034 693.0709 3631.685 Z" fill="white"/>
          <text transform="translate(698.0709 3634.685) rotate(-90)" fill="black">
            <tspan font-family="Helvetica Neue" font-size="16" fill="black" x="20.16504" y="15">Pod</tspan>
          </text>
        </g>
        <g id="Graphic_14">
          <path d="M 735.7953 3570.2363 L 810.5039 3570.2363 C 814.9222 3570.2363 818.5039 3573.818 818.5039 3578.2363 L 818.5039 3621.764 C 818.5039 3626.182 814.9222 3629.764 810.5039 3629.764 L 735.7953 3629.764 C 731.377 3629.764 727.7953 3626.182 727.7953 3621.764 L 727.7953 3578.2363 C 727.7953 3573.818 731.377 3570.2363 735.7953 3570.2363 Z" fill="#ffc0ff"/>
          <text transform="translate(732.7953 3590.776)" fill="black">
            <tspan font-family="Helvetica Neue" font-size="16" fill="black" x="18.426332" y="15">Envoy</tspan>
          </text>
        </g>
        <g id="Graphic_13">
          <path d="M 840.6772 3570.2363 L 915.3858 3570.2363 C 919.8041 3570.2363 923.3858 3573.818 923.3858 3578.2363 L 923.3858 3621.764 C 923.3858 3626.182 919.8041 3629.764 915.3858 3629.764 L 840.6772 3629.764 C 836.2589 3629.764 832.6772 3626.182 832.6772 3621.764 L 832.6772 3578.2363 C 832.6772 3573.818 836.2589 3570.2363 840.6772 3570.2363 Z" fill="#c0ffc0"/>
          <text transform="translate(837.6772 3581.552)" fill="black">
            <tspan font-family="Helvetica Neue" font-size="16" fill="black" x="6.586332" y="15">Workload</tspan>
            <tspan font-family="Helvetica Neue" font-size="16" fill="black" x="9.698332" y="33.448">(Service)</tspan>
          </text>
        </g>
      </g>
      <g id="Group_25">
        <g id="Graphic_24">
          <path d="M 380.5295 3589.261 C 376.10025 3591.5697 353.1559 3601.0036 348.27114 3603.55 C 343.3864 3606.097 340.67284 3606.0725 336.81387 3604.2278 C 332.95523 3602.383 308.53834 3592.5202 304.1399 3590.4178 C 301.9418 3589.3674 300.7857 3588.4803 300.7857 3587.6426 L 300.7857 3579.2536 C 300.7857 3579.2536 332.57364 3572.3335 337.70542 3570.4924 C 342.83688 3568.6512 344.6174 3568.5848 348.9844 3570.1844 C 353.352 3571.7846 379.46513 3576.496 383.7812 3578.0767 L 383.77928 3586.347 C 383.77992 3587.1764 382.784 3588.086 380.5295 3589.261" fill="#912626"/>
        </g>
        <g id="Graphic_23">
          <path d="M 380.52786 3580.9216 C 376.09895 3583.2293 353.15523 3592.6635 348.2705 3595.21 C 343.38608 3597.757 340.6725 3597.732 336.81387 3595.8874 C 332.9549 3594.044 308.539 3584.1795 304.14087 3582.0783 C 299.74276 3579.976 299.6507 3578.529 303.971 3576.8373 C 308.2913 3575.145 332.5733 3565.6183 337.70575 3563.777 C 342.8372 3561.9367 344.6174 3561.8696 348.9844 3563.47 C 353.3517 3565.0695 376.1586 3574.1474 380.47404 3575.728 C 384.7911 3577.3103 384.95677 3578.6133 380.52786 3580.9216" fill="#c6302b"/>
        </g>
        <g id="Graphic_22">
          <path d="M 380.5295 3575.687 C 376.10025 3577.996 353.1559 3587.4296 348.27114 3589.977 C 343.3864 3592.523 340.67284 3592.4985 336.81387 3590.654 C 332.9549 3588.81 308.53834 3578.9462 304.1399 3576.844 C 301.9418 3575.7934 300.7857 3574.9077 300.7857 3574.0696 L 300.7857 3565.6796 C 300.7857 3565.6796 332.57364 3558.76 337.70542 3556.9187 C 342.83688 3555.0776 344.6174 3555.0108 348.9844 3556.6107 C 353.35235 3558.2107 379.46546 3562.921 383.7812 3564.502 L 383.77928 3572.7734 C 383.77992 3573.6024 382.784 3574.512 380.5295 3575.687" fill="#912626"/>
        </g>
        <g id="Graphic_21">
          <path d="M 380.52786 3567.3476 C 376.09895 3569.656 353.15523 3579.0895 348.2705 3581.6368 C 343.38608 3584.183 340.6725 3584.158 336.81387 3582.3134 C 332.9549 3580.47 308.539 3570.606 304.14087 3568.5044 C 299.74276 3566.4026 299.6507 3564.9553 303.971 3563.263 C 308.2913 3561.5716 332.57364 3552.0443 337.70575 3550.2035 C 342.8372 3548.3627 344.6174 3548.296 348.9844 3549.896 C 353.3517 3551.4955 376.1586 3560.5728 380.47404 3562.154 C 384.7911 3563.736 384.95677 3565.0393 380.52786 3567.3476" fill="#c6302b"/>
        </g>
        <g id="Graphic_20">
          <path d="M 380.5295 3561.61 C 376.10025 3563.9182 353.1559 3573.3525 348.27114 3575.9 C 343.3864 3578.4463 340.67284 3578.4214 336.81387 3576.5767 C 332.9549 3574.733 308.53834 3564.8688 304.1399 3562.7673 C 301.9418 3561.716 300.7857 3560.83 300.7857 3559.9928 L 300.7857 3551.6025 C 300.7857 3551.6025 332.57364 3544.683 337.70542 3542.8422 C 342.83688 3541.0008 344.6174 3540.9346 348.9844 3542.5342 C 353.35235 3544.134 379.46546 3548.8445 383.7812 3550.4256 L 383.77928 3558.6966 C 383.77992 3559.525 382.784 3560.4347 380.5295 3561.61" fill="#912626"/>
        </g>
        <g id="Graphic_19">
          <path d="M 380.52786 3553.2705 C 376.09895 3555.5788 353.15523 3565.013 348.2705 3567.5593 C 343.38608 3570.1056 340.6725 3570.0806 336.81387 3568.237 C 332.95523 3566.392 308.539 3556.5287 304.1412 3554.427 C 299.74276 3552.3254 299.651 3550.878 303.971 3549.186 C 308.2913 3547.494 332.57364 3537.968 337.70575 3536.1267 C 342.8372 3534.2856 344.6174 3534.2194 348.9844 3535.8194 C 353.3517 3537.4193 376.1586 3546.4966 380.47404 3548.0777 C 384.7911 3549.6585 384.95677 3550.962 380.52786 3553.2705" fill="#c6302b"/>
        </g>
        <g id="Graphic_18">
          <path d="M 352.42545 3545.1094 L 345.2898 3545.85 L 343.69245 3549.694 L 341.11245 3545.4047 L 332.87288 3544.6642 L 339.02103 3542.447 L 337.17633 3539.0436 L 342.9325 3541.295 L 348.359 3539.518 L 346.8923 3543.0374 L 352.42545 3545.1094 M 343.26645 3563.7568 L 329.94923 3558.2333 L 349.0317 3555.304 L 343.26645 3563.7568 M 324.8032 3547.246 C 330.4362 3547.246 335.00256 3549.016 335.00256 3551.199 C 335.00256 3553.383 330.4362 3555.1528 324.8032 3555.1528 C 319.1702 3555.1528 314.6038 3553.3826 314.6038 3551.199 C 314.6038 3549.016 319.1702 3547.246 324.8032 3547.246" fill="white"/>
        </g>
        <g id="Graphic_17">
          <path d="M 360.85858 3546.16 L 372.15245 3550.623 L 360.8683 3555.0818 L 360.85858 3546.1598" fill="#621b1c"/>
        </g>
        <g id="Graphic_16">
          <path d="M 348.36386 3551.1025 L 360.85858 3546.16 L 360.8683 3555.0818 L 359.64315 3555.561 L 348.36386 3551.1025" fill="#9a2928"/>
        </g>
      </g>
      <g id="Graphic_26">
        <text transform="translate(297.23547 3616.2143)" fill="black">
          <tspan font-family="Helvetica Neue" font-size="16" fill="black" x="682121e-18" y="15">DB Backend</tspan>
          <tspan font-family="Helvetica Neue" font-size="16" fill="black" x="20.608" y="33.448">(Redis)</tspan>
        </text>
      </g>
      <g id="Graphic_36">
        <path d="M 1005.7953 3420 L 1389.4803 3420 C 1393.8986 3420 1397.4803 3423.5818 1397.4803 3428 L 1397.4803 3650.1103 C 1397.4803 3654.5285 1393.8986 3658.1103 1389.4803 3658.1103 L 1005.7953 3658.1103 C 1001.377 3658.1103 997.7953 3654.5285 997.7953 3650.1103 L 997.7953 3428 C 997.7953 3423.5818 1001.377 3420 1005.7953 3420 Z" fill="#f4f4f4"/>
        <text transform="translate(1002.7953 3434)" fill="black">
          <tspan font-family="Helvetica Neue" font-weight="bold" font-size="16" fill="black" x="160.61851" y="16">Cluster 2</tspan>
        </text>
      </g>
      <g id="Graphic_35">
        <path d="M 1024.2205 3469.6063 L 1098.9291 3469.6063 C 1103.3474 3469.6063 1106.9291 3473.188 1106.9291 3477.6063 L 1106.9291 3631.685 C 1106.9291 3636.1034 1103.3474 3639.685 1098.9291 3639.685 L 1024.2205 3639.685 C 1019.8022 3639.685 1016.2205 3636.1034 1016.2205 3631.685 L 1016.2205 3477.6063 C 1016.2205 3473.188 1019.8022 3469.6063 1024.2205 3469.6063 Z" fill="white"/>
        <text transform="translate(1021.2205 3536.1977)" fill="black">
          <tspan font-family="Helvetica Neue" font-size="16" fill="black" x="9.090332" y="15">Ratelimit</tspan>
          <tspan font-family="Helvetica Neue" font-size="16" fill="black" x="17.250332" y="33.448">Server</tspan>
        </text>
      </g>
      <g id="Group_31">
        <g id="Graphic_34">
          <path d="M 1128.189 3540.9764 L 1128.189 3477.6063 C 1128.189 3473.188 1131.7707 3469.6063 1136.189 3469.6063 L 1364.6772 3469.6063 C 1369.0955 3469.6063 1372.6772 3473.188 1372.6772 3477.6063 C 1372.6772 3477.6063 1372.6772 3477.6063 1372.6772 3477.6063 L 1372.6772 3540.9764 C 1372.6772 3545.3947 1369.0955 3548.9764 1364.6772 3548.9764 L 1136.189 3548.9764 C 1131.7707 3548.9764 1128.189 3545.3947 1128.189 3540.9764 Z" fill="white"/>
          <text transform="translate(1133.189 3543.9764) rotate(-90)" fill="black">
            <tspan font-family="Helvetica Neue" font-size="16" fill="black" x="20.16504" y="15">Pod</tspan>
          </text>
        </g>
        <g id="Graphic_33">
          <path d="M 1170.9134 3479.5276 L 1245.622 3479.5276 C 1250.0403 3479.5276 1253.622 3483.1093 1253.622 3487.5276 L 1253.622 3531.055 C 1253.622 3535.4734 1250.0403 3539.055 1245.622 3539.055 L 1170.9134 3539.055 C 1166.4951 3539.055 1162.9134 3535.4734 1162.9134 3531.055 L 1162.9134 3487.5276 C 1162.9134 3483.1093 1166.4951 3479.5276 1170.9134 3479.5276 Z" fill="#ffc0ff"/>
          <text transform="translate(1167.9134 3500.0674)" fill="black">
            <tspan font-family="Helvetica Neue" font-size="16" fill="black" x="18.426332" y="15">Envoy</tspan>
          </text>
        </g>
        <g id="Graphic_32">
          <path d="M 1275.7953 3479.5276 L 1350.504 3479.5276 C 1354.9222 3479.5276 1358.504 3483.1093 1358.504 3487.5276 L 1358.504 3531.055 C 1358.504 3535.4734 1354.9222 3539.055 1350.504 3539.055 L 1275.7953 3539.055 C 1271.377 3539.055 1267.7953 3535.4734 1267.7953 3531.055 L 1267.7953 3487.5276 C 1267.7953 3483.1093 1271.377 3479.5276 1275.7953 3479.5276 Z" fill="#c0ffc0"/>
          <text transform="translate(1272.7953 3490.8434)" fill="black">
            <tspan font-family="Helvetica Neue" font-size="16" fill="black" x="6.586332" y="15">Workload</tspan>
            <tspan font-family="Helvetica Neue" font-size="16" fill="black" x="9.698332" y="33.448">(Service)</tspan>
          </text>
        </g>
      </g>
      <g id="Group_27">
        <g id="Graphic_30">
          <path d="M 1128.189 3631.685 L 1128.189 3568.315 C 1128.189 3563.8967 1131.7707 3560.315 1136.189 3560.315 L 1364.6772 3560.315 C 1369.0955 3560.315 1372.6772 3563.8967 1372.6772 3568.315 C 1372.6772 3568.315 1372.6772 3568.315 1372.6772 3568.315 L 1372.6772 3631.685 C 1372.6772 3636.1034 1369.0955 3639.685 1364.6772 3639.685 L 1136.189 3639.685 C 1131.7707 3639.685 1128.189 3636.1034 1128.189 3631.685 Z" fill="white"/>
          <text transform="translate(1133.189 3634.685) rotate(-90)" fill="black">
            <tspan font-family="Helvetica Neue" font-size="16" fill="black" x="20.16504" y="15">Pod</tspan>
          </text>
        </g>
        <g id="Graphic_29">
          <path d="M 1170.9134 3570.2363 L 1245.622 3570.2363 C 1250.0403 3570.2363 1253.622 3573.818 1253.622 3578.2363 L 1253.622 3621.764 C 1253.622 3626.182 1250.0403 3629.764 1245.622 3629.764 L 1170.9134 3629.764 C 1166.4951 3629.764 1162.9134 3626.182 1162.9134 3621.764 L 1162.9134 3578.2363 C 1162.9134 3573.818 1166.4951 3570.2363 1170.9134 3570.2363 Z" fill="#ffc0ff"/>
          <text transform="translate(1167.9134 3590.776)" fill="black">
            <tspan font-family="Helvetica Neue" font-size="16" fill="black" x="18.426332" y="15">Envoy</tspan>
          </text>
        </g>
        <g id="Graphic_28">
          <path d="M 1275.7953 3570.2363 L 1350.504 3570.2363 C 1354.9222 3570.2363 1358.504 3573.818 1358.504 3578.2363 L 1358.504 3621.764 C 1358.504 3626.182 1354.9222 3629.764 1350.504 3629.764 L 1275.7953 3629.764 C 1271.377 3629.764 1267.7953 3626.182 1267.7953 3621.764 L 1267.7953 3578.2363 C 1267.7953 3573.818 1271.377 3570.2363 1275.7953 3570.2363 Z" fill="#c0ffc0"/>
          <text transform="translate(1272.7953 3581.552)" fill="black">
            <tspan font-family="Helvetica Neue" font-size="16" fill="black" x="6.586332" y="15">Workload</tspan>
            <tspan font-family="Helvetica Neue" font-size="16" fill="black" x="9.698332" y="33.448">(Service)</tspan>
          </text>
        </g>
      </g>
      <g id="Graphic_38">
        <text transform="translate(1290.9147 3222.2213)" fill="black">
          <tspan font-family="Helvetica Neue" font-size="16" fill="black" x="5258016e-19" y="15">Management Plane</tspan>
        </text>
      </g>
      <g id="Graphic_39">
        <text transform="translate(1277.0267 3366.7883)" fill="black">
          <tspan font-family="Helvetica Neue" font-size="16" fill="black" x="42632564e-21" y="15">Global  Control Plane</tspan>
        </text>
      </g>
      <g id="Graphic_41">
        <rect x="902.126" y="3156.378" width="155.90551" height="51.02362" fill="white"/>
        <path d="M 902.126 3156.378 L 1058.0315 3156.378 L 1058.0315 3207.4016 L 902.126 3207.4016 Z" stroke="gray" stroke-linecap="round" stroke-linejoin="round" stroke-dasharray="4.0,4.0" stroke-width="1"/>
        <text transform="translate(907.126 3172.6658)" fill="black">
          <tspan font-family="Helvetica Neue" font-size="16" fill="black" x="13.984759" y="15">TSB provisioned</tspan>
        </text>
      </g>
      <g id="Graphic_43">
        <rect x="264.3307" y="3156.378" width="155.90551" height="51.02362" fill="white"/>
        <path d="M 264.3307 3156.378 L 420.2362 3156.378 L 420.2362 3207.4016 L 264.3307 3207.4016 Z" stroke="gray" stroke-linecap="round" stroke-linejoin="round" stroke-dasharray="4.0,4.0" stroke-width="1"/>
        <text transform="translate(269.3307 3172.6658)" fill="black">
          <tspan font-family="Helvetica Neue" font-size="16" fill="black" x="12.504759" y="15">User provisioned</tspan>
        </text>
      </g>
      <g id="Group_46">
        <g id="Graphic_45">
          <path d="M 705.3424 3429.9226 C 705.1215 3429.9356 704.9055 3429.993 704.7072 3430.091 L 696.1057 3434.1937 C 695.6565 3434.4075 695.3301 3434.814 695.2182 3435.299 L 693.11275 3444.507 C 693.0124 3444.939 693.09345 3445.3922 693.3443 3445.7627 C 693.3736 3445.8074 693.4045 3445.8506 693.4369 3445.8923 L 699.3796 3453.2814 C 699.6937 3453.6672 700.1653 3453.8887 700.6623 3453.8864 L 710.1938 3453.8864 C 710.6924 3453.887 711.1647 3453.655 711.478 3453.2744 L 717.4177 3445.884 C 717.7295 3445.498 717.846 3444.9886 717.7264 3444.5054 L 715.6071 3435.2896 C 715.4952 3434.805 715.16715 3434.398 714.7195 3434.1844 L 706.1319 3430.0917 C 705.88446 3429.9696 705.6104 3429.9115 705.3347 3429.9226 Z" fill="#326ce5"/>
        </g>
        <g id="Graphic_44">
          <path d="M 705.4211 3433.0607 C 705.1247 3433.0815 704.90015 3433.3355 704.9156 3433.632 L 704.9156 3433.777 C 704.9295 3433.9413 704.9542 3434.104 704.9866 3434.2654 C 705.0339 3434.5743 705.051 3434.887 705.0375 3435.1993 C 705.0082 3435.302 704.94955 3435.3946 704.8693 3435.4656 L 704.8577 3435.6832 C 704.5451 3435.7094 704.2349 3435.7573 703.92925 3435.8268 C 702.6435 3436.117 701.4727 3436.7838 700.5689 3437.7446 L 700.3837 3437.6134 C 700.2818 3437.6443 700.1722 3437.6327 700.0788 3437.5826 C 699.8283 3437.397 699.5965 3437.1878 699.38655 3436.9574 C 699.2811 3436.8314 699.1685 3436.7116 699.0493 3436.5985 L 698.9351 3436.5075 C 698.8332 3436.4257 698.70816 3436.3786 698.5777 3436.3724 C 698.41984 3436.364 698.2675 3436.4317 698.1679 3436.5545 C 697.9935 3436.799 698.0506 3437.138 698.2945 3437.3132 L 698.401 3437.398 C 698.5381 3437.4893 698.6803 3437.5726 698.827 3437.6474 C 699.1002 3437.7994 699.358 3437.9777 699.59725 3438.1876 C 699.65845 3438.275 699.694 3438.3776 699.6999 3438.484 L 699.86814 3438.6384 C 698.95976 3440.0013 698.587 3441.652 698.8201 3443.2737 L 698.604 3443.3354 C 698.5476 3443.425 698.4728 3443.5013 698.3832 3443.5577 C 698.0817 3443.638 697.7731 3443.689 697.4617 3443.7097 C 697.2965 3443.713 697.1316 3443.726 696.9678 3443.7483 L 696.8312 3443.779 L 696.81575 3443.779 C 696.6224 3443.806 696.4607 3443.9394 696.39754 3444.124 C 696.3344 3444.3088 696.3806 3444.5133 696.5171 3444.653 C 696.6548 3444.7917 696.8591 3444.841 697.045 3444.78 L 697.055 3444.78 L 697.1939 3444.7648 C 697.3506 3444.7184 697.50495 3444.6613 697.65545 3444.5965 C 697.9449 3444.4807 698.2451 3444.392 698.55226 3444.334 C 698.6588 3444.3403 698.7606 3444.3765 698.8471 3444.4383 L 699.0786 3444.3997 C 699.5803 3445.9564 700.6345 3447.2754 702.04225 3448.1066 L 701.9481 3448.3034 C 701.9913 3448.3937 702.0075 3448.494 701.9944 3448.5936 C 701.86706 3448.8884 701.71116 3449.171 701.529 3449.4363 C 701.4291 3449.568 701.33685 3449.7054 701.2527 3449.8477 L 701.1871 3449.9866 C 701.0901 3450.155 701.0956 3450.3635 701.2014 3450.5265 C 701.30725 3450.6895 701.4955 3450.7793 701.6888 3450.759 C 701.8825 3450.7374 702.0475 3450.6085 702.1156 3450.4258 L 702.1796 3450.2946 C 702.2383 3450.14 702.2877 3449.9828 702.3278 3449.8238 C 702.4644 3449.4865 702.5385 3449.1245 702.7253 3448.9007 C 702.7863 3448.8433 702.8632 3448.8057 702.946 3448.7927 L 703.0618 3448.582 C 704.5878 3449.1685 706.2763 3449.1726 707.8051 3448.5936 L 707.9078 3448.7904 C 708.01274 3448.806 708.1069 3448.8637 708.1702 3448.9486 C 708.3153 3449.225 708.4326 3449.5143 708.5221 3449.813 C 708.5629 3449.973 708.6129 3450.1303 708.67185 3450.2845 L 708.7359 3450.4157 C 708.8046 3450.5977 708.9696 3450.7258 709.163 3450.747 C 709.3563 3450.7684 709.5453 3450.6795 709.652 3450.517 C 709.7577 3450.3532 709.7625 3450.144 709.66436 3449.976 L 709.5972 3449.837 C 709.5131 3449.695 709.4208 3449.5583 709.3209 3449.427 C 709.1434 3449.171 708.9906 3448.8976 708.85784 3448.6113 C 708.8328 3448.5055 708.85175 3448.394 708.9103 3448.3026 C 708.8774 3448.2353 708.8488 3448.166 708.8247 3448.095 C 710.2293 3447.2576 711.2789 3445.934 711.7752 3444.375 L 711.9944 3444.4136 C 712.0731 3444.342 712.1765 3444.304 712.2822 3444.307 C 712.5886 3444.3657 712.88886 3444.4614 713.17904 3444.5695 C 713.3295 3444.639 713.4839 3444.6976 713.6406 3444.747 C 713.6776 3444.757 713.7316 3444.7655 713.7733 3444.7756 L 713.78335 3444.7756 C 713.9691 3444.8355 714.1728 3444.786 714.31005 3444.647 C 714.4473 3444.508 714.4946 3444.304 714.4324 3444.1188 C 714.3688 3443.934 714.2063 3443.8007 714.0126 3443.7746 L 713.8628 3443.739 C 713.6991 3443.7167 713.53415 3443.704 713.3689 3443.7005 C 713.0571 3443.6804 712.7484 3443.6295 712.4474 3443.5484 C 712.3548 3443.4967 712.2776 3443.4195 712.2251 3443.326 L 712.01674 3443.2644 C 712.2389 3441.6437 711.8583 3439.9978 710.94705 3438.639 L 711.1292 3438.471 C 711.1215 3438.365 711.1562 3438.26 711.2249 3438.179 C 711.4618 3437.9754 711.7188 3437.7956 711.989 3437.642 C 712.1356 3437.567 712.2779 3437.484 712.415 3437.3927 L 712.5277 3437.3016 C 712.697 3437.1965 712.79084 3437.0035 712.7689 3436.8054 C 712.747 3436.6073 712.6132 3436.4395 712.425 3436.374 C 712.237 3436.3085 712.02805 3436.357 711.88786 3436.4982 L 711.7736 3436.5893 C 711.65444 3436.7024 711.5418 3436.822 711.4364 3436.948 C 711.2326 3437.1812 711.00725 3437.3935 710.7626 3437.5833 C 710.6639 3437.6235 710.5559 3437.6353 710.4508 3437.6173 L 710.2555 3437.7562 C 709.1287 3436.5754 707.61065 3435.842 705.9837 3435.6956 C 705.9837 3435.6184 705.9737 3435.5026 705.97216 3435.4663 C 705.88495 3435.406 705.824 3435.3143 705.8039 3435.21 C 705.7932 3434.8984 705.81285 3434.5864 705.8626 3434.2786 C 705.89575 3434.1165 705.9189 3433.9544 705.9336 3433.79 L 705.9336 3433.6357 C 705.949 3433.3393 705.7252 3433.0854 705.42805 3433.0646 Z M 704.7774 3437.0477 L 704.6231 3439.7435 L 704.6115 3439.7435 C 704.6038 3439.9103 704.5058 3440.0523 704.3553 3440.1325 C 704.2048 3440.2128 704.0265 3440.189 703.8922 3440.091 L 701.68106 3438.524 C 702.38484 3437.833 703.2678 3437.352 704.23025 3437.1357 C 704.41084 3437.097 704.593 3437.0678 704.7759 3437.0477 Z M 706.0648 3437.0477 C 707.2263 3437.192 708.3076 3437.7138 709.1442 3438.5326 L 706.9539 3440.0893 C 706.8188 3440.1974 706.6336 3440.219 706.4769 3440.145 C 706.3202 3440.0708 706.2199 3439.9133 706.2176 3439.7405 Z M 700.8784 3439.5383 L 702.9005 3441.3427 L 702.9005 3441.3543 C 703.0263 3441.464 703.0811 3441.6344 703.044 3441.7973 C 703.007 3441.96 702.88195 3442.089 702.7222 3442.133 L 702.7222 3442.1407 L 700.1275 3442.887 C 699.9991 3441.718 700.26355 3440.5395 700.8792 3439.5375 Z M 709.94914 3439.5383 C 710.5635 3440.5377 710.83515 3441.71 710.7225 3442.8777 L 708.1239 3442.129 L 708.1239 3442.119 C 707.9618 3442.075 707.8383 3441.9462 707.80205 3441.7834 C 707.7658 3441.6205 707.8198 3441.4515 707.9456 3441.3404 L 709.9522 3439.5444 Z M 705.0067 3441.483 L 705.834 3441.483 L 706.3395 3442.1253 L 706.1558 3442.928 L 705.4126 3443.2852 L 704.66785 3442.928 L 704.49265 3442.1253 Z M 707.65695 3443.6735 C 707.6917 3443.6696 707.7341 3443.6696 707.76114 3443.6735 L 710.4369 3444.125 C 710.051 3445.2363 709.2893 3446.1856 708.2952 3446.8208 L 707.261 3444.317 C 707.2033 3444.181 707.2155 3444.025 707.2936 3443.8993 C 707.37174 3443.7735 707.5061 3443.6936 707.6539 3443.685 Z M 703.1629 3443.685 C 703.31414 3443.6873 703.4538 3443.7653 703.5364 3443.892 C 703.619 3444.0184 703.6321 3444.1774 703.5727 3444.3163 L 703.5727 3444.3264 L 702.5447 3446.81 C 701.5607 3446.1794 700.8136 3445.2417 700.4161 3444.142 L 703.0687 3443.692 C 703.09805 3443.689 703.12815 3443.689 703.15824 3443.692 Z M 705.4041 3444.7655 C 705.5761 3444.76 705.7364 3444.852 705.8186 3445.0032 L 705.8286 3445.0032 L 707.136 3447.3626 L 706.6135 3447.517 C 705.6519 3447.737 704.6478 3447.685 703.71315 3447.367 L 705.0252 3445.008 C 705.1047 3444.869 705.2513 3444.784 705.4111 3444.78 Z" fill="white"/>
          <path d="M 705.4211 3433.0607 C 705.1247 3433.0815 704.90015 3433.3355 704.9156 3433.632 L 704.9156 3433.777 C 704.9295 3433.9413 704.9542 3434.104 704.9866 3434.2654 C 705.0339 3434.5743 705.051 3434.887 705.0375 3435.1993 C 705.0082 3435.302 704.94955 3435.3946 704.8693 3435.4656 L 704.8577 3435.6832 C 704.5451 3435.7094 704.2349 3435.7573 703.92925 3435.8268 C 702.6435 3436.117 701.4727 3436.7838 700.5689 3437.7446 L 700.3837 3437.6134 C 700.2818 3437.6443 700.1722 3437.6327 700.0788 3437.5826 C 699.8283 3437.397 699.5965 3437.1878 699.38655 3436.9574 C 699.2811 3436.8314 699.1685 3436.7116 699.0493 3436.5985 L 698.9351 3436.5075 C 698.8332 3436.4257 698.70816 3436.3786 698.5777 3436.3724 C 698.41984 3436.364 698.2675 3436.4317 698.1679 3436.5545 C 697.9935 3436.799 698.0506 3437.138 698.2945 3437.3132 L 698.401 3437.398 C 698.5381 3437.4893 698.6803 3437.5726 698.827 3437.6474 C 699.1002 3437.7994 699.358 3437.9777 699.59725 3438.1876 C 699.65845 3438.275 699.694 3438.3776 699.6999 3438.484 L 699.86814 3438.6384 C 698.95976 3440.0013 698.587 3441.652 698.8201 3443.2737 L 698.604 3443.3354 C 698.5476 3443.425 698.4728 3443.5013 698.3832 3443.5577 C 698.0817 3443.638 697.7731 3443.689 697.4617 3443.7097 C 697.2965 3443.713 697.1316 3443.726 696.9678 3443.7483 L 696.8312 3443.779 L 696.81575 3443.779 C 696.6224 3443.806 696.4607 3443.9394 696.39754 3444.124 C 696.3344 3444.3088 696.3806 3444.5133 696.5171 3444.653 C 696.6548 3444.7917 696.8591 3444.841 697.045 3444.78 L 697.055 3444.78 L 697.1939 3444.7648 C 697.3506 3444.7184 697.50495 3444.6613 697.65545 3444.5965 C 697.9449 3444.4807 698.2451 3444.392 698.55226 3444.334 C 698.6588 3444.3403 698.7606 3444.3765 698.8471 3444.4383 L 699.0786 3444.3997 C 699.5803 3445.9564 700.6345 3447.2754 702.04225 3448.1066 L 701.9481 3448.3034 C 701.9913 3448.3937 702.0075 3448.494 701.9944 3448.5936 C 701.86706 3448.8884 701.71116 3449.171 701.529 3449.4363 C 701.4291 3449.568 701.33685 3449.7054 701.2527 3449.8477 L 701.1871 3449.9866 C 701.0901 3450.155 701.0956 3450.3635 701.2014 3450.5265 C 701.30725 3450.6895 701.4955 3450.7793 701.6888 3450.759 C 701.8825 3450.7374 702.0475 3450.6085 702.1156 3450.4258 L 702.1796 3450.2946 C 702.2383 3450.14 702.2877 3449.9828 702.3278 3449.8238 C 702.4644 3449.4865 702.5385 3449.1245 702.7253 3448.9007 C 702.7863 3448.8433 702.8632 3448.8057 702.946 3448.7927 L 703.0618 3448.582 C 704.5878 3449.1685 706.2763 3449.1726 707.8051 3448.5936 L 707.9078 3448.7904 C 708.01274 3448.806 708.1069 3448.8637 708.1702 3448.9486 C 708.3153 3449.225 708.4326 3449.5143 708.5221 3449.813 C 708.5629 3449.973 708.6129 3450.1303 708.67185 3450.2845 L 708.7359 3450.4157 C 708.8046 3450.5977 708.9696 3450.7258 709.163 3450.747 C 709.3563 3450.7684 709.5453 3450.6795 709.652 3450.517 C 709.7577 3450.3532 709.7625 3450.144 709.66436 3449.976 L 709.5972 3449.837 C 709.5131 3449.695 709.4208 3449.5583 709.3209 3449.427 C 709.1434 3449.171 708.9906 3448.8976 708.85784 3448.6113 C 708.8328 3448.5055 708.85175 3448.394 708.9103 3448.3026 C 708.8774 3448.2353 708.8488 3448.166 708.8247 3448.095 C 710.2293 3447.2576 711.2789 3445.934 711.7752 3444.375 L 711.9944 3444.4136 C 712.0731 3444.342 712.1765 3444.304 712.2822 3444.307 C 712.5886 3444.3657 712.88886 3444.4614 713.17904 3444.5695 C 713.3295 3444.639 713.4839 3444.6976 713.6406 3444.747 C 713.6776 3444.757 713.7316 3444.7655 713.7733 3444.7756 L 713.78335 3444.7756 C 713.9691 3444.8355 714.1728 3444.786 714.31005 3444.647 C 714.4473 3444.508 714.4946 3444.304 714.4324 3444.1188 C 714.3688 3443.934 714.2063 3443.8007 714.0126 3443.7746 L 713.8628 3443.739 C 713.6991 3443.7167 713.53415 3443.704 713.3689 3443.7005 C 713.0571 3443.6804 712.7484 3443.6295 712.4474 3443.5484 C 712.3548 3443.4967 712.2776 3443.4195 712.2251 3443.326 L 712.01674 3443.2644 C 712.2389 3441.6437 711.8583 3439.9978 710.94705 3438.639 L 711.1292 3438.471 C 711.1215 3438.365 711.1562 3438.26 711.2249 3438.179 C 711.4618 3437.9754 711.7188 3437.7956 711.989 3437.642 C 712.1356 3437.567 712.2779 3437.484 712.415 3437.3927 L 712.5277 3437.3016 C 712.697 3437.1965 712.79084 3437.0035 712.7689 3436.8054 C 712.747 3436.6073 712.6132 3436.4395 712.425 3436.374 C 712.237 3436.3085 712.02805 3436.357 711.88786 3436.4982 L 711.7736 3436.5893 C 711.65444 3436.7024 711.5418 3436.822 711.4364 3436.948 C 711.2326 3437.1812 711.00725 3437.3935 710.7626 3437.5833 C 710.6639 3437.6235 710.5559 3437.6353 710.4508 3437.6173 L 710.2555 3437.7562 C 709.1287 3436.5754 707.61065 3435.842 705.9837 3435.6956 C 705.9837 3435.6184 705.9737 3435.5026 705.97216 3435.4663 C 705.88495 3435.406 705.824 3435.3143 705.8039 3435.21 C 705.7932 3434.8984 705.81285 3434.5864 705.8626 3434.2786 C 705.89575 3434.1165 705.9189 3433.9544 705.9336 3433.79 L 705.9336 3433.6357 C 705.949 3433.3393 705.7252 3433.0854 705.42805 3433.0646 Z M 704.7774 3437.0477 L 704.6231 3439.7435 L 704.6115 3439.7435 C 704.6038 3439.9103 704.5058 3440.0523 704.3553 3440.1325 C 704.2048 3440.2128 704.0265 3440.189 703.8922 3440.091 L 701.68106 3438.524 C 702.38484 3437.833 703.2678 3437.352 704.23025 3437.1357 C 704.41084 3437.097 704.593 3437.0678 704.7759 3437.0477 Z M 706.0648 3437.0477 C 707.2263 3437.192 708.3076 3437.7138 709.1442 3438.5326 L 706.9539 3440.0893 C 706.8188 3440.1974 706.6336 3440.219 706.4769 3440.145 C 706.3202 3440.0708 706.2199 3439.9133 706.2176 3439.7405 Z M 700.8784 3439.5383 L 702.9005 3441.3427 L 702.9005 3441.3543 C 703.0263 3441.464 703.0811 3441.6344 703.044 3441.7973 C 703.007 3441.96 702.88195 3442.089 702.7222 3442.133 L 702.7222 3442.1407 L 700.1275 3442.887 C 699.9991 3441.718 700.26355 3440.5395 700.8792 3439.5375 Z M 709.94914 3439.5383 C 710.5635 3440.5377 710.83515 3441.71 710.7225 3442.8777 L 708.1239 3442.129 L 708.1239 3442.119 C 707.9618 3442.075 707.8383 3441.9462 707.80205 3441.7834 C 707.7658 3441.6205 707.8198 3441.4515 707.9456 3441.3404 L 709.9522 3439.5444 Z M 705.0067 3441.483 L 705.834 3441.483 L 706.3395 3442.1253 L 706.1558 3442.928 L 705.4126 3443.2852 L 704.66785 3442.928 L 704.49265 3442.1253 Z M 707.65695 3443.6735 C 707.6917 3443.6696 707.7341 3443.6696 707.76114 3443.6735 L 710.4369 3444.125 C 710.051 3445.2363 709.2893 3446.1856 708.2952 3446.8208 L 707.261 3444.317 C 707.2033 3444.181 707.2155 3444.025 707.2936 3443.8993 C 707.37174 3443.7735 707.5061 3443.6936 707.6539 3443.685 Z M 703.1629 3443.685 C 703.31414 3443.6873 703.4538 3443.7653 703.5364 3443.892 C 703.619 3444.0184 703.6321 3444.1774 703.5727 3444.3163 L 703.5727 3444.3264 L 702.5447 3446.81 C 701.5607 3446.1794 700.8136 3445.2417 700.4161 3444.142 L 703.0687 3443.692 C 703.09805 3443.689 703.12815 3443.689 703.15824 3443.692 Z M 705.4041 3444.7655 C 705.5761 3444.76 705.7364 3444.852 705.8186 3445.0032 L 705.8286 3445.0032 L 707.136 3447.3626 L 706.6135 3447.517 C 705.6519 3447.737 704.6478 3447.685 703.71315 3447.367 L 705.0252 3445.008 C 705.1047 3444.869 705.2513 3444.784 705.4111 3444.78 Z" stroke="white" stroke-linecap="butt" stroke-linejoin="round" stroke-width=".055"/>
        </g>
      </g>
      <g id="Group_47">
        <g id="Graphic_49">
          <path d="M 1140.4605 3429.9226 C 1140.2396 3429.9356 1140.0236 3429.993 1139.8253 3430.091 L 1131.2238 3434.1937 C 1130.7747 3434.4075 1130.4482 3434.814 1130.3363 3435.299 L 1128.2309 3444.507 C 1128.1305 3444.939 1128.2116 3445.3922 1128.4624 3445.7627 C 1128.4917 3445.8074 1128.5226 3445.8506 1128.555 3445.8923 L 1134.4977 3453.2814 C 1134.8118 3453.6672 1135.2834 3453.8887 1135.7804 3453.8864 L 1145.3119 3453.8864 C 1145.8105 3453.887 1146.2828 3453.655 1146.5962 3453.2744 L 1152.5358 3445.884 C 1152.8476 3445.498 1152.9641 3444.9886 1152.8445 3444.5054 L 1150.7252 3435.2896 C 1150.6133 3434.805 1150.2853 3434.398 1149.8376 3434.1844 L 1141.25 3430.0917 C 1141.0026 3429.9696 1140.7285 3429.9115 1140.4528 3429.9226 Z" fill="#326ce5"/>
        </g>
        <g id="Graphic_48">
          <path d="M 1140.5392 3433.0607 C 1140.2429 3433.0815 1140.0183 3433.3355 1140.0337 3433.632 L 1140.0337 3433.777 C 1140.0476 3433.9413 1140.0723 3434.104 1140.1047 3434.2654 C 1140.152 3434.5743 1140.1691 3434.887 1140.1556 3435.1993 C 1140.1263 3435.302 1140.0677 3435.3946 1139.9874 3435.4656 L 1139.9758 3435.6832 C 1139.6632 3435.7094 1139.353 3435.7573 1139.0474 3435.8268 C 1137.7616 3436.117 1136.5908 3436.7838 1135.687 3437.7446 L 1135.5018 3437.6134 C 1135.3999 3437.6443 1135.2903 3437.6327 1135.197 3437.5826 C 1134.9464 3437.397 1134.7146 3437.1878 1134.5047 3436.9574 C 1134.3992 3436.8314 1134.2866 3436.7116 1134.1674 3436.5985 L 1134.0532 3436.5075 C 1133.9513 3436.4257 1133.8263 3436.3786 1133.6958 3436.3724 C 1133.538 3436.364 1133.3856 3436.4317 1133.286 3436.5545 C 1133.1116 3436.799 1133.1687 3437.138 1133.4126 3437.3132 L 1133.5191 3437.398 C 1133.6562 3437.4893 1133.7984 3437.5726 1133.9451 3437.6474 C 1134.2183 3437.7994 1134.4761 3437.9777 1134.7154 3438.1876 C 1134.7766 3438.275 1134.8121 3438.3776 1134.818 3438.484 L 1134.9863 3438.6384 C 1134.0779 3440.0013 1133.7051 3441.652 1133.9382 3443.2737 L 1133.7221 3443.3354 C 1133.6657 3443.425 1133.5909 3443.5013 1133.5014 3443.5577 C 1133.1999 3443.638 1132.8912 3443.689 1132.5798 3443.7097 C 1132.4146 3443.713 1132.2497 3443.726 1132.0859 3443.7483 L 1131.9493 3443.779 L 1131.9339 3443.779 C 1131.7405 3443.806 1131.5788 3443.9394 1131.5157 3444.124 C 1131.4525 3444.3088 1131.4987 3444.5133 1131.6352 3444.653 C 1131.7729 3444.7917 1131.9772 3444.841 1132.1631 3444.78 L 1132.1731 3444.78 L 1132.312 3444.7648 C 1132.4687 3444.7184 1132.623 3444.6613 1132.7736 3444.5965 C 1133.063 3444.4807 1133.3632 3444.392 1133.6704 3444.334 C 1133.7769 3444.3403 1133.8788 3444.3765 1133.9652 3444.4383 L 1134.1967 3444.3997 C 1134.6984 3445.9564 1135.7526 3447.2754 1137.1604 3448.1066 L 1137.0662 3448.3034 C 1137.1094 3448.3937 1137.1256 3448.494 1137.1125 3448.5936 C 1136.9852 3448.8884 1136.8293 3449.171 1136.6471 3449.4363 C 1136.5472 3449.568 1136.455 3449.7054 1136.3708 3449.8477 L 1136.3052 3449.9866 C 1136.2082 3450.155 1136.2137 3450.3635 1136.3195 3450.5265 C 1136.4254 3450.6895 1136.6136 3450.7793 1136.8069 3450.759 C 1137.0006 3450.7374 1137.1656 3450.6085 1137.2337 3450.4258 L 1137.2977 3450.2946 C 1137.3564 3450.14 1137.4058 3449.9828 1137.4459 3449.8238 C 1137.5825 3449.4865 1137.6566 3449.1245 1137.8434 3448.9007 C 1137.9044 3448.8433 1137.9814 3448.8057 1138.0641 3448.7927 L 1138.1799 3448.582 C 1139.7059 3449.1685 1141.3944 3449.1726 1142.9233 3448.5936 L 1143.0259 3448.7904 C 1143.1309 3448.806 1143.225 3448.8637 1143.2883 3448.9486 C 1143.4334 3449.225 1143.5507 3449.5143 1143.6402 3449.813 C 1143.681 3449.973 1143.731 3450.1303 1143.79 3450.2845 L 1143.854 3450.4157 C 1143.9227 3450.5977 1144.0877 3450.7258 1144.2811 3450.747 C 1144.4744 3450.7684 1144.6634 3450.6795 1144.7701 3450.517 C 1144.8758 3450.3532 1144.8806 3450.144 1144.7825 3449.976 L 1144.7153 3449.837 C 1144.6312 3449.695 1144.539 3449.5583 1144.439 3449.427 C 1144.2615 3449.171 1144.1087 3448.8976 1143.976 3448.6113 C 1143.9509 3448.5055 1143.9699 3448.394 1144.0284 3448.3026 C 1143.9955 3448.2353 1143.9669 3448.166 1143.9428 3448.095 C 1145.3474 3447.2576 1146.397 3445.934 1146.8933 3444.375 L 1147.1125 3444.4136 C 1147.1912 3444.342 1147.2946 3444.304 1147.4003 3444.307 C 1147.7067 3444.3657 1148.007 3444.4614 1148.2972 3444.5695 C 1148.4477 3444.639 1148.602 3444.6976 1148.7587 3444.747 C 1148.7957 3444.757 1148.8498 3444.7655 1148.8914 3444.7756 L 1148.9015 3444.7756 C 1149.0872 3444.8355 1149.291 3444.786 1149.4282 3444.647 C 1149.5654 3444.508 1149.6127 3444.304 1149.5505 3444.1188 C 1149.4869 3443.934 1149.3245 3443.8007 1149.1307 3443.7746 L 1148.981 3443.739 C 1148.8172 3443.7167 1148.6523 3443.704 1148.487 3443.7005 C 1148.1752 3443.6804 1147.8665 3443.6295 1147.5655 3443.5484 C 1147.4729 3443.4967 1147.3957 3443.4195 1147.3432 3443.326 L 1147.1349 3443.2644 C 1147.357 3441.6437 1146.9764 3439.9978 1146.0652 3438.639 L 1146.2473 3438.471 C 1146.2396 3438.365 1146.2743 3438.26 1146.343 3438.179 C 1146.58 3437.9754 1146.837 3437.7956 1147.1071 3437.642 C 1147.2537 3437.567 1147.396 3437.484 1147.5331 3437.3927 L 1147.6458 3437.3016 C 1147.8151 3437.1965 1147.909 3437.0035 1147.887 3436.8054 C 1147.8651 3436.6073 1147.7313 3436.4395 1147.5431 3436.374 C 1147.3551 3436.3085 1147.1462 3436.357 1147.006 3436.4982 L 1146.8917 3436.5893 C 1146.7726 3436.7024 1146.66 3436.822 1146.5545 3436.948 C 1146.3507 3437.1812 1146.1254 3437.3935 1145.8807 3437.5833 C 1145.782 3437.6235 1145.674 3437.6353 1145.5689 3437.6173 L 1145.3737 3437.7562 C 1144.2469 3436.5754 1142.7288 3435.842 1141.1018 3435.6956 C 1141.1018 3435.6184 1141.0918 3435.5026 1141.0903 3435.4663 C 1141.003 3435.406 1140.9421 3435.3143 1140.922 3435.21 C 1140.9113 3434.8984 1140.931 3434.5864 1140.9807 3434.2786 C 1141.0139 3434.1165 1141.037 3433.9544 1141.0517 3433.79 L 1141.0517 3433.6357 C 1141.0671 3433.3393 1140.8433 3433.0854 1140.5462 3433.0646 Z M 1139.8956 3437.0477 L 1139.7412 3439.7435 L 1139.7296 3439.7435 C 1139.7219 3439.9103 1139.6239 3440.0523 1139.4734 3440.1325 C 1139.3229 3440.2128 1139.1446 3440.189 1139.0103 3440.091 L 1136.7992 3438.524 C 1137.503 3437.833 1138.3859 3437.352 1139.3484 3437.1357 C 1139.529 3437.097 1139.7111 3437.0678 1139.894 3437.0477 Z M 1141.1829 3437.0477 C 1142.3444 3437.192 1143.4257 3437.7138 1144.2623 3438.5326 L 1142.072 3440.0893 C 1141.9369 3440.1974 1141.7517 3440.219 1141.595 3440.145 C 1141.4383 3440.0708 1141.338 3439.9133 1141.3357 3439.7405 Z M 1135.9965 3439.5383 L 1138.0186 3441.3427 L 1138.0186 3441.3543 C 1138.1444 3441.464 1138.1992 3441.6344 1138.1621 3441.7973 C 1138.1251 3441.96 1138 3442.089 1137.8403 3442.133 L 1137.8403 3442.1407 L 1135.2456 3442.887 C 1135.1172 3441.718 1135.3817 3440.5395 1135.9973 3439.5375 Z M 1145.0673 3439.5383 C 1145.6816 3440.5377 1145.9533 3441.71 1145.8406 3442.8777 L 1143.242 3442.129 L 1143.242 3442.119 C 1143.0799 3442.075 1142.9564 3441.9462 1142.9202 3441.7834 C 1142.8839 3441.6205 1142.9379 3441.4515 1143.0637 3441.3404 L 1145.0703 3439.5444 Z M 1140.1248 3441.483 L 1140.9521 3441.483 L 1141.4576 3442.1253 L 1141.274 3442.928 L 1140.5307 3443.2852 L 1139.786 3442.928 L 1139.6108 3442.1253 Z M 1142.7751 3443.6735 C 1142.8098 3443.6696 1142.8522 3443.6696 1142.8793 3443.6735 L 1145.555 3444.125 C 1145.1691 3445.2363 1144.4074 3446.1856 1143.4133 3446.8208 L 1142.3791 3444.317 C 1142.3214 3444.181 1142.3336 3444.025 1142.4117 3443.8993 C 1142.4899 3443.7735 1142.6242 3443.6936 1142.772 3443.685 Z M 1138.281 3443.685 C 1138.4323 3443.6873 1138.572 3443.7653 1138.6545 3443.892 C 1138.7371 3444.0184 1138.7502 3444.1774 1138.6908 3444.3163 L 1138.6908 3444.3264 L 1137.6628 3446.81 C 1136.6788 3446.1794 1135.9317 3445.2417 1135.5342 3444.142 L 1138.1868 3443.692 C 1138.2162 3443.689 1138.2463 3443.689 1138.2764 3443.692 Z M 1140.5222 3444.7655 C 1140.6942 3444.76 1140.8545 3444.852 1140.9367 3445.0032 L 1140.9467 3445.0032 L 1142.2541 3447.3626 L 1141.7316 3447.517 C 1140.77 3447.737 1139.7659 3447.685 1138.8313 3447.367 L 1140.1433 3445.008 C 1140.2228 3444.869 1140.3694 3444.784 1140.5292 3444.78 Z" fill="white"/>
          <path d="M 1140.5392 3433.0607 C 1140.2429 3433.0815 1140.0183 3433.3355 1140.0337 3433.632 L 1140.0337 3433.777 C 1140.0476 3433.9413 1140.0723 3434.104 1140.1047 3434.2654 C 1140.152 3434.5743 1140.1691 3434.887 1140.1556 3435.1993 C 1140.1263 3435.302 1140.0677 3435.3946 1139.9874 3435.4656 L 1139.9758 3435.6832 C 1139.6632 3435.7094 1139.353 3435.7573 1139.0474 3435.8268 C 1137.7616 3436.117 1136.5908 3436.7838 1135.687 3437.7446 L 1135.5018 3437.6134 C 1135.3999 3437.6443 1135.2903 3437.6327 1135.197 3437.5826 C 1134.9464 3437.397 1134.7146 3437.1878 1134.5047 3436.9574 C 1134.3992 3436.8314 1134.2866 3436.7116 1134.1674 3436.5985 L 1134.0532 3436.5075 C 1133.9513 3436.4257 1133.8263 3436.3786 1133.6958 3436.3724 C 1133.538 3436.364 1133.3856 3436.4317 1133.286 3436.5545 C 1133.1116 3436.799 1133.1687 3437.138 1133.4126 3437.3132 L 1133.5191 3437.398 C 1133.6562 3437.4893 1133.7984 3437.5726 1133.9451 3437.6474 C 1134.2183 3437.7994 1134.4761 3437.9777 1134.7154 3438.1876 C 1134.7766 3438.275 1134.8121 3438.3776 1134.818 3438.484 L 1134.9863 3438.6384 C 1134.0779 3440.0013 1133.7051 3441.652 1133.9382 3443.2737 L 1133.7221 3443.3354 C 1133.6657 3443.425 1133.5909 3443.5013 1133.5014 3443.5577 C 1133.1999 3443.638 1132.8912 3443.689 1132.5798 3443.7097 C 1132.4146 3443.713 1132.2497 3443.726 1132.0859 3443.7483 L 1131.9493 3443.779 L 1131.9339 3443.779 C 1131.7405 3443.806 1131.5788 3443.9394 1131.5157 3444.124 C 1131.4525 3444.3088 1131.4987 3444.5133 1131.6352 3444.653 C 1131.7729 3444.7917 1131.9772 3444.841 1132.1631 3444.78 L 1132.1731 3444.78 L 1132.312 3444.7648 C 1132.4687 3444.7184 1132.623 3444.6613 1132.7736 3444.5965 C 1133.063 3444.4807 1133.3632 3444.392 1133.6704 3444.334 C 1133.7769 3444.3403 1133.8788 3444.3765 1133.9652 3444.4383 L 1134.1967 3444.3997 C 1134.6984 3445.9564 1135.7526 3447.2754 1137.1604 3448.1066 L 1137.0662 3448.3034 C 1137.1094 3448.3937 1137.1256 3448.494 1137.1125 3448.5936 C 1136.9852 3448.8884 1136.8293 3449.171 1136.6471 3449.4363 C 1136.5472 3449.568 1136.455 3449.7054 1136.3708 3449.8477 L 1136.3052 3449.9866 C 1136.2082 3450.155 1136.2137 3450.3635 1136.3195 3450.5265 C 1136.4254 3450.6895 1136.6136 3450.7793 1136.8069 3450.759 C 1137.0006 3450.7374 1137.1656 3450.6085 1137.2337 3450.4258 L 1137.2977 3450.2946 C 1137.3564 3450.14 1137.4058 3449.9828 1137.4459 3449.8238 C 1137.5825 3449.4865 1137.6566 3449.1245 1137.8434 3448.9007 C 1137.9044 3448.8433 1137.9814 3448.8057 1138.0641 3448.7927 L 1138.1799 3448.582 C 1139.7059 3449.1685 1141.3944 3449.1726 1142.9233 3448.5936 L 1143.0259 3448.7904 C 1143.1309 3448.806 1143.225 3448.8637 1143.2883 3448.9486 C 1143.4334 3449.225 1143.5507 3449.5143 1143.6402 3449.813 C 1143.681 3449.973 1143.731 3450.1303 1143.79 3450.2845 L 1143.854 3450.4157 C 1143.9227 3450.5977 1144.0877 3450.7258 1144.2811 3450.747 C 1144.4744 3450.7684 1144.6634 3450.6795 1144.7701 3450.517 C 1144.8758 3450.3532 1144.8806 3450.144 1144.7825 3449.976 L 1144.7153 3449.837 C 1144.6312 3449.695 1144.539 3449.5583 1144.439 3449.427 C 1144.2615 3449.171 1144.1087 3448.8976 1143.976 3448.6113 C 1143.9509 3448.5055 1143.9699 3448.394 1144.0284 3448.3026 C 1143.9955 3448.2353 1143.9669 3448.166 1143.9428 3448.095 C 1145.3474 3447.2576 1146.397 3445.934 1146.8933 3444.375 L 1147.1125 3444.4136 C 1147.1912 3444.342 1147.2946 3444.304 1147.4003 3444.307 C 1147.7067 3444.3657 1148.007 3444.4614 1148.2972 3444.5695 C 1148.4477 3444.639 1148.602 3444.6976 1148.7587 3444.747 C 1148.7957 3444.757 1148.8498 3444.7655 1148.8914 3444.7756 L 1148.9015 3444.7756 C 1149.0872 3444.8355 1149.291 3444.786 1149.4282 3444.647 C 1149.5654 3444.508 1149.6127 3444.304 1149.5505 3444.1188 C 1149.4869 3443.934 1149.3245 3443.8007 1149.1307 3443.7746 L 1148.981 3443.739 C 1148.8172 3443.7167 1148.6523 3443.704 1148.487 3443.7005 C 1148.1752 3443.6804 1147.8665 3443.6295 1147.5655 3443.5484 C 1147.4729 3443.4967 1147.3957 3443.4195 1147.3432 3443.326 L 1147.1349 3443.2644 C 1147.357 3441.6437 1146.9764 3439.9978 1146.0652 3438.639 L 1146.2473 3438.471 C 1146.2396 3438.365 1146.2743 3438.26 1146.343 3438.179 C 1146.58 3437.9754 1146.837 3437.7956 1147.1071 3437.642 C 1147.2537 3437.567 1147.396 3437.484 1147.5331 3437.3927 L 1147.6458 3437.3016 C 1147.8151 3437.1965 1147.909 3437.0035 1147.887 3436.8054 C 1147.8651 3436.6073 1147.7313 3436.4395 1147.5431 3436.374 C 1147.3551 3436.3085 1147.1462 3436.357 1147.006 3436.4982 L 1146.8917 3436.5893 C 1146.7726 3436.7024 1146.66 3436.822 1146.5545 3436.948 C 1146.3507 3437.1812 1146.1254 3437.3935 1145.8807 3437.5833 C 1145.782 3437.6235 1145.674 3437.6353 1145.5689 3437.6173 L 1145.3737 3437.7562 C 1144.2469 3436.5754 1142.7288 3435.842 1141.1018 3435.6956 C 1141.1018 3435.6184 1141.0918 3435.5026 1141.0903 3435.4663 C 1141.003 3435.406 1140.9421 3435.3143 1140.922 3435.21 C 1140.9113 3434.8984 1140.931 3434.5864 1140.9807 3434.2786 C 1141.0139 3434.1165 1141.037 3433.9544 1141.0517 3433.79 L 1141.0517 3433.6357 C 1141.0671 3433.3393 1140.8433 3433.0854 1140.5462 3433.0646 Z M 1139.8956 3437.0477 L 1139.7412 3439.7435 L 1139.7296 3439.7435 C 1139.7219 3439.9103 1139.6239 3440.0523 1139.4734 3440.1325 C 1139.3229 3440.2128 1139.1446 3440.189 1139.0103 3440.091 L 1136.7992 3438.524 C 1137.503 3437.833 1138.3859 3437.352 1139.3484 3437.1357 C 1139.529 3437.097 1139.7111 3437.0678 1139.894 3437.0477 Z M 1141.1829 3437.0477 C 1142.3444 3437.192 1143.4257 3437.7138 1144.2623 3438.5326 L 1142.072 3440.0893 C 1141.9369 3440.1974 1141.7517 3440.219 1141.595 3440.145 C 1141.4383 3440.0708 1141.338 3439.9133 1141.3357 3439.7405 Z M 1135.9965 3439.5383 L 1138.0186 3441.3427 L 1138.0186 3441.3543 C 1138.1444 3441.464 1138.1992 3441.6344 1138.1621 3441.7973 C 1138.1251 3441.96 1138 3442.089 1137.8403 3442.133 L 1137.8403 3442.1407 L 1135.2456 3442.887 C 1135.1172 3441.718 1135.3817 3440.5395 1135.9973 3439.5375 Z M 1145.0673 3439.5383 C 1145.6816 3440.5377 1145.9533 3441.71 1145.8406 3442.8777 L 1143.242 3442.129 L 1143.242 3442.119 C 1143.0799 3442.075 1142.9564 3441.9462 1142.9202 3441.7834 C 1142.8839 3441.6205 1142.9379 3441.4515 1143.0637 3441.3404 L 1145.0703 3439.5444 Z M 1140.1248 3441.483 L 1140.9521 3441.483 L 1141.4576 3442.1253 L 1141.274 3442.928 L 1140.5307 3443.2852 L 1139.786 3442.928 L 1139.6108 3442.1253 Z M 1142.7751 3443.6735 C 1142.8098 3443.6696 1142.8522 3443.6696 1142.8793 3443.6735 L 1145.555 3444.125 C 1145.1691 3445.2363 1144.4074 3446.1856 1143.4133 3446.8208 L 1142.3791 3444.317 C 1142.3214 3444.181 1142.3336 3444.025 1142.4117 3443.8993 C 1142.4899 3443.7735 1142.6242 3443.6936 1142.772 3443.685 Z M 1138.281 3443.685 C 1138.4323 3443.6873 1138.572 3443.7653 1138.6545 3443.892 C 1138.7371 3444.0184 1138.7502 3444.1774 1138.6908 3444.3163 L 1138.6908 3444.3264 L 1137.6628 3446.81 C 1136.6788 3446.1794 1135.9317 3445.2417 1135.5342 3444.142 L 1138.1868 3443.692 C 1138.2162 3443.689 1138.2463 3443.689 1138.2764 3443.692 Z M 1140.5222 3444.7655 C 1140.6942 3444.76 1140.8545 3444.852 1140.9367 3445.0032 L 1140.9467 3445.0032 L 1142.2541 3447.3626 L 1141.7316 3447.517 C 1140.77 3447.737 1139.7659 3447.685 1138.8313 3447.367 L 1140.1433 3445.008 C 1140.2228 3444.869 1140.3694 3444.784 1140.5292 3444.78 Z" stroke="white" stroke-linecap="butt" stroke-linejoin="round" stroke-width=".055"/>
        </g>
      </g>
      <g id="Graphic_50"/>
      <g id="Line_52">
        <path d="M 393.6812 3570.112 L 483.0097 3570.112 L 483.0097 3700.4854 L 980.0971 3700.4854 L 980.0971 3554.6457 L 1006.3205 3554.6457" marker-end="url(#FilledArrow_Marker)" marker-start="url(#FilledArrow_Marker_2)" stroke="black" stroke-linecap="round" stroke-linejoin="round" stroke-dasharray="4.0,4.0" stroke-width="1"/>
      </g>
      <g id="Line_54">
        <line x1="571.2024" y1="3554.6457" x2="393.6812" y2="3554.6457" marker-end="url(#FilledArrow_Marker)" marker-start="url(#FilledArrow_Marker_2)" stroke="black" stroke-linecap="round" stroke-linejoin="round" stroke-dasharray="4.0,4.0" stroke-width="1"/>
      </g>
      <g id="Line_55">
        <line x1="693.0709" y1="3509.2914" x2="671.811" y2="3509.2914" stroke="#666" stroke-linecap="round" stroke-linejoin="round" stroke-width="1"/>
      </g>
      <g id="Line_56">
        <line x1="693.0709" y1="3600" x2="671.811" y2="3600" stroke="#666" stroke-linecap="round" stroke-linejoin="round" stroke-width="1"/>
      </g>
      <g id="Line_57">
        <line x1="762.5197" y1="3420" x2="762.5197" y2="3305.197" stroke="black" stroke-linecap="round" stroke-linejoin="round" stroke-width="1"/>
      </g>
      <g id="Line_58">
        <line x1="1197.6378" y1="3420" x2="1197.6378" y2="3305.197" stroke="black" stroke-linecap="round" stroke-linejoin="round" stroke-width="1"/>
      </g>
    </g>
  </g>
</svg>
