<?xml version="1.0" encoding="UTF-8" standalone="no"?>
<!DOCTYPE svg PUBLIC "-//W3C//DTD SVG 1.1//EN" "http://www.w3.org/Graphics/SVG/1.1/DTD/svg11.dtd">
<svg xmlns="http://www.w3.org/2000/svg" xmlns:xl="http://www.w3.org/1999/xlink" xmlns:dc="http://purl.org/dc/elements/1.1/" version="1.1" viewBox="150 2952 977 641" width="977" height="641">
  <defs>
    <marker orient="auto" overflow="visible" markerUnits="strokeWidth" id="FilledArrow_Marker" stroke-linejoin="miter" stroke-miterlimit="10" viewBox="-1 -3 7 6" markerWidth="7" markerHeight="6" color="black">
      <g>
        <path d="M 4.8 0 L 0 -1.8 L 0 1.8 Z" fill="currentColor" stroke="currentColor" stroke-width="1"/>
      </g>
    </marker>
  </defs>
  <g id="gitops" fill-opacity="1" stroke="none" stroke-opacity="1" fill="none" stroke-dasharray="none">
    <title>gitops</title>
    <rect fill="white" x="150" y="2952" width="977" height="641"/>
    <g id="gitops_Layer_1">
      <title>Layer 1</title>
      <g id="Graphic_33"/>
      <g id="Graphic_18">
        <path d="M 530.07874 2975.6693 L 907.0866 2975.6693 L 907.0866 3259.134 L 530.07874 3259.134 Z" stroke="gray" stroke-linecap="round" stroke-linejoin="round" stroke-dasharray="4.0,4.0" stroke-width="1"/>
        <text transform="translate(535.07874 3235.686)" fill="black">
          <tspan font-family="Helvetica Neue" font-size="16" fill="black" x="0" y="15">Management Plane Cluster</tspan>
        </text>
      </g>
      <g id="Graphic_16">
        <path d="M 384.0945 3330.7087 L 700.1575 3330.7087 L 700.1575 3539.055 L 384.0945 3539.055 Z" stroke="gray" stroke-linecap="round" stroke-linejoin="round" stroke-dasharray="4.0,4.0" stroke-width="1"/>
        <text transform="translate(389.0945 3515.607)" fill="black">
          <tspan font-family="Helvetica Neue" font-size="16" fill="black" x="0" y="15">App Cluster 1</tspan>
        </text>
      </g>
      <g id="Graphic_17">
        <path d="M 789.4488 3330.7087 L 1105.5118 3330.7087 L 1105.5118 3539.055 L 789.4488 3539.055 Z" stroke="gray" stroke-linecap="round" stroke-linejoin="round" stroke-dasharray="4.0,4.0" stroke-width="1"/>
        <text transform="translate(794.4488 3515.607)" fill="black">
          <tspan font-family="Helvetica Neue" font-size="16" fill="black" x="0" y="15">App Cluster 2</tspan>
        </text>
      </g>
      <g id="Graphic_2">
        <path d="M 174.3307 3409.937 L 174.3307 3363.449 C 174.3307 3360.241 200.04662 3357.638 231.73229 3357.638 C 263.41796 3357.638 289.13386 3360.241 289.13386 3363.449 L 289.13386 3409.937 C 289.13386 3413.1447 263.41796 3415.748 231.73229 3415.748 C 200.04662 3415.748 174.3307 3413.1447 174.3307 3409.937" fill="#333"/>
        <path d="M 174.3307 3409.937 L 174.3307 3363.449 C 174.3307 3360.241 200.04662 3357.638 231.73229 3357.638 C 263.41796 3357.638 289.13386 3360.241 289.13386 3363.449 L 289.13386 3409.937 C 289.13386 3413.1447 263.41796 3415.748 231.73229 3415.748 C 200.04662 3415.748 174.3307 3413.1447 174.3307 3409.937 M 174.3307 3363.449 C 174.3307 3366.6565 200.04662 3369.26 231.73229 3369.26 C 263.41796 3369.26 289.13386 3366.6565 289.13386 3363.449" stroke="white" stroke-linecap="round" stroke-linejoin="round" stroke-width="1"/>
        <text transform="translate(179.3307 3379.8664)" fill="white">
          <tspan font-family="Helvetica Neue" font-weight="bold" font-size="16" fill="white" x="41.449577" y="16">Git</tspan>
        </text>
      </g>
      <g id="Graphic_3">
        <path d="M 406.2677 3357.638 L 505.0709 3357.638 C 509.48915 3357.638 513.0709 3361.2195 513.0709 3365.638 L 513.0709 3407.748 C 513.0709 3412.1663 509.48915 3415.748 505.0709 3415.748 L 406.2677 3415.748 C 401.84944 3415.748 398.2677 3412.1663 398.2677 3407.748 L 398.2677 3365.638 C 398.2677 3361.2195 401.84944 3357.638 406.2677 3357.638 Z" fill="#333"/>
        <text transform="translate(403.2677 3376.961)" fill="white">
          <tspan font-family="Helvetica Neue" font-weight="bold" font-size="16" fill="white" x="36.553577" y="16">Flux</tspan>
        </text>
      </g>
      <g id="Graphic_4">
        <path d="M 569.25985 3459.685 L 668.063 3459.685 C 672.4813 3459.685 676.063 3463.2668 676.063 3467.685 L 676.063 3509.7953 C 676.063 3514.2136 672.4813 3517.7953 668.063 3517.7953 L 569.25985 3517.7953 C 564.8416 3517.7953 561.25985 3514.2136 561.25985 3509.7953 L 561.25985 3467.685 C 561.25985 3463.2668 564.8416 3459.685 569.25985 3459.685 Z" fill="#333"/>
        <text transform="translate(566.25985 3469.276)" fill="white">
          <tspan font-family="Helvetica Neue" font-weight="bold" font-size="16" fill="white" x="8.105577" y="16">Kubernetes</tspan>
          <tspan font-family="Helvetica Neue" font-weight="bold" font-size="16" fill="white" x="39.225577" y="35.46411">API</tspan>
        </text>
      </g>
      <g id="Graphic_5">
        <path d="M 569.25985 3357.638 L 668.063 3357.638 C 672.4813 3357.638 676.063 3361.2195 676.063 3365.638 L 676.063 3407.748 C 676.063 3412.1663 672.4813 3415.748 668.063 3415.748 L 569.25985 3415.748 C 564.8416 3415.748 561.25985 3412.1663 561.25985 3407.748 L 561.25985 3365.638 C 561.25985 3361.2195 564.8416 3357.638 569.25985 3357.638 Z" fill="#f15623"/>
        <text transform="translate(566.25985 3376.961)" fill="white">
          <tspan font-family="Helvetica Neue" font-weight="bold" font-size="16" fill="white" x="31.225577" y="16">Relay</tspan>
        </text>
      </g>
      <g id="Graphic_6">
        <path d="M 764.8504 2987.7166 L 863.6536 2987.7166 C 868.0718 2987.7166 871.6536 2991.2983 871.6536 2995.7166 L 871.6536 3037.8268 C 871.6536 3042.245 868.0718 3045.8268 863.6536 3045.8268 L 764.8504 3045.8268 C 760.4321 3045.8268 756.8504 3042.245 756.8504 3037.8268 L 756.8504 2995.7166 C 756.8504 2991.2983 760.4321 2987.7166 764.8504 2987.7166 Z" fill="#0a55a8"/>
        <text transform="translate(761.8504 3007.0396)" fill="white">
          <tspan font-family="Helvetica Neue" font-weight="bold" font-size="16" fill="white" x="36.689577" y="16">TSB</tspan>
        </text>
      </g>
      <g id="Graphic_8">
        <path d="M 764.8504 3188.9764 L 863.6536 3188.9764 C 868.0718 3188.9764 871.6536 3192.558 871.6536 3196.9764 L 871.6536 3239.0866 C 871.6536 3243.505 868.0718 3247.0866 863.6536 3247.0866 L 764.8504 3247.0866 C 760.4321 3247.0866 756.8504 3243.505 756.8504 3239.0866 L 756.8504 3196.9764 C 756.8504 3192.558 760.4321 3188.9764 764.8504 3188.9764 Z" fill="#333"/>
        <text transform="translate(761.8504 3198.5674)" fill="white">
          <tspan font-family="Helvetica Neue" font-weight="bold" font-size="16" fill="white" x="8.105577" y="16">Kubernetes</tspan>
          <tspan font-family="Helvetica Neue" font-weight="bold" font-size="16" fill="white" x="39.225577" y="35.46411">API</tspan>
        </text>
      </g>
      <g id="Graphic_7">
        <path d="M 764.8504 3106.7717 L 863.6536 3106.7717 C 868.0718 3106.7717 871.6536 3110.3534 871.6536 3114.7717 L 871.6536 3156.882 C 871.6536 3161.3002 868.0718 3164.882 863.6536 3164.882 L 764.8504 3164.882 C 760.4321 3164.882 756.8504 3161.3002 756.8504 3156.882 L 756.8504 3114.7717 C 756.8504 3110.3534 760.4321 3106.7717 764.8504 3106.7717 Z" fill="#f15623"/>
        <text transform="translate(761.8504 3126.0947)" fill="white">
          <tspan font-family="Helvetica Neue" font-weight="bold" font-size="16" fill="white" x="31.225577" y="16">Relay</tspan>
        </text>
      </g>
      <g id="Line_9">
        <line x1="814.252" y1="3106.7717" x2="814.252" y2="3058.7268" marker-end="url(#FilledArrow_Marker)" stroke="black" stroke-linecap="round" stroke-linejoin="round" stroke-width="2"/>
      </g>
      <g id="Line_10">
        <line x1="814.252" y1="3188.9764" x2="814.252" y2="3177.782" marker-end="url(#FilledArrow_Marker)" stroke="black" stroke-linecap="round" stroke-linejoin="round" stroke-width="2"/>
      </g>
      <g id="Graphic_11">
        <path d="M 569.25985 3088.3465 L 668.063 3088.3465 C 672.4813 3088.3465 676.063 3091.9282 676.063 3096.3465 L 676.063 3138.4567 C 676.063 3142.875 672.4813 3146.4567 668.063 3146.4567 L 569.25985 3146.4567 C 564.8416 3146.4567 561.25985 3142.875 561.25985 3138.4567 L 561.25985 3096.3465 C 561.25985 3091.9282 564.8416 3088.3465 569.25985 3088.3465 Z" fill="#333"/>
        <text transform="translate(566.25985 3107.6695)" fill="white">
          <tspan font-family="Helvetica Neue" font-weight="bold" font-size="16" fill="white" x="36.553577" y="16">Flux</tspan>
        </text>
      </g>
      <g id="Line_12">
        <path d="M 642.2717 3146.4567 C 654.6074 3158.6446 672.1779 3172.7923 695.9055 3185 C 712.0236 3193.2926 728.77825 3199.5558 744.4353 3204.2685" marker-end="url(#FilledArrow_Marker)" stroke="black" stroke-linecap="round" stroke-linejoin="round" stroke-width="2"/>
      </g>
      <g id="Graphic_15">
        <path d="M 815.874 3357.638 L 914.6772 3357.638 C 919.0955 3357.638 922.6772 3361.2195 922.6772 3365.638 L 922.6772 3407.748 C 922.6772 3412.1663 919.0955 3415.748 914.6772 3415.748 L 815.874 3415.748 C 811.4557 3415.748 807.874 3412.1663 807.874 3407.748 L 807.874 3365.638 C 807.874 3361.2195 811.4557 3357.638 815.874 3357.638 Z" fill="#333"/>
        <text transform="translate(812.874 3376.961)" fill="white">
          <tspan font-family="Helvetica Neue" font-weight="bold" font-size="16" fill="white" x="36.553577" y="16">Flux</tspan>
        </text>
      </g>
      <g id="Graphic_14">
        <path d="M 978.8662 3459.685 L 1077.6693 3459.685 C 1082.0876 3459.685 1085.6693 3463.2668 1085.6693 3467.685 L 1085.6693 3509.7953 C 1085.6693 3514.2136 1082.0876 3517.7953 1077.6693 3517.7953 L 978.8662 3517.7953 C 974.4479 3517.7953 970.8662 3514.2136 970.8662 3509.7953 L 970.8662 3467.685 C 970.8662 3463.2668 974.4479 3459.685 978.8662 3459.685 Z" fill="#333"/>
        <text transform="translate(975.8662 3469.276)" fill="white">
          <tspan font-family="Helvetica Neue" font-weight="bold" font-size="16" fill="white" x="8.105577" y="16">Kubernetes</tspan>
          <tspan font-family="Helvetica Neue" font-weight="bold" font-size="16" fill="white" x="39.225577" y="35.46411">API</tspan>
        </text>
      </g>
      <g id="Graphic_13">
        <path d="M 978.8662 3357.638 L 1077.6693 3357.638 C 1082.0876 3357.638 1085.6693 3361.2195 1085.6693 3365.638 L 1085.6693 3407.748 C 1085.6693 3412.1663 1082.0876 3415.748 1077.6693 3415.748 L 978.8662 3415.748 C 974.4479 3415.748 970.8662 3412.1663 970.8662 3407.748 L 970.8662 3365.638 C 970.8662 3361.2195 974.4479 3357.638 978.8662 3357.638 Z" fill="#f15623"/>
        <text transform="translate(975.8662 3376.961)" fill="white">
          <tspan font-family="Helvetica Neue" font-weight="bold" font-size="16" fill="white" x="31.225577" y="16">Relay</tspan>
        </text>
      </g>
      <g id="Line_19">
        <line x1="289.13386" y1="3386.693" x2="385.3677" y2="3386.693" marker-end="url(#FilledArrow_Marker)" stroke="black" stroke-linecap="round" stroke-linejoin="round" stroke-width="2"/>
      </g>
      <g id="Line_20">
        <line x1="502.0768" y1="3415.748" x2="561.3201" y2="3452.8395" marker-end="url(#FilledArrow_Marker)" stroke="black" stroke-linecap="round" stroke-linejoin="round" stroke-width="2"/>
      </g>
      <g id="Line_21">
        <line x1="618.6614" y1="3459.685" x2="618.6614" y2="3428.648" marker-end="url(#FilledArrow_Marker)" stroke="black" stroke-linecap="round" stroke-linejoin="round" stroke-width="2"/>
      </g>
      <g id="Line_22">
        <path d="M 625.5371 3357.638 C 635.01035 3349.5037 650.7233 3339.3974 676.063 3327 C 767.6664 3282.183 902.8504 3316.3892 942 3228.5 C 967.6173 3170.9903 905.0123 3098.088 858.672 3054.561" marker-end="url(#FilledArrow_Marker)" stroke="black" stroke-linecap="round" stroke-linejoin="round" stroke-width="2"/>
      </g>
      <g id="Line_23">
        <path d="M 885.5836 3415.748 C 897.1664 3429.737 913.6688 3446.33 935 3459.685 C 943.0207 3464.7067 951.069 3468.8605 958.8933 3472.2964" marker-end="url(#FilledArrow_Marker)" stroke="black" stroke-linecap="round" stroke-linejoin="round" stroke-width="2"/>
      </g>
      <g id="Line_24">
        <line x1="1028.2677" y1="3459.685" x2="1028.2677" y2="3428.648" marker-end="url(#FilledArrow_Marker)" stroke="black" stroke-linecap="round" stroke-linejoin="round" stroke-width="2"/>
      </g>
      <g id="Line_25">
        <path d="M 1029.0185 3357.638 C 1027.7262 3323.3364 1018.988 3262.254 979.5 3194 C 945.1222 3134.5788 896.6042 3085.565 861.0326 3054.2592" marker-end="url(#FilledArrow_Marker)" stroke="black" stroke-linecap="round" stroke-linejoin="round" stroke-width="2"/>
      </g>
      <g id="Line_27">
        <path d="M 215.4169 3357.8762 C 207.92044 3332.219 212.12373 3291.8906 276.5 3247.0866 C 347.87277 3197.4133 471.35644 3157.447 548.8353 3135.6055" marker-end="url(#FilledArrow_Marker)" stroke="black" stroke-linecap="round" stroke-linejoin="round" stroke-width="2"/>
      </g>
      <g id="Line_28">
        <path d="M 289.13386 3398.457 C 319.3792 3406.5356 361.62776 3420.039 416 3442.5 C 539.3135 3493.4402 539.718 3582.3104 667 3566.5 C 753.524 3555.7524 814.0369 3476.5275 843.9194 3426.891" marker-end="url(#FilledArrow_Marker)" stroke="black" stroke-linecap="round" stroke-linejoin="round" stroke-width="2"/>
      </g>
      <g id="Graphic_29">
        <rect x="779.332" y="3069.1577" width="69.84" height="28.447998" fill="white"/>
        <text transform="translate(784.332 3074.1577)" fill="black">
          <tspan font-family="Helvetica Neue" font-size="16" fill="black" x="7105427e-20" y="15">TSB API</tspan>
        </text>
      </g>
      <g id="Graphic_30">
        <rect x="969.8985" y="3232.0863" width="69.84" height="28.447998" fill="white"/>
        <text transform="translate(974.8985 3237.0863)" fill="black">
          <tspan font-family="Helvetica Neue" font-size="16" fill="black" x="7105427e-20" y="15">TSB API</tspan>
        </text>
      </g>
      <g id="Graphic_31">
        <rect x="797.6839" y="3279.039" width="69.84" height="28.447998" fill="white"/>
        <text transform="translate(802.6839 3284.039)" fill="black">
          <tspan font-family="Helvetica Neue" font-size="16" fill="black" x="7105427e-20" y="15">TSB API</tspan>
        </text>
      </g>
      <g id="Graphic_32">
        <rect x="239.52756" y="3303.7796" width="108.064" height="28.447998" fill="white"/>
        <text transform="translate(244.52756 3308.7796)" fill="black">
          <tspan font-family="Helvetica Neue" font-size="16" fill="black" x="0" y="15">TSB API CRD</tspan>
        </text>
      </g>
    </g>
  </g>
</svg>
