<?xml version="1.0" encoding="UTF-8" standalone="no"?>
<!DOCTYPE svg PUBLIC "-//W3C//DTD SVG 1.1//EN" "http://www.w3.org/Graphics/SVG/1.1/DTD/svg11.dtd">
<svg xmlns="http://www.w3.org/2000/svg" xmlns:dc="http://purl.org/dc/elements/1.1/" version="1.1" xmlns:xl="http://www.w3.org/1999/xlink" viewBox="-4244 2298 791 764" width="791" height="764">
  <defs>
    <marker orient="auto" overflow="visible" markerUnits="strokeWidth" id="FilledArrow_Marker" stroke-linejoin="miter" stroke-miterlimit="10" viewBox="-1 -3 7 6" markerWidth="7" markerHeight="6" color="black">
      <g>
        <path d="M 4.8 0 L 0 -1.8 L 0 1.8 Z" fill="currentColor" stroke="currentColor" stroke-width="1"/>
      </g>
    </marker>
  </defs>
  <g id="Canvas_32" fill-opacity="1" fill="none" stroke="none" stroke-opacity="1" stroke-dasharray="none">
    <title>Canvas 32</title>
    <rect fill="white" x="-4244" y="2298" width="791" height="764"/>
    <g id="Canvas_32_Layer_1">
      <title>Layer 1</title>
      <g id="Graphic_33">
        <rect x="-4243.0437" y="2298.8977" width="789.4488" height="762.5197" fill="white"/>
      </g>
      <g id="Graphic_28">
        <path d="M -4206.6973 2809.543 L -3489.9414 2809.543 C -3485.523 2809.543 -3481.9414 2813.1246 -3481.9414 2817.543 L -3481.9414 3034.992 C -3481.9414 3039.4104 -3485.523 3042.992 -3489.9414 3042.992 L -4206.6973 3042.992 C -4211.1156 3042.992 -4214.6973 3039.4104 -4214.6973 3034.992 L -4214.6973 2817.543 C -4214.6973 2813.1246 -4211.1156 2809.543 -4206.6973 2809.543 Z" fill="#f7f9ff"/>
        <path d="M -4206.6973 2809.543 L -3489.9414 2809.543 C -3485.523 2809.543 -3481.9414 2813.1246 -3481.9414 2817.543 L -3481.9414 3034.992 C -3481.9414 3039.4104 -3485.523 3042.992 -3489.9414 3042.992 L -4206.6973 3042.992 C -4211.1156 3042.992 -4214.6973 3039.4104 -4214.6973 3034.992 L -4214.6973 2817.543 C -4214.6973 2813.1246 -4211.1156 2809.543 -4206.6973 2809.543 Z" stroke="gray" stroke-linecap="round" stroke-linejoin="round" stroke-width="1"/>
      </g>
      <g id="Graphic_23">
        <rect x="-3840.945" y="2847.102" width="334.4882" height="168.66142" fill="white"/>
        <path d="M -3840.945 2847.102 L -3506.4567 2847.102 L -3506.4567 3015.7634 L -3840.945 3015.7634 Z" stroke="gray" stroke-linecap="round" stroke-linejoin="round" stroke-dasharray="4.0,4.0" stroke-width="1"/>
      </g>
      <g id="Graphic_18">
        <path d="M -4206.6973 2345.6693 L -3489.9414 2345.6693 C -3485.523 2345.6693 -3481.9414 2349.251 -3481.9414 2353.6693 L -3481.9414 2699.0866 C -3481.9414 2703.505 -3485.523 2707.0866 -3489.9414 2707.0866 L -4206.6973 2707.0866 C -4211.1156 2707.0866 -4214.6973 2703.505 -4214.6973 2699.0866 L -4214.6973 2353.6693 C -4214.6973 2349.251 -4211.1156 2345.6693 -4206.6973 2345.6693 Z" fill="#f7f9ff"/>
        <path d="M -4206.6973 2345.6693 L -3489.9414 2345.6693 C -3485.523 2345.6693 -3481.9414 2349.251 -3481.9414 2353.6693 L -3481.9414 2699.0866 C -3481.9414 2703.505 -3485.523 2707.0866 -3489.9414 2707.0866 L -4206.6973 2707.0866 C -4211.1156 2707.0866 -4214.6973 2703.505 -4214.6973 2699.0866 L -4214.6973 2353.6693 C -4214.6973 2349.251 -4211.1156 2345.6693 -4206.6973 2345.6693 Z" stroke="gray" stroke-linecap="round" stroke-linejoin="round" stroke-width="1"/>
      </g>
      <g id="Graphic_11">
        <rect x="-3840.945" y="2389.6063" width="334.4882" height="291.9685" fill="white"/>
        <path d="M -3840.945 2389.6063 L -3506.4567 2389.6063 L -3506.4567 2681.5748 L -3840.945 2681.5748 Z" stroke="gray" stroke-linecap="round" stroke-linejoin="round" stroke-dasharray="4.0,4.0" stroke-width="1"/>
      </g>
      <g id="Graphic_2">
        <path d="M -4191.5276 2507.244 L -4065.7953 2507.244 C -4061.377 2507.244 -4057.7953 2510.8258 -4057.7953 2515.244 L -4057.7953 2555.937 C -4057.7953 2560.3553 -4061.377 2563.937 -4065.7953 2563.937 L -4191.5276 2563.937 C -4195.946 2563.937 -4199.5276 2560.3553 -4199.5276 2555.937 L -4199.5276 2515.244 C -4199.5276 2510.8258 -4195.946 2507.244 -4191.5276 2507.244 Z" fill="#f15623"/>
        <text transform="translate(-4194.5276 2516.1265)" fill="white">
          <tspan font-family="Helvetica Neue" font-weight="bold" font-size="16" fill="white" x="14.018142" y="16">Control Plane </tspan>
          <tspan font-family="Helvetica Neue" font-weight="bold" font-size="16" fill="white" x="31.642142" y="35.46411">Operator</tspan>
        </text>
      </g>
      <g id="Graphic_3">
        <path d="M -4191.5276 2862.6925 L -4065.7953 2862.6925 C -4061.377 2862.6925 -4057.7953 2866.2742 -4057.7953 2870.6925 L -4057.7953 2911.3854 C -4057.7953 2915.8037 -4061.377 2919.3854 -4065.7953 2919.3854 L -4191.5276 2919.3854 C -4195.946 2919.3854 -4199.5276 2915.8037 -4199.5276 2911.3854 L -4199.5276 2870.6925 C -4199.5276 2866.2742 -4195.946 2862.6925 -4191.5276 2862.6925 Z" fill="#f15623"/>
        <text transform="translate(-4194.5276 2881.307)" fill="white">
          <tspan font-family="Helvetica Neue" font-weight="bold" font-size="16" fill="white" x="12.994142" y="16">Istio Operator</tspan>
        </text>
      </g>
      <g id="Graphic_4">
        <path d="M -3813.1024 2420.7874 L -3715.7166 2420.7874 C -3711.2983 2420.7874 -3707.7166 2424.3691 -3707.7166 2428.7874 L -3707.7166 2469.4803 C -3707.7166 2473.8986 -3711.2983 2477.4803 -3715.7166 2477.4803 L -3813.1024 2477.4803 C -3817.5207 2477.4803 -3821.1024 2473.8986 -3821.1024 2469.4803 L -3821.1024 2428.7874 C -3821.1024 2424.3691 -3817.5207 2420.7874 -3813.1024 2420.7874 Z" fill="#333"/>
        <text transform="translate(-3816.1024 2439.4018)" fill="white">
          <tspan font-family="Helvetica Neue" font-weight="bold" font-size="16" fill="white" x="34.804913" y="16">tsbd</tspan>
        </text>
      </g>
      <g id="Graphic_5">
        <path d="M -3813.1024 2599.37 L -3715.7166 2599.37 C -3711.2983 2599.37 -3707.7166 2602.9518 -3707.7166 2607.37 L -3707.7166 2648.063 C -3707.7166 2652.4813 -3711.2983 2656.063 -3715.7166 2656.063 L -3813.1024 2656.063 C -3817.5207 2656.063 -3821.1024 2652.4813 -3821.1024 2648.063 L -3821.1024 2607.37 C -3821.1024 2602.9518 -3817.5207 2599.37 -3813.1024 2599.37 Z" fill="#333"/>
        <text transform="translate(-3816.1024 2617.9845)" fill="white">
          <tspan font-family="Helvetica Neue" font-weight="bold" font-size="16" fill="white" x="35.564913" y="16">istio</tspan>
        </text>
      </g>
      <g id="Graphic_6">
        <path d="M -3813.1024 2508.6614 L -3715.7166 2508.6614 C -3711.2983 2508.6614 -3707.7166 2512.2432 -3707.7166 2516.6614 L -3707.7166 2557.3544 C -3707.7166 2561.7726 -3711.2983 2565.3544 -3715.7166 2565.3544 L -3813.1024 2565.3544 C -3817.5207 2565.3544 -3821.1024 2561.7726 -3821.1024 2557.3544 L -3821.1024 2516.6614 C -3821.1024 2512.2432 -3817.5207 2508.6614 -3813.1024 2508.6614 Z" fill="#333"/>
        <text transform="translate(-3816.1024 2527.2758)" fill="white">
          <tspan font-family="Helvetica Neue" font-weight="bold" font-size="16" fill="white" x="29.188913" y="16">zipkin</tspan>
        </text>
      </g>
      <g id="Graphic_7">
        <path d="M -3631.685 2508.6614 L -3534.2992 2508.6614 C -3529.881 2508.6614 -3526.2992 2512.2432 -3526.2992 2516.6614 L -3526.2992 2557.3544 C -3526.2992 2561.7726 -3529.881 2565.3544 -3534.2992 2565.3544 L -3631.685 2565.3544 C -3636.1034 2565.3544 -3639.685 2561.7726 -3639.685 2557.3544 L -3639.685 2516.6614 C -3639.685 2512.2432 -3636.1034 2508.6614 -3631.685 2508.6614 Z" fill="#333"/>
        <text transform="translate(-3634.685 2527.2758)" fill="white">
          <tspan font-family="Helvetica Neue" font-weight="bold" font-size="16" fill="white" x="37.324913" y="16">oap</tspan>
        </text>
      </g>
      <g id="Graphic_8">
        <path d="M -3631.685 2420.7874 L -3534.2992 2420.7874 C -3529.881 2420.7874 -3526.2992 2424.3691 -3526.2992 2428.7874 L -3526.2992 2469.4803 C -3526.2992 2473.8986 -3529.881 2477.4803 -3534.2992 2477.4803 L -3631.685 2477.4803 C -3636.1034 2477.4803 -3639.685 2473.8986 -3639.685 2469.4803 L -3639.685 2428.7874 C -3639.685 2424.3691 -3636.1034 2420.7874 -3631.685 2420.7874 Z" fill="#333"/>
        <text transform="translate(-3634.685 2439.4018)" fill="white">
          <tspan font-family="Helvetica Neue" font-weight="bold" font-size="16" fill="white" x="18.084913" y="16">collector</tspan>
        </text>
      </g>
      <g id="Graphic_9">
        <path d="M -4031.37 2389.6063 L -3877.2914 2389.6063 C -3872.873 2389.6063 -3869.2914 2393.188 -3869.2914 2397.6063 L -3869.2914 2446.8032 C -3869.2914 2451.2214 -3872.873 2454.8032 -3877.2914 2454.8032 L -4031.37 2454.8032 C -4035.7884 2454.8032 -4039.37 2451.2214 -4039.37 2446.8032 L -4039.37 2397.6063 C -4039.37 2393.188 -4035.7884 2389.6063 -4031.37 2389.6063 Z" fill="#ffffc0"/>
        <path d="M -4031.37 2389.6063 L -3877.2914 2389.6063 C -3872.873 2389.6063 -3869.2914 2393.188 -3869.2914 2397.6063 L -3869.2914 2446.8032 C -3869.2914 2451.2214 -3872.873 2454.8032 -3877.2914 2454.8032 L -4031.37 2454.8032 C -4035.7884 2454.8032 -4039.37 2451.2214 -4039.37 2446.8032 L -4039.37 2397.6063 C -4039.37 2393.188 -4035.7884 2389.6063 -4031.37 2389.6063 Z" stroke="gray" stroke-linecap="round" stroke-linejoin="round" stroke-width="1"/>
        <text transform="translate(-4034.37 2403.7567)" fill="black">
          <tspan font-family="Helvetica Neue" font-size="16" fill="black" x="17.071368" y="15">Watch for Control </tspan>
          <tspan font-family="Helvetica Neue" font-size="16" fill="black" x="11.575368" y="33.448">Plane Components</tspan>
        </text>
      </g>
      <g id="Graphic_10">
        <path d="M -4031.37 2616.378 L -3877.2914 2616.378 C -3872.873 2616.378 -3869.2914 2619.9597 -3869.2914 2624.378 L -3869.2914 2673.5748 C -3869.2914 2677.993 -3872.873 2681.5748 -3877.2914 2681.5748 L -4031.37 2681.5748 C -4035.7884 2681.5748 -4039.37 2677.993 -4039.37 2673.5748 L -4039.37 2624.378 C -4039.37 2619.9597 -4035.7884 2616.378 -4031.37 2616.378 Z" fill="#ffffc0"/>
        <path d="M -4031.37 2616.378 L -3877.2914 2616.378 C -3872.873 2616.378 -3869.2914 2619.9597 -3869.2914 2624.378 L -3869.2914 2673.5748 C -3869.2914 2677.993 -3872.873 2681.5748 -3877.2914 2681.5748 L -4031.37 2681.5748 C -4035.7884 2681.5748 -4039.37 2677.993 -4039.37 2673.5748 L -4039.37 2624.378 C -4039.37 2619.9597 -4035.7884 2616.378 -4031.37 2616.378 Z" stroke="gray" stroke-linecap="round" stroke-linejoin="round" stroke-width="1"/>
        <text transform="translate(-4034.37 2630.5284)" fill="black">
          <tspan font-family="Helvetica Neue" font-size="16" fill="black" x="17.071368" y="15">Watch for Control </tspan>
          <tspan font-family="Helvetica Neue" font-size="16" fill="black" x="46.55937" y="33.448">Plane CR</tspan>
        </text>
      </g>
      <g id="Line_12">
        <line x1="-4057.7953" y1="2535.5906" x2="-3853.845" y2="2535.5906" marker-end="url(#FilledArrow_Marker)" stroke="black" stroke-linecap="round" stroke-linejoin="round" stroke-width="2"/>
      </g>
      <g id="Line_14">
        <line x1="-4085.079" y1="2507.244" x2="-4015.2647" y2="2461.8366" marker-end="url(#FilledArrow_Marker)" stroke="black" stroke-linecap="round" stroke-linejoin="round" stroke-width="2"/>
      </g>
      <g id="Line_15">
        <line x1="-4085.079" y1="2563.937" x2="-4015.2647" y2="2609.3445" marker-end="url(#FilledArrow_Marker)" stroke="black" stroke-linecap="round" stroke-linejoin="round" stroke-width="2"/>
      </g>
      <g id="Graphic_16">
        <text transform="translate(-3986.312 2512.244)" fill="black">
          <tspan font-family="Helvetica Neue" font-size="16" fill="black" x="7105427e-19" y="15">Configure</tspan>
        </text>
      </g>
      <g id="Graphic_17">
        <text transform="translate(-3776.805 2365.1422)" fill="black">
          <tspan font-family="Helvetica Neue" font-weight="bold" font-size="16" fill="black" x="0" y="16">Control Plane Components</tspan>
        </text>
      </g>
      <g id="Graphic_19">
        <text transform="translate(-3968.7393 2312.7013)" fill="black">
          <tspan font-family="Helvetica Neue" font-size="20" fill="black" x="7105427e-20" y="20">Control Plane Namespace</tspan>
        </text>
      </g>
      <g id="Graphic_21">
        <path d="M -3813.1024 2862.6925 L -3715.7166 2862.6925 C -3711.2983 2862.6925 -3707.7166 2866.2742 -3707.7166 2870.6925 L -3707.7166 2911.3854 C -3707.7166 2915.8037 -3711.2983 2919.3854 -3715.7166 2919.3854 L -3813.1024 2919.3854 C -3817.5207 2919.3854 -3821.1024 2915.8037 -3821.1024 2911.3854 L -3821.1024 2870.6925 C -3821.1024 2866.2742 -3817.5207 2862.6925 -3813.1024 2862.6925 Z" fill="#333"/>
        <text transform="translate(-3816.1024 2881.307)" fill="white">
          <tspan font-family="Helvetica Neue" font-weight="bold" font-size="16" fill="white" x="34.804913" y="16">tsbd</tspan>
        </text>
      </g>
      <g id="Graphic_20">
        <path d="M -3631.685 2862.6925 L -3534.2992 2862.6925 C -3529.881 2862.6925 -3526.2992 2866.2742 -3526.2992 2870.6925 L -3526.2992 2911.3854 C -3526.2992 2915.8037 -3529.881 2919.3854 -3534.2992 2919.3854 L -3631.685 2919.3854 C -3636.1034 2919.3854 -3639.685 2915.8037 -3639.685 2911.3854 L -3639.685 2870.6925 C -3639.685 2866.2742 -3636.1034 2862.6925 -3631.685 2862.6925 Z" fill="#333"/>
        <text transform="translate(-3634.685 2881.307)" fill="white">
          <tspan font-family="Helvetica Neue" font-weight="bold" font-size="16" fill="white" x="18.084913" y="16">collector</tspan>
        </text>
      </g>
      <g id="Graphic_22">
        <path d="M -3813.1024 2947.732 L -3634.929 2947.732 C -3630.511 2947.732 -3626.929 2951.3136 -3626.929 2955.732 L -3626.929 2996.4248 C -3626.929 3000.843 -3630.511 3004.4248 -3634.929 3004.4248 L -3813.1024 3004.4248 C -3817.5207 3004.4248 -3821.1024 3000.843 -3821.1024 2996.4248 L -3821.1024 2955.732 C -3821.1024 2951.3136 -3817.5207 2947.732 -3813.1024 2947.732 Z" fill="#333"/>
        <text transform="translate(-3816.1024 2956.6142)" fill="white">
          <tspan font-family="Helvetica Neue" font-weight="bold" font-size="16" fill="white" x="48.534617" y="16">vmgateway</tspan>
          <tspan font-family="Helvetica Neue" font-weight="bold" font-size="16" fill="white" x="25.878617" y="35.46411">(IngressGateway)</tspan>
        </text>
      </g>
      <g id="Graphic_24">
        <text transform="translate(-3741.381 2822.6378)" fill="black">
          <tspan font-family="Helvetica Neue" font-weight="bold" font-size="16" fill="black" x="2842171e-19" y="16">Istio Components</tspan>
        </text>
      </g>
      <g id="Graphic_25">
        <path d="M -4021.449 2939.228 L -3867.37 2939.228 C -3862.952 2939.228 -3859.37 2942.8096 -3859.37 2947.228 L -3859.37 2996.4248 C -3859.37 3000.843 -3862.952 3004.4248 -3867.37 3004.4248 L -4021.449 3004.4248 C -4025.867 3004.4248 -4029.449 3000.843 -4029.449 2996.4248 L -4029.449 2947.228 C -4029.449 2942.8096 -4025.867 2939.228 -4021.449 2939.228 Z" fill="#ffffc0"/>
        <path d="M -4021.449 2939.228 L -3867.37 2939.228 C -3862.952 2939.228 -3859.37 2942.8096 -3859.37 2947.228 L -3859.37 2996.4248 C -3859.37 3000.843 -3862.952 3004.4248 -3867.37 3004.4248 L -4021.449 3004.4248 C -4025.867 3004.4248 -4029.449 3000.843 -4029.449 2996.4248 L -4029.449 2947.228 C -4029.449 2942.8096 -4025.867 2939.228 -4021.449 2939.228 Z" stroke="gray" stroke-linecap="round" stroke-linejoin="round" stroke-width="1"/>
        <text transform="translate(-4024.449 2944.1543)" fill="black">
          <tspan font-family="Helvetica Neue" font-size="16" fill="black" x="45.51937" y="15">Watch for </tspan>
          <tspan font-family="Helvetica Neue" font-size="16" fill="black" x="19.743368" y="33.448">IstioOperator CR</tspan>
          <tspan font-family="Helvetica Neue" font-size="16" fill="black" x="2.5513677" y="51.895996">(tsb-istiocontrolplane)</tspan>
        </text>
      </g>
      <g id="Line_26">
        <line x1="-4057.7953" y1="2891.039" x2="-3834.0024" y2="2891.039" marker-end="url(#FilledArrow_Marker)" stroke="black" stroke-linecap="round" stroke-linejoin="round" stroke-width="2"/>
      </g>
      <g id="Line_27">
        <line x1="-4064.321" y1="2919.2498" x2="-4030.571" y2="2934.0478" marker-end="url(#FilledArrow_Marker)" stroke="black" stroke-linecap="round" stroke-linejoin="round" stroke-width="2"/>
      </g>
      <g id="Graphic_29">
        <text transform="translate(-3979.2255 2867.6925)" fill="black">
          <tspan font-family="Helvetica Neue" font-size="16" fill="black" x="7105427e-19" y="15">Configure</tspan>
        </text>
      </g>
      <g id="Graphic_31">
        <text transform="translate(-3996.7193 2779.9627)" fill="black">
          <tspan font-family="Helvetica Neue" font-size="20" fill="black" x="0" y="20">Istio (Control Plane Namespace)</tspan>
        </text>
      </g>
      <g id="Line_32">
        <path d="M -3771.1305 2656.063 C -3783.251 2667.3638 -3807.065 2682.3023 -3852 2701.3333 C -3964.9434 2749.1677 -4163.535 2748.754 -4195.2166 2797.3617" marker-end="url(#FilledArrow_Marker)" stroke="black" stroke-linecap="round" stroke-linejoin="round" stroke-width="2"/>
      </g>
    </g>
  </g>
</svg>
