<?xml version="1.0" encoding="UTF-8" standalone="no"?>
<!DOCTYPE svg PUBLIC "-//W3C//DTD SVG 1.1//EN" "http://www.w3.org/Graphics/SVG/1.1/DTD/svg11.dtd">
<svg xmlns="http://www.w3.org/2000/svg" xmlns:xl="http://www.w3.org/1999/xlink" version="1.1" xmlns:dc="http://purl.org/dc/elements/1.1/" viewBox="901 785 606 347" width="606" height="347">
  <defs>
    <marker orient="auto" overflow="visible" markerUnits="strokeWidth" id="FilledArrow_Marker" stroke-linejoin="miter" stroke-miterlimit="10" viewBox="-1 -3 6 6" markerWidth="6" markerHeight="6" color="black">
      <g>
        <path d="M 3.2 0 L 0 -1.2 L 0 1.2 Z" fill="currentColor" stroke="currentColor" stroke-width="1"/>
      </g>
    </marker>
    <marker orient="auto" overflow="visible" markerUnits="strokeWidth" id="FilledArrow_Marker_2" stroke-linejoin="miter" stroke-miterlimit="10" viewBox="-1 -3 7 6" markerWidth="7" markerHeight="6" color="black">
      <g>
        <path d="M 4.8 0 L 0 -1.8 L 0 1.8 Z" fill="currentColor" stroke="currentColor" stroke-width="1"/>
      </g>
    </marker>
  </defs>
  <g id="gateway-deploy-vs-config" stroke="none" stroke-opacity="1" stroke-dasharray="none" fill-opacity="1" fill="none">
    <title>gateway-deploy-vs-config</title>
    <rect fill="white" x="901" y="785" width="606" height="347"/>
    <g id="gateway-deploy-vs-config_Layer_1">
      <title>Layer 1</title>
      <g id="Graphic_14"/>
      <g id="Graphic_13">
        <path d="M 927.1579 810 L 1119.5044 810 C 1123.9227 810 1127.5044 813.5817 1127.5044 818 L 1127.5044 871.4488 C 1127.5044 875.8671 1123.9227 879.4488 1119.5044 879.4488 L 927.1579 879.4488 C 922.7397 879.4488 919.1579 875.8671 919.1579 871.4488 L 919.1579 818 C 919.1579 813.5817 922.7397 810 927.1579 810 Z" fill="#f15623"/>
        <text transform="translate(924.1579 834.9924)" fill="white">
          <tspan font-family="Helvetica Neue" font-weight="bold" font-size="16" fill="white" x="22.125233" y="16">TSB Gateway Group</tspan>
        </text>
      </g>
      <g id="Graphic_12">
        <path d="M 927.1579 923.3858 L 1119.5044 923.3858 C 1123.9227 923.3858 1127.5044 926.9676 1127.5044 931.3858 L 1127.5044 984.8347 C 1127.5044 989.2529 1123.9227 992.8347 1119.5044 992.8347 L 927.1579 992.8347 C 922.7397 992.8347 919.1579 989.2529 919.1579 984.8347 L 919.1579 931.3858 C 919.1579 926.9676 922.7397 923.3858 927.1579 923.3858 Z" fill="#0a55a8"/>
        <text transform="translate(924.1579 948.3782)" fill="white">
          <tspan font-family="Helvetica Neue" font-weight="bold" font-size="16" fill="white" x="21.413233" y="16">Istio Gateway Group</tspan>
        </text>
      </g>
      <g id="Graphic_11">
        <path d="M 927.1579 1036.7717 L 1119.5044 1036.7717 C 1123.9227 1036.7717 1127.5044 1040.3534 1127.5044 1044.7717 L 1127.5044 1098.2205 C 1127.5044 1102.6388 1123.9227 1106.2205 1119.5044 1106.2205 L 927.1579 1106.2205 C 922.7397 1106.2205 919.1579 1102.6388 919.1579 1098.2205 L 919.1579 1044.7717 C 919.1579 1040.3534 922.7397 1036.7717 927.1579 1036.7717 Z" fill="#8080ff"/>
        <text transform="translate(924.1579 1052.032)" fill="white">
          <tspan font-family="Helvetica Neue" font-weight="bold" font-size="16" fill="white" x="54.87723" y="16">Kubernetes</tspan>
          <tspan font-family="Helvetica Neue" font-weight="bold" font-size="16" fill="white" x="37.837233" y="35.46411"> Gateway Group</tspan>
        </text>
      </g>
      <g id="Graphic_10">
        <path d="M 1291.4099 923.3858 L 1483.7564 923.3858 C 1488.1746 923.3858 1491.7564 926.9676 1491.7564 931.3858 L 1491.7564 984.8347 C 1491.7564 989.2529 1488.1746 992.8347 1483.7564 992.8347 L 1291.4099 992.8347 C 1286.9916 992.8347 1283.4099 989.2529 1283.4099 984.8347 L 1283.4099 931.3858 C 1283.4099 926.9676 1286.9916 923.3858 1291.4099 923.3858 Z" fill="fuchsia"/>
        <text transform="translate(1288.4099 938.6461)" fill="white">
          <tspan font-family="Helvetica Neue" font-weight="bold" font-size="16" fill="white" x="17.709233" y="16">Gateway Deployment </tspan>
          <tspan font-family="Helvetica Neue" font-weight="bold" font-size="16" fill="white" x="71.30923" y="35.46411">(Envoy)</tspan>
        </text>
      </g>
      <g id="Graphic_9">
        <text transform="translate(1343.8311 834.9924)" fill="black">
          <tspan font-family="Helvetica Neue" font-weight="bold" font-size="16" fill="black" x="40500936e-20" y="16">User Traffic</tspan>
        </text>
      </g>
      <g id="Line_8">
        <line x1="1387.5831" y1="859.4565" x2="1387.5831" y2="904.4858" marker-end="url(#FilledArrow_Marker)" stroke="black" stroke-linecap="round" stroke-linejoin="round" stroke-width="4"/>
      </g>
      <g id="Line_7">
        <path d="M 1127.5044 857.8612 C 1138.6515 861.0786 1150.0971 865.0571 1161.5162 869.9724 C 1230.1284 899.5064 1201.4703 924.0026 1265.5162 948.9724 C 1267.3919 949.7037 1269.2625 950.4 1271.1266 951.0628" marker-end="url(#FilledArrow_Marker_2)" stroke="black" stroke-linecap="round" stroke-linejoin="round" stroke-dasharray="8.0,8.0" stroke-width="2"/>
      </g>
      <g id="Line_6">
        <path d="M 1127.5044 1065.1049 C 1139.0146 1062.1171 1150.8112 1058.1637 1162.5162 1052.9724 C 1230.5618 1022.7938 1199.7536 991.8474 1263.5162 964.9724 C 1266.0646 963.8983 1268.6075 962.8991 1271.1412 961.9705" marker-end="url(#FilledArrow_Marker_2)" stroke="black" stroke-linecap="round" stroke-linejoin="round" stroke-dasharray="8.0,8.0" stroke-width="2"/>
      </g>
      <g id="Line_5">
        <line x1="1127.5044" y1="958.1102" x2="1270.5099" y2="958.1102" marker-end="url(#FilledArrow_Marker_2)" stroke="black" stroke-linecap="round" stroke-linejoin="round" stroke-dasharray="8.0,8.0" stroke-width="2"/>
      </g>
      <g id="Graphic_4">
        <text transform="translate(1204.7438 871.6929)" fill="black">
          <tspan font-family="Helvetica Neue" font-weight="bold" font-size="16" fill="black" x="0" y="16">Configures</tspan>
        </text>
      </g>
      <g id="Graphic_3"/>
      <g id="Line_2">
        <line x1="1387.5831" y1="992.8347" x2="1387.5831" y2="1037.864" marker-end="url(#FilledArrow_Marker)" stroke="black" stroke-linecap="round" stroke-linejoin="round" stroke-width="4"/>
      </g>
    </g>
  </g>
</svg>
