<?xml version="1.0" encoding="UTF-8" standalone="no"?>
<!DOCTYPE svg PUBLIC "-//W3C//DTD SVG 1.1//EN" "http://www.w3.org/Graphics/SVG/1.1/DTD/svg11.dtd">
<svg xmlns:dc="http://purl.org/dc/elements/1.1/" version="1.1" xmlns="http://www.w3.org/2000/svg" xmlns:xl="http://www.w3.org/1999/xlink" viewBox="-3810 2794 1101 819" width="1101" height="819">
  <defs>
    <linearGradient x1="0" x2="1" id="Gradient" gradientUnits="userSpaceOnUse">
      <stop offset="0" stop-color="#4387fd"/>
      <stop offset="1" stop-color="#4683ea"/>
    </linearGradient>
    <linearGradient id="Obj_Gradient" xl:href="#Gradient" gradientTransform="translate(-3794.1733 2830.47) scale(39.68504)"/>
    <linearGradient id="Obj_Gradient_2" xl:href="#Gradient" gradientTransform="translate(-3337.7953 2830.47) scale(39.68504)"/>
    <linearGradient id="Obj_Gradient_3" xl:href="#Gradient" gradientTransform="translate(-3794.1733 3248.7384) scale(39.68504)"/>
    <linearGradient id="Obj_Gradient_4" xl:href="#Gradient" gradientTransform="translate(-3337.7953 3248.7384) scale(39.68504)"/>
    <marker orient="auto" overflow="visible" markerUnits="strokeWidth" id="FilledArrow_Marker" stroke-linejoin="miter" stroke-miterlimit="10" viewBox="-1 -3 7 6" markerWidth="7" markerHeight="6" color="black">
      <g>
        <path d="M 4.8 0 L 0 -1.8 L 0 1.8 Z" fill="currentColor" stroke="currentColor" stroke-width="1"/>
      </g>
    </marker>
  </defs>
  <g id="unified-gateway-scenario-5" fill-opacity="1" stroke-dasharray="none" stroke="none" stroke-opacity="1" fill="none">
    <title>unified-gateway-scenario-5</title>
    <rect fill="white" x="-3810" y="2794" width="1101" height="819"/>
    <g id="unified-gateway-scenario-5_Layer_1">
      <title>Layer 1</title>
      <g id="Graphic_70"/>
      <g id="Graphic_9">
        <rect x="-2959.37" y="3231.0756" width="222.5197" height="324.40863" stroke="gray" stroke-linecap="round" stroke-linejoin="round" stroke-width="1"/>
      </g>
      <g id="Graphic_69">
        <path d="M -3776.252 2829.815 L -3484.693 2829.815 C -3480.2747 2829.815 -3476.693 2833.3967 -3476.693 2837.815 L -3476.693 3129.374 C -3476.693 3133.7923 -3480.2747 3137.374 -3484.693 3137.374 L -3776.252 3137.374 C -3780.6703 3137.374 -3784.252 3133.7923 -3784.252 3129.374 L -3784.252 2837.815 C -3784.252 2833.3967 -3780.6703 2829.815 -3776.252 2829.815 Z" fill="#ccc"/>
        <text transform="translate(-3779.252 2834.815)" fill="black">
          <tspan font-family="Helvetica Neue" font-size="16" fill="black" x="57.931526" y="16">gke-jimmy-us-central1-1</tspan>
        </text>
      </g>
      <g id="Graphic_68">
        <path d="M -3319.1654 2829.815 L -3027.6063 2829.815 C -3023.188 2829.815 -3019.6063 2833.3967 -3019.6063 2837.815 L -3019.6063 3129.374 C -3019.6063 3133.7923 -3023.188 3137.374 -3027.6063 3137.374 L -3319.1654 3137.374 C -3323.5837 3137.374 -3327.1654 3133.7923 -3327.1654 3129.374 L -3327.1654 2837.815 C -3327.1654 2833.3967 -3323.5837 2829.815 -3319.1654 2829.815 Z" fill="#ccc"/>
        <text transform="translate(-3322.1654 2834.815)" fill="black">
          <tspan font-family="Helvetica Neue" font-size="16" fill="black" x="65.787526" y="16">gke-jimmy-us-west1-1</tspan>
        </text>
      </g>
      <g id="Graphic_67">
        <path d="M -3319.1654 3243.6732 L -3027.6063 3243.6732 C -3023.188 3243.6732 -3019.6063 3247.255 -3019.6063 3251.6732 L -3019.6063 3543.2323 C -3019.6063 3547.6506 -3023.188 3551.2323 -3027.6063 3551.2323 L -3319.1654 3551.2323 C -3323.5837 3551.2323 -3327.1654 3547.6506 -3327.1654 3543.2323 L -3327.1654 3251.6732 C -3327.1654 3247.255 -3323.5837 3243.6732 -3319.1654 3243.6732 Z" fill="#ccc"/>
        <text transform="translate(-3322.1654 3248.6732)" fill="black">
          <tspan font-family="Helvetica Neue" font-size="16" fill="black" x="65.787526" y="16">gke-jimmy-us-west1-2</tspan>
        </text>
      </g>
      <g id="Graphic_66">
        <path d="M -3776.252 3243.6732 L -3484.693 3243.6732 C -3480.2747 3243.6732 -3476.693 3247.255 -3476.693 3251.6732 L -3476.693 3543.2323 C -3476.693 3547.6506 -3480.2747 3551.2323 -3484.693 3551.2323 L -3776.252 3551.2323 C -3780.6703 3551.2323 -3784.252 3547.6506 -3784.252 3543.2323 L -3784.252 3251.6732 C -3784.252 3247.255 -3780.6703 3243.6732 -3776.252 3243.6732 Z" fill="#ccc"/>
        <text transform="translate(-3779.252 3248.6732)" fill="black">
          <tspan font-family="Helvetica Neue" font-size="16" fill="black" x="65.787526" y="16">gke-jimmy-us-west2-3</tspan>
        </text>
      </g>
      <g id="Graphic_65">
        <path d="M -3761.191 2872.8732 L -3499.754 2872.8732 C -3495.3355 2872.8732 -3491.754 2876.455 -3491.754 2880.8732 L -3491.754 3117.0717 C -3491.754 3121.49 -3495.3355 3125.0717 -3499.754 3125.0717 L -3761.191 3125.0717 C -3765.6094 3125.0717 -3769.191 3121.49 -3769.191 3117.0717 L -3769.191 2880.8732 C -3769.191 2876.455 -3765.6094 2872.8732 -3761.191 2872.8732 Z" fill="#ececec"/>
        <path d="M -3761.191 2872.8732 L -3499.754 2872.8732 C -3495.3355 2872.8732 -3491.754 2876.455 -3491.754 2880.8732 L -3491.754 3117.0717 C -3491.754 3121.49 -3495.3355 3125.0717 -3499.754 3125.0717 L -3761.191 3125.0717 C -3765.6094 3125.0717 -3769.191 3121.49 -3769.191 3117.0717 L -3769.191 2880.8732 C -3769.191 2876.455 -3765.6094 2872.8732 -3761.191 2872.8732 Z" stroke="#f15623" stroke-linecap="round" stroke-linejoin="round" stroke-dasharray="8.0,8.0" stroke-width="2"/>
        <text transform="translate(-3764.191 2877.8732)" fill="#f15623">
          <tspan font-family="Helvetica Neue" font-size="14" fill="#f15623" x="95.33764" y="13">Tenant: tier1</tspan>
          <tspan font-family="Helvetica Neue" font-size="14" fill="#f15623" x="81.09264" y="29.392">Workspace: tier1</tspan>
          <tspan font-family="Helvetica Neue" font-size="14" fill="#f15623" x="89.77964" y="45.783997">Network: tier1</tspan>
        </text>
      </g>
      <g id="Graphic_64">
        <path d="M -3743.672 2929.0276 L -3517.273 2929.0276 C -3512.855 2929.0276 -3509.273 2932.6093 -3509.273 2937.0276 L -3509.273 3101.0276 C -3509.273 3105.446 -3512.855 3109.0276 -3517.273 3109.0276 L -3743.672 3109.0276 C -3748.09 3109.0276 -3751.672 3105.446 -3751.672 3101.0276 L -3751.672 2937.0276 C -3751.672 2932.6093 -3748.09 2929.0276 -3743.672 2929.0276 Z" fill="white"/>
        <path d="M -3743.672 2929.0276 L -3517.273 2929.0276 C -3512.855 2929.0276 -3509.273 2932.6093 -3509.273 2937.0276 L -3509.273 3101.0276 C -3509.273 3105.446 -3512.855 3109.0276 -3517.273 3109.0276 L -3743.672 3109.0276 C -3748.09 3109.0276 -3751.672 3105.446 -3751.672 3101.0276 L -3751.672 2937.0276 C -3751.672 2932.6093 -3748.09 2929.0276 -3743.672 2929.0276 Z" stroke="gray" stroke-linecap="round" stroke-linejoin="round" stroke-width="1"/>
        <text transform="translate(-3746.672 2939.0276)" fill="black">
          <tspan font-family="Helvetica Neue" font-size="16" fill="black" x="53.22337" y="15">Namespace: tier1</tspan>
        </text>
      </g>
      <g id="Graphic_62">
        <path d="M -3304.1045 2872.8732 L -3042.6672 2872.8732 C -3038.249 2872.8732 -3034.6672 2876.455 -3034.6672 2880.8732 L -3034.6672 3117.0717 C -3034.6672 3121.49 -3038.249 3125.0717 -3042.6672 3125.0717 L -3304.1045 3125.0717 C -3308.5228 3125.0717 -3312.1045 3121.49 -3312.1045 3117.0717 L -3312.1045 2880.8732 C -3312.1045 2876.455 -3308.5228 2872.8732 -3304.1045 2872.8732 Z" fill="#ececec"/>
        <path d="M -3304.1045 2872.8732 L -3042.6672 2872.8732 C -3038.249 2872.8732 -3034.6672 2876.455 -3034.6672 2880.8732 L -3034.6672 3117.0717 C -3034.6672 3121.49 -3038.249 3125.0717 -3042.6672 3125.0717 L -3304.1045 3125.0717 C -3308.5228 3125.0717 -3312.1045 3121.49 -3312.1045 3117.0717 L -3312.1045 2880.8732 C -3312.1045 2876.455 -3308.5228 2872.8732 -3304.1045 2872.8732 Z" stroke="#f15623" stroke-linecap="round" stroke-linejoin="round" stroke-dasharray="8.0,8.0" stroke-width="2"/>
        <text transform="translate(-3307.1045 2877.8732)" fill="#f15623">
          <tspan font-family="Helvetica Neue" font-size="14" fill="#f15623" x="81.84164" y="13">Tenant: payment</tspan>
          <tspan font-family="Helvetica Neue" font-size="14" fill="#f15623" x="61.25464" y="29.392">Workspace: httpbin-ws</tspan>
          <tspan font-family="Helvetica Neue" font-size="14" fill="#f15623" x="65.65764" y="45.783997">Network: cp-cluster-1</tspan>
        </text>
      </g>
      <g id="Graphic_61">
        <path d="M -3286.5852 2929.0276 L -3060.1865 2929.0276 C -3055.7682 2929.0276 -3052.1865 2932.6093 -3052.1865 2937.0276 L -3052.1865 3101.0276 C -3052.1865 3105.446 -3055.7682 3109.0276 -3060.1865 3109.0276 L -3286.5852 3109.0276 C -3291.0035 3109.0276 -3294.5852 3105.446 -3294.5852 3101.0276 L -3294.5852 2937.0276 C -3294.5852 2932.6093 -3291.0035 2929.0276 -3286.5852 2929.0276 Z" fill="white"/>
        <path d="M -3286.5852 2929.0276 L -3060.1865 2929.0276 C -3055.7682 2929.0276 -3052.1865 2932.6093 -3052.1865 2937.0276 L -3052.1865 3101.0276 C -3052.1865 3105.446 -3055.7682 3109.0276 -3060.1865 3109.0276 L -3286.5852 3109.0276 C -3291.0035 3109.0276 -3294.5852 3105.446 -3294.5852 3101.0276 L -3294.5852 2937.0276 C -3294.5852 2932.6093 -3291.0035 2929.0276 -3286.5852 2929.0276 Z" stroke="gray" stroke-linecap="round" stroke-linejoin="round" stroke-width="1"/>
        <text transform="translate(-3289.5852 2939.0276)" fill="black">
          <tspan font-family="Helvetica Neue" font-size="16" fill="black" x="43.72737" y="15">Namespace: httpbin</tspan>
        </text>
      </g>
      <g id="Graphic_59">
        <path d="M -3304.1045 3286.7315 L -3042.6672 3286.7315 C -3038.249 3286.7315 -3034.6672 3290.3132 -3034.6672 3294.7315 L -3034.6672 3530.93 C -3034.6672 3535.3482 -3038.249 3538.93 -3042.6672 3538.93 L -3304.1045 3538.93 C -3308.5228 3538.93 -3312.1045 3535.3482 -3312.1045 3530.93 L -3312.1045 3294.7315 C -3312.1045 3290.3132 -3308.5228 3286.7315 -3304.1045 3286.7315 Z" fill="#ececec"/>
        <path d="M -3304.1045 3286.7315 L -3042.6672 3286.7315 C -3038.249 3286.7315 -3034.6672 3290.3132 -3034.6672 3294.7315 L -3034.6672 3530.93 C -3034.6672 3535.3482 -3038.249 3538.93 -3042.6672 3538.93 L -3304.1045 3538.93 C -3308.5228 3538.93 -3312.1045 3535.3482 -3312.1045 3530.93 L -3312.1045 3294.7315 C -3312.1045 3290.3132 -3308.5228 3286.7315 -3304.1045 3286.7315 Z" stroke="#f15623" stroke-linecap="round" stroke-linejoin="round" stroke-dasharray="8.0,8.0" stroke-width="2"/>
        <text transform="translate(-3307.1045 3291.7315)" fill="#f15623">
          <tspan font-family="Helvetica Neue" font-size="14" fill="#f15623" x="81.84164" y="13">Tenant: payment</tspan>
          <tspan font-family="Helvetica Neue" font-size="14" fill="#f15623" x="61.25464" y="29.392">Workspace: httpbin-ws</tspan>
          <tspan font-family="Helvetica Neue" font-size="14" fill="#f15623" x="65.65764" y="45.783997">Network: cp-cluster-2</tspan>
        </text>
      </g>
      <g id="Graphic_58">
        <path d="M -3286.5852 3342.886 L -3060.1865 3342.886 C -3055.7682 3342.886 -3052.1865 3346.4676 -3052.1865 3350.886 L -3052.1865 3514.886 C -3052.1865 3519.304 -3055.7682 3522.886 -3060.1865 3522.886 L -3286.5852 3522.886 C -3291.0035 3522.886 -3294.5852 3519.304 -3294.5852 3514.886 L -3294.5852 3350.886 C -3294.5852 3346.4676 -3291.0035 3342.886 -3286.5852 3342.886 Z" fill="white"/>
        <path d="M -3286.5852 3342.886 L -3060.1865 3342.886 C -3055.7682 3342.886 -3052.1865 3346.4676 -3052.1865 3350.886 L -3052.1865 3514.886 C -3052.1865 3519.304 -3055.7682 3522.886 -3060.1865 3522.886 L -3286.5852 3522.886 C -3291.0035 3522.886 -3294.5852 3519.304 -3294.5852 3514.886 L -3294.5852 3350.886 C -3294.5852 3346.4676 -3291.0035 3342.886 -3286.5852 3342.886 Z" stroke="gray" stroke-linecap="round" stroke-linejoin="round" stroke-width="1"/>
        <text transform="translate(-3289.5852 3352.886)" fill="black">
          <tspan font-family="Helvetica Neue" font-size="16" fill="black" x="43.72737" y="15">Namespace: httpbin</tspan>
        </text>
      </g>
      <g id="Graphic_57">
        <path d="M -3761.191 3286.7315 L -3499.754 3286.7315 C -3495.3355 3286.7315 -3491.754 3290.3132 -3491.754 3294.7315 L -3491.754 3530.93 C -3491.754 3535.3482 -3495.3355 3538.93 -3499.754 3538.93 L -3761.191 3538.93 C -3765.6094 3538.93 -3769.191 3535.3482 -3769.191 3530.93 L -3769.191 3294.7315 C -3769.191 3290.3132 -3765.6094 3286.7315 -3761.191 3286.7315 Z" fill="#ececec"/>
        <path d="M -3761.191 3286.7315 L -3499.754 3286.7315 C -3495.3355 3286.7315 -3491.754 3290.3132 -3491.754 3294.7315 L -3491.754 3530.93 C -3491.754 3535.3482 -3495.3355 3538.93 -3499.754 3538.93 L -3761.191 3538.93 C -3765.6094 3538.93 -3769.191 3535.3482 -3769.191 3530.93 L -3769.191 3294.7315 C -3769.191 3290.3132 -3765.6094 3286.7315 -3761.191 3286.7315 Z" stroke="#f15623" stroke-linecap="round" stroke-linejoin="round" stroke-dasharray="8.0,8.0" stroke-width="2"/>
        <text transform="translate(-3764.191 3291.7315)" fill="#f15623">
          <tspan font-family="Helvetica Neue" font-size="14" fill="#f15623" x="77.95664" y="13">Tenant: marketing</tspan>
          <tspan font-family="Helvetica Neue" font-size="14" fill="#f15623" x="57.75464" y="29.392">Workspace: httpsbin-ws</tspan>
          <tspan font-family="Helvetica Neue" font-size="14" fill="#f15623" x="65.65764" y="45.783997">Network: cp-cluster-3</tspan>
        </text>
      </g>
      <g id="Graphic_56">
        <path d="M -3743.672 3342.886 L -3517.273 3342.886 C -3512.855 3342.886 -3509.273 3346.4676 -3509.273 3350.886 L -3509.273 3514.886 C -3509.273 3519.304 -3512.855 3522.886 -3517.273 3522.886 L -3743.672 3522.886 C -3748.09 3522.886 -3751.672 3519.304 -3751.672 3514.886 L -3751.672 3350.886 C -3751.672 3346.4676 -3748.09 3342.886 -3743.672 3342.886 Z" fill="white"/>
        <path d="M -3743.672 3342.886 L -3517.273 3342.886 C -3512.855 3342.886 -3509.273 3346.4676 -3509.273 3350.886 L -3509.273 3514.886 C -3509.273 3519.304 -3512.855 3522.886 -3517.273 3522.886 L -3743.672 3522.886 C -3748.09 3522.886 -3751.672 3519.304 -3751.672 3514.886 L -3751.672 3350.886 C -3751.672 3346.4676 -3748.09 3342.886 -3743.672 3342.886 Z" stroke="gray" stroke-linecap="round" stroke-linejoin="round" stroke-width="1"/>
        <text transform="translate(-3746.672 3352.886)" fill="black">
          <tspan font-family="Helvetica Neue" font-size="16" fill="black" x="37.65537" y="15">Namespace: some-ns</tspan>
        </text>
      </g>
      <g id="Graphic_55">
        <path d="M -3240.504 2983.4646 L -3106.2677 2983.4646 C -3101.8495 2983.4646 -3098.2677 2987.0463 -3098.2677 2991.4646 L -3098.2677 3015.1496 C -3098.2677 3019.568 -3101.8495 3023.1496 -3106.2677 3023.1496 L -3240.504 3023.1496 C -3244.9222 3023.1496 -3248.504 3019.568 -3248.504 3015.1496 L -3248.504 2991.4646 C -3248.504 2987.0463 -3244.9222 2983.4646 -3240.504 2983.4646 Z" fill="#0a55a8"/>
        <text transform="translate(-3243.504 2994.604)" fill="white">
          <tspan font-family="Helvetica Neue" font-size="14" fill="white" x="4.5141107" y="14">httpbin-external-svc</tspan>
        </text>
      </g>
      <g id="Graphic_50">
        <path d="M -3712.827 3388.2813 L -3548.118 3388.2813 C -3543.7 3388.2813 -3540.118 3391.863 -3540.118 3396.2813 L -3540.118 3497.919 C -3540.118 3502.3374 -3543.7 3505.919 -3548.118 3505.919 L -3712.827 3505.919 C -3717.245 3505.919 -3720.827 3502.3374 -3720.827 3497.919 L -3720.827 3396.2813 C -3720.827 3391.863 -3717.245 3388.2813 -3712.827 3388.2813 Z" fill="white"/>
        <path d="M -3712.827 3388.2813 L -3548.118 3388.2813 C -3543.7 3388.2813 -3540.118 3391.863 -3540.118 3396.2813 L -3540.118 3497.919 C -3540.118 3502.3374 -3543.7 3505.919 -3548.118 3505.919 L -3712.827 3505.919 C -3717.245 3505.919 -3720.827 3502.3374 -3720.827 3497.919 L -3720.827 3396.2813 C -3720.827 3391.863 -3717.245 3388.2813 -3712.827 3388.2813 Z" stroke="gray" stroke-linecap="round" stroke-linejoin="round" stroke-dasharray="4.0,4.0" stroke-width="1"/>
        <text transform="translate(-3715.827 3393.2813)" fill="black">
          <tspan font-family="Helvetica Neue" font-size="16" fill="black" x="47.71433" y="16">some-app</tspan>
        </text>
      </g>
      <g id="Graphic_49">
        <path d="M -3667.308 3427.2577 L -3593.637 3427.2577 C -3589.219 3427.2577 -3585.637 3430.8394 -3585.637 3435.2577 L -3585.637 3458.9427 C -3585.637 3463.361 -3589.219 3466.9427 -3593.637 3466.9427 L -3667.308 3466.9427 C -3671.726 3466.9427 -3675.308 3463.361 -3675.308 3458.9427 L -3675.308 3435.2577 C -3675.308 3430.8394 -3671.726 3427.2577 -3667.308 3427.2577 Z" fill="#333"/>
        <text transform="translate(-3670.308 3437.368)" fill="white">
          <tspan font-family="Helvetica Neue" font-size="16" fill="white" x="3.6673233" y="16">some-svc</tspan>
        </text>
      </g>
      <g id="Group_46">
        <g id="Graphic_48">
          <path d="M -3115.4498 3460.5236 L -3083.7647 3460.5236 C -3081.5556 3460.5236 -3079.7647 3462.3145 -3079.7647 3464.5236 L -3079.7647 3496.2087 C -3079.7647 3498.418 -3081.5556 3500.2087 -3083.7647 3500.2087 L -3115.4498 3500.2087 C -3117.659 3500.2087 -3119.4498 3498.418 -3119.4498 3496.2087 L -3119.4498 3464.5236 C -3119.4498 3462.3145 -3117.659 3460.5236 -3115.4498 3460.5236 Z" fill="#f15623"/>
        </g>
        <g id="Graphic_47">
          <path d="M -3102.5198 3495.3553 C -3104.8927 3492.9732 -3105.2425 3492.595 -3105.283 3492.3684 C -3105.4234 3491.5794 -3104.7597 3490.946 -3103.9513 3491.0978 C -3103.7315 3491.139 -3103.468 3491.3683 -3102.249 3492.5785 L -3100.8065 3494.0104 L -3100.8065 3485.7105 L -3100.8065 3477.4105 L -3104.9067 3481.51 L -3109.007 3485.6096 L -3107.0434 3485.6444 C -3105.12 3485.6784 -3105.0745 3485.6825 -3104.8112 3485.846 C -3104.5282 3486.022 -3104.284 3486.4437 -3104.284 3486.756 C -3104.284 3487.0686 -3104.5282 3487.4902 -3104.8112 3487.666 L -3105.08 3487.8332 L -3108.902 3487.8332 L -3112.7237 3487.8332 L -3112.7237 3483.9643 C -3112.7237 3480.165 -3112.721 3480.092 -3112.5804 3479.9036 C -3112.3106 3479.5423 -3112.085 3479.425 -3111.659 3479.425 C -3111.362 3479.425 -3111.2106 3479.4636 -3111.047 3479.58 C -3110.6245 3479.8817 -3110.6043 3480 -3110.6043 3482.1803 L -3110.6043 3484.15 L -3105.7054 3479.2515 L -3100.8065 3474.353 L -3100.8065 3471.7966 L -3100.8065 3469.2403 L -3101.1018 3469.113 C -3101.6742 3468.8657 -3102.3224 3468.2864 -3102.664 3467.7165 C -3103.126 3466.9457 -3103.2372 3465.787 -3102.932 3464.9217 C -3102.2423 3462.968 -3099.9516 3462.072 -3098.1373 3463.0457 C -3097.6746 3463.294 -3096.9677 3464.004 -3096.7446 3464.4444 C -3095.891 3466.1292 -3096.5154 3468.13 -3098.1658 3468.997 L -3098.6524 3469.253 L -3098.6524 3471.803 L -3098.6524 3474.353 L -3093.6492 3479.3557 L -3088.646 3484.3585 L -3088.646 3482.2835 C -3088.646 3480.2987 -3088.6397 3480.197 -3088.499 3479.9466 C -3088.2062 3479.426 -3087.5078 3479.235 -3087.0425 3479.5485 C -3086.9135 3479.6354 -3086.7366 3479.8124 -3086.6494 3479.9418 L -3086.491 3480.177 L -3086.5088 3484.005 L -3086.5268 3487.8332 L -3090.1054 3487.8535 C -3092.0736 3487.8647 -3093.8193 3487.8545 -3093.9848 3487.831 C -3094.193 3487.8015 -3094.369 3487.713 -3094.5574 3487.5427 C -3095.1604 3486.998 -3095.041 3486.2667 -3094.257 3485.7015 C -3094.2476 3485.6947 -3093.3876 3485.6712 -3092.346 3485.6494 L -3090.452 3485.6096 L -3094.5522 3481.51 L -3098.6524 3477.4105 L -3098.6524 3485.6787 L -3098.6524 3493.947 L -3097.28 3492.5785 C -3096.5252 3491.826 -3095.8196 3491.1773 -3095.712 3491.1373 C -3095.244 3490.963 -3094.716 3491.133 -3094.431 3491.551 C -3094.2386 3491.8327 -3094.2166 3492.405 -3094.3883 3492.6646 C -3094.511 3492.85 -3099.7044 3498.0827 -3099.766 3498.0827 C -3099.7863 3498.0827 -3101.0256 3496.8554 -3102.52 3495.3553 Z" fill="#333"/>
        </g>
      </g>
      <g id="Group_40">
        <g id="Graphic_42">
          <path d="M -3785.557 2846.3502 L -3793.6956 2832.2526 C -3794.3325 2831.1495 -3794.3325 2829.7906 -3793.6956 2828.6874 L -3785.557 2814.59 C -3784.92 2813.4867 -3783.7433 2812.807 -3782.4693 2812.807 L -3766.192 2812.807 C -3764.9185 2812.807 -3763.7416 2813.4867 -3763.1044 2814.59 L -3754.966 2828.6874 C -3754.329 2829.7906 -3754.329 2831.1495 -3754.966 2832.2526 L -3763.1044 2846.3502 C -3763.7413 2847.4533 -3764.918 2848.1326 -3766.192 2848.1326 L -3782.4693 2848.1326 C -3783.743 2848.1326 -3784.92 2847.453 -3785.5567 2846.3502" fill="url(#Obj_Gradient)"/>
        </g>
        <g id="Graphic_41">
          <path d="M -3766.5704 2825.507 L -3773.911 2821.2688 C -3774.17 2821.1193 -3774.489 2821.1193 -3774.7477 2821.2688 L -3782.0883 2825.507 C -3782.347 2825.6565 -3782.5065 2825.9327 -3782.5065 2826.2316 L -3782.5065 2834.7078 C -3782.5065 2835.0067 -3782.347 2835.283 -3782.0883 2835.4324 L -3774.7477 2839.6707 C -3774.489 2839.82 -3774.17 2839.82 -3773.911 2839.6707 L -3766.5704 2835.4324 C -3766.3115 2835.283 -3766.152 2835.0067 -3766.152 2834.7078 L -3766.152 2826.2316 C -3766.152 2825.9327 -3766.3115 2825.6565 -3766.5704 2825.507 M -3767.5774 2833.8968 L -3770.1384 2832.4182 L -3770.1384 2828.523 L -3773.9202 2830.7058 L -3773.9202 2835.0743 L -3770.5473 2833.127 L -3767.9864 2834.6055 L -3774.3295 2838.2677 L -3780.6726 2834.6055 L -3778.1117 2833.127 L -3774.7384 2835.0743 L -3774.7384 2830.7058 L -3778.5203 2828.523 L -3778.5203 2832.4182 L -3781.0813 2833.8968 L -3781.0813 2826.5723 L -3774.738 2822.91 L -3774.738 2825.8673 L -3778.1114 2827.8147 L -3774.3295 2829.9974 L -3770.5476 2827.8147 L -3773.9206 2825.8673 L -3773.9206 2822.91 L -3767.5774 2826.5723 L -3767.5774 2833.8968" fill="white"/>
        </g>
      </g>
      <g id="Group_37">
        <g id="Graphic_39">
          <path d="M -3329.179 2846.3502 L -3337.3177 2832.2526 C -3337.9545 2831.1495 -3337.9545 2829.7906 -3337.3177 2828.6874 L -3329.179 2814.59 C -3328.5423 2813.4867 -3327.3653 2812.807 -3326.0914 2812.807 L -3309.814 2812.807 C -3308.5405 2812.807 -3307.3636 2813.4867 -3306.7265 2814.59 L -3298.588 2828.6874 C -3297.951 2829.7906 -3297.951 2831.1495 -3298.588 2832.2526 L -3306.7265 2846.3502 C -3307.3633 2847.4533 -3308.5402 2848.1326 -3309.814 2848.1326 L -3326.0914 2848.1326 C -3327.365 2848.1326 -3328.542 2847.453 -3329.1788 2846.3502" fill="url(#Obj_Gradient_2)"/>
        </g>
        <g id="Graphic_38">
          <path d="M -3310.1924 2825.507 L -3317.533 2821.2688 C -3317.792 2821.1193 -3318.111 2821.1193 -3318.3698 2821.2688 L -3325.7103 2825.507 C -3325.9692 2825.6565 -3326.1286 2825.9327 -3326.1286 2826.2316 L -3326.1286 2834.7078 C -3326.1286 2835.0067 -3325.9692 2835.283 -3325.7103 2835.4324 L -3318.3698 2839.6707 C -3318.111 2839.82 -3317.792 2839.82 -3317.533 2839.6707 L -3310.1924 2835.4324 C -3309.9336 2835.283 -3309.774 2835.0067 -3309.774 2834.7078 L -3309.774 2826.2316 C -3309.774 2825.9327 -3309.9336 2825.6565 -3310.1924 2825.507 M -3311.1995 2833.8968 L -3313.7604 2832.4182 L -3313.7604 2828.523 L -3317.5423 2830.7058 L -3317.5423 2835.0743 L -3314.1693 2833.127 L -3311.6084 2834.6055 L -3317.9515 2838.2677 L -3324.2947 2834.6055 L -3321.7337 2833.127 L -3318.3605 2835.0743 L -3318.3605 2830.7058 L -3322.1424 2828.523 L -3322.1424 2832.4182 L -3324.7033 2833.8968 L -3324.7033 2826.5723 L -3318.36 2822.91 L -3318.36 2825.8673 L -3321.7334 2827.8147 L -3317.9515 2829.9974 L -3314.1697 2827.8147 L -3317.5426 2825.8673 L -3317.5426 2822.91 L -3311.1995 2826.5723 L -3311.1995 2833.8968" fill="white"/>
        </g>
      </g>
      <g id="Group_34">
        <g id="Graphic_36">
          <path d="M -3785.557 3264.6187 L -3793.6956 3250.521 C -3794.3325 3249.418 -3794.3325 3248.059 -3793.6956 3246.956 L -3785.557 3232.8584 C -3784.92 3231.7552 -3783.7433 3231.0756 -3782.4693 3231.0756 L -3766.192 3231.0756 C -3764.9185 3231.0756 -3763.7416 3231.7552 -3763.1044 3232.8584 L -3754.966 3246.956 C -3754.329 3248.059 -3754.329 3249.418 -3754.966 3250.521 L -3763.1044 3264.6187 C -3763.7413 3265.722 -3764.918 3266.401 -3766.192 3266.401 L -3782.4693 3266.401 C -3783.743 3266.401 -3784.92 3265.7216 -3785.5567 3264.6187" fill="url(#Obj_Gradient_3)"/>
        </g>
        <g id="Graphic_35">
          <path d="M -3766.5704 3243.7756 L -3773.911 3239.5373 C -3774.17 3239.388 -3774.489 3239.388 -3774.7477 3239.5373 L -3782.0883 3243.7756 C -3782.347 3243.925 -3782.5065 3244.2013 -3782.5065 3244.5 L -3782.5065 3252.9764 C -3782.5065 3253.2752 -3782.347 3253.5515 -3782.0883 3253.701 L -3774.7477 3257.9392 C -3774.489 3258.0886 -3774.17 3258.0886 -3773.911 3257.9392 L -3766.5704 3253.701 C -3766.3115 3253.5515 -3766.152 3253.2752 -3766.152 3252.9764 L -3766.152 3244.5 C -3766.152 3244.2013 -3766.3115 3243.925 -3766.5704 3243.7756 M -3767.5774 3252.1653 L -3770.1384 3250.6867 L -3770.1384 3246.7917 L -3773.9202 3248.9743 L -3773.9202 3253.343 L -3770.5473 3251.3955 L -3767.9864 3252.874 L -3774.3295 3256.5363 L -3780.6726 3252.874 L -3778.1117 3251.3955 L -3774.7384 3253.343 L -3774.7384 3248.9743 L -3778.5203 3246.7917 L -3778.5203 3250.6867 L -3781.0813 3252.1653 L -3781.0813 3244.841 L -3774.738 3241.1787 L -3774.738 3244.136 L -3778.1114 3246.0832 L -3774.3295 3248.266 L -3770.5476 3246.0832 L -3773.9206 3244.136 L -3773.9206 3241.1787 L -3767.5774 3244.841 L -3767.5774 3252.1653" fill="white"/>
        </g>
      </g>
      <g id="Group_31">
        <g id="Graphic_33">
          <path d="M -3329.179 3264.6187 L -3337.3177 3250.521 C -3337.9545 3249.418 -3337.9545 3248.059 -3337.3177 3246.956 L -3329.179 3232.8584 C -3328.5423 3231.7552 -3327.3653 3231.0756 -3326.0914 3231.0756 L -3309.814 3231.0756 C -3308.5405 3231.0756 -3307.3636 3231.7552 -3306.7265 3232.8584 L -3298.588 3246.956 C -3297.951 3248.059 -3297.951 3249.418 -3298.588 3250.521 L -3306.7265 3264.6187 C -3307.3633 3265.722 -3308.5402 3266.401 -3309.814 3266.401 L -3326.0914 3266.401 C -3327.365 3266.401 -3328.542 3265.7216 -3329.1788 3264.6187" fill="url(#Obj_Gradient_4)"/>
        </g>
        <g id="Graphic_32">
          <path d="M -3310.1924 3243.7756 L -3317.533 3239.5373 C -3317.792 3239.388 -3318.111 3239.388 -3318.3698 3239.5373 L -3325.7103 3243.7756 C -3325.9692 3243.925 -3326.1286 3244.2013 -3326.1286 3244.5 L -3326.1286 3252.9764 C -3326.1286 3253.2752 -3325.9692 3253.5515 -3325.7103 3253.701 L -3318.3698 3257.9392 C -3318.111 3258.0886 -3317.792 3258.0886 -3317.533 3257.9392 L -3310.1924 3253.701 C -3309.9336 3253.5515 -3309.774 3253.2752 -3309.774 3252.9764 L -3309.774 3244.5 C -3309.774 3244.2013 -3309.9336 3243.925 -3310.1924 3243.7756 M -3311.1995 3252.1653 L -3313.7604 3250.6867 L -3313.7604 3246.7917 L -3317.5423 3248.9743 L -3317.5423 3253.343 L -3314.1693 3251.3955 L -3311.6084 3252.874 L -3317.9515 3256.5363 L -3324.2947 3252.874 L -3321.7337 3251.3955 L -3318.3605 3253.343 L -3318.3605 3248.9743 L -3322.1424 3246.7917 L -3322.1424 3250.6867 L -3324.7033 3252.1653 L -3324.7033 3244.841 L -3318.36 3241.1787 L -3318.36 3244.136 L -3321.7334 3246.0832 L -3317.9515 3248.266 L -3314.1697 3246.0832 L -3317.5426 3244.136 L -3317.5426 3241.1787 L -3311.1995 3244.841 L -3311.1995 3252.1653" fill="white"/>
        </g>
      </g>
      <g id="Graphic_28">
        <path d="M -2945.984 3432.653 L -2896.8023 3432.653 C -2892.384 3432.653 -2888.8023 3436.2348 -2888.8023 3440.653 L -2888.8023 3447.7 C -2888.8023 3452.1183 -2892.384 3455.7 -2896.8023 3455.7 L -2945.984 3455.7 C -2950.4023 3455.7 -2953.984 3452.1183 -2953.984 3447.7 L -2953.984 3440.653 C -2953.984 3436.2348 -2950.4023 3432.653 -2945.984 3432.653 Z" fill="white"/>
        <path d="M -2945.984 3432.653 L -2896.8023 3432.653 C -2892.384 3432.653 -2888.8023 3436.2348 -2888.8023 3440.653 L -2888.8023 3447.7 C -2888.8023 3452.1183 -2892.384 3455.7 -2896.8023 3455.7 L -2945.984 3455.7 C -2950.4023 3455.7 -2953.984 3452.1183 -2953.984 3447.7 L -2953.984 3440.653 C -2953.984 3436.2348 -2950.4023 3432.653 -2945.984 3432.653 Z" stroke="gray" stroke-linecap="round" stroke-linejoin="round" stroke-dasharray="4.0,4.0" stroke-width="1"/>
      </g>
      <g id="Graphic_27">
        <text transform="translate(-2877.4862 3433.919)" fill="black">
          <tspan font-family="Helvetica Neue" font-size="16" fill="black" x="0" y="15">Application</tspan>
        </text>
      </g>
      <g id="Graphic_26">
        <path d="M -2945.984 3369.887 L -2896.8023 3369.887 C -2892.384 3369.887 -2888.8023 3373.4686 -2888.8023 3377.887 L -2888.8023 3384.934 C -2888.8023 3389.352 -2892.384 3392.934 -2896.8023 3392.934 L -2945.984 3392.934 C -2950.4023 3392.934 -2953.984 3389.352 -2953.984 3384.934 L -2953.984 3377.887 C -2953.984 3373.4686 -2950.4023 3369.887 -2945.984 3369.887 Z" fill="#ececec"/>
        <path d="M -2945.984 3369.887 L -2896.8023 3369.887 C -2892.384 3369.887 -2888.8023 3373.4686 -2888.8023 3377.887 L -2888.8023 3384.934 C -2888.8023 3389.352 -2892.384 3392.934 -2896.8023 3392.934 L -2945.984 3392.934 C -2950.4023 3392.934 -2953.984 3389.352 -2953.984 3384.934 L -2953.984 3377.887 C -2953.984 3373.4686 -2950.4023 3369.887 -2945.984 3369.887 Z" stroke="#f15623" stroke-linecap="round" stroke-linejoin="round" stroke-dasharray="8.0,8.0" stroke-width="2"/>
      </g>
      <g id="Graphic_25">
        <text transform="translate(-2877.4862 3371.959)" fill="black">
          <tspan font-family="Helvetica Neue" font-size="16" fill="black" x="0" y="15">TSB Configuration</tspan>
        </text>
      </g>
      <g id="Graphic_24">
        <path d="M -2945.984 3401.7603 L -2896.8023 3401.7603 C -2892.384 3401.7603 -2888.8023 3405.342 -2888.8023 3409.7603 L -2888.8023 3416.8073 C -2888.8023 3421.2256 -2892.384 3424.8073 -2896.8023 3424.8073 L -2945.984 3424.8073 C -2950.4023 3424.8073 -2953.984 3421.2256 -2953.984 3416.8073 L -2953.984 3409.7603 C -2953.984 3405.342 -2950.4023 3401.7603 -2945.984 3401.7603 Z" fill="white"/>
        <path d="M -2945.984 3401.7603 L -2896.8023 3401.7603 C -2892.384 3401.7603 -2888.8023 3405.342 -2888.8023 3409.7603 L -2888.8023 3416.8073 C -2888.8023 3421.2256 -2892.384 3424.8073 -2896.8023 3424.8073 L -2945.984 3424.8073 C -2950.4023 3424.8073 -2953.984 3421.2256 -2953.984 3416.8073 L -2953.984 3409.7603 C -2953.984 3405.342 -2950.4023 3401.7603 -2945.984 3401.7603 Z" stroke="gray" stroke-linecap="round" stroke-linejoin="round" stroke-width="1"/>
      </g>
      <g id="Graphic_23">
        <text transform="translate(-2877.4862 3402.939)" fill="black">
          <tspan font-family="Helvetica Neue" font-size="16" fill="black" x="0" y="15">Namespace</tspan>
        </text>
      </g>
      <g id="Graphic_22">
        <text transform="translate(-2877.4862 3526.1184)" fill="black">
          <tspan font-family="Helvetica Neue" font-size="16" fill="black" x="0" y="15">Traffic Route</tspan>
        </text>
      </g>
      <g id="Line_21">
        <line x1="-2954.2447" y1="3535.052" x2="-2901.4416" y2="3534.8792" marker-end="url(#FilledArrow_Marker)" stroke="black" stroke-linecap="round" stroke-linejoin="round" stroke-width="2"/>
      </g>
      <g id="Graphic_20">
        <path d="M -2945.984 3463.546 L -2896.8023 3463.546 C -2892.384 3463.546 -2888.8023 3467.1275 -2888.8023 3471.546 L -2888.8023 3478.1024 C -2888.8023 3482.5207 -2892.384 3486.1024 -2896.8023 3486.1024 L -2945.984 3486.1024 C -2950.4023 3486.1024 -2953.984 3482.5207 -2953.984 3478.1024 L -2953.984 3471.546 C -2953.984 3467.1275 -2950.4023 3463.546 -2945.984 3463.546 Z" fill="#0a55a8"/>
      </g>
      <g id="Graphic_19">
        <text transform="translate(-2877.4862 3465.6)" fill="black">
          <tspan font-family="Helvetica Neue" font-size="16" fill="black" x="0" y="15">ServiceEntry</tspan>
        </text>
      </g>
      <g id="Graphic_18">
        <path d="M -2945.984 3338.0134 L -2896.8023 3338.0134 C -2892.384 3338.0134 -2888.8023 3341.595 -2888.8023 3346.0134 L -2888.8023 3353.0603 C -2888.8023 3357.4786 -2892.384 3361.0603 -2896.8023 3361.0603 L -2945.984 3361.0603 C -2950.4023 3361.0603 -2953.984 3357.4786 -2953.984 3353.0603 L -2953.984 3346.0134 C -2953.984 3341.595 -2950.4023 3338.0134 -2945.984 3338.0134 Z" fill="#ccc"/>
      </g>
      <g id="Graphic_17">
        <text transform="translate(-2877.4862 3341.3086)" fill="black">
          <tspan font-family="Helvetica Neue" font-size="16" fill="black" x="0" y="15">Cluster</tspan>
        </text>
      </g>
      <g id="Graphic_16">
        <text transform="translate(-2949.2447 3243.2762)" fill="black">
          <tspan font-family="Helvetica Neue" font-weight="bold" font-size="16" fill="black" x="0" y="16">Legend</tspan>
        </text>
      </g>
      <g id="Group_13">
        <g id="Graphic_15">
          <path d="M -2928.6715 3271.6656 L -2914.115 3271.6656 C -2911.9057 3271.6656 -2910.115 3273.4565 -2910.115 3275.6656 L -2910.115 3290.2222 C -2910.115 3292.4313 -2911.9057 3294.2222 -2914.115 3294.2222 L -2928.6715 3294.2222 C -2930.8806 3294.2222 -2932.6715 3292.4313 -2932.6715 3290.2222 L -2932.6715 3275.6656 C -2932.6715 3273.4565 -2930.8806 3271.6656 -2928.6715 3271.6656 Z" fill="#f15623"/>
        </g>
        <g id="Graphic_14">
          <path d="M -2923.0487 3291.4636 C -2924.3974 3290.1097 -2924.5962 3289.8947 -2924.619 3289.766 C -2924.699 3289.3174 -2924.3218 3288.9574 -2923.8623 3289.0436 C -2923.7374 3289.067 -2923.5875 3289.1974 -2922.8946 3289.8853 L -2922.0748 3290.699 L -2922.0748 3285.9816 L -2922.0748 3281.264 L -2924.4053 3283.594 L -2926.736 3285.9243 L -2925.62 3285.944 C -2924.5267 3285.9633 -2924.5007 3285.9657 -2924.351 3286.0587 C -2924.1902 3286.1587 -2924.0514 3286.3983 -2924.0514 3286.576 C -2924.0514 3286.7535 -2924.1902 3286.993 -2924.351 3287.093 L -2924.504 3287.188 L -2926.676 3287.188 L -2928.8484 3287.188 L -2928.8484 3284.989 C -2928.8484 3282.8297 -2928.847 3282.788 -2928.767 3282.681 C -2928.6136 3282.4756 -2928.4854 3282.409 -2928.2432 3282.409 C -2928.0745 3282.409 -2927.9884 3282.431 -2927.8955 3282.497 C -2927.6553 3282.6685 -2927.6438 3282.736 -2927.6438 3283.975 L -2927.6438 3285.0946 L -2924.8593 3282.3103 L -2922.0748 3279.526 L -2922.0748 3278.073 L -2922.0748 3276.62 L -2922.2427 3276.5476 C -2922.568 3276.407 -2922.9364 3276.078 -2923.1306 3275.754 C -2923.3933 3275.316 -2923.4564 3274.657 -2923.283 3274.1654 C -2922.891 3273.055 -2921.589 3272.5456 -2920.5577 3273.099 C -2920.2947 3273.2403 -2919.893 3273.644 -2919.766 3273.894 C -2919.2808 3274.8518 -2919.6358 3275.989 -2920.574 3276.482 L -2920.8504 3276.627 L -2920.8504 3278.0766 L -2920.8504 3279.526 L -2918.0067 3282.3696 L -2915.163 3285.213 L -2915.163 3284.0337 C -2915.163 3282.9056 -2915.1593 3282.848 -2915.0793 3282.7055 C -2914.913 3282.4094 -2914.516 3282.301 -2914.2515 3282.479 C -2914.178 3282.5285 -2914.0776 3282.629 -2914.028 3282.7027 L -2913.938 3282.8365 L -2913.948 3285.0123 L -2913.9584 3287.188 L -2915.9924 3287.1997 C -2917.111 3287.206 -2918.1034 3287.2002 -2918.1974 3287.187 C -2918.3158 3287.17 -2918.416 3287.1197 -2918.523 3287.023 C -2918.8656 3286.7133 -2918.798 3286.2977 -2918.3522 3285.9765 C -2918.3468 3285.9726 -2917.858 3285.9592 -2917.266 3285.947 L -2916.1894 3285.9242 L -2918.52 3283.594 L -2920.8505 3281.264 L -2920.8505 3285.9635 L -2920.8505 3290.663 L -2920.0704 3289.8853 C -2919.6414 3289.4575 -2919.2403 3289.089 -2919.179 3289.066 C -2918.913 3288.967 -2918.613 3289.0638 -2918.451 3289.301 C -2918.3417 3289.4614 -2918.3292 3289.7867 -2918.4268 3289.9342 C -2918.4965 3290.0396 -2921.4484 3293.014 -2921.4833 3293.014 C -2921.495 3293.014 -2922.1993 3292.3162 -2923.0487 3291.4636 Z" fill="#333"/>
        </g>
      </g>
      <g id="Graphic_12">
        <text transform="translate(-2877.4862 3273.72)" fill="black">
          <tspan font-family="Helvetica Neue" font-size="16" fill="black" x="0" y="15">Egress Gateway</tspan>
        </text>
      </g>
      <g id="Graphic_11">
        <path d="M -2945.984 3303.5444 L -2896.8023 3303.5444 C -2892.384 3303.5444 -2888.8023 3307.126 -2888.8023 3311.5444 L -2888.8023 3320.691 C -2888.8023 3325.1094 -2892.384 3328.691 -2896.8023 3328.691 L -2945.984 3328.691 C -2950.4023 3328.691 -2953.984 3325.1094 -2953.984 3320.691 L -2953.984 3311.5444 C -2953.984 3307.126 -2950.4023 3303.5444 -2945.984 3303.5444 Z" fill="#f15623"/>
      </g>
      <g id="Graphic_10">
        <text transform="translate(-2877.4862 3306.8938)" fill="black">
          <tspan font-family="Helvetica Neue" font-size="16" fill="black" x="0" y="15">TSB Component</tspan>
        </text>
      </g>
      <g id="Graphic_72">
        <path d="M -2962.2908 3018.598 L -2880.4955 3018.598 C -2876.0773 3018.598 -2872.4955 3022.1797 -2872.4955 3026.598 L -2872.4955 3050.283 C -2872.4955 3054.7013 -2876.0773 3058.283 -2880.4955 3058.283 L -2962.2908 3058.283 C -2966.709 3058.283 -2970.2908 3054.7013 -2970.2908 3050.283 L -2970.2908 3026.598 C -2970.2908 3022.1797 -2966.709 3018.598 -2962.2908 3018.598 Z" fill="#333"/>
        <text transform="translate(-2965.2908 3029.7375)" fill="white">
          <tspan font-family="Helvetica Neue" font-size="14" fill="white" x="8.246636" y="14">httpbin.org</tspan>
        </text>
      </g>
      <g id="Graphic_78">
        <path d="M -3240.504 3388.2813 L -3106.2677 3388.2813 C -3101.8495 3388.2813 -3098.2677 3391.863 -3098.2677 3396.2813 L -3098.2677 3419.9663 C -3098.2677 3424.3846 -3101.8495 3427.9663 -3106.2677 3427.9663 L -3240.504 3427.9663 C -3244.9222 3427.9663 -3248.504 3424.3846 -3248.504 3419.9663 L -3248.504 3396.2813 C -3248.504 3391.863 -3244.9222 3388.2813 -3240.504 3388.2813 Z" fill="#0a55a8"/>
        <text transform="translate(-3243.504 3399.4208)" fill="white">
          <tspan font-family="Helvetica Neue" font-size="14" fill="white" x="4.5141107" y="14">httpbin-external-svc</tspan>
        </text>
      </g>
      <g id="Line_80">
        <path d="M -3105.7052 3085.512 C -3115.1732 3119.0168 -3130.044 3185.134 -3106.8702 3205.3435 C -3075.383 3232.803 -3041.0118 3209.88 -2988.465 3162.5954 C -2957.72 3134.929 -2939.9912 3097.134 -2930.5724 3070.5346" marker-end="url(#FilledArrow_Marker)" stroke="black" stroke-linecap="round" stroke-linejoin="round" stroke-width="2"/>
      </g>
      <g id="Graphic_82">
        <text transform="translate(-2983.4652 2994.134)" fill="black">
          <tspan font-family="Helvetica Neue" font-weight="bold" font-size="16" fill="black" x="12079227e-20" y="16">External Service</tspan>
        </text>
      </g>
      <g id="Graphic_84">
        <path d="M -2945.984 3495.9566 L -2896.8023 3495.9566 C -2892.384 3495.9566 -2888.8023 3499.5384 -2888.8023 3503.9566 L -2888.8023 3510.5132 C -2888.8023 3514.9315 -2892.384 3518.5132 -2896.8023 3518.5132 L -2945.984 3518.5132 C -2950.4023 3518.5132 -2953.984 3514.9315 -2953.984 3510.5132 L -2953.984 3503.9566 C -2953.984 3499.5384 -2950.4023 3495.9566 -2945.984 3495.9566 Z" fill="#333"/>
      </g>
      <g id="Graphic_83">
        <text transform="translate(-2877.4862 3498.011)" fill="black">
          <tspan font-family="Helvetica Neue" font-size="16" fill="black" x="0" y="15">Service</tspan>
        </text>
      </g>
      <g id="Line_87">
        <path d="M -3080.4376 3462.3025 C -3066.7287 3444.879 -3046.0432 3410.9766 -3019.6063 3345.42 C -2982.1596 3252.5616 -2946.2338 3128.5792 -2930.172 3070.7216" marker-end="url(#FilledArrow_Marker)" stroke="black" stroke-linecap="round" stroke-linejoin="round" stroke-width="2"/>
      </g>
      <g id="Graphic_88">
        <rect x="-3039.86" y="3145.8537" width="167.504" height="28.447998" fill="white"/>
        <text transform="translate(-3034.86 3150.8537)" fill="black">
          <tspan font-family="Helvetica Neue" font-style="italic" font-size="16" fill="black" x="4121148e-19" y="15">https://httpbin.org/get</tspan>
        </text>
      </g>
      <g id="Group_73">
        <g id="Graphic_75">
          <path d="M -3115.4498 3045.8268 L -3083.7647 3045.8268 C -3081.5556 3045.8268 -3079.7647 3047.6177 -3079.7647 3049.8268 L -3079.7647 3081.512 C -3079.7647 3083.721 -3081.5556 3085.512 -3083.7647 3085.512 L -3115.4498 3085.512 C -3117.659 3085.512 -3119.4498 3083.721 -3119.4498 3081.512 L -3119.4498 3049.8268 C -3119.4498 3047.6177 -3117.659 3045.8268 -3115.4498 3045.8268 Z" fill="#f15623"/>
        </g>
        <g id="Graphic_74">
          <path d="M -3102.5198 3080.6585 C -3104.8927 3078.2764 -3105.2425 3077.8982 -3105.283 3077.6715 C -3105.4234 3076.8825 -3104.7597 3076.2493 -3103.9513 3076.401 C -3103.7315 3076.442 -3103.468 3076.6715 -3102.249 3077.8817 L -3100.8065 3079.3136 L -3100.8065 3071.0136 L -3100.8065 3062.7137 L -3104.9067 3066.8132 L -3109.007 3070.9128 L -3107.0434 3070.9475 C -3105.12 3070.9815 -3105.0745 3070.9857 -3104.8112 3071.1494 C -3104.5282 3071.3253 -3104.284 3071.747 -3104.284 3072.0593 C -3104.284 3072.3718 -3104.5282 3072.7934 -3104.8112 3072.9693 L -3105.08 3073.1364 L -3108.902 3073.1364 L -3112.7237 3073.1364 L -3112.7237 3069.2675 C -3112.7237 3065.4683 -3112.721 3065.395 -3112.5804 3065.2068 C -3112.3106 3064.8455 -3112.085 3064.7284 -3111.659 3064.7284 C -3111.362 3064.7284 -3111.2106 3064.7667 -3111.047 3064.8833 C -3110.6245 3065.185 -3110.6043 3065.3033 -3110.6043 3067.4835 L -3110.6043 3069.453 L -3105.7054 3064.5546 L -3100.8065 3059.656 L -3100.8065 3057.0998 L -3100.8065 3054.5435 L -3101.1018 3054.416 C -3101.6742 3054.169 -3102.3224 3053.5895 -3102.664 3053.0197 C -3103.126 3052.249 -3103.2372 3051.09 -3102.932 3050.225 C -3102.2423 3048.2712 -3099.9516 3047.375 -3098.1373 3048.349 C -3097.6746 3048.5973 -3096.9677 3049.307 -3096.7446 3049.7476 C -3095.891 3051.4324 -3096.5154 3053.433 -3098.1658 3054.3003 L -3098.6524 3054.556 L -3098.6524 3057.106 L -3098.6524 3059.656 L -3093.6492 3064.659 L -3088.646 3069.6616 L -3088.646 3067.5866 C -3088.646 3065.602 -3088.6397 3065.5003 -3088.499 3065.2498 C -3088.2062 3064.729 -3087.5078 3064.538 -3087.0425 3064.8516 C -3086.9135 3064.9385 -3086.7366 3065.1155 -3086.6494 3065.245 L -3086.491 3065.4803 L -3086.5088 3069.3083 L -3086.5268 3073.1364 L -3090.1054 3073.1567 C -3092.0736 3073.168 -3093.8193 3073.1577 -3093.9848 3073.1343 C -3094.193 3073.1047 -3094.369 3073.016 -3094.5574 3072.846 C -3095.1604 3072.301 -3095.041 3071.57 -3094.257 3071.0046 C -3094.2476 3070.998 -3093.3876 3070.9744 -3092.346 3070.9525 L -3090.452 3070.9128 L -3094.5522 3066.8132 L -3098.6524 3062.7137 L -3098.6524 3070.982 L -3098.6524 3079.25 L -3097.28 3077.8816 C -3096.5252 3077.129 -3095.8196 3076.4805 -3095.712 3076.4404 C -3095.244 3076.266 -3094.716 3076.4364 -3094.431 3076.854 C -3094.2386 3077.136 -3094.2166 3077.708 -3094.3883 3077.9677 C -3094.511 3078.153 -3099.7044 3083.386 -3099.766 3083.386 C -3099.7863 3083.386 -3101.0256 3082.1585 -3102.52 3080.6585 Z" fill="#333"/>
        </g>
      </g>
      <g id="Line_90">
        <path d="M -3585.637 3442.2845 C -3542.3856 3439.654 -3476.6424 3441.1343 -3429.0076 3466.9427 C -3351.9617 3508.686 -3451.8393 3590.6415 -3358.5185 3594.4444 C -3290.0138 3597.236 -3182.565 3534.4557 -3130.2633 3500.869" marker-end="url(#FilledArrow_Marker)" stroke="black" stroke-linecap="round" stroke-linejoin="round" stroke-width="2"/>
      </g>
      <g id="Line_91">
        <path d="M -3585.637 3442.352 C -3526.8607 3433.607 -3425.953 3409.3438 -3380.8824 3343.5577 C -3315.264 3247.78 -3478.5416 3187.7547 -3398.855 3109.0276 C -3338.1966 3049.0996 -3196.489 3055.2837 -3132.2715 3061.654" marker-end="url(#FilledArrow_Marker)" stroke="black" stroke-linecap="round" stroke-linejoin="round" stroke-width="2"/>
      </g>
      <g id="Graphic_77">
        <rect x="-3527.7166" y="3163.8497" width="199.68" height="28.447998" fill="white"/>
        <text transform="translate(-3522.7166 3168.8497)" fill="black">
          <tspan font-family="Helvetica Neue" font-style="italic" font-size="16" fill="black" x="1563194e-19" y="15">http://httpbin.tetrate.io/get</tspan>
        </text>
      </g>
      <g id="Graphic_92">
        <rect x="-3497.7903" y="3554.6457" width="199.68" height="28.447998" fill="white"/>
        <text transform="translate(-3492.7903 3559.6457)" fill="black">
          <tspan font-family="Helvetica Neue" font-style="italic" font-size="16" fill="black" x="1563194e-19" y="15">http://httpbin.tetrate.io/get</tspan>
        </text>
      </g>
    </g>
  </g>
</svg>
