<?xml version="1.0" encoding="UTF-8" standalone="no"?>
<!DOCTYPE svg PUBLIC "-//W3C//DTD SVG 1.1//EN" "http://www.w3.org/Graphics/SVG/1.1/DTD/svg11.dtd">
<svg xmlns:dc="http://purl.org/dc/elements/1.1/" version="1.1" xmlns="http://www.w3.org/2000/svg" xmlns:xl="http://www.w3.org/1999/xlink" viewBox="-3711 2700 1174 838" width="1174" height="838">
  <defs>
    <marker orient="auto" overflow="visible" markerUnits="strokeWidth" id="FilledArrow_Marker" stroke-linejoin="miter" stroke-miterlimit="10" viewBox="-1 -3 7 6" markerWidth="7" markerHeight="6" color="black">
      <g>
        <path d="M 4.8 0 L 0 -1.8 L 0 1.8 Z" fill="currentColor" stroke="currentColor" stroke-width="1"/>
      </g>
    </marker>
    <linearGradient x1="0" x2="1" id="Gradient" gradientUnits="userSpaceOnUse">
      <stop offset="0" stop-color="#4387fd"/>
      <stop offset="1" stop-color="#4683ea"/>
    </linearGradient>
    <linearGradient id="Obj_Gradient" xl:href="#Gradient" gradientTransform="translate(-3621.26 2735.5092) scale(39.68504)"/>
    <linearGradient id="Obj_Gradient_2" xl:href="#Gradient" gradientTransform="translate(-3164.882 2735.5092) scale(39.68504)"/>
    <linearGradient id="Obj_Gradient_3" xl:href="#Gradient" gradientTransform="translate(-3621.26 3153.7778) scale(39.68504)"/>
    <linearGradient id="Obj_Gradient_4" xl:href="#Gradient" gradientTransform="translate(-3164.882 3153.7778) scale(39.68504)"/>
  </defs>
  <g id="unified-gateway-scenario-3" fill-opacity="1" stroke-dasharray="none" stroke="none" stroke-opacity="1" fill="none">
    <title>unified-gateway-scenario-3</title>
    <rect fill="white" x="-3711" y="2700" width="1174" height="838"/>
    <g id="unified-gateway-scenario-3_Layer_1">
      <title>Layer 1</title>
      <g id="Graphic_74"/>
      <g id="Graphic_73">
        <path d="M -3603.3386 2734.8543 L -3311.7796 2734.8543 C -3307.3613 2734.8543 -3303.7796 2738.436 -3303.7796 2742.8543 L -3303.7796 3034.4134 C -3303.7796 3038.8317 -3307.3613 3042.4134 -3311.7796 3042.4134 L -3603.3386 3042.4134 C -3607.757 3042.4134 -3611.3386 3038.8317 -3611.3386 3034.4134 L -3611.3386 2742.8543 C -3611.3386 2738.436 -3607.757 2734.8543 -3603.3386 2734.8543 Z" fill="#ccc"/>
        <text transform="translate(-3606.3386 2739.8543)" fill="black">
          <tspan font-family="Helvetica Neue" font-size="16" fill="black" x="57.931526" y="16">gke-jimmy-us-central1-1</tspan>
        </text>
      </g>
      <g id="Graphic_72">
        <path d="M -3146.252 2734.8543 L -2854.693 2734.8543 C -2850.2747 2734.8543 -2846.693 2738.436 -2846.693 2742.8543 L -2846.693 3034.4134 C -2846.693 3038.8317 -2850.2747 3042.4134 -2854.693 3042.4134 L -3146.252 3042.4134 C -3150.6703 3042.4134 -3154.252 3038.8317 -3154.252 3034.4134 L -3154.252 2742.8543 C -3154.252 2738.436 -3150.6703 2734.8543 -3146.252 2734.8543 Z" fill="#ccc"/>
        <text transform="translate(-3149.252 2739.8543)" fill="black">
          <tspan font-family="Helvetica Neue" font-size="16" fill="black" x="65.787526" y="16">gke-jimmy-us-west1-1</tspan>
        </text>
      </g>
      <g id="Graphic_71">
        <path d="M -3146.252 3148.7126 L -2854.693 3148.7126 C -2850.2747 3148.7126 -2846.693 3152.2943 -2846.693 3156.7126 L -2846.693 3448.2717 C -2846.693 3452.69 -2850.2747 3456.2717 -2854.693 3456.2717 L -3146.252 3456.2717 C -3150.6703 3456.2717 -3154.252 3452.69 -3154.252 3448.2717 L -3154.252 3156.7126 C -3154.252 3152.2943 -3150.6703 3148.7126 -3146.252 3148.7126 Z" fill="#ccc"/>
        <text transform="translate(-3149.252 3153.7126)" fill="black">
          <tspan font-family="Helvetica Neue" font-size="16" fill="black" x="65.787526" y="16">gke-jimmy-us-west1-2</tspan>
        </text>
      </g>
      <g id="Graphic_70">
        <path d="M -3603.3386 3148.7126 L -3311.7796 3148.7126 C -3307.3613 3148.7126 -3303.7796 3152.2943 -3303.7796 3156.7126 L -3303.7796 3448.2717 C -3303.7796 3452.69 -3307.3613 3456.2717 -3311.7796 3456.2717 L -3603.3386 3456.2717 C -3607.757 3456.2717 -3611.3386 3452.69 -3611.3386 3448.2717 L -3611.3386 3156.7126 C -3611.3386 3152.2943 -3607.757 3148.7126 -3603.3386 3148.7126 Z" fill="#ccc"/>
        <text transform="translate(-3606.3386 3153.7126)" fill="black">
          <tspan font-family="Helvetica Neue" font-size="16" fill="black" x="65.787526" y="16">gke-jimmy-us-west2-3</tspan>
        </text>
      </g>
      <g id="Graphic_69">
        <path d="M -3588.2777 2777.9126 L -3326.8404 2777.9126 C -3322.422 2777.9126 -3318.8404 2781.4943 -3318.8404 2785.9126 L -3318.8404 3022.111 C -3318.8404 3026.5293 -3322.422 3030.111 -3326.8404 3030.111 L -3588.2777 3030.111 C -3592.696 3030.111 -3596.2777 3026.5293 -3596.2777 3022.111 L -3596.2777 2785.9126 C -3596.2777 2781.4943 -3592.696 2777.9126 -3588.2777 2777.9126 Z" fill="#ececec"/>
        <path d="M -3588.2777 2777.9126 L -3326.8404 2777.9126 C -3322.422 2777.9126 -3318.8404 2781.4943 -3318.8404 2785.9126 L -3318.8404 3022.111 C -3318.8404 3026.5293 -3322.422 3030.111 -3326.8404 3030.111 L -3588.2777 3030.111 C -3592.696 3030.111 -3596.2777 3026.5293 -3596.2777 3022.111 L -3596.2777 2785.9126 C -3596.2777 2781.4943 -3592.696 2777.9126 -3588.2777 2777.9126 Z" stroke="#f15623" stroke-linecap="round" stroke-linejoin="round" stroke-dasharray="8.0,8.0" stroke-width="2"/>
        <text transform="translate(-3591.2777 2782.9126)" fill="#f15623">
          <tspan font-family="Helvetica Neue" font-size="14" fill="#f15623" x="95.33764" y="13">Tenant: tier1</tspan>
          <tspan font-family="Helvetica Neue" font-size="14" fill="#f15623" x="81.09264" y="29.392">Workspace: tier1</tspan>
          <tspan font-family="Helvetica Neue" font-size="14" fill="#f15623" x="89.77964" y="45.783997">Network: tier1</tspan>
        </text>
      </g>
      <g id="Graphic_68">
        <path d="M -3570.7585 2834.067 L -3344.3597 2834.067 C -3339.9414 2834.067 -3336.3597 2837.6487 -3336.3597 2842.067 L -3336.3597 3006.067 C -3336.3597 3010.4852 -3339.9414 3014.067 -3344.3597 3014.067 L -3570.7585 3014.067 C -3575.1767 3014.067 -3578.7585 3010.4852 -3578.7585 3006.067 L -3578.7585 2842.067 C -3578.7585 2837.6487 -3575.1767 2834.067 -3570.7585 2834.067 Z" fill="white"/>
        <path d="M -3570.7585 2834.067 L -3344.3597 2834.067 C -3339.9414 2834.067 -3336.3597 2837.6487 -3336.3597 2842.067 L -3336.3597 3006.067 C -3336.3597 3010.4852 -3339.9414 3014.067 -3344.3597 3014.067 L -3570.7585 3014.067 C -3575.1767 3014.067 -3578.7585 3010.4852 -3578.7585 3006.067 L -3578.7585 2842.067 C -3578.7585 2837.6487 -3575.1767 2834.067 -3570.7585 2834.067 Z" stroke="gray" stroke-linecap="round" stroke-linejoin="round" stroke-width="1"/>
        <text transform="translate(-3573.7585 2844.067)" fill="black">
          <tspan font-family="Helvetica Neue" font-size="16" fill="black" x="53.22337" y="15">Namespace: tier1</tspan>
        </text>
      </g>
      <g id="Graphic_67">
        <path d="M -3526.803 2900.681 L -3388.315 2900.681 C -3383.8967 2900.681 -3380.315 2904.263 -3380.315 2908.681 L -3380.315 2945.122 C -3380.315 2949.5403 -3383.8967 2953.122 -3388.315 2953.122 L -3526.803 2953.122 C -3531.2215 2953.122 -3534.803 2949.5403 -3534.803 2945.122 L -3534.803 2908.681 C -3534.803 2904.263 -3531.2215 2900.681 -3526.803 2900.681 Z" fill="#f15623"/>
        <text transform="translate(-3529.803 2917.1695)" fill="white">
          <tspan font-family="Helvetica Neue" font-size="16" fill="white" x="18.444095" y="16">Edge Gateway</tspan>
        </text>
      </g>
      <g id="Graphic_66">
        <path d="M -3131.191 2777.9126 L -2869.7538 2777.9126 C -2865.3355 2777.9126 -2861.7538 2781.4943 -2861.7538 2785.9126 L -2861.7538 3022.111 C -2861.7538 3026.5293 -2865.3355 3030.111 -2869.7538 3030.111 L -3131.191 3030.111 C -3135.6094 3030.111 -3139.191 3026.5293 -3139.191 3022.111 L -3139.191 2785.9126 C -3139.191 2781.4943 -3135.6094 2777.9126 -3131.191 2777.9126 Z" fill="#ececec"/>
        <path d="M -3131.191 2777.9126 L -2869.7538 2777.9126 C -2865.3355 2777.9126 -2861.7538 2781.4943 -2861.7538 2785.9126 L -2861.7538 3022.111 C -2861.7538 3026.5293 -2865.3355 3030.111 -2869.7538 3030.111 L -3131.191 3030.111 C -3135.6094 3030.111 -3139.191 3026.5293 -3139.191 3022.111 L -3139.191 2785.9126 C -3139.191 2781.4943 -3135.6094 2777.9126 -3131.191 2777.9126 Z" stroke="#f15623" stroke-linecap="round" stroke-linejoin="round" stroke-dasharray="8.0,8.0" stroke-width="2"/>
        <text transform="translate(-3134.191 2782.9126)" fill="#f15623">
          <tspan font-family="Helvetica Neue" font-size="14" fill="#f15623" x="81.84164" y="13">Tenant: payment</tspan>
          <tspan font-family="Helvetica Neue" font-size="14" fill="#f15623" x="27.031643" y="29.392">Workspace: bookinfo-frontend-ws</tspan>
          <tspan font-family="Helvetica Neue" font-size="14" fill="#f15623" x="65.65764" y="45.783997">Network: cp-cluster-1</tspan>
        </text>
      </g>
      <g id="Graphic_65">
        <path d="M -3113.672 2834.067 L -2887.273 2834.067 C -2882.8548 2834.067 -2879.273 2837.6487 -2879.273 2842.067 L -2879.273 3006.067 C -2879.273 3010.4852 -2882.8548 3014.067 -2887.273 3014.067 L -3113.672 3014.067 C -3118.09 3014.067 -3121.672 3010.4852 -3121.672 3006.067 L -3121.672 2842.067 C -3121.672 2837.6487 -3118.09 2834.067 -3113.672 2834.067 Z" fill="white"/>
        <path d="M -3113.672 2834.067 L -2887.273 2834.067 C -2882.8548 2834.067 -2879.273 2837.6487 -2879.273 2842.067 L -2879.273 3006.067 C -2879.273 3010.4852 -2882.8548 3014.067 -2887.273 3014.067 L -3113.672 3014.067 C -3118.09 3014.067 -3121.672 3010.4852 -3121.672 3006.067 L -3121.672 2842.067 C -3121.672 2837.6487 -3118.09 2834.067 -3113.672 2834.067 Z" stroke="gray" stroke-linecap="round" stroke-linejoin="round" stroke-width="1"/>
        <text transform="translate(-3116.672 2844.067)" fill="black">
          <tspan font-family="Helvetica Neue" font-size="16" fill="black" x="4.6153713" y="15">Namespace: bookinfo-frontend</tspan>
        </text>
      </g>
      <g id="Graphic_64">
        <path d="M -3082.8268 2880.8386 L -2918.118 2880.8386 C -2913.7 2880.8386 -2910.118 2884.4203 -2910.118 2888.8386 L -2910.118 2990.4764 C -2910.118 2994.8947 -2913.7 2998.4764 -2918.118 2998.4764 L -3082.8268 2998.4764 C -3087.245 2998.4764 -3090.8268 2994.8947 -3090.8268 2990.4764 L -3090.8268 2888.8386 C -3090.8268 2884.4203 -3087.245 2880.8386 -3082.8268 2880.8386 Z" fill="white"/>
        <path d="M -3082.8268 2880.8386 L -2918.118 2880.8386 C -2913.7 2880.8386 -2910.118 2884.4203 -2910.118 2888.8386 L -2910.118 2990.4764 C -2910.118 2994.8947 -2913.7 2998.4764 -2918.118 2998.4764 L -3082.8268 2998.4764 C -3087.245 2998.4764 -3090.8268 2994.8947 -3090.8268 2990.4764 L -3090.8268 2888.8386 C -3090.8268 2884.4203 -3087.245 2880.8386 -3082.8268 2880.8386 Z" stroke="gray" stroke-linecap="round" stroke-linejoin="round" stroke-dasharray="4.0,4.0" stroke-width="1"/>
        <text transform="translate(-3085.8268 2885.8386)" fill="black">
          <tspan font-family="Helvetica Neue" font-size="16" fill="black" x="18.666332" y="16">bookinfo-frontend</tspan>
        </text>
      </g>
      <g id="Graphic_63">
        <path d="M -3131.191 3191.771 L -2869.7538 3191.771 C -2865.3355 3191.771 -2861.7538 3195.3526 -2861.7538 3199.771 L -2861.7538 3435.9693 C -2861.7538 3440.3876 -2865.3355 3443.9693 -2869.7538 3443.9693 L -3131.191 3443.9693 C -3135.6094 3443.9693 -3139.191 3440.3876 -3139.191 3435.9693 L -3139.191 3199.771 C -3139.191 3195.3526 -3135.6094 3191.771 -3131.191 3191.771 Z" fill="#ececec"/>
        <path d="M -3131.191 3191.771 L -2869.7538 3191.771 C -2865.3355 3191.771 -2861.7538 3195.3526 -2861.7538 3199.771 L -2861.7538 3435.9693 C -2861.7538 3440.3876 -2865.3355 3443.9693 -2869.7538 3443.9693 L -3131.191 3443.9693 C -3135.6094 3443.9693 -3139.191 3440.3876 -3139.191 3435.9693 L -3139.191 3199.771 C -3139.191 3195.3526 -3135.6094 3191.771 -3131.191 3191.771 Z" stroke="#f15623" stroke-linecap="round" stroke-linejoin="round" stroke-dasharray="8.0,8.0" stroke-width="2"/>
        <text transform="translate(-3134.191 3196.771)" fill="#f15623">
          <tspan font-family="Helvetica Neue" font-size="14" fill="#f15623" x="81.84164" y="13">Tenant: payment</tspan>
          <tspan font-family="Helvetica Neue" font-size="14" fill="#f15623" x="26.121643" y="29.392">Workspace: bookinfo-backend-ws</tspan>
          <tspan font-family="Helvetica Neue" font-size="14" fill="#f15623" x="65.65764" y="45.783997">Network: cp-cluster-2</tspan>
        </text>
      </g>
      <g id="Graphic_62">
        <path d="M -3113.672 3247.9252 L -2887.273 3247.9252 C -2882.8548 3247.9252 -2879.273 3251.507 -2879.273 3255.9252 L -2879.273 3419.9252 C -2879.273 3424.3435 -2882.8548 3427.9252 -2887.273 3427.9252 L -3113.672 3427.9252 C -3118.09 3427.9252 -3121.672 3424.3435 -3121.672 3419.9252 L -3121.672 3255.9252 C -3121.672 3251.507 -3118.09 3247.9252 -3113.672 3247.9252 Z" fill="white"/>
        <path d="M -3113.672 3247.9252 L -2887.273 3247.9252 C -2882.8548 3247.9252 -2879.273 3251.507 -2879.273 3255.9252 L -2879.273 3419.9252 C -2879.273 3424.3435 -2882.8548 3427.9252 -2887.273 3427.9252 L -3113.672 3427.9252 C -3118.09 3427.9252 -3121.672 3424.3435 -3121.672 3419.9252 L -3121.672 3255.9252 C -3121.672 3251.507 -3118.09 3247.9252 -3113.672 3247.9252 Z" stroke="gray" stroke-linecap="round" stroke-linejoin="round" stroke-width="1"/>
        <text transform="translate(-3116.672 3257.9252)" fill="black">
          <tspan font-family="Helvetica Neue" font-size="16" fill="black" x="3.5753713" y="15">Namespace: bookinfo-backend</tspan>
        </text>
      </g>
      <g id="Graphic_61">
        <path d="M -3588.2777 3191.771 L -3326.8404 3191.771 C -3322.422 3191.771 -3318.8404 3195.3526 -3318.8404 3199.771 L -3318.8404 3435.9693 C -3318.8404 3440.3876 -3322.422 3443.9693 -3326.8404 3443.9693 L -3588.2777 3443.9693 C -3592.696 3443.9693 -3596.2777 3440.3876 -3596.2777 3435.9693 L -3596.2777 3199.771 C -3596.2777 3195.3526 -3592.696 3191.771 -3588.2777 3191.771 Z" fill="#ececec"/>
        <path d="M -3588.2777 3191.771 L -3326.8404 3191.771 C -3322.422 3191.771 -3318.8404 3195.3526 -3318.8404 3199.771 L -3318.8404 3435.9693 C -3318.8404 3440.3876 -3322.422 3443.9693 -3326.8404 3443.9693 L -3588.2777 3443.9693 C -3592.696 3443.9693 -3596.2777 3440.3876 -3596.2777 3435.9693 L -3596.2777 3199.771 C -3596.2777 3195.3526 -3592.696 3191.771 -3588.2777 3191.771 Z" stroke="#f15623" stroke-linecap="round" stroke-linejoin="round" stroke-dasharray="8.0,8.0" stroke-width="2"/>
        <text transform="translate(-3591.2777 3196.771)" fill="#f15623">
          <tspan font-family="Helvetica Neue" font-size="14" fill="#f15623" x="77.95664" y="13">Tenant: marketing</tspan>
          <tspan font-family="Helvetica Neue" font-size="14" fill="#f15623" x="57.75464" y="29.392">Workspace: httpsbin-ws</tspan>
          <tspan font-family="Helvetica Neue" font-size="14" fill="#f15623" x="65.65764" y="45.783997">Network: cp-cluster-3</tspan>
        </text>
      </g>
      <g id="Graphic_60">
        <path d="M -3570.7585 3247.9252 L -3344.3597 3247.9252 C -3339.9414 3247.9252 -3336.3597 3251.507 -3336.3597 3255.9252 L -3336.3597 3419.9252 C -3336.3597 3424.3435 -3339.9414 3427.9252 -3344.3597 3427.9252 L -3570.7585 3427.9252 C -3575.1767 3427.9252 -3578.7585 3424.3435 -3578.7585 3419.9252 L -3578.7585 3255.9252 C -3578.7585 3251.507 -3575.1767 3247.9252 -3570.7585 3247.9252 Z" fill="white"/>
        <path d="M -3570.7585 3247.9252 L -3344.3597 3247.9252 C -3339.9414 3247.9252 -3336.3597 3251.507 -3336.3597 3255.9252 L -3336.3597 3419.9252 C -3336.3597 3424.3435 -3339.9414 3427.9252 -3344.3597 3427.9252 L -3570.7585 3427.9252 C -3575.1767 3427.9252 -3578.7585 3424.3435 -3578.7585 3419.9252 L -3578.7585 3255.9252 C -3578.7585 3251.507 -3575.1767 3247.9252 -3570.7585 3247.9252 Z" stroke="gray" stroke-linecap="round" stroke-linejoin="round" stroke-width="1"/>
        <text transform="translate(-3573.7585 3257.9252)" fill="black">
          <tspan font-family="Helvetica Neue" font-size="16" fill="black" x="43.72737" y="15">Namespace: httpbin</tspan>
        </text>
      </g>
      <g id="Graphic_59">
        <path d="M -3041.37 2933.8583 L -2959.575 2933.8583 C -2955.1566 2933.8583 -2951.575 2937.44 -2951.575 2941.8583 L -2951.575 2965.5433 C -2951.575 2969.9616 -2955.1566 2973.5433 -2959.575 2973.5433 L -3041.37 2973.5433 C -3045.7884 2973.5433 -3049.37 2969.9616 -3049.37 2965.5433 L -3049.37 2941.8583 C -3049.37 2937.44 -3045.7884 2933.8583 -3041.37 2933.8583 Z" fill="#333"/>
        <text transform="translate(-3044.37 2944.9978)" fill="white">
          <tspan font-family="Helvetica Neue" font-size="14" fill="white" x="2.4016364" y="14">productpage</tspan>
        </text>
      </g>
      <g id="Graphic_58">
        <path d="M -3092.195 3286.234 L -2908.75 3286.234 C -2904.3316 3286.234 -2900.75 3289.8158 -2900.75 3294.234 L -2900.75 3410.045 C -2900.75 3414.4634 -2904.3316 3418.045 -2908.75 3418.045 L -3092.195 3418.045 C -3096.6133 3418.045 -3100.195 3414.4634 -3100.195 3410.045 L -3100.195 3294.234 C -3100.195 3289.8158 -3096.6133 3286.234 -3092.195 3286.234 Z" fill="white"/>
        <path d="M -3092.195 3286.234 L -2908.75 3286.234 C -2904.3316 3286.234 -2900.75 3289.8158 -2900.75 3294.234 L -2900.75 3410.045 C -2900.75 3414.4634 -2904.3316 3418.045 -2908.75 3418.045 L -3092.195 3418.045 C -3096.6133 3418.045 -3100.195 3414.4634 -3100.195 3410.045 L -3100.195 3294.234 C -3100.195 3289.8158 -3096.6133 3286.234 -3092.195 3286.234 Z" stroke="gray" stroke-linecap="round" stroke-linejoin="round" stroke-dasharray="4.0,4.0" stroke-width="1"/>
        <text transform="translate(-3095.195 3291.234)" fill="black">
          <tspan font-family="Helvetica Neue" font-size="16" fill="black" x="27.146588" y="16">bookinfo-backend</tspan>
        </text>
      </g>
      <g id="Graphic_56">
        <path d="M -3086.0936 3377.593 L -3045.323 3377.593 C -3040.9046 3377.593 -3037.323 3381.175 -3037.323 3385.593 L -3037.323 3397.248 C -3037.323 3401.6663 -3040.9046 3405.248 -3045.323 3405.248 L -3086.0936 3405.248 C -3090.512 3405.248 -3094.0936 3401.6663 -3094.0936 3397.248 L -3094.0936 3385.593 C -3094.0936 3381.175 -3090.512 3377.593 -3086.0936 3377.593 Z" fill="#333"/>
        <text transform="translate(-3089.0936 3385.2756)" fill="white">
          <tspan font-family="Helvetica Neue" font-size="10" fill="white" x="5.87037" y="10">reviews</tspan>
        </text>
      </g>
      <g id="Graphic_55">
        <path d="M -3012.315 3377.593 L -2971.5442 3377.593 C -2967.126 3377.593 -2963.5442 3381.175 -2963.5442 3385.593 L -2963.5442 3397.248 C -2963.5442 3401.6663 -2967.126 3405.248 -2971.5442 3405.248 L -3012.315 3405.248 C -3016.7333 3405.248 -3020.315 3401.6663 -3020.315 3397.248 L -3020.315 3385.593 C -3020.315 3381.175 -3016.7333 3377.593 -3012.315 3377.593 Z" fill="#333"/>
        <text transform="translate(-3015.315 3385.2756)" fill="white">
          <tspan font-family="Helvetica Neue" font-size="10" fill="white" x="8.10037" y="10">details</tspan>
        </text>
      </g>
      <g id="Graphic_54">
        <path d="M -3086.0936 3316.24 L -3045.323 3316.24 C -3040.9046 3316.24 -3037.323 3319.8218 -3037.323 3324.24 L -3037.323 3335.895 C -3037.323 3340.3132 -3040.9046 3343.895 -3045.323 3343.895 L -3086.0936 3343.895 C -3090.512 3343.895 -3094.0936 3340.3132 -3094.0936 3335.895 L -3094.0936 3324.24 C -3094.0936 3319.8218 -3090.512 3316.24 -3086.0936 3316.24 Z" fill="#333"/>
        <text transform="translate(-3089.0936 3323.9225)" fill="white">
          <tspan font-family="Helvetica Neue" font-size="10" fill="white" x="7.54537" y="10">ratings</tspan>
        </text>
      </g>
      <g id="Graphic_53">
        <path d="M -3539.9134 3293.3207 L -3375.2048 3293.3207 C -3370.7865 3293.3207 -3367.2048 3296.9024 -3367.2048 3301.3207 L -3367.2048 3402.9585 C -3367.2048 3407.3767 -3370.7865 3410.9585 -3375.2048 3410.9585 L -3539.9134 3410.9585 C -3544.3317 3410.9585 -3547.9134 3407.3767 -3547.9134 3402.9585 L -3547.9134 3301.3207 C -3547.9134 3296.9024 -3544.3317 3293.3207 -3539.9134 3293.3207 Z" fill="white"/>
        <path d="M -3539.9134 3293.3207 L -3375.2048 3293.3207 C -3370.7865 3293.3207 -3367.2048 3296.9024 -3367.2048 3301.3207 L -3367.2048 3402.9585 C -3367.2048 3407.3767 -3370.7865 3410.9585 -3375.2048 3410.9585 L -3539.9134 3410.9585 C -3544.3317 3410.9585 -3547.9134 3407.3767 -3547.9134 3402.9585 L -3547.9134 3301.3207 C -3547.9134 3296.9024 -3544.3317 3293.3207 -3539.9134 3293.3207 Z" stroke="gray" stroke-linecap="round" stroke-linejoin="round" stroke-dasharray="4.0,4.0" stroke-width="1"/>
        <text transform="translate(-3542.9134 3298.3207)" fill="black">
          <tspan font-family="Helvetica Neue" font-size="16" fill="black" x="59.13833" y="16">httpbin</tspan>
        </text>
      </g>
      <g id="Graphic_52">
        <path d="M -3488.9148 3332.297 L -3426.2034 3332.297 C -3421.785 3332.297 -3418.2034 3335.8788 -3418.2034 3340.297 L -3418.2034 3363.982 C -3418.2034 3368.4004 -3421.785 3371.982 -3426.2034 3371.982 L -3488.9148 3371.982 C -3493.333 3371.982 -3496.9148 3368.4004 -3496.9148 3363.982 L -3496.9148 3340.297 C -3496.9148 3335.8788 -3493.333 3332.297 -3488.9148 3332.297 Z" fill="#333"/>
        <text transform="translate(-3491.9148 3342.4075)" fill="white">
          <tspan font-family="Helvetica Neue" font-size="16" fill="white" x="8.139682" y="16">httpbin</tspan>
        </text>
      </g>
      <g id="Group_49">
        <g id="Graphic_51">
          <path d="M -2942.5364 3365.563 L -2910.8513 3365.563 C -2908.6422 3365.563 -2906.8513 3367.354 -2906.8513 3369.563 L -2906.8513 3401.248 C -2906.8513 3403.457 -2908.6422 3405.248 -2910.8513 3405.248 L -2942.5364 3405.248 C -2944.7455 3405.248 -2946.5364 3403.457 -2946.5364 3401.248 L -2946.5364 3369.563 C -2946.5364 3367.354 -2944.7455 3365.563 -2942.5364 3365.563 Z" fill="#f15623"/>
        </g>
        <g id="Graphic_50">
          <path d="M -2929.6064 3400.3947 C -2931.9793 3398.0126 -2932.329 3397.6344 -2932.3695 3397.4077 C -2932.51 3396.6187 -2931.8463 3395.9855 -2931.038 3396.137 C -2930.818 3396.1784 -2930.5545 3396.4077 -2929.3355 3397.618 L -2927.893 3399.0498 L -2927.893 3390.75 L -2927.893 3382.45 L -2931.9933 3386.5494 L -2936.0935 3390.649 L -2934.13 3390.6837 C -2932.2067 3390.7178 -2932.161 3390.722 -2931.8978 3390.8856 C -2931.615 3391.0615 -2931.3705 3391.483 -2931.3705 3391.7955 C -2931.3705 3392.108 -2931.615 3392.5296 -2931.8978 3392.7055 L -2932.1666 3392.8726 L -2935.9884 3392.8726 L -2939.8103 3392.8726 L -2939.8103 3389.0037 C -2939.8103 3385.2045 -2939.8077 3385.1314 -2939.667 3384.943 C -2939.3972 3384.5817 -2939.1716 3384.4646 -2938.7455 3384.4646 C -2938.4487 3384.4646 -2938.2972 3384.503 -2938.1338 3384.6196 C -2937.711 3384.921 -2937.691 3385.0395 -2937.691 3387.2197 L -2937.691 3389.1894 L -2932.792 3384.291 L -2927.893 3379.3923 L -2927.893 3376.836 L -2927.893 3374.2797 L -2928.1884 3374.152 C -2928.761 3373.905 -2929.409 3373.3257 -2929.7506 3372.756 C -2930.2127 3371.985 -2930.3238 3370.826 -2930.0184 3369.961 C -2929.329 3368.0074 -2927.0383 3367.111 -2925.224 3368.085 C -2924.7612 3368.3335 -2924.0544 3369.0434 -2923.8312 3369.4838 C -2922.9774 3371.1686 -2923.602 3373.1692 -2925.2524 3374.0365 L -2925.739 3374.292 L -2925.739 3376.8423 L -2925.739 3379.3923 L -2920.736 3384.395 L -2915.7327 3389.398 L -2915.7327 3387.323 C -2915.7327 3385.338 -2915.7264 3385.2365 -2915.5856 3384.986 C -2915.293 3384.4652 -2914.5944 3384.2743 -2914.129 3384.588 C -2914 3384.6747 -2913.8232 3384.8517 -2913.736 3384.981 L -2913.5774 3385.2165 L -2913.5954 3389.0445 L -2913.6134 3392.8726 L -2917.192 3392.893 C -2919.1602 3392.904 -2920.906 3392.894 -2921.0714 3392.8705 C -2921.2796 3392.841 -2921.4557 3392.7522 -2921.644 3392.582 C -2922.247 3392.0373 -2922.1278 3391.306 -2921.3437 3390.741 C -2921.3342 3390.734 -2920.4743 3390.7106 -2919.4326 3390.6887 L -2917.5386 3390.649 L -2921.6388 3386.5494 L -2925.739 3382.45 L -2925.739 3390.718 L -2925.739 3398.9862 L -2924.3666 3397.618 C -2923.6118 3396.8652 -2922.9062 3396.2167 -2922.7986 3396.1766 C -2922.3305 3396.0023 -2921.8025 3396.1726 -2921.5176 3396.59 C -2921.3252 3396.872 -2921.3033 3397.4444 -2921.475 3397.704 C -2921.5975 3397.8894 -2926.791 3403.122 -2926.8525 3403.122 C -2926.873 3403.122 -2928.1122 3401.8947 -2929.6065 3400.3947 Z" fill="white"/>
        </g>
      </g>
      <g id="Line_44">
        <path d="M -2923.4352 3365.563 C -2923.359 3355.9887 -2925.7008 3345.0116 -2934.8018 3337.6503 C -2938.028 3335.0407 -2941.8514 3333.0897 -2945.9834 3331.6505" marker-end="url(#FilledArrow_Marker)" stroke="black" stroke-linecap="round" stroke-linejoin="round" stroke-width="2"/>
      </g>
      <g id="Graphic_42">
        <title>Account Box</title>
        <path d="M -3687.874 3090.3504 L -3687.874 3128.2717 C -3687.874 3131.2512 -3685.4633 3133.689 -3682.4567 3133.689 L -3644.5355 3133.689 C -3641.556 3133.689 -3639.118 3131.2512 -3639.118 3128.2717 L -3639.118 3090.3504 C -3639.118 3087.371 -3641.556 3084.933 -3644.5355 3084.933 L -3682.4567 3084.933 C -3685.4633 3084.933 -3687.874 3087.371 -3687.874 3090.3504 Z M -3655.37 3101.185 C -3655.37 3105.6814 -3658.9997 3109.311 -3663.496 3109.311 C -3667.9925 3109.311 -3671.622 3105.6814 -3671.622 3101.185 C -3671.622 3096.6887 -3667.9925 3093.059 -3663.496 3093.059 C -3658.9997 3093.059 -3655.37 3096.6887 -3655.37 3101.185 Z M -3679.748 3122.8543 C -3679.748 3117.437 -3668.9134 3114.4575 -3663.496 3114.4575 C -3658.0788 3114.4575 -3647.244 3117.437 -3647.244 3122.8543 L -3647.244 3125.563 L -3679.748 3125.563 L -3679.748 3122.8543 Z" fill="black"/>
      </g>
      <g id="Line_41">
        <path d="M -3639.118 3101.667 C -3616.303 3093.079 -3580.5413 3076.0627 -3545.322 3044.867 C -3515.1524 3018.1443 -3492.717 2987.515 -3478.084 2964.1646" marker-end="url(#FilledArrow_Marker)" stroke="black" stroke-linecap="round" stroke-linejoin="round" stroke-width="2"/>
      </g>
      <g id="Group_38">
        <g id="Graphic_40">
          <path d="M -3612.6437 2751.3896 L -3620.7823 2737.292 C -3621.419 2736.189 -3621.419 2734.83 -3620.7823 2733.7268 L -3612.6437 2719.6292 C -3612.007 2718.526 -3610.83 2717.8465 -3609.556 2717.8465 L -3593.2788 2717.8465 C -3592.005 2717.8465 -3590.828 2718.526 -3590.191 2719.6292 L -3582.0525 2733.7268 C -3581.4156 2734.83 -3581.4156 2736.189 -3582.0525 2737.292 L -3590.191 2751.3896 C -3590.828 2752.4927 -3592.005 2753.172 -3593.2788 2753.172 L -3609.556 2753.172 C -3610.8296 2753.172 -3612.0065 2752.4924 -3612.6433 2751.3896" fill="url(#Obj_Gradient)"/>
        </g>
        <g id="Graphic_39">
          <path d="M -3593.657 2730.5464 L -3600.9976 2726.308 C -3601.2564 2726.1587 -3601.5755 2726.1587 -3601.8344 2726.308 L -3609.175 2730.5464 C -3609.434 2730.696 -3609.593 2730.972 -3609.593 2731.271 L -3609.593 2739.7472 C -3609.593 2740.046 -3609.434 2740.3223 -3609.175 2740.4718 L -3601.8344 2744.71 C -3601.5755 2744.8595 -3601.2564 2744.8595 -3600.9976 2744.71 L -3593.657 2740.4718 C -3593.398 2740.3223 -3593.2388 2740.046 -3593.2388 2739.7472 L -3593.2388 2731.271 C -3593.2388 2730.972 -3593.398 2730.696 -3593.657 2730.5464 M -3594.664 2738.936 L -3597.225 2737.4575 L -3597.225 2733.5625 L -3601.007 2735.7452 L -3601.007 2740.1137 L -3597.634 2738.1663 L -3595.073 2739.645 L -3601.416 2743.307 L -3607.7593 2739.645 L -3605.1983 2738.1663 L -3601.825 2740.1137 L -3601.825 2735.7452 L -3605.607 2733.5625 L -3605.607 2737.4575 L -3608.168 2738.936 L -3608.168 2731.6117 L -3601.8248 2727.9495 L -3601.8248 2730.9067 L -3605.198 2732.854 L -3601.416 2735.0367 L -3597.6342 2732.854 L -3601.007 2730.9067 L -3601.007 2727.9495 L -3594.664 2731.6117 L -3594.664 2738.936" fill="white"/>
        </g>
      </g>
      <g id="Group_35">
        <g id="Graphic_37">
          <path d="M -3156.2657 2751.3896 L -3164.4043 2737.292 C -3165.041 2736.189 -3165.041 2734.83 -3164.4043 2733.7268 L -3156.2657 2719.6292 C -3155.629 2718.526 -3154.452 2717.8465 -3153.178 2717.8465 L -3136.9008 2717.8465 C -3135.627 2717.8465 -3134.4502 2718.526 -3133.813 2719.6292 L -3125.6745 2733.7268 C -3125.0377 2734.83 -3125.0377 2736.189 -3125.6745 2737.292 L -3133.813 2751.3896 C -3134.45 2752.4927 -3135.627 2753.172 -3136.9008 2753.172 L -3153.178 2753.172 C -3154.4516 2753.172 -3155.6286 2752.4924 -3156.2654 2751.3896" fill="url(#Obj_Gradient_2)"/>
        </g>
        <g id="Graphic_36">
          <path d="M -3137.279 2730.5464 L -3144.6196 2726.308 C -3144.8785 2726.1587 -3145.1975 2726.1587 -3145.4564 2726.308 L -3152.797 2730.5464 C -3153.056 2730.696 -3153.2152 2730.972 -3153.2152 2731.271 L -3153.2152 2739.7472 C -3153.2152 2740.046 -3153.056 2740.3223 -3152.797 2740.4718 L -3145.4564 2744.71 C -3145.1975 2744.8595 -3144.8785 2744.8595 -3144.6196 2744.71 L -3137.279 2740.4718 C -3137.02 2740.3223 -3136.8608 2740.046 -3136.8608 2739.7472 L -3136.8608 2731.271 C -3136.8608 2730.972 -3137.02 2730.696 -3137.279 2730.5464 M -3138.286 2738.936 L -3140.847 2737.4575 L -3140.847 2733.5625 L -3144.629 2735.7452 L -3144.629 2740.1137 L -3141.256 2738.1663 L -3138.695 2739.645 L -3145.038 2743.307 L -3151.3813 2739.645 L -3148.8204 2738.1663 L -3145.447 2740.1137 L -3145.447 2735.7452 L -3149.229 2733.5625 L -3149.229 2737.4575 L -3151.79 2738.936 L -3151.79 2731.6117 L -3145.4468 2727.9495 L -3145.4468 2730.9067 L -3148.82 2732.854 L -3145.038 2735.0367 L -3141.2563 2732.854 L -3144.6292 2730.9067 L -3144.6292 2727.9495 L -3138.286 2731.6117 L -3138.286 2738.936" fill="white"/>
        </g>
      </g>
      <g id="Group_32">
        <g id="Graphic_34">
          <path d="M -3612.6437 3169.658 L -3620.7823 3155.5605 C -3621.419 3154.4574 -3621.419 3153.0985 -3620.7823 3151.9953 L -3612.6437 3137.8977 C -3612.007 3136.7946 -3610.83 3136.115 -3609.556 3136.115 L -3593.2788 3136.115 C -3592.005 3136.115 -3590.828 3136.7946 -3590.191 3137.8977 L -3582.0525 3151.9953 C -3581.4156 3153.0985 -3581.4156 3154.4574 -3582.0525 3155.5605 L -3590.191 3169.658 C -3590.828 3170.7612 -3592.005 3171.4405 -3593.2788 3171.4405 L -3609.556 3171.4405 C -3610.8296 3171.4405 -3612.0065 3170.761 -3612.6433 3169.658" fill="url(#Obj_Gradient_3)"/>
        </g>
        <g id="Graphic_33">
          <path d="M -3593.657 3148.815 L -3600.9976 3144.5767 C -3601.2564 3144.4272 -3601.5755 3144.4272 -3601.8344 3144.5767 L -3609.175 3148.815 C -3609.434 3148.9644 -3609.593 3149.2406 -3609.593 3149.5395 L -3609.593 3158.0157 C -3609.593 3158.3146 -3609.434 3158.591 -3609.175 3158.7403 L -3601.8344 3162.9786 C -3601.5755 3163.128 -3601.2564 3163.128 -3600.9976 3162.9786 L -3593.657 3158.7403 C -3593.398 3158.591 -3593.2388 3158.3146 -3593.2388 3158.0157 L -3593.2388 3149.5395 C -3593.2388 3149.2406 -3593.398 3148.9644 -3593.657 3148.815 M -3594.664 3157.2047 L -3597.225 3155.726 L -3597.225 3151.831 L -3601.007 3154.0137 L -3601.007 3158.3822 L -3597.634 3156.435 L -3595.073 3157.9134 L -3601.416 3161.5756 L -3607.7593 3157.9134 L -3605.1983 3156.435 L -3601.825 3158.3822 L -3601.825 3154.0137 L -3605.607 3151.831 L -3605.607 3155.726 L -3608.168 3157.2047 L -3608.168 3149.8802 L -3601.8248 3146.218 L -3601.8248 3149.1752 L -3605.198 3151.1226 L -3601.416 3153.3053 L -3597.6342 3151.1226 L -3601.007 3149.1752 L -3601.007 3146.218 L -3594.664 3149.8802 L -3594.664 3157.2047" fill="white"/>
        </g>
      </g>
      <g id="Group_29">
        <g id="Graphic_31">
          <path d="M -3156.2657 3169.658 L -3164.4043 3155.5605 C -3165.041 3154.4574 -3165.041 3153.0985 -3164.4043 3151.9953 L -3156.2657 3137.8977 C -3155.629 3136.7946 -3154.452 3136.115 -3153.178 3136.115 L -3136.9008 3136.115 C -3135.627 3136.115 -3134.4502 3136.7946 -3133.813 3137.8977 L -3125.6745 3151.9953 C -3125.0377 3153.0985 -3125.0377 3154.4574 -3125.6745 3155.5605 L -3133.813 3169.658 C -3134.45 3170.7612 -3135.627 3171.4405 -3136.9008 3171.4405 L -3153.178 3171.4405 C -3154.4516 3171.4405 -3155.6286 3170.761 -3156.2654 3169.658" fill="url(#Obj_Gradient_4)"/>
        </g>
        <g id="Graphic_30">
          <path d="M -3137.279 3148.815 L -3144.6196 3144.5767 C -3144.8785 3144.4272 -3145.1975 3144.4272 -3145.4564 3144.5767 L -3152.797 3148.815 C -3153.056 3148.9644 -3153.2152 3149.2406 -3153.2152 3149.5395 L -3153.2152 3158.0157 C -3153.2152 3158.3146 -3153.056 3158.591 -3152.797 3158.7403 L -3145.4564 3162.9786 C -3145.1975 3163.128 -3144.8785 3163.128 -3144.6196 3162.9786 L -3137.279 3158.7403 C -3137.02 3158.591 -3136.8608 3158.3146 -3136.8608 3158.0157 L -3136.8608 3149.5395 C -3136.8608 3149.2406 -3137.02 3148.9644 -3137.279 3148.815 M -3138.286 3157.2047 L -3140.847 3155.726 L -3140.847 3151.831 L -3144.629 3154.0137 L -3144.629 3158.3822 L -3141.256 3156.435 L -3138.695 3157.9134 L -3145.038 3161.5756 L -3151.3813 3157.9134 L -3148.8204 3156.435 L -3145.447 3158.3822 L -3145.447 3154.0137 L -3149.229 3151.831 L -3149.229 3155.726 L -3151.79 3157.2047 L -3151.79 3149.8802 L -3145.4468 3146.218 L -3145.4468 3149.1752 L -3148.82 3151.1226 L -3145.038 3153.3053 L -3141.2563 3151.1226 L -3144.6292 3149.1752 L -3144.6292 3146.218 L -3138.286 3149.8802 L -3138.286 3157.2047" fill="white"/>
        </g>
      </g>
      <g id="Line_28">
        <path d="M -3423.3784 2953.122 C -3381.6148 2988.329 -3309.448 3059.5276 -3252.1752 3169.952 C -3166.2468 3335.6257 -3246.4625 3450.652 -3154.252 3511.691 C -3085.7416 3557.0417 -2993.4188 3465.2915 -2950.4866 3415.132" marker-end="url(#FilledArrow_Marker)" stroke="black" stroke-linecap="round" stroke-linejoin="round" stroke-width="2"/>
      </g>
      <g id="Graphic_24">
        <text transform="translate(-3685.72 3138.689)" fill="black">
          <tspan font-family="Helvetica Neue" font-weight="bold" font-size="16" fill="black" x="15987212e-20" y="16">Users</tspan>
        </text>
      </g>
      <g id="Group_3">
        <g id="Graphic_23">
          <path d="M -2773.0706 3370.7354 L -2723.889 3370.7354 C -2719.4707 3370.7354 -2715.889 3374.317 -2715.889 3378.7354 L -2715.889 3385.7824 C -2715.889 3390.2007 -2719.4707 3393.7824 -2723.889 3393.7824 L -2773.0706 3393.7824 C -2777.489 3393.7824 -2781.0706 3390.2007 -2781.0706 3385.7824 L -2781.0706 3378.7354 C -2781.0706 3374.317 -2777.489 3370.7354 -2773.0706 3370.7354 Z" fill="white"/>
          <path d="M -2773.0706 3370.7354 L -2723.889 3370.7354 C -2719.4707 3370.7354 -2715.889 3374.317 -2715.889 3378.7354 L -2715.889 3385.7824 C -2715.889 3390.2007 -2719.4707 3393.7824 -2723.889 3393.7824 L -2773.0706 3393.7824 C -2777.489 3393.7824 -2781.0706 3390.2007 -2781.0706 3385.7824 L -2781.0706 3378.7354 C -2781.0706 3374.317 -2777.489 3370.7354 -2773.0706 3370.7354 Z" stroke="gray" stroke-linecap="round" stroke-linejoin="round" stroke-dasharray="4.0,4.0" stroke-width="1"/>
        </g>
        <g id="Graphic_22">
          <text transform="translate(-2704.5728 3372.0015)" fill="black">
            <tspan font-family="Helvetica Neue" font-size="16" fill="black" x="0" y="15">Application</tspan>
          </text>
        </g>
        <g id="Graphic_21">
          <path d="M -2773.0706 3307.969 L -2723.889 3307.969 C -2719.4707 3307.969 -2715.889 3311.551 -2715.889 3315.969 L -2715.889 3323.016 C -2715.889 3327.4344 -2719.4707 3331.016 -2723.889 3331.016 L -2773.0706 3331.016 C -2777.489 3331.016 -2781.0706 3327.4344 -2781.0706 3323.016 L -2781.0706 3315.969 C -2781.0706 3311.551 -2777.489 3307.969 -2773.0706 3307.969 Z" fill="#ececec"/>
          <path d="M -2773.0706 3307.969 L -2723.889 3307.969 C -2719.4707 3307.969 -2715.889 3311.551 -2715.889 3315.969 L -2715.889 3323.016 C -2715.889 3327.4344 -2719.4707 3331.016 -2723.889 3331.016 L -2773.0706 3331.016 C -2777.489 3331.016 -2781.0706 3327.4344 -2781.0706 3323.016 L -2781.0706 3315.969 C -2781.0706 3311.551 -2777.489 3307.969 -2773.0706 3307.969 Z" stroke="#f15623" stroke-linecap="round" stroke-linejoin="round" stroke-dasharray="8.0,8.0" stroke-width="2"/>
        </g>
        <g id="Graphic_20">
          <text transform="translate(-2704.5728 3310.0414)" fill="black">
            <tspan font-family="Helvetica Neue" font-size="16" fill="black" x="0" y="15">TSB Configuration</tspan>
          </text>
        </g>
        <g id="Graphic_19">
          <path d="M -2773.0706 3339.8427 L -2723.889 3339.8427 C -2719.4707 3339.8427 -2715.889 3343.4244 -2715.889 3347.8427 L -2715.889 3354.8896 C -2715.889 3359.308 -2719.4707 3362.8896 -2723.889 3362.8896 L -2773.0706 3362.8896 C -2777.489 3362.8896 -2781.0706 3359.308 -2781.0706 3354.8896 L -2781.0706 3347.8427 C -2781.0706 3343.4244 -2777.489 3339.8427 -2773.0706 3339.8427 Z" fill="white"/>
          <path d="M -2773.0706 3339.8427 L -2723.889 3339.8427 C -2719.4707 3339.8427 -2715.889 3343.4244 -2715.889 3347.8427 L -2715.889 3354.8896 C -2715.889 3359.308 -2719.4707 3362.8896 -2723.889 3362.8896 L -2773.0706 3362.8896 C -2777.489 3362.8896 -2781.0706 3359.308 -2781.0706 3354.8896 L -2781.0706 3347.8427 C -2781.0706 3343.4244 -2777.489 3339.8427 -2773.0706 3339.8427 Z" stroke="gray" stroke-linecap="round" stroke-linejoin="round" stroke-width="1"/>
        </g>
        <g id="Graphic_18">
          <text transform="translate(-2704.5728 3341.0214)" fill="black">
            <tspan font-family="Helvetica Neue" font-size="16" fill="black" x="0" y="15">Namespace</tspan>
          </text>
        </g>
        <g id="Graphic_17">
          <text transform="translate(-2704.5728 3431.1577)" fill="black">
            <tspan font-family="Helvetica Neue" font-size="16" fill="black" x="0" y="15">Traffic Route</tspan>
          </text>
        </g>
        <g id="Line_16">
          <line x1="-2781.3313" y1="3440.0915" x2="-2728.5282" y2="3439.9186" marker-end="url(#FilledArrow_Marker)" stroke="black" stroke-linecap="round" stroke-linejoin="round" stroke-width="2"/>
        </g>
        <g id="Graphic_15">
          <path d="M -2773.0706 3401.628 L -2723.889 3401.628 C -2719.4707 3401.628 -2715.889 3405.21 -2715.889 3409.628 L -2715.889 3416.1848 C -2715.889 3420.603 -2719.4707 3424.1848 -2723.889 3424.1848 L -2773.0706 3424.1848 C -2777.489 3424.1848 -2781.0706 3420.603 -2781.0706 3416.1848 L -2781.0706 3409.628 C -2781.0706 3405.21 -2777.489 3401.628 -2773.0706 3401.628 Z" fill="#333"/>
        </g>
        <g id="Graphic_14">
          <text transform="translate(-2704.5728 3403.6825)" fill="black">
            <tspan font-family="Helvetica Neue" font-size="16" fill="black" x="0" y="15">Service</tspan>
          </text>
        </g>
        <g id="Graphic_13">
          <path d="M -2773.0706 3276.0957 L -2723.889 3276.0957 C -2719.4707 3276.0957 -2715.889 3279.6774 -2715.889 3284.0957 L -2715.889 3291.1427 C -2715.889 3295.561 -2719.4707 3299.1427 -2723.889 3299.1427 L -2773.0706 3299.1427 C -2777.489 3299.1427 -2781.0706 3295.561 -2781.0706 3291.1427 L -2781.0706 3284.0957 C -2781.0706 3279.6774 -2777.489 3276.0957 -2773.0706 3276.0957 Z" fill="#ccc"/>
        </g>
        <g id="Graphic_12">
          <text transform="translate(-2704.5728 3279.391)" fill="black">
            <tspan font-family="Helvetica Neue" font-size="16" fill="black" x="0" y="15">Cluster</tspan>
          </text>
        </g>
        <g id="Graphic_11">
          <text transform="translate(-2776.3313 3181.3586)" fill="black">
            <tspan font-family="Helvetica Neue" font-weight="bold" font-size="16" fill="black" x="0" y="16">Legend</tspan>
          </text>
        </g>
        <g id="Group_8">
          <g id="Graphic_10">
            <path d="M -2755.758 3209.748 L -2741.2015 3209.748 C -2738.9923 3209.748 -2737.2015 3211.539 -2737.2015 3213.748 L -2737.2015 3228.3046 C -2737.2015 3230.5137 -2738.9923 3232.3046 -2741.2015 3232.3046 L -2755.758 3232.3046 C -2757.9672 3232.3046 -2759.758 3230.5137 -2759.758 3228.3046 L -2759.758 3213.748 C -2759.758 3211.539 -2757.9672 3209.748 -2755.758 3209.748 Z" fill="#f15623"/>
          </g>
          <g id="Graphic_9">
            <path d="M -2750.1353 3229.546 C -2751.484 3228.192 -2751.683 3227.977 -2751.7058 3227.8482 C -2751.7856 3227.3997 -2751.4084 3227.04 -2750.949 3227.126 C -2750.824 3227.1495 -2750.674 3227.2798 -2749.9813 3227.9676 L -2749.1614 3228.7815 L -2749.1614 3224.064 L -2749.1614 3219.3463 L -2751.492 3221.6765 L -2753.8224 3224.0066 L -2752.7064 3224.0263 C -2751.6133 3224.0457 -2751.5873 3224.048 -2751.4377 3224.141 C -2751.277 3224.241 -2751.138 3224.4807 -2751.138 3224.6583 C -2751.138 3224.836 -2751.277 3225.0755 -2751.4377 3225.1755 L -2751.5904 3225.2705 L -2753.7627 3225.2705 L -2755.935 3225.2705 L -2755.935 3223.0714 C -2755.935 3220.912 -2755.9336 3220.8704 -2755.8536 3220.7634 C -2755.7003 3220.558 -2755.572 3220.4914 -2755.3298 3220.4914 C -2755.161 3220.4914 -2755.075 3220.5132 -2754.982 3220.5795 C -2754.742 3220.751 -2754.7304 3220.8182 -2754.7304 3222.0574 L -2754.7304 3223.177 L -2751.946 3220.3927 L -2749.1614 3217.6084 L -2749.1614 3216.1554 L -2749.1614 3214.7024 L -2749.3293 3214.63 C -2749.6546 3214.4895 -2750.023 3214.1602 -2750.2172 3213.8363 C -2750.48 3213.398 -2750.543 3212.7395 -2750.3695 3212.2478 C -2749.9775 3211.1374 -2748.6755 3210.628 -2747.6443 3211.1815 C -2747.3813 3211.3227 -2746.9795 3211.726 -2746.8527 3211.9765 C -2746.3674 3212.934 -2746.7224 3214.0713 -2747.6605 3214.5642 L -2747.937 3214.7095 L -2747.937 3216.159 L -2747.937 3217.6084 L -2745.0933 3220.452 L -2742.2496 3223.2955 L -2742.2496 3222.116 C -2742.2496 3220.988 -2742.246 3220.93 -2742.166 3220.788 C -2741.9996 3220.4918 -2741.6026 3220.3833 -2741.338 3220.5615 C -2741.2648 3220.611 -2741.1643 3220.7115 -2741.1147 3220.785 L -2741.0245 3220.919 L -2741.0348 3223.0946 L -2741.045 3225.2705 L -2743.079 3225.282 C -2744.1978 3225.2884 -2745.19 3225.2826 -2745.284 3225.2693 C -2745.4024 3225.2524 -2745.5025 3225.202 -2745.6095 3225.1054 C -2745.9522 3224.7957 -2745.8845 3224.38 -2745.4388 3224.059 C -2745.4334 3224.055 -2744.9446 3224.0416 -2744.3525 3224.029 L -2743.276 3224.0066 L -2745.6066 3221.6765 L -2747.937 3219.3463 L -2747.937 3224.046 L -2747.937 3228.7454 L -2747.157 3227.9676 C -2746.728 3227.54 -2746.327 3227.1712 -2746.2658 3227.1485 C -2745.9997 3227.0494 -2745.6996 3227.146 -2745.5377 3227.3835 C -2745.4283 3227.5437 -2745.4158 3227.869 -2745.5134 3228.0166 C -2745.583 3228.122 -2748.535 3231.096 -2748.57 3231.096 C -2748.5816 3231.096 -2749.286 3230.3986 -2750.1353 3229.546 Z" fill="white"/>
          </g>
        </g>
        <g id="Graphic_7">
          <text transform="translate(-2704.5728 3211.8023)" fill="black">
            <tspan font-family="Helvetica Neue" font-size="16" fill="black" x="0" y="15">Ingress Gateway</tspan>
          </text>
        </g>
        <g id="Graphic_6">
          <path d="M -2773.0706 3241.6268 L -2723.889 3241.6268 C -2719.4707 3241.6268 -2715.889 3245.2085 -2715.889 3249.6268 L -2715.889 3258.7735 C -2715.889 3263.1918 -2719.4707 3266.7735 -2723.889 3266.7735 L -2773.0706 3266.7735 C -2777.489 3266.7735 -2781.0706 3263.1918 -2781.0706 3258.7735 L -2781.0706 3249.6268 C -2781.0706 3245.2085 -2777.489 3241.6268 -2773.0706 3241.6268 Z" fill="#f15623"/>
        </g>
        <g id="Graphic_5">
          <text transform="translate(-2704.5728 3244.976)" fill="black">
            <tspan font-family="Helvetica Neue" font-size="16" fill="black" x="0" y="15">TSB Component</tspan>
          </text>
        </g>
        <g id="Graphic_4">
          <rect x="-2786.4567" y="3174.2696" width="222.5197" height="286.254" stroke="gray" stroke-linecap="round" stroke-linejoin="round" stroke-width="1"/>
        </g>
      </g>
      <g id="Graphic_2">
        <rect x="-3690.72" y="3048.6614" width="295.792" height="24.335999" fill="white"/>
        <text transform="translate(-3685.72 3053.6614)" fill="black">
          <tspan font-family="Helvetica Neue" font-style="italic" font-size="12" fill="black" x="6536993e-19" y="11">1. http://bookinfo.tetrate.io/api/v1/products/1/reviews</tspan>
        </text>
      </g>
      <g id="Line_75">
        <line x1="-3065.7082" y1="3377.593" x2="-3065.7082" y2="3356.795" marker-end="url(#FilledArrow_Marker)" stroke="black" stroke-linecap="round" stroke-linejoin="round" stroke-width="2"/>
      </g>
      <g id="Graphic_77">
        <rect x="-3340.657" y="3089.553" width="96.664" height="24.335999" fill="white"/>
        <text transform="translate(-3335.657 3094.553)" fill="black">
          <tspan font-family="Helvetica Neue" font-style="italic" font-size="12" fill="black" x="32684966e-20" y="11">2. x-tsb-clusters</tspan>
        </text>
      </g>
      <g id="Graphic_78">
        <rect x="-2979.63" y="3338.929" width="78.88" height="22.28" fill="white"/>
        <text transform="translate(-2974.63 3343.929)" fill="black">
          <tspan font-family="Helvetica Neue" font-style="italic" font-size="10" fill="black" x="50448534e-20" y="10">3. x-tsb-service</tspan>
        </text>
      </g>
      <g id="Graphic_57">
        <path d="M -3023.6536 3316.24 L -2966.5656 3316.24 C -2962.1473 3316.24 -2958.5656 3319.8218 -2958.5656 3324.24 L -2958.5656 3335.895 C -2958.5656 3340.3132 -2962.1473 3343.895 -2966.5656 3343.895 L -3023.6536 3343.895 C -3028.072 3343.895 -3031.6536 3340.3132 -3031.6536 3335.895 L -3031.6536 3324.24 C -3031.6536 3319.8218 -3028.072 3316.24 -3023.6536 3316.24 Z" fill="#333"/>
        <text transform="translate(-3026.6536 3323.9225)" fill="white">
          <tspan font-family="Helvetica Neue" font-size="10" fill="white" x="1.9040006" y="10">productpage</tspan>
        </text>
      </g>
      <g id="Line_43">
        <path d="M -2995.413 3343.895 C -2997.3194 3346.979 -3000.42 3350.617 -3005.2863 3354.846 C -3012.0223 3360.6997 -3021.0744 3366.759 -3030.1185 3372.2214" marker-end="url(#FilledArrow_Marker)" stroke="black" stroke-linecap="round" stroke-linejoin="round" stroke-width="2"/>
      </g>
    </g>
  </g>
</svg>
