<svg xmlns="http://www.w3.org/2000/svg" xmlns:xlink="http://www.w3.org/1999/xlink" width="300" zoomAndPan="magnify" viewBox="0 0 224.87999 225" height="300" preserveAspectRatio="xMidYMid meet" version="1.0"><defs><g/><clipPath id="id1"><path d="M 20.492188 18.664062 L 208.042969 18.664062 L 208.042969 206.214844 L 20.492188 206.214844 Z M 20.492188 18.664062 " clip-rule="nonzero"/></clipPath><clipPath id="id2"><path d="M 166.023438 140.421875 L 208.75 140.421875 L 208.75 143.121094 L 166.023438 143.121094 Z M 166.023438 140.421875 " clip-rule="nonzero"/></clipPath><clipPath id="id3"><path d="M 175.066406 113.003906 L 217.792969 113.003906 L 217.792969 115.703125 L 175.066406 115.703125 Z M 175.066406 113.003906 " clip-rule="nonzero"/></clipPath><clipPath id="id4"><path d="M 6.96875 140.417969 L 49.699219 140.417969 L 49.699219 143.117188 L 6.96875 143.117188 Z M 6.96875 140.417969 " clip-rule="nonzero"/></clipPath><clipPath id="id5"><path d="M 12.003906 113.3125 L 58.777344 113.3125 L 58.777344 116.007812 L 12.003906 116.007812 Z M 12.003906 113.3125 " clip-rule="nonzero"/></clipPath><clipPath id="id6"><path d="M 116 67.40625 L 144 67.40625 L 144 125 L 116 125 Z M 116 67.40625 " clip-rule="nonzero"/></clipPath><clipPath id="id7"><path d="M 122 74 L 154.382812 74 L 154.382812 128.875 L 122 128.875 Z M 122 74 " clip-rule="nonzero"/></clipPath><clipPath id="id8"><path d="M 85 67.40625 L 113 67.40625 L 113 125 L 85 125 Z M 85 67.40625 " clip-rule="nonzero"/></clipPath><clipPath id="id9"><path d="M 74.175781 74 L 106 74 L 106 128.875 L 74.175781 128.875 Z M 74.175781 74 " clip-rule="nonzero"/></clipPath><clipPath id="id10"><path d="M 71 124 L 110 124 L 110 160 L 71 160 Z M 71 124 " clip-rule="nonzero"/></clipPath><clipPath id="id11"><path d="M 62.863281 133.558594 L 75.027344 119.703125 L 112.207031 152.34375 L 100.039062 166.199219 Z M 62.863281 133.558594 " clip-rule="nonzero"/></clipPath><clipPath id="id12"><path d="M 62.863281 133.558594 L 86.304688 106.859375 L 123.484375 139.5 L 100.039062 166.199219 Z M 62.863281 133.558594 " clip-rule="nonzero"/></clipPath><clipPath id="id13"><path d="M 76 126 L 81 126 L 81 138 L 76 138 Z M 76 126 " clip-rule="nonzero"/></clipPath><clipPath id="id14"><path d="M 62.863281 133.558594 L 75.027344 119.703125 L 112.207031 152.34375 L 100.039062 166.199219 Z M 62.863281 133.558594 " clip-rule="nonzero"/></clipPath><clipPath id="id15"><path d="M 62.863281 133.558594 L 86.304688 106.859375 L 123.484375 139.5 L 100.039062 166.199219 Z M 62.863281 133.558594 " clip-rule="nonzero"/></clipPath><clipPath id="id16"><path d="M 80 128 L 84 128 L 84 138 L 80 138 Z M 80 128 " clip-rule="nonzero"/></clipPath><clipPath id="id17"><path d="M 62.863281 133.558594 L 75.027344 119.703125 L 112.207031 152.34375 L 100.039062 166.199219 Z M 62.863281 133.558594 " clip-rule="nonzero"/></clipPath><clipPath id="id18"><path d="M 62.863281 133.558594 L 86.304688 106.859375 L 123.484375 139.5 L 100.039062 166.199219 Z M 62.863281 133.558594 " clip-rule="nonzero"/></clipPath><clipPath id="id19"><path d="M 83 130 L 86 130 L 86 139 L 83 139 Z M 83 130 " clip-rule="nonzero"/></clipPath><clipPath id="id20"><path d="M 62.863281 133.558594 L 75.027344 119.703125 L 112.207031 152.34375 L 100.039062 166.199219 Z M 62.863281 133.558594 " clip-rule="nonzero"/></clipPath><clipPath id="id21"><path d="M 62.863281 133.558594 L 86.304688 106.859375 L 123.484375 139.5 L 100.039062 166.199219 Z M 62.863281 133.558594 " clip-rule="nonzero"/></clipPath><clipPath id="id22"><path d="M 120 123 L 157 123 L 157 160 L 120 160 Z M 120 123 " clip-rule="nonzero"/></clipPath><clipPath id="id23"><path d="M 153.335938 119.472656 L 165.898438 132.972656 L 129.683594 166.675781 L 117.121094 153.175781 Z M 153.335938 119.472656 " clip-rule="nonzero"/></clipPath><clipPath id="id24"><path d="M 165.785156 132.847656 L 141.578125 106.835938 L 105.363281 140.542969 L 129.566406 166.550781 Z M 165.785156 132.847656 " clip-rule="nonzero"/></clipPath><clipPath id="id25"><path d="M 147 126 L 153 126 L 153 138 L 147 138 Z M 147 126 " clip-rule="nonzero"/></clipPath><clipPath id="id26"><path d="M 153.335938 119.472656 L 165.898438 132.972656 L 129.683594 166.675781 L 117.121094 153.175781 Z M 153.335938 119.472656 " clip-rule="nonzero"/></clipPath><clipPath id="id27"><path d="M 165.785156 132.847656 L 141.578125 106.835938 L 105.363281 140.542969 L 129.566406 166.550781 Z M 165.785156 132.847656 " clip-rule="nonzero"/></clipPath><clipPath id="id28"><path d="M 145 128 L 148 128 L 148 138 L 145 138 Z M 145 128 " clip-rule="nonzero"/></clipPath><clipPath id="id29"><path d="M 153.335938 119.472656 L 165.898438 132.972656 L 129.683594 166.675781 L 117.121094 153.175781 Z M 153.335938 119.472656 " clip-rule="nonzero"/></clipPath><clipPath id="id30"><path d="M 165.785156 132.847656 L 141.578125 106.835938 L 105.363281 140.542969 L 129.566406 166.550781 Z M 165.785156 132.847656 " clip-rule="nonzero"/></clipPath><clipPath id="id31"><path d="M 143 130 L 146 130 L 146 139 L 143 139 Z M 143 130 " clip-rule="nonzero"/></clipPath><clipPath id="id32"><path d="M 153.335938 119.472656 L 165.898438 132.972656 L 129.683594 166.675781 L 117.121094 153.175781 Z M 153.335938 119.472656 " clip-rule="nonzero"/></clipPath><clipPath id="id33"><path d="M 165.785156 132.847656 L 141.578125 106.835938 L 105.363281 140.542969 L 129.566406 166.550781 Z M 165.785156 132.847656 " clip-rule="nonzero"/></clipPath></defs><path fill="#0a55a7" d="M 114.304688 49.53125 C 80.773438 49.53125 53.589844 76.714844 53.589844 110.25 C 53.589844 143.78125 80.773438 170.964844 114.304688 170.964844 C 147.839844 170.964844 175.023438 143.78125 175.023438 110.25 C 175.023438 76.714844 147.839844 49.53125 114.304688 49.53125 " fill-opacity="1" fill-rule="nonzero"/><path fill="#0a55a7" d="M 114.257812 201.191406 C 90.558594 201.191406 68.242188 191.96875 51.496094 175.1875 C 34.714844 158.441406 25.492188 136.128906 25.492188 112.429688 C 25.492188 88.730469 34.714844 66.414062 51.496094 49.671875 C 68.242188 32.890625 90.558594 23.664062 114.257812 23.664062 C 137.953125 23.664062 160.269531 32.890625 177.015625 49.671875 C 193.796875 66.449219 203.019531 88.730469 203.019531 112.429688 C 203.019531 136.128906 193.796875 158.441406 177.015625 175.1875 C 160.269531 191.96875 137.953125 201.191406 114.257812 201.191406 M 114.257812 28.988281 C 91.976562 28.988281 71.007812 37.679688 55.257812 53.429688 C 39.503906 69.183594 30.8125 90.148438 30.8125 112.429688 C 30.8125 134.707031 39.503906 155.675781 55.257812 171.425781 C 71.007812 187.179688 91.976562 195.871094 114.257812 195.871094 C 136.535156 195.871094 157.503906 187.179688 173.253906 171.425781 C 189.007812 155.675781 197.699219 134.707031 197.699219 112.429688 C 197.699219 90.148438 189.007812 69.183594 173.253906 53.429688 C 157.503906 37.679688 136.535156 28.988281 114.257812 28.988281 " fill-opacity="1" fill-rule="nonzero"/><g clip-path="url(#id1)"><path fill="#0a55a7" d="M 114.265625 206.214844 C 62.558594 206.214844 20.492188 164.148438 20.492188 112.441406 C 20.492188 60.730469 62.558594 18.664062 114.265625 18.664062 C 165.976562 18.664062 208.042969 60.730469 208.042969 112.441406 C 208.042969 164.148438 165.976562 206.214844 114.265625 206.214844 Z M 114.265625 20.324219 C 63.476562 20.324219 22.152344 61.648438 22.152344 112.441406 C 22.152344 163.230469 63.476562 204.554688 114.265625 204.554688 C 165.058594 204.554688 206.378906 163.230469 206.378906 112.441406 C 206.378906 61.648438 165.058594 20.324219 114.265625 20.324219 Z M 114.265625 20.324219 " fill-opacity="1" fill-rule="nonzero"/></g><path fill="#0a55a7" d="M 215.109375 115.648438 L 166.789062 115.648438 L 159.65625 128.015625 L 166.789062 140.386719 L 215.109375 140.386719 L 207.976562 128.015625 L 215.109375 115.648438 " fill-opacity="1" fill-rule="nonzero"/><g clip-path="url(#id2)"><path fill="#ffffff" d="M 166.023438 140.421875 L 208.75 140.421875 L 208.75 143.121094 L 166.023438 143.121094 Z M 166.023438 140.421875 " fill-opacity="1" fill-rule="nonzero"/></g><g clip-path="url(#id3)"><path fill="#ffffff" d="M 175.066406 113.003906 L 217.792969 113.003906 L 217.792969 115.703125 L 175.066406 115.703125 Z M 175.066406 113.003906 " fill-opacity="1" fill-rule="nonzero"/></g><g fill="#ffffff" fill-opacity="1"><g transform="translate(177.992563, 132.617256)"><g><path d="M 3.753906 -10.15625 C 3.261719 -8.320312 2.0625 -5.949219 0.25 -4.460938 L 0.335938 -4.351562 C 2.890625 -5.359375 4.570312 -7.3125 5.515625 -9.078125 C 5.816406 -9.078125 5.921875 -9.171875 5.972656 -9.292969 Z M 7.554688 -5.144531 L 1.976562 -5.144531 L 2.085938 -4.808594 L 3.980469 -4.808594 C 3.910156 -3.035156 3.621094 -0.933594 0.574219 1.007812 L 0.683594 1.164062 C 4.902344 -0.394531 5.636719 -2.675781 5.886719 -4.808594 L 7.675781 -4.808594 C 7.554688 -2.457031 7.363281 -1.019531 7.015625 -0.742188 C 6.90625 -0.660156 6.796875 -0.625 6.605469 -0.625 C 6.308594 -0.625 5.394531 -0.671875 4.773438 -0.71875 L 4.773438 -0.585938 C 5.382812 -0.46875 5.863281 -0.25 6.113281 0.0117188 C 6.34375 0.25 6.414062 0.660156 6.402344 1.164062 C 7.3125 1.164062 7.816406 1.007812 8.273438 0.648438 C 8.980469 0.0976562 9.246094 -1.402344 9.402344 -4.507812 C 9.664062 -4.542969 9.808594 -4.628906 9.902344 -4.734375 L 8.441406 -5.996094 Z M 7.0625 -10.347656 L 6.941406 -10.289062 C 7.507812 -7.328125 8.691406 -5.492188 10.550781 -4.28125 C 10.753906 -4.941406 11.320312 -5.625 11.824219 -5.851562 L 11.847656 -5.996094 C 10.203125 -6.617188 8.453125 -7.792969 7.601562 -9.292969 C 7.828125 -9.570312 7.996094 -9.808594 8.09375 -10 Z M 7.0625 -10.347656 "/></g></g></g><g fill="#ffffff" fill-opacity="1"><g transform="translate(189.981437, 132.617256)"><g><path d="M 4.171875 -5.660156 L 4.171875 -7.027344 L 7.757812 -7.027344 L 7.757812 -5.660156 Z M 4.269531 -7.363281 L 2.433594 -8.046875 L 2.433594 -4.582031 L 2.675781 -4.582031 C 3.382812 -4.582031 4.171875 -4.953125 4.171875 -5.097656 L 4.171875 -5.324219 L 7.757812 -5.324219 L 7.757812 -4.832031 L 8.070312 -4.832031 C 8.621094 -4.832031 9.53125 -5.097656 9.542969 -5.179688 L 9.542969 -6.738281 C 9.796875 -6.796875 9.941406 -6.90625 10.011719 -7.003906 L 8.394531 -8.203125 L 7.636719 -7.363281 Z M 0.550781 -8.203125 L 11.246094 -8.203125 C 11.414062 -8.203125 11.558594 -8.261719 11.59375 -8.394531 C 11.007812 -8.945312 10 -9.761719 10 -9.761719 L 9.113281 -8.539062 L 6.511719 -8.539062 C 7.242188 -9.003906 7.21875 -10.394531 4.640625 -10.300781 L 4.570312 -10.238281 C 4.917969 -9.855469 5.238281 -9.222656 5.300781 -8.621094 C 5.347656 -8.585938 5.394531 -8.5625 5.445312 -8.539062 L 0.457031 -8.539062 Z M 9.234375 -2.183594 L 6.835938 -2.183594 L 6.835938 -2.949219 C 8.09375 -3.117188 9.554688 -3.355469 10.539062 -3.632812 C 10.816406 -3.644531 10.933594 -3.679688 11.042969 -3.789062 L 9.570312 -5.191406 L 8.609375 -4.339844 L 1.355469 -4.339844 L 1.460938 -4.003906 L 8.164062 -4.003906 C 7.734375 -3.777344 7.21875 -3.539062 6.703125 -3.320312 L 4.988281 -3.453125 L 4.988281 -2.183594 L 0.289062 -2.183594 L 0.382812 -1.847656 L 4.988281 -1.847656 L 4.988281 -0.828125 C 4.988281 -0.683594 4.929688 -0.636719 4.773438 -0.636719 C 4.496094 -0.636719 2.9375 -0.730469 2.9375 -0.730469 L 2.9375 -0.585938 C 3.679688 -0.457031 3.945312 -0.277344 4.171875 -0.0351562 C 4.414062 0.226562 4.484375 0.597656 4.53125 1.140625 C 6.535156 0.984375 6.835938 0.382812 6.835938 -0.78125 L 6.835938 -1.847656 L 11.378906 -1.847656 C 11.558594 -1.847656 11.703125 -1.90625 11.726562 -2.039062 C 11.128906 -2.566406 10.121094 -3.355469 10.121094 -3.355469 Z M 9.234375 -2.183594 "/></g></g></g><g fill="#ffffff" fill-opacity="1"><g transform="translate(47.484529, 109.024818)"><g><path d="M 0.890625 -10.859375 C 1.390625 -10.753906 1.6875 -10.816406 1.78125 -11.046875 C 1.8125 -11.128906 1.835938 -11.242188 1.859375 -11.390625 L -2.015625 -11.984375 L -2.109375 -11.34375 C -0.367188 -10.570312 0.578125 -9.546875 0.734375 -8.265625 C 0.773438 -7.910156 0.765625 -7.523438 0.703125 -7.109375 C 0.441406 -5.441406 -0.664062 -4.546875 -2.625 -4.421875 C -3.40625 -4.367188 -4.34375 -4.429688 -5.4375 -4.609375 C -9.019531 -5.179688 -10.640625 -6.632812 -10.296875 -8.96875 C -10.097656 -10.195312 -9.445312 -11.03125 -8.34375 -11.46875 C -7.832031 -11.664062 -7.175781 -11.816406 -6.375 -11.921875 L -6.28125 -12.59375 L -10.15625 -13.140625 C -10.207031 -12.796875 -10.132812 -12.578125 -9.9375 -12.484375 C -9.8125 -12.429688 -9.640625 -12.398438 -9.421875 -12.390625 C -10.210938 -11.335938 -10.71875 -10.125 -10.9375 -8.75 C -11.28125 -6.539062 -10.773438 -4.738281 -9.421875 -3.34375 C -8.441406 -2.34375 -7.238281 -1.726562 -5.8125 -1.5 C -4.113281 -1.238281 -2.609375 -1.5625 -1.296875 -2.46875 C 0.109375 -3.445312 0.960938 -4.890625 1.265625 -6.796875 C 1.472656 -8.140625 1.347656 -9.492188 0.890625 -10.859375 Z M 0.890625 -10.859375 "/></g></g></g><g fill="#ffffff" fill-opacity="1"><g transform="translate(49.211188, 97.946081)"><g><path d="M 3.078125 -9.671875 L -1.015625 -11.0625 L -1.203125 -10.515625 L 0.40625 -9.40625 C 1.175781 -8.863281 1.601562 -8.304688 1.6875 -7.734375 C 1.726562 -7.398438 1.691406 -7.039062 1.578125 -6.65625 L 0.953125 -4.71875 L -9.421875 -8.015625 L -8.90625 -9.609375 L -9.421875 -9.78125 L -11.265625 -4 L -10.75 -3.828125 L -10.265625 -5.34375 L 0.109375 -2.046875 L -0.375 -0.53125 L 0.125 -0.375 Z M 3.078125 -9.671875 "/></g></g></g><g fill="#ffffff" fill-opacity="1"><g transform="translate(51.863407, 88.863721)"><g><path d="M -7.53125 -11.859375 C -8.34375 -10.285156 -8.535156 -8.703125 -8.109375 -7.109375 C -7.660156 -5.460938 -6.628906 -4.222656 -5.015625 -3.390625 C -3.160156 -2.429688 -1.375 -2.351562 0.34375 -3.15625 C 1.664062 -3.757812 2.6875 -4.753906 3.40625 -6.140625 C 4.21875 -7.703125 4.398438 -9.273438 3.953125 -10.859375 C 3.492188 -12.503906 2.457031 -13.738281 0.84375 -14.5625 C -1.09375 -15.570312 -2.929688 -15.644531 -4.671875 -14.78125 C -5.890625 -14.15625 -6.84375 -13.179688 -7.53125 -11.859375 Z M 2.921875 -6.453125 C 2.296875 -5.242188 1.320312 -4.71875 0 -4.875 C -0.9375 -4.976562 -2.113281 -5.394531 -3.53125 -6.125 C -6.226562 -7.53125 -7.519531 -8.941406 -7.40625 -10.359375 C -7.375 -10.742188 -7.253906 -11.140625 -7.046875 -11.546875 C -6.359375 -12.878906 -5.171875 -13.34375 -3.484375 -12.9375 C -2.671875 -12.75 -1.734375 -12.378906 -0.671875 -11.828125 C 1.835938 -10.535156 3.148438 -9.257812 3.265625 -8 C 3.316406 -7.507812 3.203125 -6.992188 2.921875 -6.453125 Z M 2.921875 -6.453125 "/></g></g></g><g fill="#ffffff" fill-opacity="1"><g transform="translate(57.872727, 77.171873)"><g><path d="M -8.859375 -7.1875 L -7.875 -8.453125 L -2.328125 -4.125 C 0.0664062 -2.257812 2.296875 -2.632812 4.359375 -5.25 C 5.679688 -6.925781 5.875 -8.492188 4.9375 -9.953125 C 4.539062 -10.523438 3.972656 -11.101562 3.234375 -11.6875 L -2.078125 -15.84375 L -1.109375 -17.09375 L -1.53125 -17.4375 L -3.9375 -14.34375 L -3.515625 -14 L -2.53125 -15.265625 L 2.875 -11.03125 C 5.03125 -9.332031 5.457031 -7.632812 4.15625 -5.9375 C 3.332031 -4.882812 2.242188 -4.6875 0.890625 -5.34375 C 0.390625 -5.582031 -0.15625 -5.9375 -0.75 -6.40625 L -6.15625 -10.640625 L -5.171875 -11.890625 L -5.59375 -12.234375 L -9.28125 -7.53125 Z M -8.859375 -7.1875 "/></g></g></g><g fill="#ffffff" fill-opacity="1"><g transform="translate(65.218132, 67.637464)"><g><path d="M -7.625 -9.21875 L -7.25 -8.8125 L -6.0625 -9.859375 L 1.125 -1.703125 L -0.0625 -0.65625 L 0.296875 -0.265625 L 4.75 -4.1875 C 6.125 -5.40625 6.890625 -6.832031 7.046875 -8.46875 C 7.191406 -10.070312 6.6875 -11.523438 5.53125 -12.828125 C 4.0625 -14.484375 2.34375 -15.164062 0.375 -14.875 C -0.914062 -14.675781 -2.113281 -14.085938 -3.21875 -13.109375 Z M -2.796875 -12.734375 C -1.753906 -13.660156 -0.609375 -13.769531 0.640625 -13.0625 C 1.378906 -12.601562 2.207031 -11.851562 3.125 -10.8125 C 4.957031 -8.75 5.675781 -7.109375 5.28125 -5.890625 C 5.132812 -5.421875 4.828125 -4.976562 4.359375 -4.5625 L 3.21875 -3.5625 L -3.96875 -11.71875 Z M -2.796875 -12.734375 "/></g></g></g><g fill="#ffffff" fill-opacity="1"><g transform="translate(74.937581, 59.380333)"><g/></g></g><g fill="#ffffff" fill-opacity="1"><g transform="translate(77.503313, 57.23331)"><g><path d="M 2.734375 -14.328125 L 4.140625 -15.078125 L 7.734375 -8.265625 L -2.328125 -12.28125 L -5.296875 -10.71875 L -5.046875 -10.234375 L -3.640625 -10.96875 L 1.421875 -1.34375 L 0.015625 -0.609375 L 0.265625 -0.140625 L 3.90625 -2.0625 C 3.675781 -2.3125 3.4375 -2.382812 3.1875 -2.28125 L 2.171875 -1.75 L -1.703125 -9.109375 L 9.234375 -4.765625 L 10.15625 -5.453125 L 4.890625 -15.46875 L 6.296875 -16.203125 L 6.046875 -16.6875 L 2.484375 -14.8125 Z M 2.734375 -14.328125 "/></g></g></g><g fill="#ffffff" fill-opacity="1"><g transform="translate(88.425023, 51.413352)"><g><path d="M 12.296875 -3.84375 C 12.203125 -4.15625 12.066406 -4.289062 11.890625 -4.25 C 11.835938 -4.238281 11.769531 -4.222656 11.6875 -4.203125 L 11.125 -4.015625 L 3.21875 -13.53125 L 1.828125 -13.09375 L 1.0625 -0.875 L -0.15625 -0.5 L 0 0 L 3.484375 -1.09375 C 3.390625 -1.40625 3.257812 -1.539062 3.09375 -1.5 C 3.03125 -1.488281 2.960938 -1.472656 2.890625 -1.453125 L 1.828125 -1.125 L 2.046875 -5.203125 L 5.828125 -6.375 L 8.390625 -3.171875 L 7.046875 -2.75 L 7.203125 -2.25 Z M 5.4375 -6.890625 L 2.109375 -5.859375 L 2.359375 -10.71875 Z M 5.4375 -6.890625 "/></g></g></g><g fill="#ffffff" fill-opacity="1"><g transform="translate(99.973575, 47.818078)"><g><path d="M 8.75 -1.1875 C 8.625 -1.507812 8.414062 -1.664062 8.125 -1.65625 L 6.78125 -1.46875 L 5.3125 -12.234375 L 5.65625 -12.28125 C 6.601562 -12.40625 7.332031 -12.082031 7.84375 -11.3125 C 7.945312 -11.132812 8.0625 -10.925781 8.1875 -10.6875 L 9.03125 -8.984375 L 9.625 -9.0625 L 8.96875 -13.296875 L -1.25 -11.890625 L -0.75 -7.65625 L -0.171875 -7.734375 L 0.21875 -9.59375 C 0.394531 -10.476562 0.6875 -11.082031 1.09375 -11.40625 C 1.394531 -11.613281 1.769531 -11.75 2.21875 -11.8125 L 2.5625 -11.859375 L 4.03125 -1.09375 L 2.15625 -0.828125 L 2.234375 -0.296875 Z M 8.75 -1.1875 "/></g></g></g><g fill="#ffffff" fill-opacity="1"><g transform="translate(110.360356, 46.495864)"><g><path d="M 6.375 -0.078125 C 6.289062 -0.410156 6.109375 -0.582031 5.828125 -0.59375 L 4.78125 -0.59375 L 4.65625 -11.46875 L 6.25 -11.484375 L 6.234375 -12.03125 L 0.25 -11.953125 L 0.265625 -11.40625 L 1.859375 -11.421875 L 1.984375 -0.546875 L 0.390625 -0.53125 L 0.390625 0 Z M 6.375 -0.078125 "/></g></g></g><g fill="#ffffff" fill-opacity="1"><g transform="translate(116.522976, 46.222542)"><g><path d="M 6.59375 0.875 L 12.078125 -10.0625 L 13.078125 -9.9375 L 13.140625 -10.484375 L 9.765625 -10.890625 L 9.703125 -10.34375 L 11.296875 -10.15625 L 7.3125 -2.140625 L 4.921875 -10.90625 L 6.484375 -10.71875 L 6.546875 -11.265625 L 1.203125 -11.90625 L 1.140625 -11.359375 L 2.15625 -11.234375 L 4.921875 -0.953125 C 5.140625 -0.078125 5.332031 0.4375 5.5 0.59375 C 5.644531 0.71875 5.867188 0.796875 6.171875 0.828125 Z M 6.59375 0.875 "/></g></g></g><g fill="#ffffff" fill-opacity="1"><g transform="translate(127.500714, 47.480794)"><g><path d="M 12.265625 -4.9375 L 13.25 -8.625 L 3.671875 -11.375 L 3.515625 -10.859375 L 5.046875 -10.421875 L 2.046875 0.03125 L 0.515625 -0.40625 L 0.375 0.109375 L 9.953125 2.859375 L 11.078125 -0.8125 L 10.53125 -0.96875 L 9.71875 0.234375 C 9.09375 1.109375 8.394531 1.546875 7.625 1.546875 C 7.382812 1.535156 7.144531 1.492188 6.90625 1.421875 L 4.734375 0.796875 L 6.203125 -4.3125 L 9.890625 -3.25 L 10.0625 -3.828125 L 6.375 -4.890625 L 7.734375 -9.65625 L 9.90625 -9.03125 C 10.945312 -8.726562 11.523438 -8.023438 11.640625 -6.921875 C 11.660156 -6.785156 11.671875 -6.65625 11.671875 -6.53125 L 11.71875 -5.09375 Z M 12.265625 -4.9375 "/></g></g></g><g fill="#ffffff" fill-opacity="1"><g transform="translate(137.846572, 50.621643)"><g/></g></g><g fill="#ffffff" fill-opacity="1"><g transform="translate(141.082174, 51.739068)"><g><path d="M 9 4.71875 L 11.078125 0.921875 L 10.5625 0.65625 L 9.171875 2.046875 C 8.515625 2.703125 7.898438 3.023438 7.328125 3.015625 C 6.992188 2.992188 6.648438 2.890625 6.296875 2.703125 L 4.484375 1.75 L 9.53125 -7.875 L 11.03125 -7.09375 L 11.296875 -7.578125 L 5.90625 -10.390625 L 5.640625 -9.90625 L 7.046875 -9.171875 L 2 0.453125 L 0.59375 -0.28125 L 0.34375 0.1875 Z M 9 4.71875 "/></g></g></g><g fill="#ffffff" fill-opacity="1"><g transform="translate(149.60585, 56.291104)"><g><path d="M 5.25 3.609375 C 5.375 3.285156 5.320312 3.035156 5.09375 2.859375 L 4.234375 2.265625 L 10.390625 -6.703125 L 11.703125 -5.796875 L 12.015625 -6.25 L 7.09375 -9.640625 L 6.78125 -9.1875 L 8.09375 -8.28125 L 1.9375 0.6875 L 0.625 -0.21875 L 0.328125 0.21875 Z M 5.25 3.609375 "/></g></g></g><g fill="#ffffff" fill-opacity="1"><g transform="translate(154.80379, 59.591391)"><g><path d="M 14.265625 0.40625 C 15.085938 -0.507812 15.125 -1.578125 14.375 -2.796875 C 14.0625 -3.304688 13.632812 -3.804688 13.09375 -4.296875 L 8.3125 -8.609375 L 7.9375 -8.203125 L 9.109375 -7.140625 L 1.828125 0.9375 L 0.65625 -0.125 L 0.296875 0.265625 L 5.34375 4.828125 C 6.695312 6.046875 8.035156 6.53125 9.359375 6.28125 C 10.023438 6.125 10.578125 5.804688 11.015625 5.328125 C 12.015625 4.222656 12.0625 2.976562 11.15625 1.59375 C 10.988281 1.34375 10.796875 1.09375 10.578125 0.84375 C 11.722656 1.351562 12.734375 1.378906 13.609375 0.921875 C 13.867188 0.773438 14.085938 0.601562 14.265625 0.40625 Z M 11.890625 -4.625 C 12.972656 -3.625 13.015625 -2.550781 12.015625 -1.40625 C 11.179688 -0.488281 10.328125 -0.238281 9.453125 -0.65625 C 9.253906 -0.769531 9.066406 -0.90625 8.890625 -1.0625 L 8.0625 -1.8125 L 11.1875 -5.265625 Z M 8.890625 -0.296875 C 9.679688 0.410156 9.878906 1.25 9.484375 2.21875 C 9.335938 2.550781 9.125 2.867188 8.84375 3.171875 C 7.644531 4.503906 6.46875 4.785156 5.3125 4.015625 C 5.164062 3.921875 5.023438 3.816406 4.890625 3.703125 L 3.90625 2.8125 L 7.6875 -1.390625 Z M 8.890625 -0.296875 "/></g></g></g><g fill="#ffffff" fill-opacity="1"><g transform="translate(163.347162, 67.213685)"><g><path d="M 3.9375 5.015625 L 4.359375 4.6875 L 3.375 3.4375 L 7.234375 0.390625 L 7.828125 1.140625 L 5.375 6.875 L 7.546875 9.609375 C 7.773438 9.429688 7.84375 9.242188 7.75 9.046875 C 7.71875 8.992188 7.679688 8.941406 7.640625 8.890625 L 7.484375 8.6875 L 9.65625 3.078125 C 10.8125 3.929688 11.9375 4.132812 13.03125 3.6875 C 13.300781 3.570312 13.550781 3.425781 13.78125 3.25 C 14.550781 2.644531 14.898438 1.816406 14.828125 0.765625 C 14.773438 -0.140625 14.421875 -1.007812 13.765625 -1.84375 L 9.640625 -7.078125 L 9.203125 -6.734375 L 10.1875 -5.484375 L 1.640625 1.234375 L 0.65625 -0.015625 L 0.234375 0.3125 Z M 12.59375 -2.4375 C 13.257812 -1.582031 13.269531 -0.695312 12.625 0.21875 C 12.414062 0.5 12.164062 0.753906 11.875 0.984375 C 10.976562 1.691406 10.140625 1.90625 9.359375 1.625 C 9.003906 1.519531 8.707031 1.3125 8.46875 1 L 7.703125 0.03125 L 11.921875 -3.28125 Z M 12.59375 -2.4375 "/></g></g></g><g fill="#ffffff" fill-opacity="1"><g transform="translate(170.476337, 76.127246)"><g><path d="M 6.078125 11.375 C 6.359375 11.21875 6.46875 11.054688 6.40625 10.890625 C 6.382812 10.828125 6.351562 10.757812 6.3125 10.6875 L 6.03125 10.171875 L 13.90625 0.625 L 13.203125 -0.671875 L 1.078125 0.875 L 0.46875 -0.25 L 0 0 L 1.71875 3.21875 C 2 3.0625 2.113281 2.90625 2.0625 2.75 C 2.039062 2.695312 2.007812 2.632812 1.96875 2.5625 L 1.453125 1.578125 L 5.5 1.03125 L 7.359375 4.53125 L 4.6875 7.640625 L 4.03125 6.40625 L 3.5625 6.65625 Z M 7.78125 4.046875 L 6.140625 0.984375 L 10.984375 0.3125 Z M 7.78125 4.046875 "/></g></g></g><g fill="#ffffff" fill-opacity="1"><g transform="translate(176.204664, 86.744487)"><g><path d="M 1.984375 6.0625 L 2.484375 5.890625 L 1.984375 4.375 L 6.671875 2.84375 L 6.96875 3.765625 L 2.6875 8.28125 L 3.796875 11.609375 C 4.078125 11.515625 4.203125 11.363281 4.171875 11.15625 C 4.160156 11.101562 4.144531 11.039062 4.125 10.96875 L 4.046875 10.734375 L 8.015625 6.203125 C 8.804688 7.398438 9.796875 7.972656 10.984375 7.921875 C 11.265625 7.921875 11.546875 7.875 11.828125 7.78125 C 12.753906 7.476562 13.367188 6.8125 13.671875 5.78125 C 13.921875 4.925781 13.878906 3.992188 13.546875 2.984375 L 11.484375 -3.34375 L 10.96875 -3.171875 L 11.453125 -1.65625 L 1.109375 1.71875 L 0.625 0.203125 L 0.125 0.375 Z M 12.671875 2.015625 C 13.003906 3.046875 12.710938 3.882812 11.796875 4.53125 C 11.492188 4.71875 11.160156 4.875 10.796875 5 C 9.722656 5.34375 8.875 5.253906 8.25 4.734375 C 7.957031 4.515625 7.75 4.21875 7.625 3.84375 L 7.234375 2.671875 L 12.328125 1 Z M 12.671875 2.015625 "/></g></g></g><g fill="#ffffff" fill-opacity="1"><g transform="translate(179.798563, 97.613665)"><g><path d="M 1.34375 8.875 C 1.664062 8.75 1.816406 8.546875 1.796875 8.265625 L 1.625 7.125 L 6.234375 6.421875 L 12.234375 8.265625 C 12.628906 8.453125 12.863281 8.742188 12.9375 9.140625 C 13.0625 9.460938 13.265625 9.617188 13.546875 9.609375 L 13.015625 6.140625 L 12.484375 6.21875 L 12.71875 7.796875 L 6.859375 5.953125 L 11.890625 2.25 L 12.109375 3.75 L 12.640625 3.671875 L 11.8125 -1.84375 L 11.28125 -1.765625 L 11.421875 -0.84375 L 5.671875 3.6875 L 1.203125 4.375 L 0.953125 2.703125 L 0.421875 2.78125 Z M 1.34375 8.875 "/></g></g></g><path fill="#0a55a7" d="M 13.230469 140.414062 L 61.820312 140.414062 L 68.996094 128.042969 L 61.820312 115.675781 L 13.230469 115.675781 L 20.40625 128.042969 L 13.230469 140.414062 " fill-opacity="1" fill-rule="nonzero"/><g clip-path="url(#id4)"><path fill="#ffffff" d="M 6.96875 140.417969 L 49.699219 140.417969 L 49.699219 143.117188 L 6.96875 143.117188 Z M 6.96875 140.417969 " fill-opacity="1" fill-rule="nonzero"/></g><g clip-path="url(#id5)"><path fill="#ffffff" d="M 12.003906 113.3125 L 58.777344 113.3125 L 58.777344 116.007812 L 12.003906 116.007812 Z M 12.003906 113.3125 " fill-opacity="1" fill-rule="nonzero"/></g><g fill="#ffffff" fill-opacity="1"><g transform="translate(26.01189, 132.617256)"><g><path d="M 5.214844 -5 L 5.214844 -8.730469 L 6.847656 -8.730469 L 6.847656 -5 Z M 9.449219 -5 L 8.707031 -5 L 8.707031 -8.730469 L 10.875 -8.730469 C 11.042969 -8.730469 11.175781 -8.789062 11.210938 -8.921875 C 10.671875 -9.414062 9.75 -10.132812 9.75 -10.132812 L 8.945312 -9.066406 L 0.898438 -9.066406 L 0.996094 -8.730469 L 3.371094 -8.730469 L 3.371094 -5 L 0.394531 -5 L 0.492188 -4.664062 L 3.371094 -4.664062 C 3.308594 -2.421875 2.816406 -0.515625 0.335938 1.03125 L 0.40625 1.113281 C 4.53125 -0.0976562 5.144531 -2.375 5.203125 -4.664062 L 6.847656 -4.664062 L 6.847656 1.042969 L 7.195312 1.042969 C 8.152344 1.042969 8.707031 0.660156 8.707031 0.550781 L 8.707031 -4.664062 L 11.367188 -4.664062 C 11.535156 -4.664062 11.667969 -4.722656 11.703125 -4.855469 C 11.199219 -5.40625 10.265625 -6.28125 10.265625 -6.28125 Z M 9.449219 -5 "/></g></g></g><g fill="#ffffff" fill-opacity="1"><g transform="translate(38.000764, 132.617256)"><g><path d="M 0.972656 -10.058594 C 1.296875 -9.570312 1.65625 -8.859375 1.75 -8.175781 C 3.203125 -7.121094 4.652344 -9.832031 1.054688 -10.121094 Z M 0.226562 -7.253906 C 0.539062 -6.824219 0.875 -6.164062 0.945312 -5.539062 C 2.3125 -4.554688 3.691406 -7.109375 0.3125 -7.3125 Z M 3.585938 -8.441406 C 1.617188 -3.320312 1.617188 -3.320312 1.378906 -2.855469 C 1.257812 -2.601562 1.199219 -2.601562 1.019531 -2.601562 L 0.492188 -2.601562 L 0.492188 -2.386719 C 0.742188 -2.363281 0.945312 -2.300781 1.113281 -2.183594 C 1.402344 -1.992188 1.449219 -0.742188 1.199219 0.515625 C 1.320312 1.007812 1.65625 1.152344 1.953125 1.152344 C 2.601562 1.152344 3.058594 0.707031 3.082031 0.0703125 C 3.117188 -1.066406 2.566406 -1.449219 2.542969 -2.160156 C 2.53125 -2.46875 2.589844 -2.925781 2.675781 -3.355469 C 2.792969 -4.078125 3.40625 -6.882812 3.765625 -8.40625 Z M 5.949219 -2.984375 C 5.765625 -2.003906 5.277344 -0.527344 4.59375 0.433594 L 4.699219 0.550781 C 5.816406 -0.0820312 6.691406 -1.113281 7.242188 -1.992188 C 7.53125 -1.964844 7.636719 -2.039062 7.6875 -2.171875 Z M 9.328125 -2.675781 C 9.738281 -1.929688 10.191406 -0.910156 10.300781 -0.0117188 C 11.59375 1.066406 12.867188 -1.523438 9.449219 -2.734375 Z M 9.542969 -6.992188 L 9.542969 -5.5625 L 7.398438 -5.5625 L 7.398438 -6.992188 Z M 7.398438 -3.910156 L 7.398438 -5.226562 L 9.542969 -5.226562 L 9.542969 -3.910156 Z M 9.4375 -9.148438 L 5.660156 -9.148438 L 3.8125 -9.785156 L 3.8125 -6.222656 C 3.8125 -3.910156 3.777344 -1.140625 2.839844 1.042969 L 2.960938 1.113281 C 5.324219 -0.886719 5.417969 -4.015625 5.417969 -6.222656 L 5.417969 -8.8125 L 7.566406 -8.8125 C 7.566406 -8.285156 7.542969 -7.722656 7.519531 -7.328125 L 7.457031 -7.328125 L 5.898438 -7.9375 L 5.898438 -2.996094 L 6.113281 -2.996094 C 6.75 -2.996094 7.398438 -3.332031 7.398438 -3.464844 L 7.398438 -3.574219 L 7.722656 -3.574219 L 7.722656 -0.851562 C 7.722656 -0.730469 7.675781 -0.660156 7.519531 -0.660156 C 7.300781 -0.660156 6.367188 -0.707031 6.367188 -0.707031 L 6.367188 -0.5625 C 6.894531 -0.457031 7.109375 -0.277344 7.242188 -0.0351562 C 7.386719 0.214844 7.433594 0.613281 7.445312 1.152344 C 9.078125 1.019531 9.316406 0.25 9.316406 -0.816406 L 9.316406 -3.574219 L 9.542969 -3.574219 L 9.542969 -3.140625 L 9.808594 -3.140625 C 10.3125 -3.140625 11.078125 -3.417969 11.089844 -3.5 L 11.089844 -6.785156 C 11.296875 -6.835938 11.4375 -6.917969 11.5 -7.003906 L 10.109375 -8.046875 L 9.4375 -7.328125 L 8.023438 -7.328125 C 8.40625 -7.578125 8.800781 -7.902344 9.136719 -8.238281 C 9.402344 -8.261719 9.554688 -8.371094 9.605469 -8.539062 L 8.332031 -8.8125 L 11.414062 -8.8125 C 11.582031 -8.8125 11.726562 -8.871094 11.75 -9.003906 C 11.199219 -9.507812 10.265625 -10.253906 10.265625 -10.253906 Z M 9.4375 -9.148438 "/></g></g></g><g clip-path="url(#id6)"><path fill="#ffffff" d="M 116.253906 78.46875 C 116.253906 78.46875 122.988281 71.402344 127.523438 69.558594 C 132.058594 67.71875 143.46875 67.417969 143.46875 67.417969 L 143.46875 113.316406 C 143.46875 113.316406 133.097656 113.84375 128.5625 115.683594 C 124.027344 117.527344 116.253906 124.367188 116.253906 124.367188 Z M 116.253906 78.46875 " fill-opacity="1" fill-rule="nonzero"/></g><path fill="#ffffff" d="M 149.183594 70.800781 C 149.183594 70.800781 147.425781 70.847656 145.027344 71.015625 L 145.027344 115.121094 C 145.027344 115.121094 134.65625 115.644531 130.121094 117.488281 C 127.761719 118.445312 122.191406 121.65625 119.628906 123.65625 L 118.332031 127.746094 C 118.332031 127.746094 127.144531 122.9375 131.679688 121.09375 C 136.214844 119.253906 149.183594 116.699219 149.183594 116.699219 Z M 149.183594 70.800781 " fill-opacity="1" fill-rule="nonzero"/><g clip-path="url(#id7)"><path fill="#0a55a7" d="M 154.378906 74.632812 C 154.378906 74.632812 153.109375 74.671875 151.261719 74.78125 L 151.261719 118.503906 C 151.261719 118.503906 140.890625 119.027344 136.355469 120.871094 C 133.660156 121.964844 127.496094 124.140625 124.824219 126.28125 L 122.75 128.875 C 122.75 128.875 134.9375 124.742188 139.472656 122.898438 C 144.007812 121.058594 154.378906 120.53125 154.378906 120.53125 Z M 154.378906 74.632812 " fill-opacity="1" fill-rule="nonzero"/></g><g clip-path="url(#id8)"><path fill="#ffffff" d="M 112.300781 78.46875 C 112.300781 78.46875 105.566406 71.402344 101.03125 69.558594 C 96.496094 67.71875 85.085938 67.417969 85.085938 67.417969 L 85.085938 113.316406 C 85.085938 113.316406 95.457031 113.84375 99.992188 115.683594 C 104.527344 117.527344 112.300781 124.367188 112.300781 124.367188 Z M 112.300781 78.46875 " fill-opacity="1" fill-rule="nonzero"/></g><path fill="#ffffff" d="M 79.371094 70.800781 C 79.371094 70.800781 81.128906 70.847656 83.527344 71.015625 L 83.527344 115.121094 C 83.527344 115.121094 93.898438 115.644531 98.433594 117.488281 C 100.792969 118.445312 106.363281 121.65625 108.925781 123.65625 L 110.222656 127.746094 C 110.222656 127.746094 101.410156 122.9375 96.875 121.09375 C 92.339844 119.253906 79.371094 116.699219 79.371094 116.699219 Z M 79.371094 70.800781 " fill-opacity="1" fill-rule="nonzero"/><g clip-path="url(#id9)"><path fill="#0a55a7" d="M 74.175781 74.632812 C 74.175781 74.632812 75.449219 74.671875 77.292969 74.78125 L 77.292969 118.503906 C 77.292969 118.503906 87.664062 119.027344 92.199219 120.871094 C 94.894531 121.964844 101.058594 124.140625 103.730469 126.28125 L 105.808594 128.875 C 105.808594 128.875 93.617188 124.742188 89.082031 122.898438 C 84.546875 121.058594 74.175781 120.53125 74.175781 120.53125 Z M 74.175781 74.632812 " fill-opacity="1" fill-rule="nonzero"/></g><g clip-path="url(#id10)"><g clip-path="url(#id11)"><g clip-path="url(#id12)"><path fill="#ffffff" d="M 86.210938 144.792969 C 84.261719 143.667969 81.46875 142.390625 80.664062 140.21875 C 80.011719 138.453125 81.789062 137.667969 83.953125 138.449219 C 85.605469 139.042969 86.9375 140.207031 88.503906 140.949219 C 94.183594 143.636719 95.183594 143.15625 99.109375 143.25 C 103.769531 143.363281 103.457031 148.140625 106.601562 150.40625 C 108.84375 152.023438 109.164062 151.988281 109.035156 153.035156 C 108.757812 155.308594 107.578125 157 105.730469 158.25 C 100.152344 162.019531 102.1875 156.234375 94 153.359375 C 90.058594 151.976562 84.828125 152.84375 81.023438 147.035156 C 79.832031 145.214844 78.488281 143.496094 77.257812 141.695312 C 76.179688 140.117188 71.675781 128.476562 71.574219 125.503906 C 71.519531 123.917969 73.679688 123.664062 75.023438 126.28125 C 78.222656 132.496094 76.691406 131.308594 79.636719 137.320312 C 80.292969 138.65625 77.78125 141.265625 84.167969 144.105469 C 84.824219 144.394531 85.4375 144.839844 86.210938 144.792969 Z M 86.210938 144.792969 " fill-opacity="1" fill-rule="nonzero"/></g></g></g><g clip-path="url(#id13)"><g clip-path="url(#id14)"><g clip-path="url(#id15)"><path fill="#ffffff" d="M 80.9375 136.457031 C 80.992188 136.800781 80.996094 137.183594 80.574219 137.285156 C 80.1875 137.378906 80.023438 137.054688 79.90625 136.753906 C 76.761719 128.699219 74.742188 125.394531 78.089844 126.628906 C 80.140625 127.386719 79.839844 129.558594 80.9375 136.457031 Z M 80.9375 136.457031 " fill-opacity="1" fill-rule="nonzero"/></g></g></g><g clip-path="url(#id16)"><g clip-path="url(#id17)"><g clip-path="url(#id18)"><path fill="#ffffff" d="M 82.910156 130.011719 C 83.132812 132.160156 83.164062 134.320312 83.125 136.476562 C 83.121094 136.792969 83.28125 137.308594 82.78125 137.367188 C 81.386719 137.542969 81.40625 135.875 80.601562 129.796875 C 80.242188 127.074219 82.734375 128.3125 82.910156 130.011719 Z M 82.910156 130.011719 " fill-opacity="1" fill-rule="nonzero"/></g></g></g><g clip-path="url(#id19)"><g clip-path="url(#id20)"><g clip-path="url(#id21)"><path fill="#ffffff" d="M 84.417969 138.128906 C 83.757812 137.71875 83.605469 137.167969 83.554688 136.601562 C 82.820312 128.246094 85.460938 131.089844 85.5625 131.941406 C 85.773438 133.703125 85.285156 137.382812 85.195312 137.738281 C 85.003906 138.480469 84.953125 138.53125 84.417969 138.128906 Z M 84.417969 138.128906 " fill-opacity="1" fill-rule="nonzero"/></g></g></g><g clip-path="url(#id22)"><g clip-path="url(#id23)"><g clip-path="url(#id24)"><path fill="#ffffff" d="M 142.769531 144.753906 C 144.683594 143.574219 147.445312 142.21875 148.183594 140.023438 C 148.785156 138.238281 146.988281 137.503906 144.84375 138.347656 C 143.210938 138.988281 141.910156 140.191406 140.367188 140.976562 C 134.769531 143.828125 133.753906 143.375 129.832031 143.585938 C 125.179688 143.832031 125.628906 148.601562 122.554688 150.957031 C 120.359375 152.636719 120.035156 152.609375 120.195312 153.652344 C 120.539062 155.917969 121.765625 157.574219 123.652344 158.769531 C 129.332031 162.375 127.132812 156.652344 135.234375 153.542969 C 139.132812 152.042969 144.386719 152.761719 148.019531 146.847656 C 149.160156 144.992188 150.453125 143.234375 151.628906 141.398438 C 152.660156 139.789062 156.828125 128.027344 156.84375 125.050781 C 156.851562 123.460938 154.683594 123.273438 153.417969 125.925781 C 150.402344 132.230469 151.898438 131 149.125 137.09375 C 148.511719 138.445312 151.097656 140.984375 144.792969 144.007812 C 144.144531 144.316406 143.546875 144.777344 142.769531 144.753906 Z M 142.769531 144.753906 " fill-opacity="1" fill-rule="nonzero"/></g></g></g><g clip-path="url(#id25)"><g clip-path="url(#id26)"><g clip-path="url(#id27)"><path fill="#ffffff" d="M 147.800781 136.269531 C 147.753906 136.617188 147.761719 136.996094 148.1875 137.085938 C 148.574219 137.171875 148.730469 136.839844 148.839844 136.539062 C 151.75 128.390625 153.675781 125.03125 150.363281 126.363281 C 148.335938 127.179688 148.699219 129.34375 147.800781 136.269531 Z M 147.800781 136.269531 " fill-opacity="1" fill-rule="nonzero"/></g></g></g><g clip-path="url(#id28)"><g clip-path="url(#id29)"><g clip-path="url(#id30)"><path fill="#ffffff" d="M 145.644531 129.882812 C 145.484375 132.039062 145.515625 134.195312 145.613281 136.351562 C 145.628906 136.667969 145.484375 137.1875 145.984375 137.234375 C 147.382812 137.367188 147.316406 135.703125 147.941406 129.601562 C 148.222656 126.871094 145.769531 128.179688 145.644531 129.882812 Z M 145.644531 129.882812 " fill-opacity="1" fill-rule="nonzero"/></g></g></g><g clip-path="url(#id31)"><g clip-path="url(#id32)"><g clip-path="url(#id33)"><path fill="#ffffff" d="M 144.371094 138.042969 C 145.019531 137.613281 145.15625 137.058594 145.1875 136.492188 C 145.679688 128.117188 143.125 131.035156 143.046875 131.890625 C 142.890625 133.65625 143.480469 137.320312 143.582031 137.671875 C 143.796875 138.40625 143.847656 138.460938 144.371094 138.042969 Z M 144.371094 138.042969 " fill-opacity="1" fill-rule="nonzero"/></g></g></g><g fill="#ffffff" fill-opacity="1"><g transform="translate(46.987072, 153.928267)"><g><path d="M 19.683594 3.65625 C 19.855469 3.867188 20.058594 3.976562 20.246094 3.894531 C 20.285156 2.59375 20.203125 0.515625 20.203125 0.515625 L 17.832031 0.554688 L 12 -6.6875 L 11.699219 -6.257812 Z M 15.003906 4.980469 L 7.015625 -4.933594 L 6.714844 -4.507812 L 10.898438 0.6875 C 8.824219 1.320312 4.988281 1.546875 3.445312 0.921875 C 3.132812 0.824219 2.652344 0.425781 2.652344 0.425781 L 0.667969 3.179688 C 0.871094 3.316406 1.128906 3.410156 1.433594 3.414062 C 4.664062 6.21875 7.367188 8.402344 9.308594 9.867188 C 8.921875 10.59375 8.503906 11.277344 8.03125 11.890625 C 8.144531 15.675781 14.402344 13.292969 11.289062 4.898438 L 11.105469 4.839844 C 10.773438 6.265625 10.269531 7.820312 9.605469 9.257812 C 7.296875 6.476562 5.089844 3.796875 3.738281 2.089844 C 6.058594 3.109375 9.324219 3.921875 11.347656 4 C 11.558594 4.316406 11.800781 4.417969 11.988281 4.363281 L 11.382812 1.289062 L 16.910156 8.152344 C 17.082031 8.363281 17.285156 8.476562 17.472656 8.394531 C 17.515625 7.066406 17.4375 4.9375 17.4375 4.9375 Z M 15.003906 4.980469 "/></g></g></g><g fill="#ffffff" fill-opacity="1"><g transform="translate(66.084793, 174.712056)"><g><path d="M 12.5625 3.253906 C 12.800781 4.609375 12.871094 6.425781 12.496094 7.835938 C 13.820312 10.503906 17.890625 7.273438 12.742188 3.234375 Z M 16.351562 -2.214844 L 15.332031 -0.5 L 11.265625 -2.914062 L 12.285156 -4.628906 Z M 13.972656 1.789062 L 9.90625 -0.625 L 11.007812 -2.480469 L 15.074219 -0.0664062 Z M 19.140625 -4.761719 L 11.296875 -9.417969 L 9.460938 -11.886719 L 6.449219 -6.816406 C 4.660156 -3.800781 2.515625 -0.328125 -0.488281 1.632812 L -0.40625 1.808594 C 4.363281 1.210938 6.851562 -2.667969 8.578125 -5.574219 L 10.714844 -9.175781 L 14.566406 -6.890625 C 14.109375 -6.117188 13.5625 -5.269531 13.175781 -4.6875 L 12.632812 -5.007812 L 10.890625 -7.214844 L 6.914062 -0.515625 L 7.222656 -0.332031 L 7.347656 -0.261719 C 6.054688 0.792969 4.050781 1.878906 2.152344 2.21875 L 2.171875 2.4375 C 4.550781 2.972656 6.933594 2.691406 8.671875 2.054688 C 9 2.308594 9.21875 2.292969 9.390625 2.183594 L 8.007812 0.00390625 C 8.714844 0.21875 9.402344 0.226562 9.484375 0.0859375 L 9.648438 -0.191406 L 10.65625 0.40625 L 8.636719 3.808594 C 8.542969 3.960938 8.425781 4.019531 8.210938 3.890625 C 7.902344 3.707031 6.617188 2.839844 6.617188 2.839844 L 6.507812 3.023438 C 7.179688 3.613281 7.308594 4.003906 7.34375 4.398438 C 7.375 4.835938 7.152344 5.355469 6.78125 6.011719 C 9.148438 7.207031 9.988281 6.535156 10.804688 5.15625 L 12.851562 1.710938 L 13.714844 2.222656 L 13.402344 2.75 L 13.789062 2.976562 C 14.53125 3.417969 15.839844 3.609375 15.941406 3.480469 L 18.335938 -0.554688 C 18.707031 -0.441406 18.988281 -0.460938 19.15625 -0.527344 L 18.058594 -3.230469 L 16.453125 -2.738281 L 13.777344 -4.328125 C 14.53125 -4.363281 15.363281 -4.496094 16.117188 -4.675781 C 16.476562 -4.503906 16.757812 -4.523438 16.949219 -4.703125 L 14.707031 -6.808594 L 21.402344 -2.835938 C 21.632812 -2.695312 21.851562 -2.671875 21.980469 -2.824219 C 21.648438 -3.882812 21.015625 -5.53125 21.015625 -5.53125 Z M 19.140625 -4.761719 "/></g></g></g><g fill="#ffffff" fill-opacity="1"><g transform="translate(91.242907, 187.508835)"><g><path d="M 13.089844 2.601562 L 10.152344 2.070312 L 11.128906 -3.34375 L 16.242188 -2.421875 C 16.507812 -2.375 16.71875 -2.429688 16.808594 -2.613281 C 15.976562 -3.585938 14.582031 -5.0625 14.582031 -5.0625 L 12.847656 -3.546875 L 11.21875 -3.839844 L 12.039062 -8.390625 L 17.597656 -7.386719 C 17.878906 -7.335938 18.089844 -7.386719 18.179688 -7.574219 C 17.335938 -8.585938 15.996094 -9.960938 15.996094 -9.960938 L 14.289062 -8.496094 L 12.128906 -8.882812 L 12.75 -12.335938 C 13.261719 -12.316406 13.414062 -12.472656 13.5 -12.730469 L 10.070312 -13.679688 L 9.296875 -9.394531 L 6.890625 -9.832031 C 7.429688 -10.480469 7.925781 -11.214844 8.414062 -12.003906 C 8.839844 -11.925781 9.097656 -12.042969 9.210938 -12.261719 L 5.820312 -13.933594 C 4.765625 -10.816406 2.949219 -7.746094 1.316406 -5.867188 L 1.46875 -5.710938 C 3.34375 -6.488281 5.023438 -7.683594 6.519531 -9.386719 L 9.207031 -8.898438 L 8.386719 -4.351562 L 3.625 -5.210938 L 3.679688 -4.691406 L 8.296875 -3.855469 L 7.320312 1.558594 L 0.402344 0.308594 L 0.453125 0.832031 L 16.574219 3.742188 C 16.859375 3.792969 17.070312 3.738281 17.15625 3.554688 C 16.316406 2.542969 14.894531 1.007812 14.894531 1.007812 Z M 13.089844 2.601562 "/></g></g></g><g fill="#ffffff" fill-opacity="1"><g transform="translate(119.287148, 190.704004)"><g><path d="M 3.132812 -10.796875 C 4.484375 -11.699219 5.613281 -12.945312 6.429688 -14.28125 L 11.527344 -15.199219 C 11.554688 -14.457031 11.542969 -13.503906 11.496094 -12.855469 L 11.636719 -12.773438 C 12.476562 -13.398438 13.550781 -14.414062 14.152344 -15.144531 C 14.515625 -15.246094 14.6875 -15.3125 14.800781 -15.5 L 12.3125 -17.132812 L 11.316406 -15.675781 L 6.765625 -14.851562 C 6.996094 -15.296875 7.210938 -15.738281 7.382812 -16.1875 C 7.859375 -16.292969 7.980469 -16.425781 7.980469 -16.625 L 4.582031 -16.523438 C 4.527344 -14.59375 3.921875 -12.292969 2.96875 -10.898438 Z M -1.546875 -14.742188 C -0.851562 -14.335938 -0.117188 -13.519531 0.175781 -12.695312 C 2.476562 -11.792969 3.425781 -16.058594 -1.441406 -14.871094 Z M 12.101562 -3.71875 C 12.914062 -3.867188 14.132812 -4.507812 14.132812 -4.617188 L 13.488281 -8.191406 C 13.847656 -8.328125 14.027344 -8.542969 14.109375 -8.703125 L 11.476562 -10.019531 L 10.582031 -8.597656 L 4.566406 -7.511719 L 2.996094 -7.796875 C 3.027344 -7.929688 3.039062 -8.078125 3.011719 -8.21875 C 2.867188 -9.324219 2.175781 -9.621094 2.058594 -10.257812 C 2 -10.574219 2.121094 -11.035156 2.28125 -11.46875 C 2.476562 -11.996094 3.617188 -14.285156 4.105469 -15.324219 L 3.851562 -15.421875 C 1.027344 -11.515625 1.027344 -11.515625 0.582031 -10.960938 C 0.34375 -10.644531 0.273438 -10.628906 -0.078125 -10.566406 L -1.035156 -10.394531 L -0.972656 -10.058594 C -0.632812 -10.082031 -0.355469 -10.058594 -0.0664062 -9.984375 C 0.402344 -9.832031 0.660156 -8.890625 0.707031 -7.417969 C 0.914062 -6.980469 1.324219 -6.742188 1.730469 -6.816406 C 1.800781 -6.832031 1.855469 -6.839844 1.925781 -6.851562 L 2.917969 -1.347656 L 3.273438 -1.414062 C 4.296875 -1.597656 5.332031 -2.351562 5.289062 -2.582031 L 4.496094 -6.988281 L 10.847656 -8.132812 L 11.648438 -3.691406 C 10.875 -3.625 9.996094 -3.539062 9.003906 -3.378906 C 9.328125 -4.296875 9.3125 -5.300781 9.253906 -6.4375 C 9.660156 -6.511719 9.824219 -6.726562 9.851562 -6.96875 L 6.503906 -6.984375 C 7.050781 -3.449219 7.136719 -1.46875 0.800781 1.300781 L 0.941406 1.566406 C 5.933594 0.0820312 7.988281 -1.296875 8.78125 -2.882812 C 11.300781 -2.585938 13.082031 -1.832031 14.117188 -1.269531 C 16.386719 -0.234375 19.148438 -4.058594 12.050781 -3.710938 Z M 9.445312 -13.785156 C 9.828125 -13.890625 9.96875 -14.117188 9.964844 -14.351562 L 6.917969 -14.019531 C 7.226562 -11.792969 7.199219 -10.125 3.683594 -8.046875 L 3.839844 -7.78125 C 8.414062 -9.46875 9.324219 -11.019531 9.433594 -12.832031 C 10.222656 -11.199219 11.625 -9.609375 14.144531 -9.3125 C 13.960938 -10.742188 14.441406 -11.414062 15.539062 -11.90625 L 15.5 -12.117188 C 12.109375 -11.871094 10.207031 -12.386719 9.457031 -13.511719 Z M 9.445312 -13.785156 "/></g></g></g><g fill="#ffffff" fill-opacity="1"><g transform="translate(146.679084, 183.89442)"><g><path d="M 0.625 -11.347656 C 0.859375 -12.472656 0.980469 -13.921875 1.015625 -15.199219 C 1.316406 -15.398438 1.445312 -15.640625 1.429688 -15.84375 C 2.128906 -15.441406 2.828125 -14.894531 3.304688 -14.300781 C 5.875 -14.027344 5.519531 -18.5 0.597656 -16.433594 L 0.519531 -16.285156 C 0.792969 -16.175781 1.074219 -16.050781 1.363281 -15.886719 L -1.347656 -15.199219 C -0.761719 -13.894531 -0.0664062 -12.300781 0.335938 -11.304688 Z M 2.511719 -12.363281 C 3.550781 -12.125 4.800781 -11.464844 5.523438 -10.597656 C 8.074219 -10.460938 7.421875 -14.945312 2.578125 -12.53125 Z M -6.5625 -11.976562 C -5.703125 -11.230469 -4.710938 -10.191406 -4.105469 -9.066406 C -1.765625 -8.402344 -1.589844 -12.542969 -6.429688 -12.140625 Z M 1.035156 -9.566406 L 3.449219 -10.996094 C 3.664062 -11.125 3.789062 -11.304688 3.734375 -11.5 C 2.734375 -11.703125 1.148438 -11.910156 1.148438 -11.910156 L 0.933594 -10.089844 L 0.777344 -9.996094 L -2.460938 -15.457031 C -2.066406 -15.777344 -2.046875 -15.996094 -2.15625 -16.246094 L -4.886719 -14.960938 L -1.230469 -8.804688 L -3.875 -7.234375 L -3.496094 -6.875 L -1.53125 -8.042969 C -0.71875 -5.824219 -0.128906 -3.25 -0.261719 -1.140625 L -0.0117188 -1.078125 C 0.542969 -2.328125 0.910156 -3.613281 1.070312 -4.921875 L 3.824219 -0.285156 L 4.210938 -0.511719 C 4.96875 -0.964844 5.542969 -1.972656 5.421875 -2.171875 L 1.613281 -8.589844 C 2.515625 -8.164062 3.511719 -7.4375 4.121094 -6.585938 C 6.644531 -6.246094 6.390625 -10.691406 1.457031 -8.855469 Z M 10.824219 -11.820312 L 5.765625 -20.339844 C 6.160156 -20.660156 6.167969 -20.894531 6.070312 -21.128906 L 3.195312 -19.773438 L 9.058594 -9.894531 L 5.523438 -6.726562 L 5.960938 -6.445312 L 9.324219 -9.445312 L 11.902344 -5.101562 L 12.304688 -5.339844 C 13.125 -5.824219 13.742188 -6.902344 13.613281 -7.117188 L 11.226562 -11.136719 L 12.9375 -12.65625 C 13.105469 -12.796875 13.1875 -13.011719 13.085938 -13.183594 C 12.152344 -13.277344 10.726562 -13.351562 10.726562 -13.351562 Z M 10.824219 -11.820312 "/></g></g></g><g fill="#ffffff" fill-opacity="1"><g transform="translate(169.962587, 167.939271)"><g><path d="M -1.1875 -19.3125 L -3.171875 -16.847656 C -3.089844 -18.097656 -4.820312 -19.214844 -6.832031 -16.054688 L -6.832031 -15.914062 C -6.074219 -16.023438 -4.996094 -15.960938 -4.199219 -15.574219 L -7.164062 -11.890625 L -9.738281 -10.242188 L -5.242188 -6.621094 C -2.734375 -4.605469 0.0742188 -2.273438 1.375 0.671875 L 1.550781 0.625 C 1.839844 -3.921875 -1.226562 -6.621094 -3.660156 -8.582031 L -7.007812 -11.28125 L -4.867188 -13.941406 C -4.535156 -13.464844 -4.035156 -12.648438 -3.519531 -11.769531 L -4.996094 -9.9375 L -4.515625 -9.730469 L -3.25 -11.300781 C -2.683594 -10.289062 -2.132812 -9.222656 -1.75 -8.40625 C -1.820312 -8.089844 -1.863281 -7.78125 -1.847656 -7.539062 L 0.730469 -8.417969 L 0.496094 -9.761719 L 1.5 -11.007812 L 3.433594 -9.449219 L 0.0351562 -5.234375 L 0.519531 -5.03125 L 3.824219 -9.132812 L 7.296875 -6.335938 L 7.601562 -6.714844 C 8.449219 -7.765625 8.542969 -8.683594 8.457031 -8.75 L 5.460938 -11.164062 L 8.382812 -14.792969 C 8.550781 -15.003906 8.617188 -15.226562 8.496094 -15.394531 C 7.285156 -15.121094 5.421875 -14.613281 5.421875 -14.613281 L 5.867188 -12.476562 L 5.066406 -11.480469 L 3.136719 -13.039062 L 5.367188 -15.8125 C 5.539062 -16.019531 5.59375 -16.230469 5.472656 -16.398438 C 4.351562 -16.214844 2.609375 -15.792969 2.609375 -15.792969 L 3.105469 -13.800781 L 2.742188 -13.355469 L 1.019531 -14.742188 C 1.269531 -15.164062 1.203125 -15.402344 1.046875 -15.574219 L -1.257812 -13.230469 L 1.105469 -11.324219 L 0.171875 -10.160156 C -0.296875 -11.070312 -0.96875 -12.300781 -1.558594 -13.402344 L 2.714844 -18.710938 C 2.886719 -18.917969 2.949219 -19.144531 2.820312 -19.296875 C 1.617188 -19.039062 -0.246094 -18.53125 -0.246094 -18.53125 L 0.191406 -16.378906 L -1.828125 -13.871094 L -2.464844 -15.03125 C -2.121094 -15.398438 -2.152344 -15.703125 -2.277344 -15.894531 L -4.730469 -14.109375 L 1.011719 -21.238281 C 1.167969 -21.433594 1.222656 -21.644531 1.101562 -21.808594 C 0.0078125 -21.652344 -1.734375 -21.300781 -1.734375 -21.300781 Z M -1.1875 -19.3125 "/></g></g></g></svg>