<svg xmlns="http://www.w3.org/2000/svg" width="300" viewBox="0 0 224.88 225" height="300" version="1.0"><defs><clipPath id="o"><path d="M83 130h3v9h-3zm0 0"/></clipPath><clipPath id="a"><path d="M20.492 18.664h187.551v187.55H20.493zm0 0"/></clipPath><clipPath id="c"><path d="M122 74h32.383v54.875H122zm0 0"/></clipPath><clipPath id="d"><path d="M85 67.406h28V125H85zm0 0"/></clipPath><clipPath id="e"><path d="M74.176 74H106v54.875H74.176zm0 0"/></clipPath><clipPath id="f"><path d="M71 124h39v36H71zm0 0"/></clipPath><clipPath id="g"><path d="m62.863 133.559 12.164-13.856 37.18 32.64-12.168 13.856zm0 0"/></clipPath><clipPath id="h"><path d="m62.863 133.559 23.442-26.7 37.18 32.641-23.446 26.7zm0 0"/></clipPath><clipPath id="i"><path d="M76 126h5v12h-5zm0 0"/></clipPath><clipPath id="j"><path d="m62.863 133.559 12.164-13.856 37.18 32.64-12.168 13.856zm0 0"/></clipPath><clipPath id="k"><path d="m62.863 133.559 23.442-26.7 37.18 32.641-23.446 26.7zm0 0"/></clipPath><clipPath id="l"><path d="M80 128h4v10h-4zm0 0"/></clipPath><clipPath id="m"><path d="m62.863 133.559 12.164-13.856 37.18 32.64-12.168 13.856zm0 0"/></clipPath><clipPath id="n"><path d="m62.863 133.559 23.442-26.7 37.18 32.641-23.446 26.7zm0 0"/></clipPath><clipPath id="b"><path d="M116 67.406h28V125h-28zm0 0"/></clipPath><clipPath id="p"><path d="m62.863 133.559 12.164-13.856 37.18 32.64-12.168 13.856zm0 0"/></clipPath><clipPath id="q"><path d="m62.863 133.559 23.442-26.7 37.18 32.641-23.446 26.7zm0 0"/></clipPath><clipPath id="r"><path d="M120 123h37v37h-37zm0 0"/></clipPath><clipPath id="s"><path d="m153.336 119.473 12.562 13.5-36.214 33.703-12.563-13.5zm0 0"/></clipPath><clipPath id="t"><path d="m165.785 132.848-24.207-26.012-36.215 33.707 24.203 26.008zm0 0"/></clipPath><clipPath id="u"><path d="M147 126h6v12h-6zm0 0"/></clipPath><clipPath id="v"><path d="m153.336 119.473 12.562 13.5-36.214 33.703-12.563-13.5zm0 0"/></clipPath><clipPath id="w"><path d="m165.785 132.848-24.207-26.012-36.215 33.707 24.203 26.008zm0 0"/></clipPath><clipPath id="x"><path d="M145 128h3v10h-3zm0 0"/></clipPath><clipPath id="y"><path d="m153.336 119.473 12.562 13.5-36.214 33.703-12.563-13.5zm0 0"/></clipPath><clipPath id="z"><path d="m165.785 132.848-24.207-26.012-36.215 33.707 24.203 26.008zm0 0"/></clipPath><clipPath id="A"><path d="M143 130h3v9h-3zm0 0"/></clipPath><clipPath id="B"><path d="m153.336 119.473 12.562 13.5-36.214 33.703-12.563-13.5zm0 0"/></clipPath><clipPath id="C"><path d="m165.785 132.848-24.207-26.012-36.215 33.707 24.203 26.008zm0 0"/></clipPath></defs><path fill="#0a55a7" d="M114.305 49.531c-33.532 0-60.715 27.184-60.715 60.719 0 33.531 27.183 60.715 60.715 60.715 33.535 0 60.718-27.184 60.718-60.715 0-33.535-27.183-60.719-60.718-60.719"/><path fill="#0a55a7" d="M114.258 201.191c-23.7 0-46.016-9.222-62.762-26.004-16.781-16.746-26.004-39.058-26.004-62.757 0-23.7 9.223-46.016 26.004-62.758C68.242 32.89 90.56 23.664 114.258 23.664c23.695 0 46.012 9.227 62.758 26.008 16.78 16.777 26.004 39.058 26.004 62.758 0 23.699-9.223 46.011-26.004 62.757-16.746 16.782-39.063 26.004-62.758 26.004m0-172.203c-22.281 0-43.25 8.692-59 24.442-15.754 15.754-24.446 36.718-24.446 59 0 22.277 8.692 43.246 24.446 58.996 15.75 15.754 36.719 24.445 59 24.445 22.277 0 43.246-8.691 58.996-24.445 15.754-15.75 24.445-36.719 24.445-58.996 0-22.282-8.691-43.246-24.445-59-15.75-15.75-36.719-24.442-58.996-24.442"/><g clip-path="url(#a)"><path fill="#0a55a7" d="M114.266 206.215c-51.707 0-93.774-42.067-93.774-93.774 0-51.71 42.067-93.777 93.774-93.777 51.71 0 93.777 42.066 93.777 93.777 0 51.707-42.066 93.774-93.777 93.774zm0-185.89c-50.79 0-92.114 41.323-92.114 92.116 0 50.79 41.325 92.114 92.114 92.114 50.793 0 92.113-41.325 92.113-92.114 0-50.793-41.32-92.117-92.113-92.117zm0 0"/></g><path fill="#0a55a7" d="M215.11 115.648h-48.32l-7.134 12.368 7.133 12.37h48.32l-7.132-12.37 7.132-12.368"/><path d="M178.399 133.781c2.05-.527 3.828-1.597 4.918-2.664.277.04.394-.035.469-.156l-2.04-1.21c-.601 1.237-1.917 2.89-3.417 3.91zm6.344-3.515c1.054.804 2.183 2.074 2.746 3.273 2.004 1.008 2.96-2.926-2.66-3.355zm-1.93-4.375h2.121v3.308h-2.121zm4.34 3.308h-.453v-3.308h2.242c.168 0 .297-.059.332-.192-.54-.515-1.461-1.273-1.461-1.273l-.817 1.129h-.296v-2.492c.332-.051.418-.168.441-.348l-2.207-.184v3.024h-2.121v-2.492c.336-.051.406-.168.43-.348l-2.168-.184v3.024h-2.29l.094.336h2.196v3.308h-2.746l.097.336h10.934c.18 0 .324-.058.36-.191-.626-.54-1.657-1.344-1.657-1.344zM194.153 126.957v-1.367h3.586v1.367zm.098-1.703-1.836-.684v3.465h.242c.707 0 1.496-.37 1.496-.515v-.227h3.586v.492h.313c.55 0 1.46-.265 1.472-.347v-1.559c.254-.059.399-.168.47-.266l-1.618-1.199-.758.84zm-3.719-.84h10.696c.167 0 .312-.058.347-.191-.586-.551-1.594-1.367-1.594-1.367l-.886 1.222h-2.602c.73-.465.707-1.855-1.87-1.762l-.071.063c.347.383.668 1.016.73 1.617a.762.762 0 0 0 .145.082h-4.989zm8.684 6.02h-2.399v-.766c1.258-.168 2.72-.406 3.703-.684.278-.011.395-.046.504-.156l-1.472-1.402-.961.851h-7.254l.105.336h6.703c-.43.227-.945.465-1.46.684l-1.715-.133v1.27h-4.7l.094.336h4.606v1.02c0 .144-.059.19-.215.19-.277 0-1.836-.093-1.836-.093v.144c.742.13 1.008.309 1.234.551.242.262.313.633.36 1.176 2.004-.156 2.304-.758 2.304-1.922v-1.066h4.543c.18 0 .325-.059.348-.192-.598-.527-1.605-1.316-1.605-1.316zM48.375 98.165c.5.106.797.043.89-.187.032-.082.055-.195.079-.344l-3.875-.594-.094.641c1.742.774 2.688 1.797 2.844 3.078.039.356.031.742-.031 1.156-.262 1.668-1.368 2.563-3.328 2.688-.782.055-1.72-.008-2.813-.188-3.582-.57-5.203-2.023-4.86-4.359.2-1.226.852-2.062 1.954-2.5.511-.195 1.168-.348 1.969-.453l.093-.672-3.875-.547c-.05.344.024.563.219.656.125.055.297.086.516.094-.79 1.055-1.297 2.266-1.516 3.64-.344 2.212.164 4.013 1.516 5.407.98 1 2.183 1.617 3.609 1.844 1.7.262 3.203-.063 4.516-.969 1.406-.976 2.257-2.422 2.562-4.328.207-1.344.082-2.695-.375-4.063zM52.29 88.274l-4.094-1.39-.188.546 1.61 1.11c.769.543 1.195 1.101 1.28 1.672.04.336.005.695-.109 1.078l-.625 1.937L39.79 89.93l.516-1.593-.516-.172-1.843 5.781.515.172.485-1.516L49.32 95.9l-.485 1.516.5.156zM44.332 77.004c-.812 1.575-1.004 3.157-.578 4.75.45 1.649 1.48 2.887 3.094 3.72 1.855.96 3.64 1.038 5.36.233 1.32-.601 2.343-1.597 3.062-2.984.812-1.562.992-3.133.547-4.719-.461-1.644-1.497-2.879-3.11-3.703-1.937-1.008-3.773-1.082-5.515-.219-1.22.625-2.172 1.602-2.86 2.922zm10.453 5.407c-.625 1.21-1.601 1.734-2.922 1.578-.937-.102-2.113-.52-3.53-1.25-2.696-1.407-3.99-2.817-3.876-4.235.031-.382.153-.78.36-1.187.687-1.332 1.875-1.797 3.562-1.39.813.187 1.75.558 2.813 1.109 2.507 1.293 3.82 2.57 3.937 3.828.05.492-.062 1.008-.344 1.547zM49.013 69.984l.985-1.265 5.547 4.328c2.394 1.867 4.625 1.492 6.687-1.125 1.32-1.676 1.516-3.242.578-4.703-.398-.57-.965-1.149-1.703-1.735l-5.312-4.156.968-1.25-.422-.344-2.406 3.094.422.344.984-1.266 5.407 4.235c2.156 1.699 2.582 3.398 1.281 5.093-.824 1.055-1.914 1.25-3.266.594-.5-.238-1.047-.594-1.64-1.062l-5.407-4.235.985-1.25-.422-.344-3.688 4.704zM57.593 58.419l.375.406 1.188-1.047 7.187 8.156-1.187 1.047.359.39 4.453-3.921c1.375-1.219 2.14-2.645 2.297-4.281.145-1.602-.36-3.055-1.516-4.36-1.468-1.656-3.187-2.336-5.156-2.047-1.289.2-2.488.79-3.594 1.766zm4.828-3.516c1.043-.926 2.188-1.035 3.438-.328.738.46 1.566 1.21 2.484 2.25 1.832 2.062 2.55 3.703 2.156 4.922-.148.469-.453.914-.921 1.328l-1.141 1-7.188-8.156zM80.238 42.905l1.406-.75 3.594 6.813-10.063-4.016-2.969 1.563.25.484 1.407-.734 5.062 9.625-1.406.734.25.469 3.64-1.922c-.23-.25-.468-.32-.718-.219l-1.016.531-3.875-7.36 10.938 4.345.922-.688-5.266-10.015 1.406-.735-.25-.484-3.562 1.875zM100.722 47.57c-.094-.313-.23-.446-.406-.407a9.796 9.796 0 0 0-.203.047l-.563.188-7.906-9.516-1.39.438-.766 12.218-1.22.375.157.5 3.484-1.093c-.093-.313-.226-.446-.39-.407a2.472 2.472 0 0 0-.203.047l-1.063.328.219-4.078 3.781-1.172 2.563 3.203-1.344.422.156.5zm-6.86-3.047-3.328 1.031.25-4.86zM108.724 46.63c-.125-.32-.336-.476-.625-.468l-1.344.187-1.469-10.765.344-.047c.945-.125 1.676.199 2.187.969.102.18.22.386.344.625l.844 1.703.594-.078-.657-4.235-10.218 1.406.5 4.235.578-.078.39-1.86c.176-.882.47-1.488.875-1.812.301-.207.676-.344 1.125-.406l.344-.047 1.469 10.765-1.875.266.078.531zM116.735 46.418c-.086-.332-.265-.504-.547-.516h-1.046l-.125-10.875 1.593-.016-.015-.546-5.985.078.016.547 1.594-.016.125 10.875-1.594.016v.53zM123.117 47.098 128.6 36.16l1 .125.063-.547-3.375-.406-.063.547 1.594.187-3.985 8.016-2.39-8.766 1.562.188.063-.547-5.344-.64-.062.546 1.015.125 2.766 10.281c.219.875.41 1.391.578 1.547.145.125.367.203.672.235zM139.766 42.543l.985-3.687-9.578-2.75-.157.515 1.532.438-3 10.453-1.532-.437-.14.515 9.578 2.75 1.125-3.672-.547-.156-.813 1.203c-.625.875-1.324 1.313-2.093 1.313a3.049 3.049 0 0 1-.719-.125l-2.172-.625 1.469-5.11 3.687 1.063.172-.578-3.687-1.063 1.36-4.765 2.171.625c1.039.304 1.617 1.007 1.734 2.109.02.137.032.266.032.39l.046 1.438zM150.082 56.458l2.078-3.797-.515-.266-1.391 1.39c-.656.657-1.273.978-1.844.97a2.562 2.562 0 0 1-1.031-.313l-1.812-.953 5.046-9.625 1.5.781.266-.484-5.39-2.813-.266.485 1.406.734-5.047 9.625-1.406-.734-.25.469zm0 0" fill="#fff"/><path d="M154.856 59.9c.125-.324.07-.574-.156-.75l-.86-.593 6.156-8.969 1.313.906.312-.453-4.921-3.39-.313.453 1.313.906-6.157 8.969-1.312-.907-.297.438zM169.07 59.998c.82-.914.859-1.985.109-3.203-.313-.508-.742-1.008-1.281-1.5l-4.782-4.313-.375.406 1.172 1.063-7.281 8.078-1.172-1.063-.36.391 5.048 4.563c1.351 1.218 2.69 1.703 4.015 1.453a3.189 3.189 0 0 0 1.656-.953c1-1.106 1.047-2.352.141-3.735-.168-.25-.36-.5-.578-.75 1.144.508 2.156.535 3.031.078.258-.148.477-.32.656-.515zm-2.376-5.032c1.082 1 1.125 2.075.125 3.22-.836.917-1.687 1.167-2.562.75-.2-.114-.387-.25-.563-.407l-.828-.75 3.125-3.453zm-3 4.329c.79.707.989 1.546.594 2.515-.148.332-.36.649-.64.953-1.2 1.332-2.375 1.614-3.532.844a3.68 3.68 0 0 1-.422-.312l-.984-.891 3.781-4.203zM167.285 72.23l.422-.329-.985-1.25 3.86-3.047.593.75-2.453 5.735 2.172 2.734c.227-.18.297-.367.203-.562a1.405 1.405 0 0 0-.11-.157l-.155-.203 2.171-5.61c1.157.852 2.282 1.055 3.375.61.27-.117.52-.262.75-.437.77-.606 1.118-1.434 1.047-2.485-.054-.906-.406-1.773-1.062-2.61l-4.125-5.233-.438.343.985 1.25-8.547 6.72-.985-1.25-.421.327zm8.656-7.454c.664.856.676 1.742.031 2.656-.21.282-.46.536-.75.766-.898.707-1.734.922-2.515.64a1.71 1.71 0 0 1-.891-.624l-.766-.97 4.219-3.312zm0 0" fill="#fff"/><path d="M176.554 87.502c.282-.156.391-.32.329-.484a1.528 1.528 0 0 0-.094-.203l-.281-.516 7.875-9.547-.704-1.297-12.125 1.547-.609-1.125-.469.25 1.72 3.219c.28-.156.394-.313.343-.469a2.086 2.086 0 0 0-.094-.187l-.516-.985 4.047-.547 1.86 3.5-2.672 3.11-.656-1.235-.47.25zm1.704-7.328-1.641-3.062 4.844-.672zm0 0" fill="#fff"/><path d="m178.189 92.807.5-.172-.5-1.516 4.688-1.53.296.921-4.28 4.516 1.109 3.328c.28-.094.406-.246.375-.453a3.272 3.272 0 0 0-.047-.188l-.078-.234 3.968-4.531c.79 1.195 1.782 1.77 2.969 1.718.281 0 .563-.047.844-.14.926-.305 1.539-.969 1.844-2 .25-.856.207-1.79-.125-2.797l-2.063-6.328-.516.172.485 1.515-10.344 3.375-.484-1.515-.5.171zm10.688-4.047c.332 1.031.039 1.867-.875 2.516a5.005 5.005 0 0 1-1 .468c-1.075.344-1.922.254-2.547-.265a1.778 1.778 0 0 1-.625-.89l-.391-1.173 5.094-1.672zM181.142 106.489c.32-.125.473-.328.453-.61l-.171-1.14 4.609-.703 6 1.843c.394.188.629.477.703.875.125.32.328.477.61.469l-.532-3.469-.531.078.234 1.579-5.86-1.844 5.032-3.703.219 1.5.531-.078-.828-5.516-.531.078.14.922-5.75 4.531-4.468.688-.25-1.672-.532.078zm0 0" fill="#fff"/><path fill="#0a55a7" d="M13.23 140.414h48.59l7.176-12.371-7.176-12.367H13.23l7.176 12.367-7.176 12.371"/><path d="M31.227 127.617v-3.73h1.633v3.73zm4.234 0h-.742v-3.73h2.168c.168 0 .3-.059.336-.192-.54-.492-1.461-1.21-1.461-1.21l-.805 1.066H26.91l.098.336h2.375v3.73h-2.977l.098.336h2.879c-.063 2.242-.555 4.149-3.035 5.696l.07.082c4.125-1.211 4.738-3.489 4.797-5.778h1.645v5.707h.347c.957 0 1.512-.383 1.512-.492v-5.215h2.66c.168 0 .3-.058.336-.191-.504-.551-1.437-1.426-1.437-1.426zM38.973 122.559c.325.488.684 1.199.778 1.882 1.453 1.055 2.902-1.656-.696-1.945zm-.746 2.804c.313.43.649 1.09.72 1.715 1.366.985 2.745-1.57-.634-1.773zm3.36-1.187c-1.969 5.12-1.969 5.12-2.207 5.586-.121.254-.18.254-.36.254h-.527v.215c.25.023.453.085.621.203.29.191.336 1.441.086 2.699.121.492.457.637.754.637.648 0 1.105-.446 1.129-1.082.035-1.137-.516-1.52-.54-2.23-.011-.31.048-.767.134-1.196.117-.723.73-3.528 1.09-5.051zm2.363 5.457c-.184.98-.672 2.457-1.355 3.418l.105.117c1.117-.633 1.992-1.664 2.543-2.543.289.027.394-.047.445-.18zm3.379.308c.41.747.863 1.766.973 2.665 1.293 1.078 2.566-1.512-.852-2.723zm.215-4.316v1.43h-2.145v-1.43zm-2.145 3.082v-1.316h2.145v1.316zm2.04-5.238H43.66l-1.848-.637v3.563c0 2.312-.035 5.082-.972 7.265l.12.07c2.364-2 2.458-5.128 2.458-7.335v-2.59h2.148c0 .527-.023 1.09-.047 1.484h-.062l-1.559-.61v4.942h.215c.637 0 1.285-.336 1.285-.469v-.109h.324v2.723c0 .12-.046.191-.203.191-.218 0-1.152-.047-1.152-.047v.145c.527.105.742.285.875.527.144.25.191.649.203 1.188 1.633-.133 1.871-.903 1.871-1.97v-2.757h.227v.434h.265c.504 0 1.27-.278 1.282-.36v-3.285c.207-.05.347-.133.41-.219l-1.39-1.043-.673.72h-1.414c.383-.25.778-.575 1.113-.911.266-.023.418-.133.47-.3l-1.274-.274h3.082c.168 0 .312-.059.336-.192-.551-.504-1.485-1.25-1.485-1.25zm0 0" fill="#fff"/><g clip-path="url(#b)"><path fill="#fff" d="M116.254 78.469s6.734-7.067 11.27-8.91c4.535-1.84 15.945-2.141 15.945-2.141v45.898s-10.371.528-14.906 2.368c-4.536 1.843-12.31 8.683-12.31 8.683zm0 0"/></g><path fill="#fff" d="M149.184 70.8s-1.758.048-4.157.216v44.105s-10.37.524-14.906 2.367c-2.36.957-7.93 4.168-10.492 6.168l-1.297 4.09s8.813-4.808 13.348-6.652c4.535-1.84 17.504-4.395 17.504-4.395zm0 0"/><g clip-path="url(#c)"><path fill="#0a55a7" d="M154.379 74.633s-1.27.039-3.117.148v43.723s-10.371.523-14.907 2.367c-2.695 1.094-8.859 3.27-11.53 5.41l-2.075 2.594s12.188-4.133 16.723-5.977c4.535-1.84 14.906-2.367 14.906-2.367zm0 0"/></g><g clip-path="url(#d)"><path fill="#fff" d="M112.3 78.469s-6.734-7.067-11.269-8.91c-4.535-1.84-15.945-2.141-15.945-2.141v45.898s10.371.528 14.906 2.368c4.535 1.843 12.309 8.683 12.309 8.683zm0 0"/></g><path fill="#fff" d="M79.371 70.8s1.758.048 4.156.216v44.105s10.371.524 14.907 2.367c2.359.957 7.93 4.168 10.492 6.168l1.297 4.09s-8.813-4.808-13.348-6.652c-4.535-1.84-17.504-4.395-17.504-4.395zm0 0"/><g clip-path="url(#e)"><path fill="#0a55a7" d="M74.176 74.633s1.273.039 3.117.148v43.723s10.371.523 14.906 2.367c2.696 1.094 8.86 3.27 11.531 5.41l2.079 2.594s-12.192-4.133-16.727-5.977c-4.535-1.84-14.906-2.367-14.906-2.367zm0 0"/></g><g clip-path="url(#f)"><g clip-path="url(#g)"><g clip-path="url(#h)"><path fill="#fff" d="M86.21 144.793c-1.948-1.125-4.741-2.402-5.546-4.574-.652-1.766 1.125-2.551 3.29-1.77 1.651.594 2.984 1.758 4.55 2.5 5.68 2.688 6.68 2.207 10.605 2.301 4.66.113 4.348 4.89 7.493 7.156 2.242 1.617 2.562 1.582 2.433 2.63-.277 2.273-1.457 3.964-3.305 5.214-5.578 3.77-3.543-2.016-11.73-4.89-3.941-1.383-9.172-.516-12.977-6.325-1.191-1.82-2.535-3.539-3.765-5.34-1.078-1.578-5.582-13.218-5.684-16.191-.054-1.586 2.106-1.84 3.45.777 3.199 6.215 1.667 5.028 4.613 11.04.656 1.335-1.856 3.945 4.531 6.784.656.29 1.27.735 2.043.688zm0 0"/></g></g></g><g clip-path="url(#i)"><g clip-path="url(#j)"><g clip-path="url(#k)"><path fill="#fff" d="M80.938 136.457c.054.344.058.727-.364.828-.386.094-.55-.23-.668-.531-3.144-8.055-5.164-11.36-1.816-10.125 2.05.758 1.75 2.93 2.847 9.828zm0 0"/></g></g></g><g clip-path="url(#l)"><g clip-path="url(#m)"><g clip-path="url(#n)"><path fill="#fff" d="M82.91 130.012c.223 2.148.254 4.308.215 6.465-.004.316.156.832-.344.89-1.394.176-1.375-1.492-2.18-7.57-.359-2.723 2.133-1.484 2.31.215zm0 0"/></g></g></g><g clip-path="url(#o)"><g clip-path="url(#p)"><g clip-path="url(#q)"><path fill="#fff" d="M84.418 138.129c-.66-.41-.813-.961-.863-1.527-.735-8.356 1.906-5.512 2.007-4.66.211 1.761-.277 5.44-.367 5.796-.191.742-.242.793-.777.39zm0 0"/></g></g></g><g clip-path="url(#r)"><g clip-path="url(#s)"><g clip-path="url(#t)"><path fill="#fff" d="M142.77 144.754c1.914-1.18 4.675-2.535 5.414-4.73.601-1.786-1.196-2.52-3.34-1.676-1.633.64-2.934 1.843-4.477 2.629-5.597 2.851-6.613 2.398-10.535 2.609-4.652.246-4.203 5.016-7.277 7.371-2.196 1.68-2.52 1.652-2.36 2.695.344 2.266 1.57 3.922 3.457 5.118 5.68 3.605 3.48-2.118 11.582-5.227 3.899-1.5 9.153-.781 12.786-6.695 1.14-1.856 2.433-3.614 3.609-5.45 1.031-1.609 5.2-13.37 5.215-16.347.008-1.59-2.16-1.778-3.426.875-3.016 6.304-1.52 5.074-4.293 11.168-.613 1.351 1.973 3.89-4.332 6.914-.648.308-1.246.77-2.023.746zm0 0"/></g></g></g><g clip-path="url(#u)"><g clip-path="url(#v)"><g clip-path="url(#w)"><path fill="#fff" d="M147.8 136.27c-.046.347-.038.726.387.816.387.086.543-.246.653-.547 2.91-8.148 4.836-11.508 1.523-10.176-2.027.817-1.664 2.98-2.562 9.907zm0 0"/></g></g></g><g clip-path="url(#x)"><g clip-path="url(#y)"><g clip-path="url(#z)"><path fill="#fff" d="M145.645 129.883c-.16 2.156-.13 4.312-.032 6.469.016.316-.129.835.371.882 1.399.133 1.332-1.53 1.957-7.632.282-2.73-2.171-1.422-2.296.28zm0 0"/></g></g></g><g clip-path="url(#A)"><g clip-path="url(#B)"><g clip-path="url(#C)"><path fill="#fff" d="M144.371 138.043c.649-.43.785-.984.816-1.55.493-8.376-2.062-5.458-2.14-4.602-.156 1.765.433 5.43.535 5.78.215.735.266.79.79.372zm0 0"/></g></g></g><path d="M66.67 157.585c.173.21.376.32.563.238.04-1.301-.043-3.38-.043-3.38l-2.37.04-5.833-7.242-.3.43zm-4.679 1.324-7.988-9.914-.301.425 4.184 5.196c-2.075.633-5.91.86-7.454.234-.312-.098-.793-.496-.793-.496l-1.984 2.754c.203.137.461.23.766.234 3.23 2.805 5.933 4.989 7.875 6.453-.387.727-.805 1.41-1.278 2.024.114 3.785 6.371 1.402 3.258-6.992l-.183-.059a23.409 23.409 0 0 1-1.5 4.418c-2.31-2.781-4.516-5.46-5.868-7.168 2.32 1.02 5.586 1.832 7.61 1.91.21.317.453.418.64.364l-.605-3.075 5.527 6.864c.172.21.375.324.563.242.043-1.328-.035-3.457-.035-3.457zM78.647 177.966c.239 1.355.309 3.172-.066 4.582 1.324 2.668 5.394-.563.246-4.602zm3.79-5.469-1.02 1.715-4.067-2.414 1.02-1.715zm-2.38 4.004-4.066-2.414 1.102-1.855 4.066 2.414zm5.168-6.55-7.843-4.657-1.836-2.469-3.012 5.07c-1.79 3.016-3.934 6.489-6.937 8.45l.082.176c4.77-.598 7.257-4.477 8.984-7.383l2.137-3.602 3.851 2.285a52.81 52.81 0 0 1-1.39 2.204l-.543-.32-1.743-2.208-3.976 6.7.308.183.125.07c-1.293 1.055-3.296 2.141-5.195 2.48l.02.22c2.379.535 4.761.253 6.5-.383.328.254.547.238.718.129l-1.382-2.18c.707.215 1.394.223 1.476.082l.164-.277 1.008.597-2.02 3.403c-.093.152-.21.21-.425.082a71.788 71.788 0 0 1-1.594-1.051l-.11.183c.672.59.801.981.837 1.375.03.438-.192.958-.563 1.614 2.367 1.195 3.207.523 4.023-.856l2.047-3.445.864.512-.313.527.387.227c.742.441 2.05.632 2.152.504l2.395-4.036c.37.114.652.094.82.028l-1.098-2.703-1.605.492-2.676-1.59a13.073 13.073 0 0 0 2.34-.348c.36.172.64.153.832-.027l-2.242-2.106 6.695 3.973c.23.14.45.164.578.012-.332-1.059-.965-2.707-.965-2.707zM104.333 190.11l-2.938-.53.977-5.415 5.113.922c.266.047.477-.008.567-.191-.833-.973-2.227-2.45-2.227-2.45l-1.734 1.516-1.63-.293.821-4.55 5.559 1.003c.28.05.492 0 .582-.187-.844-1.012-2.184-2.387-2.184-2.387l-1.707 1.465-2.16-.387.62-3.453c.513.02.665-.137.75-.395l-3.429-.949-.773 4.285-2.406-.437c.539-.649 1.035-1.383 1.523-2.172.426.078.684-.04.797-.258l-3.39-1.672c-1.055 3.117-2.872 6.188-4.505 8.067l.153.156c1.875-.777 3.554-1.973 5.05-3.676l2.688.488-.82 4.547-4.762-.86.055.52 4.617.836-.977 5.414-6.918-1.25.051.524 16.121 2.91c.285.05.496-.004.582-.187-.84-1.012-2.262-2.547-2.262-2.547zM122.42 179.907c1.352-.902 2.48-2.148 3.297-3.484l5.097-.918c.028.742.016 1.695-.03 2.344l.14.082c.84-.625 1.914-1.641 2.515-2.372.364-.101.536-.167.649-.355l-2.488-1.633-.996 1.457-4.551.824c.23-.445.445-.886.617-1.335.477-.106.598-.239.598-.438l-3.399.102c-.055 1.93-.66 4.23-1.613 5.625zm-4.68-3.945c.696.406 1.43 1.222 1.723 2.047 2.3.902 3.25-3.364-1.617-2.176zm13.649 11.023c.812-.148 2.031-.789 2.031-.898l-.645-3.574c.36-.137.54-.352.622-.512l-2.633-1.317-.895 1.422-6.015 1.086-1.57-.285a1.02 1.02 0 0 0 .015-.422c-.145-1.105-.836-1.402-.953-2.039-.059-.316.062-.777.222-1.21.196-.528 1.336-2.817 1.825-3.856l-.254-.098c-2.825 3.906-2.825 3.906-3.27 4.461-.238.316-.308.332-.66.395l-.957.171.062.336c.34-.023.618 0 .907.075.468.152.726 1.093.773 2.566.207.438.617.676 1.024.602.07-.016.125-.024.195-.036l.992 5.504.356-.066c1.023-.184 2.058-.938 2.015-1.168l-.793-4.406 6.352-1.145.8 4.442c-.773.066-1.652.152-2.644.312.324-.918.309-1.922.25-3.058.406-.075.57-.29.598-.532l-3.348-.015c.547 3.535.633 5.515-5.703 8.285l.14.265c4.993-1.484 7.047-2.863 7.84-4.449 2.52.297 4.301 1.051 5.336 1.613 2.27 1.036 5.032-2.789-2.066-2.44zm-2.657-10.066c.383-.106.524-.332.52-.567l-3.047.332c.309 2.227.281 3.895-3.234 5.973l.156.266c4.574-1.688 5.484-3.239 5.594-5.051.789 1.633 2.191 3.223 4.71 3.52-.183-1.43.298-2.102 1.395-2.594l-.039-.211c-3.39.246-5.293-.27-6.043-1.395zM147.304 172.547c.234-1.125.356-2.574.39-3.852.301-.199.43-.441.415-.644.699.402 1.398.949 1.875 1.543 2.57.273 2.215-4.2-2.707-2.133l-.078.148c.273.11.554.235.843.399l-2.71.687a129.749 129.749 0 0 1 1.683 3.895zm1.887-1.016c1.039.238 2.289.899 3.012 1.766 2.55.136 1.898-4.348-2.946-1.934zm-9.074.387c.859.746 1.851 1.785 2.457 2.91 2.34.664 2.515-3.477-2.325-3.074zm7.597 2.41 2.414-1.43c.215-.129.34-.308.285-.504-1-.203-2.585-.41-2.585-.41l-.215 1.82-.157.094-3.238-5.46c.395-.32.414-.54.305-.79l-2.73 1.285 3.656 6.157-2.645 1.57.379.36 1.965-1.169c.812 2.22 1.402 4.793 1.27 6.903l.25.062c.554-1.25.921-2.535 1.081-3.843l2.754 4.636.387-.226c.758-.453 1.332-1.461 1.211-1.66l-3.809-6.418c.903.425 1.899 1.152 2.508 2.003 2.524.34 2.27-4.105-2.664-2.269zm9.79-2.254-5.06-8.52c.395-.32.403-.554.305-.788l-2.875 1.355 5.864 9.879-3.535 3.168.437.281 3.363-3 2.578 4.344.403-.238c.82-.485 1.437-1.563 1.308-1.778l-2.386-4.02 1.71-1.519c.169-.14.25-.355.149-.527a62.468 62.468 0 0 0-2.36-.168zM168.775 148.627l-1.984 2.465c.082-1.25-1.649-2.368-3.66.793v.14c.757-.11 1.835-.047 2.632.34l-2.964 3.684-2.575 1.648 4.496 3.621c2.508 2.016 5.317 4.348 6.618 7.293l.175-.047c.29-4.547-2.777-7.246-5.21-9.207l-3.348-2.699 2.14-2.66c.332.476.832 1.293 1.348 2.172l-1.477 1.832.481.207 1.266-1.57a48.28 48.28 0 0 1 1.5 2.894c-.07.316-.114.625-.098.867l2.578-.879-.234-1.343 1.004-1.247 1.933 1.56-3.398 4.214.484.203 3.305-4.102 3.472 2.797.305-.379c.848-1.05.942-1.968.856-2.035l-2.996-2.414 2.921-3.629c.168-.21.235-.433.114-.601-1.211.273-3.075.781-3.075.781l.446 2.137-.801.996-1.93-1.559 2.23-2.773c.173-.207.227-.418.106-.586-1.12.183-2.863.605-2.863.605l.496 1.992-.363.446-1.723-1.387c.25-.422.184-.66.027-.832l-2.304 2.344 2.363 1.906-.934 1.164c-.468-.91-1.14-2.14-1.73-3.242l4.273-5.309c.172-.207.235-.433.106-.586-1.203.258-3.067.766-3.067.766l.438 2.152-2.02 2.508-.636-1.16c.343-.367.312-.672.187-.863l-2.453 1.785 5.742-7.129c.157-.195.211-.406.09-.57-1.094.156-2.836.507-2.836.507zm0 0" fill="#fff"/></svg>