<?xml version="1.0" encoding="UTF-8" standalone="no"?>
<!DOCTYPE svg PUBLIC "-//W3C//DTD SVG 1.1//EN" "http://www.w3.org/Graphics/SVG/1.1/DTD/svg11.dtd">
<svg xmlns:xl="http://www.w3.org/1999/xlink" xmlns="http://www.w3.org/2000/svg" version="1.1" xmlns:dc="http://purl.org/dc/elements/1.1/" viewBox="1234 2234 1142 840" width="1142" height="840">
  <defs>
    <marker orient="auto" overflow="visible" markerUnits="strokeWidth" id="FilledArrow_Marker" stroke-linejoin="miter" stroke-miterlimit="10" viewBox="-1 -4 10 8" markerWidth="10" markerHeight="8" color="black">
      <g>
        <path d="M 8 0 L 0 -3 L 0 3 Z" fill="currentColor" stroke="currentColor" stroke-width="1"/>
      </g>
    </marker>
    <marker orient="auto" overflow="visible" markerUnits="strokeWidth" id="FilledArrow_Marker_2" stroke-linejoin="miter" stroke-miterlimit="10" viewBox="-9 -4 10 8" markerWidth="10" markerHeight="8" color="black">
      <g>
        <path d="M -8 0 L 0 3 L 0 -3 Z" fill="currentColor" stroke="currentColor" stroke-width="1"/>
      </g>
    </marker>
  </defs>
  <g id="tsb-certificates" stroke="none" stroke-dasharray="none" stroke-opacity="1" fill="none" fill-opacity="1">
    <title>tsb-certificates</title>
    <rect fill="white" x="1234" y="2234" width="1142" height="840"/>
    <g id="tsb-certificates_Layer_1">
      <title>Layer 1</title>
      <g id="Graphic_98"/>
      <g id="Graphic_58">
        <path d="M 1462.1732 2551.181 L 2089.2546 2551.181 C 2093.673 2551.181 2097.2546 2554.7628 2097.2546 2559.181 L 2097.2546 2826.6457 C 2097.2546 2831.064 2093.673 2834.6457 2089.2546 2834.6457 L 1462.1732 2834.6457 C 1457.755 2834.6457 1454.1732 2831.064 1454.1732 2826.6457 L 1454.1732 2559.181 C 1454.1732 2554.7628 1457.755 2551.181 1462.1732 2551.181 Z" fill="white"/>
        <path d="M 1462.1732 2551.181 L 2089.2546 2551.181 C 2093.673 2551.181 2097.2546 2554.7628 2097.2546 2559.181 L 2097.2546 2826.6457 C 2097.2546 2831.064 2093.673 2834.6457 2089.2546 2834.6457 L 1462.1732 2834.6457 C 1457.755 2834.6457 1454.1732 2831.064 1454.1732 2826.6457 L 1454.1732 2559.181 C 1454.1732 2554.7628 1457.755 2551.181 1462.1732 2551.181 Z" stroke="gray" stroke-linecap="round" stroke-linejoin="round" stroke-dasharray="4.0,4.0" stroke-width="1"/>
      </g>
      <g id="Graphic_57">
        <path d="M 1445.1654 2534.1733 L 2072.2468 2534.1733 C 2076.665 2534.1733 2080.2468 2537.755 2080.2468 2542.1733 L 2080.2468 2809.6378 C 2080.2468 2814.056 2076.665 2817.6378 2072.2468 2817.6378 L 1445.1654 2817.6378 C 1440.7471 2817.6378 1437.1654 2814.056 1437.1654 2809.6378 L 1437.1654 2542.1733 C 1437.1654 2537.755 1440.7471 2534.1733 1445.1654 2534.1733 Z" fill="white"/>
        <path d="M 1445.1654 2534.1733 L 2072.2468 2534.1733 C 2076.665 2534.1733 2080.2468 2537.755 2080.2468 2542.1733 L 2080.2468 2809.6378 C 2080.2468 2814.056 2076.665 2817.6378 2072.2468 2817.6378 L 1445.1654 2817.6378 C 1440.7471 2817.6378 1437.1654 2814.056 1437.1654 2809.6378 L 1437.1654 2542.1733 C 1437.1654 2537.755 1440.7471 2534.1733 1445.1654 2534.1733 Z" stroke="gray" stroke-linecap="round" stroke-linejoin="round" stroke-dasharray="4.0,4.0" stroke-width="1"/>
      </g>
      <g id="Graphic_51">
        <path d="M 1428.5407 2515.0394 L 2055.622 2515.0394 C 2060.0403 2515.0394 2063.622 2518.621 2063.622 2523.0394 L 2063.622 2790.504 C 2063.622 2794.9222 2060.0403 2798.504 2055.622 2798.504 L 1428.5407 2798.504 C 1424.1224 2798.504 1420.5407 2794.9222 1420.5407 2790.504 L 1420.5407 2523.0394 C 1420.5407 2518.621 1424.1224 2515.0394 1428.5407 2515.0394 Z" fill="white"/>
        <path d="M 1428.5407 2515.0394 L 2055.622 2515.0394 C 2060.0403 2515.0394 2063.622 2518.621 2063.622 2523.0394 L 2063.622 2790.504 C 2063.622 2794.9222 2060.0403 2798.504 2055.622 2798.504 L 1428.5407 2798.504 C 1424.1224 2798.504 1420.5407 2794.9222 1420.5407 2790.504 L 1420.5407 2523.0394 C 1420.5407 2518.621 1424.1224 2515.0394 1428.5407 2515.0394 Z" stroke="gray" stroke-linecap="round" stroke-linejoin="round" stroke-dasharray="4.0,4.0" stroke-width="1"/>
      </g>
      <g id="Graphic_50">
        <path d="M 1445.1654 2534.1733 L 1945.0709 2534.1733 C 1949.4892 2534.1733 1953.071 2537.755 1953.071 2542.1733 L 1953.071 2771.37 C 1953.071 2775.7884 1949.4892 2779.37 1945.0709 2779.37 L 1445.1654 2779.37 C 1440.7471 2779.37 1437.1654 2775.7884 1437.1654 2771.37 L 1437.1654 2542.1733 C 1437.1654 2537.755 1440.7471 2534.1733 1445.1654 2534.1733 Z" stroke="gray" stroke-linecap="round" stroke-linejoin="round" stroke-dasharray="4.0,4.0" stroke-width="1"/>
      </g>
      <g id="Graphic_9">
        <path d="M 1445.1654 2243.622 L 1920.9764 2243.622 C 1925.3947 2243.622 1928.9764 2247.2038 1928.9764 2251.622 L 1928.9764 2480.819 C 1928.9764 2485.2372 1925.3947 2488.819 1920.9764 2488.819 L 1445.1654 2488.819 C 1440.7471 2488.819 1437.1654 2485.2372 1437.1654 2480.819 L 1437.1654 2251.622 C 1437.1654 2247.2038 1440.7471 2243.622 1445.1654 2243.622 Z" fill="#f1f1f1"/>
      </g>
      <g id="Graphic_2">
        <path d="M 1578.3937 2262.0473 L 1728.2205 2262.0473 C 1732.6388 2262.0473 1736.2205 2265.629 1736.2205 2270.0473 L 1736.2205 2337.6693 C 1736.2205 2342.0876 1732.6388 2345.6693 1728.2205 2345.6693 L 1578.3937 2345.6693 C 1573.9754 2345.6693 1570.3937 2342.0876 1570.3937 2337.6693 L 1570.3937 2270.0473 C 1570.3937 2265.629 1573.9754 2262.0473 1578.3937 2262.0473 Z" fill="#f15623"/>
        <text transform="translate(1575.3937 2267.0473)" fill="white">
          <tspan font-family="Helvetica Neue" font-weight="bold" font-size="16" fill="white" x="31.241383" y="16">XCP Central</tspan>
        </text>
      </g>
      <g id="Graphic_3">
        <path d="M 1593.9843 2293.2284 L 1712.63 2293.2284 C 1717.0482 2293.2284 1720.63 2296.81 1720.63 2301.2284 L 1720.63 2329.1654 C 1720.63 2333.5837 1717.0482 2337.1654 1712.63 2337.1654 L 1593.9843 2337.1654 C 1589.566 2337.1654 1585.9843 2333.5837 1585.9843 2329.1654 L 1585.9843 2301.2284 C 1585.9843 2296.81 1589.566 2293.2284 1593.9843 2293.2284 Z" fill="#31c531"/>
        <text transform="translate(1590.9843 2305.973)" fill="white">
          <tspan font-family="Helvetica Neue" font-size="16" fill="white" x="4.842834" y="15">xcp-central-cert</tspan>
        </text>
      </g>
      <g id="Graphic_5">
        <path d="M 1578.3937 2386.7717 L 1728.2205 2386.7717 C 1732.6388 2386.7717 1736.2205 2390.3534 1736.2205 2394.7717 L 1736.2205 2462.3937 C 1736.2205 2466.812 1732.6388 2470.3937 1728.2205 2470.3937 L 1578.3937 2470.3937 C 1573.9754 2470.3937 1570.3937 2466.812 1570.3937 2462.3937 L 1570.3937 2394.7717 C 1570.3937 2390.3534 1573.9754 2386.7717 1578.3937 2386.7717 Z" fill="#f15623"/>
        <text transform="translate(1575.3937 2391.7717)" fill="white">
          <tspan font-family="Helvetica Neue" font-weight="bold" font-size="16" fill="white" x="25.033383" y="16">MP Controller</tspan>
        </text>
      </g>
      <g id="Graphic_4">
        <path d="M 1593.9843 2417.9528 L 1712.63 2417.9528 C 1717.0482 2417.9528 1720.63 2421.5345 1720.63 2425.9528 L 1720.63 2453.8898 C 1720.63 2458.308 1717.0482 2461.8898 1712.63 2461.8898 L 1593.9843 2461.8898 C 1589.566 2461.8898 1585.9843 2458.308 1585.9843 2453.8898 L 1585.9843 2425.9528 C 1585.9843 2421.5345 1589.566 2417.9528 1593.9843 2417.9528 Z" fill="#31c531"/>
        <text transform="translate(1590.9843 2430.6973)" fill="white">
          <tspan font-family="Helvetica Neue" font-size="16" fill="white" x="25.570834" y="15">mpc-certs</tspan>
        </text>
      </g>
      <g id="Graphic_6">
        <path d="M 1789.5748 2262.0473 L 1908.2205 2262.0473 C 1912.6388 2262.0473 1916.2205 2265.629 1916.2205 2270.0473 L 1916.2205 2462.3937 C 1916.2205 2466.812 1912.6388 2470.3937 1908.2205 2470.3937 L 1789.5748 2470.3937 C 1785.1565 2470.3937 1781.5748 2466.812 1781.5748 2462.3937 L 1781.5748 2270.0473 C 1781.5748 2265.629 1785.1565 2262.0473 1789.5748 2262.0473 Z" fill="#d29dd2"/>
        <path d="M 1789.5748 2262.0473 L 1908.2205 2262.0473 C 1912.6388 2262.0473 1916.2205 2265.629 1916.2205 2270.0473 L 1916.2205 2462.3937 C 1916.2205 2466.812 1912.6388 2470.3937 1908.2205 2470.3937 L 1789.5748 2470.3937 C 1785.1565 2470.3937 1781.5748 2466.812 1781.5748 2462.3937 L 1781.5748 2270.0473 C 1781.5748 2265.629 1785.1565 2262.0473 1789.5748 2262.0473 Z" stroke="gray" stroke-linecap="round" stroke-linejoin="round" stroke-dasharray="4.0,4.0" stroke-width="1"/>
        <text transform="translate(1786.5748 2346.7564)" fill="white">
          <tspan font-family="Helvetica Neue" font-weight="bold" font-size="16" fill="white" x="18.338834" y="16">MP Internal</tspan>
          <tspan font-family="Helvetica Neue" font-weight="bold" font-size="16" fill="white" x="14.626834" y="35.46411">components</tspan>
        </text>
      </g>
      <g id="Graphic_7">
        <path d="M 1452.756 2462.3937 L 1452.756 2270.0473 C 1452.756 2265.629 1456.3376 2262.0473 1460.756 2262.0473 L 1517.0394 2262.0473 C 1521.4577 2262.0473 1525.0394 2265.629 1525.0394 2270.0473 L 1525.0394 2462.3937 C 1525.0394 2466.812 1521.4577 2470.3937 1517.0394 2470.3937 L 1460.756 2470.3937 C 1456.3376 2470.3937 1452.756 2466.812 1452.756 2462.3937 Z" fill="#666"/>
        <text transform="translate(1457.756 2465.3937) rotate(-90)" fill="white">
          <tspan font-family="Helvetica Neue" font-weight="bold" font-size="16" fill="white" x="40.493225" y="16">Envoy Gateway</tspan>
        </text>
      </g>
      <g id="Graphic_8">
        <path d="M 1488.189 2416.3307 L 1488.189 2316.1103 C 1488.189 2311.692 1491.7707 2308.1103 1496.189 2308.1103 L 1508.5354 2308.1103 C 1512.9537 2308.1103 1516.5354 2311.692 1516.5354 2316.1103 L 1516.5354 2416.3307 C 1516.5354 2420.749 1512.9537 2424.3307 1508.5354 2424.3307 L 1496.189 2424.3307 C 1491.7707 2424.3307 1488.189 2420.749 1488.189 2416.3307 Z" fill="#a000a0"/>
        <text transform="translate(1493.1382 2419.3307) rotate(-90)" fill="white">
          <tspan font-family="Helvetica Neue" font-size="16" fill="white" x="2.590237" y="15">tsb-certs(TLS)</tspan>
        </text>
      </g>
      <g id="Line_10">
        <line x1="1525.0394" y1="2303.8034" x2="1560.4937" y2="2303.8186" marker-end="url(#FilledArrow_Marker)" stroke="black" stroke-linecap="round" stroke-linejoin="round" stroke-dasharray="4.0,4.0" stroke-width="1"/>
      </g>
      <g id="Graphic_11">
        <path d="M 1462.1732 2551.181 L 1612 2551.181 C 1616.4183 2551.181 1620 2554.7628 1620 2559.181 L 1620 2635.307 C 1620 2639.7254 1616.4183 2643.307 1612 2643.307 L 1462.1732 2643.307 C 1457.755 2643.307 1454.1732 2639.7254 1454.1732 2635.307 L 1454.1732 2559.181 C 1454.1732 2554.7628 1457.755 2551.181 1462.1732 2551.181 Z" fill="#f15623"/>
        <text transform="translate(1459.1732 2556.181)" fill="white">
          <tspan font-family="Helvetica Neue" font-weight="bold" font-size="16" fill="white" x="39.537383" y="16">XCP Edge</tspan>
        </text>
      </g>
      <g id="Graphic_12">
        <path d="M 1477.7638 2583.7796 L 1596.4095 2583.7796 C 1600.8277 2583.7796 1604.4095 2587.3613 1604.4095 2591.7796 L 1604.4095 2626.8032 C 1604.4095 2631.2215 1600.8277 2634.8032 1596.4095 2634.8032 L 1477.7638 2634.8032 C 1473.3455 2634.8032 1469.7638 2631.2215 1469.7638 2626.8032 L 1469.7638 2591.7796 C 1469.7638 2587.3613 1473.3455 2583.7796 1477.7638 2583.7796 Z" fill="#31c531"/>
        <text transform="translate(1474.7638 2588.7796)" fill="white">
          <tspan font-family="Helvetica Neue" font-size="16" fill="white" x="25.570834" y="15">mpc-certs</tspan>
          <tspan font-family="Helvetica Neue" font-size="16" fill="white" x="4.826834" y="33.448">(OR JWT Token)</tspan>
        </text>
      </g>
      <g id="Graphic_14">
        <path d="M 1462.1732 2671.6536 L 1612 2671.6536 C 1616.4183 2671.6536 1620 2675.2353 1620 2679.6536 L 1620 2755.7796 C 1620 2760.1978 1616.4183 2763.7796 1612 2763.7796 L 1462.1732 2763.7796 C 1457.755 2763.7796 1454.1732 2760.1978 1454.1732 2755.7796 L 1454.1732 2679.6536 C 1454.1732 2675.2353 1457.755 2671.6536 1462.1732 2671.6536 Z" fill="#666"/>
        <text transform="translate(1459.1732 2676.6536)" fill="white">
          <tspan font-family="Helvetica Neue" font-weight="bold" font-size="16" fill="white" x="56.601383" y="16">Istiod</tspan>
        </text>
      </g>
      <g id="Graphic_13">
        <path d="M 1477.7638 2704.252 L 1596.4095 2704.252 C 1600.8277 2704.252 1604.4095 2707.8337 1604.4095 2712.252 L 1604.4095 2747.2756 C 1604.4095 2751.694 1600.8277 2755.2756 1596.4095 2755.2756 L 1477.7638 2755.2756 C 1473.3455 2755.2756 1469.7638 2751.694 1469.7638 2747.2756 L 1469.7638 2712.252 C 1469.7638 2707.8337 1473.3455 2704.252 1477.7638 2704.252 Z" fill="#456bb0"/>
        <text transform="translate(1474.7638 2709.252)" fill="white">
          <tspan font-family="Helvetica Neue" font-size="16" fill="white" x="38.474834" y="15">Cacert</tspan>
          <tspan font-family="Helvetica Neue" font-size="16" fill="white" x="2.034834" y="33.448">(OR External CA)</tspan>
        </text>
      </g>
      <g id="Graphic_15">
        <rect x="1686.6142" y="2551.181" width="116.22047" height="83.62205" fill="#92e7ea"/>
        <rect x="1686.6142" y="2551.181" width="116.22047" height="83.62205" stroke="gray" stroke-linecap="round" stroke-linejoin="round" stroke-width="1"/>
        <text transform="translate(1691.6142 2629.8032) rotate(-90)" fill="black">
          <tspan font-family="Helvetica Neue" font-size="16" fill="black" x="14.883024" y="15">Pod A</tspan>
        </text>
      </g>
      <g id="Group_23">
        <g id="Graphic_22"/>
        <g id="Group_16">
          <g id="Graphic_21">
            <path d="M 1717.6041 2592.0214 C 1717.6041 2592.301 1717.6677 2592.5682 1717.7949 2592.797 C 1717.922 2593.026 1718.0873 2593.2294 1718.278 2593.3947 C 1718.4815 2593.56 1718.7104 2593.6872 1718.9775 2593.7762 C 1719.2445 2593.8652 1719.5243 2593.916 1719.804 2593.916 C 1720.1855 2593.916 1720.5288 2593.827 1720.8086 2593.649 C 1721.0883 2593.471 1721.3554 2593.2294 1721.597 2592.937 L 1722.538 2593.649 C 1721.8513 2594.5392 1720.8849 2594.9843 1719.6514 2594.9843 C 1719.1428 2594.9843 1718.6723 2594.8952 1718.2526 2594.7172 C 1717.833 2594.5392 1717.477 2594.2976 1717.1972 2593.9924 C 1716.9047 2593.6872 1716.6886 2593.3184 1716.536 2592.9115 C 1716.3834 2592.492 1716.307 2592.0468 1716.307 2591.551 C 1716.307 2591.0677 1716.396 2590.61 1716.5614 2590.1903 C 1716.7267 2589.7706 1716.9683 2589.4146 1717.2608 2589.1094 C 1717.5533 2588.8042 1717.9093 2588.5626 1718.329 2588.3846 C 1718.7359 2588.2065 1719.1936 2588.1175 1719.6769 2588.1175 C 1720.249 2588.1175 1720.745 2588.2193 1721.1392 2588.4227 C 1721.5334 2588.6262 1721.864 2588.8932 1722.1184 2589.211 C 1722.3727 2589.5417 1722.5634 2589.8978 1722.6779 2590.3174 C 1722.7923 2590.7243 1722.8559 2591.144 1722.8559 2591.5636 L 1722.8559 2592.0087 L 1717.6041 2592.0087 Z M 1721.5207 2591.0422 C 1721.508 2590.7625 1721.4698 2590.521 1721.3935 2590.292 C 1721.3172 2590.063 1721.2028 2589.8596 1721.0375 2589.6943 C 1720.8849 2589.529 1720.6814 2589.389 1720.4525 2589.3 C 1720.2236 2589.1984 1719.9439 2589.1603 1719.6387 2589.1603 C 1719.3335 2589.1603 1719.0538 2589.2238 1718.8122 2589.3383 C 1718.5578 2589.4527 1718.3417 2589.6053 1718.1763 2589.7833 C 1717.9983 2589.9614 1717.8712 2590.1648 1717.7694 2590.3937 C 1717.6677 2590.6226 1717.6296 2590.8388 1717.6296 2591.055 L 1721.5207 2591.055 Z M 1723.9113 2588.3083 L 1725.1448 2588.3083 L 1725.1448 2589.313 L 1725.1702 2589.313 C 1725.3228 2588.9695 1725.6026 2588.677 1725.984 2588.4736 C 1726.3656 2588.2574 1726.8106 2588.1557 1727.3193 2588.1557 C 1727.6372 2588.1557 1727.9296 2588.2065 1728.2221 2588.2956 C 1728.5146 2588.3973 1728.769 2588.5372 1728.9724 2588.7406 C 1729.1885 2588.944 1729.3539 2589.1984 1729.4937 2589.5163 C 1729.621 2589.8342 1729.6845 2590.203 1729.6845 2590.6353 L 1729.6845 2594.8317 L 1728.451 2594.8317 L 1728.451 2590.9787 C 1728.451 2590.6735 1728.4129 2590.419 1728.3238 2590.203 C 1728.2476 2589.9868 1728.1331 2589.8088 1727.9932 2589.6816 C 1727.8534 2589.5545 1727.7008 2589.4527 1727.5227 2589.389 C 1727.3447 2589.3256 1727.154 2589.3 1726.9632 2589.3 C 1726.7089 2589.3 1726.4673 2589.3383 1726.2511 2589.4273 C 1726.035 2589.5163 1725.8442 2589.6435 1725.6789 2589.8215 C 1725.5136 2589.9995 1725.3864 2590.2284 1725.2974 2590.5082 C 1725.2084 2590.788 1725.1575 2591.1058 1725.1575 2591.4873 L 1725.1575 2594.8444 L 1723.924 2594.8444 L 1723.924 2588.3083 Z M 1731.5156 2588.3083 L 1733.4612 2593.3057 L 1735.3305 2588.3083 L 1736.653 2588.3083 L 1734.097 2594.8317 L 1732.7364 2594.8317 L 1730.0787 2588.3083 Z M 1736.742 2591.5763 C 1736.742 2591.1058 1736.831 2590.6608 1737.009 2590.241 C 1737.187 2589.8342 1737.4286 2589.4654 1737.7465 2589.1603 C 1738.0644 2588.855 1738.4205 2588.6007 1738.8528 2588.4227 C 1739.2725 2588.2447 1739.7303 2588.1557 1740.2135 2588.1557 C 1740.6967 2588.1557 1741.1545 2588.2447 1741.574 2588.4227 C 1741.9937 2588.6007 1742.3625 2588.8423 1742.6804 2589.1603 C 1742.9856 2589.4782 1743.24 2589.8342 1743.418 2590.241 C 1743.596 2590.648 1743.685 2591.093 1743.685 2591.5763 C 1743.685 2592.0468 1743.596 2592.5046 1743.418 2592.9115 C 1743.24 2593.3312 1742.9983 2593.6872 1742.6804 2593.9924 C 1742.3625 2594.2976 1742.0064 2594.5392 1741.574 2594.7172 C 1741.1545 2594.8952 1740.6967 2594.9843 1740.2135 2594.9843 C 1739.7303 2594.9843 1739.2725 2594.8952 1738.8528 2594.7172 C 1738.4332 2594.5392 1738.0644 2594.2976 1737.7465 2593.9924 C 1737.4286 2593.6872 1737.187 2593.3184 1737.009 2592.9115 C 1736.831 2592.492 1736.742 2592.0468 1736.742 2591.5763 Z M 1738.0517 2591.5763 C 1738.0517 2591.907 1738.1026 2592.212 1738.2043 2592.492 C 1738.306 2592.7716 1738.446 2593.0133 1738.6367 2593.204 C 1738.8147 2593.4075 1739.0436 2593.56 1739.3106 2593.6745 C 1739.5777 2593.789 1739.8701 2593.8525 1740.2007 2593.8525 C 1740.5314 2593.8525 1740.8238 2593.8017 1741.0909 2593.6745 C 1741.358 2593.56 1741.5868 2593.4075 1741.7648 2593.204 C 1741.9429 2593.0133 1742.0955 2592.7716 1742.1972 2592.492 C 1742.299 2592.212 1742.3498 2591.907 1742.3498 2591.5763 C 1742.3498 2591.2457 1742.299 2590.9405 1742.1972 2590.6608 C 1742.0955 2590.381 1741.9556 2590.1394 1741.7648 2589.9487 C 1741.5868 2589.758 1741.358 2589.5926 1741.0909 2589.4782 C 1740.8238 2589.3637 1740.5314 2589.3 1740.2007 2589.3 C 1739.8701 2589.3 1739.5777 2589.3637 1739.3106 2589.4782 C 1739.0436 2589.5926 1738.8147 2589.7452 1738.6367 2589.9487 C 1738.4586 2590.152 1738.306 2590.381 1738.2043 2590.6608 C 1738.1026 2590.9405 1738.0517 2591.2457 1738.0517 2591.5763 Z M 1743.7613 2588.3083 L 1745.1855 2588.3083 L 1747.1183 2593.3947 L 1747.1438 2593.3947 L 1749.0003 2588.3083 L 1750.3228 2588.3083 L 1747.2328 2596.2304 L 1746.8895 2597.006 C 1746.775 2597.235 1746.6351 2597.4385 1746.4698 2597.6038 C 1746.3045 2597.769 1746.101 2597.8963 1745.8722 2597.9853 C 1745.6433 2598.0743 1745.3508 2598.125 1745.0202 2598.125 C 1744.8422 2598.125 1744.6514 2598.1124 1744.4607 2598.087 C 1744.27 2598.0616 1744.092 2598.0107 1743.9139 2597.947 L 1744.0665 2596.8154 C 1744.308 2596.917 1744.5624 2596.968 1744.804 2596.968 C 1744.9947 2596.968 1745.16 2596.9425 1745.2872 2596.8917 C 1745.4144 2596.8408 1745.5288 2596.7645 1745.6306 2596.6755 C 1745.7323 2596.5738 1745.8086 2596.472 1745.8722 2596.345 C 1745.9357 2596.2177 1745.9993 2596.065 1746.063 2595.8998 L 1746.4698 2594.8698 Z" fill="#4a0d66"/>
          </g>
          <g id="Group_17">
            <g id="Graphic_20">
              <path d="M 1727.9742 2577.8456 L 1727.936 2576.1162 L 1726.1177 2574.9844 L 1726.1558 2576.7138 Z M 1730.5556 2582.169 L 1730.5175 2580.4778 L 1728.928 2579.486 C 1728.9025 2579.4732 1728.877 2579.4478 1728.8644 2579.435 L 1728.9025 2581.139 Z M 1724.8715 2584.4452 L 1720.7133 2581.864 L 1720.6116 2577.5404 L 1722.6462 2576.663 L 1722.608 2574.9336 L 1719.3527 2576.3323 C 1719.0984 2576.4468 1718.9458 2576.6757 1718.9585 2576.9427 L 1719.0856 2582.131 C 1719.0856 2582.398 1719.251 2582.665 1719.5053 2582.8176 L 1724.49 2585.9076 C 1724.719 2586.0475 1724.9987 2586.0856 1725.2403 2586.022 C 1725.2657 2586.0093 1725.2911 2586.0093 1725.3166 2585.9966 L 1728.3812 2584.674 L 1726.7153 2583.644 Z" fill="#b31aab"/>
            </g>
            <g id="Graphic_19">
              <path d="M 1738.3125 2574.8827 C 1738.2998 2574.5775 1738.1217 2574.2596 1737.8166 2574.0816 L 1731.7637 2570.3303 L 1731.573 2570.4066 L 1731.611 2572.225 L 1736.405 2575.2006 L 1736.5195 2580.0582 L 1738.3506 2581.19 L 1738.4524 2581.1518 Z M 1731.0643 2583.4152 L 1725.431 2579.931 L 1725.2911 2574.0816 L 1727.8598 2572.9753 L 1727.809 2570.9534 L 1723.8288 2572.67 C 1723.5363 2572.7972 1723.3583 2573.0643 1723.371 2573.3822 L 1723.5363 2580.249 C 1723.5363 2580.5668 1723.727 2580.872 1724.0322 2581.05 L 1730.632 2585.1446 C 1730.899 2585.31 1731.2296 2585.3608 1731.5093 2585.2718 C 1731.5348 2585.259 1731.5602 2585.2464 1731.5856 2585.2464 L 1735.4768 2583.5678 L 1733.544 2582.3725 Z" fill="#d163ce"/>
            </g>
            <g id="Graphic_18">
              <path d="M 1746.896 2570.076 L 1738.4396 2564.837 C 1738.1217 2564.6462 1737.753 2564.5953 1737.435 2564.697 C 1737.4096 2564.7098 1737.3715 2564.7225 1737.346 2564.7352 L 1729.0933 2568.2957 C 1728.7626 2568.4356 1728.5592 2568.7408 1728.572 2569.1095 L 1728.7754 2577.909 C 1728.788 2578.2652 1729.0043 2578.6212 1729.3476 2578.8247 L 1737.8038 2584.0638 C 1738.109 2584.2545 1738.4905 2584.3054 1738.8084 2584.2036 C 1738.8339 2584.191 1738.872 2584.1782 1738.8974 2584.1655 L 1747.1502 2580.605 C 1747.4808 2580.465 1747.6843 2580.1472 1747.6716 2579.791 L 1747.4681 2570.9915 C 1747.4554 2570.6355 1747.2392 2570.292 1746.896 2570.076 Z M 1738.2998 2582.0928 L 1730.9498 2577.5404 L 1730.7718 2569.898 L 1737.9437 2566.808 L 1745.2937 2571.3603 L 1745.4717 2579.0027 Z" fill="#e13eaf"/>
            </g>
          </g>
        </g>
      </g>
      <g id="Graphic_24">
        <path d="M 1761.4803 2564.6457 L 1787.496 2564.6457 C 1789.7052 2564.6457 1791.496 2566.4366 1791.496 2568.6457 L 1791.496 2617.3386 C 1791.496 2619.5477 1789.7052 2621.3386 1787.496 2621.3386 L 1761.4803 2621.3386 C 1759.2712 2621.3386 1757.4803 2619.5477 1757.4803 2617.3386 L 1757.4803 2568.6457 C 1757.4803 2566.4366 1759.2712 2564.6457 1761.4803 2564.6457 Z" fill="#ccc"/>
        <text transform="translate(1762.4803 2585.31)" fill="black">
          <tspan font-family="Helvetica Neue" font-size="13" fill="black" x=".08687449" y="12">App</tspan>
        </text>
      </g>
      <g id="Graphic_25">
        <path d="M 1718.1102 2599.817 L 1748.5197 2599.817 C 1750.7288 2599.817 1752.5197 2601.608 1752.5197 2603.817 L 1752.5197 2617.3386 C 1752.5197 2619.5477 1750.7288 2621.3386 1748.5197 2621.3386 L 1718.1102 2621.3386 C 1715.901 2621.3386 1714.1102 2619.5477 1714.1102 2617.3386 L 1714.1102 2603.817 C 1714.1102 2601.608 1715.901 2599.817 1718.1102 2599.817 Z" fill="#ffff40"/>
        <text transform="translate(1719.1102 2602.8958)" fill="black">
          <tspan font-family="Helvetica Neue" font-size="13" fill="black" x="1.6857567" y="12">Leaf</tspan>
        </text>
      </g>
      <g id="Graphic_36">
        <rect x="1686.6142" y="2671.6536" width="116.22047" height="83.62205" fill="#92e7ea"/>
        <rect x="1686.6142" y="2671.6536" width="116.22047" height="83.62205" stroke="gray" stroke-linecap="round" stroke-linejoin="round" stroke-width="1"/>
        <text transform="translate(1691.6142 2750.2756) rotate(-90)" fill="black">
          <tspan font-family="Helvetica Neue" font-size="16" fill="black" x="14.883024" y="15">Pod A</tspan>
        </text>
      </g>
      <g id="Group_28">
        <g id="Graphic_35"/>
        <g id="Group_29">
          <g id="Graphic_34">
            <path d="M 1717.6041 2712.4938 C 1717.6041 2712.7736 1717.6677 2713.0406 1717.7949 2713.2695 C 1717.922 2713.4984 1718.0873 2713.702 1718.278 2713.8672 C 1718.4815 2714.0325 1718.7104 2714.1597 1718.9775 2714.2487 C 1719.2445 2714.3377 1719.5243 2714.3885 1719.804 2714.3885 C 1720.1855 2714.3885 1720.5288 2714.2995 1720.8086 2714.1215 C 1721.0883 2713.9435 1721.3554 2713.702 1721.597 2713.4094 L 1722.538 2714.1215 C 1721.8513 2715.0116 1720.8849 2715.4567 1719.6514 2715.4567 C 1719.1428 2715.4567 1718.6723 2715.3677 1718.2526 2715.1897 C 1717.833 2715.0116 1717.477 2714.77 1717.1972 2714.465 C 1716.9047 2714.1597 1716.6886 2713.791 1716.536 2713.384 C 1716.3834 2712.9643 1716.307 2712.5193 1716.307 2712.0233 C 1716.307 2711.54 1716.396 2711.0823 1716.5614 2710.6627 C 1716.7267 2710.243 1716.9683 2709.887 1717.2608 2709.5818 C 1717.5533 2709.2766 1717.9093 2709.035 1718.329 2708.857 C 1718.7359 2708.679 1719.1936 2708.59 1719.6769 2708.59 C 1720.249 2708.59 1720.745 2708.6917 1721.1392 2708.895 C 1721.5334 2709.0986 1721.864 2709.3657 1722.1184 2709.6836 C 1722.3727 2710.0142 1722.5634 2710.3702 1722.6779 2710.79 C 1722.7923 2711.1968 1722.8559 2711.6164 1722.8559 2712.036 L 1722.8559 2712.481 L 1717.6041 2712.481 Z M 1721.5207 2711.5147 C 1721.508 2711.235 1721.4698 2710.9933 1721.3935 2710.7644 C 1721.3172 2710.5355 1721.2028 2710.332 1721.0375 2710.1668 C 1720.8849 2710.0015 1720.6814 2709.8616 1720.4525 2709.7726 C 1720.2236 2709.671 1719.9439 2709.6327 1719.6387 2709.6327 C 1719.3335 2709.6327 1719.0538 2709.6963 1718.8122 2709.8107 C 1718.5578 2709.9252 1718.3417 2710.0778 1718.1763 2710.2558 C 1717.9983 2710.4338 1717.8712 2710.6373 1717.7694 2710.8662 C 1717.6677 2711.095 1717.6296 2711.3112 1717.6296 2711.5274 L 1721.5207 2711.5274 Z M 1723.9113 2708.7807 L 1725.1448 2708.7807 L 1725.1448 2709.7853 L 1725.1702 2709.7853 C 1725.3228 2709.442 1725.6026 2709.1495 1725.984 2708.946 C 1726.3656 2708.73 1726.8106 2708.628 1727.3193 2708.628 C 1727.6372 2708.628 1727.9296 2708.679 1728.2221 2708.768 C 1728.5146 2708.8697 1728.769 2709.0096 1728.9724 2709.213 C 1729.1885 2709.4165 1729.3539 2709.671 1729.4937 2709.9887 C 1729.621 2710.3067 1729.6845 2710.6754 1729.6845 2711.1078 L 1729.6845 2715.304 L 1728.451 2715.304 L 1728.451 2711.451 C 1728.451 2711.146 1728.4129 2710.8916 1728.3238 2710.6754 C 1728.2476 2710.4592 1728.1331 2710.2812 1727.9932 2710.154 C 1727.8534 2710.027 1727.7008 2709.9252 1727.5227 2709.8616 C 1727.3447 2709.798 1727.154 2709.7726 1726.9632 2709.7726 C 1726.7089 2709.7726 1726.4673 2709.8107 1726.2511 2709.8997 C 1726.035 2709.9887 1725.8442 2710.116 1725.6789 2710.294 C 1725.5136 2710.472 1725.3864 2710.701 1725.2974 2710.9806 C 1725.2084 2711.2604 1725.1575 2711.5783 1725.1575 2711.9598 L 1725.1575 2715.3168 L 1723.924 2715.3168 L 1723.924 2708.7807 Z M 1731.5156 2708.7807 L 1733.4612 2713.7782 L 1735.3305 2708.7807 L 1736.653 2708.7807 L 1734.097 2715.304 L 1732.7364 2715.304 L 1730.0787 2708.7807 Z M 1736.742 2712.0488 C 1736.742 2711.5783 1736.831 2711.1332 1737.009 2710.7136 C 1737.187 2710.3067 1737.4286 2709.938 1737.7465 2709.6327 C 1738.0644 2709.3275 1738.4205 2709.0732 1738.8528 2708.895 C 1739.2725 2708.717 1739.7303 2708.628 1740.2135 2708.628 C 1740.6967 2708.628 1741.1545 2708.717 1741.574 2708.895 C 1741.9937 2709.0732 1742.3625 2709.3148 1742.6804 2709.6327 C 1742.9856 2709.9506 1743.24 2710.3067 1743.418 2710.7136 C 1743.596 2711.1205 1743.685 2711.5656 1743.685 2712.0488 C 1743.685 2712.5193 1743.596 2712.977 1743.418 2713.384 C 1743.24 2713.8036 1742.9983 2714.1597 1742.6804 2714.465 C 1742.3625 2714.77 1742.0064 2715.0116 1741.574 2715.1897 C 1741.1545 2715.3677 1740.6967 2715.4567 1740.2135 2715.4567 C 1739.7303 2715.4567 1739.2725 2715.3677 1738.8528 2715.1897 C 1738.4332 2715.0116 1738.0644 2714.77 1737.7465 2714.465 C 1737.4286 2714.1597 1737.187 2713.791 1737.009 2713.384 C 1736.831 2712.9643 1736.742 2712.5193 1736.742 2712.0488 Z M 1738.0517 2712.0488 C 1738.0517 2712.3794 1738.1026 2712.6846 1738.2043 2712.9643 C 1738.306 2713.244 1738.446 2713.4857 1738.6367 2713.6764 C 1738.8147 2713.88 1739.0436 2714.0325 1739.3106 2714.147 C 1739.5777 2714.2614 1739.8701 2714.325 1740.2007 2714.325 C 1740.5314 2714.325 1740.8238 2714.274 1741.0909 2714.147 C 1741.358 2714.0325 1741.5868 2713.88 1741.7648 2713.6764 C 1741.9429 2713.4857 1742.0955 2713.244 1742.1972 2712.9643 C 1742.299 2712.6846 1742.3498 2712.3794 1742.3498 2712.0488 C 1742.3498 2711.718 1742.299 2711.413 1742.1972 2711.1332 C 1742.0955 2710.8534 1741.9556 2710.612 1741.7648 2710.421 C 1741.5868 2710.2304 1741.358 2710.065 1741.0909 2709.9506 C 1740.8238 2709.836 1740.5314 2709.7726 1740.2007 2709.7726 C 1739.8701 2709.7726 1739.5777 2709.836 1739.3106 2709.9506 C 1739.0436 2710.065 1738.8147 2710.2176 1738.6367 2710.421 C 1738.4586 2710.6246 1738.306 2710.8534 1738.2043 2711.1332 C 1738.1026 2711.413 1738.0517 2711.718 1738.0517 2712.0488 Z M 1743.7613 2708.7807 L 1745.1855 2708.7807 L 1747.1183 2713.8672 L 1747.1438 2713.8672 L 1749.0003 2708.7807 L 1750.3228 2708.7807 L 1747.2328 2716.703 L 1746.8895 2717.4786 C 1746.775 2717.7075 1746.6351 2717.911 1746.4698 2718.0762 C 1746.3045 2718.2415 1746.101 2718.3687 1745.8722 2718.4577 C 1745.6433 2718.5467 1745.3508 2718.5976 1745.0202 2718.5976 C 1744.8422 2718.5976 1744.6514 2718.585 1744.4607 2718.5594 C 1744.27 2718.534 1744.092 2718.483 1743.9139 2718.4196 L 1744.0665 2717.2878 C 1744.308 2717.3896 1744.5624 2717.4404 1744.804 2717.4404 C 1744.9947 2717.4404 1745.16 2717.415 1745.2872 2717.364 C 1745.4144 2717.3133 1745.5288 2717.237 1745.6306 2717.148 C 1745.7323 2717.0462 1745.8086 2716.9445 1745.8722 2716.8173 C 1745.9357 2716.6902 1745.9993 2716.5376 1746.063 2716.3723 L 1746.4698 2715.3423 Z" fill="#4a0d66"/>
          </g>
          <g id="Group_30">
            <g id="Graphic_33">
              <path d="M 1727.9742 2698.318 L 1727.936 2696.5886 L 1726.1177 2695.457 L 1726.1558 2697.1863 Z M 1730.5556 2702.6415 L 1730.5175 2700.9502 L 1728.928 2699.9584 C 1728.9025 2699.9457 1728.877 2699.9202 1728.8644 2699.9075 L 1728.9025 2701.6115 Z M 1724.8715 2704.9177 L 1720.7133 2702.3363 L 1720.6116 2698.0128 L 1722.6462 2697.1354 L 1722.608 2695.406 L 1719.3527 2696.8048 C 1719.0984 2696.9192 1718.9458 2697.148 1718.9585 2697.415 L 1719.0856 2702.6033 C 1719.0856 2702.8704 1719.251 2703.1374 1719.5053 2703.29 L 1724.49 2706.38 C 1724.719 2706.52 1724.9987 2706.558 1725.2403 2706.4945 C 1725.2657 2706.4818 1725.2911 2706.4818 1725.3166 2706.469 L 1728.3812 2705.1466 L 1726.7153 2704.1166 Z" fill="#b31aab"/>
            </g>
            <g id="Graphic_32">
              <path d="M 1738.3125 2695.355 C 1738.2998 2695.05 1738.1217 2694.732 1737.8166 2694.554 L 1731.7637 2690.8027 L 1731.573 2690.879 L 1731.611 2692.6975 L 1736.405 2695.673 L 1736.5195 2700.5306 L 1738.3506 2701.6624 L 1738.4524 2701.6242 Z M 1731.0643 2703.8877 L 1725.431 2700.4035 L 1725.2911 2694.554 L 1727.8598 2693.4477 L 1727.809 2691.4258 L 1723.8288 2693.1425 C 1723.5363 2693.2697 1723.3583 2693.5367 1723.371 2693.8546 L 1723.5363 2700.7214 C 1723.5363 2701.0393 1723.727 2701.3444 1724.0322 2701.5225 L 1730.632 2705.617 C 1730.899 2705.7824 1731.2296 2705.8333 1731.5093 2705.7442 C 1731.5348 2705.7315 1731.5602 2705.7188 1731.5856 2705.7188 L 1735.4768 2704.0403 L 1733.544 2702.845 Z" fill="#d163ce"/>
            </g>
            <g id="Graphic_31">
              <path d="M 1746.896 2690.5484 L 1738.4396 2685.3094 C 1738.1217 2685.1186 1737.753 2685.0678 1737.435 2685.1695 C 1737.4096 2685.1822 1737.3715 2685.195 1737.346 2685.2076 L 1729.0933 2688.768 C 1728.7626 2688.908 1728.5592 2689.2132 1728.572 2689.582 L 1728.7754 2698.3816 C 1728.788 2698.7376 1729.0043 2699.0937 1729.3476 2699.297 L 1737.8038 2704.5362 C 1738.109 2704.727 1738.4905 2704.7778 1738.8084 2704.676 C 1738.8339 2704.6634 1738.872 2704.6507 1738.8974 2704.638 L 1747.1502 2701.0774 C 1747.4808 2700.9375 1747.6843 2700.6196 1747.6716 2700.2636 L 1747.4681 2691.464 C 1747.4554 2691.108 1747.2392 2690.7646 1746.896 2690.5484 Z M 1738.2998 2702.5652 L 1730.9498 2698.0128 L 1730.7718 2690.3704 L 1737.9437 2687.2804 L 1745.2937 2691.8328 L 1745.4717 2699.4752 Z" fill="#e13eaf"/>
            </g>
          </g>
        </g>
      </g>
      <g id="Graphic_27">
        <path d="M 1761.4803 2685.118 L 1787.496 2685.118 C 1789.7052 2685.118 1791.496 2686.909 1791.496 2689.118 L 1791.496 2737.811 C 1791.496 2740.0202 1789.7052 2741.811 1787.496 2741.811 L 1761.4803 2741.811 C 1759.2712 2741.811 1757.4803 2740.0202 1757.4803 2737.811 L 1757.4803 2689.118 C 1757.4803 2686.909 1759.2712 2685.118 1761.4803 2685.118 Z" fill="#ccc"/>
        <text transform="translate(1762.4803 2705.7826)" fill="black">
          <tspan font-family="Helvetica Neue" font-size="13" fill="black" x=".08687449" y="12">App</tspan>
        </text>
      </g>
      <g id="Graphic_26">
        <path d="M 1718.1102 2720.2895 L 1748.5197 2720.2895 C 1750.7288 2720.2895 1752.5197 2722.0803 1752.5197 2724.2895 L 1752.5197 2737.811 C 1752.5197 2740.0202 1750.7288 2741.811 1748.5197 2741.811 L 1718.1102 2741.811 C 1715.901 2741.811 1714.1102 2740.0202 1714.1102 2737.811 L 1714.1102 2724.2895 C 1714.1102 2722.0803 1715.901 2720.2895 1718.1102 2720.2895 Z" fill="#ffff40"/>
        <text transform="translate(1719.1102 2723.3683)" fill="black">
          <tspan font-family="Helvetica Neue" font-size="13" fill="black" x="1.6857567" y="12">Leaf</tspan>
        </text>
      </g>
      <g id="Graphic_49">
        <path d="M 1680.441 2544.0945 L 1929.4803 2544.0945 C 1933.8986 2544.0945 1937.4803 2547.6762 1937.4803 2552.0945 L 1937.4803 2755.7796 C 1937.4803 2760.1978 1933.8986 2763.7796 1929.4803 2763.7796 L 1680.441 2763.7796 C 1676.0227 2763.7796 1672.441 2760.1978 1672.441 2755.7796 L 1672.441 2552.0945 C 1672.441 2547.6762 1676.0227 2544.0945 1680.441 2544.0945 Z" stroke="gray" stroke-linecap="round" stroke-linejoin="round" stroke-dasharray="4.0,4.0" stroke-width="1"/>
      </g>
      <g id="Group_39">
        <g id="Graphic_44">
          <path d="M 1871.6452 2674.0736 C 1871.6452 2674.5473 1871.7529 2674.9995 1871.9682 2675.387 C 1872.1835 2675.7747 1872.4635 2676.1192 1872.7865 2676.399 C 1873.131 2676.679 1873.5186 2676.8944 1873.9708 2677.045 C 1874.423 2677.196 1874.8967 2677.282 1875.3704 2677.282 C 1876.0164 2677.282 1876.5978 2677.1313 1877.0716 2676.8298 C 1877.5453 2676.5284 1877.9975 2676.1192 1878.4066 2675.624 L 1880 2676.8298 C 1878.8373 2678.337 1877.2008 2679.0908 1875.112 2679.0908 C 1874.2507 2679.0908 1873.454 2678.94 1872.7434 2678.6386 C 1872.0328 2678.337 1871.4299 2677.928 1870.9562 2677.4112 C 1870.461 2676.8944 1870.0948 2676.27 1869.8364 2675.581 C 1869.578 2674.8703 1869.4488 2674.1167 1869.4488 2673.277 C 1869.4488 2672.4586 1869.5996 2671.6834 1869.8795 2670.9728 C 1870.1594 2670.2622 1870.5686 2669.6593 1871.0638 2669.1425 C 1871.559 2668.6257 1872.162 2668.2166 1872.8726 2667.915 C 1873.5617 2667.6137 1874.3369 2667.463 1875.155 2667.463 C 1876.124 2667.463 1876.964 2667.6352 1877.6314 2667.9797 C 1878.299 2668.3242 1878.8588 2668.7764 1879.2895 2669.3148 C 1879.7201 2669.8746 1880.0431 2670.4776 1880.237 2671.188 C 1880.4307 2671.8772 1880.5384 2672.5878 1880.5384 2673.2984 L 1880.5384 2674.052 L 1871.6452 2674.052 Z M 1878.2774 2672.4155 C 1878.2559 2671.9418 1878.1913 2671.5327 1878.062 2671.145 C 1877.9329 2670.7575 1877.739 2670.413 1877.4592 2670.133 C 1877.2008 2669.853 1876.8562 2669.6162 1876.4686 2669.4655 C 1876.081 2669.2932 1875.6073 2669.2286 1875.0905 2669.2286 C 1874.5737 2669.2286 1874.1 2669.3363 1873.6909 2669.53 C 1873.2602 2669.724 1872.8941 2669.9823 1872.6142 2670.2838 C 1872.3127 2670.5852 1872.0974 2670.9298 1871.9251 2671.3173 C 1871.7529 2671.705 1871.6883 2672.071 1871.6883 2672.437 L 1878.2774 2672.437 Z M 1882.3256 2667.786 L 1884.4143 2667.786 L 1884.4143 2669.487 L 1884.4574 2669.487 C 1884.7158 2668.9056 1885.1895 2668.4104 1885.8355 2668.066 C 1886.4815 2667.6998 1887.2352 2667.5275 1888.0965 2667.5275 C 1888.6348 2667.5275 1889.13 2667.6137 1889.6254 2667.7644 C 1890.1206 2667.9366 1890.5513 2668.1735 1890.8958 2668.518 C 1891.2619 2668.8626 1891.5418 2669.2932 1891.7787 2669.8316 C 1891.994 2670.37 1892.1017 2670.9944 1892.1017 2671.7265 L 1892.1017 2678.8324 L 1890.013 2678.8324 L 1890.013 2672.308 C 1890.013 2671.791 1889.9483 2671.3604 1889.7976 2670.9944 C 1889.6684 2670.6283 1889.4746 2670.3268 1889.2378 2670.1115 C 1889.001 2669.8962 1888.7425 2669.724 1888.441 2669.6162 C 1888.1396 2669.5086 1887.8166 2669.4655 1887.4936 2669.4655 C 1887.063 2669.4655 1886.6538 2669.53 1886.2877 2669.6808 C 1885.9217 2669.8316 1885.5987 2670.047 1885.3187 2670.3484 C 1885.0388 2670.6498 1884.8235 2671.0374 1884.6727 2671.511 C 1884.522 2671.985 1884.4359 2672.5232 1884.4359 2673.1692 L 1884.4359 2678.854 L 1882.3472 2678.854 L 1882.3472 2667.786 Z M 1895.2024 2667.786 L 1898.497 2676.2484 L 1901.6624 2667.786 L 1903.9018 2667.786 L 1899.5736 2678.8324 L 1897.2696 2678.8324 L 1892.7692 2667.786 Z M 1904.0525 2673.32 C 1904.0525 2672.5232 1904.2033 2671.7695 1904.5047 2671.059 C 1904.8062 2670.37 1905.2153 2669.7454 1905.7536 2669.2286 C 1906.292 2668.712 1906.895 2668.2812 1907.627 2667.9797 C 1908.3376 2667.6783 1909.1128 2667.5275 1909.931 2667.5275 C 1910.7493 2667.5275 1911.5245 2667.6783 1912.235 2667.9797 C 1912.9457 2668.2812 1913.5702 2668.6903 1914.1085 2669.2286 C 1914.6253 2669.767 1915.056 2670.37 1915.3574 2671.059 C 1915.6589 2671.748 1915.8096 2672.5017 1915.8096 2673.32 C 1915.8096 2674.1167 1915.6589 2674.892 1915.3574 2675.581 C 1915.056 2676.2915 1914.6468 2676.8944 1914.1085 2677.4112 C 1913.5702 2677.928 1912.9672 2678.337 1912.235 2678.6386 C 1911.5245 2678.94 1910.7493 2679.0908 1909.931 2679.0908 C 1909.1128 2679.0908 1908.3376 2678.94 1907.627 2678.6386 C 1906.9164 2678.337 1906.292 2677.928 1905.7536 2677.4112 C 1905.2153 2676.8944 1904.8062 2676.27 1904.5047 2675.581 C 1904.2033 2674.8703 1904.0525 2674.1167 1904.0525 2673.32 Z M 1906.2704 2673.32 C 1906.2704 2673.8798 1906.3566 2674.3966 1906.5288 2674.8703 C 1906.701 2675.344 1906.938 2675.7532 1907.261 2676.0762 C 1907.5624 2676.4207 1907.95 2676.679 1908.4022 2676.873 C 1908.8544 2677.0667 1909.3497 2677.1744 1909.9095 2677.1744 C 1910.4694 2677.1744 1910.9647 2677.0882 1911.4169 2676.873 C 1911.869 2676.679 1912.2566 2676.4207 1912.558 2676.0762 C 1912.8596 2675.7532 1913.118 2675.344 1913.2902 2674.8703 C 1913.4625 2674.3966 1913.5486 2673.8798 1913.5486 2673.32 C 1913.5486 2672.76 1913.4625 2672.2433 1913.2902 2671.7695 C 1913.118 2671.2958 1912.881 2670.8867 1912.558 2670.5637 C 1912.2566 2670.2407 1911.869 2669.9608 1911.4169 2669.767 C 1910.9647 2669.5732 1910.4694 2669.4655 1909.9095 2669.4655 C 1909.3497 2669.4655 1908.8544 2669.5732 1908.4022 2669.767 C 1907.95 2669.9608 1907.5624 2670.219 1907.261 2670.5637 C 1906.9595 2670.9082 1906.701 2671.2958 1906.5288 2671.7695 C 1906.3566 2672.2433 1906.2704 2672.76 1906.2704 2673.32 Z M 1915.9388 2667.786 L 1918.3505 2667.786 L 1921.6235 2676.399 L 1921.6666 2676.399 L 1924.8104 2667.786 L 1927.05 2667.786 L 1921.8173 2681.201 L 1921.236 2682.5146 C 1921.0421 2682.902 1920.8053 2683.2467 1920.5254 2683.5266 C 1920.2454 2683.8065 1919.901 2684.022 1919.5133 2684.1726 C 1919.1257 2684.3233 1918.6304 2684.4095 1918.0706 2684.4095 C 1917.7691 2684.4095 1917.4461 2684.388 1917.1231 2684.345 C 1916.8001 2684.3018 1916.4987 2684.2157 1916.1972 2684.108 L 1916.4556 2682.1916 C 1916.8647 2682.3638 1917.2954 2682.45 1917.7045 2682.45 C 1918.0275 2682.45 1918.3074 2682.407 1918.5228 2682.3208 C 1918.738 2682.2346 1918.932 2682.1054 1919.1042 2681.9547 C 1919.2764 2681.7824 1919.4056 2681.6102 1919.5133 2681.3948 C 1919.621 2681.1795 1919.7286 2680.921 1919.8363 2680.6412 L 1920.5254 2678.897 Z" fill="#4a0d66"/>
        </g>
        <g id="Group_40">
          <g id="Graphic_43">
            <path d="M 1889.2056 2650.0687 L 1889.141 2647.1402 L 1886.0618 2645.2238 L 1886.1264 2648.1523 Z M 1893.5768 2657.39 L 1893.5122 2654.526 L 1890.8206 2652.8465 C 1890.7775 2652.825 1890.7345 2652.782 1890.713 2652.7604 L 1890.7775 2655.6458 Z M 1883.9515 2661.2444 L 1876.9102 2656.8732 L 1876.738 2649.552 L 1880.1832 2648.066 L 1880.1186 2645.1377 L 1874.6062 2647.5063 C 1874.1755 2647.7 1873.917 2648.0877 1873.9386 2648.54 L 1874.154 2657.3254 C 1874.154 2657.7776 1874.434 2658.2298 1874.8646 2658.4882 L 1883.3055 2663.7207 C 1883.6931 2663.9576 1884.1669 2664.0222 1884.576 2663.9145 C 1884.619 2663.893 1884.6621 2663.893 1884.7052 2663.8715 L 1889.8947 2661.632 L 1887.0738 2659.8878 Z" fill="#b31aab"/>
          </g>
          <g id="Graphic_42">
            <path d="M 1906.712 2645.0515 C 1906.6905 2644.5347 1906.389 2643.9964 1905.8722 2643.695 L 1895.6225 2637.3427 L 1895.2995 2637.472 L 1895.364 2640.551 L 1903.482 2645.59 L 1903.6759 2653.8155 L 1906.7766 2655.732 L 1906.9489 2655.6673 Z M 1894.4382 2659.5002 L 1884.899 2653.6002 L 1884.6621 2643.695 L 1889.0118 2641.8216 L 1888.9257 2638.3978 L 1882.1858 2641.3048 C 1881.6906 2641.52 1881.389 2641.9723 1881.4106 2642.5106 L 1881.6906 2654.1385 C 1881.6906 2654.6768 1882.0136 2655.1936 1882.5303 2655.495 L 1893.706 2662.4287 C 1894.1582 2662.7087 1894.718 2662.7948 1895.1918 2662.644 C 1895.2349 2662.6225 1895.278 2662.601 1895.321 2662.601 L 1901.9101 2659.7586 L 1898.637 2657.7345 Z" fill="#d163ce"/>
          </g>
          <g id="Graphic_41">
            <path d="M 1921.2469 2636.912 L 1906.9274 2628.0404 C 1906.389 2627.7174 1905.7646 2627.6312 1905.2262 2627.8035 C 1905.1832 2627.825 1905.1186 2627.8466 1905.0755 2627.868 L 1891.1005 2633.8974 C 1890.5407 2634.1342 1890.1961 2634.651 1890.2177 2635.2755 L 1890.5622 2650.1764 C 1890.5837 2650.7793 1890.9498 2651.3823 1891.5312 2651.7268 L 1905.8507 2660.5984 C 1906.3675 2660.9214 1907.0135 2661.0076 1907.5518 2660.8353 C 1907.5949 2660.8138 1907.6595 2660.7922 1907.7025 2660.7707 L 1921.6775 2654.7414 C 1922.2374 2654.5046 1922.582 2653.9662 1922.5604 2653.3633 L 1922.2159 2638.4624 C 1922.1943 2637.8595 1921.8283 2637.278 1921.2469 2636.912 Z M 1906.6905 2657.2608 L 1894.2444 2649.552 L 1893.943 2636.6105 L 1906.0876 2631.378 L 1918.5337 2639.087 L 1918.8352 2652.0282 Z" fill="#e13eaf"/>
          </g>
        </g>
        <g id="Graphic_45"/>
      </g>
      <g id="Line_46">
        <line x1="1869.4488" y1="2654.2527" x2="1811.7207" y2="2625.8985" marker-end="url(#FilledArrow_Marker)" stroke="black" stroke-linecap="round" stroke-linejoin="round" stroke-dasharray="4.0,4.0" stroke-width="1"/>
      </g>
      <g id="Line_47">
        <line x1="1869.4488" y1="2657.4108" x2="1811.8646" y2="2683.2904" marker-end="url(#FilledArrow_Marker)" stroke="black" stroke-linecap="round" stroke-linejoin="round" stroke-dasharray="4.0,4.0" stroke-width="1"/>
      </g>
      <g id="Graphic_48">
        <path d="M 1836.5287 2645.3022 L 1866.9382 2645.3022 C 1869.1473 2645.3022 1870.9382 2647.093 1870.9382 2649.3022 L 1870.9382 2662.8238 C 1870.9382 2665.033 1869.1473 2666.8238 1866.9382 2666.8238 L 1836.5287 2666.8238 C 1834.3195 2666.8238 1832.5287 2665.033 1832.5287 2662.8238 L 1832.5287 2649.3022 C 1832.5287 2647.093 1834.3195 2645.3022 1836.5287 2645.3022 Z" fill="#ffff40"/>
        <text transform="translate(1837.5287 2648.381)" fill="black">
          <tspan font-family="Helvetica Neue" font-size="13" fill="black" x="1.6857567" y="12">Leaf</tspan>
        </text>
      </g>
      <g id="Graphic_52">
        <text transform="translate(1964.974 2520.0394)" fill="black">
          <tspan font-family="Helvetica Neue" font-size="16" fill="black" x="6.672" y="15">Application</tspan>
          <tspan font-family="Helvetica Neue" font-size="16" fill="black" x="5186962e-19" y="33.448">Namespaces</tspan>
        </text>
      </g>
      <g id="Line_55">
        <path d="M 2000.2828 2561.9354 C 1991.9222 2573.1383 1977.5824 2587.0274 1953.071 2600.54" stroke="black" stroke-linecap="round" stroke-linejoin="round" stroke-width="1"/>
      </g>
      <g id="Line_56">
        <line x1="1488.2018" y1="2551.181" x2="1488.4685" y2="2480.2936" marker-end="url(#FilledArrow_Marker)" stroke="black" stroke-linecap="round" stroke-linejoin="round" stroke-dasharray="4.0,4.0" stroke-width="1"/>
      </g>
      <g id="Graphic_59">
        <text transform="translate(2109.7244 2658.669)" fill="black">
          <tspan font-family="Helvetica Neue" font-weight="bold" font-size="16" fill="black" x="7105427e-19" y="16">User secure call to application</tspan>
          <tspan font-family="Helvetica Neue" font-weight="bold" font-size="16" fill="black" x="84.848" y="35.46411">(HTTPS)</tspan>
        </text>
      </g>
      <g id="Line_60">
        <line x1="2346.3564" y1="2654.0022" x2="1936.9498" y2="2655.885" marker-end="url(#FilledArrow_Marker)" stroke="black" stroke-linecap="round" stroke-linejoin="round" stroke-width="1"/>
      </g>
      <g id="Graphic_61">
        <rect x="1989.9213" y="2576.2524" width="143.1496" height="33.479457" fill="#a000a0"/>
        <text transform="translate(1994.9213 2583.768)" fill="white">
          <tspan font-family="Helvetica Neue" font-size="16" fill="white" x="6.854806" y="15">App1 TLS secret</tspan>
        </text>
      </g>
      <g id="Graphic_62">
        <rect x="2021.5564" y="2614.9607" width="143.1496" height="33.479457" fill="#a000a0"/>
        <text transform="translate(2026.5564 2622.4764)" fill="white">
          <tspan font-family="Helvetica Neue" font-size="16" fill="white" x="6.854806" y="15">App2 TLS secret</tspan>
        </text>
      </g>
      <g id="Graphic_63">
        <text transform="translate(1274.8004 2715.9778)" fill="black">
          <tspan font-family="Helvetica Neue" font-size="16" fill="black" x="5.92" y="15">TSB Enabled</tspan>
          <tspan font-family="Helvetica Neue" font-size="16" fill="black" x="23.112" y="33.448">Clusters</tspan>
          <tspan font-family="Helvetica Neue" font-size="16" fill="black" x="5471179e-19" y="51.895996">(Control Plane)</tspan>
        </text>
      </g>
      <g id="Line_64">
        <line x1="1384.9844" y1="2714.8866" x2="1420.5407" y2="2697.1287" stroke="black" stroke-linecap="round" stroke-linejoin="round" stroke-width="1"/>
      </g>
      <g id="Graphic_65"/>
      <g id="Graphic_66">
        <text transform="translate(1267.8347 2248.622)" fill="black">
          <tspan font-family="Helvetica Neue" font-size="16" fill="black" x="28.168" y="15">TSB  Cluster</tspan>
          <tspan font-family="Helvetica Neue" font-size="16" fill="black" x="7531753e-19" y="33.448">(Management Plane)</tspan>
        </text>
      </g>
      <g id="Line_67">
        <line x1="1388.0156" y1="2290.518" x2="1437.1654" y2="2315.128" stroke="black" stroke-linecap="round" stroke-linejoin="round" stroke-width="1"/>
      </g>
      <g id="Graphic_68"/>
      <g id="Line_69">
        <line x1="1261.4173" y1="2352.528" x2="1442.8561" y2="2353.6702" marker-end="url(#FilledArrow_Marker)" stroke="black" stroke-linecap="round" stroke-linejoin="round" stroke-width="1"/>
      </g>
      <g id="Graphic_70">
        <text transform="translate(1283.9307 2309.567)" fill="black">
          <tspan font-family="Helvetica Neue" font-weight="bold" font-size="16" fill="black" x="28.952" y="16">UI:8443</tspan>
          <tspan font-family="Helvetica Neue" font-weight="bold" font-size="16" fill="black" x="0" y="35.46411">(HTTPS+LDAP)</tspan>
        </text>
      </g>
      <g id="Graphic_71"/>
      <g id="Line_72">
        <line x1="1261.4173" y1="2407.5665" x2="1442.856" y2="2406.8682" marker-end="url(#FilledArrow_Marker)" stroke="black" stroke-linecap="round" stroke-linejoin="round" stroke-width="1"/>
      </g>
      <g id="Graphic_73">
        <text transform="translate(1267.4987 2409.1186)" fill="black">
          <tspan font-family="Helvetica Neue" font-weight="bold" font-size="16" fill="black" x="40.64" y="16">CLI:8443</tspan>
          <tspan font-family="Helvetica Neue" font-weight="bold" font-size="16" fill="black" x="8526513e-20" y="35.46411">(HTTPS+username,</tspan>
          <tspan font-family="Helvetica Neue" font-weight="bold" font-size="16" fill="black" x="33.992" y="54.92822">password)</tspan>
        </text>
      </g>
      <g id="Line_74">
        <line x1="1653.3071" y1="2355.5693" x2="1653.3071" y2="2376.8717" marker-end="url(#FilledArrow_Marker)" marker-start="url(#FilledArrow_Marker_2)" stroke="black" stroke-linecap="round" stroke-linejoin="round" stroke-dasharray="4.0,4.0" stroke-width="1"/>
      </g>
      <g id="Graphic_75">
        <rect x="1364.3985" y="2902.6772" width="72.283465" height="33.479457" fill="#f15623"/>
      </g>
      <g id="Graphic_76">
        <text transform="translate(1441.682 2912.7086)" fill="black">
          <tspan font-family="Helvetica Neue" font-size="16" fill="black" x="48316906e-20" y="15">Tetrate Application</tspan>
        </text>
      </g>
      <g id="Graphic_77">
        <rect x="1364.3985" y="2954.4803" width="72.283465" height="33.479457" fill="#666"/>
      </g>
      <g id="Graphic_78">
        <text transform="translate(1441.682 2961.996)" fill="black">
          <tspan font-family="Helvetica Neue" font-size="16" fill="black" x="5684342e-19" y="15">3rd Party Application</tspan>
        </text>
      </g>
      <g id="Graphic_80">
        <rect x="1364.3985" y="3006.2834" width="72.283465" height="33.479457" fill="#456bb0"/>
      </g>
      <g id="Graphic_79">
        <text transform="translate(1441.538 3013.799)" fill="black">
          <tspan font-family="Helvetica Neue" font-size="16" fill="black" x="7958079e-19" y="15">Istio Intermediate CA</tspan>
        </text>
      </g>
      <g id="Graphic_86">
        <rect x="1634.9477" y="2902.6772" width="72.283465" height="33.479457" fill="#31c531"/>
      </g>
      <g id="Graphic_85">
        <text transform="translate(1712.0872 2910.193)" fill="black">
          <tspan font-family="Helvetica Neue" font-size="16" fill="black" x="0" y="15">TSB Internal Certificate</tspan>
        </text>
      </g>
      <g id="Graphic_84">
        <rect x="1634.9477" y="2954.4803" width="72.283465" height="33.479457" fill="#a000a0"/>
      </g>
      <g id="Graphic_83">
        <text transform="translate(1712.2312 2961.996)" fill="black">
          <tspan font-family="Helvetica Neue" font-size="16" fill="black" x="0" y="15">TLS Certificate</tspan>
        </text>
      </g>
      <g id="Graphic_82">
        <rect x="1634.9477" y="3006.2834" width="72.283465" height="33.479457" fill="#ffff40"/>
      </g>
      <g id="Graphic_81">
        <text transform="translate(1710.1671 3013.799)" fill="black">
          <tspan font-family="Helvetica Neue" font-size="16" fill="black" x="8668621e-19" y="15">Istio mTLS Certificate</tspan>
        </text>
      </g>
      <g id="Graphic_88"/>
      <g id="Graphic_89"/>
      <g id="Graphic_91"/>
      <g id="Graphic_90"/>
      <g id="Line_92">
        <line x1="1937.5143" y1="2918.159" x2="1982.4358" y2="2918.159" marker-end="url(#FilledArrow_Marker)" stroke="black" stroke-linecap="round" stroke-linejoin="round" stroke-width="1"/>
      </g>
      <g id="Line_93">
        <line x1="1937.5143" y1="2969.962" x2="1982.4358" y2="2969.962" marker-end="url(#FilledArrow_Marker)" stroke="black" stroke-linecap="round" stroke-linejoin="round" stroke-dasharray="4.0,4.0" stroke-width="1"/>
      </g>
      <g id="Graphic_94">
        <text transform="translate(1997.3358 2908.935)" fill="black">
          <tspan font-family="Helvetica Neue" font-size="16" fill="black" x="5968559e-19" y="15">User Reqeusts</tspan>
        </text>
      </g>
      <g id="Graphic_95">
        <text transform="translate(1997.3358 2960.738)" fill="black">
          <tspan font-family="Helvetica Neue" font-size="16" fill="black" x="43343107e-20" y="15">Service Reqeusts</tspan>
        </text>
      </g>
      <g id="Graphic_96">
        <text transform="translate(1369.3985 2863.2168)" fill="black">
          <tspan font-family="Helvetica Neue" font-weight="bold" font-size="16" fill="black" x="31974423e-20" y="16">Legend</tspan>
        </text>
      </g>
      <g id="Graphic_97">
        <path d="M 1339.3202 2857.323 L 2156.706 2857.323 C 2161.1243 2857.323 2164.706 2860.9046 2164.706 2865.323 L 2164.706 3043.496 C 2164.706 3047.9144 2161.1243 3051.496 2156.706 3051.496 L 1339.3202 3051.496 C 1334.902 3051.496 1331.3202 3047.9144 1331.3202 3043.496 L 1331.3202 2865.323 C 1331.3202 2860.9046 1334.902 2857.323 1339.3202 2857.323 Z" stroke="#f15623" stroke-linecap="round" stroke-linejoin="round" stroke-dasharray="4.0,4.0" stroke-width="1"/>
      </g>
    </g>
  </g>
</svg>
