<svg xmlns="http://www.w3.org/2000/svg" xmlns:xlink="http://www.w3.org/1999/xlink" width="150" height="50" preserveAspectRatio="xMidYMid meet" version="1.0" viewBox="0 0 112.5 37.5" zoomAndPan="magnify"><defs><clipPath id="id1"><path d="M 10 11.027344 L 18 11.027344 L 18 25 L 10 25 Z M 10 11.027344" clip-rule="nonzero"/></clipPath><clipPath id="id2"><path d="M 11 11.027344 L 19 11.027344 L 19 25.894531 L 11 25.894531 Z M 11 11.027344" clip-rule="nonzero"/></clipPath><clipPath id="id3"><path d="M 12 12 L 19.824219 12 L 19.824219 25.894531 L 12 25.894531 Z M 12 12" clip-rule="nonzero"/></clipPath><clipPath id="id4"><path d="M 3 11.027344 L 10 11.027344 L 10 25 L 3 25 Z M 3 11.027344" clip-rule="nonzero"/></clipPath><clipPath id="id5"><path d="M 1 11.027344 L 10 11.027344 L 10 25.894531 L 1 25.894531 Z M 1 11.027344" clip-rule="nonzero"/></clipPath><clipPath id="id6"><path d="M 0.492188 12 L 9 12 L 9 25.894531 L 0.492188 25.894531 Z M 0.492188 12" clip-rule="nonzero"/></clipPath><clipPath id="id7"><path d="M 97 11 L 111.511719 11 L 111.511719 25 L 97 25 Z M 97 11" clip-rule="nonzero"/></clipPath></defs><g clip-path="url(#id1)"><path fill="#f4f6fc" fill-opacity="1" fill-rule="nonzero" d="M 10.632812 13.703125 C 10.632812 13.703125 12.257812 11.992188 13.351562 11.546875 C 14.441406 11.101562 17.191406 11.03125 17.191406 11.03125 L 17.191406 22.132812 C 17.191406 22.132812 14.695312 22.257812 13.601562 22.703125 C 12.507812 23.152344 10.632812 24.804688 10.632812 24.804688 Z M 10.632812 13.703125"/></g><g clip-path="url(#id2)"><path fill="#f4f6fc" fill-opacity="1" fill-rule="nonzero" d="M 18.570312 11.847656 C 18.570312 11.847656 18.144531 11.859375 17.570312 11.898438 L 17.570312 22.570312 C 17.570312 22.570312 15.070312 22.695312 13.976562 23.140625 C 13.40625 23.371094 12.066406 24.148438 11.449219 24.632812 L 11.136719 25.621094 C 11.136719 25.621094 13.257812 24.460938 14.351562 24.015625 C 15.445312 23.570312 18.570312 22.949219 18.570312 22.949219 Z M 18.570312 11.847656"/></g><g clip-path="url(#id3)"><path fill="#f4f6fc" fill-opacity="1" fill-rule="nonzero" d="M 19.820312 12.777344 C 19.820312 12.777344 19.515625 12.785156 19.070312 12.8125 L 19.070312 23.386719 C 19.070312 23.386719 16.570312 23.515625 15.476562 23.960938 C 14.828125 24.222656 13.34375 24.75 12.699219 25.269531 L 12.199219 25.894531 C 12.199219 25.894531 15.136719 24.894531 16.230469 24.449219 C 17.324219 24.003906 19.820312 23.878906 19.820312 23.878906 Z M 19.820312 12.777344"/></g><g clip-path="url(#id4)"><path fill="#f4f6fc" fill-opacity="1" fill-rule="nonzero" d="M 9.683594 13.703125 C 9.683594 13.703125 8.058594 11.992188 6.964844 11.546875 C 5.871094 11.101562 3.125 11.03125 3.125 11.03125 L 3.125 22.132812 C 3.125 22.132812 5.621094 22.257812 6.714844 22.703125 C 7.808594 23.152344 9.683594 24.804688 9.683594 24.804688 Z M 9.683594 13.703125"/></g><g clip-path="url(#id5)"><path fill="#f4f6fc" fill-opacity="1" fill-rule="nonzero" d="M 1.746094 11.847656 C 1.746094 11.847656 2.167969 11.859375 2.746094 11.898438 L 2.746094 22.570312 C 2.746094 22.570312 5.246094 22.695312 6.339844 23.140625 C 6.910156 23.371094 8.25 24.148438 8.867188 24.632812 L 9.179688 25.621094 C 9.179688 25.621094 7.058594 24.460938 5.964844 24.015625 C 4.871094 23.570312 1.746094 22.949219 1.746094 22.949219 Z M 1.746094 11.847656"/></g><g clip-path="url(#id6)"><path fill="#f4f6fc" fill-opacity="1" fill-rule="nonzero" d="M 0.492188 12.777344 C 0.492188 12.777344 0.800781 12.785156 1.246094 12.8125 L 1.246094 23.386719 C 1.246094 23.386719 3.746094 23.515625 4.835938 23.960938 C 5.488281 24.222656 6.972656 24.75 7.617188 25.269531 L 8.117188 25.894531 C 8.117188 25.894531 5.179688 24.894531 4.085938 24.449219 C 2.992188 24.003906 0.492188 23.878906 0.492188 23.878906 Z M 0.492188 12.777344"/></g><g fill="#fff" fill-opacity="1"><g><g><path d="M 11.847656 -11.054688 L 2.21875 -11.054688 L 2.21875 -8.976562 L 11.847656 -8.976562 Z M 13.277344 -5.089844 L 13.277344 -7.1875 L 0.597656 -7.1875 L 0.597656 -5.089844 L 4.078125 -5.089844 C 3.355469 -3.773438 2.550781 -2.664062 2.207031 -2.304688 C 1.746094 -1.804688 1.46875 -1.539062 1.027344 -1.414062 C 1.304688 -0.777344 1.691406 0.375 1.816406 0.832031 C 2.664062 0.527344 3.773438 0.472656 10.417969 0 C 10.722656 0.527344 10.972656 1.027344 11.167969 1.441406 L 13.152344 0.234375 C 12.445312 -1.066406 11.152344 -3.011719 10.015625 -4.535156 L 8.144531 -3.566406 C 8.488281 -3.066406 8.851562 -2.511719 9.226562 -1.957031 L 4.507812 -1.71875 C 5.355469 -2.707031 6.230469 -3.871094 6.964844 -5.089844 Z M 13.277344 -5.089844" transform="translate(25.713454, 23.305143)"/></g></g></g><g fill="#fff" fill-opacity="1"><g><g><path d="M 4.855469 -2.828125 C 4.355469 -1.929688 3.507812 -0.875 2.746094 -0.222656 C 3.230469 0.0273438 4.035156 0.542969 4.4375 0.859375 C 5.160156 0.109375 6.117188 -1.136719 6.753906 -2.207031 Z M 6.074219 -5.242188 L 10.308594 -5.242188 L 10.308594 -4.5625 L 6.074219 -4.5625 Z M 10.308594 -6.617188 L 6.074219 -6.617188 L 6.074219 -7.28125 L 10.308594 -7.28125 Z M 12.386719 -3.078125 L 12.386719 -8.765625 L 8.863281 -8.765625 C 8.988281 -8.933594 9.128906 -9.113281 9.253906 -9.308594 L 7.421875 -9.515625 L 13.261719 -9.515625 L 13.261719 -11.332031 L 1.386719 -11.332031 L 1.386719 -7.242188 C 1.386719 -5.105469 1.304688 -2.039062 0.195312 0.015625 C 0.695312 0.195312 1.582031 0.695312 1.96875 1 C 3.175781 -1.25 3.371094 -4.871094 3.371094 -7.242188 L 3.371094 -9.515625 L 6.785156 -9.515625 C 6.699219 -9.28125 6.589844 -9.03125 6.449219 -8.765625 L 4.105469 -8.765625 L 4.105469 -3.078125 L 7.242188 -3.078125 L 7.242188 -0.636719 C 7.242188 -0.484375 7.1875 -0.445312 6.992188 -0.445312 C 6.8125 -0.445312 6.144531 -0.445312 5.660156 -0.457031 C 5.882812 0.0429688 6.132812 0.777344 6.199219 1.316406 C 7.128906 1.316406 7.878906 1.304688 8.460938 1.027344 C 9.058594 0.761719 9.199219 0.277344 9.199219 -0.582031 L 9.199219 -3.078125 Z M 9.570312 -2.023438 C 10.28125 -1.109375 11.292969 0.152344 11.734375 0.914062 L 13.46875 -0.0703125 C 12.941406 -0.820312 11.875 -2.023438 11.179688 -2.871094 Z M 9.570312 -2.023438" transform="translate(40.110236, 23.305143)"/></g></g></g><g fill="#fff" fill-opacity="1"><g><g><path d="M 8.019531 -1.027344 L 8.019531 -3.414062 L 12 -3.414062 L 12 -5.355469 L 8.019531 -5.355469 L 8.019531 -7.476562 L 12.554688 -7.476562 L 12.554688 -9.445312 L 8.019531 -9.445312 L 8.019531 -11.859375 L 5.910156 -11.859375 L 5.910156 -9.445312 L 4.132812 -9.445312 C 4.371094 -10.042969 4.578125 -10.640625 4.746094 -11.25 L 2.648438 -11.722656 C 2.179688 -9.847656 1.289062 -7.949219 0.222656 -6.8125 C 0.734375 -6.535156 1.636719 -5.9375 2.039062 -5.589844 C 2.457031 -6.105469 2.859375 -6.753906 3.246094 -7.476562 L 5.910156 -7.476562 L 5.910156 -5.355469 L 2.316406 -5.355469 L 2.316406 -3.414062 L 5.910156 -3.414062 L 5.910156 -1.027344 L 0.664062 -1.027344 L 0.664062 0.941406 L 13.289062 0.941406 L 13.289062 -1.027344 Z M 8.019531 -1.027344" transform="translate(54.507019, 23.305143)"/></g></g></g><g fill="#fff" fill-opacity="1"><g><g><path d="M 4.6875 -10.195312 C 4.050781 -10.652344 2.773438 -11.25 1.886719 -11.597656 L 0.886719 -10.25 C 1.816406 -9.847656 3.050781 -9.167969 3.632812 -8.699219 Z M 5.9375 -3.066406 C 5.519531 -1.664062 4.757812 -0.804688 0.332031 -0.347656 C 0.664062 0.0703125 1.082031 0.875 1.222656 1.34375 C 6.214844 0.636719 7.40625 -0.820312 7.90625 -3.066406 Z M 6.949219 -0.472656 C 8.558594 -0.0273438 10.863281 0.761719 11.957031 1.277344 L 13.234375 -0.304688 C 12 -0.820312 9.640625 -1.527344 8.128906 -1.871094 Z M 9.917969 -9.265625 L 10.863281 -9.265625 C 10.765625 -8.933594 10.667969 -8.628906 10.585938 -8.394531 L 12.359375 -7.960938 C 12.652344 -8.613281 13.011719 -9.585938 13.261719 -10.460938 L 11.761719 -10.792969 L 11.445312 -10.722656 L 7.894531 -10.722656 C 7.992188 -10.960938 8.074219 -11.195312 8.15625 -11.445312 L 6.269531 -11.722656 C 5.980469 -10.722656 5.367188 -9.65625 4.300781 -8.863281 C 4.410156 -8.808594 4.535156 -8.710938 4.675781 -8.613281 C 3.175781 -8.117188 1.609375 -7.601562 0.554688 -7.3125 L 1.152344 -5.480469 C 2.316406 -5.894531 3.730469 -6.410156 5.023438 -6.910156 L 4.675781 -8.613281 C 5.050781 -8.324219 5.464844 -7.90625 5.6875 -7.589844 C 6.296875 -8.101562 6.785156 -8.65625 7.15625 -9.265625 L 7.921875 -9.265625 C 7.589844 -8.15625 6.878906 -7.171875 4.648438 -6.535156 C 4.992188 -6.230469 5.410156 -5.644531 5.632812 -5.214844 L 2.121094 -5.214844 L 2.121094 -1.414062 L 4.105469 -1.414062 L 4.105469 -3.398438 L 9.863281 -3.398438 L 9.863281 -1.59375 L 11.957031 -1.59375 L 11.957031 -5.214844 L 6.074219 -5.214844 C 7.617188 -5.785156 8.546875 -6.535156 9.128906 -7.40625 C 9.878906 -6.394531 10.875 -5.660156 12.222656 -5.242188 C 12.472656 -5.742188 12.984375 -6.464844 13.386719 -6.824219 C 11.734375 -7.15625 10.515625 -7.960938 9.863281 -9.058594 Z M 9.917969 -9.265625" transform="translate(68.903801, 23.305143)"/></g></g></g><g fill="#fff" fill-opacity="1"><g><g><path d="M 10.058594 -9.570312 C 9.597656 -10.085938 8.601562 -10.777344 7.835938 -11.238281 L 6.867188 -9.878906 C 7.628906 -9.363281 8.601562 -8.601562 9.015625 -8.058594 Z M 6.285156 -6.382812 C 7.074219 -5.882812 8.101562 -5.117188 8.558594 -4.589844 L 9.570312 -6.199219 C 9.074219 -6.714844 8.019531 -7.394531 7.226562 -7.824219 Z M 2.414062 -7.769531 C 2.359375 -8.671875 2.109375 -10.015625 1.761719 -11.054688 L 0.375 -10.695312 C 0.679688 -9.65625 0.914062 -8.269531 0.929688 -7.367188 Z M 13.648438 -2.675781 L 13.359375 -4.550781 L 12.054688 -4.3125 L 12.054688 -11.875 L 10.167969 -11.875 L 10.167969 -3.980469 L 6.269531 -3.289062 C 5.910156 -3.71875 4.757812 -4.980469 4.34375 -5.328125 L 4.34375 -5.382812 L 6.269531 -5.382812 L 6.269531 -7.253906 L 4.34375 -7.253906 L 4.34375 -7.78125 L 5.578125 -7.449219 C 5.910156 -8.296875 6.3125 -9.628906 6.671875 -10.792969 L 4.992188 -11.140625 C 4.871094 -10.167969 4.589844 -8.808594 4.34375 -7.894531 L 4.34375 -11.777344 L 2.484375 -11.777344 L 2.484375 -7.253906 L 0.457031 -7.253906 L 0.457031 -5.382812 L 1.832031 -5.382812 C 1.429688 -4.257812 0.820312 -2.953125 0.179688 -2.179688 C 0.472656 -1.609375 0.902344 -0.695312 1.066406 -0.0703125 C 1.59375 -0.875 2.082031 -2.011719 2.484375 -3.203125 L 2.484375 1.277344 L 4.34375 1.277344 L 4.34375 -3.105469 C 4.648438 -2.582031 4.9375 -2.054688 5.117188 -1.652344 L 6.257812 -3.121094 L 6.535156 -1.386719 L 10.167969 -2.039062 L 10.167969 1.304688 L 12.054688 1.304688 L 12.054688 -2.386719 Z M 13.648438 -2.675781" transform="translate(83.300584, 23.305143)"/></g></g></g><g clip-path="url(#id7)"><g fill="#fff" fill-opacity="1"><g><g><path d="M 13.371094 -10.613281 L 8.878906 -10.613281 C 8.765625 -11.054688 8.585938 -11.570312 8.378906 -11.957031 L 6.324219 -11.542969 C 6.449219 -11.265625 6.5625 -10.929688 6.644531 -10.613281 L 1.457031 -10.613281 L 1.457031 -6.753906 C 1.457031 -4.703125 1.375 -1.761719 0.207031 0.207031 C 0.679688 0.417969 1.566406 1.011719 1.929688 1.359375 C 3.246094 -0.820312 3.46875 -4.425781 3.46875 -6.753906 L 3.46875 -8.738281 L 6.160156 -8.738281 C 6.0625 -8.421875 5.953125 -8.101562 5.828125 -7.796875 L 3.757812 -7.796875 L 3.757812 -6.007812 L 5.023438 -6.007812 C 4.871094 -5.730469 4.746094 -5.507812 4.660156 -5.394531 C 4.382812 -4.953125 4.132812 -4.703125 3.816406 -4.605469 C 4.050781 -4.066406 4.382812 -3.09375 4.496094 -2.691406 C 4.621094 -2.828125 5.3125 -2.914062 5.9375 -2.914062 L 7.824219 -2.914062 L 7.824219 -2.066406 L 3.441406 -2.066406 L 3.441406 -0.234375 L 7.824219 -0.234375 L 7.824219 1.304688 L 9.835938 1.304688 L 9.835938 -0.234375 L 13.316406 -0.234375 L 13.316406 -2.066406 L 9.835938 -2.066406 L 9.835938 -2.914062 L 12.375 -2.914062 L 12.386719 -4.6875 L 9.835938 -4.6875 L 9.835938 -5.6875 L 7.824219 -5.6875 L 7.824219 -4.6875 L 6.382812 -4.6875 C 6.660156 -5.105469 6.9375 -5.550781 7.199219 -6.007812 L 12.941406 -6.007812 L 12.941406 -7.796875 L 8.117188 -7.796875 C 8.210938 -7.992188 8.28125 -8.171875 8.363281 -8.363281 L 7.144531 -8.738281 L 13.371094 -8.738281 Z M 13.371094 -10.613281" transform="translate(97.697366, 23.305143)"/></g></g></g></g></svg>