<svg width="65" height="65" viewBox="0 0 65 65" fill="none" xmlns="http://www.w3.org/2000/svg">
<circle cx="32.6682" cy="32.9471" r="32" fill="#F05623"/>
<g clip-path="url(#clip0)">
<path d="M48.0102 42.5061L33.6182 30.1701C34.2882 28.9111 34.6692 27.4741 34.6692 25.9481C34.6692 20.9771 30.6402 16.9481 25.6692 16.9481C24.7602 16.9481 23.8822 17.0831 23.0552 17.3341L28.2552 22.5341C29.0332 23.3121 29.0332 24.5851 28.2552 25.3621L25.0832 28.5341C24.3052 29.3121 23.0322 29.3121 22.2552 28.5341L17.0552 23.3341C16.8042 24.1611 16.6692 25.0391 16.6692 25.9481C16.6692 30.9191 20.6982 34.9481 25.6692 34.9481C27.1952 34.9481 28.6322 34.5681 29.8912 33.8971L42.2272 48.2891C42.9432 49.1241 44.1652 49.1711 44.9432 48.3931L48.1152 45.2211C48.8932 44.4431 48.8462 43.2211 48.0112 42.5051L48.0102 42.5061Z" fill="white"/>
</g>
<defs>
<clipPath id="clip0">
<rect width="32" height="32" fill="white" transform="translate(16.6682 16.9471)"/>
</clipPath>
</defs>
</svg>
