<svg width="65" height="65" viewBox="0 0 65 65" fill="none" xmlns="http://www.w3.org/2000/svg">
<circle cx="32.9783" cy="32.9253" r="32" fill="#F05623"/>
<g clip-path="url(#clip0)">
<path d="M48.9783 30.3393C48.9783 24.0603 47.1413 18.9663 44.8693 18.9263C44.8783 18.9263 44.8873 18.9253 44.8963 18.9253H42.3043C42.3043 18.9253 36.2163 23.4983 27.4533 25.2923C27.1853 26.7073 27.0153 28.3943 27.0153 30.3393C27.0153 32.2843 27.1863 33.9703 27.4533 35.3863C36.2163 37.1803 42.3043 41.7533 42.3043 41.7533H44.8963C44.8873 41.7533 44.8783 41.7523 44.8693 41.7523C47.1413 41.7123 48.9783 36.6183 48.9783 30.3393V30.3393ZM44.0043 40.0273C43.7113 40.0273 43.3943 39.7233 43.2313 39.5413C42.8363 39.1023 42.4563 38.4173 42.1313 37.5623C41.4043 35.6493 41.0043 33.0843 41.0043 30.3393C41.0043 27.5943 41.4043 25.0303 42.1313 23.1163C42.4563 22.2613 42.8363 21.5763 43.2313 21.1373C43.3943 20.9553 43.7113 20.6513 44.0043 20.6513C44.2973 20.6513 44.6143 20.9553 44.7773 21.1373C45.1723 21.5763 45.5523 22.2613 45.8773 23.1163C46.6043 25.0293 47.0043 27.5953 47.0043 30.3393C47.0043 33.0833 46.6043 35.6483 45.8773 37.5623C45.5523 38.4173 45.1723 39.1023 44.7773 39.5413C44.6143 39.7223 44.2973 40.0273 44.0043 40.0273ZM24.8473 30.3393C24.8473 28.7163 24.9663 27.1383 25.1923 25.6803C23.7123 25.8853 22.4133 26.0033 20.8063 26.0033C18.7103 26.0033 18.7103 26.0033 18.7103 26.0033L16.9773 28.9623V31.7173L18.7103 34.6763C18.7103 34.6763 18.7103 34.6763 20.8063 34.6763C22.4123 34.6763 23.7113 34.7943 25.1923 34.9993C24.9663 33.5413 24.8473 31.9633 24.8473 30.3403V30.3393ZM28.4833 36.9933L24.4833 36.2273L27.0413 46.2753C27.1733 46.7953 27.6893 47.0573 28.1873 46.8583L31.8923 45.3753C32.3903 45.1763 32.5903 44.6263 32.3363 44.1543L28.4833 36.9933V36.9933ZM44.0043 34.0733C43.8913 34.0733 43.7693 33.9563 43.7063 33.8863C43.5543 33.7173 43.4073 33.4533 43.2823 33.1233C43.0023 32.3853 42.8483 31.3973 42.8483 30.3393C42.8483 29.2813 43.0023 28.2933 43.2823 27.5553C43.4073 27.2253 43.5543 26.9623 43.7063 26.7923C43.7693 26.7223 43.8913 26.6053 44.0043 26.6053C44.1173 26.6053 44.2393 26.7223 44.3023 26.7923C44.4543 26.9613 44.6013 27.2253 44.7263 27.5553C45.0063 28.2923 45.1603 29.2813 45.1603 30.3393C45.1603 31.3973 45.0063 32.3853 44.7263 33.1233C44.6013 33.4533 44.4543 33.7163 44.3023 33.8863C44.2393 33.9563 44.1173 34.0733 44.0043 34.0733Z" fill="white"/>
</g>
<defs>
<clipPath id="clip0">
<rect width="32" height="32" fill="white" transform="translate(16.9783 16.9253)"/>
</clipPath>
</defs>
</svg>
