<svg width="65" height="65" viewBox="0 0 65 65" fill="none" xmlns="http://www.w3.org/2000/svg">
<circle cx="32.6902" cy="32.9471" r="32" fill="#F05623"/>
<g clip-path="url(#clip0)">
<path d="M28.6902 42.9471H48.6902V46.9471H28.6902V42.9471ZM28.6902 30.9471H48.6902V34.9471H28.6902V30.9471ZM28.6902 18.9471H48.6902V22.9471H28.6902V18.9471ZM22.6902 16.9471V24.9471H20.6902V18.9471H18.6902V16.9471H22.6902ZM20.6902 33.3851V34.9481H24.6902V36.9481H18.6902V32.3851L22.6902 30.5101V28.9471H18.6902V26.9471H24.6902V31.5101L20.6902 33.3851ZM24.6902 38.9471V48.9471H18.6902V46.9471H22.6902V44.9471H18.6902V42.9471H22.6902V40.9471H18.6902V38.9471H24.6902Z" fill="white"/>
</g>
<defs>
<clipPath id="clip0">
<rect width="32" height="32" fill="white" transform="translate(16.6902 16.9471)"/>
</clipPath>
</defs>
</svg>
