<svg width="65" height="65" viewBox="0 0 65 65" fill="none" xmlns="http://www.w3.org/2000/svg">
<circle cx="32.4688" cy="32.9253" r="32" fill="#F05623"/>
<g clip-path="url(#clip0)">
<path d="M44.4688 20.9253V46.9253H23.4688C21.8118 46.9253 20.4688 45.5823 20.4688 43.9253C20.4688 42.2683 21.8118 40.9253 23.4688 40.9253H42.4688V16.9253H22.4688C20.2687 16.9253 18.4688 18.7253 18.4688 20.9253V44.9253C18.4688 47.1253 20.2687 48.9253 22.4688 48.9253H46.4688V20.9253H44.4688Z" fill="white"/>
<path d="M23.4707 42.9253C23.4697 42.9253 23.4698 42.9253 23.4688 42.9253C22.9168 42.9253 22.4688 43.3733 22.4688 43.9253C22.4688 44.4773 22.9168 44.9253 23.4688 44.9253C23.4698 44.9253 23.4697 44.9253 23.4707 44.9253H42.4678V42.9253H23.4707V42.9253Z" fill="white"/>
</g>
<defs>
<clipPath id="clip0">
<rect width="32" height="32" fill="white" transform="translate(16.4688 16.9253)"/>
</clipPath>
</defs>
</svg>
