<svg width="65" height="65" viewBox="0 0 65 65" fill="none" xmlns="http://www.w3.org/2000/svg">
<circle cx="32.1807" cy="32.9471" r="32" fill="#F05623"/>
<g clip-path="url(#clip0)">
<path d="M16.1807 16.9471H20.1807V48.9471H16.1807V16.9471Z" fill="white"/>
<path d="M42.1807 37.0411C44.7627 37.0411 47.0107 36.4161 48.1807 35.4941V19.4941C47.0107 20.4161 44.7627 21.0411 42.1807 21.0411C39.5987 21.0411 37.3507 20.4161 36.1807 19.4941V35.4941C37.3507 36.4161 39.5987 37.0411 42.1807 37.0411Z" fill="white"/>
<path d="M35.1807 17.9631C33.7147 17.3401 31.5707 16.9471 29.1807 16.9471C26.1687 16.9471 23.5457 17.5721 22.1807 18.4941V34.4941C23.5457 33.5721 26.1687 32.9471 29.1807 32.9471C31.5707 32.9471 33.7147 33.3401 35.1807 33.9631V17.9631V17.9631Z" fill="white"/>
</g>
<defs>
<clipPath id="clip0">
<rect width="32" height="32" fill="white" transform="translate(16.1807 16.9471)"/>
</clipPath>
</defs>
</svg>
