<svg width="64" height="65" viewBox="0 0 64 65" fill="none" xmlns="http://www.w3.org/2000/svg">
<circle cx="32" cy="32.9253" r="32" fill="#F05623"/>
<path d="M21 20.9253H15C14.45 20.9253 14 21.3753 14 21.9253V43.9253C14 44.4753 14.45 44.9253 15 44.9253H21C21.55 44.9253 22 44.4753 22 43.9253V21.9253C22 21.3753 21.55 20.9253 21 20.9253ZM20 26.9253H16V24.9253H20V26.9253Z" fill="white"/>
<path d="M31 20.9253H25C24.45 20.9253 24 21.3753 24 21.9253V43.9253C24 44.4753 24.45 44.9253 25 44.9253H31C31.55 44.9253 32 44.4753 32 43.9253V21.9253C32 21.3753 31.55 20.9253 31 20.9253ZM30 26.9253H26V24.9253H30V26.9253Z" fill="white"/>
<path d="M37.909 22.4713L32.551 25.1713C32.06 25.4183 31.86 26.0233 32.108 26.5143L41.107 44.3753C41.354 44.8663 41.959 45.0663 42.45 44.8183L47.808 42.1183C48.299 41.8713 48.499 41.2663 48.251 40.7753L39.252 22.9143C39.005 22.4233 38.4 22.2233 37.909 22.4713V22.4713Z" fill="white"/>
</svg>
