<?xml version="1.0" encoding="UTF-8" standalone="no"?>
<!DOCTYPE svg PUBLIC "-//W3C//DTD SVG 1.1//EN" "http://www.w3.org/Graphics/SVG/1.1/DTD/svg11.dtd">
<svg xmlns="http://www.w3.org/2000/svg" xmlns:xl="http://www.w3.org/1999/xlink" version="1.1" xmlns:dc="http://purl.org/dc/elements/1.1/" viewBox="828 574 606 347" width="606" height="347">
  <defs>
    <marker orient="auto" overflow="visible" markerUnits="strokeWidth" id="FilledArrow_Marker" stroke-linejoin="miter" stroke-miterlimit="10" viewBox="-1 -3 6 6" markerWidth="6" markerHeight="6" color="black">
      <g>
        <path d="M 3.2 0 L 0 -1.2 L 0 1.2 Z" fill="currentColor" stroke="currentColor" stroke-width="1"/>
      </g>
    </marker>
    <marker orient="auto" overflow="visible" markerUnits="strokeWidth" id="FilledArrow_Marker_2" stroke-linejoin="miter" stroke-miterlimit="10" viewBox="-1 -3 7 6" markerWidth="7" markerHeight="6" color="black">
      <g>
        <path d="M 4.8 0 L 0 -1.8 L 0 1.8 Z" fill="currentColor" stroke="currentColor" stroke-width="1"/>
      </g>
    </marker>
  </defs>
  <g id="shared-gateway-deploy" stroke="none" stroke-opacity="1" stroke-dasharray="none" fill-opacity="1" fill="none">
    <title>shared-gateway-deploy</title>
    <rect fill="white" x="828" y="574" width="606" height="347"/>
    <g id="shared-gateway-deploy_Layer_1">
      <title>Layer 1</title>
      <g id="Graphic_17"/>
      <g id="Graphic_5">
        <path d="M 854.1417 599.5276 L 1046.4882 599.5276 C 1050.9065 599.5276 1054.4882 603.1093 1054.4882 607.5276 L 1054.4882 660.9764 C 1054.4882 665.3947 1050.9065 668.9764 1046.4882 668.9764 L 854.1417 668.9764 C 849.7235 668.9764 846.1417 665.3947 846.1417 660.9764 L 846.1417 607.5276 C 846.1417 603.1093 849.7235 599.5276 854.1417 599.5276 Z" fill="#f15623"/>
        <text transform="translate(851.1417 624.5199)" fill="white">
          <tspan font-family="Helvetica Neue" font-weight="bold" font-size="16" fill="white" x="51.90923" y="16">App1 Config</tspan>
        </text>
      </g>
      <g id="Graphic_6">
        <path d="M 854.1417 712.9134 L 1046.4882 712.9134 C 1050.9065 712.9134 1054.4882 716.4951 1054.4882 720.9134 L 1054.4882 774.3622 C 1054.4882 778.7805 1050.9065 782.3622 1046.4882 782.3622 L 854.1417 782.3622 C 849.7235 782.3622 846.1417 778.7805 846.1417 774.3622 L 846.1417 720.9134 C 846.1417 716.4951 849.7235 712.9134 854.1417 712.9134 Z" fill="#f15623"/>
        <text transform="translate(851.1417 737.90575)" fill="white">
          <tspan font-family="Helvetica Neue" font-weight="bold" font-size="16" fill="white" x="51.90923" y="16">App2 Config</tspan>
        </text>
      </g>
      <g id="Graphic_7">
        <path d="M 854.1417 826.2992 L 1046.4882 826.2992 C 1050.9065 826.2992 1054.4882 829.8809 1054.4882 834.2992 L 1054.4882 887.748 C 1054.4882 892.1663 1050.9065 895.748 1046.4882 895.748 L 854.1417 895.748 C 849.7235 895.748 846.1417 892.1663 846.1417 887.748 L 846.1417 834.2992 C 846.1417 829.8809 849.7235 826.2992 854.1417 826.2992 Z" fill="#f15623"/>
        <text transform="translate(851.1417 851.2916)" fill="white">
          <tspan font-family="Helvetica Neue" font-weight="bold" font-size="16" fill="white" x="51.90923" y="16">App3 Config</tspan>
        </text>
      </g>
      <g id="Graphic_8">
        <path d="M 1218.3937 712.9134 L 1410.7402 712.9134 C 1415.1584 712.9134 1418.7402 716.4951 1418.7402 720.9134 L 1418.7402 774.3622 C 1418.7402 778.7805 1415.1584 782.3622 1410.7402 782.3622 L 1218.3937 782.3622 C 1213.9754 782.3622 1210.3937 778.7805 1210.3937 774.3622 L 1210.3937 720.9134 C 1210.3937 716.4951 1213.9754 712.9134 1218.3937 712.9134 Z" fill="fuchsia"/>
        <text transform="translate(1215.3937 728.1737)" fill="white">
          <tspan font-family="Helvetica Neue" font-weight="bold" font-size="16" fill="white" x="36.645233" y="16">Shared Gateway </tspan>
          <tspan font-family="Helvetica Neue" font-weight="bold" font-size="16" fill="white" x="53.26123" y="35.46411">Deployment</tspan>
        </text>
      </g>
      <g id="Graphic_9">
        <text transform="translate(1270.815 624.5199)" fill="black">
          <tspan font-family="Helvetica Neue" font-weight="bold" font-size="16" fill="black" x="40500936e-20" y="16">User Traffic</tspan>
        </text>
      </g>
      <g id="Line_10">
        <line x1="1314.567" y1="648.984" x2="1314.567" y2="694.0134" marker-end="url(#FilledArrow_Marker)" stroke="black" stroke-linecap="round" stroke-linejoin="round" stroke-width="4"/>
      </g>
      <g id="Line_11">
        <path d="M 1054.4882 647.3887 C 1065.6353 650.60616 1077.081 654.5847 1088.5 659.5 C 1157.1122 689.034 1128.4541 713.5301 1192.5 738.5 C 1194.3757 739.2313 1196.2463 739.9276 1198.1104 740.5903" marker-end="url(#FilledArrow_Marker_2)" stroke="black" stroke-linecap="round" stroke-linejoin="round" stroke-dasharray="8.0,8.0" stroke-width="2"/>
      </g>
      <g id="Line_12">
        <path d="M 1054.4882 854.6324 C 1065.9984 851.6446 1077.795 847.6912 1089.5 842.5 C 1157.5456 812.3213 1126.7374 781.3749 1190.5 754.5 C 1193.0484 753.4259 1195.5913 752.4267 1198.125 751.4981" marker-end="url(#FilledArrow_Marker_2)" stroke="black" stroke-linecap="round" stroke-linejoin="round" stroke-dasharray="8.0,8.0" stroke-width="2"/>
      </g>
      <g id="Line_13">
        <line x1="1054.4882" y1="747.6378" x2="1197.4937" y2="747.6378" marker-end="url(#FilledArrow_Marker_2)" stroke="black" stroke-linecap="round" stroke-linejoin="round" stroke-dasharray="8.0,8.0" stroke-width="2"/>
      </g>
      <g id="Graphic_14">
        <text transform="translate(1136.0236 661.2205)" fill="black">
          <tspan font-family="Helvetica Neue" font-weight="bold" font-size="16" fill="black" x="0" y="16">Configure</tspan>
        </text>
      </g>
      <g id="Graphic_15"/>
      <g id="Line_16">
        <line x1="1314.567" y1="782.3622" x2="1314.567" y2="827.3916" marker-end="url(#FilledArrow_Marker)" stroke="black" stroke-linecap="round" stroke-linejoin="round" stroke-width="4"/>
      </g>
    </g>
  </g>
</svg>
