<?xml version="1.0" encoding="UTF-8" standalone="no"?>
<!DOCTYPE svg PUBLIC "-//W3C//DTD SVG 1.1//EN" "http://www.w3.org/Graphics/SVG/1.1/DTD/svg11.dtd">
<svg xmlns:dc="http://purl.org/dc/elements/1.1/" version="1.1" xmlns="http://www.w3.org/2000/svg" xmlns:xl="http://www.w3.org/1999/xlink" viewBox="-3616 2704 1174 839" width="1174" height="839">
  <defs>
    <marker orient="auto" overflow="visible" markerUnits="strokeWidth" id="FilledArrow_Marker" stroke-linejoin="miter" stroke-miterlimit="10" viewBox="-1 -3 7 6" markerWidth="7" markerHeight="6" color="black">
      <g>
        <path d="M 4.8 0 L 0 -1.8 L 0 1.8 Z" fill="currentColor" stroke="currentColor" stroke-width="1"/>
      </g>
    </marker>
    <linearGradient x1="0" x2="1" id="Gradient" gradientUnits="userSpaceOnUse">
      <stop offset="0" stop-color="#4387fd"/>
      <stop offset="1" stop-color="#4683ea"/>
    </linearGradient>
    <linearGradient id="Obj_Gradient" xl:href="#Gradient" gradientTransform="translate(-3526.2992 2740.34) scale(39.68504)"/>
    <linearGradient id="Obj_Gradient_2" xl:href="#Gradient" gradientTransform="translate(-3069.9213 2740.34) scale(39.68504)"/>
    <linearGradient id="Obj_Gradient_3" xl:href="#Gradient" gradientTransform="translate(-3526.2992 3158.6085) scale(39.68504)"/>
    <linearGradient id="Obj_Gradient_4" xl:href="#Gradient" gradientTransform="translate(-3069.9213 3158.6085) scale(39.68504)"/>
  </defs>
  <g id="unified-gateway-scenario-2" fill-opacity="1" stroke-dasharray="none" stroke="none" stroke-opacity="1" fill="none">
    <title>unified-gateway-scenario-2</title>
    <rect fill="white" x="-3616" y="2704" width="1174" height="839"/>
    <g id="unified-gateway-scenario-2_Layer_1">
      <title>Layer 1</title>
      <g id="Graphic_165"/>
      <g id="Graphic_164">
        <path d="M -3508.378 2739.685 L -3216.819 2739.685 C -3212.4006 2739.685 -3208.819 2743.2668 -3208.819 2747.685 L -3208.819 3039.244 C -3208.819 3043.6624 -3212.4006 3047.244 -3216.819 3047.244 L -3508.378 3047.244 C -3512.7963 3047.244 -3516.378 3043.6624 -3516.378 3039.244 L -3516.378 2747.685 C -3516.378 2743.2668 -3512.7963 2739.685 -3508.378 2739.685 Z" fill="#ccc"/>
        <text transform="translate(-3511.378 2744.685)" fill="black">
          <tspan font-family="Helvetica Neue" font-size="16" fill="black" x="57.931526" y="16">gke-jimmy-us-central1-1</tspan>
        </text>
      </g>
      <g id="Graphic_163">
        <path d="M -3051.2914 2739.685 L -2759.7323 2739.685 C -2755.314 2739.685 -2751.7323 2743.2668 -2751.7323 2747.685 L -2751.7323 3039.244 C -2751.7323 3043.6624 -2755.314 3047.244 -2759.7323 3047.244 L -3051.2914 3047.244 C -3055.7096 3047.244 -3059.2914 3043.6624 -3059.2914 3039.244 L -3059.2914 2747.685 C -3059.2914 2743.2668 -3055.7096 2739.685 -3051.2914 2739.685 Z" fill="#ccc"/>
        <text transform="translate(-3054.2914 2744.685)" fill="black">
          <tspan font-family="Helvetica Neue" font-size="16" fill="black" x="65.787526" y="16">gke-jimmy-us-west1-1</tspan>
        </text>
      </g>
      <g id="Graphic_162">
        <path d="M -3051.2914 3153.5433 L -2759.7323 3153.5433 C -2755.314 3153.5433 -2751.7323 3157.125 -2751.7323 3161.5433 L -2751.7323 3453.1024 C -2751.7323 3457.5207 -2755.314 3461.1024 -2759.7323 3461.1024 L -3051.2914 3461.1024 C -3055.7096 3461.1024 -3059.2914 3457.5207 -3059.2914 3453.1024 L -3059.2914 3161.5433 C -3059.2914 3157.125 -3055.7096 3153.5433 -3051.2914 3153.5433 Z" fill="#ccc"/>
        <text transform="translate(-3054.2914 3158.5433)" fill="black">
          <tspan font-family="Helvetica Neue" font-size="16" fill="black" x="65.787526" y="16">gke-jimmy-us-west1-2</tspan>
        </text>
      </g>
      <g id="Graphic_161">
        <path d="M -3508.378 3153.5433 L -3216.819 3153.5433 C -3212.4006 3153.5433 -3208.819 3157.125 -3208.819 3161.5433 L -3208.819 3453.1024 C -3208.819 3457.5207 -3212.4006 3461.1024 -3216.819 3461.1024 L -3508.378 3461.1024 C -3512.7963 3461.1024 -3516.378 3457.5207 -3516.378 3453.1024 L -3516.378 3161.5433 C -3516.378 3157.125 -3512.7963 3153.5433 -3508.378 3153.5433 Z" fill="#ccc"/>
        <text transform="translate(-3511.378 3158.5433)" fill="black">
          <tspan font-family="Helvetica Neue" font-size="16" fill="black" x="65.787526" y="16">gke-jimmy-us-west2-3</tspan>
        </text>
      </g>
      <g id="Graphic_160">
        <path d="M -3493.317 2782.7433 L -3231.88 2782.7433 C -3227.4615 2782.7433 -3223.88 2786.325 -3223.88 2790.7433 L -3223.88 3026.9418 C -3223.88 3031.36 -3227.4615 3034.9418 -3231.88 3034.9418 L -3493.317 3034.9418 C -3497.7354 3034.9418 -3501.317 3031.36 -3501.317 3026.9418 L -3501.317 2790.7433 C -3501.317 2786.325 -3497.7354 2782.7433 -3493.317 2782.7433 Z" fill="#ececec"/>
        <path d="M -3493.317 2782.7433 L -3231.88 2782.7433 C -3227.4615 2782.7433 -3223.88 2786.325 -3223.88 2790.7433 L -3223.88 3026.9418 C -3223.88 3031.36 -3227.4615 3034.9418 -3231.88 3034.9418 L -3493.317 3034.9418 C -3497.7354 3034.9418 -3501.317 3031.36 -3501.317 3026.9418 L -3501.317 2790.7433 C -3501.317 2786.325 -3497.7354 2782.7433 -3493.317 2782.7433 Z" stroke="#f15623" stroke-linecap="round" stroke-linejoin="round" stroke-dasharray="8.0,8.0" stroke-width="2"/>
        <text transform="translate(-3496.317 2787.7433)" fill="#f15623">
          <tspan font-family="Helvetica Neue" font-size="14" fill="#f15623" x="95.33764" y="13">Tenant: tier1</tspan>
          <tspan font-family="Helvetica Neue" font-size="14" fill="#f15623" x="81.09264" y="29.392">Workspace: tier1</tspan>
          <tspan font-family="Helvetica Neue" font-size="14" fill="#f15623" x="89.77964" y="45.783997">Network: tier1</tspan>
        </text>
      </g>
      <g id="Graphic_159">
        <path d="M -3475.798 2838.8977 L -3249.399 2838.8977 C -3244.981 2838.8977 -3241.399 2842.4794 -3241.399 2846.8977 L -3241.399 3010.8977 C -3241.399 3015.316 -3244.981 3018.8977 -3249.399 3018.8977 L -3475.798 3018.8977 C -3480.216 3018.8977 -3483.798 3015.316 -3483.798 3010.8977 L -3483.798 2846.8977 C -3483.798 2842.4794 -3480.216 2838.8977 -3475.798 2838.8977 Z" fill="white"/>
        <path d="M -3475.798 2838.8977 L -3249.399 2838.8977 C -3244.981 2838.8977 -3241.399 2842.4794 -3241.399 2846.8977 L -3241.399 3010.8977 C -3241.399 3015.316 -3244.981 3018.8977 -3249.399 3018.8977 L -3475.798 3018.8977 C -3480.216 3018.8977 -3483.798 3015.316 -3483.798 3010.8977 L -3483.798 2846.8977 C -3483.798 2842.4794 -3480.216 2838.8977 -3475.798 2838.8977 Z" stroke="gray" stroke-linecap="round" stroke-linejoin="round" stroke-width="1"/>
        <text transform="translate(-3478.798 2848.8977)" fill="black">
          <tspan font-family="Helvetica Neue" font-size="16" fill="black" x="53.22337" y="15">Namespace: tier1</tspan>
        </text>
      </g>
      <g id="Graphic_158">
        <path d="M -3431.8426 2905.512 L -3293.3544 2905.512 C -3288.936 2905.512 -3285.3544 2909.0936 -3285.3544 2913.512 L -3285.3544 2949.9528 C -3285.3544 2954.371 -3288.936 2957.9528 -3293.3544 2957.9528 L -3431.8426 2957.9528 C -3436.261 2957.9528 -3439.8426 2954.371 -3439.8426 2949.9528 L -3439.8426 2913.512 C -3439.8426 2909.0936 -3436.261 2905.512 -3431.8426 2905.512 Z" fill="#f15623"/>
        <text transform="translate(-3434.8426 2922.0003)" fill="white">
          <tspan font-family="Helvetica Neue" font-size="16" fill="white" x="18.444095" y="16">Edge Gateway</tspan>
        </text>
      </g>
      <g id="Graphic_157">
        <path d="M -3036.2305 2782.7433 L -2774.7932 2782.7433 C -2770.375 2782.7433 -2766.7932 2786.325 -2766.7932 2790.7433 L -2766.7932 3026.9418 C -2766.7932 3031.36 -2770.375 3034.9418 -2774.7932 3034.9418 L -3036.2305 3034.9418 C -3040.6488 3034.9418 -3044.2305 3031.36 -3044.2305 3026.9418 L -3044.2305 2790.7433 C -3044.2305 2786.325 -3040.6488 2782.7433 -3036.2305 2782.7433 Z" fill="#ececec"/>
        <path d="M -3036.2305 2782.7433 L -2774.7932 2782.7433 C -2770.375 2782.7433 -2766.7932 2786.325 -2766.7932 2790.7433 L -2766.7932 3026.9418 C -2766.7932 3031.36 -2770.375 3034.9418 -2774.7932 3034.9418 L -3036.2305 3034.9418 C -3040.6488 3034.9418 -3044.2305 3031.36 -3044.2305 3026.9418 L -3044.2305 2790.7433 C -3044.2305 2786.325 -3040.6488 2782.7433 -3036.2305 2782.7433 Z" stroke="#f15623" stroke-linecap="round" stroke-linejoin="round" stroke-dasharray="8.0,8.0" stroke-width="2"/>
        <text transform="translate(-3039.2305 2787.7433)" fill="#f15623">
          <tspan font-family="Helvetica Neue" font-size="14" fill="#f15623" x="81.84164" y="13">Tenant: payment</tspan>
          <tspan font-family="Helvetica Neue" font-size="14" fill="#f15623" x="27.031643" y="29.392">Workspace: bookinfo-frontend-ws</tspan>
          <tspan font-family="Helvetica Neue" font-size="14" fill="#f15623" x="65.65764" y="45.783997">Network: cp-cluster-1</tspan>
        </text>
      </g>
      <g id="Graphic_156">
        <path d="M -3018.7112 2838.8977 L -2792.3125 2838.8977 C -2787.8942 2838.8977 -2784.3125 2842.4794 -2784.3125 2846.8977 L -2784.3125 3010.8977 C -2784.3125 3015.316 -2787.8942 3018.8977 -2792.3125 3018.8977 L -3018.7112 3018.8977 C -3023.1295 3018.8977 -3026.7112 3015.316 -3026.7112 3010.8977 L -3026.7112 2846.8977 C -3026.7112 2842.4794 -3023.1295 2838.8977 -3018.7112 2838.8977 Z" fill="white"/>
        <path d="M -3018.7112 2838.8977 L -2792.3125 2838.8977 C -2787.8942 2838.8977 -2784.3125 2842.4794 -2784.3125 2846.8977 L -2784.3125 3010.8977 C -2784.3125 3015.316 -2787.8942 3018.8977 -2792.3125 3018.8977 L -3018.7112 3018.8977 C -3023.1295 3018.8977 -3026.7112 3015.316 -3026.7112 3010.8977 L -3026.7112 2846.8977 C -3026.7112 2842.4794 -3023.1295 2838.8977 -3018.7112 2838.8977 Z" stroke="gray" stroke-linecap="round" stroke-linejoin="round" stroke-width="1"/>
        <text transform="translate(-3021.7112 2848.8977)" fill="black">
          <tspan font-family="Helvetica Neue" font-size="16" fill="black" x="4.6153713" y="15">Namespace: bookinfo-frontend</tspan>
        </text>
      </g>
      <g id="Graphic_155">
        <path d="M -2987.866 2885.6693 L -2823.1575 2885.6693 C -2818.7392 2885.6693 -2815.1575 2889.251 -2815.1575 2893.6693 L -2815.1575 2995.307 C -2815.1575 2999.7254 -2818.7392 3003.307 -2823.1575 3003.307 L -2987.866 3003.307 C -2992.2844 3003.307 -2995.866 2999.7254 -2995.866 2995.307 L -2995.866 2893.6693 C -2995.866 2889.251 -2992.2844 2885.6693 -2987.866 2885.6693 Z" fill="white"/>
        <path d="M -2987.866 2885.6693 L -2823.1575 2885.6693 C -2818.7392 2885.6693 -2815.1575 2889.251 -2815.1575 2893.6693 L -2815.1575 2995.307 C -2815.1575 2999.7254 -2818.7392 3003.307 -2823.1575 3003.307 L -2987.866 3003.307 C -2992.2844 3003.307 -2995.866 2999.7254 -2995.866 2995.307 L -2995.866 2893.6693 C -2995.866 2889.251 -2992.2844 2885.6693 -2987.866 2885.6693 Z" stroke="gray" stroke-linecap="round" stroke-linejoin="round" stroke-dasharray="4.0,4.0" stroke-width="1"/>
        <text transform="translate(-2990.866 2890.6693)" fill="black">
          <tspan font-family="Helvetica Neue" font-size="16" fill="black" x="18.666332" y="16">bookinfo-frontend</tspan>
        </text>
      </g>
      <g id="Graphic_154">
        <path d="M -3036.2305 3196.6016 L -2774.7932 3196.6016 C -2770.375 3196.6016 -2766.7932 3200.1833 -2766.7932 3204.6016 L -2766.7932 3440.8 C -2766.7932 3445.2183 -2770.375 3448.8 -2774.7932 3448.8 L -3036.2305 3448.8 C -3040.6488 3448.8 -3044.2305 3445.2183 -3044.2305 3440.8 L -3044.2305 3204.6016 C -3044.2305 3200.1833 -3040.6488 3196.6016 -3036.2305 3196.6016 Z" fill="#ececec"/>
        <path d="M -3036.2305 3196.6016 L -2774.7932 3196.6016 C -2770.375 3196.6016 -2766.7932 3200.1833 -2766.7932 3204.6016 L -2766.7932 3440.8 C -2766.7932 3445.2183 -2770.375 3448.8 -2774.7932 3448.8 L -3036.2305 3448.8 C -3040.6488 3448.8 -3044.2305 3445.2183 -3044.2305 3440.8 L -3044.2305 3204.6016 C -3044.2305 3200.1833 -3040.6488 3196.6016 -3036.2305 3196.6016 Z" stroke="#f15623" stroke-linecap="round" stroke-linejoin="round" stroke-dasharray="8.0,8.0" stroke-width="2"/>
        <text transform="translate(-3039.2305 3201.6016)" fill="#f15623">
          <tspan font-family="Helvetica Neue" font-size="14" fill="#f15623" x="81.84164" y="13">Tenant: payment</tspan>
          <tspan font-family="Helvetica Neue" font-size="14" fill="#f15623" x="26.121643" y="29.392">Workspace: bookinfo-backend-ws</tspan>
          <tspan font-family="Helvetica Neue" font-size="14" fill="#f15623" x="65.65764" y="45.783997">Network: cp-cluster-2</tspan>
        </text>
      </g>
      <g id="Graphic_153">
        <path d="M -3018.7112 3252.756 L -2792.3125 3252.756 C -2787.8942 3252.756 -2784.3125 3256.3377 -2784.3125 3260.756 L -2784.3125 3424.756 C -2784.3125 3429.1742 -2787.8942 3432.756 -2792.3125 3432.756 L -3018.7112 3432.756 C -3023.1295 3432.756 -3026.7112 3429.1742 -3026.7112 3424.756 L -3026.7112 3260.756 C -3026.7112 3256.3377 -3023.1295 3252.756 -3018.7112 3252.756 Z" fill="white"/>
        <path d="M -3018.7112 3252.756 L -2792.3125 3252.756 C -2787.8942 3252.756 -2784.3125 3256.3377 -2784.3125 3260.756 L -2784.3125 3424.756 C -2784.3125 3429.1742 -2787.8942 3432.756 -2792.3125 3432.756 L -3018.7112 3432.756 C -3023.1295 3432.756 -3026.7112 3429.1742 -3026.7112 3424.756 L -3026.7112 3260.756 C -3026.7112 3256.3377 -3023.1295 3252.756 -3018.7112 3252.756 Z" stroke="gray" stroke-linecap="round" stroke-linejoin="round" stroke-width="1"/>
        <text transform="translate(-3021.7112 3262.756)" fill="black">
          <tspan font-family="Helvetica Neue" font-size="16" fill="black" x="3.5753713" y="15">Namespace: bookinfo-backend</tspan>
        </text>
      </g>
      <g id="Graphic_152">
        <path d="M -3493.317 3196.6016 L -3231.88 3196.6016 C -3227.4615 3196.6016 -3223.88 3200.1833 -3223.88 3204.6016 L -3223.88 3440.8 C -3223.88 3445.2183 -3227.4615 3448.8 -3231.88 3448.8 L -3493.317 3448.8 C -3497.7354 3448.8 -3501.317 3445.2183 -3501.317 3440.8 L -3501.317 3204.6016 C -3501.317 3200.1833 -3497.7354 3196.6016 -3493.317 3196.6016 Z" fill="#ececec"/>
        <path d="M -3493.317 3196.6016 L -3231.88 3196.6016 C -3227.4615 3196.6016 -3223.88 3200.1833 -3223.88 3204.6016 L -3223.88 3440.8 C -3223.88 3445.2183 -3227.4615 3448.8 -3231.88 3448.8 L -3493.317 3448.8 C -3497.7354 3448.8 -3501.317 3445.2183 -3501.317 3440.8 L -3501.317 3204.6016 C -3501.317 3200.1833 -3497.7354 3196.6016 -3493.317 3196.6016 Z" stroke="#f15623" stroke-linecap="round" stroke-linejoin="round" stroke-dasharray="8.0,8.0" stroke-width="2"/>
        <text transform="translate(-3496.317 3201.6016)" fill="#f15623">
          <tspan font-family="Helvetica Neue" font-size="14" fill="#f15623" x="77.95664" y="13">Tenant: marketing</tspan>
          <tspan font-family="Helvetica Neue" font-size="14" fill="#f15623" x="57.75464" y="29.392">Workspace: httpsbin-ws</tspan>
          <tspan font-family="Helvetica Neue" font-size="14" fill="#f15623" x="65.65764" y="45.783997">Network: cp-cluster-3</tspan>
        </text>
      </g>
      <g id="Graphic_151">
        <path d="M -3475.798 3252.756 L -3249.399 3252.756 C -3244.981 3252.756 -3241.399 3256.3377 -3241.399 3260.756 L -3241.399 3424.756 C -3241.399 3429.1742 -3244.981 3432.756 -3249.399 3432.756 L -3475.798 3432.756 C -3480.216 3432.756 -3483.798 3429.1742 -3483.798 3424.756 L -3483.798 3260.756 C -3483.798 3256.3377 -3480.216 3252.756 -3475.798 3252.756 Z" fill="white"/>
        <path d="M -3475.798 3252.756 L -3249.399 3252.756 C -3244.981 3252.756 -3241.399 3256.3377 -3241.399 3260.756 L -3241.399 3424.756 C -3241.399 3429.1742 -3244.981 3432.756 -3249.399 3432.756 L -3475.798 3432.756 C -3480.216 3432.756 -3483.798 3429.1742 -3483.798 3424.756 L -3483.798 3260.756 C -3483.798 3256.3377 -3480.216 3252.756 -3475.798 3252.756 Z" stroke="gray" stroke-linecap="round" stroke-linejoin="round" stroke-width="1"/>
        <text transform="translate(-3478.798 3262.756)" fill="black">
          <tspan font-family="Helvetica Neue" font-size="16" fill="black" x="43.72737" y="15">Namespace: httpbin</tspan>
        </text>
      </g>
      <g id="Graphic_150">
        <path d="M -2911.9286 2929.6063 L -2830.1333 2929.6063 C -2825.715 2929.6063 -2822.1333 2933.188 -2822.1333 2937.6063 L -2822.1333 2961.2914 C -2822.1333 2965.7096 -2825.715 2969.2914 -2830.1333 2969.2914 L -2911.9286 2969.2914 C -2916.347 2969.2914 -2919.9286 2965.7096 -2919.9286 2961.2914 L -2919.9286 2937.6063 C -2919.9286 2933.188 -2916.347 2929.6063 -2911.9286 2929.6063 Z" fill="#333"/>
        <text transform="translate(-2914.9286 2940.7458)" fill="white">
          <tspan font-family="Helvetica Neue" font-size="14" fill="white" x="2.4016364" y="14">productpage</tspan>
        </text>
      </g>
      <g id="Graphic_149">
        <path d="M -2997.2344 3291.0648 L -2813.7893 3291.0648 C -2809.371 3291.0648 -2805.7893 3294.6465 -2805.7893 3299.0648 L -2805.7893 3414.876 C -2805.7893 3419.294 -2809.371 3422.876 -2813.7893 3422.876 L -2997.2344 3422.876 C -3001.6527 3422.876 -3005.2344 3419.294 -3005.2344 3414.876 L -3005.2344 3299.0648 C -3005.2344 3294.6465 -3001.6527 3291.0648 -2997.2344 3291.0648 Z" fill="white"/>
        <path d="M -2997.2344 3291.0648 L -2813.7893 3291.0648 C -2809.371 3291.0648 -2805.7893 3294.6465 -2805.7893 3299.0648 L -2805.7893 3414.876 C -2805.7893 3419.294 -2809.371 3422.876 -2813.7893 3422.876 L -2997.2344 3422.876 C -3001.6527 3422.876 -3005.2344 3419.294 -3005.2344 3414.876 L -3005.2344 3299.0648 C -3005.2344 3294.6465 -3001.6527 3291.0648 -2997.2344 3291.0648 Z" stroke="gray" stroke-linecap="round" stroke-linejoin="round" stroke-dasharray="4.0,4.0" stroke-width="1"/>
        <text transform="translate(-3000.2344 3296.0648)" fill="black">
          <tspan font-family="Helvetica Neue" font-size="16" fill="black" x="27.146588" y="16">bookinfo-backend</tspan>
        </text>
      </g>
      <g id="Graphic_148">
        <path d="M -2910.2676 3321.0708 L -2853.1796 3321.0708 C -2848.7614 3321.0708 -2845.1796 3324.6525 -2845.1796 3329.0708 L -2845.1796 3340.7257 C -2845.1796 3345.144 -2848.7614 3348.7257 -2853.1796 3348.7257 L -2910.2676 3348.7257 C -2914.686 3348.7257 -2918.2676 3345.144 -2918.2676 3340.7257 L -2918.2676 3329.0708 C -2918.2676 3324.6525 -2914.686 3321.0708 -2910.2676 3321.0708 Z" fill="#333"/>
        <text transform="translate(-2913.2676 3328.753)" fill="white">
          <tspan font-family="Helvetica Neue" font-size="10" fill="white" x="1.9040006" y="10">productpage</tspan>
        </text>
      </g>
      <g id="Graphic_147">
        <path d="M -2991.133 3382.424 L -2950.3622 3382.424 C -2945.944 3382.424 -2942.3622 3386.0056 -2942.3622 3390.424 L -2942.3622 3402.0788 C -2942.3622 3406.497 -2945.944 3410.0788 -2950.3622 3410.0788 L -2991.133 3410.0788 C -2995.5513 3410.0788 -2999.133 3406.497 -2999.133 3402.0788 L -2999.133 3390.424 C -2999.133 3386.0056 -2995.5513 3382.424 -2991.133 3382.424 Z" fill="#333"/>
        <text transform="translate(-2994.133 3390.1063)" fill="white">
          <tspan font-family="Helvetica Neue" font-size="10" fill="white" x="5.87037" y="10">reviews</tspan>
        </text>
      </g>
      <g id="Graphic_146">
        <path d="M -2917.3544 3382.424 L -2876.5836 3382.424 C -2872.1653 3382.424 -2868.5836 3386.0056 -2868.5836 3390.424 L -2868.5836 3402.0788 C -2868.5836 3406.497 -2872.1653 3410.0788 -2876.5836 3410.0788 L -2917.3544 3410.0788 C -2921.7726 3410.0788 -2925.3544 3406.497 -2925.3544 3402.0788 L -2925.3544 3390.424 C -2925.3544 3386.0056 -2921.7726 3382.424 -2917.3544 3382.424 Z" fill="#333"/>
        <text transform="translate(-2920.3544 3390.1063)" fill="white">
          <tspan font-family="Helvetica Neue" font-size="10" fill="white" x="8.10037" y="10">details</tspan>
        </text>
      </g>
      <g id="Graphic_145">
        <path d="M -2991.133 3321.0708 L -2950.3622 3321.0708 C -2945.944 3321.0708 -2942.3622 3324.6525 -2942.3622 3329.0708 L -2942.3622 3340.7257 C -2942.3622 3345.144 -2945.944 3348.7257 -2950.3622 3348.7257 L -2991.133 3348.7257 C -2995.5513 3348.7257 -2999.133 3345.144 -2999.133 3340.7257 L -2999.133 3329.0708 C -2999.133 3324.6525 -2995.5513 3321.0708 -2991.133 3321.0708 Z" fill="#333"/>
        <text transform="translate(-2994.133 3328.753)" fill="white">
          <tspan font-family="Helvetica Neue" font-size="10" fill="white" x="7.54537" y="10">ratings</tspan>
        </text>
      </g>
      <g id="Graphic_144">
        <path d="M -3444.9528 3298.1514 L -3280.244 3298.1514 C -3275.826 3298.1514 -3272.244 3301.733 -3272.244 3306.1514 L -3272.244 3407.789 C -3272.244 3412.2075 -3275.826 3415.789 -3280.244 3415.789 L -3444.9528 3415.789 C -3449.371 3415.789 -3452.9528 3412.2075 -3452.9528 3407.789 L -3452.9528 3306.1514 C -3452.9528 3301.733 -3449.371 3298.1514 -3444.9528 3298.1514 Z" fill="white"/>
        <path d="M -3444.9528 3298.1514 L -3280.244 3298.1514 C -3275.826 3298.1514 -3272.244 3301.733 -3272.244 3306.1514 L -3272.244 3407.789 C -3272.244 3412.2075 -3275.826 3415.789 -3280.244 3415.789 L -3444.9528 3415.789 C -3449.371 3415.789 -3452.9528 3412.2075 -3452.9528 3407.789 L -3452.9528 3306.1514 C -3452.9528 3301.733 -3449.371 3298.1514 -3444.9528 3298.1514 Z" stroke="gray" stroke-linecap="round" stroke-linejoin="round" stroke-dasharray="4.0,4.0" stroke-width="1"/>
        <text transform="translate(-3447.9528 3303.1514)" fill="black">
          <tspan font-family="Helvetica Neue" font-size="16" fill="black" x="59.13833" y="16">httpbin</tspan>
        </text>
      </g>
      <g id="Graphic_143">
        <path d="M -3393.954 3337.1278 L -3331.2428 3337.1278 C -3326.8245 3337.1278 -3323.2428 3340.7095 -3323.2428 3345.1278 L -3323.2428 3368.813 C -3323.2428 3373.231 -3326.8245 3376.813 -3331.2428 3376.813 L -3393.954 3376.813 C -3398.3724 3376.813 -3401.954 3373.231 -3401.954 3368.813 L -3401.954 3345.1278 C -3401.954 3340.7095 -3398.3724 3337.1278 -3393.954 3337.1278 Z" fill="#333"/>
        <text transform="translate(-3396.954 3347.2382)" fill="white">
          <tspan font-family="Helvetica Neue" font-size="16" fill="white" x="8.139682" y="16">httpbin</tspan>
        </text>
      </g>
      <g id="Group_140">
        <g id="Graphic_142">
          <path d="M -2847.5757 3370.3937 L -2815.8907 3370.3937 C -2813.6816 3370.3937 -2811.8907 3372.1846 -2811.8907 3374.3937 L -2811.8907 3406.0788 C -2811.8907 3408.288 -2813.6816 3410.0788 -2815.8907 3410.0788 L -2847.5757 3410.0788 C -2849.785 3410.0788 -2851.5757 3408.288 -2851.5757 3406.0788 L -2851.5757 3374.3937 C -2851.5757 3372.1846 -2849.785 3370.3937 -2847.5757 3370.3937 Z" fill="#f15623"/>
        </g>
        <g id="Graphic_141">
          <path d="M -2834.6458 3405.2254 C -2837.0187 3402.8433 -2837.3685 3402.465 -2837.409 3402.2385 C -2837.5494 3401.4495 -2836.8857 3400.816 -2836.0773 3400.968 C -2835.8575 3401.009 -2835.594 3401.2384 -2834.3748 3402.4486 L -2832.9325 3403.8805 L -2832.9325 3395.5806 L -2832.9325 3387.2806 L -2837.0327 3391.38 L -2841.1328 3395.4797 L -2839.1694 3395.5145 C -2837.246 3395.5485 -2837.2005 3395.5526 -2836.9372 3395.7163 C -2836.6542 3395.892 -2836.41 3396.314 -2836.41 3396.6263 C -2836.41 3396.9387 -2836.6542 3397.3603 -2836.9372 3397.5362 L -2837.206 3397.7033 L -2841.0278 3397.7033 L -2844.8496 3397.7033 L -2844.8496 3393.8344 C -2844.8496 3390.0353 -2844.847 3389.962 -2844.7064 3389.7737 C -2844.4366 3389.4124 -2844.211 3389.2953 -2843.785 3389.2953 C -2843.488 3389.2953 -2843.3366 3389.3337 -2843.173 3389.4503 C -2842.7504 3389.7518 -2842.7303 3389.8703 -2842.7303 3392.0504 L -2842.7303 3394.02 L -2837.8314 3389.1216 L -2832.9325 3384.223 L -2832.9325 3381.6667 L -2832.9325 3379.1104 L -2833.2278 3378.983 C -2833.8002 3378.7358 -2834.4483 3378.1565 -2834.79 3377.5866 C -2835.252 3376.8158 -2835.363 3375.657 -2835.0578 3374.7918 C -2834.3683 3372.838 -2832.0776 3371.942 -2830.2633 3372.916 C -2829.8006 3373.1642 -2829.0937 3373.874 -2828.8705 3374.3145 C -2828.0168 3375.9993 -2828.6413 3378 -2830.2918 3378.8672 L -2830.7783 3379.123 L -2830.7783 3381.673 L -2830.7783 3384.223 L -2825.7752 3389.226 L -2820.772 3394.2286 L -2820.772 3392.1536 C -2820.772 3390.169 -2820.7657 3390.067 -2820.625 3389.8167 C -2820.3322 3389.296 -2819.6337 3389.105 -2819.1684 3389.4186 C -2819.0395 3389.5055 -2818.8626 3389.6825 -2818.7754 3389.812 L -2818.6168 3390.0472 L -2818.6348 3393.8753 L -2818.6528 3397.7033 L -2822.2314 3397.7236 C -2824.1996 3397.735 -2825.9453 3397.7246 -2826.1107 3397.701 C -2826.319 3397.6716 -2826.495 3397.583 -2826.6833 3397.413 C -2827.2864 3396.868 -2827.167 3396.137 -2826.383 3395.5716 C -2826.3736 3395.5648 -2825.5136 3395.5413 -2824.472 3395.5195 L -2822.578 3395.4797 L -2826.6782 3391.38 L -2830.7784 3387.2806 L -2830.7784 3395.5488 L -2830.7784 3403.817 L -2829.406 3402.4486 C -2828.6512 3401.696 -2827.9456 3401.0474 -2827.838 3401.0073 C -2827.37 3400.833 -2826.842 3401.0033 -2826.557 3401.421 C -2826.3646 3401.7028 -2826.3426 3402.275 -2826.5143 3402.5346 C -2826.637 3402.72 -2831.8304 3407.9528 -2831.892 3407.9528 C -2831.9123 3407.9528 -2833.1516 3406.7255 -2834.646 3405.2254 Z" fill="white"/>
        </g>
      </g>
      <g id="Group_134">
        <g id="Graphic_136">
          <path d="M -2980.9597 2929.6063 L -2949.2747 2929.6063 C -2947.0656 2929.6063 -2945.2747 2931.3972 -2945.2747 2933.6063 L -2945.2747 2965.2914 C -2945.2747 2967.5005 -2947.0656 2969.2914 -2949.2747 2969.2914 L -2980.9597 2969.2914 C -2983.169 2969.2914 -2984.9597 2967.5005 -2984.9597 2965.2914 L -2984.9597 2933.6063 C -2984.9597 2931.3972 -2983.169 2929.6063 -2980.9597 2929.6063 Z" fill="#f15623"/>
        </g>
        <g id="Graphic_135">
          <path d="M -2968.0298 2964.438 C -2970.4027 2962.056 -2970.7525 2961.6777 -2970.793 2961.451 C -2970.9334 2960.662 -2970.2697 2960.0288 -2969.4613 2960.1805 C -2969.2415 2960.2217 -2968.978 2960.451 -2967.759 2961.6612 L -2966.3165 2963.093 L -2966.3165 2954.793 L -2966.3165 2946.4932 L -2970.4167 2950.5928 L -2974.517 2954.6923 L -2972.5534 2954.727 C -2970.63 2954.761 -2970.5845 2954.7652 -2970.3212 2954.929 C -2970.0382 2955.1048 -2969.794 2955.5264 -2969.794 2955.839 C -2969.794 2956.1513 -2970.0382 2956.573 -2970.3212 2956.749 L -2970.59 2956.916 L -2974.4118 2956.916 L -2978.2336 2956.916 L -2978.2336 2953.047 C -2978.2336 2949.248 -2978.231 2949.1747 -2978.0904 2948.9863 C -2977.8206 2948.625 -2977.595 2948.508 -2977.169 2948.508 C -2976.872 2948.508 -2976.7206 2948.5463 -2976.557 2948.663 C -2976.1344 2948.9644 -2976.1143 2949.083 -2976.1143 2951.263 L -2976.1143 2953.2327 L -2971.2154 2948.334 L -2966.3165 2943.4356 L -2966.3165 2940.8793 L -2966.3165 2938.323 L -2966.6118 2938.1955 C -2967.1842 2937.9484 -2967.8323 2937.369 -2968.174 2936.7992 C -2968.636 2936.0284 -2968.747 2934.8695 -2968.4418 2934.0044 C -2967.7523 2932.0508 -2965.4616 2931.1545 -2963.6473 2932.1284 C -2963.1846 2932.3768 -2962.4777 2933.0867 -2962.2546 2933.527 C -2961.4008 2935.212 -2962.0253 2937.2125 -2963.6758 2938.0798 L -2964.1623 2938.3355 L -2964.1623 2940.8856 L -2964.1623 2943.4356 L -2959.1592 2948.4384 L -2954.156 2953.441 L -2954.156 2951.366 C -2954.156 2949.3814 -2954.1497 2949.2798 -2954.009 2949.0293 C -2953.7162 2948.5085 -2953.0177 2948.3176 -2952.5524 2948.631 C -2952.4235 2948.718 -2952.2466 2948.895 -2952.1594 2949.0245 L -2952.0008 2949.2598 L -2952.0188 2953.088 L -2952.0368 2956.916 L -2955.6154 2956.9362 C -2957.5836 2956.9474 -2959.3293 2956.9372 -2959.4947 2956.9138 C -2959.703 2956.8842 -2959.879 2956.7955 -2960.0673 2956.6254 C -2960.6704 2956.0806 -2960.551 2955.3494 -2959.767 2954.784 C -2959.7576 2954.7774 -2958.8976 2954.754 -2957.856 2954.732 L -2955.962 2954.6923 L -2960.0622 2950.5928 L -2964.1624 2946.4932 L -2964.1624 2954.7614 L -2964.1624 2963.0296 L -2962.79 2961.661 C -2962.0352 2960.9085 -2961.3296 2960.26 -2961.222 2960.22 C -2960.754 2960.0457 -2960.226 2960.216 -2959.941 2960.6335 C -2959.7486 2960.9154 -2959.7266 2961.4877 -2959.8983 2961.7472 C -2960.021 2961.9327 -2965.2144 2967.1654 -2965.276 2967.1654 C -2965.2963 2967.1654 -2966.5356 2965.938 -2968.03 2964.438 Z" fill="white"/>
        </g>
      </g>
      <g id="Line_132">
        <line x1="-2945.2747" y1="2949.449" x2="-2932.8286" y2="2949.449" marker-end="url(#FilledArrow_Marker)" stroke="black" stroke-linecap="round" stroke-linejoin="round" stroke-width="2"/>
      </g>
      <g id="Line_130">
        <path d="M -2822.08 3370.3937 C -2820.257 3363.1 -2820.431 3355.079 -2826.1702 3348.7257 C -2828.0697 3346.623 -2830.459 3344.8356 -2833.1726 3343.3167" marker-end="url(#FilledArrow_Marker)" stroke="black" stroke-linecap="round" stroke-linejoin="round" stroke-width="2"/>
      </g>
      <g id="Line_128">
        <path d="M -2877.8883 3348.7257 C -2879.9064 3351.0465 -2882.973 3353.7253 -2887.4468 3356.8085 C -2898.59 3364.4882 -2916.148 3373.0815 -2932.277 3380.2818" marker-end="url(#FilledArrow_Marker)" stroke="black" stroke-linecap="round" stroke-linejoin="round" stroke-width="2"/>
      </g>
      <g id="Graphic_126">
        <title>Account Box</title>
        <path d="M -3592.9134 3095.181 L -3592.9134 3133.1024 C -3592.9134 3136.082 -3590.5027 3138.5197 -3587.496 3138.5197 L -3549.575 3138.5197 C -3546.5953 3138.5197 -3544.1575 3136.082 -3544.1575 3133.1024 L -3544.1575 3095.181 C -3544.1575 3092.2016 -3546.5953 3089.7638 -3549.575 3089.7638 L -3587.496 3089.7638 C -3590.5027 3089.7638 -3592.9134 3092.2016 -3592.9134 3095.181 Z M -3560.4095 3106.0158 C -3560.4095 3110.512 -3564.039 3114.1418 -3568.5355 3114.1418 C -3573.032 3114.1418 -3576.6614 3110.512 -3576.6614 3106.0158 C -3576.6614 3101.5194 -3573.032 3097.8898 -3568.5355 3097.8898 C -3564.039 3097.8898 -3560.4095 3101.5194 -3560.4095 3106.0158 Z M -3584.7874 3127.685 C -3584.7874 3122.2677 -3573.953 3119.2882 -3568.5355 3119.2882 C -3563.118 3119.2882 -3552.2835 3122.2677 -3552.2835 3127.685 L -3552.2835 3130.3937 L -3584.7874 3130.3937 L -3584.7874 3127.685 Z" fill="black"/>
      </g>
      <g id="Line_125">
        <path d="M -3544.1575 3112.6738 C -3510.786 3109.3364 -3450.4266 3098.413 -3410.065 3062.6623 C -3378.2288 3034.4634 -3367.0033 2998.0537 -3363.3746 2970.7905" marker-end="url(#FilledArrow_Marker)" stroke="black" stroke-linecap="round" stroke-linejoin="round" stroke-width="2"/>
      </g>
      <g id="Group_121">
        <g id="Graphic_123">
          <path d="M -3517.683 2756.2203 L -3525.8216 2742.1227 C -3526.4585 2741.0196 -3526.4585 2739.6607 -3525.8216 2738.5575 L -3517.683 2724.46 C -3517.046 2723.3568 -3515.8693 2722.6772 -3514.5953 2722.6772 L -3498.318 2722.6772 C -3497.0445 2722.6772 -3495.8676 2723.3568 -3495.2304 2724.46 L -3487.092 2738.5575 C -3486.455 2739.6607 -3486.455 2741.0196 -3487.092 2742.1227 L -3495.2304 2756.2203 C -3495.8672 2757.3234 -3497.044 2758.0027 -3498.318 2758.0027 L -3514.5953 2758.0027 C -3515.869 2758.0027 -3517.046 2757.323 -3517.6827 2756.2203" fill="url(#Obj_Gradient)"/>
        </g>
        <g id="Graphic_122">
          <path d="M -3498.6964 2735.377 L -3506.037 2731.139 C -3506.296 2730.9894 -3506.615 2730.9894 -3506.8737 2731.139 L -3514.2143 2735.377 C -3514.473 2735.5266 -3514.6325 2735.8028 -3514.6325 2736.1017 L -3514.6325 2744.578 C -3514.6325 2744.8768 -3514.473 2745.153 -3514.2143 2745.3025 L -3506.8737 2749.5408 C -3506.615 2749.6902 -3506.296 2749.6902 -3506.037 2749.5408 L -3498.6964 2745.3025 C -3498.4375 2745.153 -3498.278 2744.8768 -3498.278 2744.578 L -3498.278 2736.1017 C -3498.278 2735.8028 -3498.4375 2735.5266 -3498.6964 2735.377 M -3499.7034 2743.767 L -3502.2643 2742.2883 L -3502.2643 2738.3932 L -3506.0462 2740.576 L -3506.0462 2744.9444 L -3502.6733 2742.997 L -3500.1123 2744.4756 L -3506.4555 2748.1378 L -3512.7986 2744.4756 L -3510.2377 2742.997 L -3506.8644 2744.9444 L -3506.8644 2740.576 L -3510.6463 2738.3932 L -3510.6463 2742.2883 L -3513.2073 2743.767 L -3513.2073 2736.4424 L -3506.864 2732.7802 L -3506.864 2735.7374 L -3510.2374 2737.6848 L -3506.4555 2739.8675 L -3502.6736 2737.6848 L -3506.0465 2735.7374 L -3506.0465 2732.7802 L -3499.7034 2736.4424 L -3499.7034 2743.767" fill="white"/>
        </g>
      </g>
      <g id="Group_118">
        <g id="Graphic_120">
          <path d="M -3061.305 2756.2203 L -3069.4437 2742.1227 C -3070.0805 2741.0196 -3070.0805 2739.6607 -3069.4437 2738.5575 L -3061.305 2724.46 C -3060.6682 2723.3568 -3059.4913 2722.6772 -3058.2174 2722.6772 L -3041.94 2722.6772 C -3040.6665 2722.6772 -3039.4896 2723.3568 -3038.8525 2724.46 L -3030.714 2738.5575 C -3030.077 2739.6607 -3030.077 2741.0196 -3030.714 2742.1227 L -3038.8525 2756.2203 C -3039.4893 2757.3234 -3040.6662 2758.0027 -3041.94 2758.0027 L -3058.2174 2758.0027 C -3059.491 2758.0027 -3060.668 2757.323 -3061.3048 2756.2203" fill="url(#Obj_Gradient_2)"/>
        </g>
        <g id="Graphic_119">
          <path d="M -3042.3184 2735.377 L -3049.659 2731.139 C -3049.918 2730.9894 -3050.237 2730.9894 -3050.4958 2731.139 L -3057.8363 2735.377 C -3058.0952 2735.5266 -3058.2546 2735.8028 -3058.2546 2736.1017 L -3058.2546 2744.578 C -3058.2546 2744.8768 -3058.0952 2745.153 -3057.8363 2745.3025 L -3050.4958 2749.5408 C -3050.237 2749.6902 -3049.918 2749.6902 -3049.659 2749.5408 L -3042.3184 2745.3025 C -3042.0595 2745.153 -3041.9 2744.8768 -3041.9 2744.578 L -3041.9 2736.1017 C -3041.9 2735.8028 -3042.0595 2735.5266 -3042.3184 2735.377 M -3043.3254 2743.767 L -3045.8864 2742.2883 L -3045.8864 2738.3932 L -3049.6683 2740.576 L -3049.6683 2744.9444 L -3046.2953 2742.997 L -3043.7344 2744.4756 L -3050.0775 2748.1378 L -3056.4207 2744.4756 L -3053.8597 2742.997 L -3050.4865 2744.9444 L -3050.4865 2740.576 L -3054.2684 2738.3932 L -3054.2684 2742.2883 L -3056.8293 2743.767 L -3056.8293 2736.4424 L -3050.486 2732.7802 L -3050.486 2735.7374 L -3053.8594 2737.6848 L -3050.0775 2739.8675 L -3046.2956 2737.6848 L -3049.6686 2735.7374 L -3049.6686 2732.7802 L -3043.3254 2736.4424 L -3043.3254 2743.767" fill="white"/>
        </g>
      </g>
      <g id="Group_115">
        <g id="Graphic_117">
          <path d="M -3517.683 3174.489 L -3525.8216 3160.3912 C -3526.4585 3159.288 -3526.4585 3157.9292 -3525.8216 3156.826 L -3517.683 3142.7285 C -3517.046 3141.6253 -3515.8693 3140.9457 -3514.5953 3140.9457 L -3498.318 3140.9457 C -3497.0445 3140.9457 -3495.8676 3141.6253 -3495.2304 3142.7285 L -3487.092 3156.826 C -3486.455 3157.9292 -3486.455 3159.288 -3487.092 3160.3912 L -3495.2304 3174.489 C -3495.8672 3175.592 -3497.044 3176.2713 -3498.318 3176.2713 L -3514.5953 3176.2713 C -3515.869 3176.2713 -3517.046 3175.5917 -3517.6827 3174.489" fill="url(#Obj_Gradient_3)"/>
        </g>
        <g id="Graphic_116">
          <path d="M -3498.6964 3153.6457 L -3506.037 3149.4074 C -3506.296 3149.258 -3506.615 3149.258 -3506.8737 3149.4074 L -3514.2143 3153.6457 C -3514.473 3153.795 -3514.6325 3154.0713 -3514.6325 3154.3702 L -3514.6325 3162.8465 C -3514.6325 3163.1453 -3514.473 3163.4216 -3514.2143 3163.571 L -3506.8737 3167.8093 C -3506.615 3167.9587 -3506.296 3167.9587 -3506.037 3167.8093 L -3498.6964 3163.571 C -3498.4375 3163.4216 -3498.278 3163.1453 -3498.278 3162.8465 L -3498.278 3154.3702 C -3498.278 3154.0713 -3498.4375 3153.795 -3498.6964 3153.6457 M -3499.7034 3162.0354 L -3502.2643 3160.5568 L -3502.2643 3156.6617 L -3506.0462 3158.8444 L -3506.0462 3163.213 L -3502.6733 3161.2656 L -3500.1123 3162.744 L -3506.4555 3166.4064 L -3512.7986 3162.744 L -3510.2377 3161.2656 L -3506.8644 3163.213 L -3506.8644 3158.8444 L -3510.6463 3156.6617 L -3510.6463 3160.5568 L -3513.2073 3162.0354 L -3513.2073 3154.711 L -3506.864 3151.0488 L -3506.864 3154.006 L -3510.2374 3155.9533 L -3506.4555 3158.136 L -3502.6736 3155.9533 L -3506.0465 3154.006 L -3506.0465 3151.0488 L -3499.7034 3154.711 L -3499.7034 3162.0354" fill="white"/>
        </g>
      </g>
      <g id="Group_112">
        <g id="Graphic_114">
          <path d="M -3061.305 3174.489 L -3069.4437 3160.3912 C -3070.0805 3159.288 -3070.0805 3157.9292 -3069.4437 3156.826 L -3061.305 3142.7285 C -3060.6682 3141.6253 -3059.4913 3140.9457 -3058.2174 3140.9457 L -3041.94 3140.9457 C -3040.6665 3140.9457 -3039.4896 3141.6253 -3038.8525 3142.7285 L -3030.714 3156.826 C -3030.077 3157.9292 -3030.077 3159.288 -3030.714 3160.3912 L -3038.8525 3174.489 C -3039.4893 3175.592 -3040.6662 3176.2713 -3041.94 3176.2713 L -3058.2174 3176.2713 C -3059.491 3176.2713 -3060.668 3175.5917 -3061.3048 3174.489" fill="url(#Obj_Gradient_4)"/>
        </g>
        <g id="Graphic_113">
          <path d="M -3042.3184 3153.6457 L -3049.659 3149.4074 C -3049.918 3149.258 -3050.237 3149.258 -3050.4958 3149.4074 L -3057.8363 3153.6457 C -3058.0952 3153.795 -3058.2546 3154.0713 -3058.2546 3154.3702 L -3058.2546 3162.8465 C -3058.2546 3163.1453 -3058.0952 3163.4216 -3057.8363 3163.571 L -3050.4958 3167.8093 C -3050.237 3167.9587 -3049.918 3167.9587 -3049.659 3167.8093 L -3042.3184 3163.571 C -3042.0595 3163.4216 -3041.9 3163.1453 -3041.9 3162.8465 L -3041.9 3154.3702 C -3041.9 3154.0713 -3042.0595 3153.795 -3042.3184 3153.6457 M -3043.3254 3162.0354 L -3045.8864 3160.5568 L -3045.8864 3156.6617 L -3049.6683 3158.8444 L -3049.6683 3163.213 L -3046.2953 3161.2656 L -3043.7344 3162.744 L -3050.0775 3166.4064 L -3056.4207 3162.744 L -3053.8597 3161.2656 L -3050.4865 3163.213 L -3050.4865 3158.8444 L -3054.2684 3156.6617 L -3054.2684 3160.5568 L -3056.8293 3162.0354 L -3056.8293 3154.711 L -3050.486 3151.0488 L -3050.486 3154.006 L -3053.8594 3155.9533 L -3050.0775 3158.136 L -3046.2956 3155.9533 L -3049.6686 3154.006 L -3049.6686 3151.0488 L -3043.3254 3154.711 L -3043.3254 3162.0354" fill="white"/>
        </g>
      </g>
      <g id="Line_111">
        <path d="M -3328.4177 2957.9528 C -3286.654 2993.1596 -3214.4873 3064.3583 -3157.2146 3174.7826 C -3071.286 3340.4564 -3151.502 3455.4826 -3059.2914 3516.5217 C -2990.781 3561.8725 -2898.458 3470.1223 -2855.526 3419.963" marker-end="url(#FilledArrow_Marker)" stroke="black" stroke-linecap="round" stroke-linejoin="round" stroke-width="2"/>
      </g>
      <g id="Graphic_110">
        <rect x="-3080.121" y="3469.1304" width="366.304" height="27" fill="white"/>
        <text transform="translate(-3075.121 3474.1304)" fill="black">
          <tspan font-family="PingFang SC" font-size="12" fill="black" x="2842171e-20" y="13">2.1 http://internal-bookinfo-backend.tetrate.io/api/v1/products</tspan>
        </text>
      </g>
      <g id="Line_109">
        <path d="M -3327.2776 2957.9528 C -3312.3136 2968.814 -3291.6374 2983.6398 -3263.5275 3003.4783 C -3184.944 3058.9382 -3169.7585 3142.7997 -3085.2174 3127.493 C -3024.653 3116.5273 -2989.2268 3029.898 -2974.004 2981.642" marker-end="url(#FilledArrow_Marker)" stroke="black" stroke-linecap="round" stroke-linejoin="round" stroke-width="2"/>
      </g>
      <g id="Graphic_108">
        <rect x="-3153.4772" y="3067.7537" width="325.852" height="24.335999" fill="white"/>
        <text transform="translate(-3148.4772 3072.7537)" fill="black">
          <tspan font-family="Helvetica Neue" font-style="italic" font-size="12" fill="black" x="0" y="11">1.1 http://internal-bookinfo-frontend.tetrate.io/productpage</tspan>
        </text>
      </g>
      <g id="Graphic_107">
        <text transform="translate(-3590.7595 3143.5197)" fill="black">
          <tspan font-family="Helvetica Neue" font-weight="bold" font-size="16" fill="black" x="15987212e-20" y="16">Users</tspan>
        </text>
      </g>
      <g id="Group_86">
        <g id="Graphic_106">
          <path d="M -2678.11 3375.566 L -2628.9283 3375.566 C -2624.51 3375.566 -2620.9283 3379.148 -2620.9283 3383.566 L -2620.9283 3390.613 C -2620.9283 3395.0314 -2624.51 3398.613 -2628.9283 3398.613 L -2678.11 3398.613 C -2682.5283 3398.613 -2686.11 3395.0314 -2686.11 3390.613 L -2686.11 3383.566 C -2686.11 3379.148 -2682.5283 3375.566 -2678.11 3375.566 Z" fill="white"/>
          <path d="M -2678.11 3375.566 L -2628.9283 3375.566 C -2624.51 3375.566 -2620.9283 3379.148 -2620.9283 3383.566 L -2620.9283 3390.613 C -2620.9283 3395.0314 -2624.51 3398.613 -2628.9283 3398.613 L -2678.11 3398.613 C -2682.5283 3398.613 -2686.11 3395.0314 -2686.11 3390.613 L -2686.11 3383.566 C -2686.11 3379.148 -2682.5283 3375.566 -2678.11 3375.566 Z" stroke="gray" stroke-linecap="round" stroke-linejoin="round" stroke-dasharray="4.0,4.0" stroke-width="1"/>
        </g>
        <g id="Graphic_105">
          <text transform="translate(-2609.6122 3376.832)" fill="black">
            <tspan font-family="Helvetica Neue" font-size="16" fill="black" x="0" y="15">Application</tspan>
          </text>
        </g>
        <g id="Graphic_104">
          <path d="M -2678.11 3312.8 L -2628.9283 3312.8 C -2624.51 3312.8 -2620.9283 3316.3816 -2620.9283 3320.8 L -2620.9283 3327.847 C -2620.9283 3332.265 -2624.51 3335.847 -2628.9283 3335.847 L -2678.11 3335.847 C -2682.5283 3335.847 -2686.11 3332.265 -2686.11 3327.847 L -2686.11 3320.8 C -2686.11 3316.3816 -2682.5283 3312.8 -2678.11 3312.8 Z" fill="#ececec"/>
          <path d="M -2678.11 3312.8 L -2628.9283 3312.8 C -2624.51 3312.8 -2620.9283 3316.3816 -2620.9283 3320.8 L -2620.9283 3327.847 C -2620.9283 3332.265 -2624.51 3335.847 -2628.9283 3335.847 L -2678.11 3335.847 C -2682.5283 3335.847 -2686.11 3332.265 -2686.11 3327.847 L -2686.11 3320.8 C -2686.11 3316.3816 -2682.5283 3312.8 -2678.11 3312.8 Z" stroke="#f15623" stroke-linecap="round" stroke-linejoin="round" stroke-dasharray="8.0,8.0" stroke-width="2"/>
        </g>
        <g id="Graphic_103">
          <text transform="translate(-2609.6122 3314.872)" fill="black">
            <tspan font-family="Helvetica Neue" font-size="16" fill="black" x="0" y="15">TSB Configuration</tspan>
          </text>
        </g>
        <g id="Graphic_102">
          <path d="M -2678.11 3344.6734 L -2628.9283 3344.6734 C -2624.51 3344.6734 -2620.9283 3348.255 -2620.9283 3352.6734 L -2620.9283 3359.7204 C -2620.9283 3364.1386 -2624.51 3367.7204 -2628.9283 3367.7204 L -2678.11 3367.7204 C -2682.5283 3367.7204 -2686.11 3364.1386 -2686.11 3359.7204 L -2686.11 3352.6734 C -2686.11 3348.255 -2682.5283 3344.6734 -2678.11 3344.6734 Z" fill="white"/>
          <path d="M -2678.11 3344.6734 L -2628.9283 3344.6734 C -2624.51 3344.6734 -2620.9283 3348.255 -2620.9283 3352.6734 L -2620.9283 3359.7204 C -2620.9283 3364.1386 -2624.51 3367.7204 -2628.9283 3367.7204 L -2678.11 3367.7204 C -2682.5283 3367.7204 -2686.11 3364.1386 -2686.11 3359.7204 L -2686.11 3352.6734 C -2686.11 3348.255 -2682.5283 3344.6734 -2678.11 3344.6734 Z" stroke="gray" stroke-linecap="round" stroke-linejoin="round" stroke-width="1"/>
        </g>
        <g id="Graphic_101">
          <text transform="translate(-2609.6122 3345.852)" fill="black">
            <tspan font-family="Helvetica Neue" font-size="16" fill="black" x="0" y="15">Namespace</tspan>
          </text>
        </g>
        <g id="Graphic_100">
          <text transform="translate(-2609.6122 3435.9885)" fill="black">
            <tspan font-family="Helvetica Neue" font-size="16" fill="black" x="0" y="15">Traffic Route</tspan>
          </text>
        </g>
        <g id="Line_99">
          <line x1="-2686.3707" y1="3444.9222" x2="-2633.5675" y2="3444.7493" marker-end="url(#FilledArrow_Marker)" stroke="black" stroke-linecap="round" stroke-linejoin="round" stroke-width="2"/>
        </g>
        <g id="Graphic_98">
          <path d="M -2678.11 3406.459 L -2628.9283 3406.459 C -2624.51 3406.459 -2620.9283 3410.0406 -2620.9283 3414.459 L -2620.9283 3421.0155 C -2620.9283 3425.4338 -2624.51 3429.0155 -2628.9283 3429.0155 L -2678.11 3429.0155 C -2682.5283 3429.0155 -2686.11 3425.4338 -2686.11 3421.0155 L -2686.11 3414.459 C -2686.11 3410.0406 -2682.5283 3406.459 -2678.11 3406.459 Z" fill="#333"/>
        </g>
        <g id="Graphic_97">
          <text transform="translate(-2609.6122 3408.513)" fill="black">
            <tspan font-family="Helvetica Neue" font-size="16" fill="black" x="0" y="15">Service</tspan>
          </text>
        </g>
        <g id="Graphic_96">
          <path d="M -2678.11 3280.9264 L -2628.9283 3280.9264 C -2624.51 3280.9264 -2620.9283 3284.508 -2620.9283 3288.9264 L -2620.9283 3295.9734 C -2620.9283 3300.3917 -2624.51 3303.9734 -2628.9283 3303.9734 L -2678.11 3303.9734 C -2682.5283 3303.9734 -2686.11 3300.3917 -2686.11 3295.9734 L -2686.11 3288.9264 C -2686.11 3284.508 -2682.5283 3280.9264 -2678.11 3280.9264 Z" fill="#ccc"/>
        </g>
        <g id="Graphic_95">
          <text transform="translate(-2609.6122 3284.2217)" fill="black">
            <tspan font-family="Helvetica Neue" font-size="16" fill="black" x="0" y="15">Cluster</tspan>
          </text>
        </g>
        <g id="Graphic_94">
          <text transform="translate(-2681.3707 3186.1893)" fill="black">
            <tspan font-family="Helvetica Neue" font-weight="bold" font-size="16" fill="black" x="0" y="16">Legend</tspan>
          </text>
        </g>
        <g id="Group_91">
          <g id="Graphic_93">
            <path d="M -2660.7975 3214.5787 L -2646.241 3214.5787 C -2644.0317 3214.5787 -2642.241 3216.3695 -2642.241 3218.5787 L -2642.241 3233.1353 C -2642.241 3235.3444 -2644.0317 3237.1353 -2646.241 3237.1353 L -2660.7975 3237.1353 C -2663.0066 3237.1353 -2664.7975 3235.3444 -2664.7975 3233.1353 L -2664.7975 3218.5787 C -2664.7975 3216.3695 -2663.0066 3214.5787 -2660.7975 3214.5787 Z" fill="#f15623"/>
          </g>
          <g id="Graphic_92">
            <path d="M -2655.1746 3234.3767 C -2656.5234 3233.0227 -2656.7222 3232.8078 -2656.745 3232.679 C -2656.825 3232.2305 -2656.4478 3231.8705 -2655.9883 3231.9567 C -2655.8633 3231.98 -2655.7135 3232.1105 -2655.0206 3232.7984 L -2654.2008 3233.6123 L -2654.2008 3228.8946 L -2654.2008 3224.177 L -2656.5313 3226.507 L -2658.8618 3228.8373 L -2657.7458 3228.857 C -2656.6526 3228.8764 -2656.6267 3228.8788 -2656.477 3228.9718 C -2656.3162 3229.0718 -2656.1773 3229.3114 -2656.1773 3229.489 C -2656.1773 3229.6666 -2656.3162 3229.9063 -2656.477 3230.0062 L -2656.6298 3230.1012 L -2658.802 3230.1012 L -2660.9744 3230.1012 L -2660.9744 3227.902 C -2660.9744 3225.7428 -2660.973 3225.701 -2660.893 3225.594 C -2660.7396 3225.3887 -2660.6114 3225.322 -2660.3692 3225.322 C -2660.2005 3225.322 -2660.1144 3225.344 -2660.0215 3225.4102 C -2659.7812 3225.5816 -2659.7698 3225.649 -2659.7698 3226.888 L -2659.7698 3228.0077 L -2656.9853 3225.2234 L -2654.2008 3222.439 L -2654.2008 3220.986 L -2654.2008 3219.533 L -2654.3687 3219.4607 C -2654.694 3219.3202 -2655.0624 3218.991 -2655.2566 3218.667 C -2655.5193 3218.229 -2655.5824 3217.5702 -2655.4088 3217.0785 C -2655.017 3215.968 -2653.715 3215.4586 -2652.6837 3216.0122 C -2652.4207 3216.1534 -2652.019 3216.557 -2651.892 3216.8072 C -2651.4068 3217.765 -2651.7618 3218.902 -2652.7 3219.395 L -2652.9764 3219.5403 L -2652.9764 3220.9897 L -2652.9764 3222.439 L -2650.1327 3225.2827 L -2647.289 3228.126 L -2647.289 3226.9468 C -2647.289 3225.8187 -2647.2853 3225.761 -2647.2053 3225.6185 C -2647.039 3225.3225 -2646.642 3225.214 -2646.3775 3225.3922 C -2646.304 3225.4416 -2646.2036 3225.5422 -2646.154 3225.6158 L -2646.064 3225.7495 L -2646.074 3227.9254 L -2646.0843 3230.1012 L -2648.1184 3230.1127 C -2649.237 3230.119 -2650.2294 3230.1133 -2650.3234 3230.1 C -2650.4418 3230.083 -2650.5418 3230.0328 -2650.649 3229.936 C -2650.9916 3229.6264 -2650.924 3229.211 -2650.4782 3228.8895 C -2650.4728 3228.8857 -2649.984 3228.8723 -2649.392 3228.86 L -2648.3154 3228.8373 L -2650.646 3226.507 L -2652.9764 3224.177 L -2652.9764 3228.8766 L -2652.9764 3233.576 L -2652.1964 3232.7984 C -2651.7674 3232.3706 -2651.3663 3232.002 -2651.305 3231.979 C -2651.039 3231.88 -2650.739 3231.977 -2650.577 3232.2142 C -2650.4677 3232.3745 -2650.4552 3232.6998 -2650.5528 3232.8473 C -2650.6224 3232.9527 -2653.5744 3235.927 -2653.6093 3235.927 C -2653.621 3235.927 -2654.3253 3235.2293 -2655.1747 3234.3767 Z" fill="white"/>
          </g>
        </g>
        <g id="Graphic_90">
          <text transform="translate(-2609.6122 3216.633)" fill="black">
            <tspan font-family="Helvetica Neue" font-size="16" fill="black" x="0" y="15">Ingress Gateway</tspan>
          </text>
        </g>
        <g id="Graphic_89">
          <path d="M -2678.11 3246.4575 L -2628.9283 3246.4575 C -2624.51 3246.4575 -2620.9283 3250.0392 -2620.9283 3254.4575 L -2620.9283 3263.6042 C -2620.9283 3268.0225 -2624.51 3271.6042 -2628.9283 3271.6042 L -2678.11 3271.6042 C -2682.5283 3271.6042 -2686.11 3268.0225 -2686.11 3263.6042 L -2686.11 3254.4575 C -2686.11 3250.0392 -2682.5283 3246.4575 -2678.11 3246.4575 Z" fill="#f15623"/>
        </g>
        <g id="Graphic_88">
          <text transform="translate(-2609.6122 3249.807)" fill="black">
            <tspan font-family="Helvetica Neue" font-size="16" fill="black" x="0" y="15">TSB Component</tspan>
          </text>
        </g>
        <g id="Graphic_87">
          <rect x="-2691.496" y="3179.1004" width="222.5197" height="286.254" stroke="gray" stroke-linecap="round" stroke-linejoin="round" stroke-width="1"/>
        </g>
      </g>
      <g id="Graphic_167">
        <rect x="-3534.803" y="3059.2537" width="234.7" height="41.336" fill="white"/>
        <text transform="translate(-3529.803 3064.2537)" fill="black">
          <tspan font-family="Helvetica Neue" font-style="italic" font-size="12" fill="black" x="4.632" y="13">1</tspan>
          <tspan font-family="PingFang SC" font-size="12" fill="black" y="13">.</tspan>
          <tspan font-family="Helvetica Neue" font-style="italic" font-size="12" fill="black" y="13"> http://bookinfo.tetrate.io/productpage</tspan>
          <tspan font-family="Helvetica Neue" font-style="italic" font-size="12" fill="black" x="36948222e-20" y="28">2. http://bookinfo.tetrate.io/api/v1/produts</tspan>
        </text>
      </g>
    </g>
  </g>
</svg>
