<?xml version="1.0" encoding="UTF-8" standalone="no"?>
<!DOCTYPE svg PUBLIC "-//W3C//DTD SVG 1.1//EN" "http://www.w3.org/Graphics/SVG/1.1/DTD/svg11.dtd">
<svg xmlns:dc="http://purl.org/dc/elements/1.1/" version="1.1" xmlns="http://www.w3.org/2000/svg" xmlns:xl="http://www.w3.org/1999/xlink" viewBox="-3687 2661 1316 788" width="1316" height="788">
  <defs>
    <marker orient="auto" overflow="visible" markerUnits="strokeWidth" id="FilledArrow_Marker" stroke-linejoin="miter" stroke-miterlimit="10" viewBox="-1 -3 7 6" markerWidth="7" markerHeight="6" color="black">
      <g>
        <path d="M 4.8 0 L 0 -1.8 L 0 1.8 Z" fill="currentColor" stroke="currentColor" stroke-width="1"/>
      </g>
    </marker>
    <marker orient="auto" overflow="visible" markerUnits="strokeWidth" id="FilledArrow_Marker_2" stroke-linejoin="miter" stroke-miterlimit="10" viewBox="-6 -3 7 6" markerWidth="7" markerHeight="6" color="black">
      <g>
        <path d="M -4.8 0 L 0 1.8 L 0 -1.8 Z" fill="currentColor" stroke="currentColor" stroke-width="1"/>
      </g>
    </marker>
    <linearGradient x1="0" x2="1" id="Gradient" gradientUnits="userSpaceOnUse">
      <stop offset="0" stop-color="#4387fd"/>
      <stop offset="1" stop-color="#4683ea"/>
    </linearGradient>
    <linearGradient id="Obj_Gradient" xl:href="#Gradient" gradientTransform="translate(-3660.945 2706.3242) scale(39.68504)"/>
    <linearGradient id="Obj_Gradient_2" xl:href="#Gradient" gradientTransform="translate(-3204.567 2706.3242) scale(39.68504)"/>
    <linearGradient id="Obj_Gradient_3" xl:href="#Gradient" gradientTransform="translate(-3656.693 3118.8395) scale(39.68504)"/>
    <linearGradient id="Obj_Gradient_4" xl:href="#Gradient" gradientTransform="translate(-3200.315 3118.8395) scale(39.68504)"/>
  </defs>
  <g id="unified-gateway-applications" fill-opacity="1" stroke-dasharray="none" stroke="none" stroke-opacity="1" fill="none">
    <title>unified-gateway-applications</title>
    <rect fill="white" x="-3687" y="2661" width="1316" height="788"/>
    <g id="unified-gateway-applications_Layer_1">
      <title>Layer 1</title>
      <g id="Graphic_78">
        <rect x="-2821.8898" y="3113.8583" width="277.4373" height="307.55906" stroke="gray" stroke-linecap="round" stroke-linejoin="round" stroke-width="1"/>
      </g>
      <g id="Graphic_77"/>
      <g id="Graphic_76"/>
      <g id="Graphic_5">
        <path d="M -3641.6063 2700 L -3350.0473 2700 C -3345.629 2700 -3342.0473 2703.5817 -3342.0473 2708 L -3342.0473 2999.559 C -3342.0473 3003.9774 -3345.629 3007.559 -3350.0473 3007.559 L -3641.6063 3007.559 C -3646.0246 3007.559 -3649.6063 3003.9774 -3649.6063 2999.559 L -3649.6063 2708 C -3649.6063 2703.5817 -3646.0246 2700 -3641.6063 2700 Z" fill="#ccc"/>
        <text transform="translate(-3644.6063 2705)" fill="black">
          <tspan font-family="Helvetica Neue" font-size="16" fill="black" x="57.931526" y="16">gke-jimmy-us-central1-1</tspan>
        </text>
      </g>
      <g id="Graphic_14">
        <path d="M -3184.5197 2700 L -2892.9607 2700 C -2888.5424 2700 -2884.9607 2703.5817 -2884.9607 2708 L -2884.9607 2999.559 C -2884.9607 3003.9774 -2888.5424 3007.559 -2892.9607 3007.559 L -3184.5197 3007.559 C -3188.938 3007.559 -3192.5197 3003.9774 -3192.5197 2999.559 L -3192.5197 2708 C -3192.5197 2703.5817 -3188.938 2700 -3184.5197 2700 Z" fill="#ccc"/>
        <text transform="translate(-3187.5197 2705)" fill="black">
          <tspan font-family="Helvetica Neue" font-size="16" fill="black" x="65.787526" y="16">gke-jimmy-us-west1-1</tspan>
        </text>
      </g>
      <g id="Graphic_18">
        <path d="M -3184.5197 3113.8583 L -2892.9607 3113.8583 C -2888.5424 3113.8583 -2884.9607 3117.44 -2884.9607 3121.8583 L -2884.9607 3413.4174 C -2884.9607 3417.8356 -2888.5424 3421.4174 -2892.9607 3421.4174 L -3184.5197 3421.4174 C -3188.938 3421.4174 -3192.5197 3417.8356 -3192.5197 3413.4174 L -3192.5197 3121.8583 C -3192.5197 3117.44 -3188.938 3113.8583 -3184.5197 3113.8583 Z" fill="#ccc"/>
        <text transform="translate(-3187.5197 3118.8583)" fill="black">
          <tspan font-family="Helvetica Neue" font-size="16" fill="black" x="65.787526" y="16">gke-jimmy-us-west1-2</tspan>
        </text>
      </g>
      <g id="Graphic_22">
        <path d="M -3641.6063 3113.8583 L -3350.0473 3113.8583 C -3345.629 3113.8583 -3342.0473 3117.44 -3342.0473 3121.8583 L -3342.0473 3413.4174 C -3342.0473 3417.8356 -3345.629 3421.4174 -3350.0473 3421.4174 L -3641.6063 3421.4174 C -3646.0246 3421.4174 -3649.6063 3417.8356 -3649.6063 3413.4174 L -3649.6063 3121.8583 C -3649.6063 3117.44 -3646.0246 3113.8583 -3641.6063 3113.8583 Z" fill="#ccc"/>
        <text transform="translate(-3644.6063 3118.8583)" fill="black">
          <tspan font-family="Helvetica Neue" font-size="16" fill="black" x="65.787526" y="16">gke-jimmy-us-west2-3</tspan>
        </text>
      </g>
      <g id="Graphic_6">
        <path d="M -3626.5455 2743.0583 L -3365.108 2743.0583 C -3360.69 2743.0583 -3357.108 2746.64 -3357.108 2751.0583 L -3357.108 2987.2567 C -3357.108 2991.675 -3360.69 2995.2567 -3365.108 2995.2567 L -3626.5455 2995.2567 C -3630.9637 2995.2567 -3634.5455 2991.675 -3634.5455 2987.2567 L -3634.5455 2751.0583 C -3634.5455 2746.64 -3630.9637 2743.0583 -3626.5455 2743.0583 Z" fill="#ececec"/>
        <path d="M -3626.5455 2743.0583 L -3365.108 2743.0583 C -3360.69 2743.0583 -3357.108 2746.64 -3357.108 2751.0583 L -3357.108 2987.2567 C -3357.108 2991.675 -3360.69 2995.2567 -3365.108 2995.2567 L -3626.5455 2995.2567 C -3630.9637 2995.2567 -3634.5455 2991.675 -3634.5455 2987.2567 L -3634.5455 2751.0583 C -3634.5455 2746.64 -3630.9637 2743.0583 -3626.5455 2743.0583 Z" stroke="#f15623" stroke-linecap="round" stroke-linejoin="round" stroke-dasharray="8.0,8.0" stroke-width="2"/>
        <text transform="translate(-3629.5455 2748.0583)" fill="#f15623">
          <tspan font-family="Helvetica Neue" font-size="16" fill="#f15623" x="89.85464" y="15">Tenant: tier1</tspan>
          <tspan font-family="Helvetica Neue" font-size="16" fill="#f15623" x="73.57464" y="33.448">Workspace: tier1</tspan>
        </text>
      </g>
      <g id="Graphic_10">
        <path d="M -3609.026 2799.2126 L -3382.6274 2799.2126 C -3378.209 2799.2126 -3374.6274 2802.7943 -3374.6274 2807.2126 L -3374.6274 2971.2126 C -3374.6274 2975.631 -3378.209 2979.2126 -3382.6274 2979.2126 L -3609.026 2979.2126 C -3613.4444 2979.2126 -3617.026 2975.631 -3617.026 2971.2126 L -3617.026 2807.2126 C -3617.026 2802.7943 -3613.4444 2799.2126 -3609.026 2799.2126 Z" fill="white"/>
        <path d="M -3609.026 2799.2126 L -3382.6274 2799.2126 C -3378.209 2799.2126 -3374.6274 2802.7943 -3374.6274 2807.2126 L -3374.6274 2971.2126 C -3374.6274 2975.631 -3378.209 2979.2126 -3382.6274 2979.2126 L -3609.026 2979.2126 C -3613.4444 2979.2126 -3617.026 2975.631 -3617.026 2971.2126 L -3617.026 2807.2126 C -3617.026 2802.7943 -3613.4444 2799.2126 -3609.026 2799.2126 Z" stroke="gray" stroke-linecap="round" stroke-linejoin="round" stroke-width="1"/>
        <text transform="translate(-3612.026 2809.2126)" fill="black">
          <tspan font-family="Helvetica Neue" font-size="16" fill="black" x="53.22337" y="15">Namespace: tier1</tspan>
        </text>
      </g>
      <g id="Graphic_13">
        <path d="M -3169.459 2743.0583 L -2908.0215 2743.0583 C -2903.6033 2743.0583 -2900.0215 2746.64 -2900.0215 2751.0583 L -2900.0215 2987.2567 C -2900.0215 2991.675 -2903.6033 2995.2567 -2908.0215 2995.2567 L -3169.459 2995.2567 C -3173.877 2995.2567 -3177.459 2991.675 -3177.459 2987.2567 L -3177.459 2751.0583 C -3177.459 2746.64 -3173.877 2743.0583 -3169.459 2743.0583 Z" fill="#ececec"/>
        <path d="M -3169.459 2743.0583 L -2908.0215 2743.0583 C -2903.6033 2743.0583 -2900.0215 2746.64 -2900.0215 2751.0583 L -2900.0215 2987.2567 C -2900.0215 2991.675 -2903.6033 2995.2567 -2908.0215 2995.2567 L -3169.459 2995.2567 C -3173.877 2995.2567 -3177.459 2991.675 -3177.459 2987.2567 L -3177.459 2751.0583 C -3177.459 2746.64 -3173.877 2743.0583 -3169.459 2743.0583 Z" stroke="#f15623" stroke-linecap="round" stroke-linejoin="round" stroke-dasharray="8.0,8.0" stroke-width="2"/>
        <text transform="translate(-3172.459 2748.0583)" fill="#f15623">
          <tspan font-family="Helvetica Neue" font-size="16" fill="#f15623" x="74.43064" y="15">Tenant: payment</tspan>
          <tspan font-family="Helvetica Neue" font-size="16" fill="#f15623" x="11.790643" y="33.448">Workspace: bookinfo-frontend-ws</tspan>
        </text>
      </g>
      <g id="Graphic_12">
        <path d="M -3151.9396 2799.2126 L -2925.5408 2799.2126 C -2921.1225 2799.2126 -2917.5408 2802.7943 -2917.5408 2807.2126 L -2917.5408 2971.2126 C -2917.5408 2975.631 -2921.1225 2979.2126 -2925.5408 2979.2126 L -3151.9396 2979.2126 C -3156.358 2979.2126 -3159.9396 2975.631 -3159.9396 2971.2126 L -3159.9396 2807.2126 C -3159.9396 2802.7943 -3156.358 2799.2126 -3151.9396 2799.2126 Z" fill="white"/>
        <path d="M -3151.9396 2799.2126 L -2925.5408 2799.2126 C -2921.1225 2799.2126 -2917.5408 2802.7943 -2917.5408 2807.2126 L -2917.5408 2971.2126 C -2917.5408 2975.631 -2921.1225 2979.2126 -2925.5408 2979.2126 L -3151.9396 2979.2126 C -3156.358 2979.2126 -3159.9396 2975.631 -3159.9396 2971.2126 L -3159.9396 2807.2126 C -3159.9396 2802.7943 -3156.358 2799.2126 -3151.9396 2799.2126 Z" stroke="gray" stroke-linecap="round" stroke-linejoin="round" stroke-width="1"/>
        <text transform="translate(-3154.9396 2809.2126)" fill="black">
          <tspan font-family="Helvetica Neue" font-size="16" fill="black" x="4.6153713" y="15">Namespace: bookinfo-frontend</tspan>
        </text>
      </g>
      <g id="Graphic_11">
        <path d="M -3121.0945 2845.9843 L -2956.386 2845.9843 C -2951.9676 2845.9843 -2948.386 2849.566 -2948.386 2853.9843 L -2948.386 2955.622 C -2948.386 2960.0404 -2951.9676 2963.622 -2956.386 2963.622 L -3121.0945 2963.622 C -3125.5128 2963.622 -3129.0945 2960.0404 -3129.0945 2955.622 L -3129.0945 2853.9843 C -3129.0945 2849.566 -3125.5128 2845.9843 -3121.0945 2845.9843 Z" fill="white"/>
        <path d="M -3121.0945 2845.9843 L -2956.386 2845.9843 C -2951.9676 2845.9843 -2948.386 2849.566 -2948.386 2853.9843 L -2948.386 2955.622 C -2948.386 2960.0404 -2951.9676 2963.622 -2956.386 2963.622 L -3121.0945 2963.622 C -3125.5128 2963.622 -3129.0945 2960.0404 -3129.0945 2955.622 L -3129.0945 2853.9843 C -3129.0945 2849.566 -3125.5128 2845.9843 -3121.0945 2845.9843 Z" stroke="gray" stroke-linecap="round" stroke-linejoin="round" stroke-dasharray="4.0,4.0" stroke-width="1"/>
        <text transform="translate(-3124.0945 2850.9843)" fill="black">
          <tspan font-family="Helvetica Neue" font-size="16" fill="black" x="18.666332" y="16">bookinfo-frontend</tspan>
        </text>
      </g>
      <g id="Graphic_17">
        <path d="M -3169.459 3156.9166 L -2908.0215 3156.9166 C -2903.6033 3156.9166 -2900.0215 3160.4983 -2900.0215 3164.9166 L -2900.0215 3401.115 C -2900.0215 3405.5333 -2903.6033 3409.115 -2908.0215 3409.115 L -3169.459 3409.115 C -3173.877 3409.115 -3177.459 3405.5333 -3177.459 3401.115 L -3177.459 3164.9166 C -3177.459 3160.4983 -3173.877 3156.9166 -3169.459 3156.9166 Z" fill="#ececec"/>
        <path d="M -3169.459 3156.9166 L -2908.0215 3156.9166 C -2903.6033 3156.9166 -2900.0215 3160.4983 -2900.0215 3164.9166 L -2900.0215 3401.115 C -2900.0215 3405.5333 -2903.6033 3409.115 -2908.0215 3409.115 L -3169.459 3409.115 C -3173.877 3409.115 -3177.459 3405.5333 -3177.459 3401.115 L -3177.459 3164.9166 C -3177.459 3160.4983 -3173.877 3156.9166 -3169.459 3156.9166 Z" stroke="#f15623" stroke-linecap="round" stroke-linejoin="round" stroke-dasharray="8.0,8.0" stroke-width="2"/>
        <text transform="translate(-3172.459 3161.9166)" fill="#f15623">
          <tspan font-family="Helvetica Neue" font-size="16" fill="#f15623" x="74.43064" y="15">Tenant: payment</tspan>
          <tspan font-family="Helvetica Neue" font-size="16" fill="#f15623" x="10.750643" y="33.448">Workspace: bookinfo-backend-ws</tspan>
        </text>
      </g>
      <g id="Graphic_16">
        <path d="M -3151.9396 3213.071 L -2925.5408 3213.071 C -2921.1225 3213.071 -2917.5408 3216.6526 -2917.5408 3221.071 L -2917.5408 3385.071 C -2917.5408 3389.489 -2921.1225 3393.071 -2925.5408 3393.071 L -3151.9396 3393.071 C -3156.358 3393.071 -3159.9396 3389.489 -3159.9396 3385.071 L -3159.9396 3221.071 C -3159.9396 3216.6526 -3156.358 3213.071 -3151.9396 3213.071 Z" fill="white"/>
        <path d="M -3151.9396 3213.071 L -2925.5408 3213.071 C -2921.1225 3213.071 -2917.5408 3216.6526 -2917.5408 3221.071 L -2917.5408 3385.071 C -2917.5408 3389.489 -2921.1225 3393.071 -2925.5408 3393.071 L -3151.9396 3393.071 C -3156.358 3393.071 -3159.9396 3389.489 -3159.9396 3385.071 L -3159.9396 3221.071 C -3159.9396 3216.6526 -3156.358 3213.071 -3151.9396 3213.071 Z" stroke="gray" stroke-linecap="round" stroke-linejoin="round" stroke-width="1"/>
        <text transform="translate(-3154.9396 3223.071)" fill="black">
          <tspan font-family="Helvetica Neue" font-size="16" fill="black" x="3.5753713" y="15">Namespace: bookinfo-backend</tspan>
        </text>
      </g>
      <g id="Graphic_21">
        <path d="M -3626.5455 3156.9166 L -3365.108 3156.9166 C -3360.69 3156.9166 -3357.108 3160.4983 -3357.108 3164.9166 L -3357.108 3401.115 C -3357.108 3405.5333 -3360.69 3409.115 -3365.108 3409.115 L -3626.5455 3409.115 C -3630.9637 3409.115 -3634.5455 3405.5333 -3634.5455 3401.115 L -3634.5455 3164.9166 C -3634.5455 3160.4983 -3630.9637 3156.9166 -3626.5455 3156.9166 Z" fill="#ececec"/>
        <path d="M -3626.5455 3156.9166 L -3365.108 3156.9166 C -3360.69 3156.9166 -3357.108 3160.4983 -3357.108 3164.9166 L -3357.108 3401.115 C -3357.108 3405.5333 -3360.69 3409.115 -3365.108 3409.115 L -3626.5455 3409.115 C -3630.9637 3409.115 -3634.5455 3405.5333 -3634.5455 3401.115 L -3634.5455 3164.9166 C -3634.5455 3160.4983 -3630.9637 3156.9166 -3626.5455 3156.9166 Z" stroke="#f15623" stroke-linecap="round" stroke-linejoin="round" stroke-dasharray="8.0,8.0" stroke-width="2"/>
        <text transform="translate(-3629.5455 3161.9166)" fill="#f15623">
          <tspan font-family="Helvetica Neue" font-size="16" fill="#f15623" x="69.99064" y="15">Tenant: marketing</tspan>
          <tspan font-family="Helvetica Neue" font-size="16" fill="#f15623" x="46.902643" y="33.448">Workspace: httpsbin-ws</tspan>
        </text>
      </g>
      <g id="Graphic_20">
        <path d="M -3609.026 3213.071 L -3382.6274 3213.071 C -3378.209 3213.071 -3374.6274 3216.6526 -3374.6274 3221.071 L -3374.6274 3385.071 C -3374.6274 3389.489 -3378.209 3393.071 -3382.6274 3393.071 L -3609.026 3393.071 C -3613.4444 3393.071 -3617.026 3389.489 -3617.026 3385.071 L -3617.026 3221.071 C -3617.026 3216.6526 -3613.4444 3213.071 -3609.026 3213.071 Z" fill="white"/>
        <path d="M -3609.026 3213.071 L -3382.6274 3213.071 C -3378.209 3213.071 -3374.6274 3216.6526 -3374.6274 3221.071 L -3374.6274 3385.071 C -3374.6274 3389.489 -3378.209 3393.071 -3382.6274 3393.071 L -3609.026 3393.071 C -3613.4444 3393.071 -3617.026 3389.489 -3617.026 3385.071 L -3617.026 3221.071 C -3617.026 3216.6526 -3613.4444 3213.071 -3609.026 3213.071 Z" stroke="gray" stroke-linecap="round" stroke-linejoin="round" stroke-width="1"/>
        <text transform="translate(-3612.026 3223.071)" fill="black">
          <tspan font-family="Helvetica Neue" font-size="16" fill="black" x="43.72737" y="15">Namespace: httpbin</tspan>
        </text>
      </g>
      <g id="Line_26">
        <path d="M -3342.0473 2921.5745 C -3329.3647 2923.087 -3315.8973 2923.937 -3301.6447 2923.937 C -3268.9762 2923.937 -3236.0585 2919.472 -3205.0966 2912.7947" marker-end="url(#FilledArrow_Marker)" stroke="black" stroke-linecap="round" stroke-linejoin="round" stroke-width="2"/>
      </g>
      <g id="Line_27">
        <path d="M -3342.0473 2920.7697 C -3293.4127 2947.119 -3239.9887 2981.53 -3192.5197 3024.5098 C -3163.3685 3050.904 -3139.549 3077.736 -3120.138 3103.4705" marker-end="url(#FilledArrow_Marker)" stroke="black" stroke-linecap="round" stroke-linejoin="round" stroke-width="2"/>
      </g>
      <g id="Line_28">
        <path d="M -3342.0473 2920.9238 C -3320.0826 2941.406 -3304.762 2967.5924 -3304.762 3000.7937 C -3304.762 3033.727 -3319.836 3069.212 -3341.5165 3103.2176" marker-end="url(#FilledArrow_Marker)" stroke="black" stroke-linecap="round" stroke-linejoin="round" stroke-width="2"/>
      </g>
      <g id="Line_29">
        <line x1="-3038.7402" y1="3020.459" x2="-3038.7402" y2="3100.9583" marker-end="url(#FilledArrow_Marker)" marker-start="url(#FilledArrow_Marker_2)" stroke="black" stroke-linecap="round" stroke-linejoin="round" stroke-width="2"/>
      </g>
      <g id="Graphic_41">
        <path d="M -3083.181 2889.9213 L -2994.2992 2889.9213 C -2989.881 2889.9213 -2986.2992 2893.503 -2986.2992 2897.9213 L -2986.2992 2921.6063 C -2986.2992 2926.0246 -2989.881 2929.6063 -2994.2992 2929.6063 L -3083.181 2929.6063 C -3087.5994 2929.6063 -3091.181 2926.0246 -3091.181 2921.6063 L -3091.181 2897.9213 C -3091.181 2893.503 -3087.5994 2889.9213 -3083.181 2889.9213 Z" fill="#333"/>
        <text transform="translate(-3086.181 2900.0318)" fill="white">
          <tspan font-family="Helvetica Neue" font-size="16" fill="white" x=".016944672" y="16">productpage</tspan>
        </text>
      </g>
      <g id="Graphic_45">
        <path d="M -3130.4628 3251.3797 L -2947.0176 3251.3797 C -2942.5993 3251.3797 -2939.0176 3254.9615 -2939.0176 3259.3797 L -2939.0176 3375.1908 C -2939.0176 3379.609 -2942.5993 3383.1908 -2947.0176 3383.1908 L -3130.4628 3383.1908 C -3134.881 3383.1908 -3138.4628 3379.609 -3138.4628 3375.1908 L -3138.4628 3259.3797 C -3138.4628 3254.9615 -3134.881 3251.3797 -3130.4628 3251.3797 Z" fill="white"/>
        <path d="M -3130.4628 3251.3797 L -2947.0176 3251.3797 C -2942.5993 3251.3797 -2939.0176 3254.9615 -2939.0176 3259.3797 L -2939.0176 3375.1908 C -2939.0176 3379.609 -2942.5993 3383.1908 -2947.0176 3383.1908 L -3130.4628 3383.1908 C -3134.881 3383.1908 -3138.4628 3379.609 -3138.4628 3375.1908 L -3138.4628 3259.3797 C -3138.4628 3254.9615 -3134.881 3251.3797 -3130.4628 3251.3797 Z" stroke="gray" stroke-linecap="round" stroke-linejoin="round" stroke-dasharray="4.0,4.0" stroke-width="1"/>
        <text transform="translate(-3133.4628 3256.3797)" fill="black">
          <tspan font-family="Helvetica Neue" font-size="16" fill="black" x="27.146588" y="16">bookinfo-backend</tspan>
        </text>
      </g>
      <g id="Graphic_44">
        <path d="M -3119.1242 3283.2695 L -3030.2423 3283.2695 C -3025.824 3283.2695 -3022.2423 3286.8512 -3022.2423 3291.2695 L -3022.2423 3314.9545 C -3022.2423 3319.373 -3025.824 3322.9545 -3030.2423 3322.9545 L -3119.1242 3322.9545 C -3123.5425 3322.9545 -3127.124 3319.373 -3127.124 3314.9545 L -3127.124 3291.2695 C -3127.124 3286.8512 -3123.5425 3283.2695 -3119.1242 3283.2695 Z" fill="#333"/>
        <text transform="translate(-3122.1242 3293.38)" fill="white">
          <tspan font-family="Helvetica Neue" font-size="16" fill="white" x=".016944672" y="16">productpage</tspan>
        </text>
      </g>
      <g id="Graphic_46">
        <path d="M -3119.1242 3330.75 L -3067.0927 3330.75 C -3062.6744 3330.75 -3059.0927 3334.3315 -3059.0927 3338.75 L -3059.0927 3362.435 C -3059.0927 3366.853 -3062.6744 3370.435 -3067.0927 3370.435 L -3119.1242 3370.435 C -3123.5425 3370.435 -3127.124 3366.853 -3127.124 3362.435 L -3127.124 3338.75 C -3127.124 3334.3315 -3123.5425 3330.75 -3119.1242 3330.75 Z" fill="#333"/>
        <text transform="translate(-3122.1242 3340.8603)" fill="white">
          <tspan font-family="Helvetica Neue" font-size="16" fill="white" x=".991749" y="16">reviews</tspan>
        </text>
      </g>
      <g id="Graphic_47">
        <path d="M -3039.4925 3330.75 L -2987.461 3330.75 C -2983.0427 3330.75 -2979.461 3334.3315 -2979.461 3338.75 L -2979.461 3362.435 C -2979.461 3366.853 -2983.0427 3370.435 -2987.461 3370.435 L -3039.4925 3370.435 C -3043.9108 3370.435 -3047.4925 3366.853 -3047.4925 3362.435 L -3047.4925 3338.75 C -3047.4925 3334.3315 -3043.9108 3330.75 -3039.4925 3330.75 Z" fill="#333"/>
        <text transform="translate(-3042.4925 3340.8603)" fill="white">
          <tspan font-family="Helvetica Neue" font-size="16" fill="white" x="4.559749" y="16">details</tspan>
        </text>
      </g>
      <g id="Graphic_48">
        <path d="M -3008.573 3283.2695 L -2956.5415 3283.2695 C -2952.1232 3283.2695 -2948.5415 3286.8512 -2948.5415 3291.2695 L -2948.5415 3314.9545 C -2948.5415 3319.373 -2952.1232 3322.9545 -2956.5415 3322.9545 L -3008.573 3322.9545 C -3012.9913 3322.9545 -3016.573 3319.373 -3016.573 3314.9545 L -3016.573 3291.2695 C -3016.573 3286.8512 -3012.9913 3283.2695 -3008.573 3283.2695 Z" fill="#333"/>
        <text transform="translate(-3011.573 3293.38)" fill="white">
          <tspan font-family="Helvetica Neue" font-size="16" fill="white" x="3.671749" y="16">ratings</tspan>
        </text>
      </g>
      <g id="Graphic_50">
        <path d="M -3578.181 3258.4664 L -3413.4725 3258.4664 C -3409.054 3258.4664 -3405.4725 3262.048 -3405.4725 3266.4664 L -3405.4725 3368.104 C -3405.4725 3372.5224 -3409.054 3376.104 -3413.4725 3376.104 L -3578.181 3376.104 C -3582.5994 3376.104 -3586.181 3372.5224 -3586.181 3368.104 L -3586.181 3266.4664 C -3586.181 3262.048 -3582.5994 3258.4664 -3578.181 3258.4664 Z" fill="white"/>
        <path d="M -3578.181 3258.4664 L -3413.4725 3258.4664 C -3409.054 3258.4664 -3405.4725 3262.048 -3405.4725 3266.4664 L -3405.4725 3368.104 C -3405.4725 3372.5224 -3409.054 3376.104 -3413.4725 3376.104 L -3578.181 3376.104 C -3582.5994 3376.104 -3586.181 3372.5224 -3586.181 3368.104 L -3586.181 3266.4664 C -3586.181 3262.048 -3582.5994 3258.4664 -3578.181 3258.4664 Z" stroke="gray" stroke-linecap="round" stroke-linejoin="round" stroke-dasharray="4.0,4.0" stroke-width="1"/>
        <text transform="translate(-3581.181 3263.4664)" fill="black">
          <tspan font-family="Helvetica Neue" font-size="16" fill="black" x="59.13833" y="16">httpbin</tspan>
        </text>
      </g>
      <g id="Graphic_49">
        <path d="M -3540.2677 3302.4034 L -3451.386 3302.4034 C -3446.9676 3302.4034 -3443.386 3305.985 -3443.386 3310.4034 L -3443.386 3334.0884 C -3443.386 3338.5067 -3446.9676 3342.0884 -3451.386 3342.0884 L -3540.2677 3342.0884 C -3544.686 3342.0884 -3548.2677 3338.5067 -3548.2677 3334.0884 L -3548.2677 3310.4034 C -3548.2677 3305.985 -3544.686 3302.4034 -3540.2677 3302.4034 Z" fill="#333"/>
        <text transform="translate(-3543.2677 3312.514)" fill="white">
          <tspan font-family="Helvetica Neue" font-size="16" fill="white" x="21.224945" y="16">httpbin</tspan>
        </text>
      </g>
      <g id="Group_75">
        <g id="Group_62">
          <g id="Graphic_32">
            <path d="M -2803.2083 3295.428 L -2723.9346 3295.428 C -2719.5163 3295.428 -2715.9346 3299.0096 -2715.9346 3303.428 L -2715.9346 3321.115 C -2715.9346 3325.533 -2719.5163 3329.115 -2723.9346 3329.115 L -2803.2083 3329.115 C -2807.6266 3329.115 -2811.2083 3325.533 -2811.2083 3321.115 L -2811.2083 3303.428 C -2811.2083 3299.0096 -2807.6266 3295.428 -2803.2083 3295.428 Z" fill="white"/>
            <path d="M -2803.2083 3295.428 L -2723.9346 3295.428 C -2719.5163 3295.428 -2715.9346 3299.0096 -2715.9346 3303.428 L -2715.9346 3321.115 C -2715.9346 3325.533 -2719.5163 3329.115 -2723.9346 3329.115 L -2803.2083 3329.115 C -2807.6266 3329.115 -2811.2083 3325.533 -2811.2083 3321.115 L -2811.2083 3303.428 C -2811.2083 3299.0096 -2807.6266 3295.428 -2803.2083 3295.428 Z" stroke="gray" stroke-linecap="round" stroke-linejoin="round" stroke-dasharray="4.0,4.0" stroke-width="1"/>
          </g>
          <g id="Graphic_35">
            <text transform="translate(-2701.7024 3301.537)" fill="black">
              <tspan font-family="Helvetica Neue" font-size="16" fill="black" x="0" y="15">Application</tspan>
            </text>
          </g>
          <g id="Graphic_33">
            <path d="M -2803.2083 3203.6846 L -2723.9346 3203.6846 C -2719.5163 3203.6846 -2715.9346 3207.2664 -2715.9346 3211.6846 L -2715.9346 3229.3716 C -2715.9346 3233.79 -2719.5163 3237.3716 -2723.9346 3237.3716 L -2803.2083 3237.3716 C -2807.6266 3237.3716 -2811.2083 3233.79 -2811.2083 3229.3716 L -2811.2083 3211.6846 C -2811.2083 3207.2664 -2807.6266 3203.6846 -2803.2083 3203.6846 Z" fill="#ececec"/>
            <path d="M -2803.2083 3203.6846 L -2723.9346 3203.6846 C -2719.5163 3203.6846 -2715.9346 3207.2664 -2715.9346 3211.6846 L -2715.9346 3229.3716 C -2715.9346 3233.79 -2719.5163 3237.3716 -2723.9346 3237.3716 L -2803.2083 3237.3716 C -2807.6266 3237.3716 -2811.2083 3233.79 -2811.2083 3229.3716 L -2811.2083 3211.6846 C -2811.2083 3207.2664 -2807.6266 3203.6846 -2803.2083 3203.6846 Z" stroke="#f15623" stroke-linecap="round" stroke-linejoin="round" stroke-dasharray="8.0,8.0" stroke-width="2"/>
          </g>
          <g id="Graphic_36">
            <text transform="translate(-2701.7024 3210.972)" fill="black">
              <tspan font-family="Helvetica Neue" font-size="16" fill="black" x="0" y="15">TSB Configuration</tspan>
            </text>
          </g>
          <g id="Graphic_34">
            <path d="M -2803.2083 3250.273 L -2723.9346 3250.273 C -2719.5163 3250.273 -2715.9346 3253.8547 -2715.9346 3258.273 L -2715.9346 3275.96 C -2715.9346 3280.3783 -2719.5163 3283.96 -2723.9346 3283.96 L -2803.2083 3283.96 C -2807.6266 3283.96 -2811.2083 3280.3783 -2811.2083 3275.96 L -2811.2083 3258.273 C -2811.2083 3253.8547 -2807.6266 3250.273 -2803.2083 3250.273 Z" fill="white"/>
            <path d="M -2803.2083 3250.273 L -2723.9346 3250.273 C -2719.5163 3250.273 -2715.9346 3253.8547 -2715.9346 3258.273 L -2715.9346 3275.96 C -2715.9346 3280.3783 -2719.5163 3283.96 -2723.9346 3283.96 L -2803.2083 3283.96 C -2807.6266 3283.96 -2811.2083 3280.3783 -2811.2083 3275.96 L -2811.2083 3258.273 C -2811.2083 3253.8547 -2807.6266 3250.273 -2803.2083 3250.273 Z" stroke="gray" stroke-linecap="round" stroke-linejoin="round" stroke-width="1"/>
          </g>
          <g id="Graphic_37">
            <text transform="translate(-2701.7024 3256.2544)" fill="black">
              <tspan font-family="Helvetica Neue" font-size="16" fill="black" x="0" y="15">Namespace</tspan>
            </text>
          </g>
          <g id="Graphic_30">
            <text transform="translate(-2701.7024 3388.0035)" fill="black">
              <tspan font-family="Helvetica Neue" font-size="16" fill="black" x="0" y="15">Network Reachibility</tspan>
            </text>
          </g>
          <g id="Line_39">
            <line x1="-2811.5894" y1="3396.8033" x2="-2728.4534" y2="3396.531" marker-end="url(#FilledArrow_Marker)" stroke="black" stroke-linecap="round" stroke-linejoin="round" stroke-width="2"/>
          </g>
          <g id="Graphic_42">
            <path d="M -2803.2083 3340.5828 L -2723.9346 3340.5828 C -2719.5163 3340.5828 -2715.9346 3344.1645 -2715.9346 3348.5828 L -2715.9346 3365.553 C -2715.9346 3369.9713 -2719.5163 3373.553 -2723.9346 3373.553 L -2803.2083 3373.553 C -2807.6266 3373.553 -2811.2083 3369.9713 -2811.2083 3365.553 L -2811.2083 3348.5828 C -2811.2083 3344.1645 -2807.6266 3340.5828 -2803.2083 3340.5828 Z" fill="#333"/>
          </g>
          <g id="Graphic_43">
            <text transform="translate(-2701.7024 3347.844)" fill="black">
              <tspan font-family="Helvetica Neue" font-size="16" fill="black" x="0" y="15">Service</tspan>
            </text>
          </g>
          <g id="Graphic_58">
            <path d="M -2803.2083 3157.0963 L -2723.9346 3157.0963 C -2719.5163 3157.0963 -2715.9346 3160.678 -2715.9346 3165.0963 L -2715.9346 3182.7832 C -2715.9346 3187.2015 -2719.5163 3190.7832 -2723.9346 3190.7832 L -2803.2083 3190.7832 C -2807.6266 3190.7832 -2811.2083 3187.2015 -2811.2083 3182.7832 L -2811.2083 3165.0963 C -2811.2083 3160.678 -2807.6266 3157.0963 -2803.2083 3157.0963 Z" fill="#ccc"/>
          </g>
          <g id="Graphic_57">
            <text transform="translate(-2701.7024 3166.1712)" fill="black">
              <tspan font-family="Helvetica Neue" font-size="16" fill="black" x="0" y="15">Cluster</tspan>
            </text>
          </g>
        </g>
        <g id="Graphic_61">
          <text transform="translate(-2809.058 3127.6922)" fill="black">
            <tspan font-family="Helvetica Neue" font-weight="bold" font-size="16" fill="black" x="31974423e-20" y="16">Legend</tspan>
          </text>
        </g>
      </g>
      <g id="Group_72">
        <g id="Graphic_74">
          <path d="M -3652.3287 2722.2046 L -3660.4673 2708.107 C -3661.104 2707.0038 -3661.104 2705.645 -3660.4673 2704.5418 L -3652.3287 2690.4442 C -3651.692 2689.341 -3650.515 2688.6614 -3649.241 2688.6614 L -3632.964 2688.6614 C -3631.69 2688.6614 -3630.5132 2689.341 -3629.876 2690.4442 L -3621.7375 2704.5418 C -3621.1007 2705.645 -3621.1007 2707.0038 -3621.7375 2708.107 L -3629.876 2722.2046 C -3630.513 2723.3077 -3631.69 2723.987 -3632.964 2723.987 L -3649.241 2723.987 C -3650.5146 2723.987 -3651.6916 2723.3074 -3652.3284 2722.2046" fill="url(#Obj_Gradient)"/>
        </g>
        <g id="Graphic_73">
          <path d="M -3633.342 2701.3614 L -3640.6826 2697.123 C -3640.9415 2696.9737 -3641.2605 2696.9737 -3641.5194 2697.123 L -3648.86 2701.3614 C -3649.119 2701.5108 -3649.278 2701.787 -3649.278 2702.086 L -3649.278 2710.5622 C -3649.278 2710.861 -3649.119 2711.1373 -3648.86 2711.2867 L -3641.5194 2715.525 C -3641.2605 2715.6745 -3640.9415 2715.6745 -3640.6826 2715.525 L -3633.342 2711.2867 C -3633.083 2711.1373 -3632.924 2710.861 -3632.924 2710.5622 L -3632.924 2702.086 C -3632.924 2701.787 -3633.083 2701.5108 -3633.342 2701.3614 M -3634.349 2709.751 L -3636.91 2708.2725 L -3636.91 2704.3775 L -3640.692 2706.56 L -3640.692 2710.9286 L -3637.319 2708.9813 L -3634.758 2710.46 L -3641.101 2714.122 L -3647.4443 2710.46 L -3644.8834 2708.9813 L -3641.51 2710.9286 L -3641.51 2706.56 L -3645.292 2704.3775 L -3645.292 2708.2725 L -3647.853 2709.751 L -3647.853 2702.4267 L -3641.51 2698.7645 L -3641.51 2701.7216 L -3644.883 2703.669 L -3641.101 2705.8517 L -3637.3193 2703.669 L -3640.692 2701.7216 L -3640.692 2698.7645 L -3634.349 2702.4267 L -3634.349 2709.751" fill="white"/>
        </g>
      </g>
      <g id="Group_69">
        <g id="Graphic_71">
          <path d="M -3195.9507 2722.2046 L -3204.0893 2708.107 C -3204.726 2707.0038 -3204.726 2705.645 -3204.0893 2704.5418 L -3195.9507 2690.4442 C -3195.314 2689.341 -3194.137 2688.6614 -3192.863 2688.6614 L -3176.586 2688.6614 C -3175.3122 2688.6614 -3174.1353 2689.341 -3173.498 2690.4442 L -3165.3595 2704.5418 C -3164.7227 2705.645 -3164.7227 2707.0038 -3165.3595 2708.107 L -3173.498 2722.2046 C -3174.135 2723.3077 -3175.312 2723.987 -3176.586 2723.987 L -3192.863 2723.987 C -3194.1367 2723.987 -3195.3136 2723.3074 -3195.9504 2722.2046" fill="url(#Obj_Gradient_2)"/>
        </g>
        <g id="Graphic_70">
          <path d="M -3176.964 2701.3614 L -3184.3046 2697.123 C -3184.5635 2696.9737 -3184.8826 2696.9737 -3185.1414 2697.123 L -3192.482 2701.3614 C -3192.741 2701.5108 -3192.9002 2701.787 -3192.9002 2702.086 L -3192.9002 2710.5622 C -3192.9002 2710.861 -3192.741 2711.1373 -3192.482 2711.2867 L -3185.1414 2715.525 C -3184.8826 2715.6745 -3184.5635 2715.6745 -3184.3046 2715.525 L -3176.964 2711.2867 C -3176.7052 2711.1373 -3176.546 2710.861 -3176.546 2710.5622 L -3176.546 2702.086 C -3176.546 2701.787 -3176.7052 2701.5108 -3176.964 2701.3614 M -3177.971 2709.751 L -3180.532 2708.2725 L -3180.532 2704.3775 L -3184.314 2706.56 L -3184.314 2710.9286 L -3180.941 2708.9813 L -3178.38 2710.46 L -3184.7232 2714.122 L -3191.0663 2710.46 L -3188.5054 2708.9813 L -3185.132 2710.9286 L -3185.132 2706.56 L -3188.914 2704.3775 L -3188.914 2708.2725 L -3191.475 2709.751 L -3191.475 2702.4267 L -3185.132 2698.7645 L -3185.132 2701.7216 L -3188.505 2703.669 L -3184.7232 2705.8517 L -3180.9413 2703.669 L -3184.3143 2701.7216 L -3184.3143 2698.7645 L -3177.971 2702.4267 L -3177.971 2709.751" fill="white"/>
        </g>
      </g>
      <g id="Group_66">
        <g id="Graphic_68">
          <path d="M -3648.0767 3134.72 L -3656.2153 3120.6222 C -3656.852 3119.519 -3656.852 3118.1602 -3656.2153 3117.057 L -3648.0767 3102.9595 C -3647.44 3101.8563 -3646.263 3101.1767 -3644.989 3101.1767 L -3628.712 3101.1767 C -3627.438 3101.1767 -3626.2613 3101.8563 -3625.624 3102.9595 L -3617.4855 3117.057 C -3616.8487 3118.1602 -3616.8487 3119.519 -3617.4855 3120.6222 L -3625.624 3134.72 C -3626.261 3135.823 -3627.438 3136.5023 -3628.712 3136.5023 L -3644.989 3136.5023 C -3646.2627 3136.5023 -3647.4396 3135.8226 -3648.0764 3134.72" fill="url(#Obj_Gradient_3)"/>
        </g>
        <g id="Graphic_67">
          <path d="M -3629.09 3113.8766 L -3636.4306 3109.6384 C -3636.6895 3109.489 -3637.0085 3109.489 -3637.2674 3109.6384 L -3644.608 3113.8766 C -3644.867 3114.026 -3645.0262 3114.3023 -3645.0262 3114.6012 L -3645.0262 3123.0775 C -3645.0262 3123.3763 -3644.867 3123.6526 -3644.608 3123.802 L -3637.2674 3128.0403 C -3637.0085 3128.1897 -3636.6895 3128.1897 -3636.4306 3128.0403 L -3629.09 3123.802 C -3628.831 3123.6526 -3628.672 3123.3763 -3628.672 3123.0775 L -3628.672 3114.6012 C -3628.672 3114.3023 -3628.831 3114.026 -3629.09 3113.8766 M -3630.097 3122.2664 L -3632.658 3120.7878 L -3632.658 3116.8927 L -3636.44 3119.0754 L -3636.44 3123.444 L -3633.067 3121.4965 L -3630.506 3122.975 L -3636.849 3126.6374 L -3643.1923 3122.975 L -3640.6314 3121.4965 L -3637.258 3123.444 L -3637.258 3119.0754 L -3641.04 3116.8927 L -3641.04 3120.7878 L -3643.601 3122.2664 L -3643.601 3114.942 L -3637.258 3111.2797 L -3637.258 3114.237 L -3640.631 3116.1843 L -3636.849 3118.367 L -3633.0673 3116.1843 L -3636.4402 3114.237 L -3636.4402 3111.2797 L -3630.097 3114.942 L -3630.097 3122.2664" fill="white"/>
        </g>
      </g>
      <g id="Group_63">
        <g id="Graphic_65">
          <path d="M -3191.6988 3134.72 L -3199.8374 3120.6222 C -3200.4742 3119.519 -3200.4742 3118.1602 -3199.8374 3117.057 L -3191.6988 3102.9595 C -3191.062 3101.8563 -3189.885 3101.1767 -3188.611 3101.1767 L -3172.334 3101.1767 C -3171.0602 3101.1767 -3169.8833 3101.8563 -3169.246 3102.9595 L -3161.1076 3117.057 C -3160.4707 3118.1602 -3160.4707 3119.519 -3161.1076 3120.6222 L -3169.246 3134.72 C -3169.883 3135.823 -3171.06 3136.5023 -3172.334 3136.5023 L -3188.611 3136.5023 C -3189.8847 3136.5023 -3191.0616 3135.8226 -3191.6985 3134.72" fill="url(#Obj_Gradient_4)"/>
        </g>
        <g id="Graphic_64">
          <path d="M -3172.712 3113.8766 L -3180.0527 3109.6384 C -3180.3116 3109.489 -3180.6306 3109.489 -3180.8895 3109.6384 L -3188.23 3113.8766 C -3188.489 3114.026 -3188.6483 3114.3023 -3188.6483 3114.6012 L -3188.6483 3123.0775 C -3188.6483 3123.3763 -3188.489 3123.6526 -3188.23 3123.802 L -3180.8895 3128.0403 C -3180.6306 3128.1897 -3180.3116 3128.1897 -3180.0527 3128.0403 L -3172.712 3123.802 C -3172.4532 3123.6526 -3172.294 3123.3763 -3172.294 3123.0775 L -3172.294 3114.6012 C -3172.294 3114.3023 -3172.4532 3114.026 -3172.712 3113.8766 M -3173.719 3122.2664 L -3176.28 3120.7878 L -3176.28 3116.8927 L -3180.062 3119.0754 L -3180.062 3123.444 L -3176.689 3121.4965 L -3174.128 3122.975 L -3180.4712 3126.6374 L -3186.8144 3122.975 L -3184.2534 3121.4965 L -3180.88 3123.444 L -3180.88 3119.0754 L -3184.662 3116.8927 L -3184.662 3120.7878 L -3187.223 3122.2664 L -3187.223 3114.942 L -3180.88 3111.2797 L -3180.88 3114.237 L -3184.253 3116.1843 L -3180.4712 3118.367 L -3176.6893 3116.1843 L -3180.0623 3114.237 L -3180.0623 3111.2797 L -3173.719 3114.942 L -3173.719 3122.2664" fill="white"/>
        </g>
      </g>
    </g>
  </g>
</svg>
