<?xml version="1.0" encoding="UTF-8" standalone="no"?>
<!DOCTYPE svg PUBLIC "-//W3C//DTD SVG 1.1//EN" "http://www.w3.org/Graphics/SVG/1.1/DTD/svg11.dtd">
<svg xmlns:dc="http://purl.org/dc/elements/1.1/" version="1.1" xmlns="http://www.w3.org/2000/svg" xmlns:xl="http://www.w3.org/1999/xlink" viewBox="-3806 2884 1175 838" width="1175" height="838">
  <defs>
    <marker orient="auto" overflow="visible" markerUnits="strokeWidth" id="FilledArrow_Marker" stroke-linejoin="miter" stroke-miterlimit="10" viewBox="-1 -3 7 6" markerWidth="7" markerHeight="6" color="black">
      <g>
        <path d="M 4.8 0 L 0 -1.8 L 0 1.8 Z" fill="currentColor" stroke="currentColor" stroke-width="1"/>
      </g>
    </marker>
    <linearGradient x1="0" x2="1" id="Gradient" gradientUnits="userSpaceOnUse">
      <stop offset="0" stop-color="#4387fd"/>
      <stop offset="1" stop-color="#4683ea"/>
    </linearGradient>
    <linearGradient id="Obj_Gradient" xl:href="#Gradient" gradientTransform="translate(-3716.2205 2919.7612) scale(39.68504)"/>
    <linearGradient id="Obj_Gradient_2" xl:href="#Gradient" gradientTransform="translate(-3259.8425 2919.7612) scale(39.68504)"/>
    <linearGradient id="Obj_Gradient_3" xl:href="#Gradient" gradientTransform="translate(-3716.2205 3338.0297) scale(39.68504)"/>
    <linearGradient id="Obj_Gradient_4" xl:href="#Gradient" gradientTransform="translate(-3259.8425 3338.0297) scale(39.68504)"/>
  </defs>
  <g id="unified-gateway-scenario-4" fill-opacity="1" stroke-dasharray="none" stroke="none" stroke-opacity="1" fill="none">
    <title>unified-gateway-scenario-4</title>
    <rect fill="white" x="-3806" y="2884" width="1175" height="838"/>
    <g id="unified-gateway-scenario-4_Layer_1">
      <title>Layer 1</title>
      <g id="Graphic_70"/>
      <g id="Graphic_69">
        <path d="M -3698.2992 2919.1063 L -3406.74 2919.1063 C -3402.322 2919.1063 -3398.74 2922.688 -3398.74 2927.1063 L -3398.74 3218.6654 C -3398.74 3223.0836 -3402.322 3226.6654 -3406.74 3226.6654 L -3698.2992 3226.6654 C -3702.7175 3226.6654 -3706.2992 3223.0836 -3706.2992 3218.6654 L -3706.2992 2927.1063 C -3706.2992 2922.688 -3702.7175 2919.1063 -3698.2992 2919.1063 Z" fill="#ccc"/>
        <text transform="translate(-3701.2992 2924.1063)" fill="black">
          <tspan font-family="Helvetica Neue" font-size="16" fill="black" x="57.931526" y="16">gke-jimmy-us-central1-1</tspan>
        </text>
      </g>
      <g id="Graphic_68">
        <path d="M -3241.2126 2919.1063 L -2949.6536 2919.1063 C -2945.2353 2919.1063 -2941.6536 2922.688 -2941.6536 2927.1063 L -2941.6536 3218.6654 C -2941.6536 3223.0836 -2945.2353 3226.6654 -2949.6536 3226.6654 L -3241.2126 3226.6654 C -3245.631 3226.6654 -3249.2126 3223.0836 -3249.2126 3218.6654 L -3249.2126 2927.1063 C -3249.2126 2922.688 -3245.631 2919.1063 -3241.2126 2919.1063 Z" fill="#ccc"/>
        <text transform="translate(-3244.2126 2924.1063)" fill="black">
          <tspan font-family="Helvetica Neue" font-size="16" fill="black" x="65.787526" y="16">gke-jimmy-us-west1-1</tspan>
        </text>
      </g>
      <g id="Graphic_67">
        <path d="M -3241.2126 3332.9646 L -2949.6536 3332.9646 C -2945.2353 3332.9646 -2941.6536 3336.5463 -2941.6536 3340.9646 L -2941.6536 3632.5236 C -2941.6536 3636.942 -2945.2353 3640.5236 -2949.6536 3640.5236 L -3241.2126 3640.5236 C -3245.631 3640.5236 -3249.2126 3636.942 -3249.2126 3632.5236 L -3249.2126 3340.9646 C -3249.2126 3336.5463 -3245.631 3332.9646 -3241.2126 3332.9646 Z" fill="#ccc"/>
        <text transform="translate(-3244.2126 3337.9646)" fill="black">
          <tspan font-family="Helvetica Neue" font-size="16" fill="black" x="65.787526" y="16">gke-jimmy-us-west1-2</tspan>
        </text>
      </g>
      <g id="Graphic_66">
        <path d="M -3698.2992 3332.9646 L -3406.74 3332.9646 C -3402.322 3332.9646 -3398.74 3336.5463 -3398.74 3340.9646 L -3398.74 3632.5236 C -3398.74 3636.942 -3402.322 3640.5236 -3406.74 3640.5236 L -3698.2992 3640.5236 C -3702.7175 3640.5236 -3706.2992 3636.942 -3706.2992 3632.5236 L -3706.2992 3340.9646 C -3706.2992 3336.5463 -3702.7175 3332.9646 -3698.2992 3332.9646 Z" fill="#ccc"/>
        <text transform="translate(-3701.2992 3337.9646)" fill="black">
          <tspan font-family="Helvetica Neue" font-size="16" fill="black" x="65.787526" y="16">gke-jimmy-us-west2-3</tspan>
        </text>
      </g>
      <g id="Graphic_65">
        <path d="M -3683.2384 2962.1646 L -3421.801 2962.1646 C -3417.3828 2962.1646 -3413.801 2965.7463 -3413.801 2970.1646 L -3413.801 3206.363 C -3413.801 3210.7813 -3417.3828 3214.363 -3421.801 3214.363 L -3683.2384 3214.363 C -3687.6566 3214.363 -3691.2384 3210.7813 -3691.2384 3206.363 L -3691.2384 2970.1646 C -3691.2384 2965.7463 -3687.6566 2962.1646 -3683.2384 2962.1646 Z" fill="#ececec"/>
        <path d="M -3683.2384 2962.1646 L -3421.801 2962.1646 C -3417.3828 2962.1646 -3413.801 2965.7463 -3413.801 2970.1646 L -3413.801 3206.363 C -3413.801 3210.7813 -3417.3828 3214.363 -3421.801 3214.363 L -3683.2384 3214.363 C -3687.6566 3214.363 -3691.2384 3210.7813 -3691.2384 3206.363 L -3691.2384 2970.1646 C -3691.2384 2965.7463 -3687.6566 2962.1646 -3683.2384 2962.1646 Z" stroke="#f15623" stroke-linecap="round" stroke-linejoin="round" stroke-dasharray="8.0,8.0" stroke-width="2"/>
        <text transform="translate(-3686.2384 2967.1646)" fill="#f15623">
          <tspan font-family="Helvetica Neue" font-size="14" fill="#f15623" x="95.33764" y="13">Tenant: tier1</tspan>
          <tspan font-family="Helvetica Neue" font-size="14" fill="#f15623" x="81.09264" y="29.392">Workspace: tier1</tspan>
          <tspan font-family="Helvetica Neue" font-size="14" fill="#f15623" x="89.77964" y="45.783997">Network: tier1</tspan>
        </text>
      </g>
      <g id="Graphic_64">
        <path d="M -3665.719 3018.319 L -3439.3203 3018.319 C -3434.902 3018.319 -3431.3203 3021.9006 -3431.3203 3026.319 L -3431.3203 3190.319 C -3431.3203 3194.737 -3434.902 3198.319 -3439.3203 3198.319 L -3665.719 3198.319 C -3670.1374 3198.319 -3673.719 3194.737 -3673.719 3190.319 L -3673.719 3026.319 C -3673.719 3021.9006 -3670.1374 3018.319 -3665.719 3018.319 Z" fill="white"/>
        <path d="M -3665.719 3018.319 L -3439.3203 3018.319 C -3434.902 3018.319 -3431.3203 3021.9006 -3431.3203 3026.319 L -3431.3203 3190.319 C -3431.3203 3194.737 -3434.902 3198.319 -3439.3203 3198.319 L -3665.719 3198.319 C -3670.1374 3198.319 -3673.719 3194.737 -3673.719 3190.319 L -3673.719 3026.319 C -3673.719 3021.9006 -3670.1374 3018.319 -3665.719 3018.319 Z" stroke="gray" stroke-linecap="round" stroke-linejoin="round" stroke-width="1"/>
        <text transform="translate(-3668.719 3028.319)" fill="black">
          <tspan font-family="Helvetica Neue" font-size="16" fill="black" x="53.22337" y="15">Namespace: tier1</tspan>
        </text>
      </g>
      <g id="Graphic_63">
        <path d="M -3621.764 3084.933 L -3483.2756 3084.933 C -3478.8573 3084.933 -3475.2756 3088.5148 -3475.2756 3092.933 L -3475.2756 3129.374 C -3475.2756 3133.7923 -3478.8573 3137.374 -3483.2756 3137.374 L -3621.764 3137.374 C -3626.182 3137.374 -3629.764 3133.7923 -3629.764 3129.374 L -3629.764 3092.933 C -3629.764 3088.5148 -3626.182 3084.933 -3621.764 3084.933 Z" fill="#f15623"/>
        <text transform="translate(-3624.764 3101.4215)" fill="white">
          <tspan font-family="Helvetica Neue" font-size="16" fill="white" x="18.444095" y="16">Edge Gateway</tspan>
        </text>
      </g>
      <g id="Graphic_62">
        <path d="M -3226.1517 2962.1646 L -2964.7145 2962.1646 C -2960.296 2962.1646 -2956.7145 2965.7463 -2956.7145 2970.1646 L -2956.7145 3206.363 C -2956.7145 3210.7813 -2960.296 3214.363 -2964.7145 3214.363 L -3226.1517 3214.363 C -3230.57 3214.363 -3234.1517 3210.7813 -3234.1517 3206.363 L -3234.1517 2970.1646 C -3234.1517 2965.7463 -3230.57 2962.1646 -3226.1517 2962.1646 Z" fill="#ececec"/>
        <path d="M -3226.1517 2962.1646 L -2964.7145 2962.1646 C -2960.296 2962.1646 -2956.7145 2965.7463 -2956.7145 2970.1646 L -2956.7145 3206.363 C -2956.7145 3210.7813 -2960.296 3214.363 -2964.7145 3214.363 L -3226.1517 3214.363 C -3230.57 3214.363 -3234.1517 3210.7813 -3234.1517 3206.363 L -3234.1517 2970.1646 C -3234.1517 2965.7463 -3230.57 2962.1646 -3226.1517 2962.1646 Z" stroke="#f15623" stroke-linecap="round" stroke-linejoin="round" stroke-dasharray="8.0,8.0" stroke-width="2"/>
        <text transform="translate(-3229.1517 2967.1646)" fill="#f15623">
          <tspan font-family="Helvetica Neue" font-size="14" fill="#f15623" x="81.84164" y="13">Tenant: payment</tspan>
          <tspan font-family="Helvetica Neue" font-size="14" fill="#f15623" x="27.031643" y="29.392">Workspace: bookinfo-frontend-ws</tspan>
          <tspan font-family="Helvetica Neue" font-size="14" fill="#f15623" x="65.65764" y="45.783997">Network: cp-cluster-1</tspan>
        </text>
      </g>
      <g id="Graphic_61">
        <path d="M -3208.6325 3018.319 L -2982.2337 3018.319 C -2977.8155 3018.319 -2974.2337 3021.9006 -2974.2337 3026.319 L -2974.2337 3190.319 C -2974.2337 3194.737 -2977.8155 3198.319 -2982.2337 3198.319 L -3208.6325 3198.319 C -3213.0507 3198.319 -3216.6325 3194.737 -3216.6325 3190.319 L -3216.6325 3026.319 C -3216.6325 3021.9006 -3213.0507 3018.319 -3208.6325 3018.319 Z" fill="white"/>
        <path d="M -3208.6325 3018.319 L -2982.2337 3018.319 C -2977.8155 3018.319 -2974.2337 3021.9006 -2974.2337 3026.319 L -2974.2337 3190.319 C -2974.2337 3194.737 -2977.8155 3198.319 -2982.2337 3198.319 L -3208.6325 3198.319 C -3213.0507 3198.319 -3216.6325 3194.737 -3216.6325 3190.319 L -3216.6325 3026.319 C -3216.6325 3021.9006 -3213.0507 3018.319 -3208.6325 3018.319 Z" stroke="gray" stroke-linecap="round" stroke-linejoin="round" stroke-width="1"/>
        <text transform="translate(-3211.6325 3028.319)" fill="black">
          <tspan font-family="Helvetica Neue" font-size="16" fill="black" x="4.6153713" y="15">Namespace: bookinfo-frontend</tspan>
        </text>
      </g>
      <g id="Graphic_60">
        <path d="M -3177.7874 3065.0906 L -3013.0788 3065.0906 C -3008.6605 3065.0906 -3005.0788 3068.6723 -3005.0788 3073.0906 L -3005.0788 3174.7284 C -3005.0788 3179.1466 -3008.6605 3182.7284 -3013.0788 3182.7284 L -3177.7874 3182.7284 C -3182.2057 3182.7284 -3185.7874 3179.1466 -3185.7874 3174.7284 L -3185.7874 3073.0906 C -3185.7874 3068.6723 -3182.2057 3065.0906 -3177.7874 3065.0906 Z" fill="white"/>
        <path d="M -3177.7874 3065.0906 L -3013.0788 3065.0906 C -3008.6605 3065.0906 -3005.0788 3068.6723 -3005.0788 3073.0906 L -3005.0788 3174.7284 C -3005.0788 3179.1466 -3008.6605 3182.7284 -3013.0788 3182.7284 L -3177.7874 3182.7284 C -3182.2057 3182.7284 -3185.7874 3179.1466 -3185.7874 3174.7284 L -3185.7874 3073.0906 C -3185.7874 3068.6723 -3182.2057 3065.0906 -3177.7874 3065.0906 Z" stroke="gray" stroke-linecap="round" stroke-linejoin="round" stroke-dasharray="4.0,4.0" stroke-width="1"/>
        <text transform="translate(-3180.7874 3070.0906)" fill="black">
          <tspan font-family="Helvetica Neue" font-size="16" fill="black" x="18.666332" y="16">bookinfo-frontend</tspan>
        </text>
      </g>
      <g id="Graphic_59">
        <path d="M -3226.1517 3376.023 L -2964.7145 3376.023 C -2960.296 3376.023 -2956.7145 3379.6046 -2956.7145 3384.023 L -2956.7145 3620.2213 C -2956.7145 3624.6396 -2960.296 3628.2213 -2964.7145 3628.2213 L -3226.1517 3628.2213 C -3230.57 3628.2213 -3234.1517 3624.6396 -3234.1517 3620.2213 L -3234.1517 3384.023 C -3234.1517 3379.6046 -3230.57 3376.023 -3226.1517 3376.023 Z" fill="#ececec"/>
        <path d="M -3226.1517 3376.023 L -2964.7145 3376.023 C -2960.296 3376.023 -2956.7145 3379.6046 -2956.7145 3384.023 L -2956.7145 3620.2213 C -2956.7145 3624.6396 -2960.296 3628.2213 -2964.7145 3628.2213 L -3226.1517 3628.2213 C -3230.57 3628.2213 -3234.1517 3624.6396 -3234.1517 3620.2213 L -3234.1517 3384.023 C -3234.1517 3379.6046 -3230.57 3376.023 -3226.1517 3376.023 Z" stroke="#f15623" stroke-linecap="round" stroke-linejoin="round" stroke-dasharray="8.0,8.0" stroke-width="2"/>
        <text transform="translate(-3229.1517 3381.023)" fill="#f15623">
          <tspan font-family="Helvetica Neue" font-size="14" fill="#f15623" x="81.84164" y="13">Tenant: payment</tspan>
          <tspan font-family="Helvetica Neue" font-size="14" fill="#f15623" x="26.121643" y="29.392">Workspace: bookinfo-backend-ws</tspan>
          <tspan font-family="Helvetica Neue" font-size="14" fill="#f15623" x="65.65764" y="45.783997">Network: cp-cluster-2</tspan>
        </text>
      </g>
      <g id="Graphic_58">
        <path d="M -3208.6325 3432.177 L -2982.2337 3432.177 C -2977.8155 3432.177 -2974.2337 3435.759 -2974.2337 3440.177 L -2974.2337 3604.177 C -2974.2337 3608.5955 -2977.8155 3612.177 -2982.2337 3612.177 L -3208.6325 3612.177 C -3213.0507 3612.177 -3216.6325 3608.5955 -3216.6325 3604.177 L -3216.6325 3440.177 C -3216.6325 3435.759 -3213.0507 3432.177 -3208.6325 3432.177 Z" fill="white"/>
        <path d="M -3208.6325 3432.177 L -2982.2337 3432.177 C -2977.8155 3432.177 -2974.2337 3435.759 -2974.2337 3440.177 L -2974.2337 3604.177 C -2974.2337 3608.5955 -2977.8155 3612.177 -2982.2337 3612.177 L -3208.6325 3612.177 C -3213.0507 3612.177 -3216.6325 3608.5955 -3216.6325 3604.177 L -3216.6325 3440.177 C -3216.6325 3435.759 -3213.0507 3432.177 -3208.6325 3432.177 Z" stroke="gray" stroke-linecap="round" stroke-linejoin="round" stroke-width="1"/>
        <text transform="translate(-3211.6325 3442.177)" fill="black">
          <tspan font-family="Helvetica Neue" font-size="16" fill="black" x="3.5753713" y="15">Namespace: bookinfo-backend</tspan>
        </text>
      </g>
      <g id="Graphic_57">
        <path d="M -3683.2384 3376.023 L -3421.801 3376.023 C -3417.3828 3376.023 -3413.801 3379.6046 -3413.801 3384.023 L -3413.801 3620.2213 C -3413.801 3624.6396 -3417.3828 3628.2213 -3421.801 3628.2213 L -3683.2384 3628.2213 C -3687.6566 3628.2213 -3691.2384 3624.6396 -3691.2384 3620.2213 L -3691.2384 3384.023 C -3691.2384 3379.6046 -3687.6566 3376.023 -3683.2384 3376.023 Z" fill="#ececec"/>
        <path d="M -3683.2384 3376.023 L -3421.801 3376.023 C -3417.3828 3376.023 -3413.801 3379.6046 -3413.801 3384.023 L -3413.801 3620.2213 C -3413.801 3624.6396 -3417.3828 3628.2213 -3421.801 3628.2213 L -3683.2384 3628.2213 C -3687.6566 3628.2213 -3691.2384 3624.6396 -3691.2384 3620.2213 L -3691.2384 3384.023 C -3691.2384 3379.6046 -3687.6566 3376.023 -3683.2384 3376.023 Z" stroke="#f15623" stroke-linecap="round" stroke-linejoin="round" stroke-dasharray="8.0,8.0" stroke-width="2"/>
        <text transform="translate(-3686.2384 3381.023)" fill="#f15623">
          <tspan font-family="Helvetica Neue" font-size="14" fill="#f15623" x="77.95664" y="13">Tenant: marketing</tspan>
          <tspan font-family="Helvetica Neue" font-size="14" fill="#f15623" x="57.75464" y="29.392">Workspace: httpsbin-ws</tspan>
          <tspan font-family="Helvetica Neue" font-size="14" fill="#f15623" x="65.65764" y="45.783997">Network: cp-cluster-3</tspan>
        </text>
      </g>
      <g id="Graphic_56">
        <path d="M -3665.719 3432.177 L -3439.3203 3432.177 C -3434.902 3432.177 -3431.3203 3435.759 -3431.3203 3440.177 L -3431.3203 3604.177 C -3431.3203 3608.5955 -3434.902 3612.177 -3439.3203 3612.177 L -3665.719 3612.177 C -3670.1374 3612.177 -3673.719 3608.5955 -3673.719 3604.177 L -3673.719 3440.177 C -3673.719 3435.759 -3670.1374 3432.177 -3665.719 3432.177 Z" fill="white"/>
        <path d="M -3665.719 3432.177 L -3439.3203 3432.177 C -3434.902 3432.177 -3431.3203 3435.759 -3431.3203 3440.177 L -3431.3203 3604.177 C -3431.3203 3608.5955 -3434.902 3612.177 -3439.3203 3612.177 L -3665.719 3612.177 C -3670.1374 3612.177 -3673.719 3608.5955 -3673.719 3604.177 L -3673.719 3440.177 C -3673.719 3435.759 -3670.1374 3432.177 -3665.719 3432.177 Z" stroke="gray" stroke-linecap="round" stroke-linejoin="round" stroke-width="1"/>
        <text transform="translate(-3668.719 3442.177)" fill="black">
          <tspan font-family="Helvetica Neue" font-size="16" fill="black" x="43.72737" y="15">Namespace: httpbin</tspan>
        </text>
      </g>
      <g id="Graphic_55">
        <path d="M -3136.3307 3118.1103 L -3054.5355 3118.1103 C -3050.1172 3118.1103 -3046.5355 3121.692 -3046.5355 3126.1103 L -3046.5355 3149.7953 C -3046.5355 3154.2136 -3050.1172 3157.7953 -3054.5355 3157.7953 L -3136.3307 3157.7953 C -3140.749 3157.7953 -3144.3307 3154.2136 -3144.3307 3149.7953 L -3144.3307 3126.1103 C -3144.3307 3121.692 -3140.749 3118.1103 -3136.3307 3118.1103 Z" fill="#333"/>
        <text transform="translate(-3139.3307 3129.2497)" fill="white">
          <tspan font-family="Helvetica Neue" font-size="14" fill="white" x="2.4016364" y="14">productpage</tspan>
        </text>
      </g>
      <g id="Graphic_54">
        <path d="M -3187.1557 3470.486 L -3003.7105 3470.486 C -2999.2922 3470.486 -2995.7105 3474.0677 -2995.7105 3478.486 L -2995.7105 3594.297 C -2995.7105 3598.7153 -2999.2922 3602.297 -3003.7105 3602.297 L -3187.1557 3602.297 C -3191.574 3602.297 -3195.1557 3598.7153 -3195.1557 3594.297 L -3195.1557 3478.486 C -3195.1557 3474.0677 -3191.574 3470.486 -3187.1557 3470.486 Z" fill="white"/>
        <path d="M -3187.1557 3470.486 L -3003.7105 3470.486 C -2999.2922 3470.486 -2995.7105 3474.0677 -2995.7105 3478.486 L -2995.7105 3594.297 C -2995.7105 3598.7153 -2999.2922 3602.297 -3003.7105 3602.297 L -3187.1557 3602.297 C -3191.574 3602.297 -3195.1557 3598.7153 -3195.1557 3594.297 L -3195.1557 3478.486 C -3195.1557 3474.0677 -3191.574 3470.486 -3187.1557 3470.486 Z" stroke="gray" stroke-linecap="round" stroke-linejoin="round" stroke-dasharray="4.0,4.0" stroke-width="1"/>
        <text transform="translate(-3190.1557 3475.486)" fill="black">
          <tspan font-family="Helvetica Neue" font-size="16" fill="black" x="27.146588" y="16">bookinfo-backend</tspan>
        </text>
      </g>
      <g id="Graphic_53">
        <path d="M -3181.0542 3561.845 L -3140.2835 3561.845 C -3135.8652 3561.845 -3132.2835 3565.427 -3132.2835 3569.845 L -3132.2835 3581.5 C -3132.2835 3585.9183 -3135.8652 3589.5 -3140.2835 3589.5 L -3181.0542 3589.5 C -3185.4725 3589.5 -3189.0542 3585.9183 -3189.0542 3581.5 L -3189.0542 3569.845 C -3189.0542 3565.427 -3185.4725 3561.845 -3181.0542 3561.845 Z" fill="#333"/>
        <text transform="translate(-3184.0542 3569.5275)" fill="white">
          <tspan font-family="Helvetica Neue" font-size="10" fill="white" x="5.87037" y="10">reviews</tspan>
        </text>
      </g>
      <g id="Graphic_52">
        <path d="M -3107.2756 3561.845 L -3066.505 3561.845 C -3062.0866 3561.845 -3058.505 3565.427 -3058.505 3569.845 L -3058.505 3581.5 C -3058.505 3585.9183 -3062.0866 3589.5 -3066.505 3589.5 L -3107.2756 3589.5 C -3111.694 3589.5 -3115.2756 3585.9183 -3115.2756 3581.5 L -3115.2756 3569.845 C -3115.2756 3565.427 -3111.694 3561.845 -3107.2756 3561.845 Z" fill="#333"/>
        <text transform="translate(-3110.2756 3569.5275)" fill="white">
          <tspan font-family="Helvetica Neue" font-size="10" fill="white" x="8.10037" y="10">details</tspan>
        </text>
      </g>
      <g id="Graphic_51">
        <path d="M -3181.0542 3500.492 L -3140.2835 3500.492 C -3135.8652 3500.492 -3132.2835 3504.0737 -3132.2835 3508.492 L -3132.2835 3520.147 C -3132.2835 3524.5652 -3135.8652 3528.147 -3140.2835 3528.147 L -3181.0542 3528.147 C -3185.4725 3528.147 -3189.0542 3524.5652 -3189.0542 3520.147 L -3189.0542 3508.492 C -3189.0542 3504.0737 -3185.4725 3500.492 -3181.0542 3500.492 Z" fill="#333"/>
        <text transform="translate(-3184.0542 3508.1744)" fill="white">
          <tspan font-family="Helvetica Neue" font-size="10" fill="white" x="7.54537" y="10">ratings</tspan>
        </text>
      </g>
      <g id="Graphic_50">
        <path d="M -3634.874 3477.5726 L -3470.1654 3477.5726 C -3465.747 3477.5726 -3462.1654 3481.1544 -3462.1654 3485.5726 L -3462.1654 3587.2104 C -3462.1654 3591.6287 -3465.747 3595.2104 -3470.1654 3595.2104 L -3634.874 3595.2104 C -3639.2923 3595.2104 -3642.874 3591.6287 -3642.874 3587.2104 L -3642.874 3485.5726 C -3642.874 3481.1544 -3639.2923 3477.5726 -3634.874 3477.5726 Z" fill="white"/>
        <path d="M -3634.874 3477.5726 L -3470.1654 3477.5726 C -3465.747 3477.5726 -3462.1654 3481.1544 -3462.1654 3485.5726 L -3462.1654 3587.2104 C -3462.1654 3591.6287 -3465.747 3595.2104 -3470.1654 3595.2104 L -3634.874 3595.2104 C -3639.2923 3595.2104 -3642.874 3591.6287 -3642.874 3587.2104 L -3642.874 3485.5726 C -3642.874 3481.1544 -3639.2923 3477.5726 -3634.874 3477.5726 Z" stroke="gray" stroke-linecap="round" stroke-linejoin="round" stroke-dasharray="4.0,4.0" stroke-width="1"/>
        <text transform="translate(-3637.874 3482.5726)" fill="black">
          <tspan font-family="Helvetica Neue" font-size="16" fill="black" x="59.13833" y="16">httpbin</tspan>
        </text>
      </g>
      <g id="Graphic_49">
        <path d="M -3583.8754 3516.549 L -3521.164 3516.549 C -3516.7458 3516.549 -3513.164 3520.1307 -3513.164 3524.549 L -3513.164 3548.234 C -3513.164 3552.6523 -3516.7458 3556.234 -3521.164 3556.234 L -3583.8754 3556.234 C -3588.2937 3556.234 -3591.8754 3552.6523 -3591.8754 3548.234 L -3591.8754 3524.549 C -3591.8754 3520.1307 -3588.2937 3516.549 -3583.8754 3516.549 Z" fill="#333"/>
        <text transform="translate(-3586.8754 3526.6595)" fill="white">
          <tspan font-family="Helvetica Neue" font-size="16" fill="white" x="8.139682" y="16">httpbin</tspan>
        </text>
      </g>
      <g id="Group_46">
        <g id="Graphic_48">
          <path d="M -3037.497 3549.815 L -3005.812 3549.815 C -3003.603 3549.815 -3001.812 3551.606 -3001.812 3553.815 L -3001.812 3585.5 C -3001.812 3587.709 -3003.603 3589.5 -3005.812 3589.5 L -3037.497 3589.5 C -3039.706 3589.5 -3041.497 3587.709 -3041.497 3585.5 L -3041.497 3553.815 C -3041.497 3551.606 -3039.706 3549.815 -3037.497 3549.815 Z" fill="#f15623"/>
        </g>
        <g id="Graphic_47">
          <path d="M -3024.567 3584.6466 C -3026.94 3582.2646 -3027.2898 3581.8864 -3027.33 3581.6597 C -3027.4706 3580.8707 -3026.807 3580.2374 -3025.9985 3580.389 C -3025.7787 3580.4304 -3025.515 3580.6596 -3024.296 3581.87 L -3022.8537 3583.3018 L -3022.8537 3575.002 L -3022.8537 3566.702 L -3026.954 3570.8014 L -3031.054 3574.901 L -3029.0907 3574.9357 C -3027.1674 3574.9697 -3027.1217 3574.974 -3026.8584 3575.1375 C -3026.5755 3575.3134 -3026.331 3575.735 -3026.331 3576.0475 C -3026.331 3576.36 -3026.5755 3576.7816 -3026.8584 3576.9575 L -3027.1272 3577.1246 L -3030.949 3577.1246 L -3034.771 3577.1246 L -3034.771 3573.2557 C -3034.771 3569.4565 -3034.7684 3569.3833 -3034.6276 3569.195 C -3034.358 3568.8336 -3034.1323 3568.7165 -3033.706 3568.7165 C -3033.4093 3568.7165 -3033.258 3568.755 -3033.0944 3568.8715 C -3032.6717 3569.173 -3032.6515 3569.2915 -3032.6515 3571.4716 L -3032.6515 3573.4413 L -3027.7526 3568.543 L -3022.8537 3563.6443 L -3022.8537 3561.088 L -3022.8537 3558.5316 L -3023.149 3558.404 C -3023.7215 3558.157 -3024.3696 3557.5777 -3024.7112 3557.008 C -3025.1734 3556.237 -3025.2844 3555.078 -3024.979 3554.213 C -3024.2896 3552.2594 -3021.999 3551.363 -3020.1846 3552.337 C -3019.722 3552.5854 -3019.015 3553.2953 -3018.7918 3553.7358 C -3017.938 3555.4205 -3018.5626 3557.421 -3020.213 3558.2885 L -3020.6996 3558.544 L -3020.6996 3561.0942 L -3020.6996 3563.6443 L -3015.6965 3568.647 L -3010.6934 3573.65 L -3010.6934 3571.575 C -3010.6934 3569.59 -3010.687 3569.4884 -3010.5462 3569.238 C -3010.2535 3568.717 -3009.555 3568.5262 -3009.0897 3568.84 C -3008.9607 3568.9267 -3008.784 3569.1037 -3008.6967 3569.233 L -3008.538 3569.4684 L -3008.556 3573.2965 L -3008.574 3577.1246 L -3012.1526 3577.145 C -3014.121 3577.156 -3015.8666 3577.146 -3016.032 3577.1224 C -3016.2403 3577.093 -3016.4163 3577.004 -3016.6046 3576.834 C -3017.2076 3576.2893 -3017.0884 3575.558 -3016.3043 3574.993 C -3016.295 3574.986 -3015.435 3574.9625 -3014.3932 3574.9407 L -3012.4993 3574.901 L -3016.5994 3570.8014 L -3020.6996 3566.702 L -3020.6996 3574.97 L -3020.6996 3583.238 L -3019.3273 3581.87 C -3018.5724 3581.117 -3017.867 3580.4686 -3017.7593 3580.4286 C -3017.291 3580.2543 -3016.763 3580.4245 -3016.4783 3580.842 C -3016.286 3581.124 -3016.264 3581.6963 -3016.4355 3581.956 C -3016.558 3582.1413 -3021.7517 3587.374 -3021.813 3587.374 C -3021.8335 3587.374 -3023.0728 3586.1467 -3024.567 3584.6466 Z" fill="white"/>
        </g>
      </g>
      <g id="Line_45">
        <path d="M -3019.669 3549.815 C -3019.9197 3540.2406 -3022.1698 3529.2636 -3029.7624 3521.9023 C -3030.123 3521.5527 -3030.4917 3521.215 -3030.8683 3520.8887" marker-end="url(#FilledArrow_Marker)" stroke="black" stroke-linecap="round" stroke-linejoin="round" stroke-width="2"/>
      </g>
      <g id="Graphic_44">
        <title>Account Box</title>
        <path d="M -3782.8347 3274.6024 L -3782.8347 3312.5236 C -3782.8347 3315.503 -3780.424 3317.941 -3777.4174 3317.941 L -3739.496 3317.941 C -3736.5166 3317.941 -3734.0788 3315.503 -3734.0788 3312.5236 L -3734.0788 3274.6024 C -3734.0788 3271.623 -3736.5166 3269.185 -3739.496 3269.185 L -3777.4174 3269.185 C -3780.424 3269.185 -3782.8347 3271.623 -3782.8347 3274.6024 Z M -3750.3307 3285.437 C -3750.3307 3289.9334 -3753.9603 3293.563 -3758.4567 3293.563 C -3762.953 3293.563 -3766.5827 3289.9334 -3766.5827 3285.437 C -3766.5827 3280.9406 -3762.953 3277.311 -3758.4567 3277.311 C -3753.9603 3277.311 -3750.3307 3280.9406 -3750.3307 3285.437 Z M -3774.7087 3307.1063 C -3774.7087 3301.689 -3763.874 3298.7095 -3758.4567 3298.7095 C -3753.0394 3298.7095 -3742.2048 3301.689 -3742.2048 3307.1063 L -3742.2048 3309.815 L -3774.7087 3309.815 L -3774.7087 3307.1063 Z" fill="black"/>
      </g>
      <g id="Line_43">
        <path d="M -3734.0788 3285.919 C -3711.2637 3277.331 -3675.502 3260.3147 -3640.2825 3229.119 C -3610.113 3202.3963 -3587.6776 3171.767 -3573.045 3148.4166" marker-end="url(#FilledArrow_Marker)" stroke="black" stroke-linecap="round" stroke-linejoin="round" stroke-width="2"/>
      </g>
      <g id="Group_40">
        <g id="Graphic_42">
          <path d="M -3707.6043 2935.6415 L -3715.743 2921.544 C -3716.3797 2920.4408 -3716.3797 2919.082 -3715.743 2917.9788 L -3707.6043 2903.8812 C -3706.9675 2902.778 -3705.7905 2902.0984 -3704.5166 2902.0984 L -3688.2394 2902.0984 C -3686.9657 2902.0984 -3685.789 2902.778 -3685.1517 2903.8812 L -3677.013 2917.9788 C -3676.3763 2919.082 -3676.3763 2920.4408 -3677.013 2921.544 L -3685.1517 2935.6415 C -3685.7885 2936.7447 -3686.9654 2937.424 -3688.2394 2937.424 L -3704.5166 2937.424 C -3705.7902 2937.424 -3706.967 2936.7444 -3707.604 2935.6415" fill="url(#Obj_Gradient)"/>
        </g>
        <g id="Graphic_41">
          <path d="M -3688.6176 2914.7984 L -3695.958 2910.56 C -3696.217 2910.4107 -3696.536 2910.4107 -3696.795 2910.56 L -3704.1355 2914.7984 C -3704.3944 2914.9478 -3704.554 2915.224 -3704.554 2915.523 L -3704.554 2923.999 C -3704.554 2924.298 -3704.3944 2924.5743 -3704.1355 2924.7237 L -3696.795 2928.962 C -3696.536 2929.1114 -3696.217 2929.1114 -3695.958 2928.962 L -3688.6176 2924.7237 C -3688.3588 2924.5743 -3688.1994 2924.298 -3688.1994 2923.999 L -3688.1994 2915.523 C -3688.1994 2915.224 -3688.3588 2914.9478 -3688.6176 2914.7984 M -3689.6247 2923.188 L -3692.1856 2921.7095 L -3692.1856 2917.8145 L -3695.9675 2919.997 L -3695.9675 2924.3656 L -3692.5945 2922.4183 L -3690.0336 2923.897 L -3696.3767 2927.559 L -3702.72 2923.897 L -3700.159 2922.4183 L -3696.7857 2924.3656 L -3696.7857 2919.997 L -3700.5676 2917.8145 L -3700.5676 2921.7095 L -3703.1285 2923.188 L -3703.1285 2915.8637 L -3696.7854 2912.2015 L -3696.7854 2915.1586 L -3700.1586 2917.106 L -3696.3767 2919.2887 L -3692.595 2917.106 L -3695.968 2915.1586 L -3695.968 2912.2015 L -3689.6247 2915.8637 L -3689.6247 2923.188" fill="white"/>
        </g>
      </g>
      <g id="Group_37">
        <g id="Graphic_39">
          <path d="M -3251.2263 2935.6415 L -3259.365 2921.544 C -3260.0018 2920.4408 -3260.0018 2919.082 -3259.365 2917.9788 L -3251.2263 2903.8812 C -3250.5895 2902.778 -3249.4126 2902.0984 -3248.1386 2902.0984 L -3231.8614 2902.0984 C -3230.5878 2902.0984 -3229.411 2902.778 -3228.7737 2903.8812 L -3220.635 2917.9788 C -3219.9983 2919.082 -3219.9983 2920.4408 -3220.635 2921.544 L -3228.7737 2935.6415 C -3229.4106 2936.7447 -3230.5875 2937.424 -3231.8614 2937.424 L -3248.1386 2937.424 C -3249.4123 2937.424 -3250.5892 2936.7444 -3251.226 2935.6415" fill="url(#Obj_Gradient_2)"/>
        </g>
        <g id="Graphic_38">
          <path d="M -3232.2397 2914.7984 L -3239.5802 2910.56 C -3239.839 2910.4107 -3240.158 2910.4107 -3240.417 2910.56 L -3247.7576 2914.7984 C -3248.0165 2914.9478 -3248.176 2915.224 -3248.176 2915.523 L -3248.176 2923.999 C -3248.176 2924.298 -3248.0165 2924.5743 -3247.7576 2924.7237 L -3240.417 2928.962 C -3240.158 2929.1114 -3239.839 2929.1114 -3239.5802 2928.962 L -3232.2397 2924.7237 C -3231.9808 2924.5743 -3231.8214 2924.298 -3231.8214 2923.999 L -3231.8214 2915.523 C -3231.8214 2915.224 -3231.9808 2914.9478 -3232.2397 2914.7984 M -3233.2467 2923.188 L -3235.8076 2921.7095 L -3235.8076 2917.8145 L -3239.5895 2919.997 L -3239.5895 2924.3656 L -3236.2166 2922.4183 L -3233.6556 2923.897 L -3239.9988 2927.559 L -3246.342 2923.897 L -3243.781 2922.4183 L -3240.4077 2924.3656 L -3240.4077 2919.997 L -3244.1896 2917.8145 L -3244.1896 2921.7095 L -3246.7506 2923.188 L -3246.7506 2915.8637 L -3240.4074 2912.2015 L -3240.4074 2915.1586 L -3243.7807 2917.106 L -3239.9988 2919.2887 L -3236.217 2917.106 L -3239.59 2915.1586 L -3239.59 2912.2015 L -3233.2467 2915.8637 L -3233.2467 2923.188" fill="white"/>
        </g>
      </g>
      <g id="Group_34">
        <g id="Graphic_36">
          <path d="M -3707.6043 3353.91 L -3715.743 3339.8125 C -3716.3797 3338.7094 -3716.3797 3337.3504 -3715.743 3336.2473 L -3707.6043 3322.1497 C -3706.9675 3321.0466 -3705.7905 3320.367 -3704.5166 3320.367 L -3688.2394 3320.367 C -3686.9657 3320.367 -3685.789 3321.0466 -3685.1517 3322.1497 L -3677.013 3336.2473 C -3676.3763 3337.3504 -3676.3763 3338.7094 -3677.013 3339.8125 L -3685.1517 3353.91 C -3685.7885 3355.0132 -3686.9654 3355.6925 -3688.2394 3355.6925 L -3704.5166 3355.6925 C -3705.7902 3355.6925 -3706.967 3355.013 -3707.604 3353.91" fill="url(#Obj_Gradient_3)"/>
        </g>
        <g id="Graphic_35">
          <path d="M -3688.6176 3333.067 L -3695.958 3328.8286 C -3696.217 3328.679 -3696.536 3328.679 -3696.795 3328.8286 L -3704.1355 3333.067 C -3704.3944 3333.2163 -3704.554 3333.4926 -3704.554 3333.7915 L -3704.554 3342.2677 C -3704.554 3342.5666 -3704.3944 3342.843 -3704.1355 3342.9923 L -3696.795 3347.2305 C -3696.536 3347.38 -3696.217 3347.38 -3695.958 3347.2305 L -3688.6176 3342.9923 C -3688.3588 3342.843 -3688.1994 3342.5666 -3688.1994 3342.2677 L -3688.1994 3333.7915 C -3688.1994 3333.4926 -3688.3588 3333.2163 -3688.6176 3333.067 M -3689.6247 3341.4566 L -3692.1856 3339.978 L -3692.1856 3336.083 L -3695.9675 3338.2657 L -3695.9675 3342.634 L -3692.5945 3340.687 L -3690.0336 3342.1654 L -3696.3767 3345.8276 L -3702.72 3342.1654 L -3700.159 3340.687 L -3696.7857 3342.634 L -3696.7857 3338.2657 L -3700.5676 3336.083 L -3700.5676 3339.978 L -3703.1285 3341.4566 L -3703.1285 3334.1322 L -3696.7854 3330.47 L -3696.7854 3333.427 L -3700.1586 3335.3745 L -3696.3767 3337.5572 L -3692.595 3335.3745 L -3695.968 3333.427 L -3695.968 3330.47 L -3689.6247 3334.1322 L -3689.6247 3341.4566" fill="white"/>
        </g>
      </g>
      <g id="Group_31">
        <g id="Graphic_33">
          <path d="M -3251.2263 3353.91 L -3259.365 3339.8125 C -3260.0018 3338.7094 -3260.0018 3337.3504 -3259.365 3336.2473 L -3251.2263 3322.1497 C -3250.5895 3321.0466 -3249.4126 3320.367 -3248.1386 3320.367 L -3231.8614 3320.367 C -3230.5878 3320.367 -3229.411 3321.0466 -3228.7737 3322.1497 L -3220.635 3336.2473 C -3219.9983 3337.3504 -3219.9983 3338.7094 -3220.635 3339.8125 L -3228.7737 3353.91 C -3229.4106 3355.0132 -3230.5875 3355.6925 -3231.8614 3355.6925 L -3248.1386 3355.6925 C -3249.4123 3355.6925 -3250.5892 3355.013 -3251.226 3353.91" fill="url(#Obj_Gradient_4)"/>
        </g>
        <g id="Graphic_32">
          <path d="M -3232.2397 3333.067 L -3239.5802 3328.8286 C -3239.839 3328.679 -3240.158 3328.679 -3240.417 3328.8286 L -3247.7576 3333.067 C -3248.0165 3333.2163 -3248.176 3333.4926 -3248.176 3333.7915 L -3248.176 3342.2677 C -3248.176 3342.5666 -3248.0165 3342.843 -3247.7576 3342.9923 L -3240.417 3347.2305 C -3240.158 3347.38 -3239.839 3347.38 -3239.5802 3347.2305 L -3232.2397 3342.9923 C -3231.9808 3342.843 -3231.8214 3342.5666 -3231.8214 3342.2677 L -3231.8214 3333.7915 C -3231.8214 3333.4926 -3231.9808 3333.2163 -3232.2397 3333.067 M -3233.2467 3341.4566 L -3235.8076 3339.978 L -3235.8076 3336.083 L -3239.5895 3338.2657 L -3239.5895 3342.634 L -3236.2166 3340.687 L -3233.6556 3342.1654 L -3239.9988 3345.8276 L -3246.342 3342.1654 L -3243.781 3340.687 L -3240.4077 3342.634 L -3240.4077 3338.2657 L -3244.1896 3336.083 L -3244.1896 3339.978 L -3246.7506 3341.4566 L -3246.7506 3334.1322 L -3240.4074 3330.47 L -3240.4074 3333.427 L -3243.7807 3335.3745 L -3239.9988 3337.5572 L -3236.217 3335.3745 L -3239.59 3333.427 L -3239.59 3330.47 L -3233.2467 3334.1322 L -3233.2467 3341.4566" fill="white"/>
        </g>
      </g>
      <g id="Line_30">
        <path d="M -3518.339 3137.374 C -3476.5754 3172.581 -3404.4085 3243.7796 -3347.136 3354.204 C -3261.2074 3519.8776 -3341.423 3634.904 -3249.2126 3695.943 C -3180.7022 3741.2937 -3088.3794 3649.5435 -3045.4473 3599.384" marker-end="url(#FilledArrow_Marker)" stroke="black" stroke-linecap="round" stroke-linejoin="round" stroke-width="2"/>
      </g>
      <g id="Graphic_29">
        <text transform="translate(-3780.6807 3322.941)" fill="black">
          <tspan font-family="Helvetica Neue" font-weight="bold" font-size="16" fill="black" x="15987212e-20" y="16">Users</tspan>
        </text>
      </g>
      <g id="Group_8">
        <g id="Graphic_28">
          <path d="M -2868.0312 3554.9874 L -2818.8496 3554.9874 C -2814.4313 3554.9874 -2810.8496 3558.569 -2810.8496 3562.9874 L -2810.8496 3570.0344 C -2810.8496 3574.4526 -2814.4313 3578.0344 -2818.8496 3578.0344 L -2868.0312 3578.0344 C -2872.4495 3578.0344 -2876.0312 3574.4526 -2876.0312 3570.0344 L -2876.0312 3562.9874 C -2876.0312 3558.569 -2872.4495 3554.9874 -2868.0312 3554.9874 Z" fill="white"/>
          <path d="M -2868.0312 3554.9874 L -2818.8496 3554.9874 C -2814.4313 3554.9874 -2810.8496 3558.569 -2810.8496 3562.9874 L -2810.8496 3570.0344 C -2810.8496 3574.4526 -2814.4313 3578.0344 -2818.8496 3578.0344 L -2868.0312 3578.0344 C -2872.4495 3578.0344 -2876.0312 3574.4526 -2876.0312 3570.0344 L -2876.0312 3562.9874 C -2876.0312 3558.569 -2872.4495 3554.9874 -2868.0312 3554.9874 Z" stroke="gray" stroke-linecap="round" stroke-linejoin="round" stroke-dasharray="4.0,4.0" stroke-width="1"/>
        </g>
        <g id="Graphic_27">
          <text transform="translate(-2799.5334 3556.2534)" fill="black">
            <tspan font-family="Helvetica Neue" font-size="16" fill="black" x="0" y="15">Application</tspan>
          </text>
        </g>
        <g id="Graphic_26">
          <path d="M -2868.0312 3492.221 L -2818.8496 3492.221 C -2814.4313 3492.221 -2810.8496 3495.803 -2810.8496 3500.221 L -2810.8496 3507.268 C -2810.8496 3511.6864 -2814.4313 3515.268 -2818.8496 3515.268 L -2868.0312 3515.268 C -2872.4495 3515.268 -2876.0312 3511.6864 -2876.0312 3507.268 L -2876.0312 3500.221 C -2876.0312 3495.803 -2872.4495 3492.221 -2868.0312 3492.221 Z" fill="#ececec"/>
          <path d="M -2868.0312 3492.221 L -2818.8496 3492.221 C -2814.4313 3492.221 -2810.8496 3495.803 -2810.8496 3500.221 L -2810.8496 3507.268 C -2810.8496 3511.6864 -2814.4313 3515.268 -2818.8496 3515.268 L -2868.0312 3515.268 C -2872.4495 3515.268 -2876.0312 3511.6864 -2876.0312 3507.268 L -2876.0312 3500.221 C -2876.0312 3495.803 -2872.4495 3492.221 -2868.0312 3492.221 Z" stroke="#f15623" stroke-linecap="round" stroke-linejoin="round" stroke-dasharray="8.0,8.0" stroke-width="2"/>
        </g>
        <g id="Graphic_25">
          <text transform="translate(-2799.5334 3494.2934)" fill="black">
            <tspan font-family="Helvetica Neue" font-size="16" fill="black" x="0" y="15">TSB Configuration</tspan>
          </text>
        </g>
        <g id="Graphic_24">
          <path d="M -2868.0312 3524.0946 L -2818.8496 3524.0946 C -2814.4313 3524.0946 -2810.8496 3527.6764 -2810.8496 3532.0946 L -2810.8496 3539.1416 C -2810.8496 3543.56 -2814.4313 3547.1416 -2818.8496 3547.1416 L -2868.0312 3547.1416 C -2872.4495 3547.1416 -2876.0312 3543.56 -2876.0312 3539.1416 L -2876.0312 3532.0946 C -2876.0312 3527.6764 -2872.4495 3524.0946 -2868.0312 3524.0946 Z" fill="white"/>
          <path d="M -2868.0312 3524.0946 L -2818.8496 3524.0946 C -2814.4313 3524.0946 -2810.8496 3527.6764 -2810.8496 3532.0946 L -2810.8496 3539.1416 C -2810.8496 3543.56 -2814.4313 3547.1416 -2818.8496 3547.1416 L -2868.0312 3547.1416 C -2872.4495 3547.1416 -2876.0312 3543.56 -2876.0312 3539.1416 L -2876.0312 3532.0946 C -2876.0312 3527.6764 -2872.4495 3524.0946 -2868.0312 3524.0946 Z" stroke="gray" stroke-linecap="round" stroke-linejoin="round" stroke-width="1"/>
        </g>
        <g id="Graphic_23">
          <text transform="translate(-2799.5334 3525.2734)" fill="black">
            <tspan font-family="Helvetica Neue" font-size="16" fill="black" x="0" y="15">Namespace</tspan>
          </text>
        </g>
        <g id="Graphic_22">
          <text transform="translate(-2799.5334 3615.4097)" fill="black">
            <tspan font-family="Helvetica Neue" font-size="16" fill="black" x="0" y="15">Traffic Route</tspan>
          </text>
        </g>
        <g id="Line_21">
          <line x1="-2876.292" y1="3624.3435" x2="-2823.4888" y2="3624.1706" marker-end="url(#FilledArrow_Marker)" stroke="black" stroke-linecap="round" stroke-linejoin="round" stroke-width="2"/>
        </g>
        <g id="Graphic_20">
          <path d="M -2868.0312 3585.88 L -2818.8496 3585.88 C -2814.4313 3585.88 -2810.8496 3589.462 -2810.8496 3593.88 L -2810.8496 3600.4368 C -2810.8496 3604.855 -2814.4313 3608.4368 -2818.8496 3608.4368 L -2868.0312 3608.4368 C -2872.4495 3608.4368 -2876.0312 3604.855 -2876.0312 3600.4368 L -2876.0312 3593.88 C -2876.0312 3589.462 -2872.4495 3585.88 -2868.0312 3585.88 Z" fill="#333"/>
        </g>
        <g id="Graphic_19">
          <text transform="translate(-2799.5334 3587.9344)" fill="black">
            <tspan font-family="Helvetica Neue" font-size="16" fill="black" x="0" y="15">Service</tspan>
          </text>
        </g>
        <g id="Graphic_18">
          <path d="M -2868.0312 3460.3477 L -2818.8496 3460.3477 C -2814.4313 3460.3477 -2810.8496 3463.9294 -2810.8496 3468.3477 L -2810.8496 3475.3947 C -2810.8496 3479.813 -2814.4313 3483.3947 -2818.8496 3483.3947 L -2868.0312 3483.3947 C -2872.4495 3483.3947 -2876.0312 3479.813 -2876.0312 3475.3947 L -2876.0312 3468.3477 C -2876.0312 3463.9294 -2872.4495 3460.3477 -2868.0312 3460.3477 Z" fill="#ccc"/>
        </g>
        <g id="Graphic_17">
          <text transform="translate(-2799.5334 3463.643)" fill="black">
            <tspan font-family="Helvetica Neue" font-size="16" fill="black" x="0" y="15">Cluster</tspan>
          </text>
        </g>
        <g id="Graphic_16">
          <text transform="translate(-2871.292 3365.6106)" fill="black">
            <tspan font-family="Helvetica Neue" font-weight="bold" font-size="16" fill="black" x="0" y="16">Legend</tspan>
          </text>
        </g>
        <g id="Group_13">
          <g id="Graphic_15">
            <path d="M -2850.7187 3394 L -2836.162 3394 C -2833.953 3394 -2832.162 3395.7908 -2832.162 3398 L -2832.162 3412.5565 C -2832.162 3414.7657 -2833.953 3416.5565 -2836.162 3416.5565 L -2850.7187 3416.5565 C -2852.928 3416.5565 -2854.7187 3414.7657 -2854.7187 3412.5565 L -2854.7187 3398 C -2854.7187 3395.7908 -2852.928 3394 -2850.7187 3394 Z" fill="#f15623"/>
          </g>
          <g id="Graphic_14">
            <path d="M -2845.096 3413.798 C -2846.4446 3412.444 -2846.6435 3412.229 -2846.6664 3412.1 C -2846.7463 3411.6517 -2846.369 3411.2918 -2845.9095 3411.378 C -2845.7846 3411.4014 -2845.6348 3411.5317 -2844.942 3412.2196 L -2844.122 3413.0335 L -2844.122 3408.316 L -2844.122 3403.5983 L -2846.4526 3405.9284 L -2848.783 3408.2586 L -2847.667 3408.2783 C -2846.574 3408.2977 -2846.548 3408.3 -2846.3983 3408.393 C -2846.2375 3408.493 -2846.0986 3408.7327 -2846.0986 3408.9103 C -2846.0986 3409.088 -2846.2375 3409.3275 -2846.3983 3409.4275 L -2846.551 3409.5225 L -2848.7234 3409.5225 L -2850.8957 3409.5225 L -2850.8957 3407.3234 C -2850.8957 3405.164 -2850.8942 3405.1224 -2850.8142 3405.0153 C -2850.661 3404.81 -2850.5327 3404.7434 -2850.2905 3404.7434 C -2850.1218 3404.7434 -2850.0357 3404.7652 -2849.9428 3404.8315 C -2849.7025 3405.003 -2849.691 3405.0702 -2849.691 3406.3094 L -2849.691 3407.429 L -2846.9065 3404.6447 L -2844.122 3401.8604 L -2844.122 3400.4074 L -2844.122 3398.9544 L -2844.29 3398.882 C -2844.6153 3398.7415 -2844.9837 3398.412 -2845.178 3398.0883 C -2845.4405 3397.65 -2845.5036 3396.9915 -2845.33 3396.4997 C -2844.9382 3395.3893 -2843.6362 3394.88 -2842.605 3395.4335 C -2842.342 3395.5746 -2841.94 3395.978 -2841.8133 3396.2285 C -2841.328 3397.186 -2841.683 3398.3232 -2842.621 3398.816 L -2842.8977 3398.9615 L -2842.8977 3400.411 L -2842.8977 3401.8604 L -2840.054 3404.704 L -2837.2102 3407.5474 L -2837.2102 3406.368 C -2837.2102 3405.24 -2837.2066 3405.182 -2837.1266 3405.0398 C -2836.9602 3404.7438 -2836.5632 3404.6352 -2836.2987 3404.8135 C -2836.2254 3404.863 -2836.125 3404.9635 -2836.0753 3405.037 L -2835.9852 3405.1708 L -2835.9954 3407.3466 L -2836.0056 3409.5225 L -2838.0397 3409.534 C -2839.1584 3409.5403 -2840.1506 3409.5346 -2840.2446 3409.5212 C -2840.363 3409.5044 -2840.463 3409.454 -2840.57 3409.3573 C -2840.913 3409.0477 -2840.845 3408.632 -2840.3994 3408.3108 C -2840.394 3408.307 -2839.9053 3408.2936 -2839.3132 3408.281 L -2838.2367 3408.2586 L -2840.5672 3405.9284 L -2842.8977 3403.5983 L -2842.8977 3408.298 L -2842.8977 3412.9974 L -2842.1176 3412.2196 C -2841.6886 3411.792 -2841.2876 3411.423 -2841.2264 3411.4004 C -2840.9603 3411.3014 -2840.6602 3411.398 -2840.4983 3411.6355 C -2840.389 3411.7957 -2840.3765 3412.121 -2840.474 3412.2685 C -2840.5437 3412.374 -2843.4957 3415.348 -2843.5306 3415.348 C -2843.5422 3415.348 -2844.2466 3414.6505 -2845.096 3413.798 Z" fill="white"/>
          </g>
        </g>
        <g id="Graphic_12">
          <text transform="translate(-2799.5334 3396.0542)" fill="black">
            <tspan font-family="Helvetica Neue" font-size="16" fill="black" x="0" y="15">Ingress Gateway</tspan>
          </text>
        </g>
        <g id="Graphic_11">
          <path d="M -2868.0312 3425.8788 L -2818.8496 3425.8788 C -2814.4313 3425.8788 -2810.8496 3429.4605 -2810.8496 3433.8788 L -2810.8496 3443.0255 C -2810.8496 3447.4437 -2814.4313 3451.0255 -2818.8496 3451.0255 L -2868.0312 3451.0255 C -2872.4495 3451.0255 -2876.0312 3447.4437 -2876.0312 3443.0255 L -2876.0312 3433.8788 C -2876.0312 3429.4605 -2872.4495 3425.8788 -2868.0312 3425.8788 Z" fill="#f15623"/>
        </g>
        <g id="Graphic_10">
          <text transform="translate(-2799.5334 3429.228)" fill="black">
            <tspan font-family="Helvetica Neue" font-size="16" fill="black" x="0" y="15">TSB Component</tspan>
          </text>
        </g>
        <g id="Graphic_9">
          <rect x="-2881.4173" y="3358.5216" width="222.5197" height="286.254" stroke="gray" stroke-linecap="round" stroke-linejoin="round" stroke-width="1"/>
        </g>
      </g>
      <g id="Graphic_7">
        <rect x="-3752.2547" y="3232.9134" width="228.94" height="24.335999" fill="white"/>
        <text transform="translate(-3747.2547 3237.9134)" fill="black">
          <tspan font-family="Helvetica Neue" font-style="italic" font-size="12" fill="black" x="1.668" y="11">1. http://bookinfo.tetrate.io/productpage </tspan>
        </text>
      </g>
      <g id="Line_6">
        <line x1="-3160.669" y1="3561.845" x2="-3160.669" y2="3541.047" marker-end="url(#FilledArrow_Marker)" stroke="black" stroke-linecap="round" stroke-linejoin="round" stroke-width="2"/>
      </g>
      <g id="Graphic_5">
        <rect x="-3502.9737" y="3273.805" width="231.376" height="24.335999" fill="white"/>
        <text transform="translate(-3497.9737 3278.805)" fill="black">
          <tspan font-family="Helvetica Neue" font-style="italic" font-size="12" fill="black" x="11368684e-20" y="11">2. https://bookinfo.tetrate.io/productpage</tspan>
        </text>
      </g>
      <g id="Graphic_3">
        <path d="M -3107.2756 3500.492 L -3050.1876 3500.492 C -3045.7693 3500.492 -3042.1876 3504.0737 -3042.1876 3508.492 L -3042.1876 3520.147 C -3042.1876 3524.5652 -3045.7693 3528.147 -3050.1876 3528.147 L -3107.2756 3528.147 C -3111.694 3528.147 -3115.2756 3524.5652 -3115.2756 3520.147 L -3115.2756 3508.492 C -3115.2756 3504.0737 -3111.694 3500.492 -3107.2756 3500.492 Z" fill="#333"/>
        <text transform="translate(-3110.2756 3508.1744)" fill="white">
          <tspan font-family="Helvetica Neue" font-size="10" fill="white" x="1.9040006" y="10">productpage</tspan>
        </text>
      </g>
      <g id="Line_2">
        <path d="M -3080.8453 3528.147 C -3083.3108 3531.8408 -3087.4435 3536.238 -3094.1964 3541.2946 C -3102.258 3547.331 -3112.737 3553.3207 -3122.982 3558.5683" marker-end="url(#FilledArrow_Marker)" stroke="black" stroke-linecap="round" stroke-linejoin="round" stroke-width="2"/>
      </g>
      <g id="Line_71">
        <line x1="-3080.5704" y1="3528.147" x2="-3083.351" y2="3549.0577" marker-end="url(#FilledArrow_Marker)" stroke="black" stroke-linecap="round" stroke-linejoin="round" stroke-width="2"/>
      </g>
    </g>
  </g>
</svg>
