<?xml version="1.0" encoding="UTF-8" standalone="no"?>
<!DOCTYPE svg PUBLIC "-//W3C//DTD SVG 1.1//EN" "http://www.w3.org/Graphics/SVG/1.1/DTD/svg11.dtd">
<svg xmlns="http://www.w3.org/2000/svg" xmlns:xl="http://www.w3.org/1999/xlink" xmlns:dc="http://purl.org/dc/elements/1.1/" version="1.1" viewBox="177 3214 1120 612" width="1120" height="612">
  <defs>
    <marker orient="auto" overflow="visible" markerUnits="strokeWidth" id="FilledArrow_Marker" stroke-linejoin="miter" stroke-miterlimit="10" viewBox="-1 -4 10 8" markerWidth="10" markerHeight="8" color="black">
      <g>
        <path d="M 8 0 L 0 -3 L 0 3 Z" fill="currentColor" stroke="currentColor" stroke-width="1"/>
      </g>
    </marker>
    <marker orient="auto" overflow="visible" markerUnits="strokeWidth" id="FilledArrow_Marker_2" stroke-linejoin="miter" stroke-miterlimit="10" viewBox="-9 -4 10 8" markerWidth="10" markerHeight="8" color="black">
      <g>
        <path d="M -8 0 L 0 3 L 0 -3 Z" fill="currentColor" stroke="currentColor" stroke-width="1"/>
      </g>
    </marker>
  </defs>
  <g id="rate-limiting-external" fill-opacity="1" stroke="none" stroke-opacity="1" fill="none" stroke-dasharray="none">
    <title>rate-limiting-external</title>
    <rect fill="white" x="177" y="3214" width="1120" height="612"/>
    <g id="rate-limiting-external_Layer_1">
      <title>Layer 1</title>
      <g id="Graphic_54"/>
      <g id="Graphic_53">
        <rect x="499.6063" y="3268.3465" width="765.3543" height="531.49607" fill="white"/>
        <path d="M 499.6063 3268.3465 L 1264.9606 3268.3465 L 1264.9606 3799.8426 L 499.6063 3799.8426 Z" stroke="#a5a5a5" stroke-linecap="round" stroke-linejoin="round" stroke-dasharray="4.0,4.0" stroke-width="1"/>
      </g>
      <g id="Graphic_52">
        <rect x="524.40945" y="3476.693" width="715.748" height="297.6378" stroke="gray" stroke-linecap="round" stroke-linejoin="round" stroke-width="1"/>
      </g>
      <g id="Graphic_51">
        <rect x="204.0945" y="3268.3465" width="231.02362" height="531.49607" fill="white"/>
        <path d="M 204.0945 3268.3465 L 435.1181 3268.3465 L 435.1181 3799.8426 L 204.0945 3799.8426 Z" stroke="#a5a5a5" stroke-linecap="round" stroke-linejoin="round" stroke-dasharray="4.0,4.0" stroke-width="1"/>
      </g>
      <g id="Graphic_50">
        <path d="M 560.4016 3506.4567 L 846.2913 3506.4567 C 850.7096 3506.4567 854.2913 3510.0384 854.2913 3514.4567 L 854.2913 3736.567 C 854.2913 3740.9852 850.7096 3744.567 846.2913 3744.567 L 560.4016 3744.567 C 555.9833 3744.567 552.4016 3740.9852 552.4016 3736.567 L 552.4016 3514.4567 C 552.4016 3510.0384 555.9833 3506.4567 560.4016 3506.4567 Z" fill="#f4f4f4"/>
        <text transform="translate(557.4016 3520.4567)" fill="black">
          <tspan font-family="Helvetica Neue" font-weight="bold" font-size="16" fill="black" x="111.72089" y="16">Cluster 1</tspan>
        </text>
      </g>
      <g id="Graphic_49">
        <path d="M 532.40945 3332.126 L 1232.1575 3332.126 C 1236.5758 3332.126 1240.1575 3335.7077 1240.1575 3340.126 L 1240.1575 3383.6536 C 1240.1575 3388.072 1236.5758 3391.6536 1232.1575 3391.6536 L 532.40945 3391.6536 C 527.9912 3391.6536 524.40945 3388.072 524.40945 3383.6536 L 524.40945 3340.126 C 524.40945 3335.7077 527.9912 3332.126 532.40945 3332.126 Z" fill="#f15623"/>
        <text transform="translate(529.40945 3352.6658)" fill="white">
          <tspan font-family="Helvetica Neue" font-size="16" fill="white" x="274.06602" y="15">Tetrate Service Bridge</tspan>
        </text>
      </g>
      <g id="Group_44">
        <g id="Graphic_47">
          <path d="M 581.1024 3627.433 L 581.1024 3564.063 C 581.1024 3559.6447 584.6841 3556.063 589.1024 3556.063 L 817.5906 3556.063 C 822.0088 3556.063 825.5906 3559.6447 825.5906 3564.063 C 825.5906 3564.063 825.5906 3564.063 825.5906 3564.063 L 825.5906 3627.433 C 825.5906 3631.8514 822.0088 3635.433 817.5906 3635.433 L 589.1024 3635.433 C 584.6841 3635.433 581.1024 3631.8514 581.1024 3627.433 Z" fill="white"/>
          <text transform="translate(802.1426 3630.433) rotate(-90)" fill="black">
            <tspan font-family="Helvetica Neue" font-size="16" fill="black" x="20.16504" y="15">Pod</tspan>
          </text>
        </g>
        <g id="Graphic_46">
          <path d="M 604.6929 3565.9843 L 679.4016 3565.9843 C 683.81986 3565.9843 687.4016 3569.566 687.4016 3573.9843 L 687.4016 3617.512 C 687.4016 3621.93 683.81986 3625.512 679.4016 3625.512 L 604.6929 3625.512 C 600.27464 3625.512 596.6929 3621.93 596.6929 3617.512 L 596.6929 3573.9843 C 596.6929 3569.566 600.27464 3565.9843 604.6929 3565.9843 Z" fill="#ffc0ff"/>
          <text transform="translate(601.6929 3586.524)" fill="black">
            <tspan font-family="Helvetica Neue" font-size="16" fill="black" x="18.426332" y="15">Envoy</tspan>
          </text>
        </g>
        <g id="Graphic_45">
          <path d="M 709.5748 3565.9843 L 784.2835 3565.9843 C 788.70175 3565.9843 792.2835 3569.566 792.2835 3573.9843 L 792.2835 3617.512 C 792.2835 3621.93 788.70175 3625.512 784.2835 3625.512 L 709.5748 3625.512 C 705.1565 3625.512 701.5748 3621.93 701.5748 3617.512 L 701.5748 3573.9843 C 701.5748 3569.566 705.1565 3565.9843 709.5748 3565.9843 Z" fill="#c0ffc0"/>
          <text transform="translate(706.5748 3577.3)" fill="black">
            <tspan font-family="Helvetica Neue" font-size="16" fill="black" x="6.586332" y="15">Workload</tspan>
            <tspan font-family="Helvetica Neue" font-size="16" fill="black" x="9.698332" y="33.448">(Service)</tspan>
          </text>
        </g>
      </g>
      <g id="Group_40">
        <g id="Graphic_43">
          <path d="M 581.1024 3718.1418 L 581.1024 3654.7717 C 581.1024 3650.3534 584.6841 3646.7717 589.1024 3646.7717 L 817.5906 3646.7717 C 822.0088 3646.7717 825.5906 3650.3534 825.5906 3654.7717 C 825.5906 3654.7717 825.5906 3654.7717 825.5906 3654.7717 L 825.5906 3718.1418 C 825.5906 3722.56 822.0088 3726.1418 817.5906 3726.1418 L 589.1024 3726.1418 C 584.6841 3726.1418 581.1024 3722.56 581.1024 3718.1418 Z" fill="white"/>
          <text transform="translate(802.1426 3721.1418) rotate(-90)" fill="black">
            <tspan font-family="Helvetica Neue" font-size="16" fill="black" x="20.16504" y="15">Pod</tspan>
          </text>
        </g>
        <g id="Graphic_42">
          <path d="M 606.11024 3656.693 L 680.8189 3656.693 C 685.2372 3656.693 688.8189 3660.2747 688.8189 3664.693 L 688.8189 3708.2205 C 688.8189 3712.639 685.2372 3716.2205 680.8189 3716.2205 L 606.11024 3716.2205 C 601.69196 3716.2205 598.11024 3712.639 598.11024 3708.2205 L 598.11024 3664.693 C 598.11024 3660.2747 601.69196 3656.693 606.11024 3656.693 Z" fill="#ffc0ff"/>
          <text transform="translate(603.11024 3677.2327)" fill="black">
            <tspan font-family="Helvetica Neue" font-size="16" fill="black" x="18.426332" y="15">Envoy</tspan>
          </text>
        </g>
        <g id="Graphic_41">
          <path d="M 710.9921 3656.693 L 785.7008 3656.693 C 790.1191 3656.693 793.7008 3660.2747 793.7008 3664.693 L 793.7008 3708.2205 C 793.7008 3712.639 790.1191 3716.2205 785.7008 3716.2205 L 710.9921 3716.2205 C 706.57385 3716.2205 702.9921 3712.639 702.9921 3708.2205 L 702.9921 3664.693 C 702.9921 3660.2747 706.57385 3656.693 710.9921 3656.693 Z" fill="#c0ffc0"/>
          <text transform="translate(707.9921 3668.0087)" fill="black">
            <tspan font-family="Helvetica Neue" font-size="16" fill="black" x="6.586332" y="15">Workload</tspan>
            <tspan font-family="Helvetica Neue" font-size="16" fill="black" x="9.698332" y="33.448">(Service)</tspan>
          </text>
        </g>
      </g>
      <g id="Graphic_18">
        <text transform="translate(1096.7415 3308.678)" fill="black">
          <tspan font-family="Helvetica Neue" font-size="16" fill="black" x="5258016e-19" y="15">Management Plane</tspan>
        </text>
      </g>
      <g id="Graphic_17">
        <text transform="translate(1082.8535 3453.245)" fill="black">
          <tspan font-family="Helvetica Neue" font-size="16" fill="black" x="42632564e-21" y="15">Global  Control Plane</tspan>
        </text>
      </g>
      <g id="Graphic_16">
        <rect x="804.3307" y="3242.8347" width="155.90551" height="51.02362" fill="white"/>
        <path d="M 804.3307 3242.8347 L 960.2362 3242.8347 L 960.2362 3293.8583 L 804.3307 3293.8583 Z" stroke="gray" stroke-linecap="round" stroke-linejoin="round" stroke-dasharray="4.0,4.0" stroke-width="1"/>
        <text transform="translate(809.3307 3259.1225)" fill="black">
          <tspan font-family="Helvetica Neue" font-size="16" fill="black" x="13.984759" y="15">TSB provisioned</tspan>
        </text>
      </g>
      <g id="Graphic_15">
        <rect x="241.65355" y="3242.8347" width="155.90551" height="51.02362" fill="white"/>
        <path d="M 241.65355 3242.8347 L 397.55906 3242.8347 L 397.55906 3293.8583 L 241.65355 3293.8583 Z" stroke="gray" stroke-linecap="round" stroke-linejoin="round" stroke-dasharray="4.0,4.0" stroke-width="1"/>
        <text transform="translate(246.65355 3259.1225)" fill="black">
          <tspan font-family="Helvetica Neue" font-size="16" fill="black" x="12.504759" y="15">User provisioned</tspan>
        </text>
      </g>
      <g id="Group_12">
        <g id="Graphic_14">
          <path d="M 651.4841 3516.3793 C 651.26326 3516.3923 651.04726 3516.4495 650.84894 3516.5476 L 642.24744 3520.6504 C 641.7983 3520.864 641.4718 3521.271 641.3599 3521.7556 L 639.2545 3530.9637 C 639.15415 3531.396 639.2352 3531.849 639.486 3532.2194 C 639.51534 3532.264 639.5462 3532.3073 639.5786 3532.349 L 645.5213 3539.738 C 645.83545 3540.124 646.307 3540.3454 646.804 3540.343 L 656.3355 3540.343 C 656.8341 3540.344 657.3064 3540.1116 657.6198 3539.731 L 663.5594 3532.3405 C 663.8712 3531.9546 663.9877 3531.4453 663.8681 3530.962 L 661.7488 3521.7463 C 661.6369 3521.2616 661.3089 3520.855 660.86125 3520.641 L 652.27365 3516.5484 C 652.0262 3516.4263 651.7521 3516.368 651.4764 3516.3793 Z" fill="#326ce5"/>
        </g>
        <g id="Graphic_13">
          <path d="M 651.5628 3519.5174 C 651.2665 3519.5382 651.0419 3519.792 651.0573 3520.0885 L 651.0573 3520.2336 C 651.0712 3520.398 651.0959 3520.561 651.1283 3520.722 C 651.17566 3521.031 651.1927 3521.344 651.1793 3521.656 C 651.1499 3521.7586 651.0913 3521.8513 651.011 3521.9223 L 650.9994 3522.14 C 650.6869 3522.166 650.3766 3522.214 650.071 3522.2835 C 648.7852 3522.5736 647.6144 3523.2405 646.71065 3524.2013 L 646.5254 3524.07 C 646.42355 3524.101 646.31396 3524.0894 646.2206 3524.0393 C 645.9701 3523.854 645.7382 3523.6445 645.5283 3523.414 C 645.4228 3523.288 645.3102 3523.1683 645.191 3523.0552 L 645.0768 3522.964 C 644.9749 3522.8824 644.8499 3522.8353 644.71946 3522.829 C 644.5616 3522.8207 644.4092 3522.8884 644.30964 3523.0112 C 644.1352 3523.256 644.1923 3523.5947 644.4362 3523.77 L 644.5427 3523.855 C 644.6798 3523.946 644.8221 3524.0292 644.96874 3524.104 C 645.24195 3524.256 645.4997 3524.4344 645.739 3524.6443 C 645.8002 3524.7316 645.83574 3524.8343 645.8416 3524.9407 L 646.0099 3525.095 C 645.1015 3526.458 644.7287 3528.109 644.9618 3529.7304 L 644.7457 3529.792 C 644.68936 3529.8816 644.6145 3529.958 644.525 3530.0144 C 644.2235 3530.095 643.91484 3530.146 643.6035 3530.1664 C 643.4382 3530.1698 643.2733 3530.1827 643.1095 3530.205 L 642.9729 3530.236 L 642.9575 3530.236 C 642.76416 3530.2627 642.6024 3530.396 642.5393 3530.581 C 642.4761 3530.7655 642.5224 3530.97 642.6588 3531.1095 C 642.7965 3531.2484 643.0008 3531.2977 643.1867 3531.237 L 643.1967 3531.237 L 643.33566 3531.2214 C 643.4923 3531.175 643.6467 3531.118 643.7972 3531.053 C 644.0866 3530.9374 644.3868 3530.8487 644.694 3530.791 C 644.8005 3530.797 644.9024 3530.8332 644.9888 3530.895 L 645.22034 3530.8564 C 645.722 3532.413 646.77625 3533.732 648.184 3534.5633 L 648.0898 3534.76 C 648.13304 3534.8504 648.14925 3534.9507 648.1361 3535.0502 C 648.0088 3535.345 647.8529 3535.6275 647.67075 3535.893 C 647.5708 3536.0247 647.4786 3536.162 647.39445 3536.3044 L 647.32885 3536.4433 C 647.2318 3536.6117 647.2373 3536.82 647.34315 3536.983 C 647.449 3537.146 647.6372 3537.236 647.8305 3537.216 C 648.02425 3537.194 648.1893 3537.065 648.2573 3536.8825 L 648.32136 3536.7513 C 648.38 3536.597 648.4294 3536.4395 648.46954 3536.2805 C 648.60615 3535.943 648.6802 3535.5812 648.867 3535.3574 C 648.92805 3535.3 649.005 3535.2624 649.0877 3535.2494 L 649.2035 3535.0387 C 650.7295 3535.6252 652.418 3535.6293 653.9469 3535.0502 L 654.0495 3535.247 C 654.1545 3535.2625 654.2486 3535.3204 654.3119 3535.4053 C 654.457 3535.6816 654.5743 3535.971 654.66385 3536.2697 C 654.7047 3536.4296 654.75466 3536.587 654.8136 3536.7412 L 654.8776 3536.8724 C 654.9463 3537.0544 655.11134 3537.1825 655.3047 3537.204 C 655.49805 3537.225 655.687 3537.136 655.7937 3536.9735 C 655.8994 3536.81 655.9042 3536.6008 655.8061 3536.4325 L 655.73894 3536.2936 C 655.6548 3536.1518 655.56256 3536.015 655.46264 3535.8838 C 655.2851 3535.6275 655.1323 3535.3543 654.9996 3535.068 C 654.97455 3534.9622 654.9935 3534.851 655.05206 3534.7593 C 655.0191 3534.692 654.9905 3534.6226 654.9664 3534.5517 C 656.371 3533.7143 657.42065 3532.3907 657.9169 3530.8317 L 658.1361 3530.8703 C 658.2148 3530.7985 658.3182 3530.7607 658.424 3530.7638 C 658.7304 3530.8224 659.0306 3530.918 659.3208 3531.026 C 659.4713 3531.0956 659.6256 3531.1543 659.7823 3531.2037 C 659.81935 3531.2137 659.8734 3531.2222 659.91505 3531.2323 L 659.9251 3531.2323 C 660.11085 3531.2922 660.3146 3531.2425 660.4518 3531.1037 C 660.589 3530.965 660.6363 3530.7605 660.57415 3530.5755 C 660.5105 3530.3906 660.3481 3530.2574 660.1543 3530.2313 L 660.0046 3530.1957 C 659.8408 3530.1734 659.6759 3530.1605 659.5106 3530.157 C 659.1988 3530.137 658.8901 3530.086 658.5891 3530.005 C 658.4965 3529.9534 658.4193 3529.8762 658.36686 3529.783 L 658.1585 3529.721 C 658.38066 3528.1004 658 3526.4544 657.0888 3525.096 L 657.2709 3524.9276 C 657.2632 3524.822 657.29794 3524.717 657.3666 3524.636 C 657.6036 3524.432 657.8606 3524.2523 658.1307 3524.0987 C 658.27736 3524.024 658.4196 3523.9406 658.5567 3523.8494 L 658.6694 3523.7583 C 658.8387 3523.6532 658.9326 3523.46 658.91066 3523.262 C 658.88874 3523.064 658.75495 3522.896 658.56675 3522.8306 C 658.3787 3522.765 658.1698 3522.8135 658.0296 3522.955 L 657.9154 3523.046 C 657.7962 3523.159 657.6836 3523.279 657.5781 3523.405 C 657.37435 3523.638 657.149 3523.85 656.9043 3524.04 C 656.8056 3524.0802 656.6976 3524.092 656.5925 3524.074 L 656.3973 3524.213 C 655.2705 3523.032 653.7524 3522.299 652.1255 3522.1523 C 652.1255 3522.075 652.1154 3521.9593 652.1139 3521.923 C 652.0267 3521.863 651.9657 3521.771 651.94564 3521.667 C 651.9349 3521.355 651.9546 3521.043 652.0043 3520.7353 C 652.0375 3520.573 652.0606 3520.411 652.0753 3520.2467 L 652.0753 3520.0924 C 652.0907 3519.796 651.8669 3519.542 651.5698 3519.5213 Z M 650.9192 3523.5044 L 650.7648 3526.2002 L 650.75324 3526.2002 C 650.7455 3526.367 650.6475 3526.509 650.497 3526.5892 C 650.3465 3526.6695 650.1682 3526.6456 650.03394 3526.5475 L 647.8228 3524.981 C 648.5266 3524.2896 649.4095 3523.8087 650.372 3523.5924 C 650.5526 3523.554 650.7347 3523.5245 650.9176 3523.5044 Z M 652.2065 3523.5044 C 653.368 3523.6487 654.4493 3524.1705 655.2859 3524.9893 L 653.0956 3526.546 C 652.9605 3526.654 652.7753 3526.6757 652.6186 3526.6016 C 652.462 3526.5275 652.3616 3526.37 652.3593 3526.197 Z M 647.0201 3525.995 L 649.0422 3527.7994 L 649.0422 3527.811 C 649.168 3527.9205 649.2228 3528.091 649.18575 3528.254 C 649.1487 3528.417 649.0237 3528.5457 648.8639 3528.5897 L 648.8639 3528.5974 L 646.2692 3529.3437 C 646.1408 3528.1747 646.4053 3526.996 647.0209 3525.994 Z M 656.0909 3525.995 C 656.7052 3526.9944 656.9769 3528.1667 656.8642 3529.3344 L 654.2656 3528.586 L 654.2656 3528.5758 C 654.10354 3528.5318 653.98005 3528.403 653.9438 3528.24 C 653.9075 3528.0772 653.9615 3527.908 654.0873 3527.797 L 656.094 3526.001 Z M 651.1484 3527.94 L 651.97574 3527.94 L 652.48126 3528.582 L 652.2976 3529.3846 L 651.55435 3529.742 L 650.8096 3529.3846 L 650.6344 3528.582 Z M 653.7987 3530.13 C 653.8334 3530.1263 653.8759 3530.1263 653.9029 3530.13 L 656.57864 3530.5816 C 656.19275 3531.693 655.431 3532.6423 654.43695 3533.2775 L 653.4028 3530.774 C 653.3451 3530.6375 653.3572 3530.4817 653.43534 3530.356 C 653.5135 3530.2302 653.6478 3530.1503 653.7956 3530.1417 Z M 649.3046 3530.1417 C 649.4559 3530.144 649.5956 3530.222 649.67815 3530.3486 C 649.7607 3530.475 649.77385 3530.634 649.7144 3530.773 L 649.7144 3530.783 L 648.6864 3533.2667 C 647.7024 3532.636 646.9553 3531.6984 646.55784 3530.5986 L 649.21045 3530.1487 C 649.2398 3530.1456 649.2699 3530.1456 649.3 3530.1487 Z M 651.54586 3531.2222 C 651.7178 3531.217 651.87816 3531.3088 651.9603 3531.46 L 651.9703 3531.46 L 653.2777 3533.8193 L 652.7552 3533.9736 C 651.7936 3534.1936 650.7895 3534.142 649.8549 3533.824 L 651.1669 3531.4646 C 651.2464 3531.3256 651.39305 3531.2407 651.5528 3531.237 Z" fill="white"/>
          <path d="M 651.5628 3519.5174 C 651.2665 3519.5382 651.0419 3519.792 651.0573 3520.0885 L 651.0573 3520.2336 C 651.0712 3520.398 651.0959 3520.561 651.1283 3520.722 C 651.17566 3521.031 651.1927 3521.344 651.1793 3521.656 C 651.1499 3521.7586 651.0913 3521.8513 651.011 3521.9223 L 650.9994 3522.14 C 650.6869 3522.166 650.3766 3522.214 650.071 3522.2835 C 648.7852 3522.5736 647.6144 3523.2405 646.71065 3524.2013 L 646.5254 3524.07 C 646.42355 3524.101 646.31396 3524.0894 646.2206 3524.0393 C 645.9701 3523.854 645.7382 3523.6445 645.5283 3523.414 C 645.4228 3523.288 645.3102 3523.1683 645.191 3523.0552 L 645.0768 3522.964 C 644.9749 3522.8824 644.8499 3522.8353 644.71946 3522.829 C 644.5616 3522.8207 644.4092 3522.8884 644.30964 3523.0112 C 644.1352 3523.256 644.1923 3523.5947 644.4362 3523.77 L 644.5427 3523.855 C 644.6798 3523.946 644.8221 3524.0292 644.96874 3524.104 C 645.24195 3524.256 645.4997 3524.4344 645.739 3524.6443 C 645.8002 3524.7316 645.83574 3524.8343 645.8416 3524.9407 L 646.0099 3525.095 C 645.1015 3526.458 644.7287 3528.109 644.9618 3529.7304 L 644.7457 3529.792 C 644.68936 3529.8816 644.6145 3529.958 644.525 3530.0144 C 644.2235 3530.095 643.91484 3530.146 643.6035 3530.1664 C 643.4382 3530.1698 643.2733 3530.1827 643.1095 3530.205 L 642.9729 3530.236 L 642.9575 3530.236 C 642.76416 3530.2627 642.6024 3530.396 642.5393 3530.581 C 642.4761 3530.7655 642.5224 3530.97 642.6588 3531.1095 C 642.7965 3531.2484 643.0008 3531.2977 643.1867 3531.237 L 643.1967 3531.237 L 643.33566 3531.2214 C 643.4923 3531.175 643.6467 3531.118 643.7972 3531.053 C 644.0866 3530.9374 644.3868 3530.8487 644.694 3530.791 C 644.8005 3530.797 644.9024 3530.8332 644.9888 3530.895 L 645.22034 3530.8564 C 645.722 3532.413 646.77625 3533.732 648.184 3534.5633 L 648.0898 3534.76 C 648.13304 3534.8504 648.14925 3534.9507 648.1361 3535.0502 C 648.0088 3535.345 647.8529 3535.6275 647.67075 3535.893 C 647.5708 3536.0247 647.4786 3536.162 647.39445 3536.3044 L 647.32885 3536.4433 C 647.2318 3536.6117 647.2373 3536.82 647.34315 3536.983 C 647.449 3537.146 647.6372 3537.236 647.8305 3537.216 C 648.02425 3537.194 648.1893 3537.065 648.2573 3536.8825 L 648.32136 3536.7513 C 648.38 3536.597 648.4294 3536.4395 648.46954 3536.2805 C 648.60615 3535.943 648.6802 3535.5812 648.867 3535.3574 C 648.92805 3535.3 649.005 3535.2624 649.0877 3535.2494 L 649.2035 3535.0387 C 650.7295 3535.6252 652.418 3535.6293 653.9469 3535.0502 L 654.0495 3535.247 C 654.1545 3535.2625 654.2486 3535.3204 654.3119 3535.4053 C 654.457 3535.6816 654.5743 3535.971 654.66385 3536.2697 C 654.7047 3536.4296 654.75466 3536.587 654.8136 3536.7412 L 654.8776 3536.8724 C 654.9463 3537.0544 655.11134 3537.1825 655.3047 3537.204 C 655.49805 3537.225 655.687 3537.136 655.7937 3536.9735 C 655.8994 3536.81 655.9042 3536.6008 655.8061 3536.4325 L 655.73894 3536.2936 C 655.6548 3536.1518 655.56256 3536.015 655.46264 3535.8838 C 655.2851 3535.6275 655.1323 3535.3543 654.9996 3535.068 C 654.97455 3534.9622 654.9935 3534.851 655.05206 3534.7593 C 655.0191 3534.692 654.9905 3534.6226 654.9664 3534.5517 C 656.371 3533.7143 657.42065 3532.3907 657.9169 3530.8317 L 658.1361 3530.8703 C 658.2148 3530.7985 658.3182 3530.7607 658.424 3530.7638 C 658.7304 3530.8224 659.0306 3530.918 659.3208 3531.026 C 659.4713 3531.0956 659.6256 3531.1543 659.7823 3531.2037 C 659.81935 3531.2137 659.8734 3531.2222 659.91505 3531.2323 L 659.9251 3531.2323 C 660.11085 3531.2922 660.3146 3531.2425 660.4518 3531.1037 C 660.589 3530.965 660.6363 3530.7605 660.57415 3530.5755 C 660.5105 3530.3906 660.3481 3530.2574 660.1543 3530.2313 L 660.0046 3530.1957 C 659.8408 3530.1734 659.6759 3530.1605 659.5106 3530.157 C 659.1988 3530.137 658.8901 3530.086 658.5891 3530.005 C 658.4965 3529.9534 658.4193 3529.8762 658.36686 3529.783 L 658.1585 3529.721 C 658.38066 3528.1004 658 3526.4544 657.0888 3525.096 L 657.2709 3524.9276 C 657.2632 3524.822 657.29794 3524.717 657.3666 3524.636 C 657.6036 3524.432 657.8606 3524.2523 658.1307 3524.0987 C 658.27736 3524.024 658.4196 3523.9406 658.5567 3523.8494 L 658.6694 3523.7583 C 658.8387 3523.6532 658.9326 3523.46 658.91066 3523.262 C 658.88874 3523.064 658.75495 3522.896 658.56675 3522.8306 C 658.3787 3522.765 658.1698 3522.8135 658.0296 3522.955 L 657.9154 3523.046 C 657.7962 3523.159 657.6836 3523.279 657.5781 3523.405 C 657.37435 3523.638 657.149 3523.85 656.9043 3524.04 C 656.8056 3524.0802 656.6976 3524.092 656.5925 3524.074 L 656.3973 3524.213 C 655.2705 3523.032 653.7524 3522.299 652.1255 3522.1523 C 652.1255 3522.075 652.1154 3521.9593 652.1139 3521.923 C 652.0267 3521.863 651.9657 3521.771 651.94564 3521.667 C 651.9349 3521.355 651.9546 3521.043 652.0043 3520.7353 C 652.0375 3520.573 652.0606 3520.411 652.0753 3520.2467 L 652.0753 3520.0924 C 652.0907 3519.796 651.8669 3519.542 651.5698 3519.5213 Z M 650.9192 3523.5044 L 650.7648 3526.2002 L 650.75324 3526.2002 C 650.7455 3526.367 650.6475 3526.509 650.497 3526.5892 C 650.3465 3526.6695 650.1682 3526.6456 650.03394 3526.5475 L 647.8228 3524.981 C 648.5266 3524.2896 649.4095 3523.8087 650.372 3523.5924 C 650.5526 3523.554 650.7347 3523.5245 650.9176 3523.5044 Z M 652.2065 3523.5044 C 653.368 3523.6487 654.4493 3524.1705 655.2859 3524.9893 L 653.0956 3526.546 C 652.9605 3526.654 652.7753 3526.6757 652.6186 3526.6016 C 652.462 3526.5275 652.3616 3526.37 652.3593 3526.197 Z M 647.0201 3525.995 L 649.0422 3527.7994 L 649.0422 3527.811 C 649.168 3527.9205 649.2228 3528.091 649.18575 3528.254 C 649.1487 3528.417 649.0237 3528.5457 648.8639 3528.5897 L 648.8639 3528.5974 L 646.2692 3529.3437 C 646.1408 3528.1747 646.4053 3526.996 647.0209 3525.994 Z M 656.0909 3525.995 C 656.7052 3526.9944 656.9769 3528.1667 656.8642 3529.3344 L 654.2656 3528.586 L 654.2656 3528.5758 C 654.10354 3528.5318 653.98005 3528.403 653.9438 3528.24 C 653.9075 3528.0772 653.9615 3527.908 654.0873 3527.797 L 656.094 3526.001 Z M 651.1484 3527.94 L 651.97574 3527.94 L 652.48126 3528.582 L 652.2976 3529.3846 L 651.55435 3529.742 L 650.8096 3529.3846 L 650.6344 3528.582 Z M 653.7987 3530.13 C 653.8334 3530.1263 653.8759 3530.1263 653.9029 3530.13 L 656.57864 3530.5816 C 656.19275 3531.693 655.431 3532.6423 654.43695 3533.2775 L 653.4028 3530.774 C 653.3451 3530.6375 653.3572 3530.4817 653.43534 3530.356 C 653.5135 3530.2302 653.6478 3530.1503 653.7956 3530.1417 Z M 649.3046 3530.1417 C 649.4559 3530.144 649.5956 3530.222 649.67815 3530.3486 C 649.7607 3530.475 649.77385 3530.634 649.7144 3530.773 L 649.7144 3530.783 L 648.6864 3533.2667 C 647.7024 3532.636 646.9553 3531.6984 646.55784 3530.5986 L 649.21045 3530.1487 C 649.2398 3530.1456 649.2699 3530.1456 649.3 3530.1487 Z M 651.54586 3531.2222 C 651.7178 3531.217 651.87816 3531.3088 651.9603 3531.46 L 651.9703 3531.46 L 653.2777 3533.8193 L 652.7552 3533.9736 C 651.7936 3534.1936 650.7895 3534.142 649.8549 3533.824 L 651.1669 3531.4646 C 651.2464 3531.3256 651.39305 3531.2407 651.5528 3531.237 Z" stroke="white" stroke-linecap="butt" stroke-linejoin="round" stroke-width=".055"/>
        </g>
      </g>
      <g id="Line_3">
        <line x1="703.3465" y1="3506.4567" x2="703.3465" y2="3391.6536" stroke="black" stroke-linecap="round" stroke-linejoin="round" stroke-width="1"/>
      </g>
      <g id="Graphic_55">
        <path d="M 258.15748 3639.685 L 381.0551 3639.685 C 385.4734 3639.685 389.0551 3643.267 389.0551 3647.685 L 389.0551 3736.567 C 389.0551 3740.9852 385.4734 3744.567 381.0551 3744.567 L 258.15748 3744.567 C 253.7392 3744.567 250.15748 3740.9852 250.15748 3736.567 L 250.15748 3647.685 C 250.15748 3643.267 253.7392 3639.685 258.15748 3639.685 Z" fill="#666"/>
        <text transform="translate(255.15748 3673.678)" fill="white">
          <tspan font-family="Helvetica Neue" font-size="16" fill="white" x="33.184822" y="15">Ratelimit</tspan>
          <tspan font-family="Helvetica Neue" font-size="16" fill="white" x="41.34482" y="33.448">Server</tspan>
        </text>
      </g>
      <g id="Graphic_68">
        <path d="M 919.3386 3506.4567 L 1205.2284 3506.4567 C 1209.6466 3506.4567 1213.2284 3510.0384 1213.2284 3514.4567 L 1213.2284 3736.567 C 1213.2284 3740.9852 1209.6466 3744.567 1205.2284 3744.567 L 919.3386 3744.567 C 914.9203 3744.567 911.3386 3740.9852 911.3386 3736.567 L 911.3386 3514.4567 C 911.3386 3510.0384 914.9203 3506.4567 919.3386 3506.4567 Z" fill="#f4f4f4"/>
        <text transform="translate(916.3386 3520.4567)" fill="black">
          <tspan font-family="Helvetica Neue" font-weight="bold" font-size="16" fill="black" x="111.72089" y="16">Cluster 2</tspan>
        </text>
      </g>
      <g id="Group_64">
        <g id="Graphic_67">
          <path d="M 940.0394 3627.433 L 940.0394 3564.063 C 940.0394 3559.6447 943.6211 3556.063 948.0394 3556.063 L 1176.5276 3556.063 C 1180.9458 3556.063 1184.5276 3559.6447 1184.5276 3564.063 C 1184.5276 3564.063 1184.5276 3564.063 1184.5276 3564.063 L 1184.5276 3627.433 C 1184.5276 3631.8514 1180.9458 3635.433 1176.5276 3635.433 L 948.0394 3635.433 C 943.6211 3635.433 940.0394 3631.8514 940.0394 3627.433 Z" fill="white"/>
          <text transform="translate(1161.0796 3630.433) rotate(-90)" fill="black">
            <tspan font-family="Helvetica Neue" font-size="16" fill="black" x="20.16504" y="15">Pod</tspan>
          </text>
        </g>
        <g id="Graphic_66">
          <path d="M 964.6929 3565.9843 L 1039.4016 3565.9843 C 1043.8199 3565.9843 1047.4016 3569.566 1047.4016 3573.9843 L 1047.4016 3617.512 C 1047.4016 3621.93 1043.8199 3625.512 1039.4016 3625.512 L 964.6929 3625.512 C 960.2746 3625.512 956.6929 3621.93 956.6929 3617.512 L 956.6929 3573.9843 C 956.6929 3569.566 960.2746 3565.9843 964.6929 3565.9843 Z" fill="#ffc0ff"/>
          <text transform="translate(961.6929 3586.524)" fill="black">
            <tspan font-family="Helvetica Neue" font-size="16" fill="black" x="18.426332" y="15">Envoy</tspan>
          </text>
        </g>
        <g id="Graphic_65">
          <path d="M 1069.5748 3565.9843 L 1144.2835 3565.9843 C 1148.7018 3565.9843 1152.2835 3569.566 1152.2835 3573.9843 L 1152.2835 3617.512 C 1152.2835 3621.93 1148.7018 3625.512 1144.2835 3625.512 L 1069.5748 3625.512 C 1065.1565 3625.512 1061.5748 3621.93 1061.5748 3617.512 L 1061.5748 3573.9843 C 1061.5748 3569.566 1065.1565 3565.9843 1069.5748 3565.9843 Z" fill="#c0ffc0"/>
          <text transform="translate(1066.5748 3577.3)" fill="black">
            <tspan font-family="Helvetica Neue" font-size="16" fill="black" x="6.586332" y="15">Workload</tspan>
            <tspan font-family="Helvetica Neue" font-size="16" fill="black" x="9.698332" y="33.448">(Service)</tspan>
          </text>
        </g>
      </g>
      <g id="Group_60">
        <g id="Graphic_63">
          <path d="M 940.0394 3718.1418 L 940.0394 3654.7717 C 940.0394 3650.3534 943.6211 3646.7717 948.0394 3646.7717 L 1176.5276 3646.7717 C 1180.9458 3646.7717 1184.5276 3650.3534 1184.5276 3654.7717 C 1184.5276 3654.7717 1184.5276 3654.7717 1184.5276 3654.7717 L 1184.5276 3718.1418 C 1184.5276 3722.56 1180.9458 3726.1418 1176.5276 3726.1418 L 948.0394 3726.1418 C 943.6211 3726.1418 940.0394 3722.56 940.0394 3718.1418 Z" fill="white"/>
          <text transform="translate(1161.0796 3721.1418) rotate(-90)" fill="black">
            <tspan font-family="Helvetica Neue" font-size="16" fill="black" x="20.16504" y="15">Pod</tspan>
          </text>
        </g>
        <g id="Graphic_62">
          <path d="M 964.6929 3656.693 L 1039.4016 3656.693 C 1043.8199 3656.693 1047.4016 3660.2747 1047.4016 3664.693 L 1047.4016 3708.2205 C 1047.4016 3712.639 1043.8199 3716.2205 1039.4016 3716.2205 L 964.6929 3716.2205 C 960.2746 3716.2205 956.6929 3712.639 956.6929 3708.2205 L 956.6929 3664.693 C 956.6929 3660.2747 960.2746 3656.693 964.6929 3656.693 Z" fill="#ffc0ff"/>
          <text transform="translate(961.6929 3677.2327)" fill="black">
            <tspan font-family="Helvetica Neue" font-size="16" fill="black" x="18.426332" y="15">Envoy</tspan>
          </text>
        </g>
        <g id="Graphic_61">
          <path d="M 1069.5748 3656.693 L 1144.2835 3656.693 C 1148.7018 3656.693 1152.2835 3660.2747 1152.2835 3664.693 L 1152.2835 3708.2205 C 1152.2835 3712.639 1148.7018 3716.2205 1144.2835 3716.2205 L 1069.5748 3716.2205 C 1065.1565 3716.2205 1061.5748 3712.639 1061.5748 3708.2205 L 1061.5748 3664.693 C 1061.5748 3660.2747 1065.1565 3656.693 1069.5748 3656.693 Z" fill="#c0ffc0"/>
          <text transform="translate(1066.5748 3668.0087)" fill="black">
            <tspan font-family="Helvetica Neue" font-size="16" fill="black" x="6.586332" y="15">Workload</tspan>
            <tspan font-family="Helvetica Neue" font-size="16" fill="black" x="9.698332" y="33.448">(Service)</tspan>
          </text>
        </g>
      </g>
      <g id="Group_57">
        <g id="Graphic_59">
          <path d="M 1010.4211 3516.3793 C 1010.2003 3516.3923 1009.9843 3516.4495 1009.786 3516.5476 L 1001.1845 3520.6504 C 1000.7353 3520.864 1000.4088 3521.271 1000.2969 3521.7556 L 998.1915 3530.9637 C 998.0912 3531.396 998.1722 3531.849 998.423 3532.2194 C 998.4524 3532.264 998.4832 3532.3073 998.5156 3532.349 L 1004.4583 3539.738 C 1004.7725 3540.124 1005.244 3540.3454 1005.741 3540.343 L 1015.2725 3540.343 C 1015.7711 3540.344 1016.2434 3540.1116 1016.5568 3539.731 L 1022.4964 3532.3405 C 1022.8082 3531.9546 1022.9247 3531.4453 1022.8051 3530.962 L 1020.6858 3521.7463 C 1020.5739 3521.2616 1020.2459 3520.855 1019.7983 3520.641 L 1011.2107 3516.5484 C 1010.9632 3516.4263 1010.6891 3516.368 1010.4134 3516.3793 Z" fill="#326ce5"/>
        </g>
        <g id="Graphic_58">
          <path d="M 1010.4998 3519.5174 C 1010.2035 3519.5382 1009.9789 3519.792 1009.9943 3520.0885 L 1009.9943 3520.2336 C 1010.0082 3520.398 1010.0329 3520.561 1010.0653 3520.722 C 1010.1127 3521.031 1010.1297 3521.344 1010.1163 3521.656 C 1010.087 3521.7586 1010.0283 3521.8513 1009.948 3521.9223 L 1009.9364 3522.14 C 1009.6239 3522.166 1009.3136 3522.214 1009.008 3522.2835 C 1007.7222 3522.5736 1006.5514 3523.2405 1005.6477 3524.2013 L 1005.4624 3524.07 C 1005.3606 3524.101 1005.251 3524.0894 1005.1576 3524.0393 C 1004.9071 3523.854 1004.6752 3523.6445 1004.4653 3523.414 C 1004.3598 3523.288 1004.2472 3523.1683 1004.128 3523.0552 L 1004.0138 3522.964 C 1003.9119 3522.8824 1003.7869 3522.8353 1003.6565 3522.829 C 1003.4986 3522.8207 1003.3462 3522.8884 1003.2467 3523.0112 C 1003.0722 3523.256 1003.1293 3523.5947 1003.3732 3523.77 L 1003.4797 3523.855 C 1003.6168 3523.946 1003.7591 3524.0292 1003.9058 3524.104 C 1004.179 3524.256 1004.4367 3524.4344 1004.676 3524.6443 C 1004.7372 3524.7316 1004.7728 3524.8343 1004.7786 3524.9407 L 1004.9469 3525.095 C 1004.0385 3526.458 1003.6657 3528.109 1003.8988 3529.7304 L 1003.6827 3529.792 C 1003.6264 3529.8816 1003.5515 3529.958 1003.462 3530.0144 C 1003.1605 3530.095 1002.8519 3530.146 1002.5405 3530.1664 C 1002.3752 3530.1698 1002.2103 3530.1827 1002.0465 3530.205 L 1001.9099 3530.236 L 1001.8945 3530.236 C 1001.7012 3530.2627 1001.5394 3530.396 1001.4763 3530.581 C 1001.4131 3530.7655 1001.4594 3530.97 1001.5958 3531.1095 C 1001.7335 3531.2484 1001.9378 3531.2977 1002.1237 3531.237 L 1002.1337 3531.237 L 1002.2727 3531.2214 C 1002.4293 3531.175 1002.5837 3531.118 1002.7342 3531.053 C 1003.0236 3530.9374 1003.3238 3530.8487 1003.631 3530.791 C 1003.7375 3530.797 1003.8394 3530.8332 1003.9258 3530.895 L 1004.1574 3530.8564 C 1004.659 3532.413 1005.7133 3533.732 1007.121 3534.5633 L 1007.0268 3534.76 C 1007.07 3534.8504 1007.0863 3534.9507 1007.0731 3535.0502 C 1006.9458 3535.345 1006.7899 3535.6275 1006.6078 3535.893 C 1006.5078 3536.0247 1006.4156 3536.162 1006.3315 3536.3044 L 1006.2659 3536.4433 C 1006.1688 3536.6117 1006.1743 3536.82 1006.2802 3536.983 C 1006.386 3537.146 1006.5742 3537.236 1006.7675 3537.216 C 1006.9613 3537.194 1007.1263 3537.065 1007.1943 3536.8825 L 1007.2584 3536.7513 C 1007.317 3536.597 1007.3664 3536.4395 1007.4066 3536.2805 C 1007.5432 3535.943 1007.6172 3535.5812 1007.804 3535.3574 C 1007.8651 3535.3 1007.942 3535.2624 1008.0247 3535.2494 L 1008.1405 3535.0387 C 1009.6665 3535.6252 1011.355 3535.6293 1012.8839 3535.0502 L 1012.9865 3535.247 C 1013.0915 3535.2625 1013.1856 3535.3204 1013.2489 3535.4053 C 1013.394 3535.6816 1013.5113 3535.971 1013.6009 3536.2697 C 1013.6417 3536.4296 1013.6917 3536.587 1013.7506 3536.7412 L 1013.8146 3536.8724 C 1013.8833 3537.0544 1014.0484 3537.1825 1014.2417 3537.204 C 1014.435 3537.225 1014.624 3537.136 1014.7307 3536.9735 C 1014.8364 3536.81 1014.8412 3536.6008 1014.7431 3536.4325 L 1014.676 3536.2936 C 1014.5918 3536.1518 1014.4996 3536.015 1014.3997 3535.8838 C 1014.2221 3535.6275 1014.0693 3535.3543 1013.9366 3535.068 C 1013.9116 3534.9622 1013.9305 3534.851 1013.9891 3534.7593 C 1013.9561 3534.692 1013.9275 3534.6226 1013.9034 3534.5517 C 1015.308 3533.7143 1016.3577 3532.3907 1016.8539 3530.8317 L 1017.0731 3530.8703 C 1017.1518 3530.7985 1017.2552 3530.7607 1017.361 3530.7638 C 1017.6674 3530.8224 1017.9676 3530.918 1018.2578 3531.026 C 1018.4083 3531.0956 1018.5626 3531.1543 1018.7193 3531.2037 C 1018.7564 3531.2137 1018.8104 3531.2222 1018.852 3531.2323 L 1018.8621 3531.2323 C 1019.0479 3531.2922 1019.2516 3531.2425 1019.3888 3531.1037 C 1019.526 3530.965 1019.5733 3530.7605 1019.5112 3530.5755 C 1019.4475 3530.3906 1019.2851 3530.2574 1019.0913 3530.2313 L 1018.9416 3530.1957 C 1018.7778 3530.1734 1018.6129 3530.1605 1018.4476 3530.157 C 1018.1358 3530.137 1017.8271 3530.086 1017.5261 3530.005 C 1017.4335 3529.9534 1017.3563 3529.8762 1017.3039 3529.783 L 1017.0955 3529.721 C 1017.3177 3528.1004 1016.937 3526.4544 1016.0258 3525.096 L 1016.2079 3524.9276 C 1016.2002 3524.822 1016.235 3524.717 1016.3036 3524.636 C 1016.5406 3524.432 1016.7976 3524.2523 1017.0677 3524.0987 C 1017.2144 3524.024 1017.3566 3523.9406 1017.4937 3523.8494 L 1017.6064 3523.7583 C 1017.7757 3523.6532 1017.8696 3523.46 1017.8477 3523.262 C 1017.8258 3523.064 1017.692 3522.896 1017.5038 3522.8306 C 1017.3157 3522.765 1017.1068 3522.8135 1016.9666 3522.955 L 1016.8524 3523.046 C 1016.7332 3523.159 1016.6206 3523.279 1016.5151 3523.405 C 1016.3114 3523.638 1016.086 3523.85 1015.8413 3524.04 C 1015.7426 3524.0802 1015.6346 3524.092 1015.5295 3524.074 L 1015.3343 3524.213 C 1014.2075 3523.032 1012.6894 3522.299 1011.0625 3522.1523 C 1011.0625 3522.075 1011.0524 3521.9593 1011.0509 3521.923 C 1010.9637 3521.863 1010.9027 3521.771 1010.8827 3521.667 C 1010.872 3521.355 1010.8916 3521.043 1010.9413 3520.7353 C 1010.9745 3520.573 1010.9976 3520.411 1011.0123 3520.2467 L 1011.0123 3520.0924 C 1011.0277 3519.796 1010.8039 3519.542 1010.5068 3519.5213 Z M 1009.8562 3523.5044 L 1009.7018 3526.2002 L 1009.6903 3526.2002 C 1009.6825 3526.367 1009.5845 3526.509 1009.434 3526.5892 C 1009.2835 3526.6695 1009.1052 3526.6456 1008.971 3526.5475 L 1006.7598 3524.981 C 1007.4636 3524.2896 1008.3465 3523.8087 1009.309 3523.5924 C 1009.4896 3523.554 1009.6717 3523.5245 1009.8546 3523.5044 Z M 1011.1435 3523.5044 C 1012.305 3523.6487 1013.3863 3524.1705 1014.2229 3524.9893 L 1012.0326 3526.546 C 1011.8975 3526.654 1011.7123 3526.6757 1011.5556 3526.6016 C 1011.399 3526.5275 1011.2986 3526.37 1011.2963 3526.197 Z M 1005.9571 3525.995 L 1007.9792 3527.7994 L 1007.9792 3527.811 C 1008.105 3527.9205 1008.1598 3528.091 1008.1228 3528.254 C 1008.0857 3528.417 1007.9607 3528.5457 1007.8009 3528.5897 L 1007.8009 3528.5974 L 1005.2062 3529.3437 C 1005.0778 3528.1747 1005.3423 3526.996 1005.9579 3525.994 Z M 1015.0279 3525.995 C 1015.6422 3526.9944 1015.9139 3528.1667 1015.8012 3529.3344 L 1013.2026 3528.586 L 1013.2026 3528.5758 C 1013.0406 3528.5318 1012.9171 3528.403 1012.8808 3528.24 C 1012.8445 3528.0772 1012.8985 3527.908 1013.0243 3527.797 L 1015.031 3526.001 Z M 1010.0854 3527.94 L 1010.9128 3527.94 L 1011.4183 3528.582 L 1011.2346 3529.3846 L 1010.4914 3529.742 L 1009.7466 3529.3846 L 1009.5714 3528.582 Z M 1012.7357 3530.13 C 1012.7704 3530.1263 1012.8129 3530.1263 1012.8399 3530.13 L 1015.5157 3530.5816 C 1015.1298 3531.693 1014.368 3532.6423 1013.374 3533.2775 L 1012.3398 3530.774 C 1012.2821 3530.6375 1012.2942 3530.4817 1012.3724 3530.356 C 1012.4505 3530.2302 1012.5848 3530.1503 1012.7326 3530.1417 Z M 1008.2416 3530.1417 C 1008.3929 3530.144 1008.5326 3530.222 1008.6152 3530.3486 C 1008.6977 3530.475 1008.7109 3530.634 1008.6514 3530.773 L 1008.6514 3530.783 L 1007.6234 3533.2667 C 1006.6394 3532.636 1005.8923 3531.6984 1005.4949 3530.5986 L 1008.1475 3530.1487 C 1008.1768 3530.1456 1008.2069 3530.1456 1008.237 3530.1487 Z M 1010.4829 3531.2222 C 1010.6548 3531.217 1010.8152 3531.3088 1010.8973 3531.46 L 1010.9073 3531.46 L 1012.2147 3533.8193 L 1011.6922 3533.9736 C 1010.7306 3534.1936 1009.7265 3534.142 1008.7919 3533.824 L 1010.1039 3531.4646 C 1010.1834 3531.3256 1010.33 3531.2407 1010.4898 3531.237 Z" fill="white"/>
          <path d="M 1010.4998 3519.5174 C 1010.2035 3519.5382 1009.9789 3519.792 1009.9943 3520.0885 L 1009.9943 3520.2336 C 1010.0082 3520.398 1010.0329 3520.561 1010.0653 3520.722 C 1010.1127 3521.031 1010.1297 3521.344 1010.1163 3521.656 C 1010.087 3521.7586 1010.0283 3521.8513 1009.948 3521.9223 L 1009.9364 3522.14 C 1009.6239 3522.166 1009.3136 3522.214 1009.008 3522.2835 C 1007.7222 3522.5736 1006.5514 3523.2405 1005.6477 3524.2013 L 1005.4624 3524.07 C 1005.3606 3524.101 1005.251 3524.0894 1005.1576 3524.0393 C 1004.9071 3523.854 1004.6752 3523.6445 1004.4653 3523.414 C 1004.3598 3523.288 1004.2472 3523.1683 1004.128 3523.0552 L 1004.0138 3522.964 C 1003.9119 3522.8824 1003.7869 3522.8353 1003.6565 3522.829 C 1003.4986 3522.8207 1003.3462 3522.8884 1003.2467 3523.0112 C 1003.0722 3523.256 1003.1293 3523.5947 1003.3732 3523.77 L 1003.4797 3523.855 C 1003.6168 3523.946 1003.7591 3524.0292 1003.9058 3524.104 C 1004.179 3524.256 1004.4367 3524.4344 1004.676 3524.6443 C 1004.7372 3524.7316 1004.7728 3524.8343 1004.7786 3524.9407 L 1004.9469 3525.095 C 1004.0385 3526.458 1003.6657 3528.109 1003.8988 3529.7304 L 1003.6827 3529.792 C 1003.6264 3529.8816 1003.5515 3529.958 1003.462 3530.0144 C 1003.1605 3530.095 1002.8519 3530.146 1002.5405 3530.1664 C 1002.3752 3530.1698 1002.2103 3530.1827 1002.0465 3530.205 L 1001.9099 3530.236 L 1001.8945 3530.236 C 1001.7012 3530.2627 1001.5394 3530.396 1001.4763 3530.581 C 1001.4131 3530.7655 1001.4594 3530.97 1001.5958 3531.1095 C 1001.7335 3531.2484 1001.9378 3531.2977 1002.1237 3531.237 L 1002.1337 3531.237 L 1002.2727 3531.2214 C 1002.4293 3531.175 1002.5837 3531.118 1002.7342 3531.053 C 1003.0236 3530.9374 1003.3238 3530.8487 1003.631 3530.791 C 1003.7375 3530.797 1003.8394 3530.8332 1003.9258 3530.895 L 1004.1574 3530.8564 C 1004.659 3532.413 1005.7133 3533.732 1007.121 3534.5633 L 1007.0268 3534.76 C 1007.07 3534.8504 1007.0863 3534.9507 1007.0731 3535.0502 C 1006.9458 3535.345 1006.7899 3535.6275 1006.6078 3535.893 C 1006.5078 3536.0247 1006.4156 3536.162 1006.3315 3536.3044 L 1006.2659 3536.4433 C 1006.1688 3536.6117 1006.1743 3536.82 1006.2802 3536.983 C 1006.386 3537.146 1006.5742 3537.236 1006.7675 3537.216 C 1006.9613 3537.194 1007.1263 3537.065 1007.1943 3536.8825 L 1007.2584 3536.7513 C 1007.317 3536.597 1007.3664 3536.4395 1007.4066 3536.2805 C 1007.5432 3535.943 1007.6172 3535.5812 1007.804 3535.3574 C 1007.8651 3535.3 1007.942 3535.2624 1008.0247 3535.2494 L 1008.1405 3535.0387 C 1009.6665 3535.6252 1011.355 3535.6293 1012.8839 3535.0502 L 1012.9865 3535.247 C 1013.0915 3535.2625 1013.1856 3535.3204 1013.2489 3535.4053 C 1013.394 3535.6816 1013.5113 3535.971 1013.6009 3536.2697 C 1013.6417 3536.4296 1013.6917 3536.587 1013.7506 3536.7412 L 1013.8146 3536.8724 C 1013.8833 3537.0544 1014.0484 3537.1825 1014.2417 3537.204 C 1014.435 3537.225 1014.624 3537.136 1014.7307 3536.9735 C 1014.8364 3536.81 1014.8412 3536.6008 1014.7431 3536.4325 L 1014.676 3536.2936 C 1014.5918 3536.1518 1014.4996 3536.015 1014.3997 3535.8838 C 1014.2221 3535.6275 1014.0693 3535.3543 1013.9366 3535.068 C 1013.9116 3534.9622 1013.9305 3534.851 1013.9891 3534.7593 C 1013.9561 3534.692 1013.9275 3534.6226 1013.9034 3534.5517 C 1015.308 3533.7143 1016.3577 3532.3907 1016.8539 3530.8317 L 1017.0731 3530.8703 C 1017.1518 3530.7985 1017.2552 3530.7607 1017.361 3530.7638 C 1017.6674 3530.8224 1017.9676 3530.918 1018.2578 3531.026 C 1018.4083 3531.0956 1018.5626 3531.1543 1018.7193 3531.2037 C 1018.7564 3531.2137 1018.8104 3531.2222 1018.852 3531.2323 L 1018.8621 3531.2323 C 1019.0479 3531.2922 1019.2516 3531.2425 1019.3888 3531.1037 C 1019.526 3530.965 1019.5733 3530.7605 1019.5112 3530.5755 C 1019.4475 3530.3906 1019.2851 3530.2574 1019.0913 3530.2313 L 1018.9416 3530.1957 C 1018.7778 3530.1734 1018.6129 3530.1605 1018.4476 3530.157 C 1018.1358 3530.137 1017.8271 3530.086 1017.5261 3530.005 C 1017.4335 3529.9534 1017.3563 3529.8762 1017.3039 3529.783 L 1017.0955 3529.721 C 1017.3177 3528.1004 1016.937 3526.4544 1016.0258 3525.096 L 1016.2079 3524.9276 C 1016.2002 3524.822 1016.235 3524.717 1016.3036 3524.636 C 1016.5406 3524.432 1016.7976 3524.2523 1017.0677 3524.0987 C 1017.2144 3524.024 1017.3566 3523.9406 1017.4937 3523.8494 L 1017.6064 3523.7583 C 1017.7757 3523.6532 1017.8696 3523.46 1017.8477 3523.262 C 1017.8258 3523.064 1017.692 3522.896 1017.5038 3522.8306 C 1017.3157 3522.765 1017.1068 3522.8135 1016.9666 3522.955 L 1016.8524 3523.046 C 1016.7332 3523.159 1016.6206 3523.279 1016.5151 3523.405 C 1016.3114 3523.638 1016.086 3523.85 1015.8413 3524.04 C 1015.7426 3524.0802 1015.6346 3524.092 1015.5295 3524.074 L 1015.3343 3524.213 C 1014.2075 3523.032 1012.6894 3522.299 1011.0625 3522.1523 C 1011.0625 3522.075 1011.0524 3521.9593 1011.0509 3521.923 C 1010.9637 3521.863 1010.9027 3521.771 1010.8827 3521.667 C 1010.872 3521.355 1010.8916 3521.043 1010.9413 3520.7353 C 1010.9745 3520.573 1010.9976 3520.411 1011.0123 3520.2467 L 1011.0123 3520.0924 C 1011.0277 3519.796 1010.8039 3519.542 1010.5068 3519.5213 Z M 1009.8562 3523.5044 L 1009.7018 3526.2002 L 1009.6903 3526.2002 C 1009.6825 3526.367 1009.5845 3526.509 1009.434 3526.5892 C 1009.2835 3526.6695 1009.1052 3526.6456 1008.971 3526.5475 L 1006.7598 3524.981 C 1007.4636 3524.2896 1008.3465 3523.8087 1009.309 3523.5924 C 1009.4896 3523.554 1009.6717 3523.5245 1009.8546 3523.5044 Z M 1011.1435 3523.5044 C 1012.305 3523.6487 1013.3863 3524.1705 1014.2229 3524.9893 L 1012.0326 3526.546 C 1011.8975 3526.654 1011.7123 3526.6757 1011.5556 3526.6016 C 1011.399 3526.5275 1011.2986 3526.37 1011.2963 3526.197 Z M 1005.9571 3525.995 L 1007.9792 3527.7994 L 1007.9792 3527.811 C 1008.105 3527.9205 1008.1598 3528.091 1008.1228 3528.254 C 1008.0857 3528.417 1007.9607 3528.5457 1007.8009 3528.5897 L 1007.8009 3528.5974 L 1005.2062 3529.3437 C 1005.0778 3528.1747 1005.3423 3526.996 1005.9579 3525.994 Z M 1015.0279 3525.995 C 1015.6422 3526.9944 1015.9139 3528.1667 1015.8012 3529.3344 L 1013.2026 3528.586 L 1013.2026 3528.5758 C 1013.0406 3528.5318 1012.9171 3528.403 1012.8808 3528.24 C 1012.8445 3528.0772 1012.8985 3527.908 1013.0243 3527.797 L 1015.031 3526.001 Z M 1010.0854 3527.94 L 1010.9128 3527.94 L 1011.4183 3528.582 L 1011.2346 3529.3846 L 1010.4914 3529.742 L 1009.7466 3529.3846 L 1009.5714 3528.582 Z M 1012.7357 3530.13 C 1012.7704 3530.1263 1012.8129 3530.1263 1012.8399 3530.13 L 1015.5157 3530.5816 C 1015.1298 3531.693 1014.368 3532.6423 1013.374 3533.2775 L 1012.3398 3530.774 C 1012.2821 3530.6375 1012.2942 3530.4817 1012.3724 3530.356 C 1012.4505 3530.2302 1012.5848 3530.1503 1012.7326 3530.1417 Z M 1008.2416 3530.1417 C 1008.3929 3530.144 1008.5326 3530.222 1008.6152 3530.3486 C 1008.6977 3530.475 1008.7109 3530.634 1008.6514 3530.773 L 1008.6514 3530.783 L 1007.6234 3533.2667 C 1006.6394 3532.636 1005.8923 3531.6984 1005.4949 3530.5986 L 1008.1475 3530.1487 C 1008.1768 3530.1456 1008.2069 3530.1456 1008.237 3530.1487 Z M 1010.4829 3531.2222 C 1010.6548 3531.217 1010.8152 3531.3088 1010.8973 3531.46 L 1010.9073 3531.46 L 1012.2147 3533.8193 L 1011.6922 3533.9736 C 1010.7306 3534.1936 1009.7265 3534.142 1008.7919 3533.824 L 1010.1039 3531.4646 C 1010.1834 3531.3256 1010.33 3531.2407 1010.4898 3531.237 Z" stroke="white" stroke-linecap="butt" stroke-linejoin="round" stroke-width=".055"/>
        </g>
      </g>
      <g id="Line_56">
        <line x1="1062.2835" y1="3506.4567" x2="1062.2835" y2="3391.6536" stroke="black" stroke-linecap="round" stroke-linejoin="round" stroke-width="1"/>
      </g>
      <g id="Line_69">
        <path d="M 586.7929 3595.748 L 540.0374 3595.748 L 540.0374 3686.4567 L 588.21024 3686.4567" marker-end="url(#FilledArrow_Marker)" marker-start="url(#FilledArrow_Marker_2)" stroke="black" stroke-linecap="round" stroke-linejoin="round" stroke-dasharray="4.0,4.0" stroke-width="1"/>
      </g>
      <g id="Line_72">
        <path d="M 540.0374 3675.4603 L 540.0374 3758.9888 L 887.9213 3758.9888 L 887.9213 3686.4567 L 946.7929 3686.4567" marker-end="url(#FilledArrow_Marker)" stroke="black" stroke-linecap="round" stroke-linejoin="round" stroke-dasharray="4.0,4.0" stroke-width="1"/>
      </g>
      <g id="Line_73">
        <path d="M 887.9213 3692.6966 L 887.9213 3682.6966 L 888.0899 3625.293 L 888.0899 3595.748 L 946.7929 3595.748" marker-end="url(#FilledArrow_Marker)" stroke="black" stroke-linecap="round" stroke-linejoin="round" stroke-dasharray="4.0,4.0" stroke-width="1"/>
      </g>
      <g id="Line_74">
        <path d="M 540.0374 3690.94 L 540.0374 3691.9225 L 539.7935 3691.9225 L 403.9551 3692.126 L 398.9551 3692.126" marker-end="url(#FilledArrow_Marker)" stroke="black" stroke-linecap="round" stroke-linejoin="round" stroke-dasharray="4.0,4.0" stroke-width="1"/>
      </g>
    </g>
  </g>
</svg>
