<?xml version="1.0" encoding="UTF-8" standalone="no"?>
<!DOCTYPE svg PUBLIC "-//W3C//DTD SVG 1.1//EN" "http://www.w3.org/Graphics/SVG/1.1/DTD/svg11.dtd">
<svg xmlns="http://www.w3.org/2000/svg" xmlns:xl="http://www.w3.org/1999/xlink" xmlns:dc="http://purl.org/dc/elements/1.1/" version="1.1" viewBox="384 3876 992 403" width="992" height="403">
  <defs>
    <marker orient="auto" overflow="visible" markerUnits="strokeWidth" id="FilledArrow_Marker" stroke-linejoin="miter" stroke-miterlimit="10" viewBox="-1 -4 10 8" markerWidth="10" markerHeight="8" color="black">
      <g>
        <path d="M 8 0 L 0 -3 L 0 3 Z" fill="currentColor" stroke="currentColor" stroke-width="1"/>
      </g>
    </marker>
  </defs>
  <g id="service-to-service-authorization" fill-opacity="1" stroke="none" stroke-opacity="1" fill="none" stroke-dasharray="none">
    <title>service-to-service-authorization</title>
    <rect fill="white" x="384" y="3876" width="992" height="403"/>
    <g id="service-to-service-authorization_Layer_1">
      <title>Layer 1</title>
      <g id="Graphic_64"/>
      <g id="Graphic_37">
        <path d="M 410.5197 3907.559 L 825.0315 3907.559 C 829.4498 3907.559 833.0315 3911.141 833.0315 3915.559 L 833.0315 4137.6693 C 833.0315 4142.0876 829.4498 4145.6693 825.0315 4145.6693 L 410.5197 4145.6693 C 406.1014 4145.6693 402.5197 4142.0876 402.5197 4137.6693 L 402.5197 3915.559 C 402.5197 3911.141 406.1014 3907.559 410.5197 3907.559 Z" fill="#f4f4f4"/>
        <text transform="translate(407.5197 3921.559)" fill="black">
          <tspan font-family="Helvetica Neue" font-weight="bold" font-size="16" fill="black" x="176.0319" y="16">Cluster 1</tspan>
        </text>
      </g>
      <g id="Group_21">
        <g id="Graphic_23">
          <path d="M 566.44474 3917.4817 C 566.2239 3917.4947 566.0079 3917.552 565.8096 3917.65 L 557.2081 3921.7527 C 556.7589 3921.9665 556.43243 3922.3732 556.3205 3922.858 L 554.2151 3932.066 C 554.1148 3932.498 554.1958 3932.9513 554.44664 3933.3217 C 554.476 3933.3665 554.50684 3933.4097 554.53926 3933.4514 L 560.482 3940.8404 C 560.7961 3941.2263 561.26764 3941.448 561.7647 3941.4455 L 571.29616 3941.4455 C 571.7947 3941.4463 572.26706 3941.214 572.5804 3940.8335 L 578.52 3933.443 C 578.8318 3933.057 578.94836 3932.5476 578.82874 3932.0645 L 576.7094 3922.8487 C 576.5975 3922.364 576.2695 3921.9573 575.8219 3921.7435 L 567.2343 3917.6507 C 566.9868 3917.5287 566.7127 3917.4706 566.437 3917.4817 Z" fill="#326ce5"/>
        </g>
        <g id="Graphic_22">
          <path d="M 566.5235 3920.6198 C 566.2271 3920.6406 566.0025 3920.8945 566.01795 3921.191 L 566.01795 3921.336 C 566.03184 3921.5004 566.05654 3921.663 566.08895 3921.8245 C 566.1363 3922.1334 566.15335 3922.446 566.1399 3922.7584 C 566.11056 3922.861 566.0519 3922.9536 565.97164 3923.0246 L 565.9601 3923.2423 C 565.6475 3923.2685 565.33724 3923.3164 565.0316 3923.386 C 563.7458 3923.676 562.57504 3924.343 561.6713 3925.3037 L 561.48605 3925.1725 C 561.3842 3925.2034 561.2746 3925.192 561.1812 3925.1416 C 560.9307 3924.956 560.69884 3924.747 560.4889 3924.5165 C 560.38347 3924.3905 560.27086 3924.2707 560.15165 3924.1576 L 560.0374 3924.0665 C 559.93555 3923.9847 559.8105 3923.9376 559.6801 3923.9315 C 559.5222 3923.923 559.36985 3923.991 559.2703 3924.1136 C 559.09585 3924.3583 559.15296 3924.697 559.39684 3924.8723 L 559.50335 3924.957 C 559.64045 3925.0484 559.7827 3925.1316 559.9294 3925.2064 C 560.2026 3925.3585 560.46036 3925.537 560.6996 3925.7467 C 560.7608 3925.834 560.7964 3925.9366 560.80226 3926.043 L 560.9705 3926.1974 C 560.0621 3927.5604 559.68935 3929.211 559.9224 3930.8327 L 559.7063 3930.8945 C 559.65 3930.984 559.5751 3931.0604 559.4856 3931.1167 C 559.1841 3931.1973 558.8755 3931.248 558.5641 3931.269 C 558.39884 3931.272 558.2339 3931.285 558.07015 3931.3074 L 557.93355 3931.3382 L 557.9181 3931.3382 C 557.7248 3931.365 557.56304 3931.4985 557.4999 3931.683 C 557.4368 3931.868 557.483 3932.0723 557.6194 3932.212 C 557.75716 3932.351 557.96144 3932.4 558.1473 3932.3392 L 558.15736 3932.3392 L 558.2963 3932.324 C 558.45296 3932.2775 558.6073 3932.2204 558.7578 3932.1556 C 559.0472 3932.04 559.34745 3931.951 559.6546 3931.893 C 559.7611 3931.8993 559.863 3931.9356 559.94944 3931.9973 L 560.181 3931.9588 C 560.6826 3933.5154 561.7369 3934.8344 563.1446 3935.6656 L 563.05045 3935.8624 C 563.0937 3935.9527 563.1099 3936.053 563.09676 3936.1526 C 562.9694 3936.4474 562.8135 3936.73 562.6314 3936.9954 C 562.53146 3937.127 562.4392 3937.2644 562.3551 3937.4068 L 562.2895 3937.5457 C 562.1924 3937.714 562.19795 3937.9226 562.3038 3938.0855 C 562.4096 3938.2485 562.5979 3938.3384 562.79114 3938.318 C 562.9849 3938.2964 563.1499 3938.1675 563.2179 3937.985 L 563.282 3937.8536 C 563.34064 3937.6993 563.39004 3937.542 563.4302 3937.383 C 563.5668 3937.0456 563.64087 3936.6836 563.82764 3936.46 C 563.8887 3936.4024 563.9656 3936.3647 564.04837 3936.3517 L 564.1641 3936.141 C 565.6901 3936.7276 567.37866 3936.7317 568.9075 3936.1526 L 569.01014 3936.3494 C 569.1151 3936.365 569.20926 3936.4227 569.27255 3936.5076 C 569.41764 3936.784 569.53495 3937.0733 569.6245 3937.372 C 569.6653 3937.532 569.7153 3937.6894 569.7742 3937.8436 L 569.83826 3937.975 C 569.90695 3938.157 570.072 3938.285 570.2653 3938.306 C 570.4587 3938.3275 570.64764 3938.2385 570.7544 3938.076 C 570.86005 3937.9123 570.8648 3937.703 570.7667 3937.535 L 570.6996 3937.396 C 570.61544 3937.254 570.5232 3937.1173 570.4233 3936.986 C 570.24576 3936.73 570.09295 3936.4567 569.9602 3936.1704 C 569.9352 3936.0646 569.9541 3935.953 570.0127 3935.8617 C 569.97976 3935.7943 569.95114 3935.725 569.927 3935.654 C 571.33166 3934.8167 572.3813 3933.493 572.87754 3931.934 L 573.0967 3931.9727 C 573.17544 3931.901 573.27886 3931.863 573.3846 3931.866 C 573.691 3931.925 573.9912 3932.0205 574.2814 3932.1286 C 574.4319 3932.198 574.58626 3932.2567 574.7429 3932.306 C 574.78 3932.316 574.834 3932.3246 574.8757 3932.3346 L 574.8857 3932.3346 C 575.0715 3932.3946 575.2752 3932.345 575.4124 3932.206 C 575.5496 3932.067 575.59696 3931.863 575.5348 3931.678 C 575.47116 3931.493 575.3087 3931.3597 575.1149 3931.3336 L 574.9652 3931.298 C 574.80144 3931.276 574.6365 3931.263 574.47126 3931.2595 C 574.15946 3931.2395 573.85075 3931.1885 573.54976 3931.1075 C 573.45714 3931.056 573.37997 3930.9786 573.3275 3930.885 L 573.1191 3930.8235 C 573.3413 3929.2027 572.96064 3927.557 572.0494 3926.198 L 572.23156 3926.03 C 572.22384 3925.924 572.2586 3925.8192 572.32726 3925.738 C 572.5642 3925.5345 572.8212 3925.3546 573.0913 3925.201 C 573.238 3925.126 573.3802 3925.043 573.51734 3924.9518 L 573.63 3924.8607 C 573.79935 3924.7556 573.8932 3924.5626 573.8713 3924.3645 C 573.8494 3924.1664 573.7156 3923.9985 573.5274 3923.933 C 573.3393 3923.8676 573.1304 3923.916 572.9902 3924.0573 L 572.876 3924.1483 C 572.7568 3924.2614 572.6442 3924.3812 572.5387 3924.507 C 572.335 3924.7403 572.1096 3924.9525 571.86496 3925.1424 C 571.7662 3925.1826 571.6582 3925.1944 571.55316 3925.1764 L 571.3579 3925.3153 C 570.2311 3924.1344 568.713 3923.4013 567.0861 3923.2546 C 567.0861 3923.1774 567.07606 3923.0617 567.0745 3923.0254 C 566.9873 3922.965 566.92634 3922.8734 566.9063 3922.769 C 566.89556 3922.4575 566.9152 3922.1455 566.9649 3921.8376 C 566.9981 3921.6756 567.02126 3921.5135 567.0359 3921.349 L 567.0359 3921.1947 C 567.05136 3920.8984 566.82755 3920.6445 566.5304 3920.6236 Z M 565.8798 3924.607 L 565.72545 3927.3026 L 565.7139 3927.3026 C 565.70615 3927.4693 565.60813 3927.6113 565.45764 3927.6916 C 565.30714 3927.772 565.12886 3927.748 564.9946 3927.65 L 562.7834 3926.083 C 563.4872 3925.392 564.3701 3924.911 565.3326 3924.6948 C 565.5132 3924.656 565.69535 3924.627 565.87826 3924.607 Z M 567.1671 3924.607 C 568.32866 3924.751 569.4099 3925.273 570.24654 3926.0917 L 568.0562 3927.6484 C 567.92116 3927.7564 567.7359 3927.778 567.57926 3927.704 C 567.4226 3927.63 567.32226 3927.4724 567.31994 3927.2995 Z M 561.98077 3927.0973 L 564.0028 3928.9017 L 564.0028 3928.9133 C 564.1286 3929.023 564.1834 3929.1935 564.1464 3929.3563 C 564.10934 3929.519 563.9843 3929.648 563.82455 3929.692 L 563.82455 3929.6998 L 561.2298 3930.446 C 561.1014 3929.277 561.3659 3928.0986 561.98154 3927.0965 Z M 571.0515 3927.0973 C 571.66584 3928.097 571.9375 3929.269 571.8248 3930.437 L 569.22624 3929.688 L 569.22624 3929.678 C 569.0642 3929.634 568.9407 3929.5053 568.9044 3929.3424 C 568.86814 3929.1796 568.92216 3929.0106 569.04796 3928.8994 L 571.0546 3927.1035 Z M 566.109 3929.042 L 566.9364 3929.042 L 567.4419 3929.6843 L 567.2582 3930.487 L 566.515 3930.8443 L 565.7702 3930.487 L 565.595 3929.6843 Z M 568.7593 3931.2325 C 568.79405 3931.2287 568.8365 3931.2287 568.8635 3931.2325 L 571.5393 3931.684 C 571.1534 3932.7954 570.3916 3933.7447 569.3976 3934.38 L 568.3634 3931.876 C 568.3057 3931.74 568.31784 3931.584 568.396 3931.4583 C 568.4741 3931.3326 568.60846 3931.2527 568.7562 3931.244 Z M 564.26524 3931.244 C 564.4165 3931.2464 564.5562 3931.3244 564.6388 3931.451 C 564.72136 3931.5775 564.7345 3931.7365 564.67505 3931.8754 L 564.67505 3931.8854 L 563.64704 3934.369 C 562.663 3933.7385 561.91594 3932.801 561.5185 3931.701 L 564.1711 3931.251 C 564.2004 3931.248 564.2305 3931.248 564.2606 3931.251 Z M 566.5065 3932.3246 C 566.67845 3932.319 566.8388 3932.411 566.9209 3932.5623 L 566.931 3932.5623 L 568.23836 3934.9216 L 567.7159 3935.076 C 566.7542 3935.296 565.75014 3935.244 564.8155 3934.9263 L 566.12754 3932.567 C 566.20704 3932.428 566.3537 3932.343 566.5134 3932.3392 Z" fill="white"/>
          <path d="M 566.5235 3920.6198 C 566.2271 3920.6406 566.0025 3920.8945 566.01795 3921.191 L 566.01795 3921.336 C 566.03184 3921.5004 566.05654 3921.663 566.08895 3921.8245 C 566.1363 3922.1334 566.15335 3922.446 566.1399 3922.7584 C 566.11056 3922.861 566.0519 3922.9536 565.97164 3923.0246 L 565.9601 3923.2423 C 565.6475 3923.2685 565.33724 3923.3164 565.0316 3923.386 C 563.7458 3923.676 562.57504 3924.343 561.6713 3925.3037 L 561.48605 3925.1725 C 561.3842 3925.2034 561.2746 3925.192 561.1812 3925.1416 C 560.9307 3924.956 560.69884 3924.747 560.4889 3924.5165 C 560.38347 3924.3905 560.27086 3924.2707 560.15165 3924.1576 L 560.0374 3924.0665 C 559.93555 3923.9847 559.8105 3923.9376 559.6801 3923.9315 C 559.5222 3923.923 559.36985 3923.991 559.2703 3924.1136 C 559.09585 3924.3583 559.15296 3924.697 559.39684 3924.8723 L 559.50335 3924.957 C 559.64045 3925.0484 559.7827 3925.1316 559.9294 3925.2064 C 560.2026 3925.3585 560.46036 3925.537 560.6996 3925.7467 C 560.7608 3925.834 560.7964 3925.9366 560.80226 3926.043 L 560.9705 3926.1974 C 560.0621 3927.5604 559.68935 3929.211 559.9224 3930.8327 L 559.7063 3930.8945 C 559.65 3930.984 559.5751 3931.0604 559.4856 3931.1167 C 559.1841 3931.1973 558.8755 3931.248 558.5641 3931.269 C 558.39884 3931.272 558.2339 3931.285 558.07015 3931.3074 L 557.93355 3931.3382 L 557.9181 3931.3382 C 557.7248 3931.365 557.56304 3931.4985 557.4999 3931.683 C 557.4368 3931.868 557.483 3932.0723 557.6194 3932.212 C 557.75716 3932.351 557.96144 3932.4 558.1473 3932.3392 L 558.15736 3932.3392 L 558.2963 3932.324 C 558.45296 3932.2775 558.6073 3932.2204 558.7578 3932.1556 C 559.0472 3932.04 559.34745 3931.951 559.6546 3931.893 C 559.7611 3931.8993 559.863 3931.9356 559.94944 3931.9973 L 560.181 3931.9588 C 560.6826 3933.5154 561.7369 3934.8344 563.1446 3935.6656 L 563.05045 3935.8624 C 563.0937 3935.9527 563.1099 3936.053 563.09676 3936.1526 C 562.9694 3936.4474 562.8135 3936.73 562.6314 3936.9954 C 562.53146 3937.127 562.4392 3937.2644 562.3551 3937.4068 L 562.2895 3937.5457 C 562.1924 3937.714 562.19795 3937.9226 562.3038 3938.0855 C 562.4096 3938.2485 562.5979 3938.3384 562.79114 3938.318 C 562.9849 3938.2964 563.1499 3938.1675 563.2179 3937.985 L 563.282 3937.8536 C 563.34064 3937.6993 563.39004 3937.542 563.4302 3937.383 C 563.5668 3937.0456 563.64087 3936.6836 563.82764 3936.46 C 563.8887 3936.4024 563.9656 3936.3647 564.04837 3936.3517 L 564.1641 3936.141 C 565.6901 3936.7276 567.37866 3936.7317 568.9075 3936.1526 L 569.01014 3936.3494 C 569.1151 3936.365 569.20926 3936.4227 569.27255 3936.5076 C 569.41764 3936.784 569.53495 3937.0733 569.6245 3937.372 C 569.6653 3937.532 569.7153 3937.6894 569.7742 3937.8436 L 569.83826 3937.975 C 569.90695 3938.157 570.072 3938.285 570.2653 3938.306 C 570.4587 3938.3275 570.64764 3938.2385 570.7544 3938.076 C 570.86005 3937.9123 570.8648 3937.703 570.7667 3937.535 L 570.6996 3937.396 C 570.61544 3937.254 570.5232 3937.1173 570.4233 3936.986 C 570.24576 3936.73 570.09295 3936.4567 569.9602 3936.1704 C 569.9352 3936.0646 569.9541 3935.953 570.0127 3935.8617 C 569.97976 3935.7943 569.95114 3935.725 569.927 3935.654 C 571.33166 3934.8167 572.3813 3933.493 572.87754 3931.934 L 573.0967 3931.9727 C 573.17544 3931.901 573.27886 3931.863 573.3846 3931.866 C 573.691 3931.925 573.9912 3932.0205 574.2814 3932.1286 C 574.4319 3932.198 574.58626 3932.2567 574.7429 3932.306 C 574.78 3932.316 574.834 3932.3246 574.8757 3932.3346 L 574.8857 3932.3346 C 575.0715 3932.3946 575.2752 3932.345 575.4124 3932.206 C 575.5496 3932.067 575.59696 3931.863 575.5348 3931.678 C 575.47116 3931.493 575.3087 3931.3597 575.1149 3931.3336 L 574.9652 3931.298 C 574.80144 3931.276 574.6365 3931.263 574.47126 3931.2595 C 574.15946 3931.2395 573.85075 3931.1885 573.54976 3931.1075 C 573.45714 3931.056 573.37997 3930.9786 573.3275 3930.885 L 573.1191 3930.8235 C 573.3413 3929.2027 572.96064 3927.557 572.0494 3926.198 L 572.23156 3926.03 C 572.22384 3925.924 572.2586 3925.8192 572.32726 3925.738 C 572.5642 3925.5345 572.8212 3925.3546 573.0913 3925.201 C 573.238 3925.126 573.3802 3925.043 573.51734 3924.9518 L 573.63 3924.8607 C 573.79935 3924.7556 573.8932 3924.5626 573.8713 3924.3645 C 573.8494 3924.1664 573.7156 3923.9985 573.5274 3923.933 C 573.3393 3923.8676 573.1304 3923.916 572.9902 3924.0573 L 572.876 3924.1483 C 572.7568 3924.2614 572.6442 3924.3812 572.5387 3924.507 C 572.335 3924.7403 572.1096 3924.9525 571.86496 3925.1424 C 571.7662 3925.1826 571.6582 3925.1944 571.55316 3925.1764 L 571.3579 3925.3153 C 570.2311 3924.1344 568.713 3923.4013 567.0861 3923.2546 C 567.0861 3923.1774 567.07606 3923.0617 567.0745 3923.0254 C 566.9873 3922.965 566.92634 3922.8734 566.9063 3922.769 C 566.89556 3922.4575 566.9152 3922.1455 566.9649 3921.8376 C 566.9981 3921.6756 567.02126 3921.5135 567.0359 3921.349 L 567.0359 3921.1947 C 567.05136 3920.8984 566.82755 3920.6445 566.5304 3920.6236 Z M 565.8798 3924.607 L 565.72545 3927.3026 L 565.7139 3927.3026 C 565.70615 3927.4693 565.60813 3927.6113 565.45764 3927.6916 C 565.30714 3927.772 565.12886 3927.748 564.9946 3927.65 L 562.7834 3926.083 C 563.4872 3925.392 564.3701 3924.911 565.3326 3924.6948 C 565.5132 3924.656 565.69535 3924.627 565.87826 3924.607 Z M 567.1671 3924.607 C 568.32866 3924.751 569.4099 3925.273 570.24654 3926.0917 L 568.0562 3927.6484 C 567.92116 3927.7564 567.7359 3927.778 567.57926 3927.704 C 567.4226 3927.63 567.32226 3927.4724 567.31994 3927.2995 Z M 561.98077 3927.0973 L 564.0028 3928.9017 L 564.0028 3928.9133 C 564.1286 3929.023 564.1834 3929.1935 564.1464 3929.3563 C 564.10934 3929.519 563.9843 3929.648 563.82455 3929.692 L 563.82455 3929.6998 L 561.2298 3930.446 C 561.1014 3929.277 561.3659 3928.0986 561.98154 3927.0965 Z M 571.0515 3927.0973 C 571.66584 3928.097 571.9375 3929.269 571.8248 3930.437 L 569.22624 3929.688 L 569.22624 3929.678 C 569.0642 3929.634 568.9407 3929.5053 568.9044 3929.3424 C 568.86814 3929.1796 568.92216 3929.0106 569.04796 3928.8994 L 571.0546 3927.1035 Z M 566.109 3929.042 L 566.9364 3929.042 L 567.4419 3929.6843 L 567.2582 3930.487 L 566.515 3930.8443 L 565.7702 3930.487 L 565.595 3929.6843 Z M 568.7593 3931.2325 C 568.79405 3931.2287 568.8365 3931.2287 568.8635 3931.2325 L 571.5393 3931.684 C 571.1534 3932.7954 570.3916 3933.7447 569.3976 3934.38 L 568.3634 3931.876 C 568.3057 3931.74 568.31784 3931.584 568.396 3931.4583 C 568.4741 3931.3326 568.60846 3931.2527 568.7562 3931.244 Z M 564.26524 3931.244 C 564.4165 3931.2464 564.5562 3931.3244 564.6388 3931.451 C 564.72136 3931.5775 564.7345 3931.7365 564.67505 3931.8754 L 564.67505 3931.8854 L 563.64704 3934.369 C 562.663 3933.7385 561.91594 3932.801 561.5185 3931.701 L 564.1711 3931.251 C 564.2004 3931.248 564.2305 3931.248 564.2606 3931.251 Z M 566.5065 3932.3246 C 566.67845 3932.319 566.8388 3932.411 566.9209 3932.5623 L 566.931 3932.5623 L 568.23836 3934.9216 L 567.7159 3935.076 C 566.7542 3935.296 565.75014 3935.244 564.8155 3934.9263 L 566.12754 3932.567 C 566.20704 3932.428 566.3537 3932.343 566.5134 3932.3392 Z" stroke="white" stroke-linecap="butt" stroke-linejoin="round" stroke-width=".055"/>
        </g>
      </g>
      <g id="Graphic_19">
        <path d="M 436.0315 3964.252 L 517.8268 3964.252 C 522.24505 3964.252 525.8268 3967.8337 525.8268 3972.252 L 525.8268 4035.622 C 525.8268 4040.0404 522.24505 4043.622 517.8268 4043.622 L 436.0315 4043.622 C 431.6132 4043.622 428.0315 4040.0404 428.0315 4035.622 L 428.0315 3972.252 C 428.0315 3967.8337 431.6132 3964.252 436.0315 3964.252 Z" fill="#666"/>
        <text transform="translate(433.0315 3994.713)" fill="white">
          <tspan font-family="Helvetica Neue" font-size="16" fill="white" x="30.713636" y="15">curl</tspan>
        </text>
      </g>
      <g id="Graphic_18">
        <path d="M 934.9291 3907.559 L 1349.441 3907.559 C 1353.8592 3907.559 1357.441 3911.141 1357.441 3915.559 L 1357.441 4137.6693 C 1357.441 4142.0876 1353.8592 4145.6693 1349.441 4145.6693 L 934.9291 4145.6693 C 930.5109 4145.6693 926.9291 4142.0876 926.9291 4137.6693 L 926.9291 3915.559 C 926.9291 3911.141 930.5109 3907.559 934.9291 3907.559 Z" fill="#f4f4f4"/>
        <text transform="translate(931.9291 3921.559)" fill="black">
          <tspan font-family="Helvetica Neue" font-weight="bold" font-size="16" fill="black" x="176.0319" y="16">Cluster 2</tspan>
        </text>
      </g>
      <g id="Group_7">
        <g id="Graphic_9">
          <path d="M 1090.8542 3917.4817 C 1090.6333 3917.4947 1090.4173 3917.552 1090.219 3917.65 L 1081.6175 3921.7527 C 1081.1684 3921.9665 1080.8419 3922.3732 1080.73 3922.858 L 1078.6246 3932.066 C 1078.5242 3932.498 1078.6053 3932.9513 1078.8561 3933.3217 C 1078.8854 3933.3665 1078.9163 3933.4097 1078.9487 3933.4514 L 1084.8914 3940.8404 C 1085.2055 3941.2263 1085.6771 3941.448 1086.1741 3941.4455 L 1095.7056 3941.4455 C 1096.2042 3941.4463 1096.6765 3941.214 1096.9899 3940.8335 L 1102.9295 3933.443 C 1103.2413 3933.057 1103.3578 3932.5476 1103.2382 3932.0645 L 1101.1189 3922.8487 C 1101.007 3922.364 1100.679 3921.9573 1100.2313 3921.7435 L 1091.6437 3917.6507 C 1091.3963 3917.5287 1091.1222 3917.4706 1090.8465 3917.4817 Z" fill="#326ce5"/>
        </g>
        <g id="Graphic_8">
          <path d="M 1090.9329 3920.6198 C 1090.6366 3920.6406 1090.412 3920.8945 1090.4274 3921.191 L 1090.4274 3921.336 C 1090.4413 3921.5004 1090.466 3921.663 1090.4984 3921.8245 C 1090.5457 3922.1334 1090.5628 3922.446 1090.5493 3922.7584 C 1090.52 3922.861 1090.4614 3922.9536 1090.3811 3923.0246 L 1090.3695 3923.2423 C 1090.057 3923.2685 1089.7467 3923.3164 1089.4411 3923.386 C 1088.1553 3923.676 1086.9845 3924.343 1086.0807 3925.3037 L 1085.8955 3925.1725 C 1085.7936 3925.2034 1085.684 3925.192 1085.5907 3925.1416 C 1085.3401 3924.956 1085.1083 3924.747 1084.8984 3924.5165 C 1084.7929 3924.3905 1084.6803 3924.2707 1084.5611 3924.1576 L 1084.4469 3924.0665 C 1084.345 3923.9847 1084.22 3923.9376 1084.0895 3923.9315 C 1083.9317 3923.923 1083.7793 3923.991 1083.6797 3924.1136 C 1083.5053 3924.3583 1083.5624 3924.697 1083.8063 3924.8723 L 1083.9128 3924.957 C 1084.0499 3925.0484 1084.1921 3925.1316 1084.3388 3925.2064 C 1084.612 3925.3585 1084.8698 3925.537 1085.109 3925.7467 C 1085.1703 3925.834 1085.2058 3925.9366 1085.2117 3926.043 L 1085.38 3926.1974 C 1084.4716 3927.5604 1084.0988 3929.211 1084.3319 3930.8327 L 1084.1158 3930.8945 C 1084.0594 3930.984 1083.9846 3931.0604 1083.895 3931.1167 C 1083.5936 3931.1973 1083.2849 3931.248 1082.9735 3931.269 C 1082.8083 3931.272 1082.6434 3931.285 1082.4796 3931.3074 L 1082.343 3931.3382 L 1082.3276 3931.3382 C 1082.1342 3931.365 1081.9725 3931.4985 1081.9094 3931.683 C 1081.8462 3931.868 1081.8924 3932.0723 1082.0289 3932.212 C 1082.1666 3932.351 1082.3709 3932.4 1082.5568 3932.3392 L 1082.5668 3932.3392 L 1082.7057 3932.324 C 1082.8624 3932.2775 1083.0168 3932.2204 1083.1673 3932.1556 C 1083.4567 3932.04 1083.7569 3931.951 1084.0641 3931.893 C 1084.1706 3931.8993 1084.2725 3931.9356 1084.3589 3931.9973 L 1084.5904 3931.9588 C 1085.0921 3933.5154 1086.1463 3934.8344 1087.554 3935.6656 L 1087.4599 3935.8624 C 1087.5031 3935.9527 1087.5193 3936.053 1087.5062 3936.1526 C 1087.3789 3936.4474 1087.223 3936.73 1087.0408 3936.9954 C 1086.9409 3937.127 1086.8487 3937.2644 1086.7645 3937.4068 L 1086.6989 3937.5457 C 1086.6019 3937.714 1086.6074 3937.9226 1086.7132 3938.0855 C 1086.819 3938.2485 1087.0073 3938.3384 1087.2006 3938.318 C 1087.3943 3938.2964 1087.5593 3938.1675 1087.6274 3937.985 L 1087.6914 3937.8536 C 1087.7501 3937.6993 1087.7995 3937.542 1087.8396 3937.383 C 1087.9762 3937.0456 1088.0503 3936.6836 1088.2371 3936.46 C 1088.2981 3936.4024 1088.375 3936.3647 1088.4578 3936.3517 L 1088.5736 3936.141 C 1090.0996 3936.7276 1091.7881 3936.7317 1093.317 3936.1526 L 1093.4196 3936.3494 C 1093.5246 3936.365 1093.6187 3936.4227 1093.682 3936.5076 C 1093.8271 3936.784 1093.9444 3937.0733 1094.0339 3937.372 C 1094.0747 3937.532 1094.1247 3937.6894 1094.1837 3937.8436 L 1094.2477 3937.975 C 1094.3164 3938.157 1094.4814 3938.285 1094.6748 3938.306 C 1094.8681 3938.3275 1095.0571 3938.2385 1095.1638 3938.076 C 1095.2695 3937.9123 1095.2743 3937.703 1095.1762 3937.535 L 1095.109 3937.396 C 1095.0249 3937.254 1094.9326 3937.1173 1094.8327 3936.986 C 1094.6552 3936.73 1094.5024 3936.4567 1094.3697 3936.1704 C 1094.3446 3936.0646 1094.3636 3935.953 1094.4221 3935.8617 C 1094.3892 3935.7943 1094.3606 3935.725 1094.3365 3935.654 C 1095.7411 3934.8167 1096.7907 3933.493 1097.287 3931.934 L 1097.5062 3931.9727 C 1097.5849 3931.901 1097.6883 3931.863 1097.794 3931.866 C 1098.1004 3931.925 1098.4007 3932.0205 1098.6909 3932.1286 C 1098.8414 3932.198 1098.9957 3932.2567 1099.1524 3932.306 C 1099.1894 3932.316 1099.2435 3932.3246 1099.2851 3932.3346 L 1099.2952 3932.3346 C 1099.4809 3932.3946 1099.6846 3932.345 1099.8219 3932.206 C 1099.9591 3932.067 1100.0064 3931.863 1099.9442 3931.678 C 1099.8806 3931.493 1099.7182 3931.3597 1099.5244 3931.3336 L 1099.3747 3931.298 C 1099.2109 3931.276 1099.046 3931.263 1098.8807 3931.2595 C 1098.5689 3931.2395 1098.2602 3931.1885 1097.9592 3931.1075 C 1097.8666 3931.056 1097.7894 3930.9786 1097.737 3930.885 L 1097.5286 3930.8235 C 1097.7507 3929.2027 1097.3701 3927.557 1096.4589 3926.198 L 1096.641 3926.03 C 1096.6333 3925.924 1096.668 3925.8192 1096.7367 3925.738 C 1096.9736 3925.5345 1097.2307 3925.3546 1097.5008 3925.201 C 1097.6474 3925.126 1097.7897 3925.043 1097.9268 3924.9518 L 1098.0395 3924.8607 C 1098.2088 3924.7556 1098.3027 3924.5626 1098.2807 3924.3645 C 1098.2588 3924.1664 1098.125 3923.9985 1097.9368 3923.933 C 1097.7488 3923.8676 1097.5399 3923.916 1097.3997 3924.0573 L 1097.2854 3924.1483 C 1097.1663 3924.2614 1097.0537 3924.3812 1096.9482 3924.507 C 1096.7444 3924.7403 1096.5191 3924.9525 1096.2744 3925.1424 C 1096.1757 3925.1826 1096.0677 3925.1944 1095.9626 3925.1764 L 1095.7674 3925.3153 C 1094.6406 3924.1344 1093.1225 3923.4013 1091.4955 3923.2546 C 1091.4955 3923.1774 1091.4855 3923.0617 1091.484 3923.0254 C 1091.3968 3922.965 1091.3358 3922.8734 1091.3157 3922.769 C 1091.305 3922.4575 1091.3247 3922.1455 1091.3744 3921.8376 C 1091.4076 3921.6756 1091.4307 3921.5135 1091.4454 3921.349 L 1091.4454 3921.1947 C 1091.4608 3920.8984 1091.237 3920.6445 1090.9399 3920.6236 Z M 1090.2893 3924.607 L 1090.1349 3927.3026 L 1090.1233 3927.3026 C 1090.1156 3927.4693 1090.0176 3927.6113 1089.8671 3927.6916 C 1089.7166 3927.772 1089.5383 3927.748 1089.404 3927.65 L 1087.1929 3926.083 C 1087.8967 3925.392 1088.7796 3924.911 1089.742 3924.6948 C 1089.9227 3924.656 1090.1048 3924.627 1090.2877 3924.607 Z M 1091.5766 3924.607 C 1092.7381 3924.751 1093.8194 3925.273 1094.656 3926.0917 L 1092.4657 3927.6484 C 1092.3306 3927.7564 1092.1454 3927.778 1091.9887 3927.704 C 1091.832 3927.63 1091.7317 3927.4724 1091.7294 3927.2995 Z M 1086.3902 3927.0973 L 1088.4123 3928.9017 L 1088.4123 3928.9133 C 1088.5381 3929.023 1088.5929 3929.1935 1088.5558 3929.3563 C 1088.5188 3929.519 1088.3938 3929.648 1088.234 3929.692 L 1088.234 3929.6998 L 1085.6393 3930.446 C 1085.5109 3929.277 1085.7754 3928.0986 1086.391 3927.0965 Z M 1095.461 3927.0973 C 1096.0753 3928.097 1096.347 3929.269 1096.2343 3930.437 L 1093.6357 3929.688 L 1093.6357 3929.678 C 1093.4736 3929.634 1093.3501 3929.5053 1093.3139 3929.3424 C 1093.2776 3929.1796 1093.3316 3929.0106 1093.4574 3928.8994 L 1095.464 3927.1035 Z M 1090.5185 3929.042 L 1091.3458 3929.042 L 1091.8513 3929.6843 L 1091.6677 3930.487 L 1090.9244 3930.8443 L 1090.1797 3930.487 L 1090.0045 3929.6843 Z M 1093.1688 3931.2325 C 1093.2035 3931.2287 1093.246 3931.2287 1093.273 3931.2325 L 1095.9487 3931.684 C 1095.5628 3932.7954 1094.8011 3933.7447 1093.807 3934.38 L 1092.7728 3931.876 C 1092.7151 3931.74 1092.7273 3931.584 1092.8054 3931.4583 C 1092.8836 3931.3326 1093.0179 3931.2527 1093.1657 3931.244 Z M 1088.6747 3931.244 C 1088.826 3931.2464 1088.9657 3931.3244 1089.0482 3931.451 C 1089.1308 3931.5775 1089.1439 3931.7365 1089.0845 3931.8754 L 1089.0845 3931.8854 L 1088.0565 3934.369 C 1087.0725 3933.7385 1086.3254 3932.801 1085.9279 3931.701 L 1088.5805 3931.251 C 1088.6099 3931.248 1088.64 3931.248 1088.67 3931.251 Z M 1090.916 3932.3246 C 1091.0879 3932.319 1091.2482 3932.411 1091.3304 3932.5623 L 1091.3404 3932.5623 L 1092.6478 3934.9216 L 1092.1253 3935.076 C 1091.1637 3935.296 1090.1596 3935.244 1089.225 3934.9263 L 1090.537 3932.567 C 1090.6165 3932.428 1090.7631 3932.343 1090.9229 3932.3392 Z" fill="white"/>
          <path d="M 1090.9329 3920.6198 C 1090.6366 3920.6406 1090.412 3920.8945 1090.4274 3921.191 L 1090.4274 3921.336 C 1090.4413 3921.5004 1090.466 3921.663 1090.4984 3921.8245 C 1090.5457 3922.1334 1090.5628 3922.446 1090.5493 3922.7584 C 1090.52 3922.861 1090.4614 3922.9536 1090.3811 3923.0246 L 1090.3695 3923.2423 C 1090.057 3923.2685 1089.7467 3923.3164 1089.4411 3923.386 C 1088.1553 3923.676 1086.9845 3924.343 1086.0807 3925.3037 L 1085.8955 3925.1725 C 1085.7936 3925.2034 1085.684 3925.192 1085.5907 3925.1416 C 1085.3401 3924.956 1085.1083 3924.747 1084.8984 3924.5165 C 1084.7929 3924.3905 1084.6803 3924.2707 1084.5611 3924.1576 L 1084.4469 3924.0665 C 1084.345 3923.9847 1084.22 3923.9376 1084.0895 3923.9315 C 1083.9317 3923.923 1083.7793 3923.991 1083.6797 3924.1136 C 1083.5053 3924.3583 1083.5624 3924.697 1083.8063 3924.8723 L 1083.9128 3924.957 C 1084.0499 3925.0484 1084.1921 3925.1316 1084.3388 3925.2064 C 1084.612 3925.3585 1084.8698 3925.537 1085.109 3925.7467 C 1085.1703 3925.834 1085.2058 3925.9366 1085.2117 3926.043 L 1085.38 3926.1974 C 1084.4716 3927.5604 1084.0988 3929.211 1084.3319 3930.8327 L 1084.1158 3930.8945 C 1084.0594 3930.984 1083.9846 3931.0604 1083.895 3931.1167 C 1083.5936 3931.1973 1083.2849 3931.248 1082.9735 3931.269 C 1082.8083 3931.272 1082.6434 3931.285 1082.4796 3931.3074 L 1082.343 3931.3382 L 1082.3276 3931.3382 C 1082.1342 3931.365 1081.9725 3931.4985 1081.9094 3931.683 C 1081.8462 3931.868 1081.8924 3932.0723 1082.0289 3932.212 C 1082.1666 3932.351 1082.3709 3932.4 1082.5568 3932.3392 L 1082.5668 3932.3392 L 1082.7057 3932.324 C 1082.8624 3932.2775 1083.0168 3932.2204 1083.1673 3932.1556 C 1083.4567 3932.04 1083.7569 3931.951 1084.0641 3931.893 C 1084.1706 3931.8993 1084.2725 3931.9356 1084.3589 3931.9973 L 1084.5904 3931.9588 C 1085.0921 3933.5154 1086.1463 3934.8344 1087.554 3935.6656 L 1087.4599 3935.8624 C 1087.5031 3935.9527 1087.5193 3936.053 1087.5062 3936.1526 C 1087.3789 3936.4474 1087.223 3936.73 1087.0408 3936.9954 C 1086.9409 3937.127 1086.8487 3937.2644 1086.7645 3937.4068 L 1086.6989 3937.5457 C 1086.6019 3937.714 1086.6074 3937.9226 1086.7132 3938.0855 C 1086.819 3938.2485 1087.0073 3938.3384 1087.2006 3938.318 C 1087.3943 3938.2964 1087.5593 3938.1675 1087.6274 3937.985 L 1087.6914 3937.8536 C 1087.7501 3937.6993 1087.7995 3937.542 1087.8396 3937.383 C 1087.9762 3937.0456 1088.0503 3936.6836 1088.2371 3936.46 C 1088.2981 3936.4024 1088.375 3936.3647 1088.4578 3936.3517 L 1088.5736 3936.141 C 1090.0996 3936.7276 1091.7881 3936.7317 1093.317 3936.1526 L 1093.4196 3936.3494 C 1093.5246 3936.365 1093.6187 3936.4227 1093.682 3936.5076 C 1093.8271 3936.784 1093.9444 3937.0733 1094.0339 3937.372 C 1094.0747 3937.532 1094.1247 3937.6894 1094.1837 3937.8436 L 1094.2477 3937.975 C 1094.3164 3938.157 1094.4814 3938.285 1094.6748 3938.306 C 1094.8681 3938.3275 1095.0571 3938.2385 1095.1638 3938.076 C 1095.2695 3937.9123 1095.2743 3937.703 1095.1762 3937.535 L 1095.109 3937.396 C 1095.0249 3937.254 1094.9326 3937.1173 1094.8327 3936.986 C 1094.6552 3936.73 1094.5024 3936.4567 1094.3697 3936.1704 C 1094.3446 3936.0646 1094.3636 3935.953 1094.4221 3935.8617 C 1094.3892 3935.7943 1094.3606 3935.725 1094.3365 3935.654 C 1095.7411 3934.8167 1096.7907 3933.493 1097.287 3931.934 L 1097.5062 3931.9727 C 1097.5849 3931.901 1097.6883 3931.863 1097.794 3931.866 C 1098.1004 3931.925 1098.4007 3932.0205 1098.6909 3932.1286 C 1098.8414 3932.198 1098.9957 3932.2567 1099.1524 3932.306 C 1099.1894 3932.316 1099.2435 3932.3246 1099.2851 3932.3346 L 1099.2952 3932.3346 C 1099.4809 3932.3946 1099.6846 3932.345 1099.8219 3932.206 C 1099.9591 3932.067 1100.0064 3931.863 1099.9442 3931.678 C 1099.8806 3931.493 1099.7182 3931.3597 1099.5244 3931.3336 L 1099.3747 3931.298 C 1099.2109 3931.276 1099.046 3931.263 1098.8807 3931.2595 C 1098.5689 3931.2395 1098.2602 3931.1885 1097.9592 3931.1075 C 1097.8666 3931.056 1097.7894 3930.9786 1097.737 3930.885 L 1097.5286 3930.8235 C 1097.7507 3929.2027 1097.3701 3927.557 1096.4589 3926.198 L 1096.641 3926.03 C 1096.6333 3925.924 1096.668 3925.8192 1096.7367 3925.738 C 1096.9736 3925.5345 1097.2307 3925.3546 1097.5008 3925.201 C 1097.6474 3925.126 1097.7897 3925.043 1097.9268 3924.9518 L 1098.0395 3924.8607 C 1098.2088 3924.7556 1098.3027 3924.5626 1098.2807 3924.3645 C 1098.2588 3924.1664 1098.125 3923.9985 1097.9368 3923.933 C 1097.7488 3923.8676 1097.5399 3923.916 1097.3997 3924.0573 L 1097.2854 3924.1483 C 1097.1663 3924.2614 1097.0537 3924.3812 1096.9482 3924.507 C 1096.7444 3924.7403 1096.5191 3924.9525 1096.2744 3925.1424 C 1096.1757 3925.1826 1096.0677 3925.1944 1095.9626 3925.1764 L 1095.7674 3925.3153 C 1094.6406 3924.1344 1093.1225 3923.4013 1091.4955 3923.2546 C 1091.4955 3923.1774 1091.4855 3923.0617 1091.484 3923.0254 C 1091.3968 3922.965 1091.3358 3922.8734 1091.3157 3922.769 C 1091.305 3922.4575 1091.3247 3922.1455 1091.3744 3921.8376 C 1091.4076 3921.6756 1091.4307 3921.5135 1091.4454 3921.349 L 1091.4454 3921.1947 C 1091.4608 3920.8984 1091.237 3920.6445 1090.9399 3920.6236 Z M 1090.2893 3924.607 L 1090.1349 3927.3026 L 1090.1233 3927.3026 C 1090.1156 3927.4693 1090.0176 3927.6113 1089.8671 3927.6916 C 1089.7166 3927.772 1089.5383 3927.748 1089.404 3927.65 L 1087.1929 3926.083 C 1087.8967 3925.392 1088.7796 3924.911 1089.742 3924.6948 C 1089.9227 3924.656 1090.1048 3924.627 1090.2877 3924.607 Z M 1091.5766 3924.607 C 1092.7381 3924.751 1093.8194 3925.273 1094.656 3926.0917 L 1092.4657 3927.6484 C 1092.3306 3927.7564 1092.1454 3927.778 1091.9887 3927.704 C 1091.832 3927.63 1091.7317 3927.4724 1091.7294 3927.2995 Z M 1086.3902 3927.0973 L 1088.4123 3928.9017 L 1088.4123 3928.9133 C 1088.5381 3929.023 1088.5929 3929.1935 1088.5558 3929.3563 C 1088.5188 3929.519 1088.3938 3929.648 1088.234 3929.692 L 1088.234 3929.6998 L 1085.6393 3930.446 C 1085.5109 3929.277 1085.7754 3928.0986 1086.391 3927.0965 Z M 1095.461 3927.0973 C 1096.0753 3928.097 1096.347 3929.269 1096.2343 3930.437 L 1093.6357 3929.688 L 1093.6357 3929.678 C 1093.4736 3929.634 1093.3501 3929.5053 1093.3139 3929.3424 C 1093.2776 3929.1796 1093.3316 3929.0106 1093.4574 3928.8994 L 1095.464 3927.1035 Z M 1090.5185 3929.042 L 1091.3458 3929.042 L 1091.8513 3929.6843 L 1091.6677 3930.487 L 1090.9244 3930.8443 L 1090.1797 3930.487 L 1090.0045 3929.6843 Z M 1093.1688 3931.2325 C 1093.2035 3931.2287 1093.246 3931.2287 1093.273 3931.2325 L 1095.9487 3931.684 C 1095.5628 3932.7954 1094.8011 3933.7447 1093.807 3934.38 L 1092.7728 3931.876 C 1092.7151 3931.74 1092.7273 3931.584 1092.8054 3931.4583 C 1092.8836 3931.3326 1093.0179 3931.2527 1093.1657 3931.244 Z M 1088.6747 3931.244 C 1088.826 3931.2464 1088.9657 3931.3244 1089.0482 3931.451 C 1089.1308 3931.5775 1089.1439 3931.7365 1089.0845 3931.8754 L 1089.0845 3931.8854 L 1088.0565 3934.369 C 1087.0725 3933.7385 1086.3254 3932.801 1085.9279 3931.701 L 1088.5805 3931.251 C 1088.6099 3931.248 1088.64 3931.248 1088.67 3931.251 Z M 1090.916 3932.3246 C 1091.0879 3932.319 1091.2482 3932.411 1091.3304 3932.5623 L 1091.3404 3932.5623 L 1092.6478 3934.9216 L 1092.1253 3935.076 C 1091.1637 3935.296 1090.1596 3935.244 1089.225 3934.9263 L 1090.537 3932.567 C 1090.6165 3932.428 1090.7631 3932.343 1090.9229 3932.3392 Z" stroke="white" stroke-linecap="butt" stroke-linejoin="round" stroke-width=".055"/>
        </g>
      </g>
      <g id="Group_42">
        <g id="Graphic_45">
          <path d="M 559.8425 4035.622 L 559.8425 3972.252 C 559.8425 3967.8337 563.42425 3964.252 567.8425 3964.252 L 796.3307 3964.252 C 800.749 3964.252 804.3307 3967.8337 804.3307 3972.252 C 804.3307 3972.252 804.3307 3972.252 804.3307 3972.252 L 804.3307 4035.622 C 804.3307 4040.0404 800.749 4043.622 796.3307 4043.622 L 567.8425 4043.622 C 563.42425 4043.622 559.8425 4040.0404 559.8425 4035.622 Z" fill="white"/>
          <text transform="translate(564.8425 4038.622) rotate(-90)" fill="black">
            <tspan font-family="Helvetica Neue" font-size="16" fill="black" x="20.16504" y="15">Pod</tspan>
          </text>
        </g>
        <g id="Graphic_44">
          <path d="M 602.5669 3974.1733 L 677.2756 3974.1733 C 681.6939 3974.1733 685.2756 3977.755 685.2756 3982.1733 L 685.2756 4025.701 C 685.2756 4030.119 681.6939 4033.701 677.2756 4033.701 L 602.5669 4033.701 C 598.14866 4033.701 594.5669 4030.119 594.5669 4025.701 L 594.5669 3982.1733 C 594.5669 3977.755 598.14866 3974.1733 602.5669 3974.1733 Z" fill="#ffc0ff"/>
          <text transform="translate(599.5669 3994.713)" fill="black">
            <tspan font-family="Helvetica Neue" font-size="16" fill="black" x="18.426332" y="15">Envoy</tspan>
          </text>
        </g>
        <g id="Graphic_43">
          <path d="M 707.4488 3974.1733 L 782.1575 3974.1733 C 786.5758 3974.1733 790.1575 3977.755 790.1575 3982.1733 L 790.1575 4025.701 C 790.1575 4030.119 786.5758 4033.701 782.1575 4033.701 L 707.4488 4033.701 C 703.03055 4033.701 699.4488 4030.119 699.4488 4025.701 L 699.4488 3982.1733 C 699.4488 3977.755 703.03055 3974.1733 707.4488 3974.1733 Z" fill="#c0ffc0"/>
          <text transform="translate(704.4488 3985.489)" fill="black">
            <tspan font-family="Helvetica Neue" font-size="16" fill="black" x="6.586332" y="15">Workload</tspan>
            <tspan font-family="Helvetica Neue" font-size="16" fill="black" x="9.698332" y="33.448">(Service)</tspan>
          </text>
        </g>
      </g>
      <g id="Group_46">
        <g id="Graphic_49">
          <path d="M 955.6299 4035.622 L 955.6299 3972.252 C 955.6299 3967.8337 959.2117 3964.252 963.6299 3964.252 L 1192.1181 3964.252 C 1196.5364 3964.252 1200.1181 3967.8337 1200.1181 3972.252 C 1200.1181 3972.252 1200.1181 3972.252 1200.1181 3972.252 L 1200.1181 4035.622 C 1200.1181 4040.0404 1196.5364 4043.622 1192.1181 4043.622 L 963.6299 4043.622 C 959.2117 4043.622 955.6299 4040.0404 955.6299 4035.622 Z" fill="white"/>
          <text transform="translate(960.6299 4038.622) rotate(-90)" fill="black">
            <tspan font-family="Helvetica Neue" font-size="16" fill="black" x="20.16504" y="15">Pod</tspan>
          </text>
        </g>
        <g id="Graphic_48">
          <path d="M 998.3543 3974.1733 L 1073.063 3974.1733 C 1077.4813 3974.1733 1081.063 3977.755 1081.063 3982.1733 L 1081.063 4025.701 C 1081.063 4030.119 1077.4813 4033.701 1073.063 4033.701 L 998.3543 4033.701 C 993.9361 4033.701 990.3543 4030.119 990.3543 4025.701 L 990.3543 3982.1733 C 990.3543 3977.755 993.9361 3974.1733 998.3543 3974.1733 Z" fill="#ffc0ff"/>
          <text transform="translate(995.3543 3994.713)" fill="black">
            <tspan font-family="Helvetica Neue" font-size="16" fill="black" x="18.426332" y="15">Envoy</tspan>
          </text>
        </g>
        <g id="Graphic_47">
          <path d="M 1103.2362 3974.1733 L 1177.9449 3974.1733 C 1182.3632 3974.1733 1185.9449 3977.755 1185.9449 3982.1733 L 1185.9449 4025.701 C 1185.9449 4030.119 1182.3632 4033.701 1177.9449 4033.701 L 1103.2362 4033.701 C 1098.818 4033.701 1095.2362 4030.119 1095.2362 4025.701 L 1095.2362 3982.1733 C 1095.2362 3977.755 1098.818 3974.1733 1103.2362 3974.1733 Z" fill="#c0ffc0"/>
          <text transform="translate(1100.2362 3985.489)" fill="black">
            <tspan font-family="Helvetica Neue" font-size="16" fill="black" x="6.586332" y="15">Workload</tspan>
            <tspan font-family="Helvetica Neue" font-size="16" fill="black" x="9.698332" y="33.448">(Service)</tspan>
          </text>
        </g>
      </g>
      <g id="Graphic_50">
        <path d="M 1243.9055 3964.252 L 1325.7008 3964.252 C 1330.119 3964.252 1333.7008 3967.8337 1333.7008 3972.252 L 1333.7008 4035.622 C 1333.7008 4040.0404 1330.119 4043.622 1325.7008 4043.622 L 1243.9055 4043.622 C 1239.4872 4043.622 1235.9055 4040.0404 1235.9055 4035.622 L 1235.9055 3972.252 C 1235.9055 3967.8337 1239.4872 3964.252 1243.9055 3964.252 Z" fill="#666"/>
        <text transform="translate(1240.9055 3994.713)" fill="white">
          <tspan font-family="Helvetica Neue" font-size="16" fill="white" x="18.697636" y="15">httpbin</tspan>
        </text>
      </g>
      <g id="Graphic_51">
        <path d="M 1000.126 4070.551 L 1076.6063 4070.551 C 1081.0246 4070.551 1084.6063 4074.133 1084.6063 4078.551 L 1084.6063 4119.244 C 1084.6063 4123.6624 1081.0246 4127.244 1076.6063 4127.244 L 1000.126 4127.244 C 995.7077 4127.244 992.126 4123.6624 992.126 4119.244 L 992.126 4078.551 C 992.126 4074.133 995.7077 4070.551 1000.126 4070.551 Z" fill="#666"/>
        <text transform="translate(997.126 4089.6737)" fill="white">
          <tspan font-family="Helvetica Neue" font-size="16" fill="white" x="25.384158" y="15">OPA</tspan>
        </text>
      </g>
      <g id="Graphic_52">
        <path d="M 993.2165 4181.1024 L 1083.5158 4181.1024 C 1087.934 4181.1024 1091.5158 4184.684 1091.5158 4189.1024 L 1091.5158 4252.4725 C 1091.5158 4256.891 1087.934 4260.4725 1083.5158 4260.4725 L 993.2165 4260.4725 C 988.7983 4260.4725 985.2165 4256.891 985.2165 4252.4725 L 985.2165 4189.1024 C 985.2165 4184.684 988.7983 4181.1024 993.2165 4181.1024 Z" fill="#666"/>
        <text transform="translate(990.2165 4202.3394)" fill="white">
          <tspan font-family="Helvetica Neue" font-size="16" fill="white" x="8.885609" y="15">OPA policy</tspan>
          <tspan font-family="Helvetica Neue" font-size="16" fill="white" x="3.2536086" y="33.448">(k8s secrets)</tspan>
        </text>
      </g>
      <g id="Line_53">
        <line x1="1038.3662" y1="4181.1024" x2="1038.3662" y2="4137.144" marker-end="url(#FilledArrow_Marker)" stroke="black" stroke-linecap="round" stroke-linejoin="round" stroke-width="1"/>
      </g>
      <g id="Line_54">
        <line x1="1061.2069" y1="4070.551" x2="1061.2069" y2="4043.601" marker-end="url(#FilledArrow_Marker)" stroke="black" stroke-linecap="round" stroke-linejoin="round" stroke-width="1"/>
      </g>
      <g id="Line_55">
        <line x1="1011.2069" y1="4033.701" x2="1011.2069" y2="4060.651" marker-end="url(#FilledArrow_Marker)" stroke="black" stroke-linecap="round" stroke-linejoin="round" stroke-width="1"/>
      </g>
      <g id="Line_56">
        <line x1="1200.1181" y1="4019.3966" x2="1226.0055" y2="4019.3966" marker-end="url(#FilledArrow_Marker)" stroke="black" stroke-linecap="round" stroke-linejoin="round" stroke-width="1"/>
      </g>
      <g id="Line_57">
        <line x1="1235.9055" y1="3986.638" x2="1210.0181" y2="3986.638" marker-end="url(#FilledArrow_Marker)" stroke="black" stroke-linecap="round" stroke-linejoin="round" stroke-width="1"/>
      </g>
      <g id="Line_58">
        <line x1="525.8268" y1="3988.793" x2="549.9425" y2="3988.793" marker-end="url(#FilledArrow_Marker)" stroke="black" stroke-linecap="round" stroke-linejoin="round" stroke-width="1"/>
      </g>
      <g id="Line_59">
        <line x1="559.8425" y1="4019.8276" x2="535.7268" y2="4019.8276" marker-end="url(#FilledArrow_Marker)" stroke="black" stroke-linecap="round" stroke-linejoin="round" stroke-width="1"/>
      </g>
      <g id="Line_60">
        <line x1="804.3307" y1="4003.937" x2="945.7299" y2="4003.937" marker-end="url(#FilledArrow_Marker)" stroke="black" stroke-linecap="round" stroke-linejoin="round" stroke-width="1"/>
      </g>
      <g id="Line_61">
        <line x1="955.6299" y1="3979.944" x2="814.2307" y2="3979.944" marker-end="url(#FilledArrow_Marker)" stroke="black" stroke-linecap="round" stroke-linejoin="round" stroke-width="1"/>
      </g>
      <g id="Graphic_62">
        <text transform="translate(850.1963 3949.4095)" fill="black">
          <tspan font-family="Helvetica Neue" font-size="16" fill="black" x="0" y="15">Request</tspan>
        </text>
      </g>
      <g id="Graphic_63">
        <text transform="translate(844.1243 4017.39)" fill="black">
          <tspan font-family="Helvetica Neue" font-size="16" fill="black" x="0" y="15">Response</tspan>
        </text>
      </g>
    </g>
  </g>
</svg>
