<?xml version="1.0" encoding="UTF-8" standalone="no"?>
<!DOCTYPE svg PUBLIC "-//W3C//DTD SVG 1.1//EN" "http://www.w3.org/Graphics/SVG/1.1/DTD/svg11.dtd">
<svg xmlns="http://www.w3.org/2000/svg" xmlns:dc="http://purl.org/dc/elements/1.1/" version="1.1" xmlns:xl="http://www.w3.org/1999/xlink" viewBox="1738 1380 552 368" width="552" height="368">
  <defs>
    <marker orient="auto" overflow="visible" markerUnits="strokeWidth" id="FilledArrow_Marker" stroke-linejoin="miter" stroke-miterlimit="10" viewBox="-1 -3 7 6" markerWidth="7" markerHeight="6" color="black">
      <g>
        <path d="M 4.8 0 L 0 -1.8 L 0 1.8 Z" fill="currentColor" stroke="currentColor" stroke-width="1"/>
      </g>
    </marker>
  </defs>
  <g id="Canvas_29" fill-opacity="1" fill="none" stroke="none" stroke-opacity="1" stroke-dasharray="none">
    <title>tsb-traffic-flow</title>
    <rect fill="white" x="1738" y="1380" width="552" height="368"/>
    <g id="Canvas_29_Layer_1">
      <title>Layer 1</title>
      <g id="Graphic_19"/>
      <g id="Graphic_14">
        <path d="M 2068.7874 1595.9055 L 2263.9685 1595.9055 C 2268.3868 1595.9055 2271.9685 1599.4872 2271.9685 1603.9055 L 2271.9685 1723.9685 C 2271.9685 1728.3868 2268.3868 1731.9685 2263.9685 1731.9685 L 2068.7874 1731.9685 C 2064.3691 1731.9685 2060.7874 1728.3868 2060.7874 1723.9685 L 2060.7874 1603.9055 C 2060.7874 1599.4872 2064.3691 1595.9055 2068.7874 1595.9055 Z" stroke="gray" stroke-linecap="round" stroke-linejoin="round" stroke-dasharray="4.0,4.0" stroke-width="1"/>
        <text transform="translate(2065.7874 1708.5205)" fill="black">
          <tspan font-family="Helvetica Neue" font-size="16" fill="black" x="0" y="15">silo</tspan>
        </text>
      </g>
      <g id="Graphic_11">
        <path d="M 1764.063 1595.9055 L 1959.244 1595.9055 C 1963.6624 1595.9055 1967.244 1599.4872 1967.244 1603.9055 L 1967.244 1723.9685 C 1967.244 1728.3868 1963.6624 1731.9685 1959.244 1731.9685 L 1764.063 1731.9685 C 1759.6447 1731.9685 1756.063 1728.3868 1756.063 1723.9685 L 1756.063 1603.9055 C 1756.063 1599.4872 1759.6447 1595.9055 1764.063 1595.9055 Z" stroke="gray" stroke-linecap="round" stroke-linejoin="round" stroke-dasharray="4.0,4.0" stroke-width="1"/>
        <text transform="translate(1761.063 1708.5205)" fill="black">
          <tspan font-family="Helvetica Neue" font-size="16" fill="black" x="0" y="15">silo</tspan>
        </text>
      </g>
      <g id="Graphic_6">
        <path d="M 1777.5276 1648.3465 L 1945.7795 1648.3465 C 1950.1978 1648.3465 1953.7795 1651.9282 1953.7795 1656.3465 L 1953.7795 1697.0394 C 1953.7795 1701.4577 1950.1978 1705.0394 1945.7795 1705.0394 L 1777.5276 1705.0394 C 1773.1093 1705.0394 1769.5276 1701.4577 1769.5276 1697.0394 L 1769.5276 1656.3465 C 1769.5276 1651.9282 1773.1093 1648.3465 1777.5276 1648.3465 Z" fill="#999"/>
        <text transform="translate(1774.5276 1666.9609)" fill="white">
          <tspan font-family="Helvetica Neue" font-weight="bold" font-size="16" fill="white" x="104.90797" y="16">Your App</tspan>
        </text>
      </g>
      <g id="Graphic_2">
        <path d="M 1929.8898 1449.9213 L 2098.1418 1449.9213 C 2102.56 1449.9213 2106.1418 1453.503 2106.1418 1457.9213 L 2106.1418 1498.6142 C 2106.1418 1503.0325 2102.56 1506.6142 2098.1418 1506.6142 L 1929.8898 1506.6142 C 1925.4715 1506.6142 1921.8898 1503.0325 1921.8898 1498.6142 L 1921.8898 1457.9213 C 1921.8898 1453.503 1925.4715 1449.9213 1929.8898 1449.9213 Z" fill="#456cb0"/>
        <text transform="translate(1926.8898 1458.8036)" fill="white">
          <tspan font-family="Helvetica Neue" font-weight="bold" font-size="16" fill="white" x="50.093984" y="16">App Edge</tspan>
          <tspan font-family="Helvetica Neue" font-weight="bold" font-size="16" fill="white" x="53.797984" y="35.46411">Gateway</tspan>
        </text>
      </g>
      <g id="Graphic_3">
        <path d="M 1777.5276 1563.3071 L 1945.7795 1563.3071 C 1950.1978 1563.3071 1953.7795 1566.8888 1953.7795 1571.3071 L 1953.7795 1612 C 1953.7795 1616.4183 1950.1978 1620 1945.7795 1620 L 1777.5276 1620 C 1773.1093 1620 1769.5276 1616.4183 1769.5276 1612 L 1769.5276 1571.3071 C 1769.5276 1566.8888 1773.1093 1563.3071 1777.5276 1563.3071 Z" fill="#456cb0"/>
        <text transform="translate(1774.5276 1572.1894)" fill="white">
          <tspan font-family="Helvetica Neue" font-weight="bold" font-size="16" fill="white" x="41.501984" y="16">App Ingress</tspan>
          <tspan font-family="Helvetica Neue" font-weight="bold" font-size="16" fill="white" x="53.797984" y="35.46411">Gateway</tspan>
        </text>
      </g>
      <g id="Graphic_4">
        <path d="M 2082.252 1563.3071 L 2250.504 1563.3071 C 2254.9222 1563.3071 2258.504 1566.8888 2258.504 1571.3071 L 2258.504 1612 C 2258.504 1616.4183 2254.9222 1620 2250.504 1620 L 2082.252 1620 C 2077.8337 1620 2074.252 1616.4183 2074.252 1612 L 2074.252 1571.3071 C 2074.252 1566.8888 2077.8337 1563.3071 2082.252 1563.3071 Z" fill="#456cb0"/>
        <text transform="translate(2079.252 1572.1894)" fill="white">
          <tspan font-family="Helvetica Neue" font-weight="bold" font-size="16" fill="white" x="41.501984" y="16">App Ingress</tspan>
          <tspan font-family="Helvetica Neue" font-weight="bold" font-size="16" fill="white" x="53.797984" y="35.46411">Gateway</tspan>
        </text>
      </g>
      <g id="Graphic_5">
        <path d="M 1777.5276 1648.3465 L 1864.2835 1648.3465 C 1868.7018 1648.3465 1872.2835 1651.9282 1872.2835 1656.3465 L 1872.2835 1697.0394 C 1872.2835 1701.4577 1868.7018 1705.0394 1864.2835 1705.0394 L 1777.5276 1705.0394 C 1773.1093 1705.0394 1769.5276 1701.4577 1769.5276 1697.0394 L 1769.5276 1656.3465 C 1769.5276 1651.9282 1773.1093 1648.3465 1777.5276 1648.3465 Z" fill="#456cb0"/>
        <text transform="translate(1774.5276 1666.9609)" fill="white">
          <tspan font-family="Helvetica Neue" font-weight="bold" font-size="16" fill="white" x="17.345953" y="16">Sidecar</tspan>
        </text>
      </g>
      <g id="Graphic_8">
        <path d="M 2082.252 1651.1811 L 2250.504 1651.1811 C 2254.9222 1651.1811 2258.504 1654.7628 2258.504 1659.1811 L 2258.504 1699.874 C 2258.504 1704.2923 2254.9222 1707.874 2250.504 1707.874 L 2082.252 1707.874 C 2077.8337 1707.874 2074.252 1704.2923 2074.252 1699.874 L 2074.252 1659.1811 C 2074.252 1654.7628 2077.8337 1651.1811 2082.252 1651.1811 Z" fill="#999"/>
        <text transform="translate(2079.252 1669.7955)" fill="white">
          <tspan font-family="Helvetica Neue" font-weight="bold" font-size="16" fill="white" x="104.90797" y="16">Your App</tspan>
        </text>
      </g>
      <g id="Graphic_7">
        <path d="M 2082.252 1651.1811 L 2169.008 1651.1811 C 2173.4262 1651.1811 2177.008 1654.7628 2177.008 1659.1811 L 2177.008 1699.874 C 2177.008 1704.2923 2173.4262 1707.874 2169.008 1707.874 L 2082.252 1707.874 C 2077.8337 1707.874 2074.252 1704.2923 2074.252 1699.874 L 2074.252 1659.1811 C 2074.252 1654.7628 2077.8337 1651.1811 2082.252 1651.1811 Z" fill="#456cb0"/>
        <text transform="translate(2079.252 1669.7955)" fill="white">
          <tspan font-family="Helvetica Neue" font-weight="bold" font-size="16" fill="white" x="17.345953" y="16">Sidecar</tspan>
        </text>
      </g>
      <g id="Graphic_9">
        <text transform="translate(1972.9358 1385.4725)" fill="black">
          <tspan font-family="Helvetica Neue" font-weight="bold" font-size="16" fill="black" x="0" y="16">App Traffic</tspan>
        </text>
      </g>
      <g id="Line_10">
        <line x1="2014.0158" y1="1409.9366" x2="2014.0158" y2="1437.0213" marker-end="url(#FilledArrow_Marker)" stroke="black" stroke-linecap="round" stroke-linejoin="round" stroke-width="2"/>
      </g>
      <g id="Line_15">
        <line x1="1820.9055" y1="1620" x2="1820.9055" y2="1635.4465" marker-end="url(#FilledArrow_Marker)" stroke="black" stroke-linecap="round" stroke-linejoin="round" stroke-width="2"/>
      </g>
      <g id="Line_16">
        <line x1="2125.63" y1="1620" x2="2125.63" y2="1638.2811" marker-end="url(#FilledArrow_Marker)" stroke="black" stroke-linecap="round" stroke-linejoin="round" stroke-width="2"/>
      </g>
      <g id="Line_17">
        <path d="M 2011.7109 1506.6142 C 2008.5293 1512.5035 2003.128 1518.4613 1994.2222 1523.5556 C 1963.5753 1541.086 1943.3968 1520.8535 1905.8394 1540.146 C 1897.7268 1544.3133 1891.0573 1549.0835 1885.586 1554.0018" marker-end="url(#FilledArrow_Marker)" stroke="black" stroke-linecap="round" stroke-linejoin="round" stroke-width="2"/>
      </g>
      <g id="Line_18">
        <path d="M 2012.1576 1506.6142 C 2014.4213 1510.5153 2018.0337 1514.4688 2023.5556 1518.2222 C 2049.6553 1535.9631 2065.6794 1520.0854 2106.1418 1540.8889 C 2114.934 1545.4093 2122.7493 1550.3622 2129.5972 1555.3461" marker-end="url(#FilledArrow_Marker)" stroke="black" stroke-linecap="round" stroke-linejoin="round" stroke-width="2"/>
      </g>
    </g>
  </g>
</svg>
