<?xml version="1.0" encoding="UTF-8" standalone="no"?>
<!DOCTYPE svg PUBLIC "-//W3C//DTD SVG 1.1//EN" "http://www.w3.org/Graphics/SVG/1.1/DTD/svg11.dtd">
<svg xmlns="http://www.w3.org/2000/svg" xmlns:dc="http://purl.org/dc/elements/1.1/" version="1.1" xmlns:xl="http://www.w3.org/1999/xlink" viewBox="-4870 1155 1090 558" width="1090" height="558">
  <defs>
    <marker orient="auto" overflow="visible" markerUnits="strokeWidth" id="FilledArrow_Marker" stroke-linejoin="miter" stroke-miterlimit="10" viewBox="-1 -3 7 6" markerWidth="7" markerHeight="6" color="black">
      <g>
        <path d="M 4.8 0 L 0 -1.8 L 0 1.8 Z" fill="currentColor" stroke="currentColor" stroke-width="1"/>
      </g>
    </marker>
  </defs>
  <g id="configuration-data-flow" fill-opacity="1" fill="none" stroke="none" stroke-opacity="1" stroke-dasharray="none">
    <title>configuration-data-flow</title>
    <rect fill="white" x="-4870" y="1155" width="1090" height="558"/>
    <g id="configuration-data-flow_Layer_1">
      <title>Layer 1</title>
      <g id="Graphic_94"/>
      <g id="Graphic_77">
        <path d="M -4453.2284 1356.378 L -4256.2205 1356.378 L -4256.2205 1702.2047 L -4453.2284 1702.2047 Z" stroke="gray" stroke-linecap="round" stroke-linejoin="round" stroke-dasharray="4.0,4.0" stroke-width="1"/>
        <text transform="translate(-4448.2284 1678.7567)" fill="black">
          <tspan font-family="Helvetica Neue" font-size="16" fill="black" x="0" y="15">application cluster</tspan>
        </text>
      </g>
      <g id="Graphic_35">
        <path d="M -4445.2284 1172.126 L -4276.9764 1172.126 C -4272.558 1172.126 -4268.9764 1175.7077 -4268.9764 1180.126 L -4268.9764 1220.8189 C -4268.9764 1225.2372 -4272.558 1228.8189 -4276.9764 1228.8189 L -4445.2284 1228.8189 C -4449.6467 1228.8189 -4453.2284 1225.2372 -4453.2284 1220.8189 L -4453.2284 1180.126 C -4453.2284 1175.7077 -4449.6467 1172.126 -4445.2284 1172.126 Z" fill="#f15623"/>
        <text transform="translate(-4448.2284 1190.7404)" fill="white">
          <tspan font-family="Helvetica Neue" font-weight="bold" font-size="16" fill="white" x="13.509984" y="16">Management Plane</tspan>
        </text>
      </g>
      <g id="Graphic_34">
        <path d="M -4662.079 1172.126 L -4556.8977 1172.126 C -4552.4794 1172.126 -4548.8977 1175.7077 -4548.8977 1180.126 L -4548.8977 1220.8189 C -4548.8977 1225.2372 -4552.4794 1228.8189 -4556.8977 1228.8189 L -4662.079 1228.8189 C -4666.497 1228.8189 -4670.079 1225.2372 -4670.079 1220.8189 L -4670.079 1180.126 C -4670.079 1175.7077 -4666.497 1172.126 -4662.079 1172.126 Z" fill="#f15623"/>
        <text transform="translate(-4665.079 1190.7404)" fill="white">
          <tspan font-family="Helvetica Neue" font-weight="bold" font-size="16" fill="white" x="47.302553" y="16">UI</tspan>
        </text>
      </g>
      <g id="Graphic_30">
        <path d="M -4849.1654 1303.937 L -4743.9843 1303.937 C -4739.566 1303.937 -4735.9843 1307.5187 -4735.9843 1311.937 L -4735.9843 1352.63 C -4735.9843 1357.0482 -4739.566 1360.63 -4743.9843 1360.63 L -4849.1654 1360.63 C -4853.5837 1360.63 -4857.1654 1357.0482 -4857.1654 1352.63 L -4857.1654 1311.937 C -4857.1654 1307.5187 -4853.5837 1303.937 -4849.1654 1303.937 Z" fill="#666"/>
        <text transform="translate(-4852.1654 1322.5514)" fill="white">
          <tspan font-family="Helvetica Neue" font-weight="bold" font-size="16" fill="white" x="41.510553" y="16">You</tspan>
        </text>
      </g>
      <g id="Graphic_11">
        <path d="M -4428.929 1611.496 L -4280.5197 1611.496 C -4276.1014 1611.496 -4272.5197 1615.0778 -4272.5197 1619.496 L -4272.5197 1660.189 C -4272.5197 1664.6073 -4276.1014 1668.189 -4280.5197 1668.189 L -4428.929 1668.189 C -4433.3475 1668.189 -4436.929 1664.6073 -4436.929 1660.189 L -4436.929 1619.496 C -4436.929 1615.0778 -4433.3475 1611.496 -4428.929 1611.496 Z" fill="#456cb0"/>
        <text transform="translate(-4431.929 1630.1105)" fill="white">
          <tspan font-family="Helvetica Neue" font-weight="bold" font-size="16" fill="white" x="55.89273" y="16">Istiod</tspan>
        </text>
      </g>
      <g id="Group_2">
        <g id="Graphic_7">
          <path d="M -4788.575 1585.9037 L -4702.5276 1585.9037 C -4698.1093 1585.9037 -4694.5276 1589.4854 -4694.5276 1593.9037 L -4694.5276 1609.204 C -4694.5276 1613.6223 -4698.1093 1617.204 -4702.5276 1617.204 L -4788.575 1617.204 C -4792.993 1617.204 -4796.575 1613.6223 -4796.575 1609.204 L -4796.575 1593.9037 C -4796.575 1589.4854 -4792.993 1585.9037 -4788.575 1585.9037 Z" fill="#456cb0"/>
          <text transform="translate(-4791.575 1591.8218)" fill="white">
            <tspan font-family="Helvetica Neue" font-size="16" fill="white" x="11.63962" y="16">OSS Istio</tspan>
          </text>
        </g>
        <g id="Graphic_6">
          <path d="M -4788.575 1625.0291 L -4702.5276 1625.0291 C -4698.1093 1625.0291 -4694.5276 1628.6108 -4694.5276 1633.0291 L -4694.5276 1648.3294 C -4694.5276 1652.7477 -4698.1093 1656.3294 -4702.5276 1656.3294 L -4788.575 1656.3294 C -4792.993 1656.3294 -4796.575 1652.7477 -4796.575 1648.3294 L -4796.575 1633.0291 C -4796.575 1628.6108 -4792.993 1625.0291 -4788.575 1625.0291 Z" fill="#f15623"/>
          <text transform="translate(-4791.575 1630.9472)" fill="white">
            <tspan font-family="Helvetica Neue" font-weight="bold" font-size="16" fill="white" x="30.31162" y="16">TSB</tspan>
          </text>
        </g>
        <g id="Graphic_5">
          <path d="M -4788.575 1664.1545 L -4702.5276 1664.1545 C -4698.1093 1664.1545 -4694.5276 1667.7362 -4694.5276 1672.1545 L -4694.5276 1687.4549 C -4694.5276 1691.8731 -4698.1093 1695.4549 -4702.5276 1695.4549 L -4788.575 1695.4549 C -4792.993 1695.4549 -4796.575 1691.8731 -4796.575 1687.4549 L -4796.575 1672.1545 C -4796.575 1667.7362 -4792.993 1664.1545 -4788.575 1664.1545 Z" fill="#666"/>
          <text transform="translate(-4791.575 1670.0726)" fill="white">
            <tspan font-family="Helvetica Neue" font-weight="bold" font-size="16" fill="white" x="24.53562" y="16">Other</tspan>
          </text>
        </g>
        <g id="Graphic_4">
          <text transform="translate(-4791.575 1557.1926)" fill="black">
            <tspan font-family="Helvetica Neue" font-weight="bold" font-size="16" fill="black" x="31974423e-20" y="16">Legend</tspan>
          </text>
        </g>
        <g id="Graphic_3">
          <rect x="-4806.142" y="1552.1926" width="121.1811" height="150.0121" stroke="gray" stroke-linecap="round" stroke-linejoin="round" stroke-width="1"/>
        </g>
      </g>
      <g id="Graphic_51">
        <path d="M -4662.079 1260 L -4556.8977 1260 C -4552.4794 1260 -4548.8977 1263.5817 -4548.8977 1268 L -4548.8977 1308.693 C -4548.8977 1313.1112 -4552.4794 1316.693 -4556.8977 1316.693 L -4662.079 1316.693 C -4666.497 1316.693 -4670.079 1313.1112 -4670.079 1308.693 L -4670.079 1268 C -4670.079 1263.5817 -4666.497 1260 -4662.079 1260 Z" fill="#f15623"/>
        <text transform="translate(-4665.079 1278.6144)" fill="white">
          <tspan font-family="Helvetica Neue" font-weight="bold" font-size="16" fill="white" x="43.302553" y="16">tctl</tspan>
        </text>
      </g>
      <g id="Graphic_52">
        <path d="M -4662.079 1347.874 L -4556.8977 1347.874 C -4552.4794 1347.874 -4548.8977 1351.4557 -4548.8977 1355.874 L -4548.8977 1396.567 C -4548.8977 1400.9852 -4552.4794 1404.567 -4556.8977 1404.567 L -4662.079 1404.567 C -4666.497 1404.567 -4670.079 1400.9852 -4670.079 1396.567 L -4670.079 1355.874 C -4670.079 1351.4557 -4666.497 1347.874 -4662.079 1347.874 Z" fill="#666"/>
        <text transform="translate(-4665.079 1366.4884)" fill="white">
          <tspan font-family="Helvetica Neue" font-weight="bold" font-size="16" fill="white" x="34.550553" y="16">REST</tspan>
        </text>
      </g>
      <g id="Graphic_53">
        <path d="M -4662.079 1435.748 L -4556.8977 1435.748 C -4552.4794 1435.748 -4548.8977 1439.3298 -4548.8977 1443.748 L -4548.8977 1484.441 C -4548.8977 1488.8592 -4552.4794 1492.441 -4556.8977 1492.441 L -4662.079 1492.441 C -4666.497 1492.441 -4670.079 1488.8592 -4670.079 1484.441 L -4670.079 1443.748 C -4670.079 1439.3298 -4666.497 1435.748 -4662.079 1435.748 Z" fill="#666"/>
        <text transform="translate(-4665.079 1454.3624)" fill="white">
          <tspan font-family="Helvetica Neue" font-weight="bold" font-size="16" fill="white" x="33.662553" y="16">gRPC</tspan>
        </text>
      </g>
      <g id="Graphic_54">
        <path d="M -3969.008 1172.126 L -3800.756 1172.126 C -3796.3377 1172.126 -3792.756 1175.7077 -3792.756 1180.126 L -3792.756 1220.8189 C -3792.756 1225.2372 -3796.3377 1228.8189 -3800.756 1228.8189 L -3969.008 1228.8189 C -3973.426 1228.8189 -3977.008 1225.2372 -3977.008 1220.8189 L -3977.008 1180.126 C -3977.008 1175.7077 -3973.426 1172.126 -3969.008 1172.126 Z" fill="#f15623"/>
        <text transform="translate(-3972.008 1190.7404)" fill="white">
          <tspan font-family="Helvetica Neue" font-weight="bold" font-size="16" fill="white" x="40.453984" y="16">XCP Central</tspan>
        </text>
      </g>
      <g id="Line_55">
        <path d="M -4735.9843 1332.4725 C -4707.375 1306.744 -4731.4276 1278.8642 -4695.5906 1241.4679 C -4690.848 1236.5191 -4685.853 1232.1622 -4680.755 1228.3272" marker-end="url(#FilledArrow_Marker)" stroke="black" stroke-linecap="round" stroke-linejoin="round" stroke-width="2"/>
      </g>
      <g id="Line_56">
        <path d="M -4735.9843 1333.5714 C -4703.667 1325.6858 -4715.7807 1317.0669 -4682.2994 1304.6275" marker-end="url(#FilledArrow_Marker)" stroke="black" stroke-linecap="round" stroke-linejoin="round" stroke-width="2"/>
      </g>
      <g id="Line_57">
        <path d="M -4735.9843 1334.8714 C -4713.9616 1342.2145 -4724.284 1349.336 -4689.579 1360.63 C -4687.2457 1361.3892 -4684.894 1362.1143 -4682.5343 1362.8065" marker-end="url(#FilledArrow_Marker)" stroke="black" stroke-linecap="round" stroke-linejoin="round" stroke-width="2"/>
      </g>
      <g id="Line_58">
        <path d="M -4735.9843 1335.1518 C -4713.456 1358.3156 -4730.6643 1382.5311 -4695.5906 1418.189 C -4690.4226 1423.443 -4685.018 1428.125 -4679.543 1432.2924" marker-end="url(#FilledArrow_Marker)" stroke="black" stroke-linecap="round" stroke-linejoin="round" stroke-width="2"/>
      </g>
      <g id="Line_59">
        <line x1="-4548.8977" y1="1200.4725" x2="-4466.1284" y2="1200.4725" marker-end="url(#FilledArrow_Marker)" stroke="black" stroke-linecap="round" stroke-linejoin="round" stroke-width="2"/>
      </g>
      <g id="Line_60">
        <path d="M -4548.8977 1269.6807 C -4535.5696 1251.6148 -4527.2727 1231.008 -4485.4504 1213.0275 C -4478.901 1210.2118 -4472.2914 1207.863 -4465.713 1205.9126" marker-end="url(#FilledArrow_Marker)" stroke="black" stroke-linecap="round" stroke-linejoin="round" stroke-width="2"/>
      </g>
      <g id="Line_61">
        <path d="M -4549.043 1354.3494 C -4514.187 1309.6814 -4518.4364 1257.2704 -4466.1844 1213.945 C -4465.375 1213.2737 -4464.566 1212.6193 -4463.7587 1211.9815" marker-end="url(#FilledArrow_Marker)" stroke="black" stroke-linecap="round" stroke-linejoin="round" stroke-width="2"/>
      </g>
      <g id="Line_62">
        <path d="M -4548.8977 1451.7806 C -4544.3777 1446.2976 -4539.7273 1439.5738 -4534.9917 1431.3761 C -4494.653 1361.5472 -4516.3655 1283.0309 -4467.102 1217.6147 C -4465.4694 1215.447 -4463.829 1213.4043 -4462.1823 1211.4804" marker-end="url(#FilledArrow_Marker)" stroke="black" stroke-linecap="round" stroke-linejoin="round" stroke-width="2"/>
      </g>
      <g id="Line_82">
        <line x1="-4354.7244" y1="1426.5354" x2="-4354.7244" y2="1512.848" marker-end="url(#FilledArrow_Marker)" stroke="black" stroke-linecap="round" stroke-linejoin="round" stroke-width="2"/>
      </g>
      <g id="Line_81">
        <line x1="-4122.992" y1="1426.5354" x2="-4122.992" y2="1512.848" marker-end="url(#FilledArrow_Marker)" stroke="black" stroke-linecap="round" stroke-linejoin="round" stroke-width="2"/>
      </g>
      <g id="Graphic_76">
        <path d="M -3989.764 1356.378 L -3792.756 1356.378 L -3792.756 1622.8347 L -3989.764 1622.8347 Z" stroke="gray" stroke-linecap="round" stroke-linejoin="round" stroke-dasharray="4.0,4.0" stroke-width="1"/>
        <text transform="translate(-3984.764 1599.3867)" fill="black">
          <tspan font-family="Helvetica Neue" font-size="16" fill="black" x="0" y="15">VM VPC</tspan>
        </text>
      </g>
      <g id="Graphic_75">
        <path d="M -4221.862 1356.378 L -4024.8544 1356.378 L -4024.8544 1702.2047 L -4221.862 1702.2047 Z" stroke="gray" stroke-linecap="round" stroke-linejoin="round" stroke-dasharray="4.0,4.0" stroke-width="1"/>
        <text transform="translate(-4216.862 1678.7567)" fill="black">
          <tspan font-family="Helvetica Neue" font-size="16" fill="black" x="0" y="15">application cluster</tspan>
        </text>
      </g>
      <g id="Graphic_72">
        <path d="M -4428.929 1369.8425 L -4280.5197 1369.8425 C -4276.1014 1369.8425 -4272.5197 1373.4243 -4272.5197 1377.8425 L -4272.5197 1418.5354 C -4272.5197 1422.9537 -4276.1014 1426.5354 -4280.5197 1426.5354 L -4428.929 1426.5354 C -4433.3475 1426.5354 -4436.929 1422.9537 -4436.929 1418.5354 L -4436.929 1377.8425 C -4436.929 1373.4243 -4433.3475 1369.8425 -4428.929 1369.8425 Z" fill="#f15623"/>
        <text transform="translate(-4431.929 1388.457)" fill="white">
          <tspan font-family="Helvetica Neue" font-weight="bold" font-size="16" fill="white" x="38.828727" y="16">XCP Edge</tspan>
        </text>
      </g>
      <g id="Graphic_71">
        <path d="M -4436.929 1455.5906 L -4272.5197 1455.5906 L -4272.5197 1497.5433 C -4321.8426 1492.2992 -4387.6063 1513.2756 -4436.929 1502.7874 Z" fill="#456cb0"/>
        <text transform="translate(-4431.929 1469.965)" fill="white">
          <tspan font-family="Helvetica Neue" font-size="16" fill="white" x="16.164727" y="15">Publish Istio CRs</tspan>
        </text>
      </g>
      <g id="Graphic_70">
        <path d="M -4428.929 1525.748 L -4280.5197 1525.748 C -4276.1014 1525.748 -4272.5197 1529.3298 -4272.5197 1533.748 L -4272.5197 1574.441 C -4272.5197 1578.8592 -4276.1014 1582.441 -4280.5197 1582.441 L -4428.929 1582.441 C -4433.3475 1582.441 -4436.929 1578.8592 -4436.929 1574.441 L -4436.929 1533.748 C -4436.929 1529.3298 -4433.3475 1525.748 -4428.929 1525.748 Z" fill="#666"/>
        <text transform="translate(-4431.929 1534.6304)" fill="white">
          <tspan font-family="Helvetica Neue" font-weight="bold" font-size="16" fill="white" x="17.508727" y="16">Kubernetes API </tspan>
          <tspan font-family="Helvetica Neue" font-weight="bold" font-size="16" fill="white" x="52.44473" y="35.46411">Server</tspan>
        </text>
      </g>
      <g id="Graphic_69">
        <path d="M -4281.0237 1279.8425 L -3964.9607 1279.8425 L -3964.9607 1321.7953 C -4059.7796 1316.5512 -4186.205 1337.5276 -4281.0237 1327.0394 Z" fill="#f15623"/>
        <text transform="translate(-4276.0237 1294.217)" fill="white">
          <tspan font-family="Helvetica Neue" font-size="16" fill="white" x="80.13549" y="15">Publish Edge Config</tspan>
        </text>
      </g>
      <g id="Graphic_68">
        <path d="M -4197.197 1369.8425 L -4048.7874 1369.8425 C -4044.369 1369.8425 -4040.7874 1373.4243 -4040.7874 1377.8425 L -4040.7874 1418.5354 C -4040.7874 1422.9537 -4044.369 1426.5354 -4048.7874 1426.5354 L -4197.197 1426.5354 C -4201.615 1426.5354 -4205.197 1422.9537 -4205.197 1418.5354 L -4205.197 1377.8425 C -4205.197 1373.4243 -4201.615 1369.8425 -4197.197 1369.8425 Z" fill="#f15623"/>
        <text transform="translate(-4200.197 1388.457)" fill="white">
          <tspan font-family="Helvetica Neue" font-weight="bold" font-size="16" fill="white" x="38.828727" y="16">XCP Edge</tspan>
        </text>
      </g>
      <g id="Graphic_67">
        <path d="M -4205.197 1455.5906 L -4040.7874 1455.5906 L -4040.7874 1497.5433 C -4090.1103 1492.2992 -4155.874 1513.2756 -4205.197 1502.7874 Z" fill="#456cb0"/>
        <text transform="translate(-4200.197 1469.965)" fill="white">
          <tspan font-family="Helvetica Neue" font-size="16" fill="white" x="16.164727" y="15">Publish Istio CRs</tspan>
        </text>
      </g>
      <g id="Graphic_66">
        <path d="M -4197.197 1525.748 L -4048.7874 1525.748 C -4044.369 1525.748 -4040.7874 1529.3298 -4040.7874 1533.748 L -4040.7874 1574.441 C -4040.7874 1578.8592 -4044.369 1582.441 -4048.7874 1582.441 L -4197.197 1582.441 C -4201.615 1582.441 -4205.197 1578.8592 -4205.197 1574.441 L -4205.197 1533.748 C -4205.197 1529.3298 -4201.615 1525.748 -4197.197 1525.748 Z" fill="#666"/>
        <text transform="translate(-4200.197 1534.6304)" fill="white">
          <tspan font-family="Helvetica Neue" font-weight="bold" font-size="16" fill="white" x="17.508727" y="16">Kubernetes API </tspan>
          <tspan font-family="Helvetica Neue" font-weight="bold" font-size="16" fill="white" x="52.44473" y="35.46411">Server</tspan>
        </text>
      </g>
      <g id="Graphic_65">
        <path d="M -3965.4646 1369.8425 L -3817.055 1369.8425 C -3812.637 1369.8425 -3809.055 1373.4243 -3809.055 1377.8425 L -3809.055 1418.5354 C -3809.055 1422.9537 -3812.637 1426.5354 -3817.055 1426.5354 L -3965.4646 1426.5354 C -3969.883 1426.5354 -3973.4646 1422.9537 -3973.4646 1418.5354 L -3973.4646 1377.8425 C -3973.4646 1373.4243 -3969.883 1369.8425 -3965.4646 1369.8425 Z" fill="#f15623"/>
        <text transform="translate(-3968.4646 1388.457)" fill="white">
          <tspan font-family="Helvetica Neue" font-weight="bold" font-size="16" fill="white" x="38.828727" y="16">XCP Edge</tspan>
        </text>
      </g>
      <g id="Graphic_63">
        <path d="M -3966.197 1524.748 L -3817.7874 1524.748 C -3813.369 1524.748 -3809.7874 1528.3298 -3809.7874 1532.748 L -3809.7874 1573.441 C -3809.7874 1577.8592 -3813.369 1581.441 -3817.7874 1581.441 L -3966.197 1581.441 C -3970.615 1581.441 -3974.197 1577.8592 -3974.197 1573.441 L -3974.197 1532.748 C -3974.197 1528.3298 -3970.615 1524.748 -3966.197 1524.748 Z" fill="#456cb0"/>
        <text transform="translate(-3969.197 1543.3624)" fill="white">
          <tspan font-family="Helvetica Neue" font-weight="bold" font-size="16" fill="white" x="55.89273" y="16">Istiod</tspan>
        </text>
      </g>
      <g id="Graphic_85">
        <path d="M -4196.8426 1611.496 L -4048.433 1611.496 C -4044.015 1611.496 -4040.433 1615.0778 -4040.433 1619.496 L -4040.433 1660.189 C -4040.433 1664.6073 -4044.015 1668.189 -4048.433 1668.189 L -4196.8426 1668.189 C -4201.261 1668.189 -4204.8426 1664.6073 -4204.8426 1660.189 L -4204.8426 1619.496 C -4204.8426 1615.0778 -4201.261 1611.496 -4196.8426 1611.496 Z" fill="#456cb0"/>
        <text transform="translate(-4199.8426 1630.1105)" fill="white">
          <tspan font-family="Helvetica Neue" font-weight="bold" font-size="16" fill="white" x="55.89273" y="16">Istiod</tspan>
        </text>
      </g>
      <g id="Line_86">
        <path d="M -3891.26 1426.5354 L -3891.26 1437.5354 L -3891.626 1475.6417 L -3891.992 1505.848 L -3891.992 1511.848" marker-end="url(#FilledArrow_Marker)" stroke="black" stroke-linecap="round" stroke-linejoin="round" stroke-width="2"/>
      </g>
      <g id="Line_87">
        <line x1="-4354.7244" y1="1582.441" x2="-4354.7244" y2="1598.596" marker-end="url(#FilledArrow_Marker)" stroke="black" stroke-linecap="round" stroke-linejoin="round" stroke-width="2"/>
      </g>
      <g id="Line_88">
        <path d="M -4122.992 1582.441 L -4122.992 1593.441 L -4122.815 1596.9685 L -4122.638 1596.9685 L -4122.638 1598.596" marker-end="url(#FilledArrow_Marker)" stroke="black" stroke-linecap="round" stroke-linejoin="round" stroke-width="2"/>
      </g>
      <g id="Line_89">
        <path d="M -4281.0237 1306.063 L -4289.9534 1306.063 L -4289.9534 1305.9867 L -4354.7244 1305.9867 L -4354.7244 1356.9425" marker-end="url(#FilledArrow_Marker)" stroke="black" stroke-linecap="round" stroke-linejoin="round" stroke-width="2"/>
      </g>
      <g id="Line_90">
        <line x1="-4122.992" y1="1326.3839" x2="-4122.992" y2="1356.9425" marker-end="url(#FilledArrow_Marker)" stroke="black" stroke-linecap="round" stroke-linejoin="round" stroke-width="2"/>
      </g>
      <g id="Line_91">
        <path d="M -3964.9607 1306.063 L -3953.9566 1306.063 L -3920.995 1306.2527 L -3891.26 1306.2527 L -3891.26 1356.9425" marker-end="url(#FilledArrow_Marker)" stroke="black" stroke-linecap="round" stroke-linejoin="round" stroke-width="2"/>
      </g>
      <g id="Line_92">
        <line x1="-4268.9764" y1="1200.4725" x2="-3989.908" y2="1200.4725" marker-end="url(#FilledArrow_Marker)" stroke="black" stroke-linecap="round" stroke-linejoin="round" stroke-width="2"/>
      </g>
      <g id="Line_93">
        <path d="M -3884.882 1228.8189 L -3884.882 1254.8967 L -4122.992 1254.8967 L -4122.992 1279.8425" stroke="black" stroke-linecap="round" stroke-linejoin="round" stroke-width="2"/>
      </g>
      <g id="Graphic_22">
        <path d="M -4210.9 1174.252 L -4046.4906 1174.252 L -4046.4906 1216.2047 C -4095.8134 1210.9606 -4161.577 1231.937 -4210.9 1221.4488 Z" fill="#f15623"/>
        <text transform="translate(-4205.9 1179.4024)" fill="white">
          <tspan font-family="Helvetica Neue" font-size="16" fill="white" x="41.052727" y="15">Push XCP</tspan>
          <tspan font-family="Helvetica Neue" font-size="16" fill="white" x="53.65273" y="33.448">Config</tspan>
        </text>
      </g>
      <g id="Graphic_64">
        <path d="M -3964.547 1455.5906 L -3837.198 1456.5906 L -3819.437 1471.3307 L -3819.458 1497.5433 L -3964.547 1497.5433 Z" fill="#456cb0"/>
        <text transform="translate(-3959.547 1467.343)" fill="white">
          <tspan font-family="Helvetica Neue" font-size="16" fill="white" x="14.371046" y="15">Write Istio CRs</tspan>
        </text>
      </g>
    </g>
  </g>
</svg>
