<svg xmlns="http://www.w3.org/2000/svg" width="1066.667" height="1066.667" preserveAspectRatio="xMidYMid meet" version="1.0" viewBox="0 0 800 800"><metadata>Created by potrace 1.11, written by Peter Selinger 2001-2013</metadata><g fill="#000" stroke="none"><path d="M3835 7855 c-33 -12 -85 -33 -116 -48 -31 -15 -61 -27 -67 -27 -7 0 -12 -4 -12 -10 0 -5 -4 -10 -9 -10 -10 0 -178 -75 -201 -90 -8 -6 -24 -14 -35 -19 -27 -12 -191 -89 -345 -163 -69 -33 -181 -87 -250 -120 -69 -33 -168 -80 -220 -105 -52 -25 -142 -68 -200 -96 -58 -27 -168 -80 -245 -117 -77 -37 -169 -81 -205 -97 -36 -17 -137 -66 -225 -108 -88 -43 -191 -92 -230 -110 -77 -36 -322 -153 -455 -218 -47 -23 -94 -48 -104 -57 -128 -101 -181 -184 -221 -340 -6 -24 -16 -69 -19 -85 -2 -11 -9 -38 -14 -60 -6 -22 -13 -52 -16 -68 -3 -15 -7 -35 -10 -45 -3 -9 -7 -28 -10 -42 -2 -14 -9 -45 -15 -70 -7 -25 -14 -56 -17 -70 -3 -13 -14 -63 -25 -110 -12 -47 -23 -96 -25 -110 -3 -14 -10 -43 -15 -65 -5 -22 -12 -51 -15 -65 -3 -14 -14 -61 -24 -105 -11 -44 -29 -120 -40 -170 -12 -49 -23 -97 -25 -105 -2 -8 -10 -46 -19 -85 -8 -38 -33 -149 -56 -245 -59 -257 -150 -651 -156 -680 -3 -14 -12 -54 -20 -90 -9 -36 -17 -72 -19 -80 -2 -8 -23 -103 -48 -210 -26 -107 -48 -206 -51 -220 -3 -14 -9 -40 -15 -57 -5 -18 -8 -33 -6 -33 3 0 0 -12 -6 -27 -28 -74 -32 -246 -7 -325 28 -93 60 -145 161 -269 15 -19 71 -88 123 -154 53 -66 108 -134 123 -151 14 -17 37 -46 51 -64 14 -18 30 -38 35 -44 6 -6 111 -137 234 -291 124 -154 236 -294 250 -310 14 -17 40 -48 56 -70 17 -21 50 -64 75 -94 25 -31 111 -137 190 -236 80 -99 150 -187 157 -195 7 -8 56 -69 109 -135 52 -66 103 -129 112 -140 10 -11 69 -85 132 -165 63 -80 120 -149 125 -155 6 -5 28 -32 50 -60 85 -110 181 -183 290 -221 11 -4 27 -10 35 -13 8 -3 750 -7 1648 -8 1467 -3 1639 -2 1694 13 91 23 167 65 230 126 29 28 183 214 337 408 28 36 57 72 64 80 7 8 57 71 112 140 55 69 105 130 110 136 6 6 28 34 50 62 36 48 54 58 93 53 8 -1 12 12 12 37 0 26 8 49 22 68 26 33 29 36 100 125 29 36 67 82 83 103 17 22 35 44 40 50 6 6 26 31 45 56 19 25 42 54 52 65 9 11 52 65 97 120 44 55 86 106 92 113 6 8 39 48 72 90 33 43 63 79 66 82 4 3 18 21 32 40 15 19 35 45 45 57 26 29 29 34 189 233 76 96 144 180 150 187 5 7 15 18 20 25 6 7 38 48 73 91 65 83 105 157 123 235 14 60 18 166 8 212 -4 19 -10 46 -13 60 -6 31 -7 34 -46 200 -17 74 -33 144 -35 155 -3 11 -13 58 -25 105 -33 140 -142 613 -146 638 -3 12 -14 62 -25 110 -12 48 -22 94 -24 102 -2 8 -8 33 -13 55 -6 22 -13 51 -16 65 -2 14 -10 48 -16 75 -6 28 -14 61 -16 75 -3 14 -7 31 -9 38 -3 7 -21 84 -40 170 -19 86 -44 193 -54 237 -41 170 -53 221 -57 240 -4 21 -11 53 -18 83 -4 16 -50 214 -98 422 -11 47 -26 117 -35 155 -23 109 -72 202 -146 276 -87 87 -51 65 -342 204 -124 60 -334 161 -475 228 -36 17 -67 32 -70 32 -3 1 -66 31 -140 67 -74 36 -178 86 -230 111 -52 24 -149 71 -215 102 -158 75 -312 149 -460 221 -66 32 -122 58 -125 58 -3 1 -36 16 -75 35 -134 65 -371 179 -460 221 -49 23 -142 68 -205 98 -63 31 -117 56 -120 57 -3 0 -14 6 -25 12 -84 46 -275 56 -380 18z" transform="translate(0.000000,800.000000) scale(0.100000,-0.100000)"/></g></svg>