<svg width="65" height="65" viewBox="0 0 65 65" fill="none" xmlns="http://www.w3.org/2000/svg">
<circle cx="32.7119" cy="32.9471" r="32" fill="#F05623"/>
<g clip-path="url(#clip0)">
<path d="M47.7119 46.9471V44.9471H45.7119V32.9471H47.7119V30.9471H41.7119V32.9471H43.7119V44.9471H37.7119V32.9471H39.7119V30.9471H33.7119V32.9471H35.7119V44.9471H29.7119V32.9471H31.7119V30.9471H25.7119V32.9471H27.7119V44.9471H21.7119V32.9471H23.7119V30.9471H17.7119V32.9471H19.7119V44.9471H17.7119V46.9471H15.7119V48.9471H49.7119V46.9471H47.7119Z" fill="white"/>
<path d="M31.7119 16.9471H33.7119L49.7119 26.9471V28.9471H15.7119V26.9471L31.7119 16.9471Z" fill="white"/>
</g>
<defs>
<clipPath id="clip0">
<rect width="34" height="32" fill="white" transform="translate(15.7119 16.9471)"/>
</clipPath>
</defs>
</svg>
