<?xml version="1.0" encoding="UTF-8" standalone="no"?>
<!DOCTYPE svg PUBLIC "-//W3C//DTD SVG 1.1//EN" "http://www.w3.org/Graphics/SVG/1.1/DTD/svg11.dtd">
<svg xmlns="http://www.w3.org/2000/svg" xmlns:dc="http://purl.org/dc/elements/1.1/" version="1.1" xmlns:xl="http://www.w3.org/1999/xlink" viewBox="-3728 2609 1302 532" width="1302" height="532">
  <defs>
    <marker orient="auto" overflow="visible" markerUnits="strokeWidth" id="FilledArrow_Marker" stroke-linejoin="miter" stroke-miterlimit="10" viewBox="-1 -4 10 8" markerWidth="10" markerHeight="8" color="black">
      <g>
        <path d="M 8 0 L 0 -3 L 0 3 Z" fill="currentColor" stroke="currentColor" stroke-width="1"/>
      </g>
    </marker>
    <marker orient="auto" overflow="visible" markerUnits="strokeWidth" id="FilledArrow_Marker_2" stroke-linejoin="miter" stroke-miterlimit="10" viewBox="-1 -4 10 8" markerWidth="10" markerHeight="8" color="#f15623">
      <g>
        <path d="M 8 0 L 0 -3 L 0 3 Z" fill="currentColor" stroke="currentColor" stroke-width="1"/>
      </g>
    </marker>
  </defs>
  <g id="Canvas_35" fill-opacity="1" fill="none" stroke="none" stroke-opacity="1" stroke-dasharray="none">
    <title>Canvas 35</title>
    <rect fill="white" x="-3728" y="2609" width="1302" height="532"/>
    <g id="Canvas_35_Layer_1">
      <title>Layer 1</title>
      <g id="Graphic_58"/>
      <g id="Graphic_7">
        <rect x="-3354.803" y="2837.4803" width="223.937" height="257.95276" stroke="gray" stroke-linecap="round" stroke-linejoin="round" stroke-width="1"/>
        <text transform="translate(-3349.803 2852.4803)" fill="black">
          <tspan font-family="Helvetica Neue" font-weight="bold" font-size="16" fill="black" x="54.840506" y="16">API Definition</tspan>
        </text>
      </g>
      <g id="Graphic_47">
        <path d="M -3071.8425 2780.0788 L -2454.2992 2780.0788 C -2449.881 2780.0788 -2446.2992 2783.6605 -2446.2992 2788.0788 L -2446.2992 3110.819 C -2446.2992 3115.2372 -2449.881 3118.819 -2454.2992 3118.819 L -3071.8425 3118.819 C -3076.261 3118.819 -3079.8425 3115.2372 -3079.8425 3110.819 L -3079.8425 2788.0788 C -3079.8425 2783.6605 -3076.261 2780.0788 -3071.8425 2780.0788 Z" stroke="gray" stroke-linecap="round" stroke-linejoin="round" stroke-width="1"/>
      </g>
      <g id="Graphic_11">
        <rect x="-3058.5827" y="2803.4646" width="273.5433" height="291.9685" fill="#f7f9ff"/>
        <rect x="-3058.5827" y="2803.4646" width="273.5433" height="291.9685" stroke="gray" stroke-linecap="round" stroke-linejoin="round" stroke-width="1"/>
        <text transform="translate(-3053.5827 2818.4646)" fill="black">
          <tspan font-family="Helvetica Neue" font-weight="bold" font-size="20" fill="black" x="88.99165" y="20">Cluster 1</tspan>
        </text>
      </g>
      <g id="Graphic_2">
        <circle cx="-3642.5197" cy="2765.3467" r="70.8662545564166" fill="#666"/>
        <circle cx="-3642.5197" cy="2765.3467" r="70.8662545564166" stroke="gray" stroke-linecap="round" stroke-linejoin="round" stroke-width="1"/>
        <text transform="translate(-3694.2126 2755.6147)" fill="white">
          <tspan font-family="Helvetica Neue" font-weight="bold" font-size="16" fill="white" x="3.036913" y="16">Organization</tspan>
        </text>
      </g>
      <g id="Graphic_3">
        <circle cx="-3642.5197" cy="2966.4567" r="70.8662545564165" fill="#666"/>
        <circle cx="-3642.5197" cy="2966.4567" r="70.8662545564165" stroke="gray" stroke-linecap="round" stroke-linejoin="round" stroke-width="1"/>
        <text transform="translate(-3694.2126 2956.7247)" fill="white">
          <tspan font-family="Helvetica Neue" font-weight="bold" font-size="16" fill="white" x="26.204913" y="16">Tenant</tspan>
        </text>
      </g>
      <g id="Graphic_4">
        <circle cx="-3463.2284" cy="2966.4567" r="70.8662545564165" fill="#666"/>
        <circle cx="-3463.2284" cy="2966.4567" r="70.8662545564165" stroke="gray" stroke-linecap="round" stroke-linejoin="round" stroke-width="1"/>
        <text transform="translate(-3514.9213 2956.7247)" fill="white">
          <tspan font-family="Helvetica Neue" font-weight="bold" font-size="16" fill="white" x="8.612913" y="16">Application</tspan>
        </text>
      </g>
      <g id="Graphic_5">
        <path d="M -3319.874 2892.756 L -3165.7953 2892.756 C -3161.377 2892.756 -3157.7953 2896.3377 -3157.7953 2900.756 L -3157.7953 2969.7953 C -3157.7953 2974.2136 -3161.377 2977.7953 -3165.7953 2977.7953 L -3319.874 2977.7953 C -3324.2923 2977.7953 -3327.874 2974.2136 -3327.874 2969.7953 L -3327.874 2900.756 C -3327.874 2896.3377 -3324.2923 2892.756 -3319.874 2892.756 Z" fill="#666"/>
        <path d="M -3319.874 2892.756 L -3165.7953 2892.756 C -3161.377 2892.756 -3157.7953 2896.3377 -3157.7953 2900.756 L -3157.7953 2969.7953 C -3157.7953 2974.2136 -3161.377 2977.7953 -3165.7953 2977.7953 L -3319.874 2977.7953 C -3324.2923 2977.7953 -3327.874 2974.2136 -3327.874 2969.7953 L -3327.874 2900.756 C -3327.874 2896.3377 -3324.2923 2892.756 -3319.874 2892.756 Z" stroke="gray" stroke-linecap="round" stroke-linejoin="round" stroke-width="1"/>
        <text transform="translate(-3322.874 2925.5436)" fill="white">
          <tspan font-family="Helvetica Neue" font-size="16" fill="white" x="46.70337" y="16">Endpoint</tspan>
        </text>
      </g>
      <g id="Graphic_6">
        <path d="M -3319.874 2996.2205 L -3165.7953 2996.2205 C -3161.377 2996.2205 -3157.7953 2999.8022 -3157.7953 3004.2205 L -3157.7953 3073.26 C -3157.7953 3077.678 -3161.377 3081.26 -3165.7953 3081.26 L -3319.874 3081.26 C -3324.2923 3081.26 -3327.874 3077.678 -3327.874 3073.26 L -3327.874 3004.2205 C -3327.874 2999.8022 -3324.2923 2996.2205 -3319.874 2996.2205 Z" fill="#666"/>
        <path d="M -3319.874 2996.2205 L -3165.7953 2996.2205 C -3161.377 2996.2205 -3157.7953 2999.8022 -3157.7953 3004.2205 L -3157.7953 3073.26 C -3157.7953 3077.678 -3161.377 3081.26 -3165.7953 3081.26 L -3319.874 3081.26 C -3324.2923 3081.26 -3327.874 3077.678 -3327.874 3073.26 L -3327.874 3004.2205 C -3327.874 2999.8022 -3324.2923 2996.2205 -3319.874 2996.2205 Z" stroke="gray" stroke-linecap="round" stroke-linejoin="round" stroke-width="1"/>
        <text transform="translate(-3322.874 3029.008)" fill="white">
          <tspan font-family="Helvetica Neue" font-size="16" fill="white" x="46.70337" y="16">Endpoint</tspan>
        </text>
      </g>
      <g id="Line_8">
        <line x1="-3642.5197" y1="2836.213" x2="-3642.5197" y2="2885.6905" marker-end="url(#FilledArrow_Marker)" stroke="black" stroke-linecap="round" stroke-linejoin="round" stroke-width="1"/>
      </g>
      <g id="Line_9">
        <line x1="-3571.6535" y1="2966.4567" x2="-3543.9946" y2="2966.4567" marker-end="url(#FilledArrow_Marker)" stroke="black" stroke-linecap="round" stroke-linejoin="round" stroke-width="1"/>
      </g>
      <g id="Line_10">
        <line x1="-3392.362" y1="2966.4567" x2="-3364.703" y2="2966.4567" marker-end="url(#FilledArrow_Marker)" stroke="black" stroke-linecap="round" stroke-linejoin="round" stroke-width="1"/>
      </g>
      <g id="Group_32">
        <g id="Graphic_27">
          <rect x="-3041.2205" y="2867.244" width="238.8189" height="93.54331" fill="white"/>
          <rect x="-3041.2205" y="2867.244" width="238.8189" height="93.54331" stroke="gray" stroke-linecap="round" stroke-linejoin="round" stroke-width="1"/>
          <text transform="translate(-3036.2205 2955.7874) rotate(-90)" fill="black">
            <tspan font-family="Helvetica Neue" font-weight="bold" font-size="16" fill="black" x="26.659652" y="16">Pod</tspan>
          </text>
        </g>
        <g id="Graphic_29">
          <path d="M -2997.7874 2884.9607 L -2924.496 2884.9607 C -2920.0778 2884.9607 -2916.496 2888.5424 -2916.496 2892.9607 L -2916.496 2935.071 C -2916.496 2939.489 -2920.0778 2943.071 -2924.496 2943.071 L -2997.7874 2943.071 C -3002.2057 2943.071 -3005.7874 2939.489 -3005.7874 2935.071 L -3005.7874 2892.9607 C -3005.7874 2888.5424 -3002.2057 2884.9607 -2997.7874 2884.9607 Z" fill="#f15623"/>
          <text transform="translate(-3000.7874 2904.7918)" fill="white">
            <tspan font-family="Helvetica Neue" font-size="16" fill="white" x="17.717668" y="15">Envoy</tspan>
          </text>
        </g>
        <g id="Graphic_28">
          <path d="M -2901.4095 2884.9607 L -2828.118 2884.9607 C -2823.7 2884.9607 -2820.118 2888.5424 -2820.118 2892.9607 L -2820.118 2935.071 C -2820.118 2939.489 -2823.7 2943.071 -2828.118 2943.071 L -2901.4095 2943.071 C -2905.8278 2943.071 -2909.4095 2939.489 -2909.4095 2935.071 L -2909.4095 2892.9607 C -2909.4095 2888.5424 -2905.8278 2884.9607 -2901.4095 2884.9607 Z" fill="#ccc"/>
          <text transform="translate(-2904.4095 2895.5678)" fill="black">
            <tspan font-family="Helvetica Neue" font-size="16" fill="black" x="5.877668" y="15">Workload</tspan>
            <tspan font-family="Helvetica Neue" font-size="16" fill="black" x="8.989668" y="33.448">(Service)</tspan>
          </text>
        </g>
      </g>
      <g id="Group_33">
        <g id="Graphic_36">
          <rect x="-3041.2205" y="2986.2992" width="238.8189" height="93.54331" fill="white"/>
          <rect x="-3041.2205" y="2986.2992" width="238.8189" height="93.54331" stroke="gray" stroke-linecap="round" stroke-linejoin="round" stroke-width="1"/>
          <text transform="translate(-3036.2205 3074.8425) rotate(-90)" fill="black">
            <tspan font-family="Helvetica Neue" font-weight="bold" font-size="16" fill="black" x="26.659652" y="16">Pod</tspan>
          </text>
        </g>
        <g id="Graphic_35">
          <path d="M -2997.7874 3004.0158 L -2924.496 3004.0158 C -2920.0778 3004.0158 -2916.496 3007.5975 -2916.496 3012.0158 L -2916.496 3054.126 C -2916.496 3058.5443 -2920.0778 3062.126 -2924.496 3062.126 L -2997.7874 3062.126 C -3002.2057 3062.126 -3005.7874 3058.5443 -3005.7874 3054.126 L -3005.7874 3012.0158 C -3005.7874 3007.5975 -3002.2057 3004.0158 -2997.7874 3004.0158 Z" fill="#f15623"/>
          <text transform="translate(-3000.7874 3023.847)" fill="white">
            <tspan font-family="Helvetica Neue" font-size="16" fill="white" x="17.717668" y="15">Envoy</tspan>
          </text>
        </g>
        <g id="Graphic_34">
          <path d="M -2901.4095 3004.0158 L -2828.118 3004.0158 C -2823.7 3004.0158 -2820.118 3007.5975 -2820.118 3012.0158 L -2820.118 3054.126 C -2820.118 3058.5443 -2823.7 3062.126 -2828.118 3062.126 L -2901.4095 3062.126 C -2905.8278 3062.126 -2909.4095 3058.5443 -2909.4095 3054.126 L -2909.4095 3012.0158 C -2909.4095 3007.5975 -2905.8278 3004.0158 -2901.4095 3004.0158 Z" fill="#ccc"/>
          <text transform="translate(-2904.4095 3014.623)" fill="black">
            <tspan font-family="Helvetica Neue" font-size="16" fill="black" x="5.877668" y="15">Workload</tspan>
            <tspan font-family="Helvetica Neue" font-size="16" fill="black" x="8.989668" y="33.448">(Service)</tspan>
          </text>
        </g>
      </g>
      <g id="Graphic_45">
        <rect x="-2745.3544" y="2803.4646" width="273.5433" height="291.9685" fill="#f7f9ff"/>
        <rect x="-2745.3544" y="2803.4646" width="273.5433" height="291.9685" stroke="gray" stroke-linecap="round" stroke-linejoin="round" stroke-width="1"/>
        <text transform="translate(-2740.3544 2818.4646)" fill="black">
          <tspan font-family="Helvetica Neue" font-weight="bold" font-size="20" fill="black" x="88.99165" y="20">Cluster 2</tspan>
        </text>
      </g>
      <g id="Group_41">
        <g id="Graphic_44">
          <rect x="-2727.992" y="2867.244" width="238.8189" height="93.54331" fill="white"/>
          <rect x="-2727.992" y="2867.244" width="238.8189" height="93.54331" stroke="gray" stroke-linecap="round" stroke-linejoin="round" stroke-width="1"/>
          <text transform="translate(-2722.992 2955.7874) rotate(-90)" fill="black">
            <tspan font-family="Helvetica Neue" font-weight="bold" font-size="16" fill="black" x="26.659652" y="16">Pod</tspan>
          </text>
        </g>
        <g id="Graphic_43">
          <path d="M -2684.559 2884.9607 L -2611.2677 2884.9607 C -2606.8495 2884.9607 -2603.2677 2888.5424 -2603.2677 2892.9607 L -2603.2677 2935.071 C -2603.2677 2939.489 -2606.8495 2943.071 -2611.2677 2943.071 L -2684.559 2943.071 C -2688.9774 2943.071 -2692.559 2939.489 -2692.559 2935.071 L -2692.559 2892.9607 C -2692.559 2888.5424 -2688.9774 2884.9607 -2684.559 2884.9607 Z" fill="#f15623"/>
          <text transform="translate(-2687.559 2904.7918)" fill="white">
            <tspan font-family="Helvetica Neue" font-size="16" fill="white" x="17.717668" y="15">Envoy</tspan>
          </text>
        </g>
        <g id="Graphic_42">
          <path d="M -2588.181 2884.9607 L -2514.8898 2884.9607 C -2510.4715 2884.9607 -2506.8898 2888.5424 -2506.8898 2892.9607 L -2506.8898 2935.071 C -2506.8898 2939.489 -2510.4715 2943.071 -2514.8898 2943.071 L -2588.181 2943.071 C -2592.5994 2943.071 -2596.181 2939.489 -2596.181 2935.071 L -2596.181 2892.9607 C -2596.181 2888.5424 -2592.5994 2884.9607 -2588.181 2884.9607 Z" fill="#ccc"/>
          <text transform="translate(-2591.181 2895.5678)" fill="black">
            <tspan font-family="Helvetica Neue" font-size="16" fill="black" x="5.877668" y="15">Workload</tspan>
            <tspan font-family="Helvetica Neue" font-size="16" fill="black" x="8.989668" y="33.448">(Service)</tspan>
          </text>
        </g>
      </g>
      <g id="Group_37">
        <g id="Graphic_40">
          <rect x="-2727.992" y="2986.2992" width="238.8189" height="93.54331" fill="white"/>
          <rect x="-2727.992" y="2986.2992" width="238.8189" height="93.54331" stroke="gray" stroke-linecap="round" stroke-linejoin="round" stroke-width="1"/>
          <text transform="translate(-2722.992 3074.8425) rotate(-90)" fill="black">
            <tspan font-family="Helvetica Neue" font-weight="bold" font-size="16" fill="black" x="26.659652" y="16">Pod</tspan>
          </text>
        </g>
        <g id="Graphic_39">
          <path d="M -2684.559 3004.0158 L -2611.2677 3004.0158 C -2606.8495 3004.0158 -2603.2677 3007.5975 -2603.2677 3012.0158 L -2603.2677 3054.126 C -2603.2677 3058.5443 -2606.8495 3062.126 -2611.2677 3062.126 L -2684.559 3062.126 C -2688.9774 3062.126 -2692.559 3058.5443 -2692.559 3054.126 L -2692.559 3012.0158 C -2692.559 3007.5975 -2688.9774 3004.0158 -2684.559 3004.0158 Z" fill="#f15623"/>
          <text transform="translate(-2687.559 3023.847)" fill="white">
            <tspan font-family="Helvetica Neue" font-size="16" fill="white" x="17.717668" y="15">Envoy</tspan>
          </text>
        </g>
        <g id="Graphic_38">
          <path d="M -2588.181 3004.0158 L -2514.8898 3004.0158 C -2510.4715 3004.0158 -2506.8898 3007.5975 -2506.8898 3012.0158 L -2506.8898 3054.126 C -2506.8898 3058.5443 -2510.4715 3062.126 -2514.8898 3062.126 L -2588.181 3062.126 C -2592.5994 3062.126 -2596.181 3058.5443 -2596.181 3054.126 L -2596.181 3012.0158 C -2596.181 3007.5975 -2592.5994 3004.0158 -2588.181 3004.0158 Z" fill="#ccc"/>
          <text transform="translate(-2591.181 3014.623)" fill="black">
            <tspan font-family="Helvetica Neue" font-size="16" fill="black" x="5.877668" y="15">Workload</tspan>
            <tspan font-family="Helvetica Neue" font-size="16" fill="black" x="8.989668" y="33.448">(Service)</tspan>
          </text>
        </g>
      </g>
      <g id="Graphic_46">
        <path d="M -3071.8425 2645.842 L -2454.2992 2645.842 C -2449.881 2645.842 -2446.2992 2649.4238 -2446.2992 2653.842 L -2446.2992 2695.9523 C -2446.2992 2700.3706 -2449.881 2703.9523 -2454.2992 2703.9523 L -3071.8425 2703.9523 C -3076.261 2703.9523 -3079.8425 2700.3706 -3079.8425 2695.9523 L -3079.8425 2653.842 C -3079.8425 2649.4238 -3076.261 2645.842 -3071.8425 2645.842 Z" fill="#f15623"/>
        <text transform="translate(-3074.8425 2665.165)" fill="white">
          <tspan font-family="Helvetica Neue" font-weight="bold" font-size="16" fill="white" x="249.54767" y="16">Service Registry</tspan>
        </text>
      </g>
      <g id="Graphic_48">
        <text transform="translate(-2596.3472 2621.378)" fill="black">
          <tspan font-family="Helvetica Neue" font-size="16" fill="black" x="6963319e-19" y="16">Management Plane</tspan>
        </text>
      </g>
      <g id="Graphic_49">
        <text transform="translate(-2601.2432 2755.6147)" fill="black">
          <tspan font-family="Helvetica Neue" font-size="16" fill="black" x="0" y="16">Global Control Plane</tspan>
        </text>
      </g>
      <g id="Line_50">
        <line x1="-2763.071" y1="2703.9523" x2="-2763.071" y2="2780.0788" stroke="black" stroke-linecap="round" stroke-linejoin="round" stroke-width="1"/>
      </g>
      <g id="Line_52">
        <path d="M -3571.6535 2765.3467 L -3008.114 2765.3467 L -3008.114 2793.5646" marker-end="url(#FilledArrow_Marker)" stroke="black" stroke-linecap="round" stroke-linejoin="round" stroke-width="1"/>
      </g>
      <g id="Line_53">
        <line x1="-3157.7953" y1="2914.0158" x2="-3051.1205" y2="2914.0158" marker-end="url(#FilledArrow_Marker)" stroke="black" stroke-linecap="round" stroke-linejoin="round" stroke-dasharray="4.0,4.0" stroke-width="1"/>
      </g>
      <g id="Line_54">
        <line x1="-3157.7953" y1="3033.071" x2="-3051.1205" y2="3033.071" marker-end="url(#FilledArrow_Marker)" stroke="black" stroke-linecap="round" stroke-linejoin="round" stroke-dasharray="4.0,4.0" stroke-width="1"/>
      </g>
      <g id="Line_55">
        <path d="M -3463.2284 3037.323 L -3463.2284 3118.819 L -3101.4286 3118.819 L -3101.4286 3057.143 L -3051.1205 3057.143" marker-end="url(#FilledArrow_Marker_2)" stroke="#f15623" stroke-linecap="round" stroke-linejoin="round" stroke-dasharray="4.0,4.0" stroke-width="1"/>
      </g>
      <g id="Line_57">
        <path d="M -3101.3245 3057.143 L -3101.3245 2950.42 L -3051.1205 2950.42" marker-end="url(#FilledArrow_Marker_2)" stroke="#f15623" stroke-linecap="round" stroke-linejoin="round" stroke-dasharray="4.0,4.0" stroke-width="1"/>
      </g>
    </g>
  </g>
</svg>
