<?xml version="1.0" encoding="UTF-8" standalone="no"?>
<!DOCTYPE svg PUBLIC "-//W3C//DTD SVG 1.1//EN" "http://www.w3.org/Graphics/SVG/1.1/DTD/svg11.dtd">
<svg xmlns="http://www.w3.org/2000/svg" xmlns:dc="http://purl.org/dc/elements/1.1/" version="1.1" xmlns:xl="http://www.w3.org/1999/xlink" viewBox="-4601 1914 1105 614" width="1105" height="614">
  <defs>
    <marker orient="auto" overflow="visible" markerUnits="strokeWidth" id="FilledArrow_Marker" stroke-linejoin="miter" stroke-miterlimit="10" viewBox="-1 -3 7 6" markerWidth="7" markerHeight="6" color="black">
      <g>
        <path d="M 4.8 0 L 0 -1.8 L 0 1.8 Z" fill="currentColor" stroke="currentColor" stroke-width="1"/>
      </g>
    </marker>
  </defs>
  <g id="Canvas_31" fill-opacity="1" fill="none" stroke="none" stroke-opacity="1" stroke-dasharray="none">
    <title>Canvas 31</title>
    <rect fill="white" x="-4601" y="1914" width="1105" height="614"/>
    <g id="Canvas_31_Layer_1">
      <title>Layer 1</title>
      <g id="Graphic_93"/>
      <g id="Graphic_91">
        <path d="M -4213.1014 1930.3937 L -3508.5142 1930.3937 L -3508.5142 2242.9388 L -4213.1014 2242.9388 Z" stroke="gray" stroke-linecap="round" stroke-linejoin="round" stroke-dasharray="4.0,4.0" stroke-width="1"/>
        <text transform="translate(-4208.1014 1935.3937)" fill="black">
          <tspan font-family="Helvetica Neue" font-size="16" fill="black" x="0" y="15">Management Plane</tspan>
        </text>
      </g>
      <g id="Graphic_90">
        <path d="M -4008.189 2263.4646 L -3508.5142 2263.4646 L -3508.5142 2511.496 L -4008.189 2511.496 Z" stroke="gray" stroke-linecap="round" stroke-linejoin="round" stroke-dasharray="4.0,4.0" stroke-width="1"/>
        <text transform="translate(-4003.189 2470.048)" fill="black">
          <tspan font-family="Helvetica Neue" font-size="16" fill="black" x="189.78677" y="33">Application Cluster2 - Local Control Plane</tspan>
        </text>
      </g>
      <g id="Graphic_48">
        <path d="M -4589.4414 2263.4646 L -4089.7666 2263.4646 L -4089.7666 2511.496 L -4589.4414 2511.496 Z" stroke="gray" stroke-linecap="round" stroke-linejoin="round" stroke-dasharray="4.0,4.0" stroke-width="1"/>
        <text transform="translate(-4584.4414 2470.048)" fill="black">
          <tspan font-family="Helvetica Neue" font-size="16" fill="black" x="0" y="33">Application Cluster1 - Local Control Plane</tspan>
        </text>
      </g>
      <g id="Graphic_46">
        <path d="M -4411.826 1960.1575 L -4314.4404 1960.1575 C -4310.022 1960.1575 -4306.4404 1963.7392 -4306.4404 1968.1575 L -4306.4404 2008.8504 C -4306.4404 2013.2687 -4310.022 2016.8504 -4314.4404 2016.8504 L -4411.826 2016.8504 C -4416.2445 2016.8504 -4419.826 2013.2687 -4419.826 2008.8504 L -4419.826 1968.1575 C -4419.826 1963.7392 -4416.2445 1960.1575 -4411.826 1960.1575 Z" fill="#f15623"/>
        <text transform="translate(-4414.826 1978.772)" fill="white">
          <tspan font-family="Helvetica Neue" font-weight="bold" font-size="16" fill="white" x="25.468913" y="16">TSB UI</tspan>
        </text>
      </g>
      <g id="Graphic_45">
        <path d="M -4581.4414 2012.5984 L -4521.165 2012.5984 C -4516.747 2012.5984 -4513.165 2016.1802 -4513.165 2020.5984 L -4513.165 2061.2914 C -4513.165 2065.7096 -4516.747 2069.2914 -4521.165 2069.2914 L -4581.4414 2069.2914 C -4585.8597 2069.2914 -4589.4414 2065.7096 -4589.4414 2061.2914 L -4589.4414 2020.5984 C -4589.4414 2016.1802 -4585.8597 2012.5984 -4581.4414 2012.5984 Z" fill="#666"/>
        <text transform="translate(-4584.4414 2031.2128)" fill="white">
          <tspan font-family="Helvetica Neue" font-weight="bold" font-size="16" fill="white" x="15.210096" y="16">User</tspan>
        </text>
      </g>
      <g id="Graphic_36">
        <path d="M -4411.826 2065.0394 L -4314.4404 2065.0394 C -4310.022 2065.0394 -4306.4404 2068.621 -4306.4404 2073.0394 L -4306.4404 2113.7323 C -4306.4404 2118.1506 -4310.022 2121.7323 -4314.4404 2121.7323 L -4411.826 2121.7323 C -4416.2445 2121.7323 -4419.826 2118.1506 -4419.826 2113.7323 L -4419.826 2073.0394 C -4419.826 2068.621 -4416.2445 2065.0394 -4411.826 2065.0394 Z" fill="#666"/>
        <text transform="translate(-4414.826 2083.6538)" fill="white">
          <tspan font-family="Helvetica Neue" font-weight="bold" font-size="16" fill="white" x="24.148913" y="16">tctl CLI</tspan>
        </text>
      </g>
      <g id="Graphic_35">
        <path d="M -4172.3937 2012.5984 L -4067.2126 2012.5984 C -4062.7944 2012.5984 -4059.2126 2016.1802 -4059.2126 2020.5984 L -4059.2126 2061.2914 C -4059.2126 2065.7096 -4062.7944 2069.2914 -4067.2126 2069.2914 L -4172.3937 2069.2914 C -4176.812 2069.2914 -4180.3937 2065.7096 -4180.3937 2061.2914 L -4180.3937 2020.5984 C -4180.3937 2016.1802 -4176.812 2012.5984 -4172.3937 2012.5984 Z" fill="#666"/>
        <text transform="translate(-4175.3937 2031.2128)" fill="white">
          <tspan font-family="Helvetica Neue" font-weight="bold" font-size="16" fill="white" x="15.430553" y="16">API Server</tspan>
        </text>
      </g>
      <g id="Graphic_20">
        <path d="M -3754.488 2048.7402 L -3590.0788 2048.7402 L -3590.0788 2119.0394 C -3639.4016 2110.252 -3705.1654 2145.4016 -3754.488 2127.8268 Z" fill="#f15623"/>
        <text transform="translate(-3749.488 2069.8355)" fill="white">
          <tspan font-family="Helvetica Neue" font-size="16" fill="white" x="3.276727" y="15">XCP API Kubernetes</tspan>
          <tspan font-family="Helvetica Neue" font-size="16" fill="white" x="30.820727" y="33.448">object tsb ns</tspan>
        </text>
      </g>
      <g id="Graphic_50">
        <path d="M -3962.2756 2065.0394 L -3857.0945 2065.0394 C -3852.6762 2065.0394 -3849.0945 2068.621 -3849.0945 2073.0394 L -3849.0945 2113.7323 C -3849.0945 2118.1506 -3852.6762 2121.7323 -3857.0945 2121.7323 L -3962.2756 2121.7323 C -3966.694 2121.7323 -3970.2756 2118.1506 -3970.2756 2113.7323 L -3970.2756 2073.0394 C -3970.2756 2068.621 -3966.694 2065.0394 -3962.2756 2065.0394 Z" fill="#666"/>
        <text transform="translate(-3965.2756 2083.6538)" fill="white">
          <tspan font-family="Helvetica Neue" font-weight="bold" font-size="16" fill="white" x="37.070553" y="16">MPC</tspan>
        </text>
      </g>
      <g id="Graphic_51">
        <path d="M -3967.1103 2011.181 L -3967.1103 1965.8268 C -3967.1103 1962.6973 -3941.712 1960.1575 -3910.4174 1960.1575 C -3879.123 1960.1575 -3853.7244 1962.6973 -3853.7244 1965.8268 L -3853.7244 2011.181 C -3853.7244 2014.3106 -3879.123 2016.8504 -3910.4174 2016.8504 C -3941.712 2016.8504 -3967.1103 2014.3106 -3967.1103 2011.181" fill="#666"/>
        <path d="M -3967.1103 2011.181 L -3967.1103 1965.8268 C -3967.1103 1962.6973 -3941.712 1960.1575 -3910.4174 1960.1575 C -3879.123 1960.1575 -3853.7244 1962.6973 -3853.7244 1965.8268 L -3853.7244 2011.181 C -3853.7244 2014.3106 -3879.123 2016.8504 -3910.4174 2016.8504 C -3941.712 2016.8504 -3967.1103 2014.3106 -3967.1103 2011.181 M -3967.1103 1965.8268 C -3967.1103 1968.9562 -3941.712 1971.496 -3910.4174 1971.496 C -3879.123 1971.496 -3853.7244 1968.9562 -3853.7244 1965.8268" stroke="white" stroke-linecap="round" stroke-linejoin="round" stroke-width="1"/>
        <text transform="translate(-3962.1103 1981.6065)" fill="white">
          <tspan font-family="Helvetica Neue" font-weight="bold" font-size="16" fill="white" x="5.748913" y="16">PostgreSQL</tspan>
        </text>
      </g>
      <g id="Graphic_52">
        <path d="M -4096.567 2175.5906 L -3991.386 2175.5906 C -3986.9676 2175.5906 -3983.386 2179.1723 -3983.386 2183.5906 L -3983.386 2224.2835 C -3983.386 2228.7018 -3986.9676 2232.2835 -3991.386 2232.2835 L -4096.567 2232.2835 C -4100.985 2232.2835 -4104.567 2228.7018 -4104.567 2224.2835 L -4104.567 2183.5906 C -4104.567 2179.1723 -4100.985 2175.5906 -4096.567 2175.5906 Z" fill="#666"/>
        <text transform="translate(-4099.567 2194.205)" fill="white">
          <tspan font-family="Helvetica Neue" font-weight="bold" font-size="16" fill="white" x="8.918553" y="16">XCP Central</tspan>
        </text>
      </g>
      <g id="Line_53">
        <path d="M -4513.165 2040.945 L -4496.969 2040.945 L -4496.969 1988.504 L -4432.726 1988.504" marker-end="url(#FilledArrow_Marker)" stroke="black" stroke-linecap="round" stroke-linejoin="round" stroke-width="2"/>
      </g>
      <g id="Line_54">
        <path d="M -4306.4404 1988.504 L -4223.1356 1988.504 L -4223.1356 2040.945 L -4193.2937 2040.945" marker-end="url(#FilledArrow_Marker)" stroke="black" stroke-linecap="round" stroke-linejoin="round" stroke-width="2"/>
      </g>
      <g id="Line_55">
        <line x1="-4513.165" y1="2040.945" x2="-4193.2937" y2="2040.945" marker-end="url(#FilledArrow_Marker)" stroke="black" stroke-linecap="round" stroke-linejoin="round" stroke-width="2"/>
      </g>
      <g id="Line_56">
        <path d="M -4513.165 2040.945 L -4496.857 2040.945 L -4496.857 2093.3858 L -4432.726 2093.3858" marker-end="url(#FilledArrow_Marker)" stroke="black" stroke-linecap="round" stroke-linejoin="round" stroke-width="2"/>
      </g>
      <g id="Line_57">
        <path d="M -4306.4404 2093.3858 L -4223.079 2093.3858 L -4223.079 2040.945 L -4193.2937 2040.945" marker-end="url(#FilledArrow_Marker)" stroke="black" stroke-linecap="round" stroke-linejoin="round" stroke-width="2"/>
      </g>
      <g id="Line_58">
        <path d="M -4076.3797 2012.5984 L -4076.3797 1988.504 L -3980.0103 1988.504" marker-end="url(#FilledArrow_Marker)" stroke="black" stroke-linecap="round" stroke-linejoin="round" stroke-width="2"/>
      </g>
      <g id="Line_59">
        <path d="M -4076.3797 2069.2914 L -4076.3797 2093.3858 L -3983.1756 2093.3858" marker-end="url(#FilledArrow_Marker)" stroke="black" stroke-linecap="round" stroke-linejoin="round" stroke-width="2"/>
      </g>
      <g id="Line_60">
        <path d="M -3849.0945 2093.3858 L -3838.0945 2093.3858 L -3801.8023 2093.0315 L -3773.41 2092.6772 L -3767.388 2092.6772" marker-end="url(#FilledArrow_Marker)" stroke="black" stroke-linecap="round" stroke-linejoin="round" stroke-width="2"/>
      </g>
      <g id="Line_61">
        <path d="M -4043.9764 2175.5906 L -4043.9764 2158.5526 L -3533.386 2158.5526 L -3533.386 2092.6772 L -3577.1788 2092.6772" marker-end="url(#FilledArrow_Marker)" stroke="black" stroke-linecap="round" stroke-linejoin="round" stroke-width="2"/>
      </g>
      <g id="Graphic_62">
        <path d="M -4248.302 2294.6457 L -4143.121 2294.6457 C -4138.7027 2294.6457 -4135.121 2298.2274 -4135.121 2302.6457 L -4135.121 2343.3386 C -4135.121 2347.757 -4138.7027 2351.3386 -4143.121 2351.3386 L -4248.302 2351.3386 C -4252.7203 2351.3386 -4256.302 2347.757 -4256.302 2343.3386 L -4256.302 2302.6457 C -4256.302 2298.2274 -4252.7203 2294.6457 -4248.302 2294.6457 Z" fill="#666"/>
        <text transform="translate(-4251.302 2313.26)" fill="white">
          <tspan font-family="Helvetica Neue" font-weight="bold" font-size="16" fill="white" x="17.214553" y="16">XCP Edge</tspan>
        </text>
      </g>
      <g id="Graphic_63">
        <path d="M -3697.7953 2279.0551 L -3533.386 2279.0551 L -3533.386 2349.3544 C -3582.7087 2340.567 -3648.4725 2375.7166 -3697.7953 2358.1418 Z" fill="#456cb0"/>
        <text transform="translate(-3692.7953 2300.1504)" fill="white">
          <tspan font-family="Helvetica Neue" font-size="16" fill="white" x="3.276727" y="15">XCP API Kubernetes</tspan>
          <tspan font-family="Helvetica Neue" font-size="16" fill="white" x="9.340727" y="33.448">object istio-system</tspan>
        </text>
      </g>
      <g id="Graphic_64">
        <path d="M -4277.916 2408.7402 L -4113.507 2408.7402 L -4113.507 2479.0394 C -4162.8296 2470.252 -4228.5934 2505.4016 -4277.916 2487.8268 Z" fill="#456cb0"/>
        <text transform="translate(-4272.916 2429.8355)" fill="white">
          <tspan font-family="Helvetica Neue" font-size="16" fill="white" x="4.164727" y="15">Istio API Kubernetes</tspan>
          <tspan font-family="Helvetica Neue" font-size="16" fill="white" x="27.116727" y="33.448">destination ns</tspan>
        </text>
      </g>
      <g id="Graphic_65">
        <path d="M -4556.066 2279.0551 L -4391.6564 2279.0551 L -4391.6564 2349.3544 C -4440.979 2340.567 -4506.743 2375.7166 -4556.066 2358.1418 Z" fill="#456cb0"/>
        <text transform="translate(-4551.066 2300.1504)" fill="white">
          <tspan font-family="Helvetica Neue" font-size="16" fill="white" x="3.276727" y="15">XCP API Kubernetes </tspan>
          <tspan font-family="Helvetica Neue" font-size="16" fill="white" x="9.340727" y="33.448">object istio-system</tspan>
        </text>
      </g>
      <g id="Graphic_66">
        <path d="M -3962.2756 2294.6457 L -3857.0945 2294.6457 C -3852.6762 2294.6457 -3849.0945 2298.2274 -3849.0945 2302.6457 L -3849.0945 2343.3386 C -3849.0945 2347.757 -3852.6762 2351.3386 -3857.0945 2351.3386 L -3962.2756 2351.3386 C -3966.694 2351.3386 -3970.2756 2347.757 -3970.2756 2343.3386 L -3970.2756 2302.6457 C -3970.2756 2298.2274 -3966.694 2294.6457 -3962.2756 2294.6457 Z" fill="#666"/>
        <text transform="translate(-3965.2756 2313.26)" fill="white">
          <tspan font-family="Helvetica Neue" font-weight="bold" font-size="16" fill="white" x="17.214553" y="16">XCP Edge</tspan>
        </text>
      </g>
      <g id="Graphic_67">
        <path d="M -3991.89 2408.7402 L -3827.4803 2408.7402 L -3827.4803 2479.0394 C -3876.803 2470.252 -3942.567 2505.4016 -3991.89 2487.8268 Z" fill="#456cb0"/>
        <text transform="translate(-3986.89 2429.8355)" fill="white">
          <tspan font-family="Helvetica Neue" font-size="16" fill="white" x="4.164727" y="15">Istio API Kubernetes</tspan>
          <tspan font-family="Helvetica Neue" font-size="16" fill="white" x="27.116727" y="33.448">destination ns</tspan>
        </text>
      </g>
      <g id="Line_68">
        <path d="M -4104.567 2203.937 L -4115.567 2203.937 L -4120.8874 2203.858 L -4195.7115 2203.858 L -4195.7115 2281.7457" marker-end="url(#FilledArrow_Marker)" stroke="black" stroke-linecap="round" stroke-linejoin="round" stroke-width="2"/>
      </g>
      <g id="Line_69">
        <path d="M -3983.386 2203.937 L -3972.386 2203.937 L -3948.402 2203.5512 L -3909.685 2203.5512 L -3909.685 2281.7457" marker-end="url(#FilledArrow_Marker)" stroke="black" stroke-linecap="round" stroke-linejoin="round" stroke-width="2"/>
      </g>
      <g id="Line_70">
        <line x1="-4195.7115" y1="2351.3386" x2="-4195.7115" y2="2395.8402" marker-end="url(#FilledArrow_Marker)" stroke="black" stroke-linecap="round" stroke-linejoin="round" stroke-width="2"/>
      </g>
      <g id="Line_71">
        <line x1="-4256.302" y1="2322.9921" x2="-4378.7564" y2="2322.9921" marker-end="url(#FilledArrow_Marker)" stroke="black" stroke-linecap="round" stroke-linejoin="round" stroke-width="2"/>
      </g>
      <g id="Line_72">
        <path d="M -3874 2351.3386 L -3874 2385.8837 L -3615.5906 2385.8837 L -3615.5906 2369.9433" marker-end="url(#FilledArrow_Marker)" stroke="black" stroke-linecap="round" stroke-linejoin="round" stroke-width="2"/>
      </g>
      <g id="Line_73">
        <line x1="-3909.685" y1="2351.3386" x2="-3909.685" y2="2395.8402" marker-end="url(#FilledArrow_Marker)" stroke="black" stroke-linecap="round" stroke-linejoin="round" stroke-width="2"/>
      </g>
      <g id="Line_75">
        <line x1="-3849.0945" y1="2322.9921" x2="-3710.6953" y2="2322.9921" marker-end="url(#FilledArrow_Marker)" stroke="black" stroke-linecap="round" stroke-linejoin="round" stroke-width="2"/>
      </g>
      <g id="Line_76">
        <path d="M -4237.832 2351.3386 L -4237.832 2384.8353 L -4473.861 2384.8353 L -4473.861 2369.9433" marker-end="url(#FilledArrow_Marker)" stroke="black" stroke-linecap="round" stroke-linejoin="round" stroke-width="2"/>
      </g>
      <g id="Graphic_77">
        <text transform="translate(-4484.6294 2018.307)" fill="black">
          <tspan font-family="Helvetica Neue" font-size="16" fill="black" x="5968559e-19" y="15">custom API client HTTPs/gRPC</tspan>
        </text>
      </g>
      <g id="Graphic_78">
        <rect x="-4296.6444" y="1974.28" width="60.656" height="28.447998" fill="white"/>
        <text transform="translate(-4291.6444 1979.28)" fill="black">
          <tspan font-family="Helvetica Neue" font-size="16" fill="black" x="0" y="15">HTTPS</tspan>
        </text>
      </g>
      <g id="Graphic_79">
        <rect x="-4033.599" y="2079.1618" width="52.064" height="28.447998" fill="white"/>
        <text transform="translate(-4028.599 2084.1618)" fill="black">
          <tspan font-family="Helvetica Neue" font-size="16" fill="black" x="0" y="15">gRPC</tspan>
        </text>
      </g>
      <g id="Graphic_80">
        <rect x="-3843.5687" y="2078.9133" width="61.872" height="28.447998" fill="white"/>
        <text transform="translate(-3838.5687 2083.9133)" fill="black">
          <tspan font-family="Helvetica Neue" font-size="16" fill="black" x="0" y="15">publish</tspan>
        </text>
      </g>
      <g id="Graphic_81">
        <rect x="-3875.7204" y="2144.3286" width="276.4" height="28.447998" fill="white"/>
        <text transform="translate(-3870.7204 2149.3286)" fill="black">
          <tspan font-family="Helvetica Neue" font-size="16" fill="black" x="73896445e-20" y="15">XCP Central watches tsb namespace</tspan>
        </text>
      </g>
      <g id="Graphic_82">
        <rect x="-4172.008" y="2189.634" width="52.064" height="28.447998" fill="white"/>
        <text transform="translate(-4167.008 2194.634)" fill="black">
          <tspan font-family="Helvetica Neue" font-size="16" fill="black" x="0" y="15">gRPC</tspan>
        </text>
      </g>
      <g id="Graphic_83">
        <rect x="-3972.578" y="2189.3272" width="52.064" height="28.447998" fill="white"/>
        <text transform="translate(-3967.578 2194.3272)" fill="black">
          <tspan font-family="Helvetica Neue" font-size="16" fill="black" x="0" y="15">gRPC</tspan>
        </text>
      </g>
      <g id="Graphic_84">
        <rect x="-3808.6034" y="2308.7681" width="61.872" height="28.447998" fill="white"/>
        <text transform="translate(-3803.6034 2313.7681)" fill="black">
          <tspan font-family="Helvetica Neue" font-size="16" fill="black" x="0" y="15">publish</tspan>
        </text>
      </g>
      <g id="Graphic_85">
        <rect x="-4355.304" y="2308.7681" width="61.872" height="28.447998" fill="white"/>
        <text transform="translate(-4350.304 2313.7681)" fill="black">
          <tspan font-family="Helvetica Neue" font-size="16" fill="black" x="0" y="15">publish</tspan>
        </text>
      </g>
      <g id="Graphic_86">
        <rect x="-4226.6475" y="2356.3873" width="61.872" height="28.447998" fill="white"/>
        <text transform="translate(-4221.6475 2361.3873)" fill="black">
          <tspan font-family="Helvetica Neue" font-size="16" fill="black" x="0" y="15">publish</tspan>
        </text>
      </g>
      <g id="Graphic_87">
        <rect x="-3940.621" y="2357.4357" width="61.872" height="28.447998" fill="white"/>
        <text transform="translate(-3935.621 2362.4357)" fill="black">
          <tspan font-family="Helvetica Neue" font-size="16" fill="black" x="0" y="15">publish</tspan>
        </text>
      </g>
      <g id="Graphic_88">
        <text transform="translate(-4446.9595 2366.3873)" fill="black">
          <tspan font-family="Helvetica Neue" font-size="16" fill="black" x="18.4" y="15">XCP Edge watches</tspan>
          <tspan font-family="Helvetica Neue" font-size="16" fill="black" x="4121148e-19" y="33.448">istio-system namespace</tspan>
        </text>
      </g>
      <g id="Graphic_89">
        <text transform="translate(-3813.5975 2367.4357)" fill="black">
          <tspan font-family="Helvetica Neue" font-size="16" fill="black" x="18.4" y="15">XCP Edge watches</tspan>
          <tspan font-family="Helvetica Neue" font-size="16" fill="black" x="4121148e-19" y="33.448">istio-system namespace</tspan>
        </text>
      </g>
    </g>
  </g>
</svg>
