<?xml version="1.0" encoding="UTF-8" standalone="no"?>
<!DOCTYPE svg PUBLIC "-//W3C//DTD SVG 1.1//EN" "http://www.w3.org/Graphics/SVG/1.1/DTD/svg11.dtd">
<svg xmlns="http://www.w3.org/2000/svg" xmlns:dc="http://purl.org/dc/elements/1.1/" version="1.1" xmlns:xl="http://www.w3.org/1999/xlink" viewBox="-4168 2419 894 768" width="894" height="768">
  <defs>
    <marker orient="auto" overflow="visible" markerUnits="strokeWidth" id="FilledArrow_Marker" stroke-linejoin="miter" stroke-miterlimit="10" viewBox="-1 -3 7 6" markerWidth="7" markerHeight="6" color="black">
      <g>
        <path d="M 4.8 0 L 0 -1.8 L 0 1.8 Z" fill="currentColor" stroke="currentColor" stroke-width="1"/>
      </g>
    </marker>
  </defs>
  <g id="Canvas_34" fill-opacity="1" fill="none" stroke="none" stroke-opacity="1" stroke-dasharray="none">
    <title>Canvas 34</title>
    <rect fill="white" x="-4168" y="2419" width="894" height="768"/>
    <g id="Canvas_34_Layer_1">
      <title>Layer 1</title>
      <g id="Graphic_39"/>
      <g id="Graphic_35">
        <path d="M -4139.8623 2914.0158 L -3301.8583 2914.0158 C -3297.44 2914.0158 -3293.8583 2917.5975 -3293.8583 2922.0158 L -3293.8583 3162.5512 C -3293.8583 3166.9695 -3297.44 3170.5512 -3301.8583 3170.5512 L -4139.8623 3170.5512 C -4144.2805 3170.5512 -4147.8623 3166.9695 -4147.8623 3162.5512 L -4147.8623 2922.0158 C -4147.8623 2917.5975 -4144.2805 2914.0158 -4139.8623 2914.0158 Z" fill="#f7f9ff"/>
        <path d="M -4139.8623 2914.0158 L -3301.8583 2914.0158 C -3297.44 2914.0158 -3293.8583 2917.5975 -3293.8583 2922.0158 L -3293.8583 3162.5512 C -3293.8583 3166.9695 -3297.44 3170.5512 -3301.8583 3170.5512 L -4139.8623 3170.5512 C -4144.2805 3170.5512 -4147.8623 3166.9695 -4147.8623 3162.5512 L -4147.8623 2922.0158 C -4147.8623 2917.5975 -4144.2805 2914.0158 -4139.8623 2914.0158 Z" stroke="gray" stroke-linecap="round" stroke-linejoin="round" stroke-width="1"/>
      </g>
      <g id="Graphic_34">
        <path d="M -4139.8623 2469.685 L -3301.8583 2469.685 C -3297.44 2469.685 -3293.8583 2473.2668 -3293.8583 2477.685 L -3293.8583 2823.1024 C -3293.8583 2827.5207 -3297.44 2831.1024 -3301.8583 2831.1024 L -4139.8623 2831.1024 C -4144.2805 2831.1024 -4147.8623 2827.5207 -4147.8623 2823.1024 L -4147.8623 2477.685 C -4147.8623 2473.2668 -4144.2805 2469.685 -4139.8623 2469.685 Z" fill="#f7f9ff"/>
        <path d="M -4139.8623 2469.685 L -3301.8583 2469.685 C -3297.44 2469.685 -3293.8583 2473.2668 -3293.8583 2477.685 L -3293.8583 2823.1024 C -3293.8583 2827.5207 -3297.44 2831.1024 -3301.8583 2831.1024 L -4139.8623 2831.1024 C -4144.2805 2831.1024 -4147.8623 2827.5207 -4147.8623 2823.1024 L -4147.8623 2477.685 C -4147.8623 2473.2668 -4144.2805 2469.685 -4139.8623 2469.685 Z" stroke="gray" stroke-linecap="round" stroke-linejoin="round" stroke-width="1"/>
      </g>
      <g id="Graphic_29">
        <path d="M -3665.701 2955.6825 L -3320.2835 2955.6825 C -3315.8652 2955.6825 -3312.2835 2959.2642 -3312.2835 2963.6825 L -3312.2835 3117.7613 C -3312.2835 3122.1795 -3315.8652 3125.7613 -3320.2835 3125.7613 L -3665.701 3125.7613 C -3670.119 3125.7613 -3673.701 3122.1795 -3673.701 3117.7613 L -3673.701 2963.6825 C -3673.701 2959.2642 -3670.119 2955.6825 -3665.701 2955.6825 Z" fill="white"/>
        <path d="M -3665.701 2955.6825 L -3320.2835 2955.6825 C -3315.8652 2955.6825 -3312.2835 2959.2642 -3312.2835 2963.6825 L -3312.2835 3117.7613 C -3312.2835 3122.1795 -3315.8652 3125.7613 -3320.2835 3125.7613 L -3665.701 3125.7613 C -3670.119 3125.7613 -3673.701 3122.1795 -3673.701 3117.7613 L -3673.701 2963.6825 C -3673.701 2959.2642 -3670.119 2955.6825 -3665.701 2955.6825 Z" stroke="gray" stroke-linecap="round" stroke-linejoin="round" stroke-dasharray="4.0,4.0" stroke-width="1"/>
      </g>
      <g id="Graphic_16">
        <path d="M -4128.169 2622.0473 L -4002.4367 2622.0473 C -3998.0184 2622.0473 -3994.4367 2625.629 -3994.4367 2630.0473 L -3994.4367 2670.7402 C -3994.4367 2675.1585 -3998.0184 2678.7402 -4002.4367 2678.7402 L -4128.169 2678.7402 C -4132.587 2678.7402 -4136.169 2675.1585 -4136.169 2670.7402 L -4136.169 2630.0473 C -4136.169 2625.629 -4132.587 2622.0473 -4128.169 2622.0473 Z" fill="#f15623"/>
        <text transform="translate(-4131.169 2630.9296)" fill="white">
          <tspan font-family="Helvetica Neue" font-weight="bold" font-size="16" fill="white" x="24.386142" y="16">Data Plane </tspan>
          <tspan font-family="Helvetica Neue" font-weight="bold" font-size="16" fill="white" x="31.642142" y="35.46411">Operator</tspan>
        </text>
      </g>
      <g id="Graphic_15">
        <path d="M -3540.9764 2610 L -3415.244 2610 C -3410.826 2610 -3407.244 2613.5817 -3407.244 2618 L -3407.244 2682.7874 C -3407.244 2687.2057 -3410.826 2690.7874 -3415.244 2690.7874 L -3540.9764 2690.7874 C -3545.3947 2690.7874 -3548.9764 2687.2057 -3548.9764 2682.7874 L -3548.9764 2618 C -3548.9764 2613.5817 -3545.3947 2610 -3540.9764 2610 Z" fill="#333"/>
        <text transform="translate(-3543.9764 2640.6617)" fill="white">
          <tspan font-family="Helvetica Neue" font-weight="bold" font-size="16" fill="white" x="49.73814" y="16">istio</tspan>
        </text>
      </g>
      <g id="Graphic_10">
        <path d="M -3927.9055 2490.2362 L -3717.5255 2490.2362 C -3713.1073 2490.2362 -3709.5255 2493.818 -3709.5255 2498.2362 L -3709.5255 2588.5355 C -3709.5255 2592.9537 -3713.1073 2596.5355 -3717.5255 2596.5355 L -3927.9055 2596.5355 C -3932.324 2596.5355 -3935.9055 2592.9537 -3935.9055 2588.5355 L -3935.9055 2498.2362 C -3935.9055 2493.818 -3932.324 2490.2362 -3927.9055 2490.2362 Z" fill="#ffffc0"/>
        <path d="M -3927.9055 2490.2362 L -3717.5255 2490.2362 C -3713.1073 2490.2362 -3709.5255 2493.818 -3709.5255 2498.2362 L -3709.5255 2588.5355 C -3709.5255 2592.9537 -3713.1073 2596.5355 -3717.5255 2596.5355 L -3927.9055 2596.5355 C -3932.324 2596.5355 -3935.9055 2592.9537 -3935.9055 2588.5355 L -3935.9055 2498.2362 C -3935.9055 2493.818 -3932.324 2490.2362 -3927.9055 2490.2362 Z" stroke="gray" stroke-linecap="round" stroke-linejoin="round" stroke-width="1"/>
        <text transform="translate(-3930.9055 2515.714)" fill="black">
          <tspan font-family="Helvetica Neue" font-size="16" fill="black" x="6.6940024" y="15">Watch for Istio Operator and </tspan>
          <tspan font-family="Helvetica Neue" font-size="16" fill="black" x="47.894" y="33.448">IstioOperator CR</tspan>
          <tspan font-family="Helvetica Neue" font-size="16" fill="black" x="55.606" y="51.895996">(tsb-gateways)</tspan>
        </text>
      </g>
      <g id="Graphic_9">
        <path d="M -3927.9055 2705.6693 L -3717.5255 2705.6693 C -3713.1073 2705.6693 -3709.5255 2709.251 -3709.5255 2713.6693 L -3709.5255 2803.9685 C -3709.5255 2808.3868 -3713.1073 2811.9685 -3717.5255 2811.9685 L -3927.9055 2811.9685 C -3932.324 2811.9685 -3935.9055 2808.3868 -3935.9055 2803.9685 L -3935.9055 2713.6693 C -3935.9055 2709.251 -3932.324 2705.6693 -3927.9055 2705.6693 Z" fill="#ffffc0"/>
        <path d="M -3927.9055 2705.6693 L -3717.5255 2705.6693 C -3713.1073 2705.6693 -3709.5255 2709.251 -3709.5255 2713.6693 L -3709.5255 2803.9685 C -3709.5255 2808.3868 -3713.1073 2811.9685 -3717.5255 2811.9685 L -3927.9055 2811.9685 C -3932.324 2811.9685 -3935.9055 2808.3868 -3935.9055 2803.9685 L -3935.9055 2713.6693 C -3935.9055 2709.251 -3932.324 2705.6693 -3927.9055 2705.6693 Z" stroke="gray" stroke-linecap="round" stroke-linejoin="round" stroke-width="1"/>
        <text transform="translate(-3930.9055 2712.699)" fill="black">
          <tspan font-family="Helvetica Neue" font-size="16" fill="black" x="14.998002" y="15">Watch for Data Plane CRs </tspan>
          <tspan font-family="Helvetica Neue" font-size="16" fill="black" x="47.014" y="33.448">(IngressGateway, </tspan>
          <tspan font-family="Helvetica Neue" font-size="16" fill="black" x="57.238" y="51.895996">Tier1Gateway, </tspan>
          <tspan font-family="Helvetica Neue" font-size="16" fill="black" x="14.278002" y="70.34399">EgressGateway) across all </tspan>
          <tspan font-family="Helvetica Neue" font-size="16" fill="black" x="62.694" y="88.79199">namespaces</tspan>
        </text>
      </g>
      <g id="Line_7">
        <line x1="-4001.242" y1="2622.136" x2="-3946.4916" y2="2597.9848" marker-end="url(#FilledArrow_Marker)" stroke="black" stroke-linecap="round" stroke-linejoin="round" stroke-width="2"/>
      </g>
      <g id="Line_6">
        <line x1="-4001.9183" y1="2678.7237" x2="-3946.1245" y2="2703.661" marker-end="url(#FilledArrow_Marker)" stroke="black" stroke-linecap="round" stroke-linejoin="round" stroke-width="2"/>
      </g>
      <g id="Graphic_5">
        <text transform="translate(-3857.5315 2627.0473)" fill="black">
          <tspan font-family="Helvetica Neue" font-size="16" fill="black" x="7105427e-19" y="15">Configure</tspan>
        </text>
      </g>
      <g id="Graphic_3">
        <text transform="translate(-3829.0503 2435.1443)" fill="black">
          <tspan font-family="Helvetica Neue" font-size="20" fill="black" x="4973799e-19" y="20">Data Plane Namespace</tspan>
        </text>
      </g>
      <g id="Line_20">
        <line x1="-3994.4367" y1="2650.3937" x2="-3561.8764" y2="2650.3937" marker-end="url(#FilledArrow_Marker)" stroke="black" stroke-linecap="round" stroke-linejoin="round" stroke-width="2"/>
      </g>
      <g id="Graphic_21">
        <path d="M -4128.169 2976.2337 L -4002.4367 2976.2337 C -3998.0184 2976.2337 -3994.4367 2979.8154 -3994.4367 2984.2337 L -3994.4367 3024.9266 C -3994.4367 3029.345 -3998.0184 3032.9266 -4002.4367 3032.9266 L -4128.169 3032.9266 C -4132.587 3032.9266 -4136.169 3029.345 -4136.169 3024.9266 L -4136.169 2984.2337 C -4136.169 2979.8154 -4132.587 2976.2337 -4128.169 2976.2337 Z" fill="#f15623"/>
        <text transform="translate(-4131.169 2994.848)" fill="white">
          <tspan font-family="Helvetica Neue" font-weight="bold" font-size="16" fill="white" x="12.994142" y="16">Istio Operator</tspan>
        </text>
      </g>
      <g id="Graphic_22">
        <path d="M -3647.2756 2987.5723 L -3549.89 2987.5723 C -3545.4715 2987.5723 -3541.89 2991.154 -3541.89 2995.5723 L -3541.89 3060.3597 C -3541.89 3064.778 -3545.4715 3068.3597 -3549.89 3068.3597 L -3647.2756 3068.3597 C -3651.694 3068.3597 -3655.2756 3064.778 -3655.2756 3060.3597 L -3655.2756 2995.5723 C -3655.2756 2991.154 -3651.694 2987.5723 -3647.2756 2987.5723 Z" fill="#333"/>
        <path d="M -3647.2756 2987.5723 L -3549.89 2987.5723 C -3545.4715 2987.5723 -3541.89 2991.154 -3541.89 2995.5723 L -3541.89 3060.3597 C -3541.89 3064.778 -3545.4715 3068.3597 -3549.89 3068.3597 L -3647.2756 3068.3597 C -3651.694 3068.3597 -3655.2756 3064.778 -3655.2756 3060.3597 L -3655.2756 2995.5723 C -3655.2756 2991.154 -3651.694 2987.5723 -3647.2756 2987.5723 Z" stroke="white" stroke-linecap="round" stroke-linejoin="round" stroke-width="1"/>
        <text transform="translate(-3650.2756 2998.77)" fill="white">
          <tspan font-family="Helvetica Neue" font-weight="bold" font-size="16" fill="white" x="28.564913" y="16">Envoy </tspan>
          <tspan font-family="Helvetica Neue" font-weight="bold" font-size="16" fill="white" x="23.548913" y="35.46411">Ingress </tspan>
          <tspan font-family="Helvetica Neue" font-weight="bold" font-size="16" fill="white" x="18.364913" y="54.92822">Gateway</tspan>
        </text>
      </g>
      <g id="Graphic_23">
        <path d="M -3634.5197 3000.3282 L -3537.134 3000.3282 C -3532.7156 3000.3282 -3529.134 3003.91 -3529.134 3008.3282 L -3529.134 3073.1156 C -3529.134 3077.534 -3532.7156 3081.1156 -3537.134 3081.1156 L -3634.5197 3081.1156 C -3638.938 3081.1156 -3642.5197 3077.534 -3642.5197 3073.1156 L -3642.5197 3008.3282 C -3642.5197 3003.91 -3638.938 3000.3282 -3634.5197 3000.3282 Z" fill="#333"/>
        <path d="M -3634.5197 3000.3282 L -3537.134 3000.3282 C -3532.7156 3000.3282 -3529.134 3003.91 -3529.134 3008.3282 L -3529.134 3073.1156 C -3529.134 3077.534 -3532.7156 3081.1156 -3537.134 3081.1156 L -3634.5197 3081.1156 C -3638.938 3081.1156 -3642.5197 3077.534 -3642.5197 3073.1156 L -3642.5197 3008.3282 C -3642.5197 3003.91 -3638.938 3000.3282 -3634.5197 3000.3282 Z" stroke="white" stroke-linecap="round" stroke-linejoin="round" stroke-width="1"/>
        <text transform="translate(-3637.5197 3011.5257)" fill="white">
          <tspan font-family="Helvetica Neue" font-weight="bold" font-size="16" fill="white" x="28.564913" y="16">Envoy </tspan>
          <tspan font-family="Helvetica Neue" font-weight="bold" font-size="16" fill="white" x="23.548913" y="35.46411">Ingress </tspan>
          <tspan font-family="Helvetica Neue" font-weight="bold" font-size="16" fill="white" x="18.364913" y="54.92822">Gateway</tspan>
        </text>
      </g>
      <g id="Graphic_24">
        <path d="M -3622.5197 3012.3282 L -3525.134 3012.3282 C -3520.7156 3012.3282 -3517.134 3015.91 -3517.134 3020.3282 L -3517.134 3085.1156 C -3517.134 3089.534 -3520.7156 3093.1156 -3525.134 3093.1156 L -3622.5197 3093.1156 C -3626.938 3093.1156 -3630.5197 3089.534 -3630.5197 3085.1156 L -3630.5197 3020.3282 C -3630.5197 3015.91 -3626.938 3012.3282 -3622.5197 3012.3282 Z" fill="#333"/>
        <path d="M -3622.5197 3012.3282 L -3525.134 3012.3282 C -3520.7156 3012.3282 -3517.134 3015.91 -3517.134 3020.3282 L -3517.134 3085.1156 C -3517.134 3089.534 -3520.7156 3093.1156 -3525.134 3093.1156 L -3622.5197 3093.1156 C -3626.938 3093.1156 -3630.5197 3089.534 -3630.5197 3085.1156 L -3630.5197 3020.3282 C -3630.5197 3015.91 -3626.938 3012.3282 -3622.5197 3012.3282 Z" stroke="white" stroke-linecap="round" stroke-linejoin="round" stroke-width="1"/>
        <text transform="translate(-3625.5197 3023.5257)" fill="white">
          <tspan font-family="Helvetica Neue" font-weight="bold" font-size="16" fill="white" x="28.564913" y="16">Envoy </tspan>
          <tspan font-family="Helvetica Neue" font-weight="bold" font-size="16" fill="white" x="23.548913" y="35.46411">Ingress </tspan>
          <tspan font-family="Helvetica Neue" font-weight="bold" font-size="16" fill="white" x="18.364913" y="54.92822">Gateway</tspan>
        </text>
      </g>
      <g id="Graphic_27">
        <path d="M -3460.189 2987.5723 L -3362.803 2987.5723 C -3358.385 2987.5723 -3354.803 2991.154 -3354.803 2995.5723 L -3354.803 3060.3597 C -3354.803 3064.778 -3358.385 3068.3597 -3362.803 3068.3597 L -3460.189 3068.3597 C -3464.6073 3068.3597 -3468.189 3064.778 -3468.189 3060.3597 L -3468.189 2995.5723 C -3468.189 2991.154 -3464.6073 2987.5723 -3460.189 2987.5723 Z" fill="#333"/>
        <path d="M -3460.189 2987.5723 L -3362.803 2987.5723 C -3358.385 2987.5723 -3354.803 2991.154 -3354.803 2995.5723 L -3354.803 3060.3597 C -3354.803 3064.778 -3358.385 3068.3597 -3362.803 3068.3597 L -3460.189 3068.3597 C -3464.6073 3068.3597 -3468.189 3064.778 -3468.189 3060.3597 L -3468.189 2995.5723 C -3468.189 2991.154 -3464.6073 2987.5723 -3460.189 2987.5723 Z" stroke="white" stroke-linecap="round" stroke-linejoin="round" stroke-width="1"/>
        <text transform="translate(-3463.189 2998.77)" fill="white">
          <tspan font-family="Helvetica Neue" font-weight="bold" font-size="16" fill="white" x="28.564913" y="16">Envoy </tspan>
          <tspan font-family="Helvetica Neue" font-weight="bold" font-size="16" fill="white" x="23.548913" y="35.46411">Ingress </tspan>
          <tspan font-family="Helvetica Neue" font-weight="bold" font-size="16" fill="white" x="18.364913" y="54.92822">Gateway</tspan>
        </text>
      </g>
      <g id="Graphic_26">
        <path d="M -3447.433 3000.3282 L -3350.0473 3000.3282 C -3345.629 3000.3282 -3342.0473 3003.91 -3342.0473 3008.3282 L -3342.0473 3073.1156 C -3342.0473 3077.534 -3345.629 3081.1156 -3350.0473 3081.1156 L -3447.433 3081.1156 C -3451.8514 3081.1156 -3455.433 3077.534 -3455.433 3073.1156 L -3455.433 3008.3282 C -3455.433 3003.91 -3451.8514 3000.3282 -3447.433 3000.3282 Z" fill="#333"/>
        <path d="M -3447.433 3000.3282 L -3350.0473 3000.3282 C -3345.629 3000.3282 -3342.0473 3003.91 -3342.0473 3008.3282 L -3342.0473 3073.1156 C -3342.0473 3077.534 -3345.629 3081.1156 -3350.0473 3081.1156 L -3447.433 3081.1156 C -3451.8514 3081.1156 -3455.433 3077.534 -3455.433 3073.1156 L -3455.433 3008.3282 C -3455.433 3003.91 -3451.8514 3000.3282 -3447.433 3000.3282 Z" stroke="white" stroke-linecap="round" stroke-linejoin="round" stroke-width="1"/>
        <text transform="translate(-3450.433 3011.5257)" fill="white">
          <tspan font-family="Helvetica Neue" font-weight="bold" font-size="16" fill="white" x="28.564913" y="16">Envoy </tspan>
          <tspan font-family="Helvetica Neue" font-weight="bold" font-size="16" fill="white" x="23.548913" y="35.46411">Ingress </tspan>
          <tspan font-family="Helvetica Neue" font-weight="bold" font-size="16" fill="white" x="18.364913" y="54.92822">Gateway</tspan>
        </text>
      </g>
      <g id="Graphic_25">
        <path d="M -3435.433 3012.3282 L -3338.0473 3012.3282 C -3333.629 3012.3282 -3330.0473 3015.91 -3330.0473 3020.3282 L -3330.0473 3085.1156 C -3330.0473 3089.534 -3333.629 3093.1156 -3338.0473 3093.1156 L -3435.433 3093.1156 C -3439.8514 3093.1156 -3443.433 3089.534 -3443.433 3085.1156 L -3443.433 3020.3282 C -3443.433 3015.91 -3439.8514 3012.3282 -3435.433 3012.3282 Z" fill="#333"/>
        <path d="M -3435.433 3012.3282 L -3338.0473 3012.3282 C -3333.629 3012.3282 -3330.0473 3015.91 -3330.0473 3020.3282 L -3330.0473 3085.1156 C -3330.0473 3089.534 -3333.629 3093.1156 -3338.0473 3093.1156 L -3435.433 3093.1156 C -3439.8514 3093.1156 -3443.433 3089.534 -3443.433 3085.1156 L -3443.433 3020.3282 C -3443.433 3015.91 -3439.8514 3012.3282 -3435.433 3012.3282 Z" stroke="white" stroke-linecap="round" stroke-linejoin="round" stroke-width="1"/>
        <text transform="translate(-3438.433 3023.5257)" fill="white">
          <tspan font-family="Helvetica Neue" font-weight="bold" font-size="16" fill="white" x="28.564913" y="16">Envoy </tspan>
          <tspan font-family="Helvetica Neue" font-weight="bold" font-size="16" fill="white" x="23.548913" y="35.46411">Ingress </tspan>
          <tspan font-family="Helvetica Neue" font-weight="bold" font-size="16" fill="white" x="18.364913" y="54.92822">Gateway</tspan>
        </text>
      </g>
      <g id="Graphic_28">
        <path d="M -3927.9055 3049.9345 L -3717.5255 3049.9345 C -3713.1073 3049.9345 -3709.5255 3053.5162 -3709.5255 3057.9345 L -3709.5255 3148.2337 C -3709.5255 3152.652 -3713.1073 3156.2337 -3717.5255 3156.2337 L -3927.9055 3156.2337 C -3932.324 3156.2337 -3935.9055 3152.652 -3935.9055 3148.2337 L -3935.9055 3057.9345 C -3935.9055 3053.5162 -3932.324 3049.9345 -3927.9055 3049.9345 Z" fill="#ffffc0"/>
        <path d="M -3927.9055 3049.9345 L -3717.5255 3049.9345 C -3713.1073 3049.9345 -3709.5255 3053.5162 -3709.5255 3057.9345 L -3709.5255 3148.2337 C -3709.5255 3152.652 -3713.1073 3156.2337 -3717.5255 3156.2337 L -3927.9055 3156.2337 C -3932.324 3156.2337 -3935.9055 3152.652 -3935.9055 3148.2337 L -3935.9055 3057.9345 C -3935.9055 3053.5162 -3932.324 3049.9345 -3927.9055 3049.9345 Z" stroke="gray" stroke-linecap="round" stroke-linejoin="round" stroke-width="1"/>
        <text transform="translate(-3930.9055 3084.636)" fill="black">
          <tspan font-family="Helvetica Neue" font-size="16" fill="black" x="8.926002" y="15">Watch for Istio Operator CR</tspan>
          <tspan font-family="Helvetica Neue" font-size="16" fill="black" x="55.606" y="33.448">(tsb-gateways)</tspan>
        </text>
      </g>
      <g id="Graphic_30">
        <text transform="translate(-3608.222 2926.1024)" fill="black">
          <tspan font-family="Helvetica Neue" font-size="20" fill="black" x="0" y="20">Application Namespaces</tspan>
        </text>
      </g>
      <g id="Line_32">
        <line x1="-3994.4367" y1="3004.58" x2="-3686.601" y2="3004.58" marker-end="url(#FilledArrow_Marker)" stroke="black" stroke-linecap="round" stroke-linejoin="round" stroke-width="2"/>
      </g>
      <g id="Line_33">
        <line x1="-3998.3114" y1="3031.7824" x2="-3947.8187" y2="3052.2853" marker-end="url(#FilledArrow_Marker)" stroke="black" stroke-linecap="round" stroke-linejoin="round" stroke-width="2"/>
      </g>
      <g id="Graphic_36">
        <text transform="translate(-3900.9403 2881.1024)" fill="black">
          <tspan font-family="Helvetica Neue" font-size="20" fill="black" x="0" y="20">Istio (Data Plane Operator Namespace)</tspan>
        </text>
      </g>
      <g id="Graphic_37">
        <text transform="translate(-3857.5315 2979.8164)" fill="black">
          <tspan font-family="Helvetica Neue" font-size="16" fill="black" x="7105427e-19" y="15">Configure</tspan>
        </text>
      </g>
      <g id="Line_38">
        <path d="M -3473.8175 2690.7874 C -3480.969 2719.5768 -3510.953 2760.0993 -3607.6703 2800 C -3779.1532 2870.7454 -4053.546 2844.444 -4103.873 2902.8" marker-end="url(#FilledArrow_Marker)" stroke="black" stroke-linecap="round" stroke-linejoin="round" stroke-width="2"/>
      </g>
    </g>
  </g>
</svg>
