<?xml version="1.0" encoding="UTF-8" standalone="no"?>
<!DOCTYPE svg PUBLIC "-//W3C//DTD SVG 1.1//EN" "http://www.w3.org/Graphics/SVG/1.1/DTD/svg11.dtd">
<svg xmlns="http://www.w3.org/2000/svg" xmlns:dc="http://purl.org/dc/elements/1.1/" version="1.1" xmlns:xl="http://www.w3.org/1999/xlink" viewBox="-4265 2379 762 408" width="762" height="408">
  <defs>
    <marker orient="auto" overflow="visible" markerUnits="strokeWidth" id="FilledArrow_Marker" stroke-linejoin="miter" stroke-miterlimit="10" viewBox="-1 -3 7 6" markerWidth="7" markerHeight="6" color="black">
      <g>
        <path d="M 4.8 0 L 0 -1.8 L 0 1.8 Z" fill="currentColor" stroke="currentColor" stroke-width="1"/>
      </g>
    </marker>
  </defs>
  <g id="maangement-plane-operator" fill-opacity="1" fill="none" stroke="none" stroke-opacity="1" stroke-dasharray="none">
    <title>maangement-plane-operator</title>
    <rect fill="white" x="-4265" y="2379" width="762" height="408"/>
    <g id="maangement-plane-operator_Layer_1">
      <title>Layer 1</title>
      <g id="Graphic_23"/>
      <g id="Graphic_18">
        <path d="M -4242.551 2431.4173 L -3525.7953 2431.4173 C -3521.377 2431.4173 -3517.7953 2434.999 -3517.7953 2439.4173 L -3517.7953 2767.118 C -3517.7953 2771.5364 -3521.377 2775.118 -3525.7953 2775.118 L -4242.551 2775.118 C -4246.9695 2775.118 -4250.551 2771.5364 -4250.551 2767.118 L -4250.551 2439.4173 C -4250.551 2434.999 -4246.9695 2431.4173 -4242.551 2431.4173 Z" fill="#f7f9ff"/>
        <path d="M -4242.551 2431.4173 L -3525.7953 2431.4173 C -3521.377 2431.4173 -3517.7953 2434.999 -3517.7953 2439.4173 L -3517.7953 2767.118 C -3517.7953 2771.5364 -3521.377 2775.118 -3525.7953 2775.118 L -4242.551 2775.118 C -4246.9695 2775.118 -4250.551 2771.5364 -4250.551 2767.118 L -4250.551 2439.4173 C -4250.551 2434.999 -4246.9695 2431.4173 -4242.551 2431.4173 Z" stroke="gray" stroke-linecap="round" stroke-linejoin="round" stroke-width="1"/>
      </g>
      <g id="Graphic_17">
        <rect x="-3876.799" y="2466.1418" width="334.4882" height="291.9685" fill="white"/>
        <path d="M -3876.799 2466.1418 L -3542.3107 2466.1418 L -3542.3107 2758.1103 L -3876.799 2758.1103 Z" stroke="gray" stroke-linecap="round" stroke-linejoin="round" stroke-dasharray="4.0,4.0" stroke-width="1"/>
      </g>
      <g id="Graphic_16">
        <path d="M -4227.3815 2583.7796 L -4101.6493 2583.7796 C -4097.231 2583.7796 -4093.6493 2587.3613 -4093.6493 2591.7796 L -4093.6493 2632.4725 C -4093.6493 2636.8907 -4097.231 2640.4725 -4101.6493 2640.4725 L -4227.3815 2640.4725 C -4231.8 2640.4725 -4235.3815 2636.8907 -4235.3815 2632.4725 L -4235.3815 2591.7796 C -4235.3815 2587.3613 -4231.8 2583.7796 -4227.3815 2583.7796 Z" fill="#f15623"/>
        <text transform="translate(-4230.3815 2592.662)" fill="white">
          <tspan font-family="Helvetica Neue" font-weight="bold" font-size="16" fill="white" x="15.802142" y="16">Maangement </tspan>
          <tspan font-family="Helvetica Neue" font-weight="bold" font-size="16" fill="white" x="8.090142" y="35.46411">Plane Operator</tspan>
        </text>
      </g>
      <g id="Graphic_15">
        <path d="M -3835.99 2485.9843 L -3738.604 2485.9843 C -3734.186 2485.9843 -3730.604 2489.566 -3730.604 2493.9843 L -3730.604 2521.4814 C -3730.604 2525.8997 -3734.186 2529.4814 -3738.604 2529.4814 L -3835.99 2529.4814 C -3840.4083 2529.4814 -3843.99 2525.8997 -3843.99 2521.4814 L -3843.99 2493.9843 C -3843.99 2489.566 -3840.4083 2485.9843 -3835.99 2485.9843 Z" fill="#333"/>
        <text transform="translate(-3838.99 2498.0008)" fill="white">
          <tspan font-family="Helvetica Neue" font-weight="bold" font-size="16" fill="white" x="15.388913" y="16">apiServer</tspan>
        </text>
      </g>
      <g id="Graphic_14">
        <path d="M -3835.99 2623.0003 L -3738.604 2623.0003 C -3734.186 2623.0003 -3730.604 2626.582 -3730.604 2631.0003 L -3730.604 2658.4974 C -3730.604 2662.9157 -3734.186 2666.4974 -3738.604 2666.4974 L -3835.99 2666.4974 C -3840.4083 2666.4974 -3843.99 2662.9157 -3843.99 2658.4974 L -3843.99 2631.0003 C -3843.99 2626.582 -3840.4083 2623.0003 -3835.99 2623.0003 Z" fill="#333"/>
        <text transform="translate(-3838.99 2635.0168)" fill="white">
          <tspan font-family="Helvetica Neue" font-weight="bold" font-size="16" fill="white" x="13.028913" y="16">iamServer</tspan>
        </text>
      </g>
      <g id="Graphic_13">
        <path d="M -3835.99 2553.405 L -3738.604 2553.405 C -3734.186 2553.405 -3730.604 2556.9866 -3730.604 2561.405 L -3730.604 2588.902 C -3730.604 2593.3203 -3734.186 2596.902 -3738.604 2596.902 L -3835.99 2596.902 C -3840.4083 2596.902 -3843.99 2593.3203 -3843.99 2588.902 L -3843.99 2561.405 C -3843.99 2556.9866 -3840.4083 2553.405 -3835.99 2553.405 Z" fill="#333"/>
        <text transform="translate(-3838.99 2565.4214)" fill="white">
          <tspan font-family="Helvetica Neue" font-weight="bold" font-size="16" fill="white" x="10.484913" y="16">frontEnvoy</tspan>
        </text>
      </g>
      <g id="Graphic_12">
        <path d="M -3680.5054 2555.5797 L -3583.1195 2555.5797 C -3578.7013 2555.5797 -3575.1195 2559.1614 -3575.1195 2563.5797 L -3575.1195 2591.077 C -3575.1195 2595.495 -3578.7013 2599.077 -3583.1195 2599.077 L -3680.5054 2599.077 C -3684.9236 2599.077 -3688.5054 2595.495 -3688.5054 2591.077 L -3688.5054 2563.5797 C -3688.5054 2559.1614 -3684.9236 2555.5797 -3680.5054 2555.5797 Z" fill="#333"/>
        <text transform="translate(-3683.5054 2567.5962)" fill="white">
          <tspan font-family="Helvetica Neue" font-weight="bold" font-size="16" fill="white" x="37.324913" y="16">oap</tspan>
        </text>
      </g>
      <g id="Graphic_11">
        <path d="M -3680.5054 2488.159 L -3583.1195 2488.159 C -3578.7013 2488.159 -3575.1195 2491.741 -3575.1195 2496.159 L -3575.1195 2523.6563 C -3575.1195 2528.0746 -3578.7013 2531.6563 -3583.1195 2531.6563 L -3680.5054 2531.6563 C -3684.9236 2531.6563 -3688.5054 2528.0746 -3688.5054 2523.6563 L -3688.5054 2496.159 C -3688.5054 2491.741 -3684.9236 2488.159 -3680.5054 2488.159 Z" fill="#333"/>
        <text transform="translate(-3683.5054 2500.1757)" fill="white">
          <tspan font-family="Helvetica Neue" font-weight="bold" font-size="16" fill="white" x="27.412913" y="16">webUI</tspan>
        </text>
      </g>
      <g id="Graphic_10">
        <path d="M -4067.224 2466.1418 L -3913.1453 2466.1418 C -3908.727 2466.1418 -3905.1453 2469.7235 -3905.1453 2474.1418 L -3905.1453 2523.3386 C -3905.1453 2527.757 -3908.727 2531.3386 -3913.1453 2531.3386 L -4067.224 2531.3386 C -4071.6423 2531.3386 -4075.224 2527.757 -4075.224 2523.3386 L -4075.224 2474.1418 C -4075.224 2469.7235 -4071.6423 2466.1418 -4067.224 2466.1418 Z" fill="#ffffc0"/>
        <path d="M -4067.224 2466.1418 L -3913.1453 2466.1418 C -3908.727 2466.1418 -3905.1453 2469.7235 -3905.1453 2474.1418 L -3905.1453 2523.3386 C -3905.1453 2527.757 -3908.727 2531.3386 -3913.1453 2531.3386 L -4067.224 2531.3386 C -4071.6423 2531.3386 -4075.224 2527.757 -4075.224 2523.3386 L -4075.224 2474.1418 C -4075.224 2469.7235 -4071.6423 2466.1418 -4067.224 2466.1418 Z" stroke="gray" stroke-linecap="round" stroke-linejoin="round" stroke-width="1"/>
        <text transform="translate(-4070.224 2471.0682)" fill="black">
          <tspan font-family="Helvetica Neue" font-size="16" fill="black" x="45.51937" y="15">Watch for </tspan>
          <tspan font-family="Helvetica Neue" font-size="16" fill="black" x="10.831368" y="33.448">Management Plane </tspan>
          <tspan font-family="Helvetica Neue" font-size="16" fill="black" x="33.799368" y="51.895996">Components</tspan>
        </text>
      </g>
      <g id="Graphic_9">
        <path d="M -4067.224 2692.9134 L -3913.1453 2692.9134 C -3908.727 2692.9134 -3905.1453 2696.495 -3905.1453 2700.9134 L -3905.1453 2750.1103 C -3905.1453 2754.5285 -3908.727 2758.1103 -3913.1453 2758.1103 L -4067.224 2758.1103 C -4071.6423 2758.1103 -4075.224 2754.5285 -4075.224 2750.1103 L -4075.224 2700.9134 C -4075.224 2696.495 -4071.6423 2692.9134 -4067.224 2692.9134 Z" fill="#ffffc0"/>
        <path d="M -4067.224 2692.9134 L -3913.1453 2692.9134 C -3908.727 2692.9134 -3905.1453 2696.495 -3905.1453 2700.9134 L -3905.1453 2750.1103 C -3905.1453 2754.5285 -3908.727 2758.1103 -3913.1453 2758.1103 L -4067.224 2758.1103 C -4071.6423 2758.1103 -4075.224 2754.5285 -4075.224 2750.1103 L -4075.224 2700.9134 C -4075.224 2696.495 -4071.6423 2692.9134 -4067.224 2692.9134 Z" stroke="gray" stroke-linecap="round" stroke-linejoin="round" stroke-width="1"/>
        <text transform="translate(-4070.224 2697.8398)" fill="black">
          <tspan font-family="Helvetica Neue" font-size="16" fill="black" x="45.51937" y="15">Watch for </tspan>
          <tspan font-family="Helvetica Neue" font-size="16" fill="black" x="10.831368" y="33.448">Management Plane </tspan>
          <tspan font-family="Helvetica Neue" font-size="16" fill="black" x="68.78337" y="51.895996">CR</tspan>
        </text>
      </g>
      <g id="Line_8">
        <line x1="-4093.6493" y1="2612.126" x2="-3889.699" y2="2612.126" marker-end="url(#FilledArrow_Marker)" stroke="black" stroke-linecap="round" stroke-linejoin="round" stroke-width="2"/>
      </g>
      <g id="Line_7">
        <line x1="-4120.9327" y1="2583.7796" x2="-4051.1187" y2="2538.372" marker-end="url(#FilledArrow_Marker)" stroke="black" stroke-linecap="round" stroke-linejoin="round" stroke-width="2"/>
      </g>
      <g id="Line_6">
        <line x1="-4120.9327" y1="2640.4725" x2="-4051.1187" y2="2685.88" marker-end="url(#FilledArrow_Marker)" stroke="black" stroke-linecap="round" stroke-linejoin="round" stroke-width="2"/>
      </g>
      <g id="Graphic_5">
        <text transform="translate(-4022.166 2588.7796)" fill="black">
          <tspan font-family="Helvetica Neue" font-size="16" fill="black" x="7105427e-19" y="15">Configure</tspan>
        </text>
      </g>
      <g id="Graphic_4">
        <text transform="translate(-3834.4268 2441.6776)" fill="black">
          <tspan font-family="Helvetica Neue" font-weight="bold" font-size="16" fill="black" x="0" y="16">Management Plane Components</tspan>
        </text>
      </g>
      <g id="Graphic_3">
        <text transform="translate(-4031.2633 2389.2367)" fill="black">
          <tspan font-family="Helvetica Neue" font-size="20" fill="black" x="11368684e-20" y="20">Management Plane Namespace</tspan>
        </text>
      </g>
      <g id="Graphic_20">
        <path d="M -3680.5054 2623.0003 L -3583.1195 2623.0003 C -3578.7013 2623.0003 -3575.1195 2626.582 -3575.1195 2631.0003 L -3575.1195 2658.4974 C -3575.1195 2662.9157 -3578.7013 2666.4974 -3583.1195 2666.4974 L -3680.5054 2666.4974 C -3684.9236 2666.4974 -3688.5054 2662.9157 -3688.5054 2658.4974 L -3688.5054 2631.0003 C -3688.5054 2626.582 -3684.9236 2623.0003 -3680.5054 2623.0003 Z" fill="#333"/>
        <text transform="translate(-3683.5054 2635.0168)" fill="white">
          <tspan font-family="Helvetica Neue" font-weight="bold" font-size="16" fill="white" x="29.188913" y="16">zipkin</tspan>
        </text>
      </g>
      <g id="Graphic_22">
        <path d="M -3835.99 2694.7706 L -3738.604 2694.7706 C -3734.186 2694.7706 -3730.604 2698.3523 -3730.604 2702.7706 L -3730.604 2730.2677 C -3730.604 2734.686 -3734.186 2738.2677 -3738.604 2738.2677 L -3835.99 2738.2677 C -3840.4083 2738.2677 -3843.99 2734.686 -3843.99 2730.2677 L -3843.99 2702.7706 C -3843.99 2698.3523 -3840.4083 2694.7706 -3835.99 2694.7706 Z" fill="#333"/>
        <text transform="translate(-3838.99 2706.787)" fill="white">
          <tspan font-family="Helvetica Neue" font-weight="bold" font-size="16" fill="white" x="10.500913" y="16">spmServer</tspan>
        </text>
      </g>
      <g id="Graphic_21">
        <path d="M -3680.5054 2694.7706 L -3583.1195 2694.7706 C -3578.7013 2694.7706 -3575.1195 2698.3523 -3575.1195 2702.7706 L -3575.1195 2730.2677 C -3575.1195 2734.686 -3578.7013 2738.2677 -3583.1195 2738.2677 L -3680.5054 2738.2677 C -3684.9236 2738.2677 -3688.5054 2734.686 -3688.5054 2730.2677 L -3688.5054 2702.7706 C -3688.5054 2698.3523 -3684.9236 2694.7706 -3680.5054 2694.7706 Z" fill="#333"/>
        <text transform="translate(-3683.5054 2706.787)" fill="white">
          <tspan font-family="Helvetica Neue" font-weight="bold" font-size="16" fill="white" x="18.084913" y="16">collector</tspan>
        </text>
      </g>
    </g>
  </g>
</svg>
